<?xml version="1.0" encoding="utf-8"?>
<!-- Generator: Adobe Illustrator 16.0.0, SVG Export Plug-In . SVG Version: 6.00 Build 0)  -->
<!DOCTYPE svg PUBLIC "-//W3C//DTD SVG 1.1//EN" "http://www.w3.org/Graphics/SVG/1.1/DTD/svg11.dtd">
<svg version="1.1" id="Layer_1" xmlns="http://www.w3.org/2000/svg" xmlns:xlink="http://www.w3.org/1999/xlink" x="0px" y="0px"
	 width="538.121px" height="479.495px" viewBox="0 0 538.121 479.495" enable-background="new 0 0 538.121 479.495"
	 xml:space="preserve">
<path fill="#B90A13" d="M500.004,126.371c11.134,18.586,19.814,37.958,26.135,57.74c6.737,20.476,0.7,23.975,11.982,60.199
	c-0.494,16.566,0.269,39.043-1.606,60.396c-6.42,13.768-1.563,49.635-14.627,58.334c-4.018,23.799-16.762,35.773-27.08,54.01
	c-5.519,8.516-11.534,16.758-18.032,24.678c-6.259,8.943-16.698,27.367-27.558,33.707c-5.086,11.184-336.667-5.271-381.957,3.697
	c-20.371,4.035-27.707-52.695-38.388-70.527c-16.414-27.398-23.891-42.232-26.136-57.738c-2.921-20.16,3.247-37.473,0.323-59.742
	c-5.214-26.094-2.096-35.342-2.5-60.5c9.103-9.289,3.793-32.582,6.429-58.689c6.981-18.85,16.04-36.979,27.08-54.01
	c22.077-34.063,52.081-63.735,89.252-86.003c18.586-11.134,37.958-19.814,57.739-26.136c19.182-7.324,36.924-6.785,60.199-3.39
	c23.525,3.811,40.314-1.413,60.397,1.606c24.19,9.875,42.27,3.703,58.334,6.036c17.911,5.417,31.786,7.374,54.01,27.08
	c19.977,15.956,32.965,24.059,47.425,38.966C475.885,90.992,488.87,107.785,500.004,126.371"/>
<g>
	<path fill="#FFFFFF" d="M97.241,180.122c0,0.972,0,0.972,0.277,2.361l0.139,1.735c0,1.18,0.14,1.597,0.764,2.014
		c0.556,0.417,1.319,0.625,2.083,0.625c0.486,0,0.973-0.069,1.458-0.208c0.417-0.139,0.764-0.208,0.764-0.208
		c0.139,0,1.111,0.139,2.569,0.347h0.347c0.139,0,0.278,0,0.417-0.069c0.625-0.069,1.11-0.139,1.249-0.139
		c1.042,0,2.014,1.041,2.152,2.291v0.972l0.14,2.986c0,1.458-1.042,2.222-3.056,2.222c-0.833,0-1.735-0.069-3.055-0.348
		c-0.555-0.069-1.041-0.139-1.318-0.139c-0.209,0-0.625,0.069-1.25,0.139c-0.902,0.139-1.735,0.209-2.5,0.209
		c-0.972,0-0.972,0-4.165-0.348c-0.417-0.069-0.833-0.069-1.181-0.069c-0.416,0-0.416,0-1.874,0.347
		c-0.209,0.07-0.417,0.07-0.694,0.07c-1.527,0-2.5-1.042-2.5-2.777c0-0.903,0.069-1.944,0.209-3.055
		c0.139-1.319,0.208-1.735,0.208-2.43c0-0.903,0-0.903-0.348-3.194v-0.486c0-0.278,0-0.625,0.07-1.042
		c0.208-2.291,0.277-3.194,0.277-4.999c0-1.042-0.069-1.944-0.139-2.847c-0.139-1.042-0.209-1.805-0.209-2.083
		c0-0.208,0.07-0.833,0.14-1.666c0.069-0.625,0.277-4.027,0.277-4.443c0-0.694-0.069-2.014-0.277-3.819
		c-0.069-0.764-0.069-1.319-0.069-1.805c0-0.556,0-0.556,0.208-2.43c-0.208-3.333-0.278-5.068-0.348-5.207
		c-0.069-0.694-0.139-1.18-0.139-1.527c0-1.667,1.25-3.263,2.5-3.263c0.139,0,0.764,0.069,1.666,0.139
		c0.208,0.07,0.416,0.07,0.625,0.07h0.485c0.694-0.07,1.181-0.07,1.667-0.07c1.735,0,2.776,1.042,2.776,2.708
		c0,0.625,0,0.694-0.208,2.222c-0.069,0.417-0.069,0.902-0.069,1.597c0,0.556,0,1.18,0.069,1.944v1.111c0,0.556,0,0.556-0.139,2.291
		l0.069,2.292l-0.069,4.027l0.069,3.055l-0.069,4.304c-0.069,0.833-0.139,1.458-0.139,1.458c0.139,1.25,0.139,1.25,0.139,3.333
		V180.122z"/>
	<path fill="#FFFFFF" d="M117.235,194.632c-1.806,0-2.708-1.041-2.708-3.193c0-0.972,0-0.972,0.417-3.402
		c0.069-0.208,0.069-0.417,0.069-0.694v-0.625c-0.209-1.597-0.278-2.777-0.278-2.985v-0.486l0.139-2.292
		c0-0.972,0-0.972,0.209-3.333l-0.348-6.526l0.278-5.971c-0.14-2.638-0.14-2.638-0.278-5.485c0-0.139,0.069-0.625,0.139-1.25
		c0.07-0.625,0.14-1.11,0.14-1.597c0-0.278,0-0.278-0.069-0.833c-0.07-0.278-0.278-1.805-0.556-4.582
		c0-2.152,1.041-3.402,2.916-3.402c0.416,0,0.764,0,1.041,0.07c0.556,0.069,0.902,0.139,0.902,0.139l2.569-0.208
		c0.139,0,1.11,0.556,1.458,0.764c0.556,0.486,0.902,1.181,0.902,1.944c0,0.486-0.069,1.041-0.139,1.597
		c-0.069,0.625-0.069,0.625-0.139,1.319c0,0.208-0.069,0.694-0.14,1.527l0.14,1.735l-0.14,1.389l0.07,1.25l-0.07,1.319l0.209,2.5
		c0,0.069,0,0.347-0.069,0.764c-0.069,0.347-0.069,0.625-0.069,0.972c0,1.042,0,2.708,0.069,3.055
		c0.069,0.555,0.069,0.972,0.069,0.972c0,0.278-0.069,0.833-0.209,1.528c-0.069,0.277-0.069,0.417-0.069,0.486l0.14,1.805
		c-0.209,1.805-0.209,1.805-0.209,2.013c0,0.347,0,0.347,0.417,2.43l-0.069,0.417l-0.069,1.042c0,0.902,0,0.902-0.069,1.666
		c0.208,1.667,0.416,3.472,0.416,4.027c0,0.069-0.069,0.417-0.139,0.902c-0.069,0.486-0.069,0.903-0.069,1.25
		c0,0.764,0.277,3.471,0.485,4.651c0.07,0.486,0.14,0.903,0.14,1.25c0,1.389-0.973,2.222-2.639,2.222c-0.347,0-0.347,0-1.805-0.139
		c-0.209-0.069-0.556-0.069-0.903-0.069c-0.139,0-0.485,0-0.972,0.069H117.235z"/>
	<path fill="#FFFFFF" d="M142.297,169.569c0.277,1.111,0.347,1.25,0.347,1.527c0.069,0.486,0.209,1.18,0.417,2.152
		c0.139,0.555,0.277,1.388,0.417,2.43c0.208,0.903,0.416,1.805,0.555,2.638c0.139,0.417,0.209,1.042,0.417,1.875
		c0.208-1.805,1.11-6.387,1.319-7.012l0.139-0.486l0.139-1.25l0.486-3.194c0.624-2.985,0.764-3.68,0.902-6.04
		c0.347-1.944,0.694-4.027,1.11-6.249l0.278-3.124c0.277-3.194,1.18-4.791,2.707-4.791c0.348,0,0.694,0.069,1.111,0.139
		c0.416,0.069,0.694,0.069,0.972,0.069c0.278,0,0.278,0,1.944-0.139c0.347-0.069,0.694-0.069,1.041-0.069
		c1.806,0,2.916,0.833,2.916,2.222c0,1.18-0.416,2.985-1.18,5.207c-0.556,1.805-0.625,2.013-1.319,5.554
		c-0.348,1.458-0.348,1.597-0.625,2.43l-0.277,1.875c-0.278,1.875-0.278,1.875-1.319,6.596c-0.764,3.263-0.833,3.818-1.111,6.11
		c-0.485,2.568-0.902,4.929-1.527,7.984c-0.416,1.875-0.625,2.985-0.625,3.541l-0.069,2.013c-0.139,1.875-1.597,3.333-3.471,3.333
		c-1.319,0-1.806-0.07-3.68-0.417l-4.097,0.347c-0.347-0.069-1.597-1.041-1.944-1.597c-0.347-0.485-0.347-0.485-0.902-4.651
		c-0.485-3.124-0.902-5.068-1.458-6.804l-0.347-1.458l-0.208-1.319c-0.417-1.389-0.903-2.985-1.389-4.791
		c-0.278-1.111-0.417-1.666-0.625-3.193c-0.486-2.985-0.833-4.652-1.042-5.416c-0.139-0.556-0.347-1.111-0.555-1.736
		c-0.278-0.972-0.764-3.124-1.042-4.374c-0.347-1.805-0.416-1.944-0.902-3.263c-1.389-3.68-1.874-5.346-1.874-6.041
		c0-1.25,1.11-2.222,2.43-2.222c0.277,0,0.694,0,1.11,0.07c0.694,0.069,1.319,0.069,1.597,0.069c0.417,0,0.834,0,1.319-0.069
		c0.694-0.07,1.25-0.139,1.667-0.139c1.666,0,2.776,1.736,2.846,4.652l0.14,0.972c0.416,1.736,0.764,3.472,1.041,5.346
		c0.069,0.417,0.277,1.042,0.486,1.875c0.139,0.902,0.555,2.708,1.11,5.346l0.208,0.833l0.14,1.319L142.297,169.569z"/>
</g>
<g>
	<path fill="#FFFFFF" d="M177.706,194.632c-1.18,0-2.222,0-2.707-0.069c-2.36-0.139-4.027-0.277-4.097-0.277
		s-0.764,0.139-1.735,0.277c-0.764,0.139-1.527,0.208-2.222,0.208c-2.777,0-4.235-1.458-4.235-4.235
		c0-0.347,0.069-0.694,0.139-1.111c0.209-1.25,0.348-2.222,0.348-2.499c0-0.07-0.069-0.417-0.139-0.903
		c-0.14-0.833-0.209-2.013-0.209-3.055c0-1.597,0-1.805,0.348-4.166c0.069-0.486,0.139-1.111,0.139-1.875
		c0-0.764,0-0.764-0.139-3.888c-0.069-0.972-0.069-1.805-0.069-2.5c0-0.486,0-0.972,0.069-1.458l0.069-2.291
		c0-0.555-0.139-2.846-0.277-4.582v-0.694c0-0.486,0-0.486,0.208-4.166v-0.833c0-0.555,0-0.694-0.139-1.458
		c-0.069-0.903-0.069-0.903-0.14-1.875c0-0.347-0.069-1.18-0.208-2.638c0-1.388,1.527-2.569,3.194-2.569c0.416,0,1.041,0,1.805,0.07
		c0.417,0.069,0.833,0.069,1.181,0.069c0.416,0,0.416,0,2.499-0.139h1.11c0.764,0,1.458,0.07,2.152,0.139
		c0.764,0.069,1.25,0.139,1.319,0.139l2.222-0.069c2.222,0.208,2.222,0.208,3.055,0.208l2.777-0.07
		c0.902-0.069,1.597-0.139,2.014-0.139c1.527,0,2.568,0.972,2.568,2.36c0,0.347-0.069,0.694-0.139,1.111
		c-0.069,0.486-0.139,0.833-0.139,0.903s0.069,0.764,0.208,1.666c0.069,0.278,0.069,0.486,0.069,0.694
		c0,1.389-0.347,2.014-1.041,2.014c-0.417,0-1.042-0.07-1.875-0.278l-1.389-0.208c-1.458,0-1.666,0-1.874-0.069l-1.181-0.139h-1.389
		l-0.624-0.07l-4.305-0.069c-0.833,0-1.806,0.278-2.152,0.694c-0.486,0.486-0.973,2.014-0.973,2.916
		c0,0.833,0.417,2.569,0.694,2.916c0.348,0.417,1.528,0.833,2.361,0.833l2.013-0.069c1.25,0.208,1.25,0.208,2.014,0.278l1.111,0.069
		c0.347,0.069,0.624,0.069,0.764,0.069c0.277,0,0.277,0,1.735-0.139c0.833,0.069,1.944,0.208,3.332,0.347
		c0.973,0.069,1.875,0.902,1.875,1.666c0,0.069-0.069,0.417-0.208,0.903c-0.069,0.347-0.069,0.625-0.069,1.041
		c0,0.556,0.069,1.181,0.208,1.875c0.069,0.417,0.069,0.764,0.069,1.111c0,1.041-1.041,1.875-2.291,1.875
		c-0.139,0-1.181-0.208-2.985-0.625c-0.486-0.139-0.902-0.208-1.042-0.208c-0.069,0-0.555,0.069-1.249,0.139
		c-0.209,0.069-0.348,0.069-0.486,0.069c-0.277,0-0.277,0-1.25-0.139l-1.527,0.07c-0.069,0-0.347,0-0.694-0.07
		c-0.347-0.069-0.694-0.069-1.11-0.069c-1.041,0-1.875,0.347-2.499,0.972c-0.625,0.625-0.625,0.625-0.625,3.61l-0.069,1.597
		c-0.07,0.417-0.07,0.764-0.07,1.111c0,1.389,0.278,3.68,0.556,4.791c0.348,1.319,1.527,2.291,3.055,2.43
		c1.042,0.139,4.443,0.208,6.943,0.208c0.902,0,0.972,0,3.055-0.555c0.347-0.07,0.764-0.139,1.11-0.139
		c1.111,0,2.014,0.764,2.014,1.736c0,0.347-0.069,0.764-0.139,1.25c-0.139,0.486-0.208,0.903-0.208,1.18
		c0,0.278,0,0.278,0.347,1.944c0.069,0.347,0.139,0.694,0.139,1.042c0,1.389-0.902,2.013-2.847,2.013c-0.764,0-0.764,0-4.165-0.208
		c-0.417-0.069-0.764-0.069-1.389-0.069c-0.348,0-0.348,0-1.735,0.069H177.706z"/>
</g>
<g>
	<path fill="#FFFFFF" d="M212.868,177.428c0,0.185,0,0.462-0.047,0.74l-0.046,1.064c0,0.37,0.046,0.786,0.093,1.249
		c0.139,0.786,0.231,1.434,0.231,1.758l-0.047,0.647c-0.139,0.833-0.185,1.341-0.185,1.665c0,1.804,0.092,4.625,0.185,5.18
		c0.186,1.249,0.277,2.127,0.277,2.729c0,1.48-0.462,2.22-1.479,2.22c-0.186,0-0.37,0-0.602-0.046
		c-0.416-0.046-0.74-0.046-0.786-0.046c-1.526,0.092-1.526,0.092-1.804,0.092c-1.665,0-2.128-0.647-2.128-3.006
		c0-0.416,0.047-0.925,0.14-1.48c0.139-1.11,0.185-1.341,0.185-1.85l0.139-1.942c0-0.185,0-0.185-0.139-3.006l-0.046-2.082
		c0-1.018,0.046-2.174,0.185-3.422c0.046-0.277,0.046-0.416,0.046-0.462c-0.092-1.48-0.23-3.099-0.323-4.764l0.046-1.573
		c0-1.249-0.739-2.035-1.988-2.035c-0.416,0-0.416,0-1.526,0.277c-0.37,0.092-0.74,0.139-1.156,0.139
		c-1.202,0-1.942-0.74-1.942-1.989c0-0.185,0-0.37,0.046-0.601l0.047-0.462v-1.665c0-0.786,0.925-1.249,2.497-1.249
		c0.416,0,0.832,0.046,1.572,0.139c0.509,0.046,0.879,0.092,1.11,0.092c0.185,0,0.462,0,0.74-0.046
		c0.786-0.092,1.387-0.139,1.618-0.139s0.694,0.046,1.342,0.093c0.601,0.046,1.109,0.092,1.479,0.092
		c0.463,0,1.063-0.046,1.758-0.139c0.647-0.046,1.156-0.093,1.388-0.093c0.277,0,0.739,0.046,1.341,0.093
		c0.463,0.046,0.786,0.092,1.063,0.092s0.694-0.046,1.203-0.092c0.369-0.046,0.647-0.093,0.925-0.093
		c0.323,0,0.647,0.185,0.971,0.555c0.463,0.509,0.509,0.601,0.509,1.619l0.139,0.833c0.093,0.601,0.139,1.064,0.139,1.388
		c0,0.786-0.971,1.85-1.665,1.757c-1.341-0.185-2.127-0.277-2.313-0.324c-0.462-0.092-0.925-0.139-1.387-0.139
		c-1.295,0-1.942,0.555-1.942,1.665c0,0.277,0,0.555,0.046,0.878c0.093,0.509,0.139,0.879,0.139,0.971
		c0,0.602-0.046,2.544-0.093,3.423L212.868,177.428z"/>
	<path fill="#FFFFFF" d="M245.008,189.961c0,0.231,0.093,0.647,0.231,1.156c0.185,0.555,0.277,1.063,0.277,1.479
		c0,1.064-0.786,2.128-1.665,2.128c-0.277,0-0.277,0-1.479-0.186c-0.139-0.046-0.324-0.046-0.509-0.046
		c-0.139,0-0.277,0-0.416,0.046c-0.602,0.093-1.064,0.139-1.11,0.139c-0.879,0-1.572-0.878-1.572-2.034c0-0.555,0-0.555,0.323-2.174
		c0.047-0.185,0.047-0.416,0.047-0.647c0-0.231,0-0.231-0.093-1.249l0.093-1.018c-0.047-0.647-0.186-4.44-0.186-4.81l0.046-2.358
		c0-0.694-0.416-1.896-0.739-2.035c-0.186-0.139-0.186-0.139-2.128-0.277c-0.046,0-0.231,0.046-0.509,0.139
		c-0.416,0.139-0.879,0.185-1.248,0.185c-0.417,0-1.249-0.046-2.313-0.093c-0.324-0.046-0.602-0.046-0.833-0.046
		c-0.971,0-1.85,0.231-2.035,0.601c-0.139,0.185-0.139,0.185-0.37,3.284c0.093,1.156,0.093,1.156,0.093,1.249
		c0,0.277,0,0.693-0.046,1.295c-0.047,0.185-0.047,0.37-0.047,0.509c0,0.37,0.047,0.832,0.186,1.341
		c0.093,0.324,0.139,0.555,0.139,0.602l-0.093,1.202l0.093,0.879l-0.046,1.018c0,0.092,0.092,0.555,0.23,1.203
		c0.047,0.324,0.093,0.601,0.093,0.924c0,1.435-0.74,2.313-1.942,2.313c-0.277,0-0.74,0-1.341-0.046l-1.249-0.046
		c-1.711,0.046-2.358-0.694-2.358-2.544c0-0.601,0-0.601,0.323-1.85c0.046-0.046,0.046-0.231,0.046-0.416
		c0-0.231,0-0.231-0.139-2.451c-0.046-0.231-0.046-0.647-0.046-1.203c0-1.295,0-1.434,0.231-3.006
		c0.046-0.231,0.046-0.462,0.046-0.694c0-0.37-0.046-0.786-0.093-1.295c-0.139-1.526-0.139-1.757-0.139-2.081
		c0-0.509,0.047-1.295,0.093-1.896c0.046-0.231,0.046-0.324,0.046-0.37c-0.046-1.018-0.092-1.619-0.092-1.85l-0.186-2.821
		c0-0.324,0-0.324,0.277-2.683v-0.324c0-0.37-0.185-2.173-0.323-3.099c-0.046-0.139-0.046-0.324-0.046-0.462
		c0-1.156,0.739-2.081,1.711-2.081c0.185,0,0.37,0,0.509,0.046c0.37,0.093,0.601,0.139,0.601,0.139s0.417-0.046,0.972-0.139
		c0.139-0.046,0.277-0.046,0.416-0.046c1.572,0,2.174,0.693,2.174,2.451c0,0.185,0,0.185-0.139,1.018
		c-0.093,0.416-0.139,1.063-0.139,1.619c0,1.989,0.185,3.052,0.555,3.469c0.37,0.37,1.203,0.601,2.359,0.601
		c0.369,0,0.786-0.046,1.341-0.092c0.416-0.046,0.693-0.046,0.786-0.046c0.324,0,2.358,0.046,2.914,0.092
		c0.416,0,1.434-0.185,1.757-0.324c0.556-0.231,0.787-0.509,0.787-1.11v-0.324c-0.047-0.324-0.047-0.509-0.047-0.555l0.093-1.156
		l-0.093-3.376c0-1.434,0.416-2.127,1.342-2.127c0.277,0,0.509,0,0.832,0.046c0.186,0.046,0.324,0.046,0.37,0.046
		c0.185,0,0.602-0.046,1.249-0.139c0.23-0.046,0.416-0.046,0.647-0.046c1.109,0,1.804,0.647,1.804,1.711
		c0,0.417-0.047,0.786-0.186,1.526c-0.046,0.416-0.092,0.74-0.092,0.925c0,0.093,0.046,0.509,0.092,1.11
		c0.047,0.231,0.047,0.463,0.047,0.647c0,0.463-0.047,1.203-0.139,1.619c-0.047,0.416-0.093,0.693-0.093,0.693l0.093,2.082
		c0,0,0,0.231-0.047,0.509c-0.046,0.277-0.046,0.601-0.046,0.925c0,0.416,0.046,0.925,0.093,1.48
		c0.046,0.786,0.092,1.388,0.092,1.619c0,0.324-0.046,0.925-0.139,1.711c-0.046,0.555-0.093,0.971-0.093,1.295
		c0,0.277,0.047,0.74,0.093,1.295c0.047,0.416,0.047,0.694,0.047,0.925c0,0.046,0,0.417-0.047,0.971l-0.046,2.636
		c0,0.139,0,0.509,0.046,0.925v1.156V189.961z"/>
</g>
<g>
	<path fill="#FFFFFF" d="M259.619,194.586c-0.786,0-1.48,0-1.804-0.047c-1.572-0.092-2.683-0.185-2.729-0.185
		c-0.047,0-0.509,0.093-1.156,0.185c-0.509,0.093-1.018,0.139-1.48,0.139c-1.85,0-2.821-0.971-2.821-2.821
		c0-0.231,0.047-0.462,0.093-0.74c0.139-0.833,0.231-1.48,0.231-1.665c0-0.046-0.047-0.278-0.093-0.602
		c-0.093-0.555-0.139-1.341-0.139-2.035c0-1.064,0-1.203,0.231-2.775c0.046-0.324,0.092-0.74,0.092-1.249s0-0.509-0.092-2.59
		c-0.047-0.647-0.047-1.203-0.047-1.665c0-0.324,0-0.647,0.047-0.971l0.046-1.526c0-0.37-0.093-1.896-0.185-3.052v-0.462
		c0-0.324,0-0.324,0.139-2.775v-0.555c0-0.37,0-0.462-0.093-0.971c-0.046-0.602-0.046-0.602-0.093-1.249
		c0-0.231-0.046-0.786-0.139-1.757c0-0.925,1.018-1.711,2.128-1.711c0.277,0,0.693,0,1.202,0.046
		c0.277,0.046,0.555,0.046,0.786,0.046c0.277,0,0.277,0,1.665-0.093h0.74c0.509,0,0.971,0.046,1.434,0.093
		c0.509,0.046,0.832,0.092,0.879,0.092l1.479-0.046c1.48,0.139,1.48,0.139,2.035,0.139l1.851-0.046
		c0.601-0.046,1.063-0.092,1.341-0.092c1.018,0,1.711,0.647,1.711,1.572c0,0.231-0.046,0.462-0.093,0.74
		c-0.046,0.324-0.092,0.555-0.092,0.601s0.046,0.509,0.139,1.11c0.046,0.185,0.046,0.324,0.046,0.462
		c0,0.925-0.231,1.341-0.693,1.341c-0.277,0-0.694-0.046-1.249-0.185l-0.925-0.139c-0.972,0-1.11,0-1.249-0.046l-0.786-0.092h-0.925
		l-0.416-0.046l-2.868-0.046c-0.555,0-1.202,0.185-1.434,0.462c-0.323,0.324-0.647,1.341-0.647,1.942
		c0,0.555,0.277,1.711,0.463,1.942c0.231,0.277,1.018,0.555,1.572,0.555l1.341-0.046c0.833,0.139,0.833,0.139,1.342,0.185
		l0.74,0.046c0.23,0.046,0.416,0.046,0.509,0.046c0.185,0,0.185,0,1.156-0.092c0.555,0.046,1.295,0.139,2.22,0.231
		c0.647,0.046,1.249,0.602,1.249,1.11c0,0.046-0.047,0.277-0.14,0.601c-0.046,0.231-0.046,0.417-0.046,0.694
		c0,0.37,0.046,0.786,0.139,1.249c0.047,0.278,0.047,0.509,0.047,0.74c0,0.694-0.694,1.249-1.526,1.249
		c-0.093,0-0.786-0.139-1.989-0.416c-0.323-0.093-0.601-0.139-0.693-0.139c-0.047,0-0.37,0.046-0.833,0.092
		c-0.139,0.046-0.23,0.046-0.323,0.046c-0.186,0-0.186,0-0.833-0.093l-1.018,0.046c-0.046,0-0.23,0-0.462-0.046
		c-0.231-0.046-0.463-0.046-0.74-0.046c-0.693,0-1.249,0.231-1.665,0.647c-0.416,0.416-0.416,0.416-0.416,2.405l-0.046,1.064
		c-0.047,0.277-0.047,0.508-0.047,0.74c0,0.925,0.186,2.451,0.37,3.191c0.231,0.878,1.018,1.526,2.035,1.619
		c0.693,0.092,2.96,0.139,4.625,0.139c0.602,0,0.647,0,2.035-0.37c0.23-0.046,0.509-0.092,0.739-0.092
		c0.74,0,1.342,0.509,1.342,1.156c0,0.231-0.047,0.509-0.093,0.833c-0.093,0.324-0.139,0.601-0.139,0.786s0,0.185,0.231,1.295
		c0.046,0.231,0.093,0.463,0.093,0.693c0,0.926-0.602,1.342-1.896,1.342c-0.509,0-0.509,0-2.775-0.139
		c-0.277-0.047-0.509-0.047-0.925-0.047c-0.231,0-0.231,0-1.156,0.047H259.619z"/>
</g>
<g>
	<path fill="#FFFFFF" d="M313.729,181.025v-2.083l-0.208-1.805c-0.069-0.347-0.069-0.625-0.069-0.764
		c0-0.417,0.139-1.18,0.277-2.152c0.208-1.111,0.347-2.013,0.347-2.846c0-0.417-0.069-1.111-0.139-1.944
		c-0.069-0.625-0.069-1.111-0.069-1.458c0-0.208,0.069-0.833,0.139-1.735v-0.556c0-0.486-0.277-0.833-0.555-0.833
		c-0.348,0-0.348,0.069-1.042,1.111l-0.556,0.694l-0.277,0.278c-1.25,1.25-1.527,1.527-1.735,1.944
		c-0.278,0.486-0.694,1.042-1.319,1.736c-0.417,0.347-0.486,0.486-0.972,1.666c-1.042,2.222-2.291,3.124-4.374,3.124
		c-2.431,0-2.639-0.069-4.235-2.708c-0.277-0.555-0.764-1.111-2.291-2.708c-0.208-0.278-0.417-0.556-0.625-0.764
		c-0.625-0.833-1.11-1.667-1.666-2.5c-0.764-1.18-1.527-1.944-2.014-1.944c-0.347,0-0.625,0.417-0.625,1.042
		c0,0.208,0,0.208,0.209,1.805l-0.07,1.111c0.14,1.25,0.14,1.25,0.14,1.528c0,0.347,0,0.764-0.14,2.846
		c-0.069,0.764-0.069,1.389-0.069,2.083c0,0.347,0.069,0.764,0.14,1.18c0.139,0.694,0.208,1.18,0.208,1.25
		c0,0.139-0.069,0.556-0.208,1.181c-0.14,0.555-0.14,0.694-0.14,1.319v1.805c0,0.625,0,0.833,0.14,1.458
		c0,0.278,0.069,0.556,0.069,0.556c0,0.069-0.209,1.041-0.417,2.36c-0.069,0.208-0.069,0.417-0.069,0.625
		c0,0,0.139,1.041,0.486,3.055c0.139,1.042,0.208,1.805,0.208,2.152c0,1.735-0.833,2.43-2.777,2.43c-0.347,0-0.694-0.069-1.18-0.139
		c-0.625-0.069-1.181-0.139-1.319-0.139c-0.069,0-0.625,0.069-1.389,0.139h-0.694c-1.805,0-2.777-1.111-2.777-3.194
		c0-0.625,0.139-1.319,0.348-1.944c0.277-0.556,0.416-0.972,0.416-1.042l-0.069-1.25l0.139-1.944c0-0.069-0.069-0.417-0.139-0.833
		l-0.069-1.527c0-0.694,0-1.18,0.069-1.736c0.139-0.902,0.208-1.597,0.208-1.805c0-0.07,0-0.347-0.069-0.764
		c-0.069-1.11-0.139-1.11-0.139-3.957l-0.139-2.569c-0.069-0.486-0.069-0.903-0.069-1.111c0-0.139,0.069-0.694,0.139-1.458
		c0.139-1.944,0.139-2.777,0.139-7.637l0.069-0.833c0.069-1.18,0.14-2.013,0.14-2.083c0,0,0-0.208-0.07-0.417v-0.347l0.07-3.193
		c0-0.139-0.07-0.625-0.209-1.25c-0.556-2.222-0.625-2.708-0.625-3.61c0-1.597,0.834-2.569,2.222-2.5l1.181,0.069l3.263-0.069
		c2.5,0,3.61,0.833,4.86,3.541c0.972,2.083,1.11,2.292,2.222,3.472l0.625,0.625l0.625,1.041c0.625,1.042,0.833,1.319,1.389,2.152
		c0.485,0.556,0.902,1.25,1.318,1.944c0.348,0.694,0.417,0.833,0.833,1.319c0.486,0.694,0.903,1.25,0.973,1.458l0.625,1.389
		c0.139,0.277,0.416,0.486,0.624,0.486c0.417,0,1.042-0.764,1.667-1.944c0.555-1.042,0.764-1.25,1.249-1.944
		c0.348-0.555,0.694-1.111,0.973-1.597c0.069-0.278,0.277-0.555,0.625-0.833l0.764-0.833c0.485-0.486,0.624-0.694,1.11-1.528
		c0.208-0.277,0.348-0.555,0.556-0.902c0.972-1.18,1.597-2.013,1.874-2.5c0.348-0.764,0.625-1.527,0.903-2.222
		c0.764-1.875,2.151-2.708,4.443-2.708c0.416,0,0.416,0,2.499,0.208c1.874-0.208,1.874-0.208,2.152-0.208
		c1.805,0,2.36,0.694,2.36,2.638c0,0.972-0.069,1.18-0.625,3.749c-0.208,0.833-0.347,2.222-0.347,3.194v0.833
		c0.069,1.042,0.139,1.805,0.139,1.944c0,0.139,0,0.417-0.069,0.764c-0.139,1.528-0.208,2.916-0.208,3.75
		c0,0.208,0,0.486,0.069,0.833v0.417c0,0.139-0.14,1.389-0.348,3.055c-0.069,0.347-0.069,0.694-0.069,0.972
		c0,0.347,0,0.694,0.069,1.042c0.208,1.25,0.348,2.083,0.348,2.222c0,0.069,0,0.417-0.069,0.833c-0.07,0.347-0.07,0.764-0.07,1.18
		c0,0.694,0,0.694,0.209,2.638v0.764c0,1.042,0,1.042-0.348,3.888c-0.069,0.417-0.069,0.694-0.069,0.972
		c0,0.278,0,0.625,0.069,0.903c0.139,0.694,0.209,1.25,0.209,1.319c0,0.07-0.07,0.417-0.14,0.903
		c-0.069,0.278-0.069,0.625-0.069,0.972c0,0.417,0,0.486,0.348,2.361c0.139,0.833,0.208,1.805,0.208,2.43
		c0,1.458-0.833,2.43-2.014,2.43c-0.277,0-0.277,0-1.943-0.208c-0.209-0.069-0.348-0.069-0.556-0.069c-0.277,0-0.277,0-1.25,0.277
		c-0.208,0.07-0.485,0.07-0.833,0.07c-2.014,0-3.68-1.319-3.541-2.847c0.209-2.846,0.348-4.304,0.348-4.374
		c0.347-1.458,0.416-1.944,0.416-3.333c0-0.903-0.069-1.667-0.139-2.43L313.729,181.025z"/>
	<path fill="#FFFFFF" d="M351.911,186.301c-0.624,0.069-1.11,0.139-1.11,0.139c-0.069,0-0.348,0-0.764-0.069h-0.694
		c-0.625,0-0.625,0-2.847,0.278c-0.625,0.069-1.11,0.069-1.527,0.069c-0.556,0-1.25-0.069-2.014-0.208
		c-0.555-0.069-1.041-0.139-1.318-0.139c-2.223,0-3.819,1.875-3.889,4.374c0,2.152,0,2.152-0.485,2.916
		c-0.556,0.764-1.111,1.11-2.014,1.11c-0.486,0-1.111-0.069-1.806-0.139l-1.388-0.069c-0.348,0-0.973,0-2.014,0.069h-0.694
		c-1.458,0-2.291-0.694-2.291-1.805c0-0.694,0.347-1.667,1.041-2.986c0.486-0.833,0.764-1.458,0.833-1.666l0.348-1.458
		c0.139-0.417,0.347-0.902,0.625-1.458c0.555-1.111,0.972-2.222,1.318-3.402c0.278-1.319,0.556-2.569,0.834-3.818
		c0.139-0.417,0.347-0.972,0.972-2.569c0.486-1.25,0.972-2.708,1.458-4.443c0.277-0.903,0.556-1.667,0.833-2.222l0.902-2.083
		c0.417-1.25,0.694-2.013,1.389-4.374c0.139-0.486,0.277-0.972,0.417-1.527c0.139-0.486,0.069-0.208,0.277-0.694l0.347-0.972
		l0.348-1.181c0.347-1.458,0.486-1.805,1.389-4.096c0.485-1.388,0.833-2.36,0.833-2.499c0.902-2.985,1.319-3.402,3.749-3.402
		c0.277,0,0.625,0,0.972,0.07l1.042,0.069l2.568-0.069c0.278,0,1.181,0.625,1.666,1.111c0.348,0.347,0.625,1.041,0.973,2.291
		c0.139,0.347,0.347,0.902,0.625,1.805l0.833,2.013l1.458,3.194c0.555,1.18,0.833,2.152,1.11,3.61
		c0.208,1.111,0.208,1.25,0.833,2.708c0.278,0.347,0.417,0.833,0.556,1.389l0.417,1.735l0.555,1.458
		c0.209,0.764,0.417,1.458,0.556,2.083l0.278,1.18c0.139,0.486,0.416,0.972,0.693,1.666c0.348,0.694,0.209,0.347,0.486,1.042
		l0.764,2.083l0.277,1.458l0.348,0.833c0.139,0.347,0.277,0.694,0.347,1.042l0.486,2.083l0.348,0.903l0.694,1.597
		c0.208,0.556,0.416,1.111,0.555,1.597c0.209,0.694,0.417,1.25,0.694,1.666l0.902,1.527c0.556,1.042,0.903,2.222,0.903,3.124
		c0,1.042-0.486,1.597-1.527,1.597l-1.389-0.069c-0.903-0.139-1.597-0.208-2.014-0.208c-0.277,0-0.972,0.069-1.805,0.139
		c-0.625,0.069-1.181,0.139-1.667,0.139c-1.805,0-2.43-1.041-2.568-4.165c0-1.527-0.208-2.083-1.319-3.541
		c-0.417-0.625-0.972-0.833-2.014-0.833H351.911z M345.455,166.653c-0.625,1.736-0.764,2.013-1.111,3.263
		c-0.556,1.944-0.694,2.43-1.18,3.471c-0.486,1.111-0.486,1.111-1.319,3.958c0,0.555,1.041,1.25,1.874,1.25l2.222-0.069
		c0.069,0,0.348,0,0.764,0.069h0.833c0.486,0,0.834,0,1.111-0.069l0.486-0.069h1.389c0.416,0,1.041-0.764,1.041-1.25
		c0-0.347,0-0.347-0.694-1.805l-0.417-1.458l-0.277-1.319l-0.694-2.291l-0.347-1.389l-0.209-0.764
		c-0.208-1.18-0.485-2.013-0.625-2.5c-0.624-1.458-0.764-1.666-0.693-1.875c-0.07-0.347-0.278-1.18-0.556-2.36
		c-0.069-0.069-0.139-0.208-0.208-0.208L345.455,166.653z"/>
	<path fill="#FFFFFF" d="M382.874,168.875c0,0.278,0,0.694-0.07,1.111l-0.069,1.597c0,0.556,0.069,1.18,0.14,1.875
		c0.208,1.18,0.347,2.152,0.347,2.638l-0.069,0.972c-0.208,1.25-0.277,2.013-0.277,2.5c0,2.708,0.139,6.942,0.277,7.776
		c0.277,1.875,0.416,3.193,0.416,4.096c0,2.222-0.693,3.332-2.222,3.332c-0.277,0-0.555,0-0.902-0.069
		c-0.625-0.069-1.11-0.069-1.18-0.069c-2.291,0.139-2.291,0.139-2.708,0.139c-2.499,0-3.193-0.972-3.193-4.512
		c0-0.625,0.069-1.389,0.208-2.222c0.208-1.667,0.277-2.014,0.277-2.777l0.209-2.916c0-0.278,0-0.278-0.209-4.513l-0.069-3.124
		c0-1.528,0.069-3.263,0.278-5.138c0.069-0.417,0.069-0.625,0.069-0.694c-0.139-2.222-0.348-4.652-0.486-7.151l0.069-2.361
		c0-1.875-1.11-3.055-2.985-3.055c-0.625,0-0.625,0-2.291,0.417c-0.556,0.139-1.11,0.208-1.735,0.208
		c-1.806,0-2.916-1.111-2.916-2.986c0-0.277,0-0.555,0.069-0.902l0.069-0.694v-2.5c0-1.18,1.389-1.875,3.749-1.875
		c0.625,0,1.25,0.07,2.36,0.208c0.764,0.069,1.319,0.139,1.666,0.139c0.278,0,0.694,0,1.111-0.069
		c1.181-0.139,2.083-0.208,2.43-0.208c0.348,0,1.042,0.069,2.014,0.139c0.902,0.069,1.666,0.139,2.222,0.139
		c0.694,0,1.597-0.069,2.638-0.208c0.973-0.069,1.736-0.139,2.083-0.139c0.417,0,1.111,0.07,2.014,0.139
		c0.694,0.069,1.181,0.139,1.597,0.139c0.417,0,1.042-0.069,1.806-0.139c0.555-0.069,0.972-0.139,1.388-0.139
		c0.486,0,0.973,0.278,1.458,0.833c0.694,0.764,0.765,0.902,0.765,2.43l0.208,1.25c0.139,0.902,0.208,1.597,0.208,2.083
		c0,1.18-1.458,2.777-2.499,2.638c-2.014-0.277-3.194-0.417-3.472-0.486c-0.694-0.139-1.389-0.208-2.083-0.208
		c-1.943,0-2.916,0.833-2.916,2.5c0,0.417,0,0.833,0.069,1.319c0.14,0.764,0.209,1.319,0.209,1.458c0,0.902-0.069,3.818-0.14,5.138
		L382.874,168.875z"/>
	<path fill="#FFFFFF" d="M412.31,194.632c-1.18,0-2.222,0-2.707-0.069c-2.36-0.139-4.027-0.277-4.097-0.277
		s-0.764,0.139-1.735,0.277c-0.764,0.139-1.527,0.208-2.222,0.208c-2.777,0-4.235-1.458-4.235-4.235
		c0-0.347,0.069-0.694,0.139-1.111c0.209-1.25,0.348-2.222,0.348-2.499c0-0.07-0.069-0.417-0.139-0.903
		c-0.14-0.833-0.209-2.013-0.209-3.055c0-1.597,0-1.805,0.348-4.166c0.069-0.486,0.139-1.111,0.139-1.875
		c0-0.764,0-0.764-0.139-3.888c-0.069-0.972-0.069-1.805-0.069-2.5c0-0.486,0-0.972,0.069-1.458l0.069-2.291
		c0-0.555-0.139-2.846-0.277-4.582v-0.694c0-0.486,0-0.486,0.208-4.166v-0.833c0-0.555,0-0.694-0.139-1.458
		c-0.069-0.903-0.069-0.903-0.14-1.875c0-0.347-0.069-1.18-0.208-2.638c0-1.388,1.527-2.569,3.194-2.569c0.416,0,1.041,0,1.805,0.07
		c0.417,0.069,0.833,0.069,1.181,0.069c0.416,0,0.416,0,2.499-0.139h1.11c0.764,0,1.458,0.07,2.152,0.139
		c0.764,0.069,1.25,0.139,1.319,0.139l2.222-0.069c2.222,0.208,2.222,0.208,3.055,0.208l2.777-0.07
		c0.902-0.069,1.597-0.139,2.014-0.139c1.527,0,2.568,0.972,2.568,2.36c0,0.347-0.069,0.694-0.139,1.111
		c-0.069,0.486-0.139,0.833-0.139,0.903s0.069,0.764,0.208,1.666c0.069,0.278,0.069,0.486,0.069,0.694
		c0,1.389-0.347,2.014-1.041,2.014c-0.417,0-1.042-0.07-1.875-0.278l-1.389-0.208c-1.458,0-1.666,0-1.874-0.069l-1.181-0.139h-1.389
		l-0.624-0.07l-4.305-0.069c-0.833,0-1.806,0.278-2.152,0.694c-0.486,0.486-0.973,2.014-0.973,2.916
		c0,0.833,0.417,2.569,0.694,2.916c0.348,0.417,1.528,0.833,2.361,0.833l2.013-0.069c1.25,0.208,1.25,0.208,2.014,0.278l1.111,0.069
		c0.347,0.069,0.624,0.069,0.764,0.069c0.277,0,0.277,0,1.735-0.139c0.833,0.069,1.944,0.208,3.332,0.347
		c0.973,0.069,1.875,0.902,1.875,1.666c0,0.069-0.069,0.417-0.208,0.903c-0.069,0.347-0.069,0.625-0.069,1.041
		c0,0.556,0.069,1.181,0.208,1.875c0.069,0.417,0.069,0.764,0.069,1.111c0,1.041-1.041,1.875-2.291,1.875
		c-0.139,0-1.181-0.208-2.985-0.625c-0.486-0.139-0.902-0.208-1.042-0.208c-0.069,0-0.555,0.069-1.249,0.139
		c-0.209,0.069-0.348,0.069-0.486,0.069c-0.277,0-0.277,0-1.25-0.139l-1.527,0.07c-0.069,0-0.347,0-0.694-0.07
		c-0.347-0.069-0.694-0.069-1.11-0.069c-1.041,0-1.875,0.347-2.499,0.972c-0.625,0.625-0.625,0.625-0.625,3.61l-0.069,1.597
		c-0.07,0.417-0.07,0.764-0.07,1.111c0,1.389,0.278,3.68,0.556,4.791c0.348,1.319,1.527,2.291,3.055,2.43
		c1.042,0.139,4.443,0.208,6.943,0.208c0.902,0,0.972,0,3.055-0.555c0.347-0.07,0.764-0.139,1.11-0.139
		c1.111,0,2.014,0.764,2.014,1.736c0,0.347-0.069,0.764-0.139,1.25c-0.139,0.486-0.208,0.903-0.208,1.18
		c0,0.278,0,0.278,0.347,1.944c0.069,0.347,0.139,0.694,0.139,1.042c0,1.389-0.902,2.013-2.847,2.013c-0.764,0-0.764,0-4.165-0.208
		c-0.417-0.069-0.764-0.069-1.389-0.069c-0.348,0-0.348,0-1.735,0.069H412.31z M404.673,144.297c-1.25,0-1.943-0.486-1.943-1.458
		c0-0.625,0.069-0.833,0.972-2.222c0.486-0.764,0.764-1.458,0.972-2.222c0.417-1.527,0.764-1.875,1.875-1.875h0.694
		c0.694,0.07,1.318,0.139,1.527,0.139c0.069,0,0.347,0,0.764-0.069l2.083-0.07c1.249,0,2.082,0.556,2.082,1.389
		c0,1.042-0.208,1.25-3.055,3.61c-0.485,0.486-0.972,0.972-1.389,1.527c-1.11,1.18-1.249,1.319-1.805,1.319
		c-0.208,0-0.208,0-1.319-0.139c-0.069,0-0.486,0-1.11,0.069H404.673z"/>
</g>
<g>
	<path fill="#FFFFFF" d="M110.174,256.768c-1.18,0-2.222,0-2.707-0.07c-2.36-0.139-4.027-0.277-4.097-0.277
		s-0.764,0.139-1.735,0.277c-0.764,0.139-1.527,0.209-2.222,0.209c-2.777,0-4.235-1.459-4.235-4.234
		c0-0.348,0.069-0.695,0.139-1.111c0.209-1.25,0.348-2.223,0.348-2.5c0-0.068-0.069-0.416-0.139-0.902
		c-0.139-0.834-0.209-2.014-0.209-3.055c0-1.598,0-1.805,0.348-4.166c0.069-0.486,0.139-1.111,0.139-1.875s0-0.764-0.139-3.887
		c-0.069-0.973-0.069-1.805-0.069-2.5c0-0.486,0-0.973,0.069-1.457l0.069-2.291c0-0.557-0.139-2.848-0.277-4.584v-0.693
		c0-0.486,0-0.486,0.208-4.166v-0.832c0-0.557,0-0.695-0.139-1.459c-0.069-0.902-0.069-0.902-0.139-1.875
		c0-0.346-0.07-1.18-0.209-2.637c0-1.389,1.527-2.569,3.194-2.569c0.416,0,1.041,0,1.805,0.069c0.417,0.069,0.833,0.069,1.181,0.069
		c0.416,0,0.416,0,2.499-0.139h1.11c0.764,0,1.458,0.069,2.152,0.139c0.764,0.069,1.25,0.14,1.319,0.14l2.222-0.07
		c2.222,0.209,2.222,0.209,3.055,0.209l2.777-0.069c0.902-0.069,1.597-0.14,2.014-0.14c1.527,0,2.568,0.973,2.568,2.361
		c0,0.347-0.069,0.694-0.139,1.11c-0.069,0.486-0.139,0.834-0.139,0.902c0,0.07,0.069,0.764,0.208,1.668
		c0.069,0.277,0.069,0.484,0.069,0.693c0,1.389-0.347,2.014-1.041,2.014c-0.417,0-1.042-0.07-1.875-0.277l-1.389-0.209
		c-1.458,0-1.666,0-1.874-0.068l-1.181-0.141h-1.389l-0.624-0.068l-4.305-0.07c-0.833,0-1.806,0.279-2.152,0.695
		c-0.486,0.486-0.972,2.014-0.972,2.916c0,0.832,0.416,2.568,0.693,2.916c0.348,0.416,1.527,0.832,2.361,0.832l2.013-0.068
		c1.25,0.207,1.25,0.207,2.014,0.277l1.111,0.068c0.347,0.07,0.624,0.07,0.764,0.07c0.277,0,0.277,0,1.735-0.139
		c0.833,0.068,1.944,0.209,3.332,0.348c0.973,0.068,1.875,0.902,1.875,1.666c0,0.068-0.069,0.416-0.208,0.902
		c-0.069,0.348-0.069,0.625-0.069,1.041c0,0.555,0.069,1.18,0.208,1.875c0.069,0.416,0.069,0.764,0.069,1.111
		c0,1.041-1.041,1.873-2.291,1.873c-0.139,0-1.181-0.207-2.985-0.625c-0.486-0.139-0.902-0.207-1.042-0.207
		c-0.069,0-0.555,0.068-1.249,0.139c-0.209,0.068-0.348,0.068-0.486,0.068c-0.277,0-0.277,0-1.25-0.139l-1.527,0.07
		c-0.069,0-0.347,0-0.694-0.07c-0.347-0.068-0.694-0.068-1.11-0.068c-1.042,0-1.875,0.348-2.499,0.971
		c-0.625,0.625-0.625,0.625-0.625,3.611l-0.069,1.598c-0.069,0.416-0.069,0.764-0.069,1.109c0,1.389,0.277,3.68,0.555,4.791
		c0.348,1.318,1.527,2.291,3.055,2.43c1.042,0.139,4.443,0.209,6.943,0.209c0.902,0,0.972,0,3.055-0.557
		c0.347-0.068,0.764-0.139,1.11-0.139c1.111,0,2.014,0.764,2.014,1.736c0,0.348-0.069,0.764-0.139,1.25
		c-0.139,0.486-0.208,0.902-0.208,1.18s0,0.277,0.347,1.943c0.069,0.348,0.139,0.695,0.139,1.043c0,1.389-0.902,2.012-2.847,2.012
		c-0.764,0-0.764,0-4.165-0.207c-0.417-0.07-0.764-0.07-1.389-0.07c-0.348,0-0.348,0-1.735,0.07H110.174z"/>
	<path fill="#FFFFFF" d="M146.761,247.186l-0.833-1.18l-1.111-2.5l-0.416-0.764c-0.625-1.18-0.973-2.012-1.598-3.609
		c-0.277-0.625-0.555-1.041-0.693-1.041c-0.209,0-0.625,0.625-1.042,1.734c-0.277,0.834-0.416,1.043-0.556,1.32
		c-0.208,0.416-0.347,0.764-0.485,1.111c0.069,0.139-0.14,0.623-0.556,1.387l-0.417,0.766c-0.555,0.832-0.833,1.387-1.527,3.332
		c-0.139,0.277-0.277,0.625-0.485,1.111l-0.903,1.318l-0.833,1.736l-0.347,0.902c-0.694,2.221-0.833,2.568-1.25,3.123
		c-0.556,0.695-1.319,1.041-2.014,1.041c-1.388-0.068-3.193-0.139-3.471-0.139c-1.527,0.07-1.527,0.07-1.667,0.07
		c-1.597,0-2.638-0.695-2.638-1.805c0-0.834,0.277-1.527,1.25-3.264c0.624-1.18,0.694-1.389,1.11-2.361
		c0.486-1.109,0.833-1.873,1.042-2.359c0.208-0.139,0.416-0.764,1.458-3.402l0.416-0.834l1.389-2.707
		c0.208-0.348,0.347-0.764,0.486-1.111l0.555-1.389c0.348-0.832,0.694-1.527,1.042-2.221c1.249-2.223,2.013-4.234,2.013-5.068
		s-0.069-0.902-2.776-5.762c-0.278-0.348-0.486-0.834-0.694-1.32l-1.458-3.402c-0.278-0.693-0.417-0.971-0.764-1.596
		c-0.208-0.416-0.556-1.041-0.902-1.805c-0.278-0.834-0.486-1.111-1.111-1.736c-0.556-0.834-0.833-1.598-0.833-2.222
		c0-0.902,0.902-2.499,1.458-2.43l3.888,0.278c0,0,0.348-0.07,0.902-0.14c0.348-0.069,0.764-0.139,1.181-0.139
		c1.805,0,2.568,0.764,3.124,2.847c0.417,1.596,0.625,2.083,0.902,2.569c0.209,0.416,0.417,0.834,0.625,1.318
		c0.417,0.904,0.833,1.598,1.181,2.084c0.208,0.139,1.527,3.123,1.735,3.887c0.348,1.111,0.625,1.668,0.902,1.668
		c0.348,0,0.556-0.348,1.458-2.709c0.278-0.625,0.486-1.25,0.833-1.943c0.278-0.625,0.14-0.277,0.486-0.902
		c1.736-3.125,1.875-3.332,1.944-3.818l0.139-1.598c0.277-2.013,1.597-3.402,3.263-3.402c0.556,0,0.973,0.069,1.389,0.139
		c0.556,0.14,0.973,0.209,0.973,0.209l3.263-0.14c0.417,0,1.041,1.319,1.041,2.361c0,0.971-0.347,2.083-0.972,3.194l-0.833,1.457
		l-0.764,2.084c-0.208,0.555-0.417,0.971-0.694,1.389c-0.208,0.416-0.139,0.207-0.348,0.623l-0.416,0.695
		c-0.348,0.764-0.625,1.457-0.902,2.152l-0.417,0.764l-1.319,2.082c-0.347,0.486-1.389,3.334-1.389,3.68
		c0,0.625,0.07,0.764,1.319,2.57c0.625,1.041,0.694,1.18,1.389,3.68c0.069,0.346,0.278,0.693,0.556,1.041l0.833,0.902
		c0.486,0.555,0.833,1.25,1.111,2.082c0.693,1.666,0.833,2.014,1.249,2.777l1.25,2.014c0.416,0.834,0.625,1.457,0.833,2.014
		c0.347,1.318,0.417,1.457,0.833,2.014c0.278,0.625,0.556,1.041,0.764,1.389c0.139,0.277,0.348,0.625,0.625,0.971l0.486,0.557
		c0.764,0.832,1.18,1.873,1.18,2.846s-0.416,1.389-1.389,1.389c-0.555,0-1.18-0.07-1.943-0.209
		c-0.694-0.068-1.181-0.139-1.458-0.139c-0.208,0-0.694,0.07-1.458,0.209c-0.694,0.068-1.319,0.139-2.014,0.139
		c-2.985,0-3.541-0.693-4.166-4.859c-0.347-0.973-0.485-1.389-0.902-2.5c-0.347-0.764-0.347-0.832-0.625-1.25L146.761,247.186z"/>
	<path fill="#FFFFFF" d="M165.504,244.826c0-0.139,0-0.348-0.069-0.557c-0.069-0.971-0.139-1.734-0.139-2.082
		c0-0.07,0-0.348,0.069-0.693c0.069-0.834,0.139-2.57,0.139-3.264c0-0.764-0.069-1.666-0.208-2.639
		c-0.069-0.486-0.14-0.834-0.14-0.902c0.417-4.93,0.417-4.93,0.417-5.832c0-0.764,0-1.389-0.069-2.014
		c-0.069-0.486-0.069-0.832-0.069-0.902l0.069-2.152c-0.139-1.527-0.139-1.527-0.139-1.805s0-0.557,0.069-0.902l0.069-1.111
		c0-0.139-0.139-1.457-0.417-3.264c-0.069-0.693-0.139-1.457-0.139-2.43c0-3.402,0.833-4.235,4.305-4.235
		c0.625,0,1.181,0.069,2.291,0.208c0.486,0.069,0.833,0.069,0.902,0.069l2.777-0.139l1.735,0.139l3.125-0.208
		c5.346,0.278,5.346,0.278,7.775,1.806c2.014,1.18,3.749,2.36,4.651,3.055c0.486,0.416,0.486,0.416,1.875,2.568l0.694,0.832
		c1.18,1.32,1.666,2.57,1.805,4.93c0.069,0.277,0.069,0.557,0.209,0.973c0.069,0.277,0.069,0.277,0.069,0.973
		c0,0.902,0.069,1.805,0.139,2.775c0,1.389-1.181,5.902-1.875,7.291c-1.458,2.777-3.957,5.416-6.248,6.525
		c-0.417,0.209-0.764,0.418-1.111,0.625l-0.624,0.557c-1.319,1.041-5.347,2.221-7.776,2.221h-0.972
		c-1.042-0.068-1.666-0.068-2.014-0.068c-1.944,0-2.499,0.555-2.499,2.498c0,1.666,0.069,2.152,0.555,3.75
		c0.209,0.832,0.417,2.221,0.417,3.193c0,1.527-0.625,2.291-1.875,2.291c-0.485,0-0.902,0-1.318-0.07
		c-0.764-0.068-1.25-0.139-1.527-0.139c-0.069,0-0.348,0-0.694,0.07c-0.694,0.068-1.319,0.139-1.806,0.139
		c-1.805,0-2.707-1.111-2.707-3.264c0-0.693,0.069-1.457,0.139-2.152c0.069-0.902,0.139-1.527,0.139-1.805
		c0-0.139-0.069-0.832-0.139-1.736c-0.069-0.346-0.069-0.693-0.069-0.971s0-0.277,0.208-1.805V244.826z M174.321,222.887
		c-0.139,1.527-0.139,1.527-0.139,1.875c0,0.486,0,0.832,0.139,2.359c0.069,0.625,0.069,1.182,0.069,1.598
		c0,0.486,0,1.041-0.069,1.736c-0.278,2.498-0.278,2.568-0.278,3.123c0,1.945,0.417,3.125,1.111,3.402
		c0.417,0.209,2.222,0.348,3.61,0.348c1.11,0,1.11,0,2.43-0.557l1.111-0.207c1.11-0.209,2.776-1.25,3.61-2.223
		c0.416-0.486,1.388-2.082,1.735-2.777c0.277-0.625,0.902-2.846,0.902-3.193c-0.069-1.734-0.208-2.707-0.277-2.984
		c-1.111-3.473-2.014-4.861-4.027-5.693c-2.013-0.902-4.443-1.459-6.04-1.459c-2.083,0-3.957,1.389-3.957,2.986L174.321,222.887z"/>
	<path fill="#FFFFFF" d="M216.74,256.768c-1.18,0-2.222,0-2.707-0.07c-2.36-0.139-4.027-0.277-4.097-0.277s-0.764,0.139-1.735,0.277
		c-0.764,0.139-1.527,0.209-2.222,0.209c-2.777,0-4.235-1.459-4.235-4.234c0-0.348,0.069-0.695,0.139-1.111
		c0.209-1.25,0.348-2.223,0.348-2.5c0-0.068-0.069-0.416-0.139-0.902c-0.139-0.834-0.209-2.014-0.209-3.055
		c0-1.598,0-1.805,0.348-4.166c0.069-0.486,0.139-1.111,0.139-1.875s0-0.764-0.139-3.887c-0.069-0.973-0.069-1.805-0.069-2.5
		c0-0.486,0-0.973,0.069-1.457l0.069-2.291c0-0.557-0.139-2.848-0.277-4.584v-0.693c0-0.486,0-0.486,0.208-4.166v-0.832
		c0-0.557,0-0.695-0.139-1.459c-0.069-0.902-0.069-0.902-0.139-1.875c0-0.346-0.07-1.18-0.209-2.637
		c0-1.389,1.527-2.569,3.194-2.569c0.416,0,1.041,0,1.805,0.069c0.417,0.069,0.833,0.069,1.181,0.069c0.416,0,0.416,0,2.499-0.139
		h1.11c0.764,0,1.458,0.069,2.152,0.139c0.764,0.069,1.25,0.14,1.319,0.14l2.222-0.07c2.222,0.209,2.222,0.209,3.055,0.209
		l2.777-0.069c0.902-0.069,1.597-0.14,2.014-0.14c1.527,0,2.568,0.973,2.568,2.361c0,0.347-0.069,0.694-0.139,1.11
		c-0.069,0.486-0.139,0.834-0.139,0.902c0,0.07,0.069,0.764,0.208,1.668c0.069,0.277,0.069,0.484,0.069,0.693
		c0,1.389-0.347,2.014-1.041,2.014c-0.417,0-1.042-0.07-1.875-0.277l-1.389-0.209c-1.458,0-1.666,0-1.874-0.068l-1.181-0.141h-1.389
		l-0.624-0.068l-4.305-0.07c-0.833,0-1.806,0.279-2.152,0.695c-0.486,0.486-0.972,2.014-0.972,2.916
		c0,0.832,0.416,2.568,0.693,2.916c0.348,0.416,1.527,0.832,2.361,0.832l2.013-0.068c1.25,0.207,1.25,0.207,2.014,0.277l1.111,0.068
		c0.347,0.07,0.624,0.07,0.764,0.07c0.277,0,0.277,0,1.735-0.139c0.833,0.068,1.944,0.209,3.332,0.348
		c0.973,0.068,1.875,0.902,1.875,1.666c0,0.068-0.069,0.416-0.208,0.902c-0.069,0.348-0.069,0.625-0.069,1.041
		c0,0.555,0.069,1.18,0.208,1.875c0.069,0.416,0.069,0.764,0.069,1.111c0,1.041-1.041,1.873-2.291,1.873
		c-0.139,0-1.181-0.207-2.985-0.625c-0.486-0.139-0.902-0.207-1.042-0.207c-0.069,0-0.555,0.068-1.249,0.139
		c-0.209,0.068-0.348,0.068-0.486,0.068c-0.277,0-0.277,0-1.25-0.139l-1.527,0.07c-0.069,0-0.347,0-0.694-0.07
		c-0.347-0.068-0.694-0.068-1.11-0.068c-1.042,0-1.875,0.348-2.499,0.971c-0.625,0.625-0.625,0.625-0.625,3.611l-0.069,1.598
		c-0.069,0.416-0.069,0.764-0.069,1.109c0,1.389,0.277,3.68,0.555,4.791c0.348,1.318,1.527,2.291,3.055,2.43
		c1.042,0.139,4.443,0.209,6.943,0.209c0.902,0,0.972,0,3.055-0.557c0.347-0.068,0.764-0.139,1.11-0.139
		c1.111,0,2.014,0.764,2.014,1.736c0,0.348-0.069,0.764-0.139,1.25c-0.139,0.486-0.208,0.902-0.208,1.18s0,0.277,0.347,1.943
		c0.069,0.348,0.139,0.695,0.139,1.043c0,1.389-0.902,2.012-2.847,2.012c-0.764,0-0.764,0-4.165-0.207
		c-0.417-0.07-0.764-0.07-1.389-0.07c-0.348,0-0.348,0-1.735,0.07H216.74z"/>
	<path fill="#FFFFFF" d="M265.269,255.656c0,0.625-0.764,1.459-1.597,1.805c-0.625,0.279-0.625,0.279-2.5,0.279
		c-2.082,0-2.638-0.07-3.471-0.279c-2.639-0.832-2.985-1.109-7.498-4.93c-2.014-1.734-3.056-2.846-4.652-4.789
		c-0.555-0.764-1.318-1.111-2.152-1.111c-0.694,0-0.902,0.209-1.041,1.041c-0.139,0.625-0.208,1.25-0.208,1.736s0,0.486,0.416,2.5
		c0.139,1.041,0.278,2.082,0.278,2.846c0,1.318-0.556,2.014-1.736,2.014h-0.555c-0.486-0.07-0.764-0.07-0.834-0.07l-4.582,0.139
		c-1.249,0-2.083-0.971-2.083-2.43c0-0.832,0.069-1.734,0.278-2.639c0.347-1.596,0.347-1.873,0.347-2.568
		c0-0.416,0-0.832-0.069-1.18c-0.139-0.625-0.208-0.973-0.208-0.973l0.208-2.498c0,0,0-0.209-0.069-0.418
		c-0.069-0.416-0.069-1.25-0.069-2.846c0-0.486,0-0.486,0.139-3.193c-0.208-1.875-0.208-1.875-0.208-2.777
		c0-2.084,0-2.084,0.139-3.68c0.069-0.695,0.139-1.736,0.139-3.332c0-0.486,0-0.902-0.069-1.182l-0.069-1.18l0.139-1.389
		l-0.139-2.291c0.069-1.389,0.069-1.389,0.069-1.736c0-1.041-0.139-2.221-0.347-3.332c-0.278-1.527-0.348-1.805-0.348-2.291
		c0-3.402,1.181-4.86,3.958-4.86c0.833,0,0.833,0,2.916,0.277c0.139,0.07,0.416,0.07,0.902,0.07h0.694
		c0.694-0.07,1.11-0.07,1.11-0.07l2.43,0.14c3.333-0.278,3.333-0.278,3.958-0.278c3.957,0,5.484,0.556,9.512,3.264
		c2.499,1.734,2.499,1.734,5.484,5.971c1.25,1.873,1.458,2.707,1.389,5.832v0.764l0.277,2.775l-0.277,0.973
		c-0.208,0.348-0.348,0.902-0.417,1.598c-0.347,1.873-0.416,2.014-1.11,3.471l-0.902,1.875c-0.694,1.389-0.903,1.734-1.527,2.221
		c-2.847,2.5-3.958,3.264-5.624,3.957c-1.111,0.348-1.458,0.557-1.458,0.973c0,0.486,0,0.486,1.11,1.459l1.806,1.734
		c1.11,1.111,3.124,1.736,5.484,1.807c1.111,0,1.527,0.139,2.014,0.555c0.556,0.486,0.972,1.18,0.972,1.736
		c0,0.207-0.069,0.764-0.277,1.596l-0.069,0.764V255.656z M246.593,218.443l-1.181-0.07c-1.18,0-2.638,1.32-2.847,2.5
		c-0.069,0.348-0.208,3.471-0.208,4.582c0,0.348,0,0.348,0.208,4.514l-0.069,0.486c-0.139,0.971-0.208,1.805-0.208,2.568
		c0,1.734,0.208,3.471,0.486,3.887c0.277,0.557,1.874,1.043,3.471,1.043c1.111,0,1.597-0.139,3.61-1.043l1.319-0.416
		c1.389-0.416,1.389-0.416,2.43-2.082c0.139-0.209,0.625-0.902,1.527-2.084c0.625-0.832,1.181-1.943,1.319-2.498
		c0.347-2.291,0.347-2.43,0.347-2.5c0-0.486-0.693-3.125-1.041-3.818c-1.041-2.223-3.818-4.305-6.248-4.721l-1.181-0.209
		c-0.347-0.139-0.625-0.209-0.764-0.209L246.593,218.443z"/>
	<path fill="#FFFFFF" d="M274.153,256.768c-1.806,0-2.708-1.041-2.708-3.193c0-0.973,0-0.973,0.417-3.402
		c0.069-0.209,0.069-0.416,0.069-0.695v-0.623c-0.209-1.598-0.278-2.777-0.278-2.986v-0.486l0.139-2.291
		c0-0.973,0-0.973,0.209-3.332l-0.348-6.527l0.278-5.971c-0.14-2.637-0.14-2.637-0.278-5.484c0-0.139,0.069-0.625,0.139-1.25
		c0.07-0.625,0.14-1.109,0.14-1.596c0-0.277,0-0.277-0.069-0.834c-0.07-0.277-0.278-1.805-0.556-4.582
		c0-2.152,1.041-3.402,2.916-3.402c0.416,0,0.764,0,1.041,0.069c0.556,0.069,0.902,0.139,0.902,0.139l2.569-0.208
		c0.139,0,1.11,0.556,1.458,0.764c0.556,0.486,0.902,1.181,0.902,1.944c0,0.487-0.069,1.042-0.139,1.596
		c-0.069,0.625-0.069,0.625-0.139,1.32c0,0.207-0.069,0.693-0.14,1.527l0.14,1.734l-0.14,1.389l0.07,1.25l-0.07,1.32l0.209,2.498
		c0,0.07,0,0.348-0.069,0.764c-0.069,0.348-0.069,0.625-0.069,0.973c0,1.041,0,2.707,0.069,3.055
		c0.069,0.555,0.069,0.973,0.069,0.973c0,0.277-0.069,0.832-0.209,1.527c-0.069,0.277-0.069,0.416-0.069,0.484l0.14,1.807
		c-0.209,1.805-0.209,1.805-0.209,2.014c0,0.346,0,0.346,0.417,2.43l-0.069,0.416l-0.069,1.041c0,0.902,0,0.902-0.069,1.666
		c0.208,1.666,0.416,3.473,0.416,4.027c0,0.07-0.069,0.416-0.139,0.902s-0.069,0.902-0.069,1.25c0,0.764,0.277,3.471,0.485,4.652
		c0.07,0.484,0.14,0.902,0.14,1.248c0,1.389-0.973,2.223-2.639,2.223c-0.347,0-0.347,0-1.805-0.139
		c-0.209-0.07-0.556-0.07-0.903-0.07c-0.139,0-0.485,0-0.972,0.07H274.153z"/>
	<path fill="#FFFFFF" d="M303.311,256.768c-1.18,0-2.222,0-2.707-0.07c-2.36-0.139-4.027-0.277-4.097-0.277
		s-0.764,0.139-1.735,0.277c-0.764,0.139-1.527,0.209-2.222,0.209c-2.777,0-4.235-1.459-4.235-4.234
		c0-0.348,0.069-0.695,0.139-1.111c0.209-1.25,0.348-2.223,0.348-2.5c0-0.068-0.069-0.416-0.139-0.902
		c-0.139-0.834-0.209-2.014-0.209-3.055c0-1.598,0-1.805,0.348-4.166c0.069-0.486,0.139-1.111,0.139-1.875s0-0.764-0.139-3.887
		c-0.069-0.973-0.069-1.805-0.069-2.5c0-0.486,0-0.973,0.069-1.457l0.069-2.291c0-0.557-0.139-2.848-0.277-4.584v-0.693
		c0-0.486,0-0.486,0.208-4.166v-0.832c0-0.557,0-0.695-0.139-1.459c-0.069-0.902-0.069-0.902-0.139-1.875
		c0-0.346-0.07-1.18-0.209-2.637c0-1.389,1.527-2.569,3.194-2.569c0.416,0,1.041,0,1.805,0.069c0.417,0.069,0.833,0.069,1.181,0.069
		c0.416,0,0.416,0,2.499-0.139h1.11c0.764,0,1.458,0.069,2.152,0.139c0.764,0.069,1.25,0.14,1.319,0.14l2.222-0.07
		c2.222,0.209,2.222,0.209,3.055,0.209l2.777-0.069c0.902-0.069,1.597-0.14,2.014-0.14c1.527,0,2.568,0.973,2.568,2.361
		c0,0.347-0.069,0.694-0.139,1.11c-0.069,0.486-0.139,0.834-0.139,0.902c0,0.07,0.069,0.764,0.208,1.668
		c0.069,0.277,0.069,0.484,0.069,0.693c0,1.389-0.347,2.014-1.041,2.014c-0.417,0-1.042-0.07-1.875-0.277l-1.389-0.209
		c-1.458,0-1.666,0-1.874-0.068l-1.181-0.141h-1.389l-0.624-0.068l-4.305-0.07c-0.833,0-1.806,0.279-2.152,0.695
		c-0.486,0.486-0.972,2.014-0.972,2.916c0,0.832,0.416,2.568,0.693,2.916c0.348,0.416,1.527,0.832,2.361,0.832l2.013-0.068
		c1.25,0.207,1.25,0.207,2.014,0.277l1.111,0.068c0.347,0.07,0.624,0.07,0.764,0.07c0.277,0,0.277,0,1.735-0.139
		c0.833,0.068,1.944,0.209,3.332,0.348c0.973,0.068,1.875,0.902,1.875,1.666c0,0.068-0.069,0.416-0.208,0.902
		c-0.069,0.348-0.069,0.625-0.069,1.041c0,0.555,0.069,1.18,0.208,1.875c0.069,0.416,0.069,0.764,0.069,1.111
		c0,1.041-1.041,1.873-2.291,1.873c-0.139,0-1.181-0.207-2.985-0.625c-0.486-0.139-0.902-0.207-1.042-0.207
		c-0.069,0-0.555,0.068-1.249,0.139c-0.209,0.068-0.348,0.068-0.486,0.068c-0.277,0-0.277,0-1.25-0.139l-1.527,0.07
		c-0.069,0-0.347,0-0.694-0.07c-0.347-0.068-0.694-0.068-1.11-0.068c-1.042,0-1.875,0.348-2.499,0.971
		c-0.625,0.625-0.625,0.625-0.625,3.611l-0.069,1.598c-0.069,0.416-0.069,0.764-0.069,1.109c0,1.389,0.277,3.68,0.555,4.791
		c0.348,1.318,1.527,2.291,3.055,2.43c1.042,0.139,4.443,0.209,6.943,0.209c0.902,0,0.972,0,3.055-0.557
		c0.347-0.068,0.764-0.139,1.11-0.139c1.111,0,2.014,0.764,2.014,1.736c0,0.348-0.069,0.764-0.139,1.25
		c-0.139,0.486-0.208,0.902-0.208,1.18s0,0.277,0.347,1.943c0.069,0.348,0.139,0.695,0.139,1.043c0,1.389-0.902,2.012-2.847,2.012
		c-0.764,0-0.764,0-4.165-0.207c-0.417-0.07-0.764-0.07-1.389-0.07c-0.348,0-0.348,0-1.735,0.07H303.311z"/>
	<path fill="#FFFFFF" d="M350.658,256.906c-0.694,0.068-1.527,0.068-2.291,0.068c-1.458,0-2.152-0.277-3.055-1.387
		c-0.625-0.834-0.625-0.834-2.291-4.791c-1.111-2.361-1.319-2.777-3.193-5.346c-0.694-0.973-1.944-3.125-2.777-4.721l-0.417-0.904
		c-0.485-0.764-0.972-1.457-1.527-2.221c-0.277-0.348-0.139-0.139-0.416-0.625c-0.348-0.555-1.042-1.875-1.944-3.889l-0.972-1.457
		l-0.556-0.625c-0.347-0.555-0.694-0.973-1.041-1.318c-0.14-0.279-0.348-0.418-0.417-0.418c-0.208,0-0.416,0.348-0.347,0.764
		c0.139,1.389,0.208,2.848,0.208,3.889c0,0.139,0,0.348-0.069,0.555c-0.069,0.695-0.139,1.111-0.139,1.182
		c0,0.068,0.139,0.764,0.277,1.666c0.069,0.207,0.069,0.416,0.069,0.486l-0.277,3.123l0.347,3.193c0,0,0,0.209-0.069,0.557
		c-0.069,0.555-0.069,0.625-0.208,3.4c0,1.598,0.069,2.639,0.556,6.318v0.486c0,1.111-0.764,1.943-1.875,1.943
		c-0.208,0-0.625,0-1.041-0.068c-0.278-0.07-0.556-0.07-0.764-0.07c-0.209,0-0.209,0-1.806,0.139c-0.277,0.07-0.416,0.07-0.556,0.07
		c-1.527,0-1.943-0.139-2.568-0.625c-0.902-0.764-1.25-1.666-1.25-2.984c0-0.834,0.139-1.807,0.348-2.848
		c0.208-0.764,0.277-1.389,0.277-1.666c0-0.07-0.069-0.555-0.139-1.25c-0.069-0.693-0.208-3.471-0.208-4.512
		c0-0.418,0-0.418,0.208-1.598c-0.069-2.152-0.208-5.068-0.208-5.484c0-0.486,0-0.486,0.139-2.152l-0.208-7.15
		c0.069-0.834,0.208-2.293,0.416-4.375l-0.208-2.014c0.139-1.596,0.139-1.596,0.139-1.734c0-0.695-0.347-2.223-0.833-3.75
		c-0.348-0.902-0.486-1.666-0.486-2.152c0-1.25,1.111-2.5,2.291-2.5c0.209,0,0.486,0,0.764,0.069
		c1.319,0.139,2.291,0.209,2.431,0.209c0.139,0,0.624-0.07,1.249-0.14c0.348-0.069,0.694-0.069,0.973-0.069
		c0.972,0,2.568,0.764,3.193,1.597c0.833,1.042,1.389,2.152,2.36,4.443l0.486,0.904l0.694,1.041l0.416,0.902l0.139,0.416
		c0.417,1.25,0.417,1.25,1.458,2.5c0.625,0.764,1.111,1.527,1.527,2.221l1.875,3.75l0.417,0.973l1.11,1.18
		c0.208,0.348,0.417,0.625,0.556,0.902c0.625,1.25,0.764,1.457,1.458,2.5c0.208,0.277,0.208,0.277,0.833,1.457
		c0.694,1.25,1.319,2.152,1.527,2.152s0.347-0.348,0.347-0.973l-0.347-5.414v-1.182c0.069-1.248,0.069-2.914,0.069-3.818
		c0-1.248,0-1.596-0.069-3.887v-1.736v-1.25c0.069-0.764,0.069-1.25,0.069-1.457c0-0.625,0-0.625-0.416-2.709
		c-0.07-0.484-0.14-0.971-0.14-1.387c0-1.945,0.903-2.847,3.055-2.917l2.083-0.209c0.486-0.069,0.973-0.069,1.458-0.069
		c1.806,0,2.916,1.458,2.916,3.958c0,0.693,0,0.693-0.416,6.316c-0.069,0.625-0.069,1.111-0.069,1.25
		c0,0.277,0.069,0.973,0.208,1.943c0.208,1.389,0.277,2.709,0.277,3.959c0,0.971-0.139,3.541-0.208,4.373
		c-0.069,1.041-0.139,1.736-0.139,1.805c0,0.07,0.069,1.25,0.208,2.986c0.069,0.416,0.069,0.832,0.069,1.318
		c0,0.416,0,0.973-0.069,1.459c-0.139,1.873-0.208,3.193-0.208,3.541c0,0.207,0,0.623,0.069,1.109
		c0.139,1.111,0.208,1.875,0.208,2.223c0,0.139,0,0.555-0.069,1.041v1.736c0,1.25,0,1.389,0.347,3.332
		c0.14,0.693,0.209,1.318,0.209,1.943c0,1.875-0.694,2.5-2.5,2.5h-0.277H350.658z"/>
	<path fill="#FFFFFF" d="M385.231,252.393c0.139,0.557,0.208,1.043,0.208,1.459c0,2.291-2.152,3.889-5.276,3.889
		c-3.193,0-8.123-1.25-10.206-2.639c-4.513-2.916-7.845-7.291-9.512-12.428c-1.11-3.473-1.18-4.443-1.18-11.734
		c0-3.4,0.625-5.691,2.638-9.857c1.944-4.098,2.985-5.416,6.041-7.707c2.013-1.458,2.707-1.805,6.387-3.055
		c2.222-0.693,3.472-0.972,4.93-0.972c2.638,0,4.513,0.625,5.138,1.666c0.347,0.556,0.347,0.556,0.485,2.222
		c0.07,0.348,0.14,1.389,0.278,3.055c0,1.736-1.111,3.193-2.5,3.193c-0.485,0-1.18-0.068-1.943-0.277
		c-1.389-0.277-2.291-0.416-2.916-0.416c-0.972,0-2.847,0.693-3.888,1.457c-1.111,0.764-2.569,2.916-3.333,4.859
		c-0.764,1.945-1.874,6.596-1.874,7.777c0,1.389,0.694,5.346,1.18,6.803c0.625,1.736,2.36,5.207,3.055,5.971
		c1.181,1.32,2.847,2.084,4.583,2.084c0.555,0,0.555,0,2.013-0.348c0.278-0.07,1.042-0.139,1.527-0.139
		c2.639,0,3.61,0.973,3.958,3.889L385.231,252.393z"/>
	<path fill="#FFFFFF" d="M404.808,256.768c-1.18,0-2.222,0-2.707-0.07c-2.36-0.139-4.027-0.277-4.097-0.277
		s-0.764,0.139-1.735,0.277c-0.764,0.139-1.527,0.209-2.222,0.209c-2.777,0-4.235-1.459-4.235-4.234
		c0-0.348,0.069-0.695,0.139-1.111c0.209-1.25,0.348-2.223,0.348-2.5c0-0.068-0.069-0.416-0.139-0.902
		c-0.14-0.834-0.209-2.014-0.209-3.055c0-1.598,0-1.805,0.348-4.166c0.069-0.486,0.139-1.111,0.139-1.875s0-0.764-0.139-3.887
		c-0.069-0.973-0.069-1.805-0.069-2.5c0-0.486,0-0.973,0.069-1.457l0.069-2.291c0-0.557-0.139-2.848-0.277-4.584v-0.693
		c0-0.486,0-0.486,0.208-4.166v-0.832c0-0.557,0-0.695-0.139-1.459c-0.069-0.902-0.069-0.902-0.14-1.875
		c0-0.346-0.069-1.18-0.208-2.637c0-1.389,1.527-2.569,3.194-2.569c0.416,0,1.041,0,1.805,0.069
		c0.417,0.069,0.833,0.069,1.181,0.069c0.416,0,0.416,0,2.499-0.139h1.11c0.764,0,1.458,0.069,2.152,0.139
		c0.764,0.069,1.25,0.14,1.319,0.14l2.222-0.07c2.222,0.209,2.222,0.209,3.055,0.209l2.777-0.069c0.902-0.069,1.597-0.14,2.014-0.14
		c1.527,0,2.568,0.973,2.568,2.361c0,0.347-0.069,0.694-0.139,1.11c-0.069,0.486-0.139,0.834-0.139,0.902
		c0,0.07,0.069,0.764,0.208,1.668c0.069,0.277,0.069,0.484,0.069,0.693c0,1.389-0.347,2.014-1.041,2.014
		c-0.417,0-1.042-0.07-1.875-0.277l-1.389-0.209c-1.458,0-1.666,0-1.874-0.068l-1.181-0.141h-1.389l-0.624-0.068l-4.305-0.07
		c-0.833,0-1.806,0.279-2.152,0.695c-0.486,0.486-0.973,2.014-0.973,2.916c0,0.832,0.417,2.568,0.694,2.916
		c0.348,0.416,1.528,0.832,2.361,0.832l2.013-0.068c1.25,0.207,1.25,0.207,2.014,0.277l1.111,0.068
		c0.347,0.07,0.624,0.07,0.764,0.07c0.277,0,0.277,0,1.735-0.139c0.833,0.068,1.944,0.209,3.332,0.348
		c0.973,0.068,1.875,0.902,1.875,1.666c0,0.068-0.069,0.416-0.208,0.902c-0.069,0.348-0.069,0.625-0.069,1.041
		c0,0.555,0.069,1.18,0.208,1.875c0.069,0.416,0.069,0.764,0.069,1.111c0,1.041-1.041,1.873-2.291,1.873
		c-0.139,0-1.181-0.207-2.985-0.625c-0.486-0.139-0.902-0.207-1.042-0.207c-0.069,0-0.555,0.068-1.249,0.139
		c-0.209,0.068-0.348,0.068-0.486,0.068c-0.277,0-0.277,0-1.25-0.139l-1.527,0.07c-0.069,0-0.347,0-0.694-0.07
		c-0.347-0.068-0.694-0.068-1.11-0.068c-1.041,0-1.875,0.348-2.499,0.971c-0.625,0.625-0.625,0.625-0.625,3.611l-0.069,1.598
		c-0.07,0.416-0.07,0.764-0.07,1.109c0,1.389,0.278,3.68,0.556,4.791c0.348,1.318,1.527,2.291,3.055,2.43
		c1.042,0.139,4.443,0.209,6.943,0.209c0.902,0,0.972,0,3.055-0.557c0.347-0.068,0.764-0.139,1.11-0.139
		c1.111,0,2.014,0.764,2.014,1.736c0,0.348-0.069,0.764-0.139,1.25c-0.139,0.486-0.208,0.902-0.208,1.18s0,0.277,0.347,1.943
		c0.069,0.348,0.139,0.695,0.139,1.043c0,1.389-0.902,2.012-2.847,2.012c-0.764,0-0.764,0-4.165-0.207
		c-0.417-0.07-0.764-0.07-1.389-0.07c-0.348,0-0.348,0-1.735,0.07H404.808z"/>
</g>
<g>
	<path fill="#FFFFFF" d="M100.107,302.725l0.069-1.805c0.069-0.486,0.069-0.832,0.069-0.832c-0.208-2.848-0.347-4.582-0.347-4.861
		c0-0.207,0-0.693,0.069-1.389c0.069-0.832,0.139-1.596,0.139-2.291c0-0.693-0.069-1.666-0.139-2.846
		c-0.208-1.805-0.208-2.361-0.208-3.818c0-1.459,0.069-2.5,0.139-2.986c0.139-0.484,0.208-0.902,0.208-0.971
		c0,0-0.069-0.557-0.208-1.389l-0.069-1.041l-0.209-1.598c-0.069-0.625-0.139-1.111-0.139-1.598c0-1.041,0.417-1.805,1.389-2.43
		c0.348-0.207,1.181-0.555,1.319-0.555l3.749,0.139c0,0,0.486-0.07,1.041-0.139c0.417-0.07,0.903-0.07,1.389-0.07
		c0.764,0,0.764,0,3.749,0.348c0.694,0.07,1.111,0.07,5.693,0.139c1.25-0.139,2.152-0.207,2.222-0.207
		c0.625,0,1.735,0.484,2.083,0.971c0.208,0.209,0.625,1.389,0.625,1.598l-0.069,1.666c0,0,0,0.139,0.069,0.277
		c0.069,0.277,0.069,0.555,0.069,0.764c0,1.805-1.25,3.125-3.055,3.125c-0.694,0-1.598-0.07-2.569-0.277
		c-0.486-0.07-0.833-0.141-0.902-0.141l-1.527,0.07l-2.36-0.277c-0.973,0.068-2.5,0.486-2.916,0.764
		c-0.556,0.486-0.764,1.318-0.764,3.541c0,2.916,0.625,3.471,4.096,3.4h0.902c0.834,0.141,1.181,0.209,1.806,0.279
		c0.347,0.068,0.625,0.068,0.902,0.068c0.208,0,0.417,0,0.694-0.068c1.181-0.139,2.014-0.209,2.083-0.209
		c1.527,0,3.263,1.25,3.263,2.361c0,0.068-0.069,0.555-0.139,1.18c-0.069,0.209-0.069,0.416-0.069,0.555
		c0,0.277,0,0.277,0.139,1.598v0.625c0,1.457-1.11,2.359-2.985,2.359c-0.625,0-1.18-0.068-1.805-0.207
		c-0.348-0.07-0.625-0.139-0.625-0.139l-1.527,0.139l-1.319-0.139l-1.735,0.068h-0.417c-0.486-0.068-0.833-0.068-0.833-0.068
		c-1.597,0-2.36,1.25-2.36,3.748c0,0.139,0,0.139,0.139,1.18l-0.208,2.5c0.069,0.764,0.069,1.25,0.139,1.527
		c0,0.486,0.069,0.902,0.139,1.32c0.069,0.484,0.069,0.484,0.069,0.764c0,0.207,0,0.555-0.069,1.041v0.902
		c0,1.041,0.417,4.305,0.833,7.012c0,1.459-0.972,2.639-2.083,2.639l-2.013-0.07c-0.417-0.068-0.694-0.068-0.764-0.068
		c-1.458,0.277-1.458,0.277-1.736,0.277c-2.083,0-3.332-1.457-3.332-4.027c0-0.971,0-1.041,0.277-3.332
		c0.069-0.277,0.069-0.693,0.069-1.18c0-1.041,0-1.111-0.277-2.43c-0.069-0.348-0.139-0.625-0.139-0.902
		c0-0.418,0.069-1.32,0.208-2.432L100.107,302.725z"/>
	<path fill="#FFFFFF" d="M172.311,296.963v1.459l-0.417,2.568c-0.208,1.041-0.416,1.943-0.694,2.846
		c-0.069,1.805-1.666,4.93-3.749,7.637c-0.624,0.764-1.18,1.527-1.735,2.361c-0.833,1.111-0.833,1.111-3.332,2.777
		c-2.569,1.734-2.569,1.734-4.514,2.221c-1.943,0.486-5.554,0.973-7.289,0.973c-6.249,0-8.54-0.416-13.261-2.43
		c-2.708-1.111-7.013-4.791-7.846-6.596c-0.347-0.764-0.764-1.598-1.25-2.5c-0.555-0.902-1.735-4.582-2.082-6.525
		c-0.209-1.459-0.556-5.625-0.556-7.43c0-2.984,0.902-7.082,2.152-9.58c2.36-4.859,4.929-8.055,8.123-9.928
		c2.291-1.389,3.055-1.668,4.721-2.084c0.348-0.068,0.833-0.277,1.527-0.486c3.124-0.902,3.124-0.902,5.138-0.902
		c3.055,0,5.763,0.209,7.151,0.625c4.721,1.25,7.498,2.5,9.858,4.514c0.069,0.068,0.902,1.041,2.36,2.916
		c1.111,1.318,3.333,5.137,4.027,6.803c0.764,1.875,1.18,2.986,1.249,3.264c0.486,2.152,0.764,4.166,0.764,5.277
		c0,0.484-0.069,0.971-0.208,1.596L172.311,296.963z M162.313,291.617l-0.139-1.666l-0.347-0.834
		c-0.208-0.555-0.417-1.111-0.625-1.596c-0.277-0.834-1.041-2.084-2.222-3.68c-1.389-1.736-3.055-2.848-5.068-3.473
		c-0.277-0.068-0.694-0.207-1.25-0.416c-1.11-0.486-2.499-0.764-3.818-0.764c-2.707,0-6.456,1.318-8.956,3.125
		c-0.972,0.693-1.18,0.971-3.193,4.512c-0.208,0.277-1.389,3.68-1.527,4.236c0,0.139-0.208,1.943-0.486,5.275
		c0.556,5.068,0.556,5.068,1.458,7.775c0.486,1.459,2.847,4.305,4.582,5.693c2.014,1.527,4.374,2.223,7.846,2.223
		c3.332,0,4.166-0.209,6.317-1.389c3.402-1.945,3.402-1.945,4.86-3.957c0.833-1.182,0.902-1.25,1.319-2.639
		c0.069-0.416,0.069-0.416,0.416-1.18c0.625-1.668,1.389-5.207,1.389-6.596c0-0.764-0.069-1.598-0.208-2.5L162.313,291.617z"/>
	<path fill="#FFFFFF" d="M209.521,317.791c0,0.625-0.764,1.459-1.597,1.805c-0.625,0.279-0.625,0.279-2.5,0.279
		c-2.082,0-2.638-0.07-3.471-0.279c-2.639-0.832-2.985-1.109-7.498-4.93c-2.014-1.734-3.056-2.846-4.652-4.789
		c-0.555-0.764-1.318-1.111-2.152-1.111c-0.694,0-0.902,0.209-1.041,1.041c-0.139,0.625-0.208,1.25-0.208,1.736s0,0.486,0.416,2.5
		c0.139,1.041,0.278,2.082,0.278,2.846c0,1.318-0.556,2.014-1.736,2.014h-0.555c-0.486-0.07-0.764-0.07-0.834-0.07l-4.582,0.139
		c-1.249,0-2.083-0.971-2.083-2.43c0-0.832,0.069-1.734,0.278-2.639c0.347-1.596,0.347-1.873,0.347-2.568
		c0-0.416,0-0.832-0.069-1.18c-0.139-0.625-0.208-0.973-0.208-0.973l0.208-2.498c0,0,0-0.209-0.069-0.418
		c-0.069-0.416-0.069-1.25-0.069-2.846c0-0.486,0-0.486,0.139-3.193c-0.208-1.875-0.208-1.875-0.208-2.777
		c0-2.084,0-2.084,0.139-3.68c0.069-0.695,0.139-1.736,0.139-3.332c0-0.486,0-0.902-0.069-1.182l-0.069-1.18l0.139-1.389
		l-0.139-2.291c0.069-1.389,0.069-1.389,0.069-1.736c0-1.041-0.139-2.221-0.347-3.332c-0.278-1.527-0.348-1.805-0.348-2.291
		c0-3.402,1.181-4.859,3.958-4.859c0.833,0,0.833,0,2.916,0.277c0.139,0.07,0.416,0.07,0.902,0.07h0.694
		c0.694-0.07,1.11-0.07,1.11-0.07l2.43,0.139c3.333-0.277,3.333-0.277,3.958-0.277c3.957,0,5.484,0.555,9.512,3.264
		c2.499,1.734,2.499,1.734,5.484,5.971c1.25,1.873,1.458,2.707,1.389,5.832v0.764l0.277,2.775l-0.277,0.973
		c-0.208,0.348-0.348,0.902-0.417,1.598c-0.347,1.873-0.416,2.014-1.11,3.471l-0.902,1.875c-0.694,1.389-0.903,1.734-1.527,2.221
		c-2.847,2.5-3.958,3.264-5.624,3.957c-1.111,0.348-1.458,0.557-1.458,0.973c0,0.486,0,0.486,1.11,1.459l1.806,1.734
		c1.11,1.111,3.124,1.736,5.484,1.807c1.111,0,1.527,0.139,2.014,0.555c0.556,0.486,0.972,1.18,0.972,1.736
		c0,0.207-0.069,0.764-0.277,1.596l-0.069,0.764V317.791z M190.845,280.578l-1.181-0.07c-1.18,0-2.638,1.32-2.847,2.5
		c-0.069,0.348-0.208,3.471-0.208,4.582c0,0.348,0,0.348,0.208,4.514l-0.069,0.486c-0.139,0.971-0.208,1.805-0.208,2.568
		c0,1.734,0.208,3.471,0.486,3.887c0.277,0.557,1.874,1.043,3.471,1.043c1.111,0,1.597-0.139,3.61-1.043l1.319-0.416
		c1.389-0.416,1.389-0.416,2.43-2.082c0.139-0.209,0.625-0.902,1.527-2.084c0.625-0.832,1.181-1.943,1.319-2.498
		c0.347-2.291,0.347-2.43,0.347-2.5c0-0.486-0.693-3.125-1.041-3.818c-1.041-2.223-3.818-4.305-6.248-4.721l-1.181-0.209
		c-0.347-0.139-0.625-0.209-0.764-0.209L190.845,280.578z"/>
</g>
<g>
	<path fill="#FCEC00" d="M241.873,293.77c0.208-0.973,0.486-1.736,1.527-3.957c0.556-1.32,0.556-1.32,1.319-3.611
		c0.208-0.555,0.485-1.318,0.902-2.152c0.972-2.152,1.25-2.916,1.25-3.4c0-0.486-0.278-0.764-0.694-0.764
		c-0.139,0-0.348,0-0.556,0.068c-1.041,0.139-3.957,0.348-4.86,0.348c-0.485,0-0.902,0-1.388-0.07
		c-0.625-0.068-1.042-0.068-1.181-0.068c-0.347,0-0.902,0.068-1.666,0.139c-0.902,0.139-1.666,0.207-2.291,0.207
		c-2.222,0-3.818-1.18-3.818-2.984c0-0.416,0.069-0.973,0.208-1.666l0.139-1.111c0.347-2.014,1.11-2.639,3.263-2.639
		c0.556,0,2.639,0.139,4.722,0.277c0.833,0.07,1.666,0.07,2.222,0.07c0.694,0,1.735-0.07,3.263-0.139
		c0.486-0.07,0.833-0.07,1.042-0.07l2.638,0.07l3.264-0.209l2.222,0.07c0.555,0,0.624,0,1.11-0.07h0.625
		c0.764,0,0.972,0.209,1.597,1.945l0.277,0.623c0.417,0.834,0.417,0.904,0.417,1.529c0,1.18-0.139,1.457-1.111,2.984
		c-0.624,1.111-1.11,2.223-1.805,4.443l-0.347,0.973c-0.07,0.346-0.278,0.693-0.486,1.18c-0.277,0.486-0.486,0.973-0.694,1.457
		c-0.347,0.695-0.208,0.279-0.486,1.182c-0.277,0.971-0.485,1.805-0.764,2.43c-0.139,0.348-0.277,0.764-0.416,1.25l-0.417,1.18
		c-0.208,0.764-0.416,1.598-0.556,2.361c-0.139,0.625-0.277,1.18-0.555,1.805c-0.14,0.555-0.069,0.277-0.278,0.832l-0.416,1.111
		c-0.348,0.973-0.556,1.943-0.833,2.986c-0.417,1.318-0.834,2.916-1.598,5.346c-0.208,0.971-0.624,2.221-1.249,3.887
		c-0.556,1.736-0.625,2.014-0.764,3.889c-0.139,2.846-0.764,3.68-2.5,3.68c-0.347,0-0.764,0-1.249-0.07
		c-0.556-0.068-0.973-0.139-1.25-0.139c-0.208,0-0.625,0.07-1.25,0.139c-0.416,0.07-0.833,0.07-1.249,0.07
		c-1.806,0-2.708-0.902-2.708-2.707c0-1.389,0-1.389,2.777-7.359c1.11-2.568,1.318-3.193,1.597-4.652
		c0.972-3.541,1.041-3.748,2.014-6.457c0.208-0.486,0.347-0.971,0.485-1.389L241.873,293.77z"/>
	<path fill="#FCEC00" d="M282.486,318.971c-1.319,0-2.36-0.555-2.847-1.457c-0.208-0.555-0.347-1.943-0.347-4.234
		c0-0.486,0.069-0.904,0.139-1.598c0.069-0.348,0.139-0.625,0.139-0.693l-0.277-3.82c0-0.832,0.139-3.748,0.208-4.373
		s0.139-1.041,0.139-1.041l-0.139-2.568l0.069-1.389l-0.069-1.945l0.139-1.389l-0.208-2.777l0.069-2.498c0-0.07,0-0.348-0.069-0.764
		c-0.069-0.973-0.069-2.084-0.069-3.193v-1.736c0.069-1.18,0.069-2.082,0.069-2.361c0-1.873-0.069-2.291-0.486-4.721v-0.486
		c0-2.777,0.694-3.68,2.777-3.68c1.041,0,1.944,0,2.847,0.07c0.347,0.068,0.625,0.068,0.694,0.068l3.124-0.139l1.874,0.139
		l1.875-0.068c0.139,0,0.972,0.139,2.222,0.277l1.458,0.209c3.124,0.486,6.596,1.666,9.164,3.193
		c0.486,0.348,1.042,0.693,1.667,1.041l1.18,0.625c0.902,0.486,3.333,3.193,4.443,4.998c0.833,1.32,2.222,4.098,2.916,5.902
		c1.042,2.639,1.458,4.998,1.458,8.748c0,4.859-1.319,8.887-4.513,13.746c-1.389,2.082-3.263,3.68-6.317,5.207
		c-4.235,2.223-6.666,2.916-10.415,2.916l-10.274-0.277L282.486,318.971z M291.998,280.369l-1.806-0.139
		c-0.972,0-2.013,0.834-2.013,1.598l0.277,2.777c0.069,2.014,0.069,2.014,0.139,4.512l-0.139,1.527
		c-0.069,0.418-0.069,0.902-0.069,1.25c0,0.625,0,0.625,0.277,2.5l-0.139,3.541v0.625c0.069,0.555,0.069,0.971,0.069,0.971
		l-0.277,2.986l0.277,2.498l-0.069,0.695c-0.069,0.486-0.139,1.111-0.139,1.875c0,2.221,0.556,2.846,2.499,3.123l1.389,0.209
		c0.902,0.139,1.597,0.209,1.944,0.209c1.458,0,3.957-0.834,6.317-2.014c0.209-0.139,1.25-0.973,3.055-2.568
		c1.181-1.043,1.181-1.182,1.875-3.057c0.208-0.623,0.556-1.457,0.972-2.43c0.694-1.527,1.042-2.777,1.042-3.957
		c0-2.568-0.348-4.93-0.973-6.318c-1.666-3.471-2.222-4.65-2.43-4.928c-0.069-0.07-0.069-0.141-2.291-2.57
		c-0.625-0.625-3.61-1.873-5.624-2.291l-1.041-0.277c-0.764-0.277-1.319-0.416-1.458-0.416L291.998,280.369z"/>
	<path fill="#FCEC00" d="M340.941,310.57c-0.624,0.07-1.11,0.139-1.11,0.139c-0.069,0-0.348,0-0.764-0.068h-0.694
		c-0.625,0-0.625,0-2.847,0.277c-0.625,0.07-1.11,0.07-1.527,0.07c-0.556,0-1.25-0.07-2.014-0.209
		c-0.555-0.07-1.041-0.139-1.319-0.139c-2.221,0-3.818,1.875-3.888,4.373c0,2.152,0,2.152-0.485,2.916
		c-0.556,0.764-1.111,1.111-2.014,1.111c-0.486,0-1.111-0.07-1.806-0.139l-1.388-0.07c-0.348,0-0.973,0-2.014,0.07h-0.694
		c-1.458,0-2.291-0.695-2.291-1.805c0-0.695,0.347-1.666,1.041-2.986c0.486-0.832,0.764-1.457,0.833-1.666l0.348-1.457
		c0.139-0.418,0.347-0.904,0.625-1.459c0.555-1.111,0.972-2.221,1.318-3.402c0.278-1.318,0.556-2.568,0.834-3.818
		c0.139-0.416,0.347-0.973,0.972-2.568c0.486-1.25,0.972-2.707,1.458-4.443c0.277-0.902,0.556-1.666,0.833-2.223l0.902-2.082
		c0.417-1.25,0.694-2.014,1.389-4.373c0.139-0.486,0.277-0.973,0.417-1.527c0.139-0.486,0.069-0.209,0.277-0.695l0.347-0.973
		l0.348-1.18c0.347-1.457,0.486-1.805,1.389-4.096c0.485-1.389,0.833-2.361,0.833-2.5c0.902-2.984,1.319-3.402,3.749-3.402
		c0.277,0,0.625,0,0.972,0.07l1.042,0.068l2.568-0.068c0.278,0,1.181,0.625,1.666,1.111c0.348,0.346,0.625,1.041,0.973,2.291
		c0.139,0.346,0.347,0.902,0.625,1.805l0.833,2.014l1.458,3.193c0.555,1.18,0.833,2.152,1.11,3.609
		c0.208,1.111,0.208,1.25,0.833,2.709c0.278,0.346,0.417,0.832,0.556,1.389l0.417,1.734l0.555,1.459
		c0.209,0.764,0.417,1.457,0.556,2.082l0.277,1.18c0.14,0.486,0.417,0.973,0.694,1.668c0.348,0.693,0.209,0.346,0.486,1.041
		l0.764,2.082l0.278,1.459l0.347,0.832c0.139,0.348,0.277,0.695,0.347,1.041l0.486,2.084l0.348,0.902l0.693,1.598
		c0.209,0.555,0.417,1.109,0.556,1.596c0.209,0.695,0.417,1.25,0.694,1.666l0.902,1.527c0.556,1.043,0.903,2.223,0.903,3.125
		c0,1.041-0.486,1.596-1.527,1.596l-1.389-0.068c-0.903-0.139-1.597-0.209-2.014-0.209c-0.277,0-0.972,0.07-1.805,0.139
		c-0.625,0.07-1.181,0.139-1.667,0.139c-1.805,0-2.43-1.041-2.568-4.164c0-1.527-0.208-2.084-1.319-3.541
		c-0.417-0.625-0.972-0.834-2.014-0.834H340.941z M334.485,290.922c-0.625,1.736-0.764,2.014-1.111,3.264
		c-0.556,1.943-0.694,2.43-1.18,3.473c-0.486,1.109-0.486,1.109-1.319,3.957c0,0.555,1.041,1.25,1.874,1.25l2.222-0.07
		c0.069,0,0.348,0,0.764,0.07h0.833c0.486,0,0.834,0,1.111-0.07l0.486-0.07h1.388c0.417,0,1.042-0.764,1.042-1.248
		c0-0.348,0-0.348-0.694-1.807l-0.417-1.457l-0.277-1.32l-0.694-2.291l-0.347-1.387l-0.209-0.766
		c-0.208-1.18-0.485-2.012-0.624-2.498c-0.625-1.459-0.765-1.666-0.694-1.875c-0.07-0.348-0.278-1.18-0.556-2.361
		c-0.069-0.068-0.139-0.207-0.208-0.207L334.485,290.922z"/>
	<path fill="#FCEC00" d="M362.879,298.213l0.069-1.459c0-0.207-0.208-0.764-0.625-1.527l-0.347-0.764l-0.278-1.041
		c-0.764-2.221-1.597-3.957-2.638-5.416c-0.903-1.248-0.973-1.387-1.458-2.43c-0.14-0.484-0.417-0.971-0.694-1.457
		c-0.902-1.527-0.902-1.527-1.111-2.361c-0.139-0.346-0.139-0.346-0.764-1.805c-1.18-2.707-2.014-5.137-2.014-5.9
		c0-0.973,0.834-1.807,1.875-1.807c0.208,0,0.486,0,0.833,0.07c0.764,0.068,1.319,0.139,1.527,0.139c0.069,0,0.417,0,0.902-0.07
		h0.556c0.902,0,1.875,0.418,2.36,0.973c0.486,0.695,0.694,1.18,1.25,3.541c0.139,0.693,0.347,1.18,0.625,1.457
		c0.277,0.486,0.139,0.279,0.416,0.695c0.348,0.625,0.348,0.693,0.834,1.666c0.485,0.902,1.041,1.943,1.735,2.916
		c0.139,0.348,0.486,1.041,0.972,2.223c0.278,0.484,0.486,0.832,0.694,0.832c0.486,0,0.972-1.111,2.152-4.582
		c0.208-0.555,0.277-0.693,0.694-1.318c0.347-0.486,0.694-1.182,1.041-1.945c0.069-0.346,0.278-0.693,0.486-1.041l0.486-0.764
		c0.208-0.277,0.347-0.625,0.416-1.041l0.417-1.598c0.208-0.902,1.389-2.014,2.083-2.082c0.069,0,0.833,0.139,1.874,0.277
		c0.208,0.07,0.417,0.07,0.556,0.07c0.208,0,0.417,0,0.556-0.07c1.041-0.139,1.805-0.209,1.874-0.209
		c1.042,0,1.806,1.111,1.806,2.639c0,1.32-0.069,1.459-0.833,2.848c-0.14,0.277-0.14,0.277-0.486,0.902
		c-0.417,0.902-0.764,1.666-1.111,2.291c-0.208,0.348-0.416,0.693-0.555,1.18c-0.209,0.764-0.486,1.459-0.764,2.014
		c-0.278,0.625-0.556,1.25-0.903,1.736c-0.416,0.832-0.485,0.832-0.764,1.666L376,289.117l-0.555,0.973l-0.556,1.389
		c-0.347,0.764-0.764,1.527-1.181,2.359c-1.388,2.777-1.874,4.236-1.874,5.207c0,0.348,0,0.348,0.208,2.223
		c0.069,0.348,0.069,0.693,0.069,0.973c0,0.484-0.069,0.693-0.277,1.943c-0.139,0.832-0.208,1.527-0.208,2.082
		c0,0.209,0.069,1.043,0.139,2.223v0.971v0.834c-0.069,1.18-0.139,2.014-0.139,2.082c0,0.418,0.069,0.973,0.277,1.598
		c0.347,1.25,0.347,1.389,0.347,2.014c0,2.291-0.555,3.123-2.291,3.123c-0.347,0-0.347,0-1.943-0.277
		c-0.139-0.068-0.348-0.068-0.625-0.068c-0.208,0-0.486,0-0.764,0.068c-1.666,0.209-1.735,0.209-2.083,0.209
		c-1.597,0-2.499-0.695-2.499-1.943c0-1.043,0-1.043,0.764-4.443c0.208-0.834,0.277-1.527,0.277-2.291
		c0-1.111-0.069-2.152-0.208-3.264c-0.278-1.598-0.278-1.805-0.278-2.639c0-0.625,0-1.111,0.14-1.943
		c0.069-0.834,0.277-3.193,0.277-3.264L362.879,298.213z"/>
	<path fill="#FCEC00" d="M388.355,291.408c-1.457-1.25-1.457-1.25-2.36-3.332c-0.972-2.291-1.389-3.541-1.389-4.234l0.069-1.32
		l-0.069-1.596c0-0.486,0.278-1.459,1.042-3.75c0.416-1.318,1.041-2.014,3.193-3.541c1.527-1.109,1.527-1.109,3.472-1.596
		c1.874-0.418,2.985-0.557,5.832-0.557c0.902,0,1.11,0,2.638,0.209l2.36,0.07c0.834,0.068,2.916,0.693,4.514,1.387
		c1.249,0.625,2.151,1.668,2.151,2.57c0,0.486,0,0.486-0.902,2.014c-0.139,0.277-0.277,0.693-0.556,2.43
		c-0.208,1.596-0.833,2.291-2.013,2.291c-0.833,0-0.833,0-2.708-1.32c-1.319-0.971-3.749-1.873-4.999-1.873
		c-2.152,0-2.43,0.068-3.263,0.346c-1.25,0.557-1.875,1.389-1.875,2.848c0,1.457,0.764,2.43,2.985,4.025
		c4.374,2.986,8.193,6.041,10.067,7.984c2.499,2.57,3.472,4.027,4.305,6.25c0.764,1.873,1.041,2.984,1.041,4.025
		c0,4.305-0.069,4.721-1.249,7.498c-0.903,2.291-0.903,2.291-2.777,4.098c-1.944,1.873-2.916,2.359-5.693,3.055
		c-1.041,0.277-1.319,0.277-2.43,0.277c-3.055,0.068-3.61,0.068-3.61,0.068c-1.041-0.139-1.875-0.277-2.639-0.277
		c-1.458-0.139-3.888-0.486-4.582-0.764c-0.277-0.139-0.902-0.277-1.735-0.416c-0.902-0.209-2.916-0.834-3.264-1.041
		c-0.624-0.418-0.902-1.32-0.902-3.125c0-0.416,0.209-1.18,0.556-1.943l0.347-0.834l0.209-1.666
		c0.208-1.527,0.902-2.568,1.805-2.568c0.556,0,1.25,0.348,2.569,1.318c2.152,1.598,2.36,1.666,4.651,2.361
		c0.486,0.139,0.486,0.139,0.902,0.277c1.25,0.416,1.527,0.486,3.193,0.486c1.736,0,2.569-0.348,3.75-1.459
		c1.249-1.248,1.805-2.637,1.805-4.512c0-2.43-1.181-4.514-3.333-5.971c-1.041-0.695-1.041-0.695-1.527-1.111L388.355,291.408z"/>
</g>
<g>
	<path fill="#FFFFFF" d="M150.636,400.443c-1.671-0.484-3.014-1.115-4.027-1.891l1.779-3.947c0.971,0.711,2.124,1.283,3.461,1.715
		s2.674,0.646,4.012,0.646c1.487,0,2.587-0.221,3.299-0.664c0.712-0.441,1.067-1.029,1.067-1.762c0-0.539-0.21-0.986-0.631-1.342
		c-0.42-0.357-0.96-0.643-1.617-0.857c-0.658-0.217-1.548-0.453-2.669-0.713c-1.725-0.408-3.137-0.818-4.237-1.229
		c-1.1-0.41-2.043-1.066-2.83-1.973s-1.181-2.113-1.181-3.623c0-1.314,0.356-2.508,1.067-3.574c0.712-1.068,1.784-1.914,3.219-2.539
		c1.434-0.625,3.187-0.938,5.256-0.938c1.445,0,2.857,0.172,4.237,0.518c1.38,0.344,2.588,0.84,3.623,1.486l-1.617,3.979
		c-2.092-1.186-4.184-1.777-6.275-1.777c-1.467,0-2.55,0.236-3.251,0.711c-0.7,0.475-1.051,1.1-1.051,1.875
		c0,0.777,0.404,1.354,1.213,1.73c0.809,0.379,2.043,0.75,3.704,1.117c1.725,0.41,3.138,0.82,4.237,1.229
		c1.1,0.41,2.043,1.057,2.83,1.941s1.181,2.08,1.181,3.59c0,1.295-0.361,2.475-1.084,3.543c-0.723,1.066-1.806,1.914-3.251,2.539
		c-1.444,0.625-3.202,0.938-5.272,0.938C154.037,401.172,152.307,400.93,150.636,400.443z"/>
	<path fill="#FFFFFF" d="M184.47,385.063c1.326,1.295,1.989,3.215,1.989,5.758v9.963h-5.046v-9.186c0-1.381-0.302-2.41-0.905-3.09
		c-0.604-0.68-1.478-1.018-2.62-1.018c-1.272,0-2.286,0.393-3.041,1.18s-1.132,1.957-1.132,3.51v8.604h-5.046v-24h5.046v8.41
		c0.668-0.668,1.477-1.182,2.426-1.537s1.984-0.533,3.105-0.533C181.402,383.123,183.144,383.77,184.47,385.063z"/>
	<path fill="#FFFFFF" d="M194.368,399.895c-1.455-0.766-2.593-1.828-3.412-3.186c-0.82-1.359-1.229-2.9-1.229-4.627
		c0-1.725,0.409-3.266,1.229-4.625c0.819-1.359,1.957-2.42,3.412-3.186c1.456-0.766,3.1-1.148,4.933-1.148s3.472,0.383,4.917,1.148
		c1.444,0.766,2.576,1.826,3.396,3.186c0.819,1.359,1.229,2.9,1.229,4.625c0,1.727-0.41,3.268-1.229,4.627
		c-0.82,1.357-1.952,2.42-3.396,3.186c-1.445,0.766-3.084,1.148-4.917,1.148S195.824,400.66,194.368,399.895z M202.487,395.592
		c0.83-0.873,1.245-2.043,1.245-3.51c0-1.465-0.415-2.637-1.245-3.51s-1.893-1.309-3.187-1.309s-2.361,0.436-3.202,1.309
		s-1.262,2.045-1.262,3.51c0,1.467,0.421,2.637,1.262,3.51s1.908,1.311,3.202,1.311S201.657,396.465,202.487,395.592z"/>
	<path fill="#FFFFFF" d="M226.908,384.238c1.326,0.744,2.366,1.791,3.122,3.139c0.754,1.348,1.132,2.916,1.132,4.705
		c0,1.791-0.378,3.359-1.132,4.707c-0.756,1.348-1.796,2.393-3.122,3.137s-2.798,1.117-4.415,1.117c-2.222,0-3.968-0.701-5.24-2.104
		v8.119h-5.046v-23.678h4.819v2.006c1.251-1.51,3.073-2.264,5.467-2.264C224.11,383.123,225.582,383.494,226.908,384.238z
		 M224.806,395.592c0.83-0.873,1.245-2.043,1.245-3.51c0-1.465-0.415-2.637-1.245-3.51s-1.893-1.309-3.186-1.309
		c-1.294,0-2.356,0.436-3.187,1.309s-1.245,2.045-1.245,3.51c0,1.467,0.415,2.637,1.245,3.51s1.893,1.311,3.187,1.311
		C222.913,396.902,223.976,396.465,224.806,395.592z"/>
	<path fill="#FFFFFF" d="M248.645,399.652c-1.887-1.014-3.364-2.41-4.432-4.189s-1.601-3.779-1.601-6s0.533-4.223,1.601-6
		c1.067-1.779,2.545-3.176,4.432-4.189s4.006-1.52,6.356-1.52c2.35,0,4.464,0.506,6.34,1.52s3.353,2.41,4.432,4.189
		c1.078,1.777,1.617,3.779,1.617,6s-0.539,4.221-1.617,6c-1.079,1.779-2.556,3.176-4.432,4.189s-3.99,1.52-6.34,1.52
		C252.65,401.172,250.531,400.666,248.645,399.652z M258.624,395.787c1.078-0.615,1.924-1.473,2.539-2.572
		c0.614-1.1,0.922-2.35,0.922-3.752s-0.308-2.652-0.922-3.752c-0.615-1.1-1.461-1.957-2.539-2.572
		c-1.079-0.615-2.286-0.922-3.623-0.922c-1.338,0-2.545,0.307-3.623,0.922s-1.925,1.473-2.539,2.572s-0.922,2.35-0.922,3.752
		s0.308,2.652,0.922,3.752s1.461,1.957,2.539,2.572c1.078,0.613,2.285,0.922,3.623,0.922
		C256.338,396.709,257.545,396.4,258.624,395.787z"/>
	<path fill="#FFFFFF" d="M286.618,385.063c1.326,1.295,1.989,3.215,1.989,5.758v9.963h-5.046v-9.186c0-1.381-0.302-2.41-0.905-3.09
		c-0.604-0.68-1.478-1.018-2.62-1.018c-1.272,0-2.286,0.393-3.041,1.18s-1.132,1.957-1.132,3.51v8.604h-5.046v-17.402h4.819v2.039
		c0.668-0.734,1.499-1.299,2.491-1.699c0.991-0.398,2.08-0.598,3.267-0.598C283.551,383.123,285.292,383.77,286.618,385.063z"/>
	<path fill="#FFFFFF" d="M293.169,376.783h5.046v24h-5.046V376.783z"/>
	<path fill="#FFFFFF" d="M303.164,380.146c-0.582-0.539-0.873-1.207-0.873-2.006c0-0.797,0.291-1.465,0.873-2.006
		c0.582-0.537,1.337-0.809,2.264-0.809c0.928,0,1.683,0.26,2.265,0.777s0.873,1.164,0.873,1.941c0,0.84-0.291,1.535-0.873,2.086
		c-0.582,0.549-1.337,0.824-2.265,0.824C304.501,380.955,303.746,380.686,303.164,380.146z M302.905,383.381h5.046v17.402h-5.046
		V383.381z"/>
	<path fill="#FFFFFF" d="M328.442,385.063c1.326,1.295,1.989,3.215,1.989,5.758v9.963h-5.046v-9.186c0-1.381-0.302-2.41-0.905-3.09
		c-0.604-0.68-1.478-1.018-2.62-1.018c-1.272,0-2.286,0.393-3.041,1.18s-1.132,1.957-1.132,3.51v8.604h-5.046v-17.402h4.819v2.039
		c0.668-0.734,1.499-1.299,2.491-1.699c0.991-0.398,2.08-0.598,3.267-0.598C325.375,383.123,327.116,383.77,328.442,385.063z"/>
	<path fill="#FFFFFF" d="M351.941,393.506h-13.165c0.237,1.078,0.798,1.93,1.683,2.555c0.884,0.627,1.983,0.939,3.299,0.939
		c0.906,0,1.709-0.135,2.41-0.404c0.7-0.27,1.353-0.697,1.957-1.279l2.685,2.912c-1.639,1.875-4.033,2.814-7.181,2.814
		c-1.963,0-3.699-0.383-5.208-1.148c-1.51-0.766-2.674-1.828-3.493-3.186c-0.82-1.359-1.229-2.9-1.229-4.627
		c0-1.703,0.404-3.238,1.213-4.609c0.809-1.369,1.919-2.436,3.332-3.201c1.412-0.766,2.992-1.148,4.738-1.148
		c1.703,0,3.245,0.367,4.626,1.1c1.38,0.732,2.463,1.785,3.251,3.154c0.786,1.369,1.181,2.959,1.181,4.77
		C352.039,392.211,352.006,392.664,351.941,393.506z M340.135,387.91c-0.776,0.646-1.251,1.531-1.423,2.652h8.572
		c-0.173-1.1-0.647-1.979-1.424-2.637s-1.726-0.986-2.847-0.986C341.871,386.939,340.911,387.264,340.135,387.91z"/>
	<path fill="#FFFFFF" d="M355.549,400.186c-0.594-0.572-0.89-1.268-0.89-2.086c0-0.82,0.291-1.504,0.873-2.055
		c0.583-0.551,1.326-0.824,2.232-0.824c0.905,0,1.649,0.273,2.231,0.824s0.874,1.234,0.874,2.055c0,0.818-0.297,1.514-0.89,2.086
		c-0.594,0.572-1.332,0.857-2.216,0.857C356.88,401.043,356.142,400.758,355.549,400.186z M354.756,378.141h6.017l-1.003,14.783
		h-4.011L354.756,378.141z"/>
</g>
<g>
	<path fill="#FFFFFF" d="M389.336,391.338v1.553l-13.747,5.596V397l12.194-4.885l-12.194-4.885v-1.488L389.336,391.338z"/>
</g>
</svg>
