<?xml version="1.0" encoding="utf-8"?>
<!-- Generator: Adobe Illustrator 16.0.0, SVG Export Plug-In . SVG Version: 6.00 Build 0)  -->
<!DOCTYPE svg PUBLIC "-//W3C//DTD SVG 1.1//EN" "http://www.w3.org/Graphics/SVG/1.1/DTD/svg11.dtd">
<svg version="1.1" id="Layer_1" xmlns="http://www.w3.org/2000/svg" xmlns:xlink="http://www.w3.org/1999/xlink" x="0px" y="0px"
	 width="442px" height="474.859px" viewBox="0 0 442 474.859" enable-background="new 0 0 442 474.859" xml:space="preserve">
<path fill="#B72025" d="M406.926,108.315c8.959,14.955,15.944,30.543,21.03,46.461c5.421,16.477,0.563,19.293,9.641,48.441
	c-0.397,13.33,0.217,31.417-1.292,48.599c-5.166,11.078-1.258,39.939-11.769,46.94c-3.234,19.149-13.488,28.786-21.791,43.46
	c-4.441,6.852-9.281,13.483-14.511,19.856c-5.035,7.196-13.437,22.022-22.175,27.123c-4.092,8.999-234.598,5.325-271.244,11.434
	c-35.998,6-58.398-50.861-66.993-65.209c-13.209-22.047-19.224-33.984-21.03-46.461c-2.351-16.222,2.611-30.152,0.26-48.072
	c-4.195-20.997-1.686-28.439-2.012-48.682c7.325-7.475,3.052-26.218,5.173-47.225c5.618-15.168,12.907-29.756,21.79-43.46
	c17.766-27.41,41.908-51.286,71.817-69.204c14.956-8.959,30.545-15.944,46.463-21.031c15.434-5.894,29.711-5.459,48.439-2.728
	c18.93,3.067,32.44-1.137,48.6,1.292c19.466,7.947,34.014,2.98,46.939,4.857c14.413,4.358,25.578,5.934,43.46,21.79
	c16.075,12.84,26.526,19.36,38.161,31.355S397.967,93.361,406.926,108.315"/>
<g>
	<path fill="#FFFFFF" d="M69.922,164.027c0,0.972,0,0.972,0.277,2.361l0.139,1.735c0,1.18,0.14,1.597,0.764,2.014
		c0.556,0.417,1.319,0.625,2.083,0.625c0.486,0,0.973-0.069,1.458-0.208c0.417-0.139,0.764-0.208,0.764-0.208
		c0.139,0,1.111,0.139,2.569,0.347h0.347c0.139,0,0.278,0,0.417-0.069c0.625-0.069,1.11-0.139,1.249-0.139
		c1.042,0,2.014,1.041,2.152,2.291v0.972l0.14,2.985c0,1.458-1.042,2.222-3.056,2.222c-0.833,0-1.735-0.069-3.055-0.347
		c-0.555-0.07-1.041-0.139-1.318-0.139c-0.209,0-0.625,0.069-1.25,0.139c-0.902,0.139-1.736,0.208-2.5,0.208
		c-0.972,0-0.972,0-4.165-0.347c-0.417-0.069-0.833-0.069-1.181-0.069c-0.416,0-0.416,0-1.874,0.347
		c-0.209,0.069-0.417,0.069-0.694,0.069c-1.527,0-2.5-1.042-2.5-2.777c0-0.903,0.07-1.944,0.209-3.055
		c0.139-1.319,0.208-1.735,0.208-2.43c0-0.903,0-0.903-0.347-3.194v-0.486c0-0.278,0-0.625,0.069-1.042
		c0.208-2.291,0.277-3.194,0.277-4.999c0-1.042-0.069-1.944-0.139-2.847c-0.139-1.042-0.208-1.805-0.208-2.083
		c0-0.208,0.069-0.833,0.139-1.666c0.069-0.625,0.277-4.027,0.277-4.443c0-0.694-0.069-2.014-0.277-3.819
		c-0.069-0.764-0.069-1.319-0.069-1.805c0-0.556,0-0.556,0.208-2.43c-0.208-3.333-0.277-5.068-0.348-5.207
		c-0.069-0.694-0.139-1.18-0.139-1.527c0-1.667,1.25-3.263,2.5-3.263c0.139,0,0.764,0.069,1.666,0.139
		c0.208,0.07,0.416,0.07,0.625,0.07h0.485c0.694-0.07,1.181-0.07,1.667-0.07c1.735,0,2.776,1.042,2.776,2.708
		c0,0.625,0,0.694-0.208,2.222c-0.069,0.417-0.069,0.902-0.069,1.597c0,0.555,0,1.18,0.069,1.944v1.111c0,0.556,0,0.556-0.139,2.291
		l0.069,2.292l-0.069,4.026l0.069,3.055l-0.069,4.304c-0.069,0.833-0.139,1.458-0.139,1.458c0.139,1.25,0.139,1.25,0.139,3.333
		V164.027z"/>
	<path fill="#FFFFFF" d="M89.916,178.538c-1.806,0-2.708-1.041-2.708-3.193c0-0.972,0-0.972,0.417-3.402
		c0.069-0.208,0.069-0.417,0.069-0.694v-0.625c-0.209-1.597-0.278-2.777-0.278-2.985v-0.486l0.139-2.292
		c0-0.972,0-0.972,0.209-3.333l-0.348-6.526l0.278-5.971c-0.14-2.638-0.14-2.638-0.278-5.485c0-0.139,0.069-0.625,0.139-1.25
		c0.07-0.625,0.14-1.111,0.14-1.597c0-0.278,0-0.278-0.069-0.833c-0.07-0.278-0.278-1.805-0.556-4.582
		c0-2.152,1.041-3.402,2.916-3.402c0.416,0,0.764,0,1.041,0.07c0.556,0.069,0.902,0.139,0.902,0.139l2.569-0.208
		c0.139,0,1.11,0.556,1.458,0.764c0.556,0.486,0.902,1.181,0.902,1.944c0,0.486-0.069,1.042-0.139,1.597
		c-0.069,0.625-0.069,0.625-0.139,1.319c0,0.208-0.069,0.694-0.14,1.527l0.14,1.735l-0.14,1.389l0.07,1.25l-0.07,1.319l0.209,2.5
		c0,0.069,0,0.347-0.069,0.764c-0.069,0.347-0.069,0.625-0.069,0.972c0,1.041,0,2.708,0.069,3.055
		c0.069,0.555,0.069,0.972,0.069,0.972c0,0.278-0.069,0.833-0.209,1.527c-0.069,0.278-0.069,0.417-0.069,0.486l0.14,1.805
		c-0.209,1.805-0.209,1.805-0.209,2.013c0,0.347,0,0.347,0.417,2.43l-0.069,0.417l-0.069,1.042c0,0.902,0,0.902-0.069,1.666
		c0.208,1.667,0.416,3.471,0.416,4.027c0,0.069-0.069,0.417-0.139,0.902c-0.069,0.486-0.069,0.903-0.069,1.25
		c0,0.764,0.277,3.471,0.485,4.651c0.07,0.486,0.14,0.903,0.14,1.25c0,1.389-0.973,2.222-2.639,2.222c-0.347,0-0.347,0-1.805-0.139
		c-0.209-0.069-0.556-0.069-0.903-0.069c-0.139,0-0.485,0-0.972,0.069H89.916z"/>
	<path fill="#FFFFFF" d="M114.978,153.475c0.277,1.111,0.347,1.25,0.347,1.527c0.07,0.486,0.209,1.18,0.417,2.152
		c0.139,0.555,0.277,1.388,0.417,2.43c0.208,0.903,0.416,1.805,0.555,2.638c0.139,0.417,0.209,1.042,0.417,1.875
		c0.208-1.805,1.11-6.387,1.319-7.012l0.139-0.486l0.139-1.25l0.486-3.194c0.625-2.985,0.764-3.68,0.902-6.04
		c0.347-1.944,0.694-4.027,1.11-6.249l0.278-3.125c0.277-3.193,1.18-4.79,2.707-4.79c0.348,0,0.694,0.069,1.111,0.139
		c0.416,0.069,0.694,0.069,0.972,0.069c0.278,0,0.278,0,1.944-0.139c0.347-0.069,0.694-0.069,1.041-0.069
		c1.806,0,2.916,0.833,2.916,2.222c0,1.18-0.416,2.985-1.18,5.207c-0.556,1.805-0.625,2.013-1.319,5.554
		c-0.348,1.458-0.348,1.597-0.625,2.43l-0.277,1.875c-0.278,1.875-0.278,1.875-1.319,6.596c-0.764,3.263-0.833,3.818-1.111,6.11
		c-0.485,2.569-0.902,4.929-1.527,7.984c-0.416,1.875-0.625,2.985-0.625,3.541l-0.069,2.013c-0.139,1.875-1.597,3.333-3.471,3.333
		c-1.319,0-1.806-0.069-3.68-0.417l-4.097,0.347c-0.347-0.069-1.597-1.042-1.943-1.597c-0.348-0.486-0.348-0.486-0.903-4.652
		c-0.485-3.124-0.902-5.068-1.458-6.804l-0.347-1.458l-0.208-1.319c-0.417-1.389-0.903-2.985-1.389-4.791
		c-0.278-1.111-0.417-1.666-0.625-3.193c-0.486-2.985-0.833-4.652-1.042-5.416c-0.139-0.555-0.347-1.111-0.555-1.736
		c-0.278-0.972-0.764-3.124-1.042-4.374c-0.347-1.805-0.416-1.944-0.902-3.263c-1.389-3.68-1.874-5.346-1.874-6.041
		c0-1.25,1.11-2.222,2.43-2.222c0.277,0,0.694,0,1.11,0.07c0.694,0.069,1.319,0.069,1.597,0.069c0.417,0,0.834,0,1.319-0.069
		c0.694-0.07,1.25-0.139,1.666-0.139c1.667,0,2.777,1.736,2.847,4.652l0.14,0.972c0.416,1.736,0.764,3.472,1.041,5.346
		c0.069,0.417,0.277,1.042,0.486,1.875c0.139,0.902,0.555,2.708,1.11,5.346l0.208,0.833l0.14,1.319L114.978,153.475z"/>
</g>
<g>
	<path fill="#FFFFFF" d="M150.386,178.538c-1.18,0-2.222,0-2.707-0.069c-2.36-0.139-4.027-0.278-4.097-0.278
		s-0.764,0.139-1.735,0.278c-0.764,0.139-1.527,0.208-2.222,0.208c-2.777,0-4.235-1.458-4.235-4.235
		c0-0.347,0.069-0.694,0.139-1.111c0.209-1.25,0.348-2.222,0.348-2.499c0-0.07-0.069-0.417-0.139-0.903
		c-0.14-0.833-0.209-2.013-0.209-3.055c0-1.597,0-1.805,0.348-4.166c0.069-0.486,0.139-1.111,0.139-1.875s0-0.764-0.139-3.888
		c-0.069-0.972-0.069-1.805-0.069-2.5c0-0.486,0-0.972,0.069-1.458l0.069-2.291c0-0.555-0.139-2.847-0.277-4.582v-0.694
		c0-0.486,0-0.486,0.208-4.166v-0.833c0-0.555,0-0.694-0.139-1.458c-0.069-0.902-0.069-0.902-0.14-1.875
		c0-0.347-0.069-1.18-0.208-2.638c0-1.388,1.527-2.569,3.194-2.569c0.416,0,1.041,0,1.805,0.07c0.417,0.069,0.833,0.069,1.181,0.069
		c0.416,0,0.416,0,2.499-0.139h1.11c0.764,0,1.458,0.07,2.152,0.139c0.764,0.069,1.25,0.139,1.319,0.139l2.222-0.069
		c2.222,0.208,2.222,0.208,3.055,0.208l2.777-0.069c0.902-0.069,1.597-0.139,2.014-0.139c1.527,0,2.568,0.972,2.568,2.36
		c0,0.347-0.069,0.694-0.139,1.111c-0.069,0.486-0.139,0.833-0.139,0.903s0.069,0.764,0.208,1.666
		c0.069,0.278,0.069,0.486,0.069,0.694c0,1.389-0.347,2.014-1.041,2.014c-0.417,0-1.042-0.07-1.875-0.278l-1.389-0.208
		c-1.458,0-1.666,0-1.874-0.069l-1.181-0.139h-1.389l-0.624-0.069l-4.305-0.07c-0.833,0-1.806,0.278-2.152,0.694
		c-0.486,0.486-0.973,2.014-0.973,2.916c0,0.833,0.417,2.569,0.694,2.916c0.348,0.417,1.528,0.833,2.361,0.833l2.013-0.069
		c1.25,0.208,1.25,0.208,2.014,0.278l1.111,0.069c0.347,0.069,0.624,0.069,0.764,0.069c0.277,0,0.277,0,1.735-0.139
		c0.833,0.069,1.944,0.208,3.332,0.347c0.973,0.069,1.875,0.902,1.875,1.666c0,0.069-0.069,0.417-0.208,0.903
		c-0.069,0.347-0.069,0.625-0.069,1.041c0,0.556,0.069,1.181,0.208,1.875c0.069,0.417,0.069,0.764,0.069,1.11
		c0,1.042-1.041,1.875-2.291,1.875c-0.139,0-1.181-0.208-2.985-0.625c-0.486-0.139-0.902-0.208-1.042-0.208
		c-0.069,0-0.555,0.07-1.249,0.139c-0.209,0.069-0.348,0.069-0.486,0.069c-0.277,0-0.277,0-1.25-0.139l-1.527,0.069
		c-0.069,0-0.347,0-0.694-0.069c-0.347-0.07-0.694-0.07-1.11-0.07c-1.041,0-1.875,0.347-2.499,0.972
		c-0.625,0.625-0.625,0.625-0.625,3.61l-0.069,1.597c-0.07,0.417-0.07,0.764-0.07,1.111c0,1.389,0.278,3.68,0.556,4.791
		c0.348,1.319,1.527,2.291,3.055,2.43c1.042,0.139,4.443,0.208,6.943,0.208c0.902,0,0.972,0,3.055-0.555
		c0.347-0.07,0.764-0.139,1.11-0.139c1.111,0,2.014,0.764,2.014,1.736c0,0.347-0.069,0.764-0.139,1.25
		c-0.139,0.486-0.208,0.903-0.208,1.18c0,0.278,0,0.278,0.347,1.944c0.069,0.347,0.139,0.694,0.139,1.041
		c0,1.389-0.902,2.014-2.847,2.014c-0.764,0-0.764,0-4.165-0.208c-0.417-0.069-0.764-0.069-1.389-0.069
		c-0.348,0-0.348,0-1.735,0.069H150.386z"/>
</g>
<g>
	<path fill="#FFFFFF" d="M185.548,161.333c0,0.185,0,0.462-0.047,0.74l-0.046,1.064c0,0.37,0.046,0.786,0.093,1.249
		c0.139,0.786,0.231,1.434,0.231,1.758l-0.047,0.647c-0.139,0.833-0.185,1.341-0.185,1.665c0,1.804,0.092,4.625,0.185,5.18
		c0.186,1.249,0.277,2.127,0.277,2.729c0,1.48-0.462,2.22-1.479,2.22c-0.186,0-0.37,0-0.602-0.046
		c-0.416-0.046-0.74-0.046-0.786-0.046c-1.526,0.093-1.526,0.093-1.804,0.093c-1.665,0-2.128-0.647-2.128-3.006
		c0-0.416,0.047-0.925,0.14-1.48c0.139-1.11,0.185-1.341,0.185-1.85l0.139-1.942c0-0.185,0-0.185-0.139-3.006l-0.046-2.081
		c0-1.018,0.046-2.174,0.185-3.422c0.046-0.277,0.046-0.417,0.046-0.462c-0.092-1.48-0.23-3.099-0.323-4.764l0.046-1.573
		c0-1.249-0.739-2.035-1.988-2.035c-0.416,0-0.416,0-1.526,0.277c-0.37,0.092-0.74,0.139-1.156,0.139
		c-1.202,0-1.942-0.74-1.942-1.989c0-0.185,0-0.37,0.046-0.601l0.047-0.462v-1.665c0-0.786,0.925-1.249,2.497-1.249
		c0.416,0,0.832,0.046,1.572,0.139c0.509,0.046,0.879,0.092,1.11,0.092c0.185,0,0.462,0,0.74-0.046
		c0.786-0.092,1.387-0.139,1.618-0.139s0.694,0.046,1.342,0.093c0.601,0.046,1.109,0.092,1.479,0.092
		c0.463,0,1.063-0.046,1.758-0.139c0.647-0.046,1.156-0.093,1.388-0.093c0.277,0,0.739,0.046,1.341,0.093
		c0.463,0.046,0.786,0.092,1.063,0.092s0.694-0.046,1.203-0.092c0.369-0.046,0.647-0.093,0.925-0.093
		c0.323,0,0.647,0.185,0.971,0.555c0.463,0.509,0.509,0.601,0.509,1.619l0.139,0.833c0.093,0.602,0.139,1.064,0.139,1.388
		c0,0.786-0.971,1.85-1.665,1.757c-1.341-0.185-2.127-0.277-2.313-0.324c-0.462-0.092-0.925-0.139-1.387-0.139
		c-1.295,0-1.942,0.555-1.942,1.665c0,0.277,0,0.555,0.046,0.878c0.093,0.509,0.139,0.879,0.139,0.971
		c0,0.602-0.046,2.544-0.093,3.423L185.548,161.333z"/>
	<path fill="#FFFFFF" d="M217.688,173.867c0,0.231,0.093,0.647,0.231,1.156c0.185,0.555,0.277,1.063,0.277,1.48
		c0,1.063-0.786,2.127-1.665,2.127c-0.277,0-0.277,0-1.479-0.185c-0.139-0.046-0.324-0.046-0.509-0.046
		c-0.139,0-0.277,0-0.416,0.046c-0.602,0.092-1.064,0.139-1.11,0.139c-0.879,0-1.572-0.879-1.572-2.035c0-0.555,0-0.555,0.323-2.174
		c0.047-0.185,0.047-0.416,0.047-0.647c0-0.231,0-0.231-0.093-1.249l0.093-1.018c-0.047-0.647-0.186-4.44-0.186-4.81l0.046-2.358
		c0-0.694-0.416-1.896-0.739-2.035c-0.186-0.139-0.186-0.139-2.128-0.277c-0.046,0-0.231,0.046-0.509,0.139
		c-0.416,0.139-0.879,0.185-1.248,0.185c-0.417,0-1.249-0.046-2.313-0.093c-0.324-0.046-0.602-0.046-0.833-0.046
		c-0.971,0-1.85,0.231-2.035,0.601c-0.139,0.185-0.139,0.185-0.37,3.284c0.093,1.156,0.093,1.156,0.093,1.249
		c0,0.278,0,0.694-0.046,1.295c-0.047,0.185-0.047,0.37-0.047,0.509c0,0.37,0.047,0.832,0.186,1.341
		c0.093,0.324,0.139,0.555,0.139,0.602l-0.093,1.202l0.093,0.879l-0.046,1.018c0,0.092,0.092,0.555,0.23,1.203
		c0.047,0.324,0.093,0.601,0.093,0.925c0,1.434-0.74,2.313-1.942,2.313c-0.277,0-0.74,0-1.341-0.046l-1.249-0.046
		c-1.711,0.046-2.358-0.693-2.358-2.543c0-0.601,0-0.601,0.323-1.85c0.046-0.046,0.046-0.231,0.046-0.416
		c0-0.231,0-0.231-0.139-2.451c-0.046-0.231-0.046-0.647-0.046-1.203c0-1.295,0-1.434,0.231-3.006
		c0.046-0.231,0.046-0.462,0.046-0.694c0-0.37-0.046-0.786-0.093-1.295c-0.139-1.526-0.139-1.757-0.139-2.081
		c0-0.509,0.047-1.295,0.093-1.896c0.046-0.231,0.046-0.324,0.046-0.37c-0.046-1.018-0.092-1.619-0.092-1.85l-0.186-2.821
		c0-0.324,0-0.324,0.277-2.683v-0.324c0-0.37-0.185-2.173-0.323-3.099c-0.046-0.139-0.046-0.324-0.046-0.462
		c0-1.156,0.739-2.081,1.711-2.081c0.185,0,0.37,0,0.509,0.046c0.37,0.093,0.601,0.139,0.601,0.139s0.417-0.046,0.972-0.139
		c0.139-0.046,0.277-0.046,0.416-0.046c1.572,0,2.174,0.694,2.174,2.451c0,0.185,0,0.185-0.139,1.018
		c-0.093,0.416-0.139,1.063-0.139,1.619c0,1.989,0.185,3.052,0.555,3.469c0.37,0.37,1.203,0.601,2.359,0.601
		c0.369,0,0.786-0.046,1.341-0.092c0.416-0.046,0.693-0.046,0.786-0.046c0.324,0,2.358,0.046,2.914,0.092
		c0.416,0,1.434-0.185,1.757-0.324c0.556-0.231,0.787-0.509,0.787-1.11v-0.324c-0.047-0.324-0.047-0.509-0.047-0.555l0.093-1.156
		l-0.093-3.376c0-1.434,0.416-2.127,1.342-2.127c0.277,0,0.509,0,0.832,0.046c0.186,0.046,0.324,0.046,0.37,0.046
		c0.185,0,0.602-0.046,1.249-0.139c0.23-0.046,0.416-0.046,0.647-0.046c1.109,0,1.804,0.648,1.804,1.711
		c0,0.416-0.047,0.786-0.186,1.526c-0.046,0.416-0.092,0.74-0.092,0.925c0,0.093,0.046,0.509,0.092,1.11
		c0.047,0.231,0.047,0.463,0.047,0.647c0,0.463-0.047,1.203-0.139,1.619c-0.047,0.416-0.093,0.693-0.093,0.693l0.093,2.082
		c0,0,0,0.231-0.047,0.509c-0.046,0.277-0.046,0.601-0.046,0.925c0,0.416,0.046,0.925,0.093,1.48
		c0.046,0.786,0.092,1.388,0.092,1.619c0,0.324-0.046,0.925-0.139,1.711c-0.046,0.555-0.093,0.971-0.093,1.295
		c0,0.277,0.047,0.74,0.093,1.295c0.047,0.416,0.047,0.694,0.047,0.925c0,0.046,0,0.417-0.047,0.971l-0.046,2.636
		c0,0.139,0,0.509,0.046,0.925v1.156V173.867z"/>
</g>
<g>
	<path fill="#FFFFFF" d="M232.299,178.491c-0.786,0-1.48,0-1.804-0.046c-1.572-0.093-2.683-0.185-2.729-0.185
		c-0.047,0-0.509,0.092-1.156,0.185c-0.509,0.092-1.018,0.139-1.48,0.139c-1.85,0-2.821-0.971-2.821-2.821
		c0-0.231,0.047-0.462,0.093-0.74c0.139-0.833,0.231-1.48,0.231-1.665c0-0.046-0.047-0.278-0.093-0.602
		c-0.093-0.555-0.139-1.341-0.139-2.035c0-1.064,0-1.203,0.231-2.775c0.046-0.324,0.092-0.74,0.092-1.249s0-0.509-0.092-2.59
		c-0.047-0.647-0.047-1.203-0.047-1.665c0-0.324,0-0.647,0.047-0.971l0.046-1.526c0-0.37-0.093-1.896-0.185-3.052v-0.462
		c0-0.324,0-0.324,0.139-2.775v-0.555c0-0.37,0-0.462-0.093-0.971c-0.046-0.602-0.046-0.602-0.093-1.249
		c0-0.231-0.046-0.786-0.139-1.757c0-0.925,1.018-1.711,2.128-1.711c0.277,0,0.693,0,1.202,0.046
		c0.277,0.046,0.555,0.046,0.786,0.046c0.277,0,0.277,0,1.665-0.093h0.74c0.509,0,0.971,0.046,1.434,0.093
		c0.509,0.046,0.832,0.092,0.879,0.092l1.479-0.046c1.48,0.139,1.48,0.139,2.035,0.139l1.851-0.046
		c0.601-0.046,1.063-0.092,1.341-0.092c1.018,0,1.711,0.647,1.711,1.572c0,0.231-0.046,0.462-0.093,0.74
		c-0.046,0.324-0.092,0.555-0.092,0.601s0.046,0.509,0.139,1.11c0.046,0.185,0.046,0.324,0.046,0.462
		c0,0.925-0.231,1.341-0.693,1.341c-0.277,0-0.694-0.046-1.249-0.185l-0.925-0.139c-0.972,0-1.11,0-1.249-0.046l-0.786-0.092h-0.925
		l-0.416-0.046l-2.868-0.046c-0.555,0-1.202,0.185-1.434,0.462c-0.323,0.324-0.647,1.341-0.647,1.942
		c0,0.555,0.277,1.711,0.463,1.942c0.231,0.277,1.018,0.555,1.572,0.555l1.341-0.046c0.833,0.139,0.833,0.139,1.342,0.185
		l0.74,0.046c0.23,0.046,0.416,0.046,0.509,0.046c0.185,0,0.185,0,1.156-0.092c0.555,0.046,1.295,0.139,2.22,0.231
		c0.647,0.046,1.249,0.602,1.249,1.11c0,0.046-0.047,0.277-0.14,0.601c-0.046,0.231-0.046,0.417-0.046,0.694
		c0,0.37,0.046,0.786,0.139,1.249c0.047,0.278,0.047,0.509,0.047,0.74c0,0.694-0.694,1.249-1.526,1.249
		c-0.093,0-0.786-0.139-1.989-0.416c-0.323-0.093-0.601-0.139-0.693-0.139c-0.047,0-0.37,0.046-0.833,0.092
		c-0.139,0.046-0.23,0.046-0.323,0.046c-0.186,0-0.186,0-0.833-0.093l-1.018,0.046c-0.046,0-0.23,0-0.462-0.046
		c-0.231-0.046-0.463-0.046-0.74-0.046c-0.693,0-1.249,0.231-1.665,0.647c-0.416,0.416-0.416,0.416-0.416,2.405l-0.046,1.063
		c-0.047,0.278-0.047,0.509-0.047,0.74c0,0.925,0.186,2.451,0.37,3.191c0.231,0.878,1.018,1.526,2.035,1.619
		c0.693,0.092,2.96,0.139,4.625,0.139c0.602,0,0.647,0,2.035-0.37c0.23-0.046,0.509-0.092,0.739-0.092
		c0.74,0,1.342,0.509,1.342,1.156c0,0.231-0.047,0.509-0.093,0.833c-0.093,0.324-0.139,0.601-0.139,0.786s0,0.185,0.231,1.295
		c0.046,0.231,0.093,0.462,0.093,0.694c0,0.925-0.602,1.341-1.896,1.341c-0.509,0-0.509,0-2.775-0.139
		c-0.277-0.046-0.509-0.046-0.925-0.046c-0.231,0-0.231,0-1.156,0.046H232.299z"/>
</g>
<g>
	<path fill="#FFFFFF" d="M286.408,164.93v-2.083l-0.208-1.805c-0.069-0.347-0.069-0.625-0.069-0.764c0-0.417,0.139-1.18,0.277-2.152
		c0.208-1.111,0.347-2.013,0.347-2.846c0-0.417-0.069-1.111-0.139-1.944c-0.069-0.625-0.069-1.111-0.069-1.458
		c0-0.208,0.069-0.833,0.139-1.735v-0.556c0-0.486-0.277-0.833-0.555-0.833c-0.348,0-0.348,0.069-1.042,1.111l-0.556,0.694
		l-0.277,0.278c-1.25,1.25-1.527,1.527-1.735,1.944c-0.278,0.486-0.694,1.042-1.319,1.735c-0.417,0.347-0.486,0.486-0.972,1.667
		c-1.042,2.222-2.291,3.124-4.374,3.124c-2.431,0-2.639-0.069-4.235-2.708c-0.277-0.555-0.764-1.111-2.291-2.708
		c-0.208-0.278-0.417-0.556-0.625-0.764c-0.625-0.833-1.11-1.667-1.666-2.5c-0.764-1.18-1.527-1.944-2.014-1.944
		c-0.347,0-0.625,0.417-0.625,1.042c0,0.208,0,0.208,0.209,1.805l-0.07,1.111c0.14,1.25,0.14,1.25,0.14,1.528
		c0,0.347,0,0.764-0.14,2.846c-0.069,0.764-0.069,1.389-0.069,2.083c0,0.347,0.069,0.764,0.14,1.18
		c0.139,0.694,0.208,1.18,0.208,1.25c0,0.139-0.069,0.556-0.208,1.181c-0.14,0.555-0.14,0.694-0.14,1.319v1.805
		c0,0.625,0,0.833,0.14,1.458c0,0.278,0.069,0.555,0.069,0.555c0,0.07-0.209,1.042-0.417,2.361
		c-0.069,0.208-0.069,0.417-0.069,0.625c0,0,0.139,1.041,0.486,3.055c0.139,1.042,0.208,1.805,0.208,2.152
		c0,1.735-0.833,2.43-2.777,2.43c-0.347,0-0.694-0.069-1.18-0.139c-0.625-0.069-1.181-0.139-1.319-0.139
		c-0.069,0-0.625,0.07-1.389,0.139h-0.694c-1.805,0-2.777-1.111-2.777-3.194c0-0.625,0.139-1.319,0.348-1.944
		c0.277-0.556,0.416-0.972,0.416-1.042l-0.069-1.25l0.139-1.944c0-0.07-0.069-0.417-0.139-0.833l-0.069-1.527
		c0-0.694,0-1.18,0.069-1.736c0.139-0.902,0.208-1.597,0.208-1.805c0-0.07,0-0.347-0.069-0.764
		c-0.069-1.111-0.139-1.111-0.139-3.958l-0.139-2.569c-0.069-0.486-0.069-0.903-0.069-1.111c0-0.139,0.069-0.694,0.139-1.458
		c0.139-1.944,0.139-2.777,0.139-7.637l0.069-0.833c0.069-1.18,0.14-2.013,0.14-2.083c0,0,0-0.208-0.07-0.417v-0.347l0.07-3.193
		c0-0.139-0.07-0.625-0.209-1.25c-0.556-2.222-0.625-2.708-0.625-3.61c0-1.597,0.834-2.569,2.222-2.5l1.181,0.069l3.263-0.069
		c2.5,0,3.61,0.833,4.86,3.541c0.972,2.083,1.11,2.292,2.222,3.472l0.625,0.625l0.625,1.042c0.625,1.042,0.833,1.319,1.389,2.152
		c0.485,0.556,0.902,1.25,1.318,1.944c0.348,0.694,0.417,0.833,0.833,1.319c0.486,0.694,0.903,1.25,0.973,1.458l0.625,1.389
		c0.139,0.277,0.416,0.486,0.624,0.486c0.417,0,1.042-0.764,1.667-1.944c0.555-1.042,0.764-1.25,1.249-1.944
		c0.348-0.555,0.694-1.111,0.973-1.597c0.069-0.278,0.277-0.555,0.625-0.833l0.764-0.833c0.485-0.486,0.624-0.694,1.11-1.527
		c0.208-0.278,0.348-0.556,0.556-0.903c0.972-1.18,1.597-2.013,1.874-2.5c0.348-0.764,0.625-1.527,0.903-2.222
		c0.764-1.875,2.151-2.708,4.443-2.708c0.416,0,0.416,0,2.499,0.208c1.874-0.208,1.874-0.208,2.152-0.208
		c1.805,0,2.36,0.694,2.36,2.638c0,0.972-0.069,1.18-0.625,3.749c-0.208,0.833-0.347,2.222-0.347,3.194v0.833
		c0.069,1.042,0.139,1.805,0.139,1.944c0,0.139,0,0.417-0.069,0.764c-0.139,1.528-0.208,2.916-0.208,3.75
		c0,0.208,0,0.486,0.069,0.833v0.417c0,0.139-0.14,1.389-0.348,3.055c-0.069,0.347-0.069,0.694-0.069,0.972
		c0,0.347,0,0.694,0.069,1.042c0.208,1.25,0.348,2.083,0.348,2.222c0,0.069,0,0.417-0.069,0.833c-0.07,0.347-0.07,0.764-0.07,1.18
		c0,0.694,0,0.694,0.209,2.638v0.764c0,1.042,0,1.042-0.348,3.888c-0.069,0.417-0.069,0.694-0.069,0.972
		c0,0.278,0,0.625,0.069,0.903c0.139,0.694,0.209,1.25,0.209,1.319c0,0.07-0.07,0.417-0.14,0.903
		c-0.069,0.278-0.069,0.625-0.069,0.972c0,0.417,0,0.486,0.348,2.361c0.139,0.833,0.208,1.805,0.208,2.43
		c0,1.458-0.833,2.43-2.014,2.43c-0.277,0-0.277,0-1.943-0.208c-0.209-0.069-0.348-0.069-0.556-0.069c-0.277,0-0.277,0-1.25,0.278
		c-0.208,0.069-0.485,0.069-0.833,0.069c-2.014,0-3.68-1.319-3.541-2.847c0.209-2.846,0.348-4.304,0.348-4.374
		c0.347-1.458,0.416-1.944,0.416-3.333c0-0.903-0.069-1.667-0.139-2.43L286.408,164.93z"/>
	<path fill="#FFFFFF" d="M324.591,170.207c-0.624,0.069-1.11,0.139-1.11,0.139c-0.069,0-0.348,0-0.764-0.069h-0.694
		c-0.625,0-0.625,0-2.847,0.278c-0.625,0.069-1.11,0.069-1.527,0.069c-0.556,0-1.25-0.069-2.014-0.208
		c-0.555-0.069-1.041-0.139-1.318-0.139c-2.223,0-3.819,1.875-3.889,4.374c0,2.152,0,2.152-0.485,2.916
		c-0.556,0.764-1.111,1.111-2.014,1.111c-0.486,0-1.111-0.069-1.806-0.139l-1.388-0.069c-0.348,0-0.973,0-2.014,0.069h-0.694
		c-1.458,0-2.291-0.694-2.291-1.805c0-0.694,0.347-1.666,1.041-2.985c0.486-0.833,0.764-1.458,0.833-1.666l0.348-1.458
		c0.139-0.417,0.347-0.902,0.625-1.458c0.555-1.111,0.972-2.222,1.318-3.402c0.278-1.319,0.556-2.569,0.834-3.818
		c0.139-0.417,0.347-0.972,0.972-2.569c0.486-1.25,0.972-2.708,1.458-4.443c0.277-0.903,0.556-1.667,0.833-2.222l0.902-2.083
		c0.417-1.25,0.694-2.013,1.389-4.374c0.139-0.486,0.277-0.972,0.417-1.527c0.139-0.486,0.069-0.208,0.277-0.694l0.347-0.972
		l0.348-1.181c0.347-1.458,0.486-1.805,1.389-4.096c0.485-1.388,0.833-2.36,0.833-2.499c0.902-2.986,1.319-3.402,3.749-3.402
		c0.277,0,0.625,0,0.972,0.07l1.042,0.069l2.568-0.069c0.278,0,1.181,0.625,1.666,1.111c0.348,0.347,0.625,1.041,0.973,2.291
		c0.139,0.347,0.347,0.902,0.625,1.805l0.833,2.013l1.458,3.194c0.555,1.18,0.833,2.152,1.11,3.61
		c0.208,1.111,0.208,1.25,0.833,2.708c0.278,0.347,0.417,0.833,0.556,1.388l0.417,1.736l0.555,1.458
		c0.209,0.764,0.417,1.458,0.556,2.083l0.278,1.18c0.139,0.486,0.416,0.972,0.693,1.666c0.348,0.694,0.209,0.347,0.486,1.042
		l0.764,2.083l0.277,1.458l0.348,0.833c0.139,0.347,0.277,0.694,0.347,1.042l0.486,2.083l0.348,0.902l0.694,1.597
		c0.208,0.556,0.416,1.111,0.555,1.597c0.209,0.694,0.417,1.25,0.694,1.666l0.902,1.527c0.556,1.042,0.903,2.222,0.903,3.125
		c0,1.041-0.486,1.597-1.527,1.597l-1.389-0.069c-0.903-0.139-1.597-0.208-2.014-0.208c-0.277,0-0.972,0.069-1.805,0.139
		c-0.625,0.069-1.181,0.139-1.667,0.139c-1.805,0-2.43-1.042-2.568-4.166c0-1.527-0.208-2.083-1.319-3.541
		c-0.417-0.625-0.972-0.833-2.014-0.833H324.591z M318.135,150.559c-0.625,1.735-0.764,2.013-1.111,3.263
		c-0.556,1.944-0.694,2.43-1.18,3.471c-0.486,1.111-0.486,1.111-1.319,3.958c0,0.555,1.041,1.25,1.874,1.25l2.222-0.069
		c0.069,0,0.348,0,0.764,0.069h0.833c0.486,0,0.834,0,1.111-0.069l0.486-0.069h1.389c0.416,0,1.041-0.764,1.041-1.25
		c0-0.347,0-0.347-0.694-1.805l-0.417-1.458l-0.277-1.319l-0.694-2.291l-0.347-1.389l-0.209-0.764
		c-0.208-1.18-0.485-2.014-0.625-2.5c-0.624-1.458-0.764-1.666-0.693-1.875c-0.07-0.347-0.278-1.18-0.556-2.36
		c-0.069-0.069-0.139-0.208-0.208-0.208L318.135,150.559z"/>
	<path fill="#FFFFFF" d="M355.554,152.78c0,0.278,0,0.694-0.07,1.111l-0.069,1.597c0,0.556,0.069,1.18,0.14,1.875
		c0.208,1.18,0.347,2.152,0.347,2.638l-0.069,0.972c-0.208,1.25-0.277,2.013-0.277,2.5c0,2.708,0.139,6.942,0.277,7.776
		c0.277,1.875,0.416,3.193,0.416,4.096c0,2.222-0.693,3.333-2.222,3.333c-0.277,0-0.555,0-0.902-0.069
		c-0.625-0.07-1.11-0.07-1.18-0.07c-2.291,0.139-2.291,0.139-2.708,0.139c-2.499,0-3.193-0.972-3.193-4.513
		c0-0.625,0.069-1.389,0.208-2.222c0.208-1.667,0.277-2.014,0.277-2.777l0.209-2.916c0-0.278,0-0.278-0.209-4.513l-0.069-3.124
		c0-1.528,0.069-3.263,0.278-5.138c0.069-0.417,0.069-0.625,0.069-0.694c-0.139-2.222-0.348-4.652-0.486-7.151l0.069-2.36
		c0-1.875-1.11-3.055-2.985-3.055c-0.625,0-0.625,0-2.291,0.417c-0.556,0.139-1.11,0.208-1.735,0.208
		c-1.806,0-2.916-1.111-2.916-2.985c0-0.278,0-0.556,0.069-0.903l0.069-0.694v-2.5c0-1.18,1.389-1.875,3.749-1.875
		c0.625,0,1.25,0.07,2.36,0.208c0.764,0.069,1.319,0.139,1.666,0.139c0.278,0,0.694,0,1.111-0.069
		c1.181-0.139,2.083-0.208,2.43-0.208c0.348,0,1.042,0.069,2.014,0.139c0.902,0.069,1.666,0.139,2.222,0.139
		c0.694,0,1.597-0.069,2.638-0.208c0.973-0.069,1.736-0.139,2.083-0.139c0.417,0,1.111,0.07,2.014,0.139
		c0.694,0.069,1.181,0.139,1.597,0.139c0.417,0,1.042-0.069,1.806-0.139c0.555-0.069,0.972-0.139,1.388-0.139
		c0.486,0,0.973,0.278,1.458,0.833c0.694,0.764,0.765,0.902,0.765,2.43l0.208,1.25c0.139,0.902,0.208,1.597,0.208,2.083
		c0,1.18-1.458,2.777-2.499,2.638c-2.014-0.277-3.194-0.417-3.472-0.486c-0.694-0.139-1.389-0.208-2.083-0.208
		c-1.943,0-2.916,0.833-2.916,2.5c0,0.417,0,0.833,0.069,1.319c0.14,0.764,0.209,1.319,0.209,1.458c0,0.902-0.069,3.818-0.14,5.138
		L355.554,152.78z"/>
	<path fill="#FFFFFF" d="M384.988,178.538c-1.18,0-2.222,0-2.707-0.069c-2.36-0.139-4.027-0.278-4.097-0.278
		s-0.764,0.139-1.735,0.278c-0.764,0.139-1.527,0.208-2.222,0.208c-2.777,0-4.235-1.458-4.235-4.235
		c0-0.347,0.069-0.694,0.139-1.111c0.209-1.25,0.348-2.222,0.348-2.499c0-0.07-0.069-0.417-0.139-0.903
		c-0.139-0.833-0.209-2.013-0.209-3.055c0-1.597,0-1.805,0.348-4.166c0.069-0.486,0.139-1.111,0.139-1.875s0-0.764-0.139-3.888
		c-0.069-0.972-0.069-1.805-0.069-2.5c0-0.486,0-0.972,0.069-1.458l0.069-2.291c0-0.555-0.139-2.847-0.277-4.582v-0.694
		c0-0.486,0-0.486,0.208-4.166v-0.833c0-0.555,0-0.694-0.139-1.458c-0.069-0.902-0.069-0.902-0.139-1.875
		c0-0.347-0.07-1.18-0.209-2.638c0-1.388,1.527-2.569,3.194-2.569c0.416,0,1.041,0,1.805,0.07c0.417,0.069,0.833,0.069,1.181,0.069
		c0.416,0,0.416,0,2.499-0.139h1.11c0.764,0,1.458,0.07,2.152,0.139c0.764,0.069,1.25,0.139,1.319,0.139l2.222-0.069
		c2.222,0.208,2.222,0.208,3.055,0.208l2.777-0.069c0.902-0.069,1.597-0.139,2.014-0.139c1.527,0,2.568,0.972,2.568,2.36
		c0,0.347-0.069,0.694-0.139,1.111c-0.069,0.486-0.139,0.833-0.139,0.903s0.069,0.764,0.208,1.666
		c0.069,0.278,0.069,0.486,0.069,0.694c0,1.389-0.347,2.014-1.041,2.014c-0.417,0-1.042-0.07-1.875-0.278l-1.389-0.208
		c-1.458,0-1.666,0-1.874-0.069l-1.181-0.139h-1.389l-0.624-0.069l-4.305-0.07c-0.833,0-1.806,0.278-2.152,0.694
		c-0.486,0.486-0.972,2.014-0.972,2.916c0,0.833,0.416,2.569,0.693,2.916c0.348,0.417,1.527,0.833,2.361,0.833l2.013-0.069
		c1.25,0.208,1.25,0.208,2.014,0.278l1.111,0.069c0.347,0.069,0.624,0.069,0.764,0.069c0.277,0,0.277,0,1.735-0.139
		c0.833,0.069,1.944,0.208,3.332,0.347c0.973,0.069,1.875,0.902,1.875,1.666c0,0.069-0.069,0.417-0.208,0.903
		c-0.069,0.347-0.069,0.625-0.069,1.041c0,0.556,0.069,1.181,0.208,1.875c0.069,0.417,0.069,0.764,0.069,1.11
		c0,1.042-1.041,1.875-2.291,1.875c-0.139,0-1.181-0.208-2.985-0.625c-0.486-0.139-0.902-0.208-1.042-0.208
		c-0.069,0-0.555,0.07-1.249,0.139c-0.209,0.069-0.348,0.069-0.486,0.069c-0.277,0-0.277,0-1.25-0.139l-1.527,0.069
		c-0.069,0-0.347,0-0.694-0.069c-0.347-0.07-0.694-0.07-1.11-0.07c-1.042,0-1.875,0.347-2.499,0.972
		c-0.625,0.625-0.625,0.625-0.625,3.61l-0.069,1.597c-0.069,0.417-0.069,0.764-0.069,1.111c0,1.389,0.277,3.68,0.555,4.791
		c0.348,1.319,1.527,2.291,3.055,2.43c1.042,0.139,4.443,0.208,6.943,0.208c0.902,0,0.972,0,3.055-0.555
		c0.347-0.07,0.764-0.139,1.11-0.139c1.111,0,2.014,0.764,2.014,1.736c0,0.347-0.069,0.764-0.139,1.25
		c-0.139,0.486-0.208,0.903-0.208,1.18c0,0.278,0,0.278,0.347,1.944c0.069,0.347,0.139,0.694,0.139,1.041
		c0,1.389-0.902,2.014-2.847,2.014c-0.764,0-0.764,0-4.165-0.208c-0.417-0.069-0.764-0.069-1.389-0.069
		c-0.348,0-0.348,0-1.735,0.069H384.988z M377.352,128.203c-1.25,0-1.943-0.486-1.943-1.458c0-0.625,0.069-0.833,0.972-2.222
		c0.485-0.764,0.764-1.458,0.972-2.222c0.417-1.528,0.764-1.875,1.875-1.875h0.694c0.694,0.07,1.318,0.139,1.527,0.139
		c0.069,0,0.347,0,0.764-0.069l2.083-0.07c1.249,0,2.082,0.556,2.082,1.389c0,1.042-0.208,1.25-3.055,3.61
		c-0.485,0.486-0.972,0.972-1.389,1.527c-1.11,1.18-1.249,1.319-1.805,1.319c-0.208,0-0.208,0-1.319-0.139
		c-0.069,0-0.486,0-1.11,0.069H377.352z"/>
</g>
<g>
	<path fill="#FFFFFF" d="M75.564,240.673c-1.18,0-2.222,0-2.707-0.069c-2.36-0.139-4.027-0.277-4.097-0.277
		s-0.764,0.139-1.735,0.277c-0.764,0.139-1.527,0.209-2.222,0.209c-2.777,0-4.235-1.458-4.235-4.236
		c0-0.347,0.069-0.694,0.139-1.111c0.209-1.25,0.348-2.222,0.348-2.499c0-0.07-0.069-0.417-0.139-0.903
		c-0.139-0.833-0.209-2.013-0.209-3.055c0-1.597,0-1.805,0.348-4.166c0.069-0.486,0.139-1.111,0.139-1.875
		c0-0.764,0-0.764-0.139-3.888c-0.069-0.972-0.069-1.805-0.069-2.5c0-0.486,0-0.972,0.069-1.458l0.069-2.291
		c0-0.555-0.139-2.846-0.277-4.582v-0.694c0-0.486,0-0.486,0.208-4.166v-0.833c0-0.555,0-0.694-0.139-1.458
		c-0.069-0.903-0.069-0.903-0.139-1.875c0-0.347-0.07-1.18-0.209-2.638c0-1.388,1.527-2.569,3.194-2.569c0.416,0,1.041,0,1.805,0.07
		c0.417,0.069,0.833,0.069,1.181,0.069c0.416,0,0.416,0,2.499-0.139h1.11c0.764,0,1.458,0.07,2.152,0.139
		c0.764,0.069,1.25,0.139,1.319,0.139l2.222-0.069c2.222,0.208,2.222,0.208,3.055,0.208l2.777-0.07
		c0.902-0.069,1.597-0.139,2.014-0.139c1.527,0,2.568,0.972,2.568,2.36c0,0.347-0.069,0.694-0.139,1.111
		c-0.069,0.486-0.139,0.833-0.139,0.903s0.069,0.764,0.208,1.666c0.069,0.278,0.069,0.486,0.069,0.694
		c0,1.389-0.347,2.014-1.041,2.014c-0.417,0-1.042-0.07-1.875-0.278l-1.389-0.208c-1.458,0-1.666,0-1.874-0.069l-1.181-0.139h-1.389
		l-0.624-0.07l-4.305-0.069c-0.833,0-1.806,0.278-2.152,0.694c-0.486,0.486-0.972,2.014-0.972,2.916
		c0,0.833,0.416,2.569,0.693,2.916c0.348,0.417,1.527,0.833,2.361,0.833l2.013-0.069c1.25,0.208,1.25,0.208,2.014,0.278l1.111,0.069
		c0.347,0.069,0.624,0.069,0.764,0.069c0.277,0,0.277,0,1.735-0.139c0.833,0.069,1.944,0.208,3.332,0.347
		c0.973,0.069,1.875,0.902,1.875,1.666c0,0.069-0.069,0.417-0.208,0.903c-0.069,0.347-0.069,0.625-0.069,1.041
		c0,0.556,0.069,1.181,0.208,1.875c0.069,0.417,0.069,0.764,0.069,1.111c0,1.041-1.041,1.875-2.291,1.875
		c-0.139,0-1.181-0.208-2.985-0.625c-0.486-0.139-0.902-0.208-1.042-0.208c-0.069,0-0.555,0.069-1.249,0.139
		c-0.209,0.069-0.348,0.069-0.486,0.069c-0.277,0-0.277,0-1.25-0.139l-1.527,0.07c-0.069,0-0.347,0-0.694-0.07
		c-0.347-0.069-0.694-0.069-1.11-0.069c-1.042,0-1.875,0.347-2.499,0.972c-0.625,0.625-0.625,0.625-0.625,3.61l-0.069,1.597
		c-0.069,0.417-0.069,0.764-0.069,1.111c0,1.389,0.277,3.68,0.555,4.791c0.348,1.319,1.527,2.291,3.055,2.43
		c1.042,0.139,4.443,0.208,6.943,0.208c0.902,0,0.972,0,3.055-0.555c0.347-0.07,0.764-0.139,1.11-0.139
		c1.111,0,2.014,0.764,2.014,1.736c0,0.347-0.069,0.764-0.139,1.25c-0.139,0.486-0.208,0.903-0.208,1.18
		c0,0.278,0,0.278,0.347,1.944c0.069,0.347,0.139,0.694,0.139,1.042c0,1.388-0.902,2.013-2.847,2.013c-0.764,0-0.764,0-4.165-0.208
		c-0.417-0.069-0.764-0.069-1.389-0.069c-0.348,0-0.348,0-1.735,0.069H75.564z"/>
	<path fill="#FFFFFF" d="M112.151,231.092l-0.833-1.18l-1.111-2.499l-0.416-0.764c-0.625-1.18-0.973-2.013-1.598-3.61
		c-0.277-0.625-0.555-1.042-0.693-1.042c-0.209,0-0.625,0.625-1.042,1.736c-0.277,0.833-0.416,1.041-0.556,1.319
		c-0.208,0.417-0.347,0.764-0.485,1.111c0.069,0.139-0.14,0.625-0.556,1.389l-0.417,0.764c-0.555,0.833-0.833,1.389-1.527,3.333
		c-0.139,0.278-0.277,0.625-0.485,1.111l-0.903,1.319l-0.833,1.735l-0.347,0.903c-0.694,2.222-0.833,2.569-1.25,3.124
		c-0.556,0.694-1.319,1.041-2.014,1.041c-1.388-0.068-3.193-0.139-3.471-0.139c-1.527,0.07-1.527,0.07-1.667,0.07
		c-1.597,0-2.638-0.695-2.638-1.806c0-0.833,0.277-1.527,1.25-3.263c0.624-1.18,0.694-1.389,1.11-2.36
		c0.486-1.111,0.833-1.875,1.042-2.361c0.208-0.139,0.416-0.764,1.458-3.402l0.416-0.833l1.389-2.708
		c0.208-0.347,0.347-0.764,0.486-1.111l0.555-1.389c0.348-0.833,0.694-1.527,1.042-2.222c1.249-2.222,2.013-4.235,2.013-5.068
		s-0.069-0.902-2.776-5.762c-0.278-0.347-0.486-0.833-0.694-1.319l-1.458-3.402c-0.278-0.694-0.417-0.972-0.764-1.597
		c-0.208-0.417-0.556-1.041-0.902-1.805c-0.278-0.833-0.486-1.111-1.111-1.736c-0.556-0.833-0.833-1.597-0.833-2.222
		c0-0.903,0.902-2.5,1.458-2.43l3.888,0.278c0,0,0.348-0.069,0.902-0.139c0.348-0.069,0.764-0.139,1.181-0.139
		c1.805,0,2.568,0.764,3.124,2.847c0.417,1.597,0.625,2.083,0.902,2.569c0.209,0.417,0.417,0.833,0.625,1.319
		c0.417,0.902,0.833,1.597,1.181,2.083c0.208,0.139,1.527,3.125,1.735,3.888c0.348,1.111,0.625,1.666,0.902,1.666
		c0.348,0,0.556-0.347,1.458-2.708c0.278-0.625,0.486-1.25,0.833-1.944c0.278-0.625,0.14-0.278,0.486-0.903
		c1.736-3.124,1.875-3.333,1.944-3.818l0.139-1.597c0.277-2.014,1.597-3.402,3.263-3.402c0.556,0,0.973,0.07,1.389,0.139
		c0.556,0.139,0.973,0.208,0.973,0.208l3.263-0.139c0.417,0,1.041,1.319,1.041,2.36c0,0.972-0.347,2.083-0.972,3.194l-0.833,1.458
		l-0.764,2.083c-0.208,0.555-0.417,0.972-0.694,1.388c-0.208,0.417-0.139,0.208-0.348,0.625l-0.416,0.694
		c-0.348,0.764-0.625,1.458-0.902,2.152l-0.417,0.764l-1.319,2.083c-0.347,0.486-1.389,3.333-1.389,3.68
		c0,0.625,0.07,0.764,1.319,2.569c0.625,1.042,0.694,1.18,1.389,3.68c0.069,0.347,0.278,0.694,0.556,1.042l0.833,0.902
		c0.486,0.556,0.833,1.25,1.111,2.083c0.693,1.666,0.833,2.013,1.249,2.777l1.25,2.013c0.416,0.833,0.625,1.458,0.833,2.013
		c0.347,1.319,0.417,1.458,0.833,2.014c0.278,0.625,0.556,1.042,0.764,1.389c0.139,0.277,0.348,0.625,0.625,0.972l0.486,0.556
		c0.764,0.833,1.18,1.875,1.18,2.846c0,0.972-0.416,1.389-1.389,1.389c-0.555,0-1.18-0.07-1.943-0.209
		c-0.694-0.069-1.181-0.139-1.458-0.139c-0.208,0-0.694,0.069-1.458,0.209c-0.694,0.068-1.319,0.139-2.014,0.139
		c-2.985,0-3.541-0.695-4.166-4.86c-0.347-0.972-0.485-1.389-0.902-2.5c-0.347-0.764-0.347-0.833-0.625-1.25L112.151,231.092z"/>
	<path fill="#FFFFFF" d="M130.895,228.731c0-0.139,0-0.347-0.069-0.555c-0.069-0.972-0.139-1.736-0.139-2.083
		c0-0.069,0-0.347,0.069-0.694c0.069-0.833,0.139-2.569,0.139-3.263c0-0.764-0.069-1.666-0.208-2.638
		c-0.069-0.486-0.14-0.833-0.14-0.902c0.417-4.93,0.417-4.93,0.417-5.832c0-0.764,0-1.389-0.069-2.013
		c-0.069-0.486-0.069-0.833-0.069-0.903l0.069-2.152c-0.139-1.527-0.139-1.527-0.139-1.805c0-0.277,0-0.555,0.069-0.902l0.069-1.111
		c0-0.139-0.139-1.458-0.417-3.263c-0.069-0.694-0.139-1.458-0.139-2.43c0-3.402,0.833-4.235,4.305-4.235
		c0.625,0,1.181,0.069,2.291,0.208c0.486,0.069,0.833,0.069,0.902,0.069l2.777-0.139l1.735,0.139l3.125-0.208
		c5.346,0.278,5.346,0.278,7.775,1.805c2.014,1.18,3.749,2.361,4.651,3.055c0.486,0.417,0.486,0.417,1.875,2.568l0.694,0.833
		c1.18,1.319,1.666,2.569,1.805,4.929c0.069,0.278,0.069,0.556,0.209,0.972c0.069,0.277,0.069,0.277,0.069,0.972
		c0,0.903,0.069,1.805,0.139,2.777c0,1.388-1.181,5.901-1.875,7.29c-1.458,2.777-3.957,5.416-6.248,6.526
		c-0.417,0.208-0.764,0.417-1.111,0.625l-0.624,0.555c-1.319,1.042-5.347,2.222-7.776,2.222h-0.972
		c-1.042-0.069-1.666-0.069-2.014-0.069c-1.944,0-2.499,0.556-2.499,2.5c0,1.666,0.069,2.152,0.555,3.749
		c0.209,0.833,0.417,2.222,0.417,3.194c0,1.528-0.625,2.292-1.875,2.292c-0.485,0-0.902,0-1.318-0.07
		c-0.764-0.069-1.25-0.139-1.527-0.139c-0.069,0-0.348,0-0.694,0.069c-0.694,0.069-1.319,0.14-1.806,0.14
		c-1.805,0-2.707-1.111-2.707-3.264c0-0.694,0.069-1.458,0.139-2.152c0.069-0.902,0.139-1.527,0.139-1.805
		c0-0.139-0.069-0.833-0.139-1.735c-0.069-0.347-0.069-0.694-0.069-0.972s0-0.278,0.208-1.805V228.731z M139.712,206.792
		c-0.139,1.527-0.139,1.527-0.139,1.875c0,0.486,0,0.833,0.139,2.36c0.069,0.625,0.069,1.181,0.069,1.597
		c0,0.486,0,1.041-0.069,1.735c-0.278,2.5-0.278,2.569-0.278,3.125c0,1.944,0.417,3.124,1.111,3.402
		c0.417,0.208,2.222,0.347,3.61,0.347c1.11,0,1.11,0,2.43-0.556l1.111-0.208c1.11-0.208,2.776-1.25,3.61-2.222
		c0.416-0.486,1.388-2.083,1.735-2.777c0.277-0.625,0.902-2.846,0.902-3.193c-0.069-1.736-0.208-2.708-0.277-2.985
		c-1.111-3.472-2.014-4.86-4.027-5.693c-2.013-0.902-4.443-1.458-6.04-1.458c-2.083,0-3.957,1.389-3.957,2.985L139.712,206.792z"/>
	<path fill="#FFFFFF" d="M182.13,240.673c-1.18,0-2.222,0-2.707-0.069c-2.36-0.139-4.027-0.277-4.097-0.277
		s-0.764,0.139-1.735,0.277c-0.764,0.139-1.527,0.209-2.222,0.209c-2.777,0-4.235-1.458-4.235-4.236
		c0-0.347,0.069-0.694,0.139-1.111c0.209-1.25,0.348-2.222,0.348-2.499c0-0.07-0.069-0.417-0.139-0.903
		c-0.14-0.833-0.209-2.013-0.209-3.055c0-1.597,0-1.805,0.348-4.166c0.069-0.486,0.139-1.111,0.139-1.875
		c0-0.764,0-0.764-0.139-3.888c-0.069-0.972-0.069-1.805-0.069-2.5c0-0.486,0-0.972,0.069-1.458l0.069-2.291
		c0-0.555-0.139-2.846-0.277-4.582v-0.694c0-0.486,0-0.486,0.208-4.166v-0.833c0-0.555,0-0.694-0.139-1.458
		c-0.069-0.903-0.069-0.903-0.14-1.875c0-0.347-0.069-1.18-0.208-2.638c0-1.388,1.527-2.569,3.194-2.569c0.416,0,1.041,0,1.805,0.07
		c0.417,0.069,0.833,0.069,1.181,0.069c0.416,0,0.416,0,2.499-0.139h1.11c0.764,0,1.458,0.07,2.152,0.139
		c0.764,0.069,1.25,0.139,1.319,0.139l2.222-0.069c2.222,0.208,2.222,0.208,3.055,0.208l2.777-0.07
		c0.902-0.069,1.597-0.139,2.014-0.139c1.527,0,2.568,0.972,2.568,2.36c0,0.347-0.069,0.694-0.139,1.111
		c-0.069,0.486-0.139,0.833-0.139,0.903s0.069,0.764,0.208,1.666c0.069,0.278,0.069,0.486,0.069,0.694
		c0,1.389-0.347,2.014-1.041,2.014c-0.417,0-1.042-0.07-1.875-0.278l-1.389-0.208c-1.458,0-1.666,0-1.874-0.069l-1.181-0.139h-1.389
		l-0.624-0.07l-4.305-0.069c-0.833,0-1.806,0.278-2.152,0.694c-0.486,0.486-0.973,2.014-0.973,2.916
		c0,0.833,0.417,2.569,0.694,2.916c0.348,0.417,1.528,0.833,2.361,0.833l2.013-0.069c1.25,0.208,1.25,0.208,2.014,0.278l1.111,0.069
		c0.347,0.069,0.624,0.069,0.764,0.069c0.277,0,0.277,0,1.735-0.139c0.833,0.069,1.944,0.208,3.332,0.347
		c0.973,0.069,1.875,0.902,1.875,1.666c0,0.069-0.069,0.417-0.208,0.903c-0.069,0.347-0.069,0.625-0.069,1.041
		c0,0.556,0.069,1.181,0.208,1.875c0.069,0.417,0.069,0.764,0.069,1.111c0,1.041-1.041,1.875-2.291,1.875
		c-0.139,0-1.181-0.208-2.985-0.625c-0.486-0.139-0.902-0.208-1.042-0.208c-0.069,0-0.555,0.069-1.249,0.139
		c-0.209,0.069-0.348,0.069-0.486,0.069c-0.277,0-0.277,0-1.25-0.139l-1.527,0.07c-0.069,0-0.347,0-0.694-0.07
		c-0.347-0.069-0.694-0.069-1.11-0.069c-1.041,0-1.875,0.347-2.499,0.972c-0.625,0.625-0.625,0.625-0.625,3.61l-0.069,1.597
		c-0.07,0.417-0.07,0.764-0.07,1.111c0,1.389,0.278,3.68,0.556,4.791c0.348,1.319,1.527,2.291,3.055,2.43
		c1.042,0.139,4.443,0.208,6.943,0.208c0.902,0,0.972,0,3.055-0.555c0.347-0.07,0.764-0.139,1.11-0.139
		c1.111,0,2.014,0.764,2.014,1.736c0,0.347-0.069,0.764-0.139,1.25c-0.139,0.486-0.208,0.903-0.208,1.18
		c0,0.278,0,0.278,0.347,1.944c0.069,0.347,0.139,0.694,0.139,1.042c0,1.388-0.902,2.013-2.847,2.013c-0.764,0-0.764,0-4.165-0.208
		c-0.417-0.069-0.764-0.069-1.389-0.069c-0.348,0-0.348,0-1.735,0.069H182.13z"/>
	<path fill="#FFFFFF" d="M230.658,239.562c0,0.625-0.764,1.458-1.597,1.805c-0.625,0.277-0.625,0.277-2.5,0.277
		c-2.082,0-2.638-0.068-3.471-0.277c-2.639-0.833-2.985-1.111-7.498-4.929c-2.014-1.736-3.056-2.847-4.652-4.791
		c-0.555-0.764-1.319-1.111-2.152-1.111c-0.694,0-0.902,0.208-1.041,1.042c-0.139,0.625-0.208,1.25-0.208,1.735
		c0,0.486,0,0.486,0.416,2.5c0.139,1.042,0.278,2.083,0.278,2.847c0,1.319-0.556,2.013-1.736,2.013h-0.555
		c-0.486-0.069-0.765-0.069-0.834-0.069l-4.582,0.139c-1.249,0-2.083-0.972-2.083-2.43c0-0.833,0.07-1.736,0.278-2.638
		c0.347-1.597,0.347-1.875,0.347-2.569c0-0.417,0-0.833-0.069-1.18c-0.139-0.625-0.208-0.972-0.208-0.972l0.208-2.5
		c0,0,0-0.208-0.069-0.417c-0.069-0.417-0.069-1.25-0.069-2.846c0-0.486,0-0.486,0.139-3.194c-0.208-1.875-0.208-1.875-0.208-2.777
		c0-2.083,0-2.083,0.139-3.68c0.069-0.694,0.139-1.735,0.139-3.332c0-0.486,0-0.903-0.069-1.181l-0.069-1.18l0.139-1.389
		l-0.139-2.291c0.069-1.389,0.069-1.389,0.069-1.736c0-1.041-0.139-2.222-0.347-3.332c-0.278-1.528-0.348-1.805-0.348-2.292
		c0-3.402,1.181-4.86,3.958-4.86c0.833,0,0.833,0,2.915,0.278c0.14,0.069,0.417,0.069,0.903,0.069h0.694
		c0.694-0.069,1.11-0.069,1.11-0.069l2.43,0.139c3.333-0.277,3.333-0.277,3.958-0.277c3.957,0,5.484,0.555,9.512,3.263
		c2.499,1.736,2.499,1.736,5.484,5.971c1.25,1.875,1.458,2.708,1.389,5.832v0.764l0.277,2.777l-0.277,0.972
		c-0.208,0.347-0.348,0.903-0.417,1.597c-0.347,1.875-0.416,2.013-1.11,3.471l-0.902,1.875c-0.694,1.389-0.903,1.736-1.527,2.222
		c-2.847,2.5-3.958,3.263-5.624,3.958c-1.111,0.347-1.458,0.555-1.458,0.972c0,0.486,0,0.486,1.111,1.458l1.805,1.736
		c1.11,1.111,3.124,1.736,5.484,1.805c1.111,0,1.527,0.139,2.014,0.555c0.556,0.486,0.972,1.181,0.972,1.736
		c0,0.208-0.069,0.764-0.277,1.597l-0.069,0.764V239.562z M211.982,202.349l-1.181-0.069c-1.181,0-2.638,1.319-2.847,2.499
		c-0.069,0.347-0.208,3.472-0.208,4.583c0,0.347,0,0.347,0.208,4.513l-0.069,0.486c-0.139,0.972-0.208,1.805-0.208,2.569
		c0,1.736,0.208,3.472,0.486,3.888c0.277,0.555,1.874,1.042,3.471,1.042c1.111,0,1.597-0.139,3.61-1.042l1.319-0.417
		c1.389-0.417,1.389-0.417,2.43-2.083c0.139-0.208,0.625-0.902,1.527-2.083c0.625-0.833,1.181-1.944,1.319-2.499
		c0.347-2.292,0.347-2.43,0.347-2.5c0-0.486-0.693-3.125-1.041-3.818c-1.041-2.222-3.818-4.305-6.248-4.721l-1.181-0.208
		c-0.347-0.139-0.625-0.208-0.764-0.208L211.982,202.349z"/>
	<path fill="#FFFFFF" d="M239.543,240.673c-1.806,0-2.708-1.041-2.708-3.193c0-0.972,0-0.972,0.417-3.402
		c0.069-0.208,0.069-0.417,0.069-0.694v-0.625c-0.209-1.597-0.278-2.777-0.278-2.985v-0.486l0.139-2.292
		c0-0.972,0-0.972,0.209-3.333l-0.348-6.526l0.278-5.971c-0.14-2.638-0.14-2.638-0.278-5.485c0-0.139,0.069-0.625,0.139-1.25
		c0.07-0.625,0.14-1.11,0.14-1.597c0-0.278,0-0.278-0.069-0.833c-0.07-0.278-0.278-1.805-0.556-4.582
		c0-2.152,1.041-3.402,2.916-3.402c0.416,0,0.764,0,1.041,0.07c0.556,0.069,0.902,0.139,0.902,0.139l2.569-0.208
		c0.139,0,1.11,0.556,1.458,0.764c0.556,0.486,0.902,1.181,0.902,1.944c0,0.486-0.069,1.041-0.139,1.597
		c-0.069,0.625-0.069,0.625-0.139,1.319c0,0.208-0.069,0.694-0.14,1.527l0.14,1.735l-0.14,1.389l0.07,1.25l-0.07,1.319l0.209,2.5
		c0,0.069,0,0.347-0.069,0.764c-0.069,0.347-0.069,0.625-0.069,0.972c0,1.042,0,2.708,0.069,3.055
		c0.069,0.555,0.069,0.972,0.069,0.972c0,0.278-0.069,0.833-0.209,1.528c-0.069,0.277-0.069,0.417-0.069,0.486l0.14,1.805
		c-0.209,1.805-0.209,1.805-0.209,2.013c0,0.347,0,0.347,0.417,2.43l-0.069,0.417l-0.069,1.042c0,0.902,0,0.902-0.069,1.666
		c0.208,1.667,0.416,3.472,0.416,4.027c0,0.069-0.069,0.417-0.139,0.902c-0.069,0.486-0.069,0.903-0.069,1.25
		c0,0.764,0.277,3.471,0.485,4.651c0.07,0.486,0.14,0.903,0.14,1.25c0,1.388-0.973,2.222-2.639,2.222c-0.347,0-0.347,0-1.805-0.14
		c-0.209-0.069-0.556-0.069-0.903-0.069c-0.139,0-0.485,0-0.972,0.069H239.543z"/>
	<path fill="#FFFFFF" d="M268.7,240.673c-1.18,0-2.222,0-2.707-0.069c-2.36-0.139-4.027-0.277-4.097-0.277s-0.764,0.139-1.735,0.277
		c-0.764,0.139-1.527,0.209-2.222,0.209c-2.777,0-4.235-1.458-4.235-4.236c0-0.347,0.069-0.694,0.139-1.111
		c0.209-1.25,0.348-2.222,0.348-2.499c0-0.07-0.069-0.417-0.139-0.903c-0.14-0.833-0.209-2.013-0.209-3.055
		c0-1.597,0-1.805,0.348-4.166c0.069-0.486,0.139-1.111,0.139-1.875c0-0.764,0-0.764-0.139-3.888
		c-0.069-0.972-0.069-1.805-0.069-2.5c0-0.486,0-0.972,0.069-1.458l0.069-2.291c0-0.555-0.139-2.846-0.277-4.582v-0.694
		c0-0.486,0-0.486,0.208-4.166v-0.833c0-0.555,0-0.694-0.139-1.458c-0.069-0.903-0.069-0.903-0.14-1.875
		c0-0.347-0.069-1.18-0.208-2.638c0-1.388,1.527-2.569,3.194-2.569c0.416,0,1.041,0,1.805,0.07c0.417,0.069,0.833,0.069,1.181,0.069
		c0.416,0,0.416,0,2.499-0.139h1.11c0.764,0,1.458,0.07,2.152,0.139c0.764,0.069,1.25,0.139,1.319,0.139l2.222-0.069
		c2.222,0.208,2.222,0.208,3.055,0.208l2.777-0.07c0.902-0.069,1.597-0.139,2.014-0.139c1.527,0,2.568,0.972,2.568,2.36
		c0,0.347-0.069,0.694-0.139,1.111c-0.069,0.486-0.139,0.833-0.139,0.903s0.069,0.764,0.208,1.666
		c0.069,0.278,0.069,0.486,0.069,0.694c0,1.389-0.347,2.014-1.041,2.014c-0.417,0-1.042-0.07-1.875-0.278l-1.389-0.208
		c-1.458,0-1.666,0-1.874-0.069l-1.181-0.139h-1.389l-0.624-0.07l-4.305-0.069c-0.833,0-1.806,0.278-2.152,0.694
		c-0.486,0.486-0.973,2.014-0.973,2.916c0,0.833,0.417,2.569,0.694,2.916c0.348,0.417,1.528,0.833,2.361,0.833l2.013-0.069
		c1.25,0.208,1.25,0.208,2.014,0.278l1.111,0.069c0.347,0.069,0.624,0.069,0.764,0.069c0.277,0,0.277,0,1.735-0.139
		c0.833,0.069,1.944,0.208,3.332,0.347c0.973,0.069,1.875,0.902,1.875,1.666c0,0.069-0.069,0.417-0.208,0.903
		c-0.069,0.347-0.069,0.625-0.069,1.041c0,0.556,0.069,1.181,0.208,1.875c0.069,0.417,0.069,0.764,0.069,1.111
		c0,1.041-1.041,1.875-2.291,1.875c-0.139,0-1.181-0.208-2.985-0.625c-0.486-0.139-0.902-0.208-1.042-0.208
		c-0.069,0-0.555,0.069-1.249,0.139c-0.209,0.069-0.348,0.069-0.486,0.069c-0.277,0-0.277,0-1.25-0.139l-1.527,0.07
		c-0.069,0-0.347,0-0.694-0.07c-0.347-0.069-0.694-0.069-1.11-0.069c-1.041,0-1.875,0.347-2.499,0.972
		c-0.625,0.625-0.625,0.625-0.625,3.61l-0.069,1.597c-0.07,0.417-0.07,0.764-0.07,1.111c0,1.389,0.278,3.68,0.556,4.791
		c0.348,1.319,1.527,2.291,3.055,2.43c1.042,0.139,4.443,0.208,6.943,0.208c0.902,0,0.972,0,3.055-0.555
		c0.347-0.07,0.764-0.139,1.11-0.139c1.111,0,2.014,0.764,2.014,1.736c0,0.347-0.069,0.764-0.139,1.25
		c-0.139,0.486-0.208,0.903-0.208,1.18c0,0.278,0,0.278,0.347,1.944c0.069,0.347,0.139,0.694,0.139,1.042
		c0,1.388-0.902,2.013-2.847,2.013c-0.764,0-0.764,0-4.165-0.208c-0.417-0.069-0.764-0.069-1.389-0.069
		c-0.348,0-0.348,0-1.735,0.069H268.7z"/>
	<path fill="#FFFFFF" d="M316.048,240.813c-0.694,0.068-1.527,0.068-2.291,0.068c-1.458,0-2.152-0.277-3.055-1.388
		c-0.625-0.833-0.625-0.833-2.291-4.791c-1.11-2.36-1.319-2.777-3.193-5.346c-0.694-0.972-1.944-3.125-2.777-4.721l-0.417-0.902
		c-0.485-0.764-0.972-1.458-1.527-2.222c-0.277-0.347-0.139-0.139-0.416-0.625c-0.348-0.556-1.042-1.875-1.944-3.888l-0.972-1.458
		l-0.556-0.625c-0.347-0.556-0.694-0.972-1.041-1.319c-0.14-0.278-0.348-0.417-0.417-0.417c-0.208,0-0.416,0.347-0.347,0.764
		c0.139,1.389,0.208,2.847,0.208,3.888c0,0.139,0,0.347-0.069,0.555c-0.069,0.694-0.139,1.111-0.139,1.18
		c0,0.07,0.139,0.764,0.277,1.667c0.069,0.208,0.069,0.417,0.069,0.486l-0.277,3.125l0.347,3.193c0,0,0,0.208-0.069,0.556
		c-0.069,0.555-0.069,0.625-0.208,3.402c0,1.597,0.069,2.638,0.556,6.318v0.486c0,1.111-0.764,1.944-1.875,1.944
		c-0.208,0-0.625,0-1.041-0.069c-0.278-0.069-0.556-0.069-0.764-0.069c-0.209,0-0.209,0-1.806,0.139
		c-0.277,0.07-0.416,0.07-0.556,0.07c-1.527,0-1.943-0.14-2.568-0.625c-0.902-0.764-1.25-1.667-1.25-2.986
		c0-0.833,0.139-1.805,0.348-2.847c0.208-0.764,0.277-1.388,0.277-1.666c0-0.069-0.069-0.556-0.139-1.25
		c-0.069-0.694-0.208-3.471-0.208-4.513c0-0.417,0-0.417,0.208-1.597c-0.069-2.152-0.208-5.068-0.208-5.485
		c0-0.486,0-0.486,0.139-2.152l-0.208-7.151c0.069-0.833,0.208-2.291,0.416-4.374l-0.208-2.013c0.139-1.597,0.139-1.597,0.139-1.736
		c0-0.694-0.347-2.222-0.833-3.749c-0.348-0.903-0.486-1.667-0.486-2.152c0-1.25,1.111-2.5,2.291-2.5c0.209,0,0.486,0,0.764,0.07
		c1.319,0.139,2.291,0.208,2.431,0.208c0.139,0,0.624-0.069,1.249-0.139c0.348-0.069,0.694-0.069,0.973-0.069
		c0.972,0,2.568,0.764,3.193,1.597c0.833,1.042,1.389,2.152,2.36,4.443l0.486,0.902l0.694,1.042l0.416,0.903l0.139,0.417
		c0.417,1.25,0.417,1.25,1.458,2.499c0.625,0.764,1.111,1.528,1.528,2.222l1.874,3.75l0.417,0.972l1.11,1.18
		c0.208,0.347,0.417,0.625,0.556,0.903c0.625,1.25,0.764,1.458,1.458,2.5c0.208,0.277,0.208,0.277,0.833,1.458
		c0.694,1.25,1.319,2.152,1.527,2.152s0.347-0.347,0.347-0.972l-0.347-5.416v-1.18c0.069-1.25,0.069-2.916,0.069-3.818
		c0-1.25,0-1.597-0.069-3.888v-1.736v-1.25c0.069-0.764,0.069-1.25,0.069-1.458c0-0.625,0-0.625-0.416-2.708
		c-0.07-0.486-0.14-0.972-0.14-1.389c0-1.944,0.903-2.847,3.055-2.916l2.083-0.208c0.486-0.07,0.973-0.07,1.458-0.07
		c1.806,0,2.916,1.458,2.916,3.958c0,0.694,0,0.694-0.416,6.318c-0.069,0.625-0.069,1.111-0.069,1.25
		c0,0.277,0.069,0.972,0.208,1.944c0.208,1.388,0.277,2.708,0.277,3.957c0,0.972-0.139,3.541-0.208,4.374
		c-0.069,1.042-0.139,1.736-0.139,1.805s0.069,1.25,0.208,2.985c0.069,0.417,0.069,0.833,0.069,1.319c0,0.417,0,0.972-0.069,1.458
		c-0.139,1.875-0.208,3.193-0.208,3.541c0,0.208,0,0.625,0.069,1.111c0.139,1.111,0.208,1.875,0.208,2.222
		c0,0.139,0,0.556-0.069,1.042v1.736c0,1.25,0,1.389,0.347,3.333c0.14,0.694,0.209,1.319,0.209,1.944c0,1.875-0.694,2.5-2.5,2.5
		h-0.277H316.048z"/>
	<path fill="#FFFFFF" d="M350.621,236.299c0.139,0.555,0.208,1.041,0.208,1.458c0,2.292-2.152,3.888-5.276,3.888
		c-3.193,0-8.123-1.249-10.206-2.638c-4.513-2.916-7.845-7.29-9.512-12.428c-1.11-3.471-1.18-4.443-1.18-11.733
		c0-3.402,0.625-5.693,2.638-9.859c1.944-4.096,2.985-5.416,6.041-7.707c2.013-1.458,2.707-1.805,6.387-3.055
		c2.222-0.694,3.472-0.972,4.93-0.972c2.638,0,4.513,0.625,5.138,1.667c0.347,0.555,0.347,0.555,0.485,2.222
		c0.07,0.347,0.14,1.389,0.278,3.055c0,1.736-1.111,3.194-2.5,3.194c-0.485,0-1.18-0.069-1.943-0.278
		c-1.389-0.278-2.291-0.417-2.916-0.417c-0.972,0-2.847,0.694-3.888,1.458c-1.111,0.764-2.569,2.916-3.333,4.86
		s-1.874,6.596-1.874,7.776c0,1.389,0.694,5.346,1.18,6.804c0.625,1.736,2.36,5.207,3.055,5.971
		c1.181,1.319,2.847,2.083,4.583,2.083c0.555,0,0.555,0,2.013-0.347c0.278-0.069,1.042-0.139,1.527-0.139
		c2.639,0,3.61,0.972,3.958,3.888L350.621,236.299z"/>
	<path fill="#FFFFFF" d="M370.197,240.673c-1.18,0-2.222,0-2.707-0.069c-2.36-0.139-4.027-0.277-4.097-0.277
		s-0.764,0.139-1.735,0.277c-0.764,0.139-1.527,0.209-2.222,0.209c-2.777,0-4.235-1.458-4.235-4.236
		c0-0.347,0.069-0.694,0.139-1.111c0.209-1.25,0.348-2.222,0.348-2.499c0-0.07-0.069-0.417-0.139-0.903
		c-0.139-0.833-0.209-2.013-0.209-3.055c0-1.597,0-1.805,0.348-4.166c0.069-0.486,0.139-1.111,0.139-1.875
		c0-0.764,0-0.764-0.139-3.888c-0.069-0.972-0.069-1.805-0.069-2.5c0-0.486,0-0.972,0.069-1.458l0.069-2.291
		c0-0.555-0.139-2.846-0.277-4.582v-0.694c0-0.486,0-0.486,0.208-4.166v-0.833c0-0.555,0-0.694-0.139-1.458
		c-0.069-0.903-0.069-0.903-0.139-1.875c0-0.347-0.07-1.18-0.209-2.638c0-1.388,1.527-2.569,3.194-2.569c0.416,0,1.041,0,1.805,0.07
		c0.417,0.069,0.833,0.069,1.181,0.069c0.416,0,0.416,0,2.499-0.139h1.11c0.764,0,1.458,0.07,2.152,0.139
		c0.764,0.069,1.25,0.139,1.319,0.139l2.222-0.069c2.222,0.208,2.222,0.208,3.055,0.208l2.777-0.07
		c0.902-0.069,1.597-0.139,2.014-0.139c1.527,0,2.568,0.972,2.568,2.36c0,0.347-0.069,0.694-0.139,1.111
		c-0.069,0.486-0.139,0.833-0.139,0.903s0.069,0.764,0.208,1.666c0.069,0.278,0.069,0.486,0.069,0.694
		c0,1.389-0.347,2.014-1.041,2.014c-0.417,0-1.042-0.07-1.875-0.278l-1.389-0.208c-1.458,0-1.666,0-1.874-0.069l-1.181-0.139h-1.389
		l-0.624-0.07l-4.305-0.069c-0.833,0-1.806,0.278-2.152,0.694c-0.486,0.486-0.972,2.014-0.972,2.916
		c0,0.833,0.416,2.569,0.693,2.916c0.348,0.417,1.527,0.833,2.361,0.833l2.013-0.069c1.25,0.208,1.25,0.208,2.014,0.278l1.111,0.069
		c0.347,0.069,0.624,0.069,0.764,0.069c0.277,0,0.277,0,1.735-0.139c0.833,0.069,1.944,0.208,3.332,0.347
		c0.973,0.069,1.875,0.902,1.875,1.666c0,0.069-0.069,0.417-0.208,0.903c-0.069,0.347-0.069,0.625-0.069,1.041
		c0,0.556,0.069,1.181,0.208,1.875c0.069,0.417,0.069,0.764,0.069,1.111c0,1.041-1.041,1.875-2.291,1.875
		c-0.139,0-1.181-0.208-2.985-0.625c-0.486-0.139-0.902-0.208-1.042-0.208c-0.069,0-0.555,0.069-1.249,0.139
		c-0.209,0.069-0.348,0.069-0.486,0.069c-0.277,0-0.277,0-1.25-0.139l-1.527,0.07c-0.069,0-0.347,0-0.694-0.07
		c-0.347-0.069-0.694-0.069-1.11-0.069c-1.042,0-1.875,0.347-2.499,0.972c-0.625,0.625-0.625,0.625-0.625,3.61l-0.069,1.597
		c-0.069,0.417-0.069,0.764-0.069,1.111c0,1.389,0.277,3.68,0.555,4.791c0.348,1.319,1.527,2.291,3.055,2.43
		c1.042,0.139,4.443,0.208,6.943,0.208c0.902,0,0.972,0,3.055-0.555c0.347-0.07,0.764-0.139,1.11-0.139
		c1.111,0,2.014,0.764,2.014,1.736c0,0.347-0.069,0.764-0.139,1.25c-0.139,0.486-0.208,0.903-0.208,1.18
		c0,0.278,0,0.278,0.347,1.944c0.069,0.347,0.139,0.694,0.139,1.042c0,1.388-0.902,2.013-2.847,2.013c-0.764,0-0.764,0-4.165-0.208
		c-0.417-0.069-0.764-0.069-1.389-0.069c-0.348,0-0.348,0-1.735,0.069H370.197z"/>
</g>
<g>
	<path fill="#FFFFFF" d="M61.193,286.631l0.069-1.805c0.069-0.486,0.069-0.833,0.069-0.833c-0.208-2.847-0.347-4.583-0.347-4.86
		c0-0.208,0-0.693,0.069-1.389c0.069-0.833,0.139-1.597,0.139-2.291c0-0.693-0.069-1.666-0.139-2.846
		c-0.208-1.806-0.208-2.361-0.208-3.819s0.069-2.499,0.139-2.985c0.139-0.486,0.208-0.902,0.208-0.972c0,0-0.069-0.556-0.208-1.389
		l-0.069-1.042l-0.209-1.596c-0.069-0.625-0.139-1.111-0.139-1.598c0-1.041,0.417-1.805,1.389-2.43
		c0.348-0.208,1.181-0.555,1.319-0.555l3.749,0.139c0,0,0.486-0.07,1.041-0.139c0.417-0.07,0.903-0.07,1.389-0.07
		c0.764,0,0.764,0,3.749,0.348c0.694,0.069,1.111,0.069,5.693,0.139c1.25-0.139,2.152-0.209,2.222-0.209
		c0.625,0,1.735,0.486,2.083,0.973c0.208,0.208,0.625,1.389,0.625,1.597l-0.069,1.667c0,0,0,0.139,0.069,0.277
		c0.069,0.277,0.069,0.555,0.069,0.764c0,1.805-1.25,3.124-3.055,3.124c-0.694,0-1.598-0.069-2.569-0.278
		c-0.486-0.068-0.833-0.139-0.902-0.139l-1.527,0.07l-2.36-0.278c-0.973,0.069-2.5,0.485-2.916,0.764
		c-0.556,0.486-0.764,1.319-0.764,3.541c0,2.916,0.625,3.472,4.096,3.401h0.902c0.834,0.139,1.181,0.209,1.806,0.278
		c0.347,0.069,0.625,0.069,0.902,0.069c0.208,0,0.417,0,0.694-0.069c1.181-0.14,2.014-0.208,2.083-0.208
		c1.527,0,3.263,1.249,3.263,2.36c0,0.069-0.069,0.556-0.139,1.181c-0.069,0.207-0.069,0.416-0.069,0.555
		c0,0.277,0,0.277,0.139,1.597v0.625c0,1.458-1.11,2.36-2.985,2.36c-0.625,0-1.18-0.069-1.805-0.208
		c-0.348-0.069-0.625-0.139-0.625-0.139l-1.527,0.139l-1.319-0.139l-1.735,0.069h-0.417c-0.486-0.069-0.833-0.069-0.833-0.069
		c-1.597,0-2.36,1.249-2.36,3.749c0,0.139,0,0.139,0.139,1.18l-0.208,2.5c0.069,0.764,0.069,1.25,0.139,1.527
		c0,0.486,0.069,0.902,0.139,1.318c0.069,0.486,0.069,0.486,0.069,0.764c0,0.209,0,0.557-0.069,1.042v0.903
		c0,1.041,0.417,4.304,0.833,7.012c0,1.458-0.972,2.639-2.083,2.639l-2.013-0.07c-0.417-0.069-0.694-0.069-0.764-0.069
		c-1.458,0.278-1.458,0.278-1.736,0.278c-2.083,0-3.332-1.459-3.332-4.027c0-0.972,0-1.041,0.277-3.332
		c0.069-0.278,0.069-0.695,0.069-1.181c0-1.042,0-1.11-0.277-2.43c-0.069-0.347-0.139-0.625-0.139-0.903
		c0-0.416,0.069-1.318,0.208-2.43L61.193,286.631z"/>
	<path fill="#FFFFFF" d="M133.396,280.869v1.457l-0.417,2.569c-0.208,1.042-0.416,1.944-0.694,2.847
		c-0.069,1.805-1.666,4.93-3.749,7.637c-0.624,0.764-1.18,1.527-1.735,2.361c-0.833,1.11-0.833,1.11-3.332,2.776
		c-2.569,1.735-2.569,1.735-4.514,2.222c-1.943,0.486-5.554,0.973-7.289,0.973c-6.249,0-8.54-0.417-13.261-2.431
		c-2.708-1.11-7.013-4.79-7.846-6.596c-0.347-0.764-0.764-1.597-1.25-2.499c-0.555-0.902-1.735-4.582-2.082-6.526
		c-0.209-1.458-0.556-5.624-0.556-7.429c0-2.985,0.902-7.082,2.152-9.581c2.36-4.86,4.929-8.054,8.123-9.929
		c2.291-1.388,3.055-1.666,4.721-2.082c0.348-0.069,0.833-0.277,1.527-0.486c3.124-0.902,3.124-0.902,5.138-0.902
		c3.055,0,5.763,0.208,7.151,0.625c4.721,1.25,7.498,2.499,9.858,4.513c0.069,0.069,0.902,1.042,2.36,2.916
		c1.111,1.319,3.333,5.138,4.027,6.804c0.764,1.875,1.18,2.985,1.249,3.264c0.486,2.152,0.764,4.165,0.764,5.275
		c0,0.486-0.069,0.973-0.208,1.598L133.396,280.869z M123.398,275.523l-0.139-1.667l-0.347-0.833
		c-0.208-0.556-0.417-1.111-0.625-1.597c-0.277-0.833-1.041-2.083-2.222-3.68c-1.389-1.735-3.055-2.847-5.068-3.472
		c-0.277-0.069-0.694-0.208-1.25-0.416c-1.11-0.486-2.499-0.764-3.818-0.764c-2.707,0-6.456,1.318-8.956,3.124
		c-0.972,0.694-1.18,0.972-3.193,4.513c-0.208,0.277-1.389,3.68-1.527,4.234c0,0.14-0.208,1.944-0.486,5.277
		c0.556,5.068,0.556,5.068,1.458,7.775c0.486,1.458,2.847,4.305,4.582,5.693c2.014,1.527,4.374,2.222,7.846,2.222
		c3.332,0,4.166-0.208,6.317-1.389c3.402-1.944,3.402-1.944,4.86-3.958c0.833-1.18,0.902-1.249,1.319-2.638
		c0.069-0.417,0.069-0.417,0.416-1.181c0.625-1.666,1.389-5.207,1.389-6.596c0-0.764-0.069-1.596-0.208-2.499L123.398,275.523z"/>
	<path fill="#FFFFFF" d="M170.606,301.697c0,0.625-0.764,1.457-1.597,1.805c-0.625,0.277-0.625,0.277-2.5,0.277
		c-2.082,0-2.638-0.068-3.471-0.277c-2.639-0.833-2.985-1.111-7.498-4.93c-2.014-1.735-3.056-2.846-4.652-4.79
		c-0.555-0.764-1.318-1.11-2.152-1.11c-0.694,0-0.902,0.208-1.041,1.041c-0.139,0.625-0.208,1.25-0.208,1.735
		c0,0.486,0,0.486,0.416,2.499c0.139,1.042,0.278,2.084,0.278,2.848c0,1.318-0.556,2.013-1.736,2.013h-0.555
		c-0.486-0.069-0.764-0.069-0.834-0.069l-4.582,0.139c-1.249,0-2.083-0.972-2.083-2.43c0-0.833,0.069-1.736,0.278-2.639
		c0.347-1.596,0.347-1.874,0.347-2.568c0-0.416,0-0.833-0.069-1.18c-0.139-0.625-0.208-0.973-0.208-0.973l0.208-2.5
		c0,0,0-0.207-0.069-0.416c-0.069-0.416-0.069-1.25-0.069-2.846c0-0.486,0-0.486,0.139-3.194c-0.208-1.874-0.208-1.874-0.208-2.777
		c0-2.083,0-2.083,0.139-3.68c0.069-0.694,0.139-1.735,0.139-3.332c0-0.486,0-0.903-0.069-1.181l-0.069-1.18l0.139-1.389
		l-0.139-2.291c0.069-1.389,0.069-1.389,0.069-1.736c0-1.041-0.139-2.222-0.347-3.332c-0.278-1.527-0.348-1.805-0.348-2.291
		c0-3.402,1.181-4.86,3.958-4.86c0.833,0,0.833,0,2.916,0.278c0.139,0.068,0.416,0.068,0.902,0.068h0.694
		c0.694-0.068,1.11-0.068,1.11-0.068l2.43,0.139c3.333-0.277,3.333-0.277,3.958-0.277c3.957,0,5.484,0.555,9.512,3.262
		c2.499,1.736,2.499,1.736,5.484,5.972c1.25,1.874,1.458,2.708,1.389,5.831v0.764l0.277,2.777l-0.277,0.973
		c-0.208,0.347-0.348,0.902-0.417,1.597c-0.347,1.874-0.416,2.013-1.11,3.472l-0.902,1.874c-0.694,1.389-0.903,1.735-1.527,2.222
		c-2.847,2.5-3.958,3.264-5.624,3.957c-1.111,0.348-1.458,0.556-1.458,0.973c0,0.486,0,0.486,1.11,1.457l1.806,1.736
		c1.11,1.111,3.124,1.736,5.484,1.805c1.111,0,1.527,0.139,2.014,0.556c0.556,0.486,0.972,1.181,0.972,1.735
		c0,0.209-0.069,0.764-0.277,1.598l-0.069,0.764V301.697z M151.931,264.484l-1.181-0.07c-1.18,0-2.638,1.319-2.847,2.5
		c-0.069,0.347-0.208,3.471-0.208,4.582c0,0.348,0,0.348,0.208,4.513l-0.069,0.485c-0.139,0.973-0.208,1.806-0.208,2.569
		c0,1.735,0.208,3.472,0.486,3.888c0.277,0.556,1.874,1.042,3.471,1.042c1.111,0,1.597-0.14,3.61-1.042l1.319-0.416
		c1.389-0.417,1.389-0.417,2.43-2.083c0.139-0.208,0.625-0.902,1.527-2.083c0.625-0.833,1.181-1.943,1.319-2.499
		c0.347-2.292,0.347-2.431,0.347-2.499c0-0.486-0.693-3.125-1.041-3.818c-1.041-2.223-3.818-4.305-6.248-4.722l-1.181-0.208
		c-0.347-0.139-0.625-0.209-0.764-0.209L151.931,264.484z"/>
</g>
<g>
	<path fill="#FAEA05" d="M202.959,277.675c0.208-0.972,0.486-1.735,1.527-3.957c0.556-1.319,0.556-1.319,1.319-3.61
		c0.208-0.555,0.485-1.319,0.902-2.152c0.972-2.152,1.25-2.916,1.25-3.402c0-0.485-0.278-0.764-0.694-0.764
		c-0.139,0-0.348,0-0.556,0.07c-1.041,0.139-3.957,0.347-4.86,0.347c-0.485,0-0.902,0-1.388-0.069
		c-0.625-0.069-1.042-0.069-1.181-0.069c-0.347,0-0.902,0.069-1.666,0.139c-0.902,0.139-1.666,0.208-2.291,0.208
		c-2.222,0-3.818-1.18-3.818-2.984c0-0.417,0.069-0.973,0.208-1.667l0.139-1.11c0.347-2.014,1.11-2.639,3.263-2.639
		c0.556,0,2.639,0.139,4.722,0.277c0.833,0.07,1.666,0.07,2.222,0.07c0.694,0,1.735-0.07,3.263-0.139
		c0.486-0.07,0.833-0.07,1.042-0.07l2.638,0.07l3.264-0.209l2.222,0.069c0.555,0,0.624,0,1.11-0.069h0.625
		c0.764,0,0.972,0.209,1.597,1.943l0.277,0.625c0.417,0.834,0.417,0.902,0.417,1.527c0,1.181-0.139,1.459-1.111,2.986
		c-0.624,1.11-1.11,2.221-1.805,4.443l-0.347,0.972c-0.07,0.347-0.278,0.694-0.486,1.181c-0.277,0.485-0.486,0.972-0.694,1.457
		c-0.347,0.695-0.208,0.278-0.486,1.181c-0.277,0.972-0.485,1.806-0.764,2.431c-0.139,0.347-0.277,0.764-0.416,1.249l-0.417,1.181
		c-0.208,0.764-0.416,1.597-0.556,2.36c-0.139,0.624-0.277,1.181-0.555,1.805c-0.14,0.556-0.069,0.278-0.278,0.833l-0.416,1.111
		c-0.348,0.972-0.556,1.943-0.833,2.985c-0.417,1.319-0.834,2.916-1.598,5.346c-0.208,0.972-0.624,2.222-1.249,3.888
		c-0.556,1.736-0.625,2.014-0.764,3.889c-0.139,2.846-0.764,3.68-2.5,3.68c-0.347,0-0.764,0-1.249-0.07
		c-0.556-0.068-0.973-0.139-1.25-0.139c-0.208,0-0.625,0.07-1.25,0.139c-0.416,0.07-0.833,0.07-1.249,0.07
		c-1.806,0-2.708-0.902-2.708-2.708c0-1.389,0-1.389,2.777-7.359c1.11-2.569,1.318-3.194,1.597-4.651
		c0.972-3.541,1.041-3.75,2.014-6.457c0.208-0.486,0.347-0.973,0.485-1.389L202.959,277.675z"/>
	<path fill="#FAEA05" d="M243.572,302.877c-1.319,0-2.36-0.555-2.847-1.457c-0.208-0.557-0.347-1.945-0.347-4.236
		c0-0.485,0.069-0.902,0.139-1.596c0.069-0.348,0.139-0.625,0.139-0.695l-0.277-3.818c0-0.833,0.139-3.748,0.208-4.373
		s0.139-1.042,0.139-1.042l-0.139-2.569l0.069-1.389l-0.069-1.943l0.139-1.389l-0.208-2.777l0.069-2.499
		c0-0.069,0-0.347-0.069-0.764c-0.069-0.972-0.069-2.083-0.069-3.194V267.4c0.069-1.181,0.069-2.084,0.069-2.361
		c0-1.875-0.069-2.291-0.486-4.721v-0.486c0-2.777,0.694-3.68,2.777-3.68c1.041,0,1.944,0,2.847,0.07
		c0.347,0.068,0.625,0.068,0.694,0.068l3.124-0.139l1.874,0.139l1.875-0.068c0.139,0,0.972,0.139,2.222,0.277l1.458,0.208
		c3.124,0.485,6.596,1.666,9.164,3.193c0.486,0.347,1.042,0.694,1.667,1.042l1.18,0.625c0.902,0.485,3.333,3.193,4.443,4.998
		c0.833,1.319,2.222,4.097,2.916,5.901c1.042,2.639,1.458,4.999,1.458,8.748c0,4.86-1.319,8.887-4.513,13.747
		c-1.389,2.082-3.263,3.68-6.317,5.207c-4.235,2.221-6.666,2.916-10.415,2.916l-10.274-0.278L243.572,302.877z M253.084,264.275
		l-1.806-0.139c-0.972,0-2.013,0.833-2.013,1.597l0.277,2.777c0.069,2.013,0.069,2.013,0.139,4.513l-0.139,1.527
		c-0.069,0.416-0.069,0.902-0.069,1.25c0,0.625,0,0.625,0.277,2.499l-0.139,3.541v0.624c0.069,0.557,0.069,0.973,0.069,0.973
		l-0.277,2.985l0.277,2.499l-0.069,0.695c-0.069,0.485-0.139,1.11-0.139,1.874c0,2.222,0.556,2.847,2.499,3.124l1.389,0.209
		c0.902,0.139,1.597,0.207,1.944,0.207c1.458,0,3.957-0.832,6.317-2.013c0.209-0.139,1.25-0.972,3.055-2.569
		c1.181-1.041,1.181-1.18,1.875-3.055c0.208-0.625,0.556-1.457,0.972-2.43c0.694-1.527,1.042-2.777,1.042-3.957
		c0-2.568-0.348-4.93-0.973-6.318c-1.666-3.471-2.222-4.651-2.43-4.93c-0.069-0.068-0.069-0.139-2.291-2.568
		c-0.625-0.625-3.61-1.875-5.624-2.291l-1.041-0.277c-0.764-0.278-1.319-0.417-1.458-0.417L253.084,264.275z"/>
	<path fill="#FAEA05" d="M302.027,294.477c-0.624,0.069-1.11,0.139-1.11,0.139c-0.069,0-0.348,0-0.764-0.069h-0.694
		c-0.625,0-0.625,0-2.847,0.278c-0.625,0.068-1.11,0.068-1.527,0.068c-0.556,0-1.25-0.068-2.014-0.208
		c-0.555-0.069-1.041-0.139-1.319-0.139c-2.221,0-3.818,1.874-3.888,4.374c0,2.152,0,2.152-0.485,2.916
		c-0.556,0.764-1.111,1.111-2.014,1.111c-0.486,0-1.111-0.07-1.806-0.14l-1.388-0.069c-0.348,0-0.973,0-2.014,0.069h-0.694
		c-1.458,0-2.291-0.694-2.291-1.805c0-0.694,0.347-1.667,1.041-2.985c0.486-0.834,0.764-1.458,0.833-1.666l0.348-1.459
		c0.139-0.416,0.347-0.902,0.625-1.457c0.555-1.111,0.972-2.223,1.318-3.402c0.278-1.319,0.556-2.568,0.834-3.818
		c0.139-0.417,0.347-0.973,0.972-2.568c0.486-1.25,0.972-2.709,1.458-4.443c0.277-0.903,0.556-1.667,0.833-2.223l0.902-2.082
		c0.417-1.25,0.694-2.014,1.389-4.375c0.139-0.485,0.277-0.971,0.417-1.527c0.139-0.485,0.069-0.208,0.277-0.693l0.347-0.973
		l0.348-1.18c0.347-1.459,0.486-1.806,1.389-4.097c0.485-1.388,0.833-2.36,0.833-2.499c0.902-2.985,1.319-3.402,3.749-3.402
		c0.277,0,0.625,0,0.972,0.07l1.042,0.068l2.568-0.068c0.278,0,1.181,0.624,1.666,1.11c0.348,0.347,0.625,1.041,0.973,2.291
		c0.139,0.347,0.347,0.902,0.625,1.806l0.833,2.013l1.458,3.194c0.555,1.18,0.833,2.151,1.11,3.609
		c0.208,1.111,0.208,1.25,0.833,2.708c0.278,0.347,0.417,0.833,0.556,1.389l0.417,1.735l0.555,1.458
		c0.209,0.764,0.417,1.458,0.556,2.083l0.277,1.18c0.14,0.486,0.417,0.973,0.694,1.666c0.348,0.695,0.209,0.348,0.486,1.042
		l0.764,2.083l0.278,1.458l0.347,0.833c0.139,0.348,0.277,0.694,0.347,1.041l0.486,2.083l0.348,0.903l0.693,1.596
		c0.209,0.557,0.417,1.111,0.556,1.598c0.209,0.693,0.417,1.25,0.694,1.666l0.902,1.527c0.556,1.041,0.903,2.222,0.903,3.125
		c0,1.041-0.486,1.596-1.527,1.596l-1.389-0.068c-0.903-0.14-1.597-0.209-2.014-0.209c-0.277,0-0.972,0.069-1.805,0.139
		c-0.625,0.07-1.181,0.139-1.667,0.139c-1.805,0-2.43-1.041-2.568-4.165c0-1.527-0.208-2.083-1.319-3.541
		c-0.417-0.625-0.972-0.833-2.014-0.833H302.027z M295.571,274.828c-0.625,1.736-0.764,2.014-1.111,3.264
		c-0.556,1.943-0.694,2.43-1.18,3.471c-0.486,1.111-0.486,1.111-1.319,3.958c0,0.556,1.041,1.249,1.874,1.249l2.222-0.068
		c0.069,0,0.348,0,0.764,0.068h0.833c0.486,0,0.834,0,1.111-0.068l0.486-0.07h1.388c0.417,0,1.042-0.764,1.042-1.25
		c0-0.347,0-0.347-0.694-1.805l-0.417-1.458l-0.277-1.319l-0.694-2.291l-0.347-1.389l-0.209-0.764
		c-0.208-1.18-0.485-2.013-0.624-2.499c-0.625-1.458-0.765-1.666-0.694-1.874c-0.07-0.348-0.278-1.181-0.556-2.361
		c-0.069-0.068-0.139-0.208-0.208-0.208L295.571,274.828z"/>
	<path fill="#FAEA05" d="M323.965,282.118l0.069-1.458c0-0.208-0.208-0.764-0.625-1.527l-0.347-0.764l-0.278-1.041
		c-0.764-2.222-1.597-3.957-2.638-5.416c-0.903-1.249-0.973-1.389-1.458-2.43c-0.14-0.486-0.417-0.972-0.694-1.458
		c-0.902-1.527-0.902-1.527-1.111-2.36c-0.139-0.348-0.139-0.348-0.764-1.805c-1.18-2.708-2.014-5.139-2.014-5.902
		c0-0.971,0.834-1.805,1.875-1.805c0.208,0,0.486,0,0.833,0.07c0.764,0.068,1.319,0.139,1.527,0.139c0.069,0,0.417,0,0.902-0.07
		h0.556c0.902,0,1.875,0.417,2.36,0.973c0.486,0.693,0.694,1.18,1.25,3.541c0.139,0.693,0.347,1.18,0.625,1.457
		c0.277,0.486,0.139,0.278,0.416,0.695c0.348,0.624,0.348,0.693,0.834,1.666c0.485,0.902,1.041,1.943,1.735,2.916
		c0.139,0.347,0.486,1.041,0.972,2.221c0.278,0.486,0.486,0.834,0.694,0.834c0.486,0,0.972-1.111,2.152-4.582
		c0.208-0.556,0.277-0.695,0.694-1.32c0.347-0.485,0.694-1.18,1.041-1.943c0.069-0.348,0.278-0.694,0.486-1.041l0.486-0.764
		c0.208-0.277,0.347-0.625,0.416-1.042l0.417-1.597c0.208-0.902,1.389-2.014,2.083-2.082c0.069,0,0.833,0.139,1.874,0.277
		c0.208,0.069,0.417,0.069,0.556,0.069c0.208,0,0.417,0,0.556-0.069c1.041-0.139,1.805-0.209,1.874-0.209
		c1.042,0,1.806,1.111,1.806,2.639c0,1.318-0.069,1.458-0.833,2.847c-0.14,0.277-0.14,0.277-0.486,0.902
		c-0.417,0.902-0.764,1.666-1.111,2.291c-0.208,0.347-0.416,0.694-0.555,1.181c-0.209,0.764-0.486,1.457-0.764,2.014
		c-0.278,0.624-0.556,1.249-0.903,1.735c-0.416,0.833-0.485,0.833-0.764,1.666l-0.625,1.458l-0.555,0.973l-0.556,1.388
		c-0.347,0.764-0.764,1.527-1.181,2.36c-1.388,2.777-1.874,4.235-1.874,5.207c0,0.348,0,0.348,0.208,2.223
		c0.069,0.347,0.069,0.693,0.069,0.971c0,0.486-0.069,0.695-0.277,1.945c-0.139,0.832-0.208,1.527-0.208,2.082
		c0,0.209,0.069,1.041,0.139,2.222v0.972v0.834c-0.069,1.18-0.139,2.014-0.139,2.082c0,0.417,0.069,0.973,0.277,1.598
		c0.347,1.249,0.347,1.389,0.347,2.013c0,2.292-0.555,3.124-2.291,3.124c-0.347,0-0.347,0-1.943-0.277
		c-0.139-0.069-0.348-0.069-0.625-0.069c-0.208,0-0.486,0-0.764,0.069c-1.666,0.209-1.735,0.209-2.083,0.209
		c-1.597,0-2.499-0.695-2.499-1.944c0-1.042,0-1.042,0.764-4.443c0.208-0.833,0.277-1.528,0.277-2.292
		c0-1.11-0.069-2.151-0.208-3.263c-0.278-1.597-0.278-1.805-0.278-2.638c0-0.625,0-1.111,0.14-1.944
		c0.069-0.833,0.277-3.193,0.277-3.263L323.965,282.118z"/>
	<path fill="#FAEA05" d="M349.441,275.314c-1.457-1.25-1.457-1.25-2.36-3.332c-0.972-2.291-1.389-3.541-1.389-4.235l0.069-1.319
		l-0.069-1.597c0-0.486,0.278-1.458,1.042-3.749c0.416-1.319,1.041-2.014,3.193-3.541c1.527-1.111,1.527-1.111,3.472-1.597
		c1.874-0.417,2.985-0.556,5.832-0.556c0.902,0,1.11,0,2.638,0.209l2.36,0.068c0.834,0.07,2.916,0.695,4.514,1.389
		c1.249,0.625,2.151,1.666,2.151,2.569c0,0.485,0,0.485-0.902,2.013c-0.139,0.278-0.277,0.695-0.556,2.431
		c-0.208,1.597-0.833,2.291-2.013,2.291c-0.833,0-0.833,0-2.708-1.319c-1.319-0.972-3.749-1.875-4.999-1.875
		c-2.152,0-2.43,0.07-3.263,0.348c-1.25,0.556-1.875,1.389-1.875,2.847s0.764,2.43,2.985,4.026
		c4.374,2.986,8.193,6.041,10.067,7.984c2.499,2.568,3.472,4.027,4.305,6.248c0.764,1.875,1.041,2.986,1.041,4.027
		c0,4.305-0.069,4.721-1.249,7.498c-0.903,2.291-0.903,2.291-2.777,4.096c-1.944,1.875-2.916,2.361-5.693,3.056
		c-1.041,0.277-1.319,0.277-2.43,0.277c-3.055,0.069-3.61,0.069-3.61,0.069c-1.041-0.139-1.875-0.277-2.639-0.277
		c-1.458-0.139-3.888-0.486-4.582-0.764c-0.277-0.139-0.902-0.277-1.735-0.416c-0.902-0.209-2.916-0.834-3.264-1.042
		c-0.624-0.417-0.902-1.319-0.902-3.124c0-0.417,0.209-1.181,0.556-1.944l0.347-0.833l0.209-1.666
		c0.208-1.527,0.902-2.569,1.805-2.569c0.556,0,1.25,0.347,2.569,1.319c2.152,1.597,2.36,1.666,4.651,2.36
		c0.486,0.14,0.486,0.14,0.902,0.278c1.25,0.416,1.527,0.485,3.193,0.485c1.736,0,2.569-0.347,3.75-1.458
		c1.249-1.25,1.805-2.639,1.805-4.513c0-2.43-1.181-4.513-3.333-5.971c-1.041-0.694-1.041-0.694-1.527-1.11L349.441,275.314z"/>
</g>
<a href="#"><path fill="#FAEA05" d="M405.262,474.859H55.387c-8.155,0-14.768-6.612-14.768-14.768v-57.474c0-8.156,6.612-14.768,14.768-14.768
	h349.875c8.156,0,14.769,6.611,14.769,14.768v57.474C420.03,468.247,413.418,474.859,405.262,474.859"/></a>
<g>
	<path fill="#B72025" d="M114.347,444.641c-1.671-0.485-3.014-1.116-4.027-1.892l1.779-3.946c0.971,0.711,2.124,1.283,3.461,1.714
		c1.337,0.432,2.674,0.647,4.012,0.647c1.487,0,2.587-0.222,3.299-0.664c0.712-0.441,1.067-1.029,1.067-1.763
		c0-0.538-0.21-0.986-0.631-1.342c-0.42-0.356-0.96-0.642-1.617-0.857c-0.658-0.216-1.548-0.453-2.669-0.712
		c-1.725-0.409-3.137-0.819-4.237-1.229c-1.1-0.41-2.043-1.067-2.83-1.974c-0.787-0.905-1.181-2.113-1.181-3.623
		c0-1.314,0.356-2.507,1.067-3.574c0.712-1.067,1.784-1.913,3.219-2.539c1.434-0.625,3.187-0.938,5.256-0.938
		c1.445,0,2.857,0.173,4.237,0.518s2.588,0.841,3.623,1.487l-1.617,3.979c-2.092-1.186-4.184-1.778-6.275-1.778
		c-1.467,0-2.55,0.237-3.251,0.711c-0.7,0.475-1.051,1.1-1.051,1.876s0.404,1.354,1.213,1.73c0.809,0.378,2.043,0.75,3.704,1.116
		c1.725,0.41,3.138,0.82,4.237,1.229c1.1,0.41,2.043,1.057,2.83,1.94c0.787,0.885,1.181,2.081,1.181,3.591
		c0,1.294-0.361,2.475-1.084,3.542s-1.806,1.914-3.251,2.539c-1.444,0.625-3.202,0.938-5.272,0.938
		C117.748,445.368,116.018,445.126,114.347,444.641z"/>
	<path fill="#B72025" d="M148.181,429.26c1.326,1.294,1.989,3.214,1.989,5.758v9.963h-5.046v-9.187c0-1.38-0.302-2.41-0.905-3.089
		c-0.604-0.68-1.478-1.019-2.62-1.019c-1.272,0-2.286,0.394-3.041,1.181s-1.132,1.956-1.132,3.509v8.604h-5.046v-24.001h5.046v8.41
		c0.668-0.668,1.477-1.181,2.426-1.537c0.949-0.355,1.984-0.533,3.105-0.533C145.113,427.319,146.854,427.966,148.181,429.26z"/>
	<path fill="#B72025" d="M158.079,444.091c-1.455-0.765-2.593-1.827-3.412-3.186c-0.82-1.359-1.229-2.9-1.229-4.626
		c0-1.725,0.409-3.267,1.229-4.626c0.819-1.358,1.957-2.42,3.412-3.186c1.456-0.766,3.1-1.148,4.933-1.148s3.472,0.383,4.917,1.148
		c1.444,0.766,2.576,1.827,3.396,3.186c0.819,1.359,1.229,2.901,1.229,4.626c0,1.726-0.41,3.267-1.229,4.626
		c-0.82,1.358-1.952,2.421-3.396,3.186c-1.445,0.766-3.084,1.148-4.917,1.148S159.535,444.856,158.079,444.091z M166.198,439.789
		c0.83-0.874,1.245-2.043,1.245-3.51c0-1.466-0.415-2.637-1.245-3.51s-1.893-1.31-3.187-1.31s-2.361,0.437-3.202,1.31
		s-1.262,2.044-1.262,3.51c0,1.467,0.421,2.636,1.262,3.51c0.841,0.873,1.908,1.31,3.202,1.31S165.368,440.662,166.198,439.789z"/>
	<path fill="#B72025" d="M190.619,428.436c1.326,0.744,2.366,1.79,3.122,3.138c0.754,1.348,1.132,2.916,1.132,4.706
		s-0.378,3.359-1.132,4.706c-0.756,1.349-1.796,2.394-3.122,3.138s-2.798,1.116-4.415,1.116c-2.222,0-3.968-0.7-5.24-2.103v8.119
		h-5.046v-23.678h4.819v2.006c1.251-1.51,3.073-2.265,5.467-2.265C187.821,427.319,189.293,427.691,190.619,428.436z
		 M188.517,439.789c0.83-0.874,1.245-2.043,1.245-3.51c0-1.466-0.415-2.637-1.245-3.51s-1.893-1.31-3.186-1.31
		c-1.294,0-2.356,0.437-3.187,1.31s-1.245,2.044-1.245,3.51c0,1.467,0.415,2.636,1.245,3.51c0.83,0.873,1.893,1.31,3.187,1.31
		C186.624,441.099,187.687,440.662,188.517,439.789z"/>
	<path fill="#B72025" d="M212.354,443.849c-1.887-1.014-3.364-2.41-4.432-4.189c-1.067-1.778-1.601-3.778-1.601-6
		c0-2.221,0.533-4.222,1.601-6c1.067-1.779,2.545-3.175,4.432-4.189c1.887-1.013,4.006-1.52,6.356-1.52
		c2.35,0,4.464,0.507,6.34,1.52c1.876,1.015,3.353,2.41,4.432,4.189c1.078,1.778,1.617,3.779,1.617,6c0,2.222-0.539,4.222-1.617,6
		c-1.079,1.779-2.556,3.176-4.432,4.189s-3.99,1.52-6.34,1.52C216.36,445.368,214.241,444.862,212.354,443.849z M222.334,439.983
		c1.078-0.615,1.924-1.473,2.539-2.572c0.614-1.1,0.922-2.35,0.922-3.752c0-1.401-0.308-2.652-0.922-3.752
		c-0.615-1.1-1.461-1.957-2.539-2.571c-1.079-0.615-2.286-0.922-3.623-0.922c-1.338,0-2.545,0.307-3.623,0.922
		c-1.078,0.614-1.925,1.472-2.539,2.571s-0.922,2.351-0.922,3.752c0,1.402,0.308,2.652,0.922,3.752s1.461,1.957,2.539,2.572
		c1.078,0.614,2.285,0.922,3.623,0.922C220.048,440.905,221.255,440.598,222.334,439.983z"/>
	<path fill="#B72025" d="M250.296,429.26c1.326,1.294,1.989,3.214,1.989,5.758v9.963h-5.046v-9.187c0-1.38-0.302-2.41-0.905-3.089
		c-0.604-0.68-1.478-1.019-2.62-1.019c-1.272,0-2.286,0.394-3.041,1.181s-1.132,1.956-1.132,3.509v8.604h-5.046v-17.402h4.819v2.038
		c0.668-0.733,1.499-1.299,2.491-1.698c0.991-0.399,2.08-0.599,3.267-0.599C247.229,427.319,248.97,427.966,250.296,429.26z"/>
	<path fill="#B72025" d="M256.847,420.979h5.046v24.001h-5.046V420.979z"/>
	<path fill="#B72025" d="M266.842,424.344c-0.582-0.539-0.873-1.208-0.873-2.006s0.291-1.466,0.873-2.006
		c0.582-0.538,1.337-0.809,2.264-0.809c0.928,0,1.683,0.259,2.265,0.776s0.873,1.165,0.873,1.941c0,0.841-0.291,1.536-0.873,2.086
		s-1.337,0.825-2.265,0.825C268.179,425.152,267.424,424.883,266.842,424.344z M266.583,427.578h5.046v17.402h-5.046V427.578z"/>
	<path fill="#B72025" d="M292.12,429.26c1.326,1.294,1.989,3.214,1.989,5.758v9.963h-5.046v-9.187c0-1.38-0.302-2.41-0.905-3.089
		c-0.604-0.68-1.478-1.019-2.62-1.019c-1.272,0-2.286,0.394-3.041,1.181s-1.132,1.956-1.132,3.509v8.604h-5.046v-17.402h4.819v2.038
		c0.668-0.733,1.499-1.299,2.491-1.698c0.991-0.399,2.08-0.599,3.267-0.599C289.053,427.319,290.794,427.966,292.12,429.26z"/>
	<path fill="#B72025" d="M315.62,437.702h-13.165c0.237,1.079,0.798,1.931,1.683,2.556c0.884,0.626,1.983,0.938,3.299,0.938
		c0.906,0,1.709-0.135,2.41-0.404c0.7-0.27,1.353-0.696,1.957-1.278l2.685,2.911c-1.639,1.876-4.033,2.814-7.181,2.814
		c-1.963,0-3.699-0.383-5.208-1.148c-1.51-0.765-2.674-1.827-3.493-3.186c-0.82-1.359-1.229-2.9-1.229-4.626
		c0-1.703,0.404-3.239,1.213-4.609c0.809-1.369,1.919-2.437,3.332-3.202c1.412-0.766,2.992-1.148,4.738-1.148
		c1.703,0,3.245,0.367,4.626,1.1c1.38,0.733,2.463,1.785,3.251,3.154c0.786,1.369,1.181,2.959,1.181,4.771
		C315.718,436.408,315.685,436.861,315.62,437.702z M303.813,432.106c-0.776,0.647-1.251,1.531-1.423,2.652h8.572
		c-0.173-1.1-0.647-1.978-1.424-2.636s-1.726-0.987-2.847-0.987C305.55,431.136,304.59,431.46,303.813,432.106z"/>
	<path fill="#B72025" d="M319.227,444.382c-0.594-0.571-0.89-1.267-0.89-2.086s0.291-1.504,0.873-2.054
		c0.583-0.551,1.326-0.825,2.232-0.825c0.905,0,1.649,0.274,2.231,0.825c0.582,0.55,0.874,1.234,0.874,2.054
		s-0.297,1.515-0.89,2.086c-0.594,0.572-1.332,0.857-2.216,0.857C320.558,445.239,319.819,444.954,319.227,444.382z
		 M318.434,422.338h6.017l-1.003,14.782h-4.011L318.434,422.338z"/>
	<path fill="#B72025" d="M352.655,431.557v4.205l-15.396,5.854v-4.043l10.771-3.914l-10.771-3.946v-4.011L352.655,431.557z"/>
</g>
</svg>
