<?xml version="1.0" encoding="utf-8"?>
<!-- Generator: Adobe Illustrator 16.0.0, SVG Export Plug-In . SVG Version: 6.00 Build 0)  -->
<!DOCTYPE svg PUBLIC "-//W3C//DTD SVG 1.1//EN" "http://www.w3.org/Graphics/SVG/1.1/DTD/svg11.dtd">
<svg version="1.1" id="Layer_1" xmlns="http://www.w3.org/2000/svg" xmlns:xlink="http://www.w3.org/1999/xlink" x="0px" y="0px"
	 width="133.3px" height="187.1px" viewBox="0 0 133.3 187.1" style="enable-background:new 0 0 133.3 187.1;" xml:space="preserve"
	>
<path style="fill:#FCEC00;" d="M133.3,66.6c0,5.3-0.6,10.4-1.8,15.3c-1.2,5.1-2.8,5.1-5,14c-2.2,3.4-4.8,8.2-7.9,12.4
	c-3.1,2.1-6.5,10.1-10.3,10.3c-3.8,4.5-8,5.4-12.4,7.9c-2.2,1.1-4.5,2-6.8,2.9c-2.4,1.1-4.1,2.2-7.2,2.1c-2.5,1.7-5,0.9-7.5,1.3
	c-2.5-1.1-5.1,2.1-7.8,0.4c-5.3,0.3-10.4-1.8-15.3-1.8c-4.9-2.6-9.6-5.8-14-5c-4.4-1.6-8.6-6.2-12.4-7.9c-3.8-3.1-7.3-6.5-10.3-10.3
	C8.5,100.7,4.1,91.7,1.8,81.9C0.6,77,0,71.7,0,66.6c0-7.8,0.3-11.8,1.8-15.3c1.9-4.6,2.8-9,5-14c2.2-6.1,4.8-7.1,7.9-12.4
	c3.1-0.8,6.5-5.2,10.3-10.3c3.8-3.1,7.9-5.7,12.4-7.9C46.2,2.4,56.1,0,66.6,0C71.9,0,77,0.6,81.9,1.8c4.9,0.9,9.6,1.4,14,5
	c4.4,3.7,8.6,4.7,12.4,7.9c3.8,5.1,7.3,7.8,10.3,10.3c3.1,3.4,5.7,5.5,7.9,12.4c2.2,5.8,3.9,9.1,5,14
	C132.6,56.3,133.3,61.4,133.3,66.6"/>
<path style="fill:#ba0a13;" d="M66.5,6.7L66.5,6.7C34.3,6.7,8.1,32.8,8.1,65.1c0,0.2,0,0.4,0,0.6c0.2,17.8,8.3,33.6,20.9,44.2l0.1,0
	c0.1,0,0.1,0.1,0.2,0.2c24.1,20.6,33.5,35.7,34.9,75.1c0.1,0.5,0.5,2.1,2.4,2c2.1,0,2.3-1.5,2.4-2c1.3-39.3,10.7-54.4,34.9-75
	c0.1-0.1,0.1-0.1,0.2-0.2l0,0c12.7-10.6,20.7-26.5,20.9-44.2c0-0.2,0-0.4,0-0.6C124.9,32.8,98.8,6.7,66.5,6.7 M43.6,37.8l32.5,0
	L80.7,21l5.6,0l-4.6,16.8l7.4,0c3.3,2.8,6,6.3,8.1,10.1l-61.7,0C37.5,44,40.3,40.6,43.6,37.8 M66.2,99.4c-19.3,0-35-15.8-34.9-35.1
	c0-3.6,0.6-7,1.6-10.3l66.8,0c1,3.3,1.6,6.8,1.6,10.4C101.2,83.8,85.5,99.5,66.2,99.4"/>
</svg>
