<?xml version="1.0" encoding="utf-8"?>
<!-- Generator: Adobe Illustrator 16.0.0, SVG Export Plug-In . SVG Version: 6.00 Build 0)  -->
<!DOCTYPE svg PUBLIC "-//W3C//DTD SVG 1.1//EN" "http://www.w3.org/Graphics/SVG/1.1/DTD/svg11.dtd">
<svg version="1.1" id="Layer_1" xmlns="http://www.w3.org/2000/svg" xmlns:xlink="http://www.w3.org/1999/xlink" x="0px" y="0px"
	 width="146.4px" height="147.9px" viewBox="0 0 146.4 147.9" style="enable-background:new 0 0 146.4 147.9;" xml:space="preserve"
	>
<path style="fill:#FBEC06;" d="M140.6,74.4c0,5.3-0.6,10.4-1.8,15.3c-1.2,5.1-2.8,5.1-5,14c-2.2,3.4-4.8,8.2-7.9,12.4
	c-3.1,2.1-6.5,10.1-10.3,10.3c-3.8,4.5-8,5.4-12.4,7.9c-2.2,1.1-4.5,2-6.8,2.9c-2.4,1.1-4.1,2.2-7.2,2.1c-2.5,1.7-5,0.9-7.5,1.3
	c-2.5-1.1-5.1,2.1-7.8,0.4c-5.3,0.3-10.4-1.8-15.3-1.8c-4.9-2.6-9.6-5.8-14-5c-4.4-1.6-8.6-6.2-12.4-7.9c-3.8-3.1-7.3-6.5-10.3-10.3
	c-6.1-7.6-10.6-16.6-12.9-26.4C8,84.8,7.4,79.5,7.4,74.4c0-7.8,0.3-11.8,1.8-15.3c1.9-4.6,2.8-9,5-14c2.2-6.1,4.8-7.1,7.9-12.4
	c3.1-0.8,6.5-5.2,10.3-10.3c3.8-3.1,8-5.7,12.4-7.9c8.8-4.3,18.8-6.8,29.3-6.8c5.3,0,10.4,0.6,15.3,1.8c4.9,0.9,9.6,1.4,14,5
	c4.4,3.7,8.6,4.7,12.4,7.9c3.8,5.1,7.3,7.8,10.3,10.3c3.1,3.4,5.7,5.5,7.9,12.4c2.2,5.8,3.9,9.1,5,14
	C140,64.1,140.6,69.2,140.6,74.4"/>
<path style="fill-rule:evenodd;clip-rule:evenodd;fill:#8B191C;" d="M54.9,79.5c0.1,0,0.3,0,0.4,0c0.8,0.5,1.7,1,2.5,1.6
	c0.2,0.1,0.5,0.3,0.7,0.3c0.9,0.1,1.3,0.6,1.7,1.3c-0.9-0.5-1.8-0.9-2.7-1.4c-0.9-0.5-1.8-1.1-2.7-1.6
	C54.8,79.6,54.9,79.6,54.9,79.5"/>
<path style="fill-rule:evenodd;clip-rule:evenodd;fill:#8B191C;" d="M30,81.8c0.4,0.3,0.8,0.5,1.5,0.9C30.5,83,30.1,82.6,30,81.8"/>
<path style="fill-rule:evenodd;clip-rule:evenodd;fill:#8B191C;" d="M62.6,74.8c0.4,0.4,0.6,0.7,0.8,1
	C62.4,75.5,62.4,75.5,62.6,74.8"/>
<path style="fill-rule:evenodd;clip-rule:evenodd;fill:#8B191C;" d="M37.8,45c-0.5-0.3-0.9-0.6-1.4-0.9C37.1,44.2,37.1,44.2,37.8,45
	"/>
<path style="fill-rule:evenodd;clip-rule:evenodd;fill:#8B191C;" d="M22.2,83.1c0.3,0.2,0.6,0.5,0.8,0.7c0,0-0.1,0.1-0.2,0.1
	c-0.3-0.2-0.7-0.4-1-0.6C22,83.2,22.1,83.2,22.2,83.1"/>
<path style="fill-rule:evenodd;clip-rule:evenodd;fill:#8B191C;" d="M2.7,72.5c0.2,0.3,0.4,0.5,0.6,0.8c0,0-0.2,0.1-0.2,0.1
	c-0.3-0.2-0.5-0.5-0.8-0.7C2.5,72.6,2.6,72.6,2.7,72.5"/>
<path style="fill-rule:evenodd;clip-rule:evenodd;fill:#8B191C;" d="M17.8,101.2c-0.4-0.3-0.9-0.7-1.4-1.1c1,0,1.2,0.5,1.7,0.9
	C18,101.1,17.9,101.2,17.8,101.2"/>
<path style="fill-rule:evenodd;clip-rule:evenodd;fill:#8B191C;" d="M16.6,80.4c0.3,0.1,0.6,0.2,0.7,0.3c0,0,0,0.3-0.1,0.3
	c-0.1,0-0.3,0-0.5-0.1C16.7,80.8,16.7,80.6,16.6,80.4"/>
<path style="fill-rule:evenodd;clip-rule:evenodd;fill:#8B191C;" d="M5.1,67.1c-0.3-0.2-0.6-0.5-0.9-0.7c0,0,0.1-0.1,0.1-0.1
	c0.3,0.2,0.6,0.4,1,0.6C5.2,67,5.1,67,5.1,67.1"/>
<path style="fill-rule:evenodd;clip-rule:evenodd;fill:#8B191C;" d="M47.5,52.1c0.6-1.3,1.2-2.7,2-4.2
	C49.5,49.1,49.3,49.4,47.5,52.1"/>
<path style="fill-rule:evenodd;clip-rule:evenodd;fill:#8B191C;" d="M17.1,47.4c0.8-0.8,1.3-1.3,2-1.9c-0.2,0.5-0.3,1-0.5,1.4
	C18.1,47.7,18.1,47.7,17.1,47.4"/>
<path style="fill-rule:evenodd;clip-rule:evenodd;fill:#8B191C;" d="M51.7,43.4c0.5-0.5,1.1-1,1.9-1.7c-0.6,1.6-1.2,2-1.8,2.2
	C51.7,43.8,51.7,43.6,51.7,43.4"/>
<path style="fill-rule:evenodd;clip-rule:evenodd;fill:#8B191C;" d="M22,48c0.5-0.5,0.9-1.1,1.4-1.6c0.1,0.1,0.1,0.2,0.2,0.3
	c-0.5,0.6-0.9,1.2-1.4,1.8C22.1,48.3,22,48.2,22,48"/>
<path style="fill-rule:evenodd;clip-rule:evenodd;fill:#8B191C;" d="M10.7,71.8c-0.3,0.5-0.6,0.9-0.9,1.4c-0.1-0.1-0.2-0.2-0.2-0.2
	c0.3-0.4,0.6-0.9,0.9-1.3C10.6,71.6,10.7,71.7,10.7,71.8"/>
<path style="fill-rule:evenodd;clip-rule:evenodd;fill:#8B191C;" d="M37.4,37c0.4-0.5,0.7-1,1.1-1.5c0.1,0.1,0.1,0.1,0.2,0.2
	c-0.3,0.5-0.7,1.1-1,1.6C37.5,37.1,37.4,37.1,37.4,37"/>
<path style="fill-rule:evenodd;clip-rule:evenodd;fill:#8B191C;" d="M12.4,68.1c0.6-0.8,1-1.4,1.5-2.1
	C13.4,67.4,13.4,67.4,12.4,68.1"/>
<path style="fill-rule:evenodd;clip-rule:evenodd;fill:#8B191C;" d="M32.2,72c-0.3,0.4-0.6,0.7-0.8,1c0,0-0.1-0.1-0.2-0.2
	c0.3-0.4,0.6-0.7,0.9-1.1C32.1,71.9,32.1,72,32.2,72"/>
<path style="fill-rule:evenodd;clip-rule:evenodd;fill:#8B191C;" d="M51.9,49.5c0.4-0.4,0.8-0.8,1.3-1.2c0,0.1,0,0.2,0.1,0.3
	c-0.4,0.4-0.8,0.9-1.2,1.3C52,49.7,51.9,49.6,51.9,49.5"/>
<path style="fill-rule:evenodd;clip-rule:evenodd;fill:#8B191C;" d="M30.5,55.3c0.2-0.3,0.4-0.7,0.7-1c0.1,0.1,0.1,0.1,0.2,0.1
	c-0.2,0.3-0.4,0.7-0.6,1C30.6,55.4,30.6,55.4,30.5,55.3"/>
<path style="fill-rule:evenodd;clip-rule:evenodd;fill:#8B191C;" d="M40.9,49.9c0.2-0.4,0.5-0.7,0.7-1.1c0,0,0.1,0.1,0.1,0.1
	c-0.2,0.4-0.5,0.7-0.7,1.1C41,50,41,50,40.9,49.9"/>
<path style="fill-rule:evenodd;clip-rule:evenodd;fill:#8B191C;" d="M11.7,54.9c-0.3,0.1-0.4,0.2-0.6,0.2c0-0.2,0.1-0.4,0.1-0.5
	c0.1-0.1,0.2-0.2,0.4-0.4C11.6,54.4,11.6,54.6,11.7,54.9"/>
<path style="fill-rule:evenodd;clip-rule:evenodd;fill:#8B191C;" d="M25.2,70.9c0.1-0.3,0.2-0.6,0.3-1c0.1,0,0.2,0,0.2-0.1
	c-0.1,0.3-0.2,0.7-0.3,1C25.3,70.9,25.3,70.9,25.2,70.9"/>
<path style="fill-rule:evenodd;clip-rule:evenodd;fill:#8B191C;" d="M46.8,47.2c-0.1,0.1-0.3,0.3-0.4,0.4c0-0.2,0-0.4,0.1-0.6
	c0-0.1,0.2-0.2,0.4-0.3C46.9,46.9,46.9,47,46.8,47.2"/>
<path style="fill-rule:evenodd;clip-rule:evenodd;fill:#8B191C;" d="M27.9,56.3c0.3-0.2,0.5-0.4,0.8-0.7c-0.1,0.3-0.2,0.6-0.4,0.8
	c-0.1,0.1-0.3,0.2-0.4,0.2C27.9,56.6,27.9,56.4,27.9,56.3"/>
<path style="fill-rule:evenodd;clip-rule:evenodd;fill:#8B191C;" d="M78.6,105.3c0.1-0.1,0.2-0.2,0.3-0.3c0.9-0.3,1.9-0.6,2.8-0.9
	c0.2-0.1,0.6-0.2,0.7-0.3c0.6-0.6,1.3-0.5,2.1-0.4c-0.9,0.4-1.9,0.8-2.8,1.1c-1,0.3-2,0.6-3,0.9C78.7,105.5,78.6,105.4,78.6,105.3"
	/>
<path style="fill-rule:evenodd;clip-rule:evenodd;fill:#8B191C;" d="M63.9,125.6c0.5-0.1,1-0.3,1.7-0.5
	C65.1,126,64.5,126,63.9,125.6"/>
<path style="fill-rule:evenodd;clip-rule:evenodd;fill:#8B191C;" d="M80.2,96.4c0.6,0,0.9,0,1.3,0C80.5,97,80.5,97,80.2,96.4"/>
<path style="fill-rule:evenodd;clip-rule:evenodd;fill:#8B191C;" d="M41.3,95.4c-0.6,0.2-1,0.3-1.6,0.5
	C40.3,95.4,40.3,95.4,41.3,95.4"/>
<path style="fill-rule:evenodd;clip-rule:evenodd;fill:#8B191C;" d="M59.7,132.3c0.4-0.1,0.7-0.1,1.1-0.1c0,0,0,0.2,0,0.2
	c-0.4,0.1-0.7,0.2-1.1,0.3C59.7,132.5,59.7,132.4,59.7,132.3"/>
<path style="fill-rule:evenodd;clip-rule:evenodd;fill:#8B191C;" d="M38.9,139.9c0.3,0,0.7,0,1,0c0,0-0.1,0.2-0.1,0.2
	c-0.3,0.1-0.7,0.1-1,0.1C38.8,140.2,38.9,140.1,38.9,139.9"/>
<path style="fill-rule:evenodd;clip-rule:evenodd;fill:#8B191C;" d="M70.4,147.5c-0.5,0.1-1.1,0.2-1.8,0.4c0.6-0.7,1.2-0.6,1.7-0.7
	C70.4,147.3,70.4,147.4,70.4,147.5"/>
<path style="fill-rule:evenodd;clip-rule:evenodd;fill:#8B191C;" d="M54,134.7c0.3-0.2,0.5-0.3,0.7-0.3c0,0,0.2,0.2,0.2,0.2
	c-0.1,0.1-0.3,0.2-0.4,0.3C54.4,134.8,54.2,134.8,54,134.7"/>
<path style="fill-rule:evenodd;clip-rule:evenodd;fill:#8B191C;" d="M36.4,134.6c-0.4,0.1-0.7,0.2-1.1,0.2c0-0.1,0-0.1,0-0.2
	c0.4-0.1,0.7-0.2,1.1-0.3C36.4,134.4,36.4,134.5,36.4,134.6"/>
<path style="fill-rule:evenodd;clip-rule:evenodd;fill:#8B191C;" d="M53.1,92.8c-0.6-1.3-1.2-2.7-1.9-4.3
	C52.2,89.3,52.3,89.7,53.1,92.8"/>
<path style="fill-rule:evenodd;clip-rule:evenodd;fill:#8B191C;" d="M29.5,112.5c0-1.1-0.1-1.8-0.1-2.7c0.3,0.5,0.6,0.9,0.7,1.3
	C30.4,112,30.4,112,29.5,112.5"/>
<path style="fill-rule:evenodd;clip-rule:evenodd;fill:#8B191C;" d="M49.3,84c0-0.7,0-1.5,0-2.5c0.8,1.5,0.8,2.2,0.5,2.9
	C49.6,84.2,49.5,84.1,49.3,84"/>
<path style="fill-rule:evenodd;clip-rule:evenodd;fill:#8B191C;" d="M33.2,109.3c-0.1-0.7-0.2-1.4-0.3-2.1c0.1,0,0.2,0,0.3,0.1
	c0.2,0.7,0.3,1.5,0.5,2.2C33.5,109.4,33.3,109.4,33.2,109.3"/>
<path style="fill-rule:evenodd;clip-rule:evenodd;fill:#8B191C;" d="M43.6,133.4c0.1,0.5,0.3,1,0.4,1.5c-0.1,0-0.2,0-0.3,0
	c-0.1-0.5-0.3-1-0.4-1.6C43.4,133.4,43.5,133.4,43.6,133.4"/>
<path style="fill-rule:evenodd;clip-rule:evenodd;fill:#8B191C;" d="M35,90.4c-0.1-0.6-0.3-1.2-0.4-1.8c0.1,0,0.2,0,0.3,0
	c0.2,0.6,0.3,1.2,0.5,1.8C35.3,90.4,35.2,90.4,35,90.4"/>
<path style="fill-rule:evenodd;clip-rule:evenodd;fill:#8B191C;" d="M41.9,129.7c-0.2-1-0.4-1.6-0.6-2.5
	C42.1,128.5,42.1,128.5,41.9,129.7"/>
<path style="fill-rule:evenodd;clip-rule:evenodd;fill:#8B191C;" d="M58,117.5c0.1,0.4,0.2,0.9,0.2,1.3c0,0-0.2,0-0.3,0
	c-0.1-0.5-0.2-0.9-0.2-1.4C57.8,117.4,57.9,117.5,58,117.5"/>
<path style="fill-rule:evenodd;clip-rule:evenodd;fill:#8B191C;" d="M54.1,87.8c0-0.6-0.1-1.2-0.1-1.8c0.1,0,0.2,0.1,0.3,0.1
	c0,0.6,0.1,1.2,0.1,1.8C54.3,87.9,54.2,87.8,54.1,87.8"/>
<path style="fill-rule:evenodd;clip-rule:evenodd;fill:#8B191C;" d="M44.3,107.7c-0.1-0.4-0.2-0.8-0.3-1.2c0.1,0,0.2,0,0.2,0
	c0.1,0.4,0.2,0.7,0.3,1.1C44.4,107.6,44.4,107.7,44.3,107.7"/>
<path style="fill-rule:evenodd;clip-rule:evenodd;fill:#8B191C;" d="M47.1,96.3c-0.1-0.4-0.2-0.8-0.3-1.3c0.1,0,0.1,0,0.2,0
	c0.1,0.4,0.2,0.8,0.3,1.3C47.3,96.3,47.2,96.3,47.1,96.3"/>
<path style="fill-rule:evenodd;clip-rule:evenodd;fill:#8B191C;" d="M31.6,121.6c-0.1,0.3-0.2,0.4-0.2,0.6c-0.1-0.1-0.2-0.3-0.3-0.4
	c-0.1-0.2,0-0.3,0-0.5C31.2,121.3,31.3,121.4,31.6,121.6"/>
<path style="fill-rule:evenodd;clip-rule:evenodd;fill:#8B191C;" d="M52.5,122c-0.2-0.3-0.4-0.6-0.6-0.8c0-0.1,0.1-0.2,0.1-0.2
	c0.2,0.3,0.4,0.6,0.5,0.9C52.6,121.9,52.5,121.9,52.5,122"/>
<path style="fill-rule:evenodd;clip-rule:evenodd;fill:#8B191C;" d="M49,90.1c0,0.2,0,0.4,0,0.5c-0.1-0.2-0.3-0.3-0.4-0.5
	c0-0.1,0-0.3,0.1-0.4C48.8,89.8,48.9,89.9,49,90.1"/>
<path style="fill-rule:evenodd;clip-rule:evenodd;fill:#8B191C;" d="M43.4,110.3c0-0.3,0-0.7,0-1c0.1,0.3,0.3,0.5,0.3,0.8
	c0,0.1-0.1,0.3-0.1,0.4C43.5,110.5,43.4,110.4,43.4,110.3"/>
<path style="fill-rule:evenodd;clip-rule:evenodd;fill:#8B191C;" d="M97.1,86.7c-0.1,0-0.3-0.1-0.3-0.1c-0.6-0.8-1.3-1.5-1.9-2.3
	c-0.2-0.2-0.4-0.5-0.5-0.5c-0.8-0.4-1-1-1.2-1.7c0.7,0.7,1.5,1.4,2.1,2.2c0.7,0.8,1.3,1.6,2,2.4C97.2,86.6,97.1,86.7,97.1,86.7"/>
<path style="fill-rule:evenodd;clip-rule:evenodd;fill:#8B191C;" d="M121.4,92.4c-0.3-0.4-0.6-0.8-1.1-1.3
	C121.4,91.2,121.6,91.7,121.4,92.4"/>
<path style="fill-rule:evenodd;clip-rule:evenodd;fill:#8B191C;" d="M88.2,88.8c-0.2-0.5-0.3-0.8-0.5-1.2
	C88.7,88.2,88.7,88.2,88.2,88.8"/>
<path style="fill-rule:evenodd;clip-rule:evenodd;fill:#8B191C;" d="M102.4,124.9c0.4,0.5,0.7,0.8,1,1.3
	C102.8,125.8,102.8,125.8,102.4,124.9"/>
<path style="fill-rule:evenodd;clip-rule:evenodd;fill:#8B191C;" d="M129.3,93.7c-0.2-0.3-0.4-0.6-0.6-1c0,0,0.2-0.1,0.2-0.1
	c0.3,0.3,0.5,0.6,0.7,0.9C129.5,93.6,129.4,93.6,129.3,93.7"/>
<path style="fill-rule:evenodd;clip-rule:evenodd;fill:#8B191C;" d="M144.4,109.8c-0.1-0.3-0.3-0.6-0.4-1c0,0,0.2,0,0.3,0
	c0.2,0.3,0.3,0.6,0.5,0.9C144.7,109.8,144.5,109.8,144.4,109.8"/>
<path style="fill-rule:evenodd;clip-rule:evenodd;fill:#8B191C;" d="M139.1,77.8c0.3,0.4,0.6,0.9,1,1.5c-0.9-0.3-1-0.9-1.3-1.3
	C138.9,77.9,139,77.9,139.1,77.8"/>
<path style="fill-rule:evenodd;clip-rule:evenodd;fill:#8B191C;" d="M133.7,98c-0.3-0.2-0.5-0.4-0.6-0.5c0,0,0.1-0.3,0.1-0.2
	c0.1,0,0.3,0.1,0.4,0.3C133.7,97.6,133.7,97.7,133.7,98"/>
<path style="fill-rule:evenodd;clip-rule:evenodd;fill:#8B191C;" d="M140.4,114.3c0.2,0.3,0.4,0.6,0.7,0.9c-0.1,0-0.1,0.1-0.2,0.1
	c-0.2-0.3-0.5-0.6-0.7-0.9C140.3,114.3,140.4,114.3,140.4,114.3"/>
<path style="fill-rule:evenodd;clip-rule:evenodd;fill:#8B191C;" d="M95.5,115.1c-1,1-2,2.1-3.2,3.4C92.6,117.3,92.9,117,95.5,115.1
	"/>
<path style="fill-rule:evenodd;clip-rule:evenodd;fill:#8B191C;" d="M122.8,129.2c-1,0.5-1.7,0.8-2.5,1.1c0.3-0.4,0.6-0.9,0.9-1.1
	C122,128.5,122,128.6,122.8,129.2"/>
<path style="fill-rule:evenodd;clip-rule:evenodd;fill:#8B191C;" d="M88.8,122c-0.7,0.3-1.3,0.6-2.3,1c1.1-1.3,1.8-1.6,2.4-1.5
	C88.9,121.6,88.8,121.8,88.8,122"/>
<path style="fill-rule:evenodd;clip-rule:evenodd;fill:#8B191C;" d="M118.4,127c-0.6,0.4-1.2,0.7-1.8,1.1c0-0.1,0-0.2-0.1-0.3
	c0.6-0.4,1.2-0.9,1.9-1.3C118.4,126.7,118.4,126.9,118.4,127"/>
<path style="fill-rule:evenodd;clip-rule:evenodd;fill:#8B191C;" d="M136.6,108c0.4-0.3,0.8-0.7,1.3-1c0.1,0.1,0.1,0.2,0.1,0.3
	c-0.4,0.3-0.8,0.6-1.3,1C136.6,108.2,136.6,108.1,136.6,108"/>
<path style="fill-rule:evenodd;clip-rule:evenodd;fill:#8B191C;" d="M100.3,132.7c-0.5,0.4-1,0.7-1.5,1.1c0-0.1-0.1-0.2-0.1-0.3
	c0.5-0.4,1-0.8,1.5-1.2C100.2,132.4,100.3,132.5,100.3,132.7"/>
<path style="fill-rule:evenodd;clip-rule:evenodd;fill:#8B191C;" d="M133.8,111c-0.8,0.6-1.4,1-2,1.5
	C132.6,111.4,132.6,111.4,133.8,111"/>
<path style="fill-rule:evenodd;clip-rule:evenodd;fill:#8B191C;" d="M116.3,101c0.4-0.2,0.8-0.5,1.1-0.7c0,0,0.1,0.2,0.1,0.2
	c-0.4,0.3-0.8,0.5-1.2,0.8C116.3,101.2,116.3,101.1,116.3,101"/>
<path style="fill-rule:evenodd;clip-rule:evenodd;fill:#8B191C;" d="M90.5,116.2c-0.5,0.3-1.1,0.5-1.6,0.8c0-0.1,0-0.2,0-0.3
	c0.5-0.3,1.1-0.6,1.6-0.8C90.5,115.9,90.5,116.1,90.5,116.2"/>
<path style="fill-rule:evenodd;clip-rule:evenodd;fill:#8B191C;" d="M112.6,117.4c-0.3,0.3-0.6,0.5-1,0.8c0-0.1-0.1-0.1-0.1-0.2
	c0.3-0.2,0.6-0.5,0.9-0.7C112.5,117.3,112.6,117.4,112.6,117.4"/>
<path style="fill-rule:evenodd;clip-rule:evenodd;fill:#8B191C;" d="M101,119.2c-0.3,0.3-0.7,0.5-1,0.8c0-0.1-0.1-0.1-0.1-0.2
	c0.3-0.3,0.7-0.5,1-0.8C100.9,119.1,101,119.1,101,119.2"/>
<path style="fill-rule:evenodd;clip-rule:evenodd;fill:#8B191C;" d="M130.3,123.7c0.3,0,0.5,0,0.6,0c-0.1,0.1-0.2,0.3-0.3,0.4
	c-0.1,0.1-0.3,0.2-0.5,0.2C130.2,124.2,130.3,124.1,130.3,123.7"/>
<path style="fill-rule:evenodd;clip-rule:evenodd;fill:#8B191C;" d="M122.6,104.3c-0.2,0.3-0.4,0.6-0.5,0.8c-0.1,0-0.2,0-0.3,0
	c0.2-0.3,0.4-0.6,0.6-0.8C122.4,104.3,122.5,104.3,122.6,104.3"/>
<path style="fill-rule:evenodd;clip-rule:evenodd;fill:#8B191C;" d="M94.5,120c0.2-0.1,0.3-0.2,0.5-0.3c-0.1,0.2-0.2,0.4-0.3,0.5
	c-0.1,0.1-0.3,0.1-0.4,0.1C94.4,120.2,94.5,120.1,94.5,120"/>
<path style="fill-rule:evenodd;clip-rule:evenodd;fill:#8B191C;" d="M115.4,117.3c-0.3,0.1-0.6,0.3-0.9,0.4c0.2-0.2,0.4-0.5,0.6-0.6
	c0.1-0.1,0.3-0.1,0.4-0.1C115.5,117,115.4,117.1,115.4,117.3"/>
<path style="fill-rule:evenodd;clip-rule:evenodd;fill:#8B191C;" d="M82.7,54.8c-0.1,0.1-0.2,0.2-0.3,0.2c-1,0-2-0.1-3-0.1
	c-0.3,0-0.6,0-0.7,0c-0.8,0.4-1.4,0.1-2.1-0.2c1-0.1,2-0.2,3-0.2c1,0,2.1,0,3.1,0C82.7,54.6,82.7,54.7,82.7,54.8"/>
<path style="fill-rule:evenodd;clip-rule:evenodd;fill:#8B191C;" d="M103,40.2c-0.5,0-1,0-1.7-0.1C102.1,39.4,102.6,39.6,103,40.2"
	/>
<path style="fill-rule:evenodd;clip-rule:evenodd;fill:#8B191C;" d="M78.4,62.7c-0.5-0.2-0.8-0.3-1.2-0.4
	C78.3,62.1,78.3,62.1,78.4,62.7"/>
<path style="fill-rule:evenodd;clip-rule:evenodd;fill:#8B191C;" d="M114.9,76c0.6,0,1.1,0,1.6,0C115.9,76.3,115.9,76.3,114.9,76"/>
<path style="fill-rule:evenodd;clip-rule:evenodd;fill:#8B191C;" d="M109.2,35.2c-0.4-0.1-0.7-0.1-1.1-0.2c0,0,0.1-0.2,0.1-0.2
	c0.4,0,0.8,0,1.2,0C109.3,34.9,109.2,35,109.2,35.2"/>
<path style="fill-rule:evenodd;clip-rule:evenodd;fill:#8B191C;" d="M131.3,34.5c-0.3-0.1-0.6-0.2-1-0.4c0,0,0.2-0.2,0.2-0.2
	c0.3,0.1,0.7,0.1,1,0.2C131.5,34.2,131.4,34.4,131.3,34.5"/>
<path style="fill-rule:evenodd;clip-rule:evenodd;fill:#8B191C;" d="M103.8,17.3c0.5,0.1,1.1,0.1,1.8,0.2c-0.8,0.5-1.3,0.2-1.9,0.1
	C103.7,17.5,103.8,17.4,103.8,17.3"/>
<path style="fill-rule:evenodd;clip-rule:evenodd;fill:#8B191C;" d="M115.3,34.7c-0.4,0-0.6,0.1-0.8,0.1c0,0-0.1-0.2-0.1-0.3
	c0.1-0.1,0.3-0.1,0.5-0.1C115,34.4,115.1,34.5,115.3,34.7"/>
<path style="fill-rule:evenodd;clip-rule:evenodd;fill:#8B191C;" d="M132,40.3c0.4,0,0.8,0.1,1.1,0.1c0,0.1,0,0.1,0,0.2
	c-0.4,0-0.8,0-1.2-0.1C132,40.5,132,40.4,132,40.3"/>
<path style="fill-rule:evenodd;clip-rule:evenodd;fill:#8B191C;" d="M103,74.7c0.1,1.4,0.3,2.9,0.4,4.6
	C102.8,78.3,102.7,77.9,103,74.7"/>
<path style="fill-rule:evenodd;clip-rule:evenodd;fill:#8B191C;" d="M131.6,63.5c-0.3,1.1-0.5,1.8-0.8,2.6c-0.1-0.6-0.3-1-0.3-1.4
	C130.6,63.6,130.6,63.6,131.6,63.5"/>
<path style="fill-rule:evenodd;clip-rule:evenodd;fill:#8B191C;" d="M103.7,84.3c-0.2,0.7-0.4,1.4-0.8,2.4c-0.3-1.7,0-2.4,0.5-2.9
	C103.5,84,103.6,84.1,103.7,84.3"/>
<path style="fill-rule:evenodd;clip-rule:evenodd;fill:#8B191C;" d="M127.1,65.3c-0.1,0.7-0.3,1.4-0.4,2.1c-0.1-0.1-0.2-0.1-0.3-0.2
	c0.1-0.8,0.2-1.5,0.2-2.3C126.8,65.1,126.9,65.2,127.1,65.3"/>
<path style="fill-rule:evenodd;clip-rule:evenodd;fill:#8B191C;" d="M124.8,39.1c0-0.5,0-1.1,0.1-1.6c0.1,0,0.2,0.1,0.3,0.1
	c0,0.5-0.1,1.1-0.1,1.6C124.9,39.2,124.9,39.2,124.8,39.1"/>
<path style="fill-rule:evenodd;clip-rule:evenodd;fill:#8B191C;" d="M119.4,82.6c-0.1,0.6-0.1,1.2-0.2,1.8c-0.1,0-0.2,0-0.3-0.1
	c0-0.6,0.1-1.3,0.1-1.9C119.1,82.6,119.3,82.6,119.4,82.6"/>
<path style="fill-rule:evenodd;clip-rule:evenodd;fill:#8B191C;" d="M125.2,43.2c-0.1,1-0.2,1.7-0.2,2.5
	C124.7,44.3,124.7,44.3,125.2,43.2"/>
<path style="fill-rule:evenodd;clip-rule:evenodd;fill:#8B191C;" d="M106.1,49.7c0.1-0.4,0.1-0.9,0.2-1.3c0,0,0.2,0,0.3,0.1
	c-0.1,0.5-0.1,0.9-0.2,1.4C106.3,49.8,106.2,49.8,106.1,49.7"/>
<path style="fill-rule:evenodd;clip-rule:evenodd;fill:#8B191C;" d="M100.5,79.2c-0.2,0.6-0.3,1.1-0.5,1.7c-0.1-0.1-0.1-0.1-0.2-0.2
	c0.1-0.6,0.3-1.2,0.4-1.7C100.3,79,100.4,79.1,100.5,79.2"/>
<path style="fill-rule:evenodd;clip-rule:evenodd;fill:#8B191C;" d="M116,63.3c0,0.4,0,0.8-0.1,1.2c-0.1,0-0.2,0-0.2,0
	c0-0.4,0-0.8,0-1.2C115.9,63.3,116,63.3,116,63.3"/>
<path style="fill-rule:evenodd;clip-rule:evenodd;fill:#8B191C;" d="M109.7,73.2c0,0.4-0.1,0.9-0.1,1.3c-0.1,0-0.1,0-0.2-0.1
	c0-0.4,0-0.9,0.1-1.3C109.6,73.2,109.7,73.2,109.7,73.2"/>
<path style="fill-rule:evenodd;clip-rule:evenodd;fill:#8B191C;" d="M132.5,54.2c0.2-0.2,0.3-0.4,0.4-0.5c0,0.2,0.1,0.3,0.1,0.5
	c0,0.2-0.1,0.3-0.1,0.5C132.8,54.6,132.7,54.4,132.5,54.2"/>
<path style="fill-rule:evenodd;clip-rule:evenodd;fill:#8B191C;" d="M112.7,47.2c0.1,0.3,0.2,0.6,0.3,1c-0.1,0.1-0.1,0.1-0.2,0.2
	c-0.1-0.3-0.2-0.7-0.2-1C112.6,47.3,112.7,47.2,112.7,47.2"/>
<path style="fill-rule:evenodd;clip-rule:evenodd;fill:#8B191C;" d="M106,78.6c0-0.2,0.1-0.4,0.1-0.5c0.1,0.2,0.2,0.4,0.2,0.6
	c0,0.1-0.1,0.3-0.2,0.4C106.1,78.9,106.1,78.7,106,78.6"/>
<path style="fill-rule:evenodd;clip-rule:evenodd;fill:#8B191C;" d="M117.8,61.1c-0.1,0.3-0.2,0.6-0.3,1c0-0.3-0.1-0.6-0.1-0.9
	c0-0.1,0.1-0.3,0.2-0.4C117.6,60.9,117.7,61,117.8,61.1"/>
<path style="fill:#FFFFFF;" d="M41.8,61.3l62.7,1.2l-0.8,20.8l-6.9,56.9l-10,5.4L52.2,142l-6.9-31.2c0,0,1.2-34.2,0.4-35.8
	c-0.8-1.5-4.2-15.4-4.2-15.4L41.8,61.3z"/>
<path style="fill:#8B191C;" d="M105.5,57.7c-1.8-0.1-4.4-0.1-7.5-0.1c-12.3-0.2-32.9-0.2-45.2,0c-3.1,0-5.7,0.1-7.5,0.1
	c-2.9,0.1-6.8,0.2-6.8,4.3c0,0.4,0,0.7,0,1c0,0.3-0.1,0.5-0.1,0.9c0,2.2,0.4,3.9,1.2,5c0,1.4,0,2.8,0.1,3.4c0,1.6,0.7,3.3,2.1,4.4
	c0,2.4,0,5.9,0.1,9.8c0.1,8,0.1,17.3,0.1,19.4c0,10.6,3,18.7,5.5,25.2c0.5,1.4,1.1,2.8,1.5,4.1c0.4,1.1,0.5,2,0.6,2.7
	c-0.8,0.8-1.2,1.8-1.2,3v0.8c0,0.1,0,0.2,0,0.3c-0.1,0.3-0.1,0.6-0.1,0.8v0.8c0,2.3,1.9,4.1,4.1,4.1h45.8c2.2,0,4-1.8,4.1-4
	c0.1-0.5,0.1-1.1,0-1.6c0-0.1,0-0.2,0-0.3c0.3-1.3-0.1-2.8-1.1-3.8c0-0.1-0.1-0.2-0.1-0.4c0.1-0.6,0.3-1.4,0.6-2.2
	c0.5-1.4,1-2.8,1.6-4.3c2.4-6.5,5.5-14.6,5.5-25.2c0,0,0-0.1,0-0.2c0-0.6,0.1-1.1,0.1-1.7c0-2.1,0.1-11.3,0.1-19.4
	c0-2.9,0-5.7,0.1-7.9c1.4-1.1,2-2.6,2-4.1c0-0.5,0.1-1.3,0.1-2.2c0-0.4,0-0.9,0.1-1.5c0.8-1.2,1.2-2.8,1.2-5c0-0.1,0-0.2,0-0.2
	c0.1-0.5,0.1-1.1,0.1-1.6C112.4,57.9,108.4,57.8,105.5,57.7 M100.7,73.9c0,1,0,6.4-0.1,12.6c-0.1,7.9-0.1,16.8-0.1,19.2
	c-0.3,8.3-2.7,14.8-4.9,20.6c-0.6,1.6-1.2,3.1-1.6,4.5c-0.8,2.4-1.2,4.6-1.1,6.6v0H57.9c0.1-2-0.3-4.3-1.1-6.8
	c-0.5-1.4-1-2.9-1.6-4.4c-2.3-6.2-4.9-13.2-4.9-22.3c0-2.1-0.1-11.4-0.1-19.4c0-6.2-0.1-11.7-0.1-12.6c0-1.5-0.9-2.8-2.1-3.6
	c0-0.2,0-0.4,0-0.7c12-0.2,42.9-0.2,54.9,0c0,0.2,0,0.4,0,0.6c-1.2,0.7-2.1,2.1-2.1,3.6c0,0.2,0,0.8,0,1.5
	C100.7,73.6,100.7,73.8,100.7,73.9"/>
<path style="fill:#8B191C;" d="M66.4,51.8c0.6,0.4,1.5,0.9,2.1,0.7c0.8-0.2,1.7-0.9,2.1-1.6c0.5-1,0.1-2-0.8-2.8
	c-3.1-2.8-3.3-4.8-0.8-8.2c0.5-0.7,1.2-1.3,1.8-2c2.1-2.4,3.5-5.1,3.5-8.4c0-3.7-1.5-6.9-4-9.5c-0.6-0.6-2-0.9-2.8-0.7
	c-0.7,0.2-1.5,1.2-1.6,2c-0.1,0.8,0.5,1.8,1.1,2.5c3,3.6,3.1,7.3,0.1,10.9c-0.5,0.6-1.1,1.2-1.6,1.8C60.8,41.5,61.2,47.8,66.4,51.8"
	/>
<path style="fill:#8B191C;" d="M76.6,52.1c1.2,0.9,2.6,0.6,3.5-0.5c0.8-1,0.6-2.4-0.4-3.4c-0.4-0.4-0.9-0.8-1.3-1.2
	c-1.5-1.7-1.8-3.6-0.7-5.5c0.6-1.1,1.5-2,2.3-3c0.8-1.1,0.9-2.3-0.1-3.3c-0.9-1-2.3-1.2-3.3-0.3c-2.6,2.4-4.4,5.2-4.6,8.6
	C72.2,47.3,73.8,50.1,76.6,52.1"/>
<path style="fill:#8B191C;" d="M87.9,89.2c-3.8,0-7.7,0-11.8,0c0-5,0-9.8,0-14.5c0-0.8-0.6-1.7-0.9-2.5c-0.6,0.6-1.5,1.2-1.8,1.9
	c-4.1,9.3-8.1,18.6-12.2,27.8c-2.4,5.3-1.9,5,3.4,4.9c3,0,6.1,0,9.3,0c0,5.3,0,10.2,0,15.1c0,0.7,0.6,1.3,0.9,2
	c0.6-0.5,1.4-0.9,1.7-1.5c4.5-10.2,8.9-20.4,13.3-30.5C90.7,89.8,90.3,89.2,87.9,89.2"/>
<path style="fill:#8B191C;" d="M116,2.5c-2-0.7-5.4-3.9-6.1-1.9l-2.3,12.2L91.9,55.3h8.4l14.4-39.2l7.5-10.7
	C122.9,3.3,118,3.3,116,2.5"/>
</svg>
