<?xml version="1.0" encoding="utf-8"?>
<!-- Generator: Adobe Illustrator 16.0.0, SVG Export Plug-In . SVG Version: 6.00 Build 0)  -->
<!DOCTYPE svg PUBLIC "-//W3C//DTD SVG 1.1//EN" "http://www.w3.org/Graphics/SVG/1.1/DTD/svg11.dtd">
<svg version="1.1" id="Layer_1" xmlns="http://www.w3.org/2000/svg" xmlns:xlink="http://www.w3.org/1999/xlink" x="0px" y="0px"
	 width="143.2px" height="162.4px" viewBox="0 0 143.2 162.4" style="enable-background:new 0 0 143.2 162.4;" xml:space="preserve"
	>
<path style="fill:#FBEC06;" d="M137,66.6c0,5.3-0.6,10.4-1.8,15.3c-1.2,5.1-2.8,5.1-5,14c-2.2,3.4-4.8,8.2-7.9,12.4
	c-3.1,2.1-6.5,10.1-10.3,10.3c-3.8,4.5-7.9,5.4-12.4,7.9c-2.2,1.1-4.5,2-6.8,2.9c-2.4,1.1-4.1,2.2-7.2,2.1c-2.5,1.7-5,0.9-7.5,1.3
	c-2.5-1.1-5.1,2.1-7.8,0.4c-5.3,0.3-10.4-1.8-15.3-1.8c-4.9-2.6-9.6-5.8-14-5c-4.4-1.6-8.6-6.2-12.4-7.9c-3.8-3.1-7.3-6.5-10.3-10.3
	c-6.1-7.6-10.6-16.6-12.9-26.4C4.3,77,3.7,71.7,3.7,66.6c0-7.8,0.3-11.8,1.8-15.3c1.9-4.6,2.8-9,5-14c2.2-6.1,4.8-7.1,7.9-12.4
	c3.1-0.8,6.5-5.2,10.3-10.3c3.8-3.1,8-5.7,12.4-7.9C49.9,2.4,59.8,0,70.3,0c5.3,0,10.4,0.6,15.3,1.8c4.9,0.9,9.6,1.4,14,5
	c4.4,3.7,8.6,4.7,12.4,7.9c3.8,5.1,7.3,7.8,10.3,10.3c3.1,3.4,5.7,5.5,7.9,12.4c2.2,5.8,3.9,9.1,5,14C136.4,56.3,137,61.4,137,66.6"
	/>
<path style="fill:#FFFFFF;" d="M71.2,20c0,0,40.8,25.3,46.4,25.5c0,0,2.9,1.5,2.9,2.6s-2.6,62-21.4,72.5c-18.8,10.6-28.5,17-28.5,17
	L65,119.3L71.2,20z"/>
<path style="fill:#8B191C;" d="M121.4,38.8c-8.4-1.5-16.4-4.3-23.7-8c-8.1-4.2-15.7-9.3-22.4-15.3c-0.9-0.8-2.1-1.2-3.2-1.2
	c-1.1,0-2.3,0.4-3.2,1.2c-6.7,5.9-14.2,11.1-22.4,15.3c-7.4,3.6-15.3,6.4-23.7,8c-2.4,0.3-4.2,2.4-4.2,4.8
	c0,25.1,3.3,44.4,11.4,60.6c8.1,16.3,20.8,29.1,39.5,40.8c0.8,0.6,1.8,0.8,2.7,0.8c0.9,0,1.9-0.3,2.7-0.8
	c18.7-11.7,31.4-24.5,39.5-40.8c8.1-16.2,11.4-35.5,11.4-60.6C125.6,41.2,123.7,39.1,121.4,38.8 M105.5,99.9
	c-6.9,13.8-17.6,25-33.5,35.3V25.6c6.4,5.3,13.6,10.1,21.3,13.9c7,3.6,14.6,6.4,22.5,8.1C115.5,69.3,112.5,86.1,105.5,99.9"/>
<path style="fill-rule:evenodd;clip-rule:evenodd;fill:#8B191C;" d="M64.8,104c0-0.1,0-0.3,0.1-0.4c0.7-0.9,1.4-1.8,2-2.7
	c0.2-0.2,0.4-0.5,0.5-0.7c0.2-1,0.9-1.4,1.6-1.8c-0.6,1-1.2,2-1.8,2.9c-0.7,1-1.4,1.9-2.1,2.8C64.9,104.1,64.9,104.1,64.8,104"/>
<path style="fill-rule:evenodd;clip-rule:evenodd;fill:#8B191C;" d="M64.7,132.3c0.3-0.4,0.7-0.9,1.2-1.5
	C66.1,131.9,65.6,132.3,64.7,132.3"/>
<path style="fill-rule:evenodd;clip-rule:evenodd;fill:#8B191C;" d="M60.3,94.8c0.5-0.4,0.8-0.6,1.2-0.8C61,95.2,61,95.2,60.3,94.8"
	/>
<path style="fill-rule:evenodd;clip-rule:evenodd;fill:#8B191C;" d="M24.1,119.6c-0.4,0.6-0.7,0.9-1.1,1.5
	C23.2,120.3,23.2,120.3,24.1,119.6"/>
<path style="fill-rule:evenodd;clip-rule:evenodd;fill:#8B191C;" d="M65.3,141.3c0.3-0.3,0.6-0.6,0.9-0.9c0,0,0.1,0.2,0.1,0.2
	c-0.3,0.4-0.5,0.7-0.8,1C65.5,141.5,65.4,141.4,65.3,141.3"/>
<path style="fill-rule:evenodd;clip-rule:evenodd;fill:#8B191C;" d="M51.3,162c0.3-0.2,0.6-0.4,1-0.6c0,0,0.1,0.3,0.1,0.3
	c-0.3,0.3-0.6,0.5-0.9,0.8C51.5,162.3,51.4,162.2,51.3,162"/>
<path style="fill-rule:evenodd;clip-rule:evenodd;fill:#8B191C;" d="M85.3,148.1c-0.4,0.4-0.8,0.9-1.4,1.5c0.1-1.1,0.7-1.3,1.1-1.8
	C85.1,147.9,85.2,148,85.3,148.1"/>
<path style="fill-rule:evenodd;clip-rule:evenodd;fill:#8B191C;" d="M61.7,147.2c0.2-0.4,0.3-0.6,0.5-0.8c0,0,0.3,0,0.3,0.1
	c0,0.1-0.1,0.4-0.2,0.5C62.2,147.1,62,147.1,61.7,147.2"/>
<path style="fill-rule:evenodd;clip-rule:evenodd;fill:#8B191C;" d="M45.5,158.8c-0.3,0.3-0.6,0.6-0.9,1c0-0.1-0.1-0.1-0.1-0.2
	c0.3-0.3,0.5-0.7,0.8-1C45.4,158.6,45.4,158.7,45.5,158.8"/>
<path style="fill-rule:evenodd;clip-rule:evenodd;fill:#8B191C;" d="M33.1,109.5c-1.4-0.8-2.9-1.7-4.5-2.7
	C30,106.8,30.4,107.1,33.1,109.5"/>
<path style="fill-rule:evenodd;clip-rule:evenodd;fill:#8B191C;" d="M24.6,143.1c-0.8-1-1.3-1.6-1.9-2.5c0.6,0.3,1.1,0.4,1.5,0.7
	C25.1,142.1,25.1,142.1,24.6,143.1"/>
<path style="fill-rule:evenodd;clip-rule:evenodd;fill:#8B191C;" d="M23.9,103.8c-0.5-0.7-1-1.3-1.7-2.3c1.7,0.9,2.2,1.6,2.3,2.3
	C24.3,103.8,24.1,103.8,23.9,103.8"/>
<path style="fill-rule:evenodd;clip-rule:evenodd;fill:#8B191C;" d="M25.8,137.7c-0.6-0.6-1.1-1.2-1.7-1.7c0.1,0,0.2-0.1,0.3-0.1
	c0.6,0.6,1.3,1.1,1.9,1.7C26.2,137.6,26,137.7,25.8,137.7"/>
<path style="fill-rule:evenodd;clip-rule:evenodd;fill:#8B191C;" d="M51.4,152.9c0.5,0.4,1,0.8,1.4,1.1c-0.1,0.1-0.2,0.2-0.3,0.2
	c-0.5-0.4-0.9-0.8-1.4-1.2C51.2,153.1,51.3,153,51.4,152.9"/>
<path style="fill-rule:evenodd;clip-rule:evenodd;fill:#8B191C;" d="M15,119.2c-0.5-0.5-1-0.9-1.6-1.4c0.1-0.1,0.2-0.1,0.2-0.2
	c0.6,0.4,1.1,0.9,1.7,1.3C15.3,119.1,15.2,119.2,15,119.2"/>
<path style="fill-rule:evenodd;clip-rule:evenodd;fill:#8B191C;" d="M47.4,150.7c-0.9-0.8-1.4-1.2-2.2-1.9
	C46.7,149.5,46.7,149.5,47.4,150.7"/>
<path style="fill-rule:evenodd;clip-rule:evenodd;fill:#8B191C;" d="M54,128.8c0.4,0.4,0.7,0.7,1.1,1.1c0,0-0.2,0.1-0.2,0.2
	c-0.4-0.4-0.8-0.8-1.1-1.1C53.8,128.9,53.9,128.9,54,128.8"/>
<path style="fill-rule:evenodd;clip-rule:evenodd;fill:#8B191C;" d="M30.7,104.2c-0.4-0.5-0.8-1-1.3-1.5c0.1,0,0.2,0,0.3,0
	c0.4,0.5,0.9,1,1.3,1.5C31,104.2,30.8,104.2,30.7,104.2"/>
<path style="fill-rule:evenodd;clip-rule:evenodd;fill:#8B191C;" d="M35,129c-0.4-0.3-0.7-0.6-1.1-0.9c0.1-0.1,0.1-0.1,0.2-0.2
	c0.3,0.3,0.7,0.5,1,0.8C35.1,128.8,35,128.9,35,129"/>
<path style="fill-rule:evenodd;clip-rule:evenodd;fill:#8B191C;" d="M30,116.6c-0.4-0.3-0.7-0.6-1.1-0.9c0.1,0,0.1-0.1,0.2-0.1
	c0.4,0.3,0.8,0.6,1.1,0.9C30.2,116.5,30.1,116.6,30,116.6"/>
<path style="fill-rule:evenodd;clip-rule:evenodd;fill:#8B191C;" d="M32.5,150.1c0.1,0.3,0.1,0.5,0.2,0.7c-0.2-0.1-0.4-0.1-0.5-0.2
	c-0.2-0.1-0.3-0.3-0.4-0.4C31.9,150.1,32.1,150.1,32.5,150.1"/>
<path style="fill-rule:evenodd;clip-rule:evenodd;fill:#8B191C;" d="M51.9,136.6c-0.4-0.1-0.7-0.3-1.1-0.4c0-0.1,0-0.2-0.1-0.3
	c0.4,0.1,0.7,0.3,1.1,0.4C51.9,136.4,51.9,136.5,51.9,136.6"/>
<path style="fill-rule:evenodd;clip-rule:evenodd;fill:#8B191C;" d="M27.6,109.7c0.1,0.2,0.3,0.3,0.4,0.5c-0.2-0.1-0.5-0.1-0.7-0.2
	c-0.1-0.1-0.2-0.3-0.2-0.4C27.2,109.6,27.4,109.6,27.6,109.7"/>
<path style="fill-rule:evenodd;clip-rule:evenodd;fill:#8B191C;" d="M35.8,132c-0.2-0.3-0.5-0.6-0.7-0.9c0.3,0.2,0.6,0.3,0.8,0.5
	c0.1,0.1,0.1,0.3,0.2,0.4C36.1,132,36,132,35.8,132"/>
<path style="fill-rule:evenodd;clip-rule:evenodd;fill:#8B191C;" d="M96.3,80.1c-0.1-0.1-0.2-0.2-0.3-0.3c-0.2-1.1-0.4-2.2-0.7-3.3
	c-0.1-0.3-0.1-0.6-0.2-0.8c-0.6-0.8-0.5-1.5-0.3-2.4c0.3,1.1,0.7,2.2,1,3.3c0.3,1.1,0.5,2.3,0.7,3.4C96.5,80.1,96.4,80.1,96.3,80.1"
	/>
<path style="fill-rule:evenodd;clip-rule:evenodd;fill:#8B191C;" d="M117.6,98.8c-0.1-0.5-0.2-1.1-0.4-1.9
	C118.2,97.6,118.1,98.2,117.6,98.8"/>
<path style="fill-rule:evenodd;clip-rule:evenodd;fill:#8B191C;" d="M86.5,77.4c0.1-0.6,0.1-1,0.2-1.5
	C87.2,77.1,87.2,77.1,86.5,77.4"/>
<path style="fill-rule:evenodd;clip-rule:evenodd;fill:#8B191C;" d="M81.2,121c0.1,0.7,0.2,1.2,0.4,1.8
	C81.1,122.1,81.1,122.1,81.2,121"/>
<path style="fill-rule:evenodd;clip-rule:evenodd;fill:#8B191C;" d="M124.7,104.3c0-0.4,0-0.8,0-1.3c0,0,0.2,0,0.2,0
	c0.1,0.4,0.2,0.9,0.2,1.3C125,104.4,124.8,104.3,124.7,104.3"/>
<path style="fill-rule:evenodd;clip-rule:evenodd;fill:#8B191C;" d="M131.1,128.5c0-0.4,0.1-0.8,0.1-1.1c0,0,0.3,0.1,0.3,0.1
	c0,0.4,0,0.8,0,1.2C131.3,128.6,131.2,128.6,131.1,128.5"/>
<path style="fill-rule:evenodd;clip-rule:evenodd;fill:#8B191C;" d="M143,93.8c0.1,0.6,0.1,1.2,0.2,2c-0.8-0.8-0.5-1.4-0.6-2
	C142.7,93.8,142.9,93.8,143,93.8"/>
<path style="fill-rule:evenodd;clip-rule:evenodd;fill:#8B191C;" d="M126.8,111c-0.1-0.4-0.3-0.6-0.3-0.9c0,0,0.2-0.2,0.3-0.2
	c0.1,0.1,0.2,0.3,0.2,0.5C127,110.6,126.9,110.7,126.8,111"/>
<path style="fill-rule:evenodd;clip-rule:evenodd;fill:#8B191C;" d="M124.8,130.8c0,0.4,0.1,0.8,0.2,1.3c-0.1,0-0.1,0-0.2,0
	c-0.1-0.4-0.2-0.9-0.2-1.3C124.6,130.8,124.7,130.8,124.8,130.8"/>
<path style="fill-rule:evenodd;clip-rule:evenodd;fill:#8B191C;" d="M79.5,107.5c-1.5,0.5-3.2,1.1-5,1.7
	C75.5,108.2,75.9,108,79.5,107.5"/>
<path style="fill-rule:evenodd;clip-rule:evenodd;fill:#8B191C;" d="M99.2,136.1c-1.2-0.1-2.1-0.1-3.1-0.2c0.6-0.3,1.1-0.6,1.5-0.6
	C98.8,135.1,98.8,135.1,99.2,136.1"/>
<path style="fill-rule:evenodd;clip-rule:evenodd;fill:#8B191C;" d="M69.2,110.8c-0.8-0.1-1.6-0.1-2.9-0.2c1.8-0.7,2.6-0.6,3.3-0.2
	C69.5,110.5,69.3,110.6,69.2,110.8"/>
<path style="fill-rule:evenodd;clip-rule:evenodd;fill:#8B191C;" d="M96,131.7c-0.8,0-1.6,0.1-2.4,0.1c0-0.1,0.1-0.2,0.1-0.3
	c0.9-0.1,1.7-0.2,2.6-0.3C96.1,131.3,96.1,131.5,96,131.7"/>
<path style="fill-rule:evenodd;clip-rule:evenodd;fill:#8B191C;" d="M124.2,122.5c0.6-0.1,1.2-0.2,1.8-0.3c0,0.1,0,0.2,0,0.4
	c-0.6,0.1-1.2,0.2-1.8,0.3C124.2,122.7,124.2,122.6,124.2,122.5"/>
<path style="fill-rule:evenodd;clip-rule:evenodd;fill:#8B191C;" d="M75,127.6c-0.7,0.1-1.4,0.2-2.1,0.3c0-0.1,0-0.2,0-0.3
	c0.7-0.1,1.4-0.2,2.1-0.4C75,127.3,75,127.4,75,127.6"/>
<path style="fill-rule:evenodd;clip-rule:evenodd;fill:#8B191C;" d="M119.9,124c-1.2,0.2-1.9,0.3-2.8,0.4
	C118.6,123.7,118.6,123.7,119.9,124"/>
<path style="fill-rule:evenodd;clip-rule:evenodd;fill:#8B191C;" d="M107.8,104.6c0.5,0,1-0.1,1.5-0.1c0,0,0,0.2,0,0.3
	c-0.5,0-1.1,0.1-1.6,0.1C107.8,104.8,107.8,104.7,107.8,104.6"/>
<path style="fill-rule:evenodd;clip-rule:evenodd;fill:#8B191C;" d="M74,105.9c-0.7,0-1.3-0.1-2-0.1c0.1-0.1,0.1-0.2,0.2-0.3
	c0.7,0,1.3,0,2,0C74.2,105.7,74.1,105.8,74,105.9"/>
<path style="fill-rule:evenodd;clip-rule:evenodd;fill:#8B191C;" d="M95.4,119c-0.5,0.1-0.9,0.2-1.4,0.2c0-0.1,0-0.2,0-0.3
	c0.4-0.1,0.9-0.2,1.3-0.2C95.3,118.8,95.4,118.9,95.4,119"/>
<path style="fill-rule:evenodd;clip-rule:evenodd;fill:#8B191C;" d="M82.9,114.6c-0.5,0.1-1,0.1-1.4,0.2c0-0.1,0-0.1,0-0.2
	c0.5-0.1,1-0.2,1.4-0.3C82.9,114.4,82.9,114.5,82.9,114.6"/>
<path style="fill-rule:evenodd;clip-rule:evenodd;fill:#8B191C;" d="M109.6,134.8c0.3,0.2,0.5,0.2,0.6,0.3c-0.2,0.1-0.3,0.2-0.5,0.3
	c-0.2,0-0.4,0-0.6,0C109.3,135.2,109.4,135.1,109.6,134.8"/>
<path style="fill-rule:evenodd;clip-rule:evenodd;fill:#8B191C;" d="M112.3,111.3c-0.3,0.2-0.7,0.4-1,0.5c-0.1,0-0.2-0.1-0.3-0.1
	c0.3-0.2,0.7-0.3,1-0.5C112.2,111.2,112.3,111.2,112.3,111.3"/>
<path style="fill-rule:evenodd;clip-rule:evenodd;fill:#8B191C;" d="M76,111.8c0.2,0,0.4,0,0.6,0c-0.2,0.1-0.4,0.3-0.6,0.4
	c-0.1,0-0.3-0.1-0.5-0.1C75.7,112,75.9,111.9,76,111.8"/>
<path style="fill-rule:evenodd;clip-rule:evenodd;fill:#8B191C;" d="M98.2,120.3c-0.4,0-0.8-0.1-1.1-0.1c0.3-0.1,0.6-0.2,1-0.3
	c0.2,0,0.3,0.1,0.5,0.1C98.4,120.2,98.3,120.2,98.2,120.3"/>
<path style="fill-rule:evenodd;clip-rule:evenodd;fill:#8B191C;" d="M77.4,57.4c-0.1,0.1-0.1,0.3-0.2,0.4c-0.9,0.6-1.8,1.3-2.8,1.9
	c-0.2,0.2-0.5,0.4-0.7,0.5c-0.5,0.9-1.2,1-2.1,1.2c0.9-0.7,1.8-1.5,2.7-2.2c0.9-0.7,1.9-1.3,2.9-2C77.3,57.3,77.4,57.3,77.4,57.4"/>
<path style="fill-rule:evenodd;clip-rule:evenodd;fill:#8B191C;" d="M86.4,30.6c-0.5,0.3-0.9,0.6-1.6,1.1
	C85,30.5,85.6,30.3,86.4,30.6"/>
<path style="fill-rule:evenodd;clip-rule:evenodd;fill:#8B191C;" d="M78.8,67.5c-0.6,0.2-1,0.3-1.4,0.4C78.2,67,78.2,67,78.8,67.5"
	/>
<path style="fill-rule:evenodd;clip-rule:evenodd;fill:#8B191C;" d="M121,55.4c0.6-0.4,1-0.7,1.5-1C122,55.1,122,55.1,121,55.4"/>
<path style="fill-rule:evenodd;clip-rule:evenodd;fill:#8B191C;" d="M88.7,21.9c-0.4,0.2-0.8,0.4-1.1,0.5c0,0-0.1-0.2-0.1-0.2
	c0.4-0.3,0.7-0.5,1.1-0.7C88.6,21.6,88.6,21.7,88.7,21.9"/>
<path style="fill-rule:evenodd;clip-rule:evenodd;fill:#8B191C;" d="M108.5,6.6c-0.4,0.1-0.7,0.2-1.1,0.3c0,0,0-0.3,0-0.3
	c0.4-0.2,0.7-0.3,1.1-0.5C108.5,6.3,108.5,6.5,108.5,6.6"/>
<path style="fill-rule:evenodd;clip-rule:evenodd;fill:#8B191C;" d="M71.9,9.1c0.5-0.3,1.1-0.6,1.8-1c-0.4,1-1.1,1-1.6,1.3
	C72,9.3,71.9,9.2,71.9,9.1"/>
<path style="fill-rule:evenodd;clip-rule:evenodd;fill:#8B191C;" d="M94,17.4c-0.3,0.3-0.5,0.5-0.7,0.6c0,0-0.3-0.1-0.3-0.2
	c0-0.1,0.2-0.3,0.3-0.4C93.5,17.3,93.7,17.4,94,17.4"/>
<path style="fill-rule:evenodd;clip-rule:evenodd;fill:#8B191C;" d="M113,11.5c0.4-0.2,0.7-0.4,1.1-0.6c0,0.1,0.1,0.1,0.1,0.2
	c-0.4,0.2-0.7,0.5-1.1,0.7C113.1,11.7,113,11.6,113,11.5"/>
<path style="fill-rule:evenodd;clip-rule:evenodd;fill:#8B191C;" d="M109.2,62.2c1,1.2,2.2,2.5,3.5,4
	C111.4,65.7,111.1,65.3,109.2,62.2"/>
<path style="fill-rule:evenodd;clip-rule:evenodd;fill:#8B191C;" d="M127.9,33c0.4,1.2,0.7,2,1,2.9c-0.5-0.4-0.9-0.8-1.2-1.2
	C127.1,33.8,127.1,33.8,127.9,33"/>
<path style="fill-rule:evenodd;clip-rule:evenodd;fill:#8B191C;" d="M116.2,70.5c0.3,0.8,0.5,1.6,0.9,2.7c-1.4-1.4-1.6-2.2-1.5-2.9
	C115.8,70.3,116,70.4,116.2,70.5"/>
<path style="fill-rule:evenodd;clip-rule:evenodd;fill:#8B191C;" d="M125,37.7c0.4,0.7,0.7,1.5,1.1,2.2c-0.1,0-0.2,0-0.3,0
	c-0.4-0.7-0.9-1.5-1.3-2.2C124.6,37.7,124.8,37.7,125,37.7"/>
<path style="fill-rule:evenodd;clip-rule:evenodd;fill:#8B191C;" d="M105.6,15.2c-0.3-0.5-0.7-1-1-1.5c0.1,0,0.2-0.1,0.4-0.1
	c0.3,0.5,0.6,1,1,1.5C105.8,15.1,105.7,15.2,105.6,15.2"/>
<path style="fill-rule:evenodd;clip-rule:evenodd;fill:#8B191C;" d="M129.4,58.6c0.4,0.6,0.7,1.2,1.1,1.8c-0.1,0-0.2,0.1-0.3,0.1
	c-0.4-0.6-0.8-1.2-1.2-1.8C129.2,58.7,129.3,58.7,129.4,58.6"/>
<path style="fill-rule:evenodd;clip-rule:evenodd;fill:#8B191C;" d="M108.6,18.6c0.6,1,1,1.6,1.5,2.5C108.9,20,108.9,20,108.6,18.6"
	/>
<path style="fill-rule:evenodd;clip-rule:evenodd;fill:#8B191C;" d="M95.5,37.3c-0.2-0.5-0.5-0.9-0.7-1.3c0,0,0.2-0.1,0.3-0.1
	c0.2,0.5,0.5,1,0.7,1.4C95.7,37.3,95.6,37.3,95.5,37.3"/>
<path style="fill-rule:evenodd;clip-rule:evenodd;fill:#8B191C;" d="M109.8,68c0.2,0.6,0.5,1.2,0.7,1.9c-0.1,0-0.2,0-0.3-0.1
	c-0.3-0.6-0.5-1.2-0.8-1.9C109.6,67.9,109.7,67.9,109.8,68"/>
<path style="fill-rule:evenodd;clip-rule:evenodd;fill:#8B191C;" d="M113.6,43.1c0.3,0.4,0.5,0.8,0.8,1.2c-0.1,0-0.2,0.1-0.2,0.1
	c-0.2-0.4-0.5-0.7-0.7-1.1C113.4,43.3,113.5,43.2,113.6,43.1"/>
<path style="fill-rule:evenodd;clip-rule:evenodd;fill:#8B191C;" d="M114.4,56.4c0.2,0.4,0.5,0.8,0.8,1.2c-0.1,0-0.1,0.1-0.2,0.1
	c-0.3-0.4-0.5-0.8-0.8-1.2C114.2,56.5,114.3,56.4,114.4,56.4"/>
<path style="fill-rule:evenodd;clip-rule:evenodd;fill:#8B191C;" d="M122.6,23.9c0-0.3,0-0.5,0.1-0.7c0.2,0.1,0.3,0.2,0.4,0.4
	c0.1,0.2,0.1,0.4,0.2,0.5C123.1,24,122.9,24,122.6,23.9"/>
<path style="fill-rule:evenodd;clip-rule:evenodd;fill:#8B191C;" d="M99.9,30.6c0.3,0.2,0.6,0.5,0.9,0.7c0,0.1,0,0.2,0,0.3
	c-0.3-0.3-0.6-0.5-0.9-0.8C99.9,30.7,99.9,30.6,99.9,30.6"/>
<path style="fill-rule:evenodd;clip-rule:evenodd;fill:#8B191C;" d="M114.5,63.8c-0.1-0.2-0.2-0.4-0.2-0.6c0.2,0.1,0.4,0.2,0.6,0.4
	c0.1,0.1,0.1,0.3,0.1,0.5C114.8,64,114.7,63.9,114.5,63.8"/>
<path style="fill-rule:evenodd;clip-rule:evenodd;fill:#8B191C;" d="M113.7,40c0.1,0.4,0.2,0.7,0.4,1.1c-0.2-0.3-0.5-0.5-0.6-0.8
	c-0.1-0.1,0-0.3-0.1-0.5C113.5,39.9,113.6,40,113.7,40"/>
<path style="fill-rule:evenodd;clip-rule:evenodd;fill:#8B191C;" d="M39.9,70.1c0.1,0.1,0.2,0.3,0.2,0.4c-0.1,1.1-0.3,2.2-0.4,3.3
	c0,0.3-0.1,0.6,0,0.8c0.3,0.9,0,1.6-0.5,2.3c0-1.1,0-2.3,0.1-3.4c0.1-1.2,0.3-2.3,0.4-3.5C39.8,70.1,39.9,70.1,39.9,70.1"/>
<path style="fill-rule:evenodd;clip-rule:evenodd;fill:#8B191C;" d="M25.7,45.7c-0.1,0.6-0.1,1.1-0.3,1.9
	C24.7,46.7,25,46.1,25.7,45.7"/>
<path style="fill-rule:evenodd;clip-rule:evenodd;fill:#8B191C;" d="M48.4,75.8c-0.3,0.6-0.4,0.9-0.6,1.3
	C47.7,75.9,47.7,75.9,48.4,75.8"/>
<path style="fill-rule:evenodd;clip-rule:evenodd;fill:#8B191C;" d="M67.2,36.1c0.1-0.7,0.1-1.2,0.2-1.8
	C67.7,35.1,67.7,35.1,67.2,36.1"/>
<path style="fill-rule:evenodd;clip-rule:evenodd;fill:#8B191C;" d="M20.7,38.2c-0.1,0.4-0.2,0.8-0.3,1.2c0,0-0.2-0.1-0.2-0.1
	c0.1-0.4,0.1-0.9,0.2-1.3C20.4,38.1,20.5,38.2,20.7,38.2"/>
<path style="fill-rule:evenodd;clip-rule:evenodd;fill:#8B191C;" d="M22.3,13.3c-0.2,0.4-0.3,0.7-0.5,1c0,0-0.2-0.2-0.2-0.2
	c0.1-0.4,0.2-0.7,0.3-1.1C22,13.1,22.1,13.2,22.3,13.3"/>
<path style="fill-rule:evenodd;clip-rule:evenodd;fill:#8B191C;" d="M0,42.4c0.1-0.6,0.3-1.2,0.4-2c0.5,1,0,1.5-0.1,2.1
	C0.2,42.5,0.1,42.5,0,42.4"/>
<path style="fill-rule:evenodd;clip-rule:evenodd;fill:#8B191C;" d="M20.8,31.3c0,0.4,0,0.7,0,0.9c0,0-0.3,0.1-0.3,0.1
	c-0.1-0.1-0.1-0.4-0.1-0.5C20.5,31.6,20.6,31.5,20.8,31.3"/>
<path style="fill-rule:evenodd;clip-rule:evenodd;fill:#8B191C;" d="M29,13.1c0.1-0.4,0.2-0.8,0.3-1.3c0.1,0,0.1,0,0.2,0.1
	c-0.1,0.4-0.1,0.9-0.2,1.3C29.1,13.2,29,13.1,29,13.1"/>
<path style="fill-rule:evenodd;clip-rule:evenodd;fill:#8B191C;" d="M64.5,49.4c1.6,0,3.3,0,5.3,0C68.6,50.1,68.1,50.1,64.5,49.4"/>
<path style="fill-rule:evenodd;clip-rule:evenodd;fill:#8B191C;" d="M54.9,16.1c1.2,0.5,1.9,0.8,2.9,1.2c-0.6,0.1-1.2,0.2-1.7,0.1
	C55,17.2,55,17.2,54.9,16.1"/>
<path style="fill-rule:evenodd;clip-rule:evenodd;fill:#8B191C;" d="M75.4,49.6c0.8,0.3,1.5,0.6,2.6,1.1c-1.9,0.1-2.7-0.2-3.2-0.8
	C75,49.8,75.2,49.7,75.4,49.6"/>
<path style="fill-rule:evenodd;clip-rule:evenodd;fill:#8B191C;" d="M56.5,21.3c0.8,0.2,1.6,0.4,2.3,0.7c-0.1,0.1-0.1,0.2-0.2,0.3
	c-0.8-0.2-1.7-0.3-2.5-0.5C56.3,21.6,56.4,21.5,56.5,21.3"/>
<path style="fill-rule:evenodd;clip-rule:evenodd;fill:#8B191C;" d="M26.8,21.1c-0.6-0.1-1.2-0.2-1.8-0.3c0-0.1,0.1-0.2,0.1-0.4
	c0.6,0.1,1.2,0.2,1.8,0.3C26.9,20.9,26.9,21,26.8,21.1"/>
<path style="fill-rule:evenodd;clip-rule:evenodd;fill:#8B191C;" d="M75.2,31.8c0.7,0.1,1.4,0.3,2,0.4c0,0.1-0.1,0.2-0.1,0.3
	c-0.7-0.1-1.4-0.2-2.1-0.3C75.1,32.1,75.1,32,75.2,31.8"/>
<path style="fill-rule:evenodd;clip-rule:evenodd;fill:#8B191C;" d="M31.4,21.1c1.2,0.2,1.9,0.4,2.8,0.5
	C32.6,21.8,32.6,21.8,31.4,21.1"/>
<path style="fill-rule:evenodd;clip-rule:evenodd;fill:#8B191C;" d="M36.8,43.2c-0.5-0.1-1-0.2-1.5-0.4c0,0,0.1-0.2,0.1-0.3
	c0.5,0.1,1,0.3,1.6,0.4C36.9,43.1,36.8,43.2,36.8,43.2"/>
<path style="fill-rule:evenodd;clip-rule:evenodd;fill:#8B191C;" d="M69.3,52.7c0.6,0.2,1.2,0.5,1.9,0.7c-0.1,0.1-0.2,0.1-0.3,0.2
	c-0.6-0.2-1.3-0.4-1.9-0.7C69.1,52.9,69.2,52.8,69.3,52.7"/>
<path style="fill-rule:evenodd;clip-rule:evenodd;fill:#8B191C;" d="M53.1,33.5c0.5,0.1,0.9,0.1,1.4,0.2c0,0.1,0,0.2-0.1,0.3
	c-0.4-0.1-0.9-0.1-1.3-0.2C53.1,33.7,53.1,33.6,53.1,33.5"/>
<path style="fill-rule:evenodd;clip-rule:evenodd;fill:#8B191C;" d="M63.6,41.7c0.5,0.1,1,0.2,1.4,0.3c0,0.1-0.1,0.1-0.1,0.2
	c-0.5-0.1-1-0.1-1.4-0.2C63.5,41.9,63.6,41.8,63.6,41.7"/>
<path style="fill-rule:evenodd;clip-rule:evenodd;fill:#8B191C;" d="M44.6,14.1c-0.2-0.2-0.4-0.4-0.5-0.5c0.2,0,0.4-0.1,0.6-0.1
	c0.2,0,0.4,0.1,0.5,0.2C45,13.8,44.9,13.9,44.6,14.1"/>
<path style="fill-rule:evenodd;clip-rule:evenodd;fill:#8B191C;" d="M34.6,35.5c0.4-0.1,0.7-0.1,1.1-0.2c0.1,0.1,0.1,0.1,0.2,0.2
	c-0.4,0.1-0.8,0.1-1.2,0.2C34.7,35.7,34.7,35.6,34.6,35.5"/>
<path style="fill-rule:evenodd;clip-rule:evenodd;fill:#8B191C;" d="M69.2,46.4c-0.2-0.1-0.4-0.1-0.6-0.2c0.2-0.1,0.4-0.1,0.7-0.2
	c0.1,0,0.3,0.2,0.4,0.3C69.6,46.4,69.4,46.4,69.2,46.4"/>
<path style="fill-rule:evenodd;clip-rule:evenodd;fill:#8B191C;" d="M50.8,31.4c0.4,0.2,0.7,0.3,1.1,0.5c-0.3,0-0.7,0-1,0
	c-0.2,0-0.3-0.2-0.4-0.3C50.6,31.5,50.7,31.4,50.8,31.4"/>
</svg>
