<?xml version="1.0" encoding="utf-8"?>
<!-- Generator: Adobe Illustrator 16.0.0, SVG Export Plug-In . SVG Version: 6.00 Build 0)  -->
<!DOCTYPE svg PUBLIC "-//W3C//DTD SVG 1.1//EN" "http://www.w3.org/Graphics/SVG/1.1/DTD/svg11.dtd">
<svg version="1.1" id="Layer_1" xmlns="http://www.w3.org/2000/svg" xmlns:xlink="http://www.w3.org/1999/xlink" x="0px" y="0px"
	 width="159.8px" height="137.8px" viewBox="0 0 159.8 137.8" style="enable-background:new 0 0 159.8 137.8;" xml:space="preserve"
	>
<path style="fill:#FBEC06;" d="M147.9,70.7c0,5.3-0.6,10.4-1.8,15.3c-1.2,5.1-2.8,5.1-5,14c-2.2,3.4-4.8,8.2-7.9,12.4
	c-3.1,2.1-6.5,10.1-10.3,10.3c-3.8,4.5-7.9,5.4-12.4,7.9c-2.2,1.1-4.5,2-6.8,2.9c-2.4,1.1-4.1,2.2-7.2,2.1c-2.5,1.7-5,0.9-7.5,1.3
	c-2.5-1.1-5.1,2.1-7.8,0.4c-5.3,0.3-10.4-1.8-15.3-1.8c-4.9-2.6-9.6-5.8-14-5c-4.4-1.6-8.6-6.2-12.4-7.9c-3.8-3.1-7.3-6.5-10.3-10.3
	c-6.1-7.6-10.6-16.6-12.9-26.4c-1.2-4.9-1.8-10.2-1.8-15.3c0-7.8,0.3-11.8,1.8-15.3c1.9-4.6,2.8-9,5-14c2.2-6.1,4.8-7.1,7.9-12.4
	c3.1-0.8,6.5-5.2,10.3-10.3c3.8-3.1,7.9-5.7,12.4-7.9c8.8-4.3,18.8-6.8,29.3-6.8c5.3,0,10.4,0.6,15.3,1.8c4.9,0.9,9.6,1.4,14,5
	c4.4,3.7,8.6,4.7,12.4,7.9c3.8,5.1,7.3,7.8,10.3,10.3c3.1,3.4,5.7,5.5,7.9,12.4c2.2,5.8,3.9,9.1,5,14S147.9,65.5,147.9,70.7"/>
<path style="fill:#FFFFFF;" d="M10,53.4l52,1.4c0,0,14.5,5.9,24,4.1c9.5-1.8,42.5-11.6,44.1-10.8c1.6,0.8,20.6,3.1,20.6,3.1
	S147,73.7,147,76s8.6,18.5-8.1,19c-16.7,0.5-30.7,12.2-38-1.8c-7.2-14-9-22.6-10.4-25.8c-1.4-3.2-6.8-5.4-8.1-5.4
	C81,62,71,64.7,71,66.5c0,1.8-6.8,19.9-13.6,24.4C50.7,95.4,38,99.1,29,97.3c-9-1.8-20.8-8.6-20.3-17.6C9.1,70.6,10,53.4,10,53.4"/>
<path style="fill:#8B191C;" d="M159.6,53.7c-0.1-3.3-2.5-5.9-5.8-6.3l-2.5-0.3l-32.8-24.2c-6.4-4.7-14.5-6.3-22.1-4.2
	c-2.8,0.7-4.4,3.6-3.7,6.3c0.7,2.8,3.6,4.4,6.3,3.7c4.6-1.2,9.5-0.3,13.3,2.5l19.7,14.5c-4.1,0.1-8.1,0.3-12.2,0.9
	c-6.2,0.9-12.4,2.2-18.2,3.8L98.6,51c-12.1,2.4-24.5,2.4-36.7,0.1l-3.5-0.7c-6-1.7-12.2-3-18.4-3.9c-4.1-0.6-8.1-0.8-12.2-0.9
	l19.7-14.5c3.9-2.8,8.7-3.8,13.3-2.5c2.7,0.7,5.6-0.9,6.3-3.7c0.7-2.8-0.9-5.6-3.7-6.3c-7.7-2.1-15.7-0.5-22.1,4.2L8.5,47L6,47.3
	c-3.2,0.4-5.7,3.1-5.8,6.3L0,59.4c-0.1,2.8,1.5,5.3,3.8,6.1c1,0.5,1.6,1.3,1.7,2.3l0.7,10.9c1.3,13.1,12.2,23.2,25.3,23.6l12.1,0.3
	c9,0,17.3-4.6,22.2-12.4l9.8-17.1c0.6-1,2.4-1.3,4.1-1.3c0,0,0.7,0,0.7,0c1.5,0,3.4,0.4,3.9,1.2l9.9,17.4
	c4.8,7.7,13.1,12.3,22.1,12.3l12.1-0.3c13.1-0.3,24-10.5,25.3-23.7l0.7-10.8c0.1-0.9,0.7-1.8,1.4-2.1c2.5-1,4.1-3.5,4.1-6.3
	L159.6,53.7z M128.7,57.2c1.8,0,3.4,0.1,4.8,0.3c4.4,0.6,8.8,3.5,9,8.6l0.4,11.1c0.1,3.8-1.2,7.4-3.8,10.2c-2.6,2.8-6.1,4.4-9.9,4.6
	c0,0-9.5,0.4-10,0.4c-17.3,0-22.2-17.3-22.4-18c-0.8-3.2-0.2-6.7,1.6-9.5c1.8-2.8,4.8-4.7,8-5.3C116,58,123.2,57.2,128.7,57.2
	 M40.6,92.3c-0.6,0-10-0.4-10-0.4c-3.8-0.1-7.3-1.8-9.9-4.6c-2.6-2.8-3.9-6.4-3.8-10.2l0.4-11.1c0.2-5.1,4.7-8,9-8.6
	c5.4-0.7,14.3,0,27,2.1c3.3,0.6,6.2,2.5,8,5.3c1.8,2.8,2.4,6.2,1.6,9.4C62.8,75.1,57.9,92.3,40.6,92.3"/>
<path style="fill-rule:evenodd;clip-rule:evenodd;fill:#8B191C;" d="M57.9,62.2c0.1,0,0.3,0,0.4,0c0.8,0.5,1.7,1,2.5,1.6
	c0.2,0.1,0.5,0.3,0.7,0.3c0.9,0.1,1.3,0.6,1.7,1.3c-0.9-0.5-1.8-0.9-2.7-1.4c-0.9-0.5-1.8-1.1-2.7-1.6
	C57.8,62.4,57.9,62.3,57.9,62.2"/>
<path style="fill-rule:evenodd;clip-rule:evenodd;fill:#8B191C;" d="M33,64.5c0.4,0.3,0.8,0.5,1.5,0.9C33.4,65.7,33.1,65.3,33,64.5"
	/>
<path style="fill-rule:evenodd;clip-rule:evenodd;fill:#8B191C;" d="M65.6,57.5c0.4,0.4,0.6,0.7,0.8,1
	C65.4,58.2,65.4,58.2,65.6,57.5"/>
<path style="fill-rule:evenodd;clip-rule:evenodd;fill:#8B191C;" d="M40.8,27.7c-0.5-0.3-0.9-0.6-1.4-0.9
	C40.1,26.9,40.1,26.9,40.8,27.7"/>
<path style="fill-rule:evenodd;clip-rule:evenodd;fill:#8B191C;" d="M25.1,65.8c0.3,0.2,0.6,0.5,0.8,0.7c0,0-0.1,0.1-0.2,0.1
	c-0.3-0.2-0.7-0.4-1-0.6C24.9,66,25,65.9,25.1,65.8"/>
<path style="fill-rule:evenodd;clip-rule:evenodd;fill:#8B191C;" d="M5.7,55.2c0.2,0.3,0.4,0.5,0.6,0.8c0,0-0.2,0.1-0.2,0.1
	c-0.3-0.2-0.5-0.5-0.8-0.7C5.4,55.3,5.6,55.3,5.7,55.2"/>
<path style="fill-rule:evenodd;clip-rule:evenodd;fill:#8B191C;" d="M20.8,84c-0.4-0.3-0.9-0.7-1.4-1.1c1,0,1.2,0.5,1.7,0.9
	C20.9,83.8,20.9,83.9,20.8,84"/>
<path style="fill-rule:evenodd;clip-rule:evenodd;fill:#8B191C;" d="M19.6,63.1c0.3,0.1,0.6,0.2,0.7,0.3c0,0,0,0.3-0.1,0.3
	c-0.1,0-0.3,0-0.5-0.1C19.7,63.5,19.7,63.3,19.6,63.1"/>
<path style="fill-rule:evenodd;clip-rule:evenodd;fill:#8B191C;" d="M8,49.8c-0.3-0.2-0.6-0.5-0.9-0.7c0,0,0.1-0.1,0.1-0.1
	c0.3,0.2,0.6,0.4,1,0.6C8.2,49.7,8.1,49.7,8,49.8"/>
<path style="fill-rule:evenodd;clip-rule:evenodd;fill:#8B191C;" d="M50.4,34.8c0.6-1.3,1.2-2.7,2-4.2
	C52.5,31.8,52.3,32.1,50.4,34.8"/>
<path style="fill-rule:evenodd;clip-rule:evenodd;fill:#8B191C;" d="M20.1,30.1c0.8-0.8,1.3-1.3,2-1.9c-0.2,0.5-0.3,1-0.5,1.4
	C21.1,30.4,21,30.4,20.1,30.1"/>
<path style="fill-rule:evenodd;clip-rule:evenodd;fill:#8B191C;" d="M54.6,26.2c0.5-0.5,1.1-1,1.9-1.7c-0.6,1.6-1.2,2-1.8,2.2
	C54.7,26.5,54.7,26.3,54.6,26.2"/>
<path style="fill-rule:evenodd;clip-rule:evenodd;fill:#8B191C;" d="M24.9,30.7c0.5-0.5,0.9-1.1,1.4-1.6c0.1,0.1,0.1,0.2,0.2,0.3
	c-0.5,0.6-0.9,1.2-1.4,1.8C25.1,31,25,30.9,24.9,30.7"/>
<path style="fill-rule:evenodd;clip-rule:evenodd;fill:#8B191C;" d="M13.7,54.5c-0.3,0.5-0.6,0.9-0.9,1.4c-0.1-0.1-0.2-0.2-0.2-0.2
	c0.3-0.4,0.6-0.9,0.9-1.3C13.6,54.4,13.6,54.4,13.7,54.5"/>
<path style="fill-rule:evenodd;clip-rule:evenodd;fill:#8B191C;" d="M40.3,19.7c0.4-0.5,0.7-1,1.1-1.5c0.1,0.1,0.1,0.1,0.2,0.2
	c-0.3,0.5-0.7,1.1-1,1.6C40.5,19.9,40.4,19.8,40.3,19.7"/>
<path style="fill-rule:evenodd;clip-rule:evenodd;fill:#8B191C;" d="M15.4,50.8c0.6-0.8,1-1.4,1.5-2.1
	C16.4,50.1,16.4,50.1,15.4,50.8"/>
<path style="fill-rule:evenodd;clip-rule:evenodd;fill:#8B191C;" d="M35.1,54.8c-0.3,0.4-0.6,0.7-0.8,1c0,0-0.1-0.1-0.2-0.2
	c0.3-0.4,0.6-0.7,0.9-1.1C35.1,54.6,35.1,54.7,35.1,54.8"/>
<path style="fill-rule:evenodd;clip-rule:evenodd;fill:#8B191C;" d="M54.9,32.2c0.4-0.4,0.8-0.8,1.3-1.2c0,0.1,0,0.2,0.1,0.3
	c-0.4,0.4-0.8,0.9-1.2,1.3C54.9,32.4,54.9,32.3,54.9,32.2"/>
<path style="fill-rule:evenodd;clip-rule:evenodd;fill:#8B191C;" d="M33.4,38c0.2-0.3,0.4-0.7,0.7-1c0.1,0.1,0.1,0.1,0.2,0.1
	c-0.2,0.3-0.4,0.7-0.6,1C33.6,38.1,33.5,38.1,33.4,38"/>
<path style="fill-rule:evenodd;clip-rule:evenodd;fill:#8B191C;" d="M43.9,32.6c0.2-0.4,0.5-0.7,0.7-1.1c0,0,0.1,0.1,0.1,0.1
	c-0.2,0.4-0.5,0.7-0.7,1.1C44,32.8,44,32.7,43.9,32.6"/>
<path style="fill-rule:evenodd;clip-rule:evenodd;fill:#8B191C;" d="M14.6,37.6c-0.3,0.1-0.4,0.2-0.6,0.2c0-0.2,0.1-0.4,0.1-0.5
	c0.1-0.1,0.2-0.2,0.4-0.4C14.6,37.1,14.6,37.3,14.6,37.6"/>
<path style="fill-rule:evenodd;clip-rule:evenodd;fill:#8B191C;" d="M28.2,53.6c0.1-0.3,0.2-0.6,0.3-1c0.1,0,0.2,0,0.2-0.1
	c-0.1,0.3-0.2,0.7-0.3,1C28.3,53.6,28.2,53.6,28.2,53.6"/>
<path style="fill-rule:evenodd;clip-rule:evenodd;fill:#8B191C;" d="M49.8,29.9c-0.1,0.1-0.3,0.3-0.4,0.4c0-0.2,0-0.4,0.1-0.6
	c0-0.1,0.2-0.2,0.4-0.3C49.9,29.6,49.8,29.7,49.8,29.9"/>
<path style="fill-rule:evenodd;clip-rule:evenodd;fill:#8B191C;" d="M30.9,39c0.3-0.2,0.5-0.4,0.8-0.7c-0.1,0.3-0.2,0.6-0.4,0.8
	c-0.1,0.1-0.3,0.2-0.4,0.2C30.9,39.3,30.9,39.2,30.9,39"/>
<path style="fill-rule:evenodd;clip-rule:evenodd;fill:#8B191C;" d="M81.6,88c0.1-0.1,0.2-0.2,0.3-0.3c0.9-0.3,1.9-0.6,2.8-0.9
	c0.2-0.1,0.6-0.2,0.7-0.3c0.6-0.6,1.3-0.5,2.1-0.4c-0.9,0.4-1.9,0.8-2.8,1.1c-1,0.3-2,0.6-3,0.9C81.6,88.2,81.6,88.1,81.6,88"/>
<path style="fill-rule:evenodd;clip-rule:evenodd;fill:#8B191C;" d="M66.9,108.3c0.5-0.1,1-0.3,1.7-0.5
	C68,108.7,67.5,108.7,66.9,108.3"/>
<path style="fill-rule:evenodd;clip-rule:evenodd;fill:#8B191C;" d="M83.1,79.1c0.6,0,0.9,0,1.3,0C83.5,79.7,83.5,79.7,83.1,79.1"/>
<path style="fill-rule:evenodd;clip-rule:evenodd;fill:#8B191C;" d="M44.3,78.1c-0.6,0.2-1,0.3-1.6,0.5
	C43.3,78.1,43.3,78.1,44.3,78.1"/>
<path style="fill-rule:evenodd;clip-rule:evenodd;fill:#8B191C;" d="M62.6,115c0.4-0.1,0.7-0.1,1.1-0.1c0,0,0,0.2,0,0.2
	c-0.4,0.1-0.7,0.2-1.1,0.3C62.6,115.3,62.6,115.1,62.6,115"/>
<path style="fill-rule:evenodd;clip-rule:evenodd;fill:#8B191C;" d="M41.9,122.6c0.3,0,0.7,0,1,0c0,0-0.1,0.2-0.1,0.2
	c-0.3,0.1-0.7,0.1-1,0.1C41.8,122.9,41.8,122.8,41.9,122.6"/>
<path style="fill-rule:evenodd;clip-rule:evenodd;fill:#8B191C;" d="M73.4,130.2c-0.5,0.1-1.1,0.2-1.8,0.4c0.6-0.7,1.2-0.6,1.7-0.7
	C73.4,130,73.4,130.1,73.4,130.2"/>
<path style="fill-rule:evenodd;clip-rule:evenodd;fill:#8B191C;" d="M56.9,117.4c0.3-0.2,0.5-0.3,0.7-0.3c0,0,0.2,0.2,0.2,0.2
	c-0.1,0.1-0.3,0.2-0.4,0.3C57.3,117.6,57.2,117.5,56.9,117.4"/>
<path style="fill-rule:evenodd;clip-rule:evenodd;fill:#8B191C;" d="M39.3,117.3c-0.4,0.1-0.7,0.2-1.1,0.2c0-0.1,0-0.1,0-0.2
	c0.4-0.1,0.7-0.2,1.1-0.3C39.3,117.1,39.3,117.2,39.3,117.3"/>
<path style="fill-rule:evenodd;clip-rule:evenodd;fill:#8B191C;" d="M56,75.5c-0.6-1.3-1.2-2.7-1.9-4.3C55.1,72,55.3,72.4,56,75.5"
	/>
<path style="fill-rule:evenodd;clip-rule:evenodd;fill:#8B191C;" d="M32.5,95.2c0-1.1-0.1-1.8-0.1-2.7c0.3,0.5,0.6,0.9,0.7,1.3
	C33.4,94.7,33.3,94.7,32.5,95.2"/>
<path style="fill-rule:evenodd;clip-rule:evenodd;fill:#8B191C;" d="M52.3,66.7c0-0.7,0-1.5,0-2.5c0.8,1.5,0.8,2.2,0.5,2.9
	C52.6,66.9,52.5,66.8,52.3,66.7"/>
<path style="fill-rule:evenodd;clip-rule:evenodd;fill:#8B191C;" d="M36.2,92c-0.1-0.7-0.2-1.4-0.3-2.1c0.1,0,0.2,0,0.3,0.1
	c0.2,0.7,0.3,1.5,0.5,2.2C36.5,92.1,36.3,92.1,36.2,92"/>
<path style="fill-rule:evenodd;clip-rule:evenodd;fill:#8B191C;" d="M46.6,116.1c0.1,0.5,0.3,1,0.4,1.5c-0.1,0-0.2,0-0.3,0
	c-0.1-0.5-0.3-1-0.4-1.6C46.4,116.1,46.5,116.1,46.6,116.1"/>
<path style="fill-rule:evenodd;clip-rule:evenodd;fill:#8B191C;" d="M38,73.1c-0.1-0.6-0.3-1.2-0.4-1.8c0.1,0,0.2,0,0.3,0
	c0.2,0.6,0.3,1.2,0.5,1.8C38.3,73.2,38.1,73.2,38,73.1"/>
<path style="fill-rule:evenodd;clip-rule:evenodd;fill:#8B191C;" d="M44.9,112.4c-0.2-1-0.4-1.6-0.6-2.5
	C45,111.2,45,111.2,44.9,112.4"/>
<path style="fill-rule:evenodd;clip-rule:evenodd;fill:#8B191C;" d="M61,100.2c0.1,0.4,0.2,0.9,0.2,1.3c0,0-0.2,0-0.3,0
	c-0.1-0.5-0.2-0.9-0.2-1.4C60.8,100.1,60.9,100.2,61,100.2"/>
<path style="fill-rule:evenodd;clip-rule:evenodd;fill:#8B191C;" d="M57,70.5c0-0.6-0.1-1.2-0.1-1.8c0.1,0,0.2,0.1,0.3,0.1
	c0,0.6,0.1,1.2,0.1,1.8C57.2,70.6,57.1,70.5,57,70.5"/>
<path style="fill-rule:evenodd;clip-rule:evenodd;fill:#8B191C;" d="M47.3,90.4c-0.1-0.4-0.2-0.8-0.3-1.2c0.1,0,0.2,0,0.2,0
	c0.1,0.4,0.2,0.7,0.3,1.1C47.4,90.4,47.3,90.4,47.3,90.4"/>
<path style="fill-rule:evenodd;clip-rule:evenodd;fill:#8B191C;" d="M50.1,79c-0.1-0.4-0.2-0.8-0.3-1.3c0.1,0,0.1,0,0.2,0
	c0.1,0.4,0.2,0.8,0.3,1.3C50.3,79,50.2,79,50.1,79"/>
<path style="fill-rule:evenodd;clip-rule:evenodd;fill:#8B191C;" d="M34.5,104.3c-0.1,0.3-0.2,0.4-0.2,0.6c-0.1-0.1-0.2-0.3-0.3-0.4
	c-0.1-0.2,0-0.3,0-0.5C34.1,104,34.3,104.1,34.5,104.3"/>
<path style="fill-rule:evenodd;clip-rule:evenodd;fill:#8B191C;" d="M55.5,104.7c-0.2-0.3-0.4-0.6-0.6-0.8c0-0.1,0.1-0.2,0.1-0.2
	c0.2,0.3,0.4,0.6,0.5,0.9C55.5,104.6,55.5,104.6,55.5,104.7"/>
<path style="fill-rule:evenodd;clip-rule:evenodd;fill:#8B191C;" d="M51.9,72.8c0,0.2,0,0.4,0,0.5c-0.1-0.2-0.3-0.3-0.4-0.5
	c0-0.1,0-0.3,0.1-0.4C51.8,72.5,51.9,72.7,51.9,72.8"/>
<path style="fill-rule:evenodd;clip-rule:evenodd;fill:#8B191C;" d="M46.3,93c0-0.3,0-0.7,0-1c0.1,0.3,0.3,0.5,0.3,0.8
	c0,0.1,0,0.3-0.1,0.4C46.5,93.2,46.4,93.1,46.3,93"/>
<path style="fill-rule:evenodd;clip-rule:evenodd;fill:#8B191C;" d="M100,69.5c-0.1,0-0.3-0.1-0.3-0.1c-0.6-0.8-1.3-1.5-1.9-2.3
	c-0.2-0.2-0.4-0.5-0.5-0.5c-0.8-0.4-1-1-1.2-1.7c0.7,0.7,1.5,1.4,2.1,2.2c0.7,0.8,1.3,1.6,2,2.4C100.1,69.3,100.1,69.4,100,69.5"/>
<path style="fill-rule:evenodd;clip-rule:evenodd;fill:#8B191C;" d="M124.4,75.1c-0.3-0.4-0.6-0.8-1.1-1.3
	C124.3,73.9,124.6,74.4,124.4,75.1"/>
<path style="fill-rule:evenodd;clip-rule:evenodd;fill:#8B191C;" d="M91.2,71.5c-0.2-0.5-0.3-0.8-0.5-1.2
	C91.6,70.9,91.6,70.9,91.2,71.5"/>
<path style="fill-rule:evenodd;clip-rule:evenodd;fill:#8B191C;" d="M105.4,107.6c0.4,0.5,0.7,0.8,1,1.3
	C105.8,108.6,105.8,108.6,105.4,107.6"/>
<path style="fill-rule:evenodd;clip-rule:evenodd;fill:#8B191C;" d="M132.2,76.4c-0.2-0.3-0.4-0.6-0.6-1c0,0,0.2-0.1,0.2-0.1
	c0.3,0.3,0.5,0.6,0.7,0.9C132.5,76.3,132.4,76.3,132.2,76.4"/>
<path style="fill-rule:evenodd;clip-rule:evenodd;fill:#8B191C;" d="M147.4,92.6c-0.1-0.3-0.3-0.6-0.4-1c0,0,0.2,0,0.3,0
	c0.2,0.3,0.3,0.6,0.5,0.9C147.6,92.5,147.5,92.5,147.4,92.6"/>
<path style="fill-rule:evenodd;clip-rule:evenodd;fill:#8B191C;" d="M142.1,60.5c0.3,0.4,0.6,0.9,1,1.5c-0.9-0.3-1-0.9-1.3-1.3
	C141.9,60.6,142,60.6,142.1,60.5"/>
<path style="fill-rule:evenodd;clip-rule:evenodd;fill:#8B191C;" d="M136.7,80.7c-0.3-0.2-0.5-0.4-0.6-0.5c0,0,0.1-0.3,0.1-0.2
	c0.1,0,0.3,0.1,0.4,0.3C136.7,80.3,136.6,80.4,136.7,80.7"/>
<path style="fill-rule:evenodd;clip-rule:evenodd;fill:#8B191C;" d="M143.4,97c0.2,0.3,0.4,0.6,0.7,0.9c-0.1,0-0.1,0.1-0.2,0.1
	c-0.2-0.3-0.5-0.6-0.7-0.9C143.3,97,143.3,97,143.4,97"/>
<path style="fill-rule:evenodd;clip-rule:evenodd;fill:#8B191C;" d="M98.4,97.9c-1,1-2,2.1-3.2,3.4C95.5,100.1,95.8,99.8,98.4,97.9"
	/>
<path style="fill-rule:evenodd;clip-rule:evenodd;fill:#8B191C;" d="M125.7,111.9c-1,0.5-1.7,0.8-2.5,1.1c0.3-0.4,0.6-0.9,0.9-1.1
	C125,111.2,125,111.3,125.7,111.9"/>
<path style="fill-rule:evenodd;clip-rule:evenodd;fill:#8B191C;" d="M91.7,104.7c-0.7,0.3-1.3,0.6-2.3,1c1.1-1.3,1.8-1.6,2.4-1.5
	C91.8,104.4,91.8,104.5,91.7,104.7"/>
<path style="fill-rule:evenodd;clip-rule:evenodd;fill:#8B191C;" d="M121.4,109.7c-0.6,0.4-1.2,0.7-1.8,1.1c0-0.1,0-0.2-0.1-0.3
	c0.6-0.4,1.2-0.9,1.9-1.3C121.4,109.4,121.4,109.6,121.4,109.7"/>
<path style="fill-rule:evenodd;clip-rule:evenodd;fill:#8B191C;" d="M139.5,90.7c0.4-0.3,0.8-0.7,1.3-1c0,0.1,0.1,0.2,0.1,0.3
	c-0.4,0.3-0.8,0.6-1.3,1C139.6,90.9,139.6,90.8,139.5,90.7"/>
<path style="fill-rule:evenodd;clip-rule:evenodd;fill:#8B191C;" d="M103.3,115.4c-0.5,0.4-1,0.7-1.5,1.1c0-0.1-0.1-0.2-0.1-0.3
	c0.5-0.4,1-0.8,1.5-1.2C103.2,115.1,103.2,115.3,103.3,115.4"/>
<path style="fill-rule:evenodd;clip-rule:evenodd;fill:#8B191C;" d="M136.8,93.7c-0.8,0.6-1.4,1-2,1.5
	C135.6,94.1,135.6,94.1,136.8,93.7"/>
<path style="fill-rule:evenodd;clip-rule:evenodd;fill:#8B191C;" d="M119.3,83.7c0.4-0.2,0.8-0.5,1.1-0.7c0,0,0.1,0.2,0.1,0.2
	c-0.4,0.3-0.8,0.5-1.2,0.8C119.3,83.9,119.3,83.8,119.3,83.7"/>
<path style="fill-rule:evenodd;clip-rule:evenodd;fill:#8B191C;" d="M93.4,98.9c-0.5,0.3-1.1,0.5-1.6,0.8c0-0.1,0-0.2,0-0.3
	c0.5-0.3,1.1-0.6,1.6-0.8C93.5,98.7,93.4,98.8,93.4,98.9"/>
<path style="fill-rule:evenodd;clip-rule:evenodd;fill:#8B191C;" d="M115.6,100.1c-0.3,0.3-0.6,0.5-1,0.8c0-0.1-0.1-0.1-0.1-0.2
	c0.3-0.2,0.6-0.5,0.9-0.7C115.5,100,115.5,100.1,115.6,100.1"/>
<path style="fill-rule:evenodd;clip-rule:evenodd;fill:#8B191C;" d="M104,101.9c-0.3,0.3-0.7,0.5-1,0.8c0-0.1-0.1-0.1-0.1-0.2
	c0.3-0.3,0.7-0.5,1-0.8C103.9,101.8,103.9,101.9,104,101.9"/>
<path style="fill-rule:evenodd;clip-rule:evenodd;fill:#8B191C;" d="M133.3,106.5c0.3,0,0.5,0,0.6,0c-0.1,0.1-0.2,0.3-0.3,0.4
	c-0.1,0.1-0.3,0.2-0.5,0.2C133.2,106.9,133.3,106.8,133.3,106.5"/>
<path style="fill-rule:evenodd;clip-rule:evenodd;fill:#8B191C;" d="M125.5,87c-0.2,0.3-0.4,0.6-0.5,0.8c-0.1,0-0.2,0-0.3,0
	c0.2-0.3,0.4-0.6,0.6-0.8C125.4,87,125.5,87,125.5,87"/>
<path style="fill-rule:evenodd;clip-rule:evenodd;fill:#8B191C;" d="M97.5,102.7c0.2-0.1,0.3-0.2,0.5-0.3c-0.1,0.2-0.2,0.4-0.3,0.5
	c-0.1,0.1-0.3,0.1-0.4,0.1C97.3,102.9,97.4,102.8,97.5,102.7"/>
<path style="fill-rule:evenodd;clip-rule:evenodd;fill:#8B191C;" d="M118.4,100c-0.3,0.1-0.6,0.3-0.9,0.4c0.2-0.2,0.4-0.5,0.6-0.6
	c0.1-0.1,0.3-0.1,0.4-0.1C118.4,99.8,118.4,99.9,118.4,100"/>
<path style="fill-rule:evenodd;clip-rule:evenodd;fill:#8B191C;" d="M85.7,37.5c-0.1,0.1-0.2,0.2-0.3,0.2c-1,0-2-0.1-3-0.1
	c-0.3,0-0.6,0-0.7,0c-0.8,0.4-1.4,0.1-2.1-0.2c1-0.1,2-0.2,3-0.2c1,0,2.1,0,3.1,0C85.7,37.3,85.7,37.4,85.7,37.5"/>
<path style="fill-rule:evenodd;clip-rule:evenodd;fill:#8B191C;" d="M106,22.9c-0.5,0-1,0-1.7-0.1C105.1,22.1,105.6,22.3,106,22.9"
	/>
<path style="fill-rule:evenodd;clip-rule:evenodd;fill:#8B191C;" d="M81.4,45.5c-0.5-0.2-0.8-0.3-1.2-0.4
	C81.3,44.8,81.3,44.8,81.4,45.5"/>
<path style="fill-rule:evenodd;clip-rule:evenodd;fill:#8B191C;" d="M117.9,58.7c0.6,0,1.1,0,1.6,0C118.9,59,118.9,59,117.9,58.7"/>
<path style="fill-rule:evenodd;clip-rule:evenodd;fill:#8B191C;" d="M112.2,17.9c-0.4-0.1-0.7-0.1-1.1-0.2c0,0,0.1-0.2,0.1-0.2
	c0.4,0,0.8,0,1.2,0C112.3,17.6,112.2,17.7,112.2,17.9"/>
<path style="fill-rule:evenodd;clip-rule:evenodd;fill:#8B191C;" d="M134.3,17.2c-0.3-0.1-0.6-0.2-1-0.4c0,0,0.2-0.2,0.2-0.2
	c0.3,0.1,0.7,0.1,1,0.2C134.4,17,134.4,17.1,134.3,17.2"/>
<path style="fill-rule:evenodd;clip-rule:evenodd;fill:#8B191C;" d="M106.7,0c0.5,0.1,1.1,0.1,1.8,0.2c-0.8,0.5-1.3,0.2-1.9,0.1
	C106.7,0.2,106.7,0.1,106.7,0"/>
<path style="fill-rule:evenodd;clip-rule:evenodd;fill:#8B191C;" d="M118.3,17.4c-0.4,0-0.6,0.1-0.8,0.1c0,0-0.1-0.2-0.1-0.3
	c0.1-0.1,0.3-0.1,0.5-0.1C118,17.1,118.1,17.2,118.3,17.4"/>
<path style="fill-rule:evenodd;clip-rule:evenodd;fill:#8B191C;" d="M135,23.1c0.4,0,0.8,0.1,1.1,0.1c0,0.1,0,0.1,0,0.2
	c-0.4,0-0.8,0-1.2-0.1C134.9,23.2,135,23.1,135,23.1"/>
<path style="fill-rule:evenodd;clip-rule:evenodd;fill:#8B191C;" d="M106,57.4c0.1,1.4,0.3,2.9,0.4,4.6
	C105.7,61.1,105.7,60.6,106,57.4"/>
<path style="fill-rule:evenodd;clip-rule:evenodd;fill:#8B191C;" d="M134.5,46.2c-0.3,1.1-0.5,1.8-0.8,2.6c-0.1-0.6-0.3-1-0.3-1.4
	C133.5,46.3,133.6,46.3,134.5,46.2"/>
<path style="fill-rule:evenodd;clip-rule:evenodd;fill:#8B191C;" d="M106.7,67c-0.2,0.7-0.4,1.4-0.8,2.4c-0.3-1.7,0-2.4,0.5-2.9
	C106.5,66.7,106.6,66.8,106.7,67"/>
<path style="fill-rule:evenodd;clip-rule:evenodd;fill:#8B191C;" d="M130.1,48c-0.1,0.7-0.3,1.4-0.4,2.1c-0.1-0.1-0.2-0.1-0.3-0.2
	c0.1-0.8,0.2-1.5,0.2-2.3C129.8,47.8,129.9,47.9,130.1,48"/>
<path style="fill-rule:evenodd;clip-rule:evenodd;fill:#8B191C;" d="M127.7,21.9c0-0.5,0-1.1,0.1-1.6c0.1,0,0.2,0.1,0.3,0.1
	c0,0.5-0.1,1.1-0.1,1.6C127.9,21.9,127.8,21.9,127.7,21.9"/>
<path style="fill-rule:evenodd;clip-rule:evenodd;fill:#8B191C;" d="M122.3,65.4c-0.1,0.6-0.1,1.2-0.2,1.8c-0.1,0-0.2,0-0.3-0.1
	c0-0.6,0.1-1.3,0.1-1.9C122.1,65.3,122.2,65.3,122.3,65.4"/>
<path style="fill-rule:evenodd;clip-rule:evenodd;fill:#8B191C;" d="M128.2,25.9c-0.1,1-0.2,1.7-0.2,2.5
	C127.7,27,127.7,27,128.2,25.9"/>
<path style="fill-rule:evenodd;clip-rule:evenodd;fill:#8B191C;" d="M109.1,32.5c0.1-0.4,0.1-0.9,0.2-1.3c0,0,0.2,0,0.3,0.1
	c-0.1,0.5-0.2,0.9-0.2,1.4C109.3,32.6,109.2,32.5,109.1,32.5"/>
<path style="fill-rule:evenodd;clip-rule:evenodd;fill:#8B191C;" d="M103.5,61.9c-0.2,0.6-0.3,1.1-0.5,1.7c-0.1-0.1-0.1-0.1-0.2-0.2
	c0.1-0.6,0.3-1.2,0.4-1.7C103.3,61.7,103.4,61.8,103.5,61.9"/>
<path style="fill-rule:evenodd;clip-rule:evenodd;fill:#8B191C;" d="M119,46c0,0.4,0,0.8-0.1,1.2c-0.1,0-0.2,0-0.2,0
	c0-0.4,0-0.8,0-1.2C118.8,46.1,118.9,46,119,46"/>
<path style="fill-rule:evenodd;clip-rule:evenodd;fill:#8B191C;" d="M112.7,56c0,0.4-0.1,0.9-0.1,1.3c-0.1,0-0.1,0-0.2-0.1
	c0-0.4,0-0.9,0.1-1.3C112.6,55.9,112.6,55.9,112.7,56"/>
<path style="fill-rule:evenodd;clip-rule:evenodd;fill:#8B191C;" d="M135.5,36.9c0.2-0.2,0.3-0.4,0.4-0.5c0,0.2,0.1,0.3,0.1,0.5
	c0,0.2-0.1,0.3-0.1,0.5C135.8,37.3,135.7,37.1,135.5,36.9"/>
<path style="fill-rule:evenodd;clip-rule:evenodd;fill:#8B191C;" d="M115.7,29.9c0.1,0.3,0.2,0.6,0.3,1c-0.1,0.1-0.1,0.1-0.2,0.2
	c-0.1-0.3-0.2-0.7-0.2-1C115.6,30,115.7,30,115.7,29.9"/>
<path style="fill-rule:evenodd;clip-rule:evenodd;fill:#8B191C;" d="M109,61.3c0-0.2,0.1-0.4,0.1-0.5c0.1,0.2,0.2,0.4,0.2,0.6
	c0,0.1-0.1,0.3-0.2,0.4C109.1,61.6,109.1,61.5,109,61.3"/>
<path style="fill-rule:evenodd;clip-rule:evenodd;fill:#8B191C;" d="M120.7,43.9c-0.1,0.3-0.2,0.6-0.3,1c0-0.3-0.1-0.6-0.1-0.9
	c0-0.1,0.1-0.3,0.2-0.4C120.6,43.6,120.7,43.8,120.7,43.9"/>
</svg>
