<?xml version="1.0" encoding="utf-8"?>
<!-- Generator: Adobe Illustrator 16.0.0, SVG Export Plug-In . SVG Version: 6.00 Build 0)  -->
<!DOCTYPE svg PUBLIC "-//W3C//DTD SVG 1.1//EN" "http://www.w3.org/Graphics/SVG/1.1/DTD/svg11.dtd">
<svg version="1.1" id="Layer_1" xmlns="http://www.w3.org/2000/svg" xmlns:xlink="http://www.w3.org/1999/xlink" x="0px" y="0px"
	 width="183.434px" height="304.001px" viewBox="0 0 183.434 304.001" enable-background="new 0 0 183.434 304.001"
	 xml:space="preserve">
<path fill="#80AB8E" d="M6.094,160.591c0,0-0.197,0.23-0.153,0.405c0.102,0.41,0.306,0.7-0.118,1.229
	c-0.857,1.071,0.218,1.899-0.588,2.523c-0.76,0.589-0.693,0.954-0.342,1.896c0.288,0.774,0.504,1.118,0.135,1.789
	c-0.37,0.672,1.04,1.717,1,2.44c-0.066,1.165-0.227,1.429,1.291,2.405c1.086,0.699,0.29,0.574,0.607,1.203
	c0.318,0.63,1.841,0.654,2.49,1.571c0.65,0.918,0.721,0.853,1.301,1.767c0.581,0.914,0.222-0.402,1.6,1.16
	c1.378,1.564,0.751,0.1,2.29,1.053c1.539,0.951,2.952-0.09,4.242,0.236c1.29,0.325,3.182-0.695,5.784,1.121
	c2.603,1.818,3.146-3.234,0.87-6.343c-2.277-3.106-0.605-0.298-0.981-1.204c-0.375-0.907-1.262-1.011-1.906-2.064
	c-0.644-1.055-0.915-1.133-1.77-2.06c-0.855-0.925-0.904-1.407-1.764-2.196c-0.86-0.787-1.162-1.828-2.641-2.573
	c-1.479-0.744-2.668-1.89-3.958-2.214c-1.861-0.471-1.947-1.038-3.177-1.156C9.077,161.464,7.981,161.42,6.094,160.591"/>
<path fill="#80AB8E" d="M53.807,286.184c0,0,6.459-1.95,7.809-3.348c1.349-1.398,0.992-1.376,2.356-2.536
	c1.364-1.16,1.483-1.168,2.096-2.879c0.613-1.712,2.05-1.682,2.537-3.504c0.486-1.824,2.108-0.727,1.537-2.247
	c-0.572-1.521,1.79-2.023,1.016-2.933c-0.773-0.91,0.591-2.069-0.286-2.733c-0.878-0.664,0.62-1.593-0.385-2.369
	c-1.004-0.774-0.019-2.271-0.936-1.617c-0.916,0.654-1.278,0.812-1.989,0.72c-2.531-0.323-0.917,0.654-2.354,0.623
	s-1.831-0.605-2.86,0.175c-1.028,0.78-0.967-0.181-2.31,1.337c-1.342,1.518-2.176,1.568-2.826,2.685
	c-0.649,1.116-1.247,3.066-2.179,3.482c-0.931,0.416-0.931,0.416-1.439,1.882c-0.509,1.467-3.279,7.018-4.568,13.316
	C49.026,286.238,50.276,287.119,53.807,286.184"/>
<path fill="#80AB8E" d="M65.132,123.359c0,0,0.197,0.23,0.153,0.405c-0.102,0.41-0.306,0.7,0.118,1.23
	c0.857,1.071-0.218,1.899,0.588,2.523c0.76,0.589,0.693,0.954,0.342,1.897c-0.288,0.773-0.504,1.118-0.135,1.789
	c0.37,0.671-1.04,1.717-1,2.44c0.066,1.165,0.227,1.429-1.291,2.405c-1.086,0.699-0.29,0.574-0.607,1.203
	c-0.318,0.63-1.841,0.655-2.49,1.572c-0.65,0.918-0.721,0.852-1.302,1.766c-0.58,0.915-0.221-0.402-1.599,1.161
	c-1.378,1.564-0.751,0.099-2.29,1.051c-1.539,0.953-2.952-0.088-4.242,0.238c-1.29,0.325-3.182-0.696-5.784,1.121
	c-2.603,1.818-3.146-3.235-0.87-6.343c2.277-3.107,0.605-0.298,0.981-1.204c0.375-0.907,1.262-1.011,1.906-2.065
	c0.644-1.054,0.915-1.134,1.77-2.059c0.855-0.927,0.904-1.407,1.764-2.196c0.86-0.789,1.162-1.829,2.641-2.574
	c1.479-0.744,2.668-1.889,3.958-2.214c1.861-0.47,1.947-1.038,3.177-1.156C62.149,124.232,63.245,124.188,65.132,123.359"/>
<path fill="#80AB8E" d="M38.108,84.578c0,0,5.841,3.376,6.835,5.046c0.995,1.669,0.652,1.566,1.714,3.008
	c1.063,1.441,1.177,1.475,1.382,3.282c0.205,1.807,1.612,2.105,1.668,3.991c0.056,1.887,1.886,1.189,0.982,2.539
	c-0.904,1.349,1.28,2.379,0.319,3.088c-0.961,0.708,0.102,2.148-0.904,2.595c-1.007,0.445,0.239,1.692-0.916,2.218
	c-1.155,0.525-0.539,2.206-1.281,1.36c-0.743-0.847-1.06-1.082-1.772-1.156c-2.539-0.264-0.743-0.846-2.149-1.144
	c-1.407-0.298-1.921,0.17-2.744-0.825c-0.823-0.995-0.984-0.046-1.943-1.83c-0.96-1.784-1.76-2.025-2.137-3.26
	c-0.377-1.235-0.513-3.271-1.325-3.888c-0.811-0.618-0.811-0.618-0.971-2.162c-0.159-1.544-1.586-7.581-1.4-14.008
	C33.466,83.431,34.884,82.861,38.108,84.578"/>
<path fill="#80AB8E" d="M74.509,193.863c0,0,0.398-0.697,0.026-1.314c-0.372-0.618,0.208-0.409-0.284-1.044
	c-0.491-0.636-0.318-0.976-0.707-1.474c-0.39-0.498-0.949-1.168-1.306-1.393c-0.358-0.225,0.052-0.188-0.578-0.551
	c-0.629-0.363-1.295-0.487-1.942-0.73c-0.648-0.244-0.867-0.739-1.651-0.882c-0.785-0.142-0.766-0.432-1.62-0.438
	s-1.898,0.278-2.582,0.272c-0.683-0.004-1.88,0.158-2.22-0.015c-0.341-0.173-0.649-0.072-1.229-0.11
	c-0.581-0.037-1.196-0.008-2.341-0.033c-1.144-0.024-2.359,0.259-3.35,0.354c-0.992,0.096-2.752,0.272-3.334,0.405
	c-0.582,0.132-0.309,0.271-1.369,0.332c-1.059,0.062-1.249,0.351-1.557,0.451s1.18,2.398,1.18,2.398s1.138,0.879,2.601,1.88
	c1.462,1,6.072,3.986,6.907,4.282s7.938,3.436,10.129,2.664c0,0,1.696-0.723,1.15-0.83c-0.546-0.105,2.274-0.172,2.381-0.889
	s1.148-0.488,1.015-1.07c-0.133-0.581,0.96-0.54,0.759-1.156C74.386,194.359,74.541,194.137,74.509,193.863"/>
<path fill="#80AB8E" d="M42.245,238.459c0,0-0.345,0.83-2.051,0.497c-1.707-0.334-1.455,0.34-3.218,0.277
	c-1.764-0.063-2.617,1.702-4.227,1.445c-1.61-0.256-0.786,1.582-2.357,1.673c-1.57,0.091-1.846,1.528-3.271,2.128
	c-1.425,0.602-1.297,1.729-2.518,2.569c-1.222,0.841-0.672,1.043-1.817,1.787c-1.145,0.746-1.829,4.774-2.135,5.951
	c-0.305,1.176-0.776,1.669-0.485,2.689c0.292,1.021,2.987,7.74,0.673,11.339c0,0,0.023,1.756,1.36,0.373
	c1.336-1.381,2.075-2.605,4.463-3.229c2.388-0.623,6.258-2.116,7.788-3.344c1.529-1.227,1.499-1.486,2.952-2.618
	c1.452-1.131,2.664-2.06,3.633-3.574c0.97-1.514-0.551-0.991,0.949-2.478c1.499-1.488,0.948-2.479,1.263-3.569
	s-0.871-1.482-0.402-2.765c0.469-1.283,0.044-1.938,0.099-2.998c0.055-1.06,0.229-1.079,0.217-1.955
	c-0.012-0.879-0.388-1.098-0.38-1.803C42.789,240.154,43.075,238.804,42.245,238.459"/>
<path fill="#D1DFAD" d="M50.886,157.08c0.263,0.676,0.384,1.259,0.72,2.285c0.335,1.025,0.642,1.326,0.909,2.609
	c0.268,1.284,0.667,1.444,1.051,2.703c0.384,1.26,0.316,1.518,0.749,3.01s0.972,1.745,1.376,2.514
	c0.404,0.768,1.177,0.972,1.96,2.392c0.783,1.419,0.802,0.929,1.488,1.881c0.685,0.953,1.4-0.292,2.362,0.238l1.916-0.156
	c0.666,1.444,5.075,0.403,4.419,0.175c-0.656-0.229-1.177-0.973-1.483-1.273c-0.306-0.302-1.201-1.089-1.532-1.507
	c-0.33-0.418-2.401-2.179-3.559-3.642c-1.157-1.463-5.801-6.217-7.993-8.56c-1.129-1.206-2.205-3.71-2.985-5.858l0.331,2.866
	C50.733,156.829,50.831,156.937,50.886,157.08"/>
<path fill="#D1DFAD" d="M62.172,84.702c0,0,0.087-0.894-1.574-1.406c-1.662-0.511-1.122-0.986-2.706-1.763
	c-1.585-0.776-1.504-2.736-3.044-3.27c-1.541-0.534,0.053-1.766-1.289-2.587c-1.342-0.821-0.907-2.218-1.88-3.42
	c-0.972-1.202-0.328-2.136-1.008-3.454c-0.68-1.317-0.1-1.235-0.758-2.433c-0.658-1.197,0.64-5.072,0.926-6.254
	c0.286-1.181,0.103-1.837,0.842-2.6c0.738-0.762,6.286-5.414,5.945-9.68c0,0,0.848-1.535,1.374,0.313
	c0.526,1.848,0.599,3.278,2.411,4.953c1.812,1.676,4.52,4.819,5.288,6.623c0.769,1.804,0.621,2.019,1.367,3.702
	c0.747,1.683,1.378,3.072,1.517,4.866c0.14,1.793-0.954,0.613-0.333,2.633c0.62,2.02-0.334,2.632-0.571,3.742
	c-0.236,1.109-1.467,0.895-1.658,2.248c-0.192,1.352-0.876,1.728-1.328,2.689c-0.451,0.96-0.308,1.06-0.732,1.827
	c-0.424,0.768-0.86,0.785-1.185,1.409C63.451,83.463,63.066,84.789,62.172,84.702"/>
<path fill="#80AB8E" d="M152.381,45.709c0,0,0.197-0.23,0.152-0.405c-0.102-0.41-0.306-0.7,0.119-1.229
	c0.856-1.071-0.219-1.899,0.588-2.523c0.76-0.589,0.692-0.954,0.342-1.897c-0.289-0.774-0.504-1.118-0.135-1.789
	c0.369-0.671-1.041-1.717-1-2.44c0.065-1.165,0.227-1.429-1.291-2.405c-1.086-0.699-0.291-0.574-0.607-1.204
	c-0.318-0.629-1.842-0.654-2.49-1.571c-0.648-0.918-0.721-0.853-1.302-1.767c-0.58-0.915-0.222,0.402-1.599-1.161
	c-1.379-1.564-0.752-0.099-2.291-1.052c-1.539-0.952-2.951,0.089-4.242-0.237c-1.289-0.325-3.182,0.696-5.783-1.121
	c-2.604-1.818-3.146,3.234-0.87,6.343c2.276,3.107,0.604,0.298,0.981,1.204c0.375,0.907,1.262,1.011,1.905,2.064
	c0.644,1.055,0.915,1.133,1.771,2.06c0.854,0.925,0.904,1.407,1.764,2.196s1.162,1.829,2.641,2.574
	c1.479,0.744,2.668,1.889,3.959,2.214c1.86,0.471,1.946,1.038,3.176,1.156C149.397,44.836,150.494,44.88,152.381,45.709"/>
<path fill="#80AB8E" d="M152.906,70.093c0,0,6.725,0.543,8.492-0.266c1.768-0.81,1.426-0.919,3.12-1.501
	c1.692-0.582,1.807-0.545,3.002-1.915c1.196-1.37,2.522-0.816,3.642-2.336c1.118-1.521,2.228,0.093,2.25-1.531
	c0.023-1.623,2.405-1.23,2.018-2.359c-0.389-1.129,1.306-1.711,0.73-2.648c-0.574-0.939,1.159-1.257,0.508-2.346
	c-0.652-1.088,0.811-2.121-0.281-1.847c-1.092,0.274-1.486,0.288-2.115-0.056c-2.238-1.225-1.092,0.273-2.418-0.28
	c-1.327-0.554-1.484-1.232-2.727-0.881c-1.242,0.351-0.836-0.521-2.64,0.401c-1.803,0.923-2.598,0.666-3.61,1.468
	c-1.012,0.802-2.28,2.398-3.299,2.446c-1.02,0.047-1.02,0.047-2.029,1.227c-1.008,1.179-5.613,5.336-9.112,10.729
	C148.437,68.397,149.278,69.673,152.906,70.093"/>
<path fill="#80AB8E" d="M171.934,229.552c0,0-0.292,0.079-0.432-0.035c-0.327-0.268-0.502-0.576-1.161-0.421
	c-1.335,0.316-1.623-1.01-2.531-0.55c-0.858,0.434-1.16,0.217-1.862-0.504c-0.574-0.592-0.793-0.936-1.558-0.889
	s-1.106-1.677-1.776-1.949c-1.08-0.44-1.388-0.408-1.619-2.198c-0.166-1.28-0.395-0.507-0.826-1.063
	c-0.434-0.558,0.197-1.943-0.354-2.924c-0.551-0.979-0.461-1.016-1.037-1.933c-0.578-0.917,0.457-0.028-0.365-1.943
	c-0.821-1.915,0.233-0.72,0.033-2.519c-0.201-1.799,1.344-2.629,1.604-3.934c0.259-1.306,1.992-2.578,1.466-5.707
	c-0.526-3.131,4.271-1.457,6.103,1.933c1.832,3.389,0.01,0.674,0.668,1.401c0.658,0.729,0.373,1.574,1.049,2.608
	c0.677,1.033,0.633,1.312,1.103,2.481c0.47,1.169,0.884,1.42,1.228,2.535c0.344,1.114,1.154,1.834,1.193,3.488
	c0.039,1.656,0.563,3.221,0.305,4.525c-0.373,1.883,0.103,2.204-0.317,3.365C172.424,226.484,171.992,227.493,171.934,229.552"/>
<path fill="#80AB8E" d="M147.333,237.966c0,0,6.747,0.02,8.44,0.973s1.344,1.034,2.983,1.756c1.639,0.721,1.755,0.693,2.833,2.158
	c1.077,1.465,2.445,1.023,3.434,2.631c0.987,1.608,2.228,0.094,2.115,1.714c-0.111,1.62,2.294,1.426,1.814,2.519
	c-0.481,1.093,1.158,1.813,0.507,2.701c-0.651,0.887,1.05,1.348,0.31,2.379s0.633,2.182-0.434,1.818
	c-1.066-0.365-1.457-0.411-2.112-0.121c-2.333,1.035-1.065-0.364-2.433,0.078c-1.368,0.441-1.582,1.104-2.791,0.65
	c-1.209-0.454-0.875,0.449-2.596-0.619c-1.722-1.07-2.535-0.881-3.477-1.764c-0.941-0.884-2.073-2.581-3.085-2.713
	c-1.011-0.132-1.011-0.132-1.918-1.391c-0.907-1.261-5.149-5.786-8.188-11.451C142.736,239.285,143.683,238.083,147.333,237.966"/>
<path fill="#80AB8E" d="M161.891,159.847c0,0,0.042-0.802-0.566-1.187c-0.61-0.385,0.002-0.458-0.723-0.806
	c-0.725-0.347-0.723-0.729-1.294-0.998c-0.571-0.271-1.372-0.618-1.793-0.658c-0.42-0.04-0.036-0.191-0.763-0.233
	c-0.725-0.042-1.375,0.146-2.063,0.22c-0.688,0.073-1.107-0.272-1.873-0.047c-0.765,0.226-0.877-0.043-1.644,0.336
	c-0.765,0.379-1.571,1.101-2.185,1.403c-0.611,0.303-1.607,0.985-1.989,0.984c-0.382-0.002-0.613,0.226-1.147,0.452
	c-0.537,0.227-1.072,0.529-2.107,1.021c-1.033,0.492-1.991,1.29-2.834,1.82c-0.844,0.531-2.338,1.479-2.797,1.859
	c-0.461,0.379-0.155,0.381-1.074,0.911c-0.92,0.53-0.959,0.874-1.189,1.103c-0.23,0.228,2.131,1.613,2.131,1.613
	s1.412,0.274,3.168,0.513c1.756,0.237,7.217,0.835,8.096,0.725s8.635-0.495,10.246-2.168c0,0,1.19-1.407,0.656-1.257
	c-0.537,0.15,1.952-1.175,1.727-1.864c-0.225-0.688,0.807-0.95,0.427-1.411c-0.38-0.46,0.616-0.914,0.159-1.374
	C162.003,160.344,162.043,160.078,161.891,159.847"/>
<path fill="#80AB8E" d="M165.588,91.391c0,0-0.436,0.785-2.094,0.263c-1.658-0.524-1.484,0.174-3.229-0.087
	c-1.746-0.262-2.793,1.396-4.363,0.959c-1.57-0.436-0.961,1.484-2.53,1.397c-1.571-0.088-2.007,1.308-3.491,1.745
	c-1.482,0.436-1.482,1.57-2.792,2.268c-1.309,0.699-0.784,0.96-2.007,1.571c-1.221,0.611-2.355,4.538-2.792,5.672
	c-0.437,1.134-0.96,1.571-0.785,2.618s2.095,8.028-0.61,11.343c0,0-0.176,1.746,1.309,0.524c1.482-1.222,2.355-2.356,4.799-2.705
	c2.443-0.349,6.457-1.396,8.115-2.443c1.658-1.047,1.658-1.309,3.229-2.269s2.879-1.745,4.014-3.142
	c1.135-1.396-0.437-1.046,1.222-2.355s1.222-2.356,1.658-3.403c0.436-1.048-0.698-1.571-0.087-2.793
	c0.611-1.221,0.261-1.919,0.436-2.967c0.176-1.047,0.35-1.047,0.436-1.919c0.088-0.873-0.26-1.135-0.174-1.833
	C165.938,93.136,166.373,91.828,165.588,91.391"/>
<path fill="#80AB8E" d="M146.306,197.29c0.592-0.419,1.128-0.679,2.042-1.253c0.912-0.575,1.131-0.945,2.311-1.516
	c1.18-0.572,1.239-0.998,2.367-1.677c1.128-0.678,1.395-0.675,2.736-1.457c1.344-0.782,1.457-1.368,2.104-1.946
	c0.647-0.577,0.658-1.377,1.845-2.48c1.187-1.105,0.705-1.004,1.463-1.901c0.759-0.896-0.623-1.286-0.342-2.349l-0.617-1.821
	c1.238-0.997-0.842-5.021-0.903-4.329c-0.063,0.692-0.658,1.377-0.876,1.748c-0.219,0.37-0.764,1.43-1.09,1.852
	c-0.325,0.423-1.529,2.858-2.668,4.337c-1.137,1.478-4.621,7.137-6.362,9.834c-0.896,1.387-3.063,3.039-4.958,4.317l2.701-1.018
	C146.1,197.499,146.182,197.377,146.306,197.29"/>
<path fill="#80AB8E" d="M176.656,153.158c-0.01-1.271,0.268-0.973,0.877-1.816s-0.385-0.534,0.13-1.902
	c0.514-1.367-0.502-0.481-0.17-1.624c0.331-1.143-0.438-0.652-0.437-2.212c0-1.56-2.156-2.565-2.818-3.399
	c-0.418-0.526-1.582-1.332-2.387-1.856l-15.164-7.117c-2.02-0.135-6.594-2.534-8.123-3.55c0.014-0.013,0.029-0.021,0.043-0.034
	l-2.099,0.518c0.401,0.034,0.851,0.092,1.366,0.184c2.468,0.44,12.624,8.449,14.258,9.551c1.635,1.102,7.133,6.971,10.432,11.429
	s4.816,4.053,4.816,4.053S176.666,154.429,176.656,153.158"/>
<path fill="#80AB8E" d="M93.342,82.941c0,0-0.197-0.23-0.152-0.405c0.102-0.41,0.306-0.7-0.119-1.23
	c-0.856-1.071,0.219-1.899-0.587-2.523c-0.76-0.589-0.693-0.955-0.342-1.898c0.288-0.772,0.503-1.117,0.135-1.788
	c-0.37-0.671,1.041-1.717,1-2.439c-0.065-1.165-0.227-1.429,1.291-2.406c1.086-0.698,0.291-0.573,0.607-1.203
	c0.318-0.629,1.842-0.654,2.49-1.571c0.648-0.918,0.721-0.852,1.302-1.767c0.58-0.914,0.222,0.403,1.599-1.16
	c1.379-1.563,0.752-0.099,2.291-1.052c1.539-0.952,2.951,0.089,4.242-0.237c1.289-0.325,3.182,0.696,5.783-1.122
	c2.604-1.817,3.146,3.236,0.87,6.344c-2.276,3.106-0.604,0.298-0.981,1.204c-0.375,0.907-1.262,1.011-1.905,2.065
	c-0.644,1.054-0.915,1.133-1.771,2.059c-0.854,0.925-0.904,1.407-1.764,2.196c-0.859,0.788-1.162,1.829-2.641,2.574
	c-1.479,0.744-2.668,1.889-3.959,2.214c-1.86,0.47-1.946,1.038-3.176,1.156C96.325,82.069,95.229,82.113,93.342,82.941"/>
<path fill="#80AB8E" d="M120.367,121.723c0,0-5.842-3.376-6.836-5.046c-0.994-1.669-0.651-1.565-1.713-3.008
	c-1.063-1.441-1.178-1.475-1.383-3.282c-0.205-1.807-1.611-2.104-1.668-3.991s-1.886-1.189-0.982-2.539
	c0.904-1.349-1.279-2.379-0.318-3.087c0.961-0.709-0.102-2.15,0.904-2.596c1.006-0.445-0.239-1.692,0.916-2.218
	c1.154-0.525,0.539-2.206,1.281-1.36c0.742,0.848,1.059,1.082,1.771,1.156c2.539,0.264,0.742,0.846,2.148,1.144
	c1.407,0.299,1.922-0.169,2.744,0.825c0.823,0.995,0.984,0.046,1.943,1.83c0.96,1.784,1.76,2.025,2.137,3.26s0.514,3.27,1.325,3.888
	s0.812,0.618,0.971,2.162s1.587,7.581,1.4,14.008C125.009,122.87,123.591,123.44,120.367,121.723"/>
<path fill="#80AB8E" d="M107.588,49.221c-0.262-0.676-0.383-1.259-0.719-2.285c-0.336-1.025-0.643-1.327-0.91-2.611
	c-0.268-1.283-0.666-1.443-1.051-2.702c-0.384-1.26-0.315-1.518-0.748-3.01c-0.434-1.492-0.973-1.745-1.377-2.513
	c-0.404-0.768-1.177-0.972-1.959-2.392c-0.783-1.419-0.803-0.928-1.488-1.881c-0.686-0.953-1.4,0.292-2.362-0.238l-1.916,0.156
	c-0.666-1.444-5.075-0.403-4.419-0.174c0.656,0.228,1.177,0.972,1.483,1.273c0.306,0.302,1.201,1.089,1.532,1.507
	c0.33,0.418,2.401,2.178,3.56,3.642c1.156,1.463,5.801,6.217,7.992,8.56c1.129,1.206,2.205,3.71,2.985,5.858l-0.331-2.866
	C107.742,49.472,107.644,49.362,107.588,49.221"/>
<path fill="#80AB8E" d="M88.959,265.892c0,0,0.292,0.079,0.432-0.035c0.327-0.268,0.501-0.576,1.161-0.42
	c1.335,0.315,1.623-1.011,2.532-0.551c0.858,0.435,1.16,0.217,1.861-0.504c0.575-0.592,0.793-0.935,1.559-0.888
	c0.765,0.046,1.105-1.677,1.775-1.95c1.08-0.439,1.389-0.408,1.62-2.198c0.165-1.28,0.394-0.507,0.826-1.063
	c0.433-0.558-0.197-1.943,0.353-2.924c0.551-0.979,0.461-1.016,1.038-1.933c0.578-0.917-0.458-0.028,0.364-1.942
	c0.822-1.916-0.232-0.721-0.032-2.52c0.201-1.799-1.345-2.629-1.604-3.934c-0.258-1.306-1.992-2.577-1.465-5.707
	c0.526-3.131-4.271-1.456-6.104,1.933c-1.832,3.39-0.01,0.675-0.668,1.402s-0.372,1.573-1.049,2.607
	c-0.676,1.033-0.632,1.313-1.101,2.481c-0.47,1.169-0.885,1.42-1.228,2.535c-0.344,1.115-1.155,1.834-1.194,3.488
	c-0.039,1.656-0.563,3.221-0.305,4.525c0.374,1.883-0.102,2.204,0.319,3.366C88.469,262.824,88.9,263.833,88.959,265.892"/>
<path fill="#80AB8E" d="M113.561,274.306c0,0-6.747,0.02-8.439,0.973c-1.695,0.953-1.346,1.035-2.984,1.756
	s-1.756,0.693-2.834,2.158c-1.076,1.465-2.444,1.023-3.432,2.631c-0.988,1.608-2.229,0.094-2.117,1.714
	c0.112,1.62-2.293,1.426-1.813,2.519c0.481,1.094-1.158,1.813-0.507,2.701c0.651,0.887-1.05,1.348-0.31,2.379
	c0.74,1.031-0.632,2.182,0.434,1.818c1.065-0.365,1.457-0.411,2.112-0.121c2.332,1.035,1.065-0.364,2.433,0.078
	c1.368,0.441,1.582,1.104,2.791,0.65s0.875,0.449,2.596-0.619c1.722-1.07,2.534-0.881,3.476-1.764
	c0.942-0.884,2.074-2.581,3.086-2.713c1.011-0.132,1.011-0.132,1.918-1.391c0.906-1.26,5.15-5.786,8.188-11.451
	C118.156,275.625,117.211,274.422,113.561,274.306"/>
<path fill="#80AB8E" d="M99.002,196.187c0,0-0.041-0.802,0.567-1.187c0.61-0.385-0.002-0.458,0.722-0.806
	c0.725-0.347,0.723-0.729,1.295-0.998c0.571-0.271,1.373-0.618,1.793-0.658s0.037-0.191,0.762-0.233
	c0.726-0.042,1.375,0.146,2.063,0.22s1.107-0.272,1.872-0.047c0.766,0.226,0.878-0.043,1.645,0.336
	c0.765,0.379,1.57,1.101,2.184,1.403c0.611,0.303,1.607,0.986,1.99,0.984c0.382-0.002,0.613,0.226,1.148,0.452
	s1.071,0.529,2.105,1.021c1.033,0.492,1.992,1.29,2.835,1.82c0.843,0.531,2.337,1.479,2.797,1.859
	c0.46,0.379,0.155,0.381,1.074,0.911s0.959,0.874,1.188,1.103c0.231,0.228-2.131,1.613-2.131,1.613s-1.412,0.274-3.168,0.513
	c-1.756,0.237-7.216,0.835-8.095,0.725s-8.636-0.495-10.247-2.168c0,0-1.189-1.407-0.654-1.257s-1.953-1.175-1.728-1.864
	c0.225-0.688-0.808-0.95-0.427-1.411c0.379-0.46-0.616-0.914-0.159-1.374C98.891,196.684,98.851,196.417,99.002,196.187"/>
<path fill="#D1DFAD" d="M96.303,121.6c0,0-0.088,0.895,1.573,1.406c1.662,0.511,1.122,0.986,2.706,1.763
	c1.585,0.776,1.504,2.736,3.044,3.269c1.541,0.534-0.053,1.766,1.289,2.587c1.343,0.821,0.907,2.218,1.88,3.42
	s0.328,2.135,1.008,3.454c0.681,1.318,0.101,1.236,0.758,2.433c0.658,1.197-0.639,5.072-0.926,6.253
	c-0.285,1.182-0.103,1.838-0.842,2.601c-0.738,0.762-6.285,5.414-5.945,9.68c0,0-0.848,1.535-1.373-0.313
	c-0.526-1.849-0.6-3.278-2.411-4.954c-1.813-1.675-4.521-4.818-5.288-6.622c-0.769-1.804-0.621-2.02-1.367-3.702
	c-0.747-1.682-1.378-3.072-1.517-4.866c-0.14-1.793,0.954-0.613,0.333-2.633c-0.62-2.019,0.334-2.632,0.571-3.742
	c0.236-1.109,1.467-0.895,1.658-2.248c0.192-1.352,0.876-1.728,1.328-2.688c0.451-0.96,0.309-1.061,0.732-1.827
	c0.424-0.768,0.859-0.785,1.185-1.409S95.408,121.513,96.303,121.6"/>
<path fill="#80AB8E" d="M105.359,225.12c0.725,0.021,1.315-0.06,2.395-0.087c1.078-0.027,1.465,0.161,2.764-0.018
	c1.299-0.177,1.584,0.146,2.898,0.086c1.315-0.06,1.535-0.209,3.086-0.302c1.553-0.092,1.972,0.332,2.83,0.456
	c0.858,0.123,1.31,0.783,2.91,1.046c1.6,0.262,1.144,0.445,2.271,0.772c1.127,0.326,0.194,1.417,1.015,2.146l0.494,1.857
	c1.584,0.144,2.079,4.648,1.645,4.105c-0.436-0.541-1.311-0.783-1.696-0.971c-0.388-0.188-1.429-0.768-1.933-0.939
	c-0.506-0.172-2.856-1.534-4.623-2.135s-7.801-3.385-10.742-4.667c-1.514-0.659-4.233-0.836-6.52-0.851l2.813-0.648
	C105.072,225.06,105.207,225.115,105.359,225.12"/>
<path fill="#80AB8E" d="M84.237,189.498c0.01-1.271-0.268-0.973-0.877-1.816c-0.61-0.844,0.384-0.533-0.13-1.901
	c-0.514-1.367,0.502-0.481,0.17-1.624c-0.332-1.144,0.438-0.652,0.437-2.213c-0.001-1.56,2.156-2.565,2.818-3.399
	c0.418-0.526,1.582-1.332,2.386-1.856l15.165-7.116c2.019-0.136,6.593-2.534,8.123-3.55c-0.014-0.014-0.03-0.022-0.044-0.035
	l2.1,0.518c-0.401,0.034-0.851,0.092-1.367,0.184c-2.467,0.44-12.623,8.449-14.258,9.552c-1.634,1.102-7.132,6.971-10.432,11.429
	c-3.299,4.458-4.816,4.053-4.816,4.053S84.227,190.769,84.237,189.498"/>
<path fill="#0268AD" d="M74.986,108.987c-0.01,0.017-0.02,0.03-0.031,0.047l0.014,0.003
	C74.969,109.024,74.976,109.007,74.986,108.987"/>
<line fill="#FFFFFF" x1="121.641" y1="175.281" x2="121.645" y2="175.263"/>
<path fill="#ba0a13" d="M176.605,22.89l-72.623-0.74l-59.781-0.598L5.16,0C0.08-0.051-0.976,25.906,4.044,30.385
	c-4.516,17.411-0.741,73.948-0.741,73.948c11.664-6.715,31.918-13.634,61.052-4.867c0.276-2.948,1.886-4.043,2.881-4.422
	l1.474-0.647c0.858-0.411,2.81-1.335,3.381-1.776c0.562-0.953,1.725-1.385,2.681-1.467c0.734-0.07,1.292,0.081,1.678,0.298
	c0.158-0.014,0.335-0.043,0.52-0.068c0.969-0.124,1.955-0.251,2.772,0.155c0.66-0.04,1.505-0.074,2.369,0.571
	c0.137,0.051,1.032,0.261,1.624,0.405c1.701,0.402,3.027,0.716,3.659,1.547c0.18,0.051,0.391,0.098,0.615,0.154
	c1.192,0.297,2.676,0.665,3.553,1.756c0.321,0.406,1.672,1.234,2.478,1.727c1.082,0.667,1.767,1.1,2.212,1.539
	c1.043,0.215,4.284,0.365,6.947,0.338c-0.047-0.018,1.406-0.253,2.753,0.674c0.373,0.258,0.821,0.592,1.231,0.896
	c0.358,0.273,0.678,0.516,0.84,0.616c0.4,0.165,0.802,0.295,0.738,0.238c0.783-0.281,2.1-0.271,2.736-0.247
	c0.563-0.095,1.874-0.189,3.201,0.457c0.755,0.135,2.229,0.508,3.053,1.444c0.421,0.47,0.867,0.736,1.004,0.78
	c0.794,0.005,1.852,0.093,2.663,0.675c0.642,0.099,1.44,0.252,2.486,0.955c1.606,1.075,2.06,1.692,2.53,2.886
	c0.026,0,0.275,0.208,1.012,0.596l0.094,0.048c0.872,0.149,1.809,0.326,2.533,0.913c0.063,0.014,0.711,0.199,1.139,0.318
	c1.296,0.372,2.357,0.674,2.971,1.371c0.392,0.033,0.623,0.063,0.836,0.118c0.381,0.045,3.195,0.063,5.523,0.036
	c1.652,0.258,2.688,0.639,3.284,1.157c0.144,0.039,0.317,0.062,0.481,0.086c0.563,0.096,1.178,0.2,1.693,0.543
	c0.17,0.012,0.393-0.006,0.613-0.018c0.662-0.018,1.417-0.044,2.143,0.099c1.131,0.191,2.778,0.471,4.441,2.398
	c0.045,0.053,0.064,0.11,0.107,0.163c10.489-3.239,19.782-8.351,28.022-14.072c0,0,6.476-69.913-3.293-72.27
	C185.328,24.81,181.686,22.941,176.605,22.89"/>
<g opacity="0.25" enable-background="new    ">
	<g>
		<defs>
			<rect id="SVGID_1_" x="14.535" y="29.078" width="158" height="13"/>
		</defs>
		<clipPath id="SVGID_2_">
			<use xlink:href="#SVGID_1_"  overflow="visible"/>
		</clipPath>
		<g clip-path="url(#SVGID_2_)">
			<defs>
				<rect id="SVGID_3_" x="15.359" y="29.957" width="156.223" height="11.281"/>
			</defs>
			<clipPath id="SVGID_4_">
				<use xlink:href="#SVGID_3_"  overflow="visible"/>
			</clipPath>
			<path clip-path="url(#SVGID_4_)" fill="#221A15" d="M102.575,31.815c19.386-0.335,49.966-4.006,68.937,0
				c1.094,1.437-11.025,2.142-12.811,2.42c-10.361,1.614-14.321,2.131-24.682,3.746c-8.015,1.248-28.895,2.658-36.994,3.082
				c-11.729,0.615-23.474-0.507-35.167-1.628c-15.107-1.449-32.787-0.337-46.5-6.453C29.263,29.404,21.951,33.208,102.575,31.815"/>
		</g>
	</g>
</g>
<path fill="#ba0a13" d="M91.46,218.48c-0.055,0.141-0.084,0.272-0.165,0.419c-0.163,1.204-0.462,2.317-2.472,4.326
	c-0.846,0.843-1.266,1.287-1.469,1.521l-0.008,0.149c-0.112,0.793-0.647,1.377-1.121,1.896c-0.112,0.123-0.231,0.238-0.319,0.354
	c-0.171,0.726-0.724,1.38-1.449,2.233c-0.248,0.296-0.502,0.578-0.658,0.801l-0.212,0.42c-0.289,0.456-1.325,1.896-2.896,1.88
	c-0.07,0-0.141-0.004-0.214-0.009c-0.76-0.071-1.804-0.51-2.47-2.192c-0.451-1.126-0.669-2.109-0.826-2.827
	c-0.074-0.344-0.121-0.621-0.206-0.816c-0.209-0.28-0.342-0.707-0.578-1.49c-0.149-0.488-0.358-1.121-0.605-1.796
	c-27.086,8.767-52.222,16.559-73.711,2.909c0,0-2.158,52.919-0.643,63.212c-4.934,5.954,4.063,9.278,8.383,12.938l158.987,1.594
	c5.84-3.561,14.955-10.025,10.089-12.754c0.603-7.017,1.139-59.556,1.139-59.556C163.83,220.723,133.34,207.073,91.46,218.48"/>
<g opacity="0.25" enable-background="new    ">
	<g>
		<defs>
			<rect id="SVGID_5_" x="14.535" y="288.078" width="158" height="13"/>
		</defs>
		<clipPath id="SVGID_6_">
			<use xlink:href="#SVGID_5_"  overflow="visible"/>
		</clipPath>
		<g clip-path="url(#SVGID_6_)">
			<defs>
				<rect id="SVGID_7_" x="15.359" y="288.908" width="156.223" height="11.279"/>
			</defs>
			<clipPath id="SVGID_8_">
				<use xlink:href="#SVGID_7_"  overflow="visible"/>
			</clipPath>
			<path clip-path="url(#SVGID_8_)" fill="#221A15" d="M102.575,298.332c19.386,0.334,49.966,4.006,68.937,0
				c1.094-1.438-11.025-2.143-12.811-2.42c-10.361-1.614-14.321-2.131-24.682-3.746c-8.015-1.248-28.895-2.657-36.994-3.082
				c-11.729-0.615-23.474,0.507-35.167,1.627c-15.107,1.449-32.787,0.338-46.5,6.453C29.263,300.742,21.951,296.938,102.575,298.332
				"/>
		</g>
	</g>
</g>
<path fill="#0268AD" d="M92.178,216.573c-0.021,0.017-0.039,0.038-0.06,0.055c-0.29,0.221-0.294,0.247-0.355,0.706
	c-0.044,0.309-0.135,0.715-0.303,1.147c41.879-11.408,72.37,2.243,88.576,13.212l0.123-12.221
	c-12.739-6.459-26.87-8.891-43.252-9.055C121.172,210.259,106.643,212.97,92.178,216.573"/>
<path fill="#0268AD" d="M75.792,223.348c-0.253-0.693-0.588-1.425-0.987-2.166c-4.339,1.198-8.7,2.403-13.137,3.579
	c-26.925,7.131-46.009-1.146-59.478-9.353l-0.108,10.849C23.57,239.908,48.706,232.116,75.792,223.348"/>
<path fill="#0268AD" d="M63.872,103.045c0.179-0.663,0.408-1.699,0.426-2.881c0.004-0.253,0.035-0.468,0.057-0.697
	c-29.134-8.769-49.388-1.849-61.052,4.866l-0.099,9.883C14.932,107.152,35.479,98.953,63.872,103.045"/>
<path fill="#0268AD" d="M154.479,120.501c0.065,0.304,0.086,0.677,0.088,1.067c10.313-1.557,19.167-4.833,26.66-8.699l0.101-10.163
	c-8.238,5.722-17.531,10.833-28.022,14.073C154.383,118.142,154.455,119.666,154.479,120.501"/>
<path fill="#0268AD" d="M97.949,206.73c1.117,0.118,1.367-0.181,2.098-1.185c0.979-1.348,2.576-2.034,3.637-2.492
	c0.127-0.054,0.242-0.103,0.336-0.144c1.001-1.271,2.218-2.716,2.218-2.716h0.003c1.071-1.563,3.959-3.166,5.184-3.22
	c0.369-0.08,1.591-0.895,2.242-1.331c0.836-0.562,1.554-1.043,2.187-1.291c0.771-0.301,1.119-1.054,1.119-1.054l0.223-0.567
	l0.523-0.3c0.034-0.107,0.647-1.163,0.715-1.577c0.222-1.432,1.918-2.878,2.907-3.612l0.371-0.211
	c0.281-0.117,1.134-0.563,1.582-1.14c0.479-0.621,0.717-1.681,1.047-3.151l0.22-0.973c0.554-2.389,2.211-3.337,3.006-3.795
	c0.297-0.194,0.483-0.357,0.72-0.559c0.955-0.824,1.562-1.411,1.807-1.75c-0.061-2.427,3.947-4.985,5.117-5.412
	c0.605-0.219,1.047-0.73,1.515-1.271c0.271-0.312,0.522-0.598,0.772-0.82c0.377-0.337,1.028-1.445,1.354-2.119l0.222-0.461
	l0.442-0.267c0.152-0.125,0.77-0.856,1.236-1.498c0,0,0.699-1.185,1.834-2.36c0.348-0.36,0.34-0.646,0.338-0.699l-0.073-0.315
	l0.065-0.231c0.215-1.447,0.369-3.051,0.326-3.427c-0.188-1.418,0.473-2.439,1.098-2.883l2.373-1.661l1.566-0.121
	c1.102-0.564,4.799-2.465,5.451-2.756c0.178-0.104,0.818-0.829,0.596-1.273c-0.727-1.444-0.853-2.507-0.844-3.101
	c-0.179-0.889-0.036-1.749,0.061-2.341c0.024-0.15,0.053-0.284,0.058-0.391c0.008-0.529-0.013-0.684-0.021-0.717
	c-0.207-0.24-0.422-0.543-0.699-1.065c-0.953-1.785-0.926-3.145-0.918-3.594l0.02-0.352c0.028-0.409,0.078-1.088-0.066-1.659
	c-0.129-0.517-0.459-1.063-0.695-1.461c-0.139-0.232-0.251-0.428-0.319-0.572c-1.116-2.323-0.302-3.664,0.093-4.311
	c0.01-0.01,0.021-0.007,0.021-0.007c-0.041-0.228-0.069-0.493-0.035-0.814c-0.142-0.316-0.278-0.746-0.405-1.397
	c-0.33-1.769,0.055-2.767,0.475-3.513c0.045-0.174,0.127-1.047,0.09-1.319c-0.064-0.228-0.075-0.54-0.085-0.871
	c-0.019-0.567-0.037-1.27-0.451-1.753c-0.854-0.987-1.522-1.101-2.169-1.211l-0.344-0.061c-0.332-0.063-0.881-0.049-1.363-0.033
	c-0.926,0.031-1.891,0.061-2.604-0.505c-0.115-0.025-0.244-0.043-0.379-0.065c-0.759-0.128-1.705-0.285-2.318-1.038
	c0.017,0.084-0.635-0.093-1.149-0.182c-5.364,0.077-5.901-0.063-6.135-0.129c-0.66-0.043-1.761-0.121-2.476-1.063
	c-0.324-0.134-0.978-0.321-1.392-0.442c-1.126-0.32-1.837-0.538-2.349-0.945c-0.117-0.062-0.608-0.144-0.819-0.179
	c-0.431-0.071-0.806-0.135-1.183-0.387c-0.75-0.389-2.161-1.134-2.672-2.388c-0.219-0.559-0.252-0.639-1.256-1.313
	c-0.479-0.319-0.73-0.359-1.052-0.405c-0.401-0.062-1.01-0.155-1.584-0.663c0.056,0.068-0.194,0.002-0.868-0.008
	c-1.195-0.013-2.527-1.034-3.307-1.906c-0.139-0.105-0.77-0.303-1.266-0.371l-0.627-0.214c-0.573-0.331-1.258-0.204-1.268-0.204
	l-0.246,0.062l-0.257-0.013c-0.677-0.037-1.511,0.002-1.756,0.079c-1.265,0.44-2.542-0.119-3.082-0.362
	c-0.374-0.134-0.63-0.32-1.558-1.014c-0.373-0.278-0.78-0.587-1.116-0.818c-0.16-0.112-0.425-0.098-0.515-0.093
	c-8.941,0.011-9.332-0.699-9.797-1.498c-0.057-0.004-0.898-0.521-1.455-0.862c-1.309-0.803-2.664-1.634-3.355-2.502
	c-0.222-0.207-1.225-0.455-1.706-0.577c-0.919-0.226-1.935-0.481-2.47-1.227c-0.434-0.148-1.246-0.34-1.767-0.466
	c-1.457-0.343-2.309-0.559-2.887-0.994c-0.36,0.117-1.017,0.191-1.71-0.164c-0.238,0.007-0.664,0.061-0.936,0.097
	c-0.849,0.109-1.781,0.227-2.497-0.192c-0.541,0.805-1.77,1.489-4.728,2.897l-1.763,0.769c-0.404,0.154-0.679,0.891-0.696,1.956
	c-0.039,2.529-0.821,4.655-0.852,4.741c-0.84,2.24-0.9,3.214-0.948,3.997c-0.032,0.526-0.064,1.068-0.295,1.725
	c-0.066,0.224-0.107,0.656-0.169,1.164c-0.153,1.238-0.343,2.777-0.837,3.934c-0.391,0.918-0.554,3.499-0.49,4.497
	c0.07,1.344-0.767,2.687-1.656,4.107l-0.432,0.703c-0.143,0.855-0.266,1.414-0.872,2.398c-0.776,1.275-5.223,7.15-6.989,8.231
	c-0.793,0.528-2.258,3.688-2.013,4.669c0.371,1.444,0.098,4.529-0.292,8.414c-0.108,1.064-0.201,1.951-0.219,2.427
	c-0.08,1.982-1.457,4.705-2.67,7.107c-0.499,0.986-1.183,2.34-1.264,2.73c-0.025,2.229-0.832,6.205-2.259,7.581
	c-0.038,0.06-0.111,0.351-0.157,0.541c-0.16,0.675-0.408,1.691-1.401,2.452l-0.374,0.277c-0.27,0.197-0.78,0.574-1.05,0.83
	c-0.219,2.071-3.523,3.203-3.56,3.217c-0.061,0.097-0.474,0.815-0.514,1.124c0.195,0.622-0.076,1.606-0.515,3.013
	c-0.125,0.387-0.246,0.741-0.281,0.968c-0.1,0.954-0.848,2.002-2.159,3.771c-0.336,0.456-0.668,0.904-0.94,1.301
	c-0.507,0.732-0.617,1.396,0.066,3.414c1.116,3.303,0.207,5.729,0.101,5.996c-0.597,2.684-1.683,5.483-2.327,6.924
	c0.025,0.164,0.07,0.363,0.128,0.527c1.835-0.571,3.945-0.238,5.409,0.074c0.711-0.054,2.201-0.347,2.566-0.654
	c1.34-1.42,4.04-1.059,4.832-0.92l0.571,0.217c0.773,0.464,2.23,0.076,2.725-0.167c0.481-0.521,1.224-0.825,2.213-0.912
	c1.197-0.109,2.93,0.112,3.855,1.063c2.578-0.845,6.509,0.545,7.608,1.57c0.472,0.307,2.728,0.493,3.416,0.406
	c0.225-0.112,3.027-0.579,4.202-0.169c2.276,0.796,2.808,1.89,3.029,2.856c0.585,0.874,0.622,2.82-0.536,4.071
	c0.865,0.579,2.045,2.486,2.677,3.568l0.435,0.741l-0.336,0.793c0.084-0.045,0.257,0.451,0.436,0.886
	c2.501,2.514,3.568,6.012,4.09,7.722c0.1,0.336,0.175,0.598,0.24,0.753c0.291,0.364,0.439,1.036,0.612,1.814
	c0.096,0.443,0.211,0.98,0.403,1.579c0.234-0.34,0.543-0.702,0.909-1.131c0.271-0.321,0.562-0.644,0.729-0.894
	c0.148-0.728,0.663-1.289,1.123-1.794c0.078-0.083,0.156-0.162,0.224-0.242c-0.079-0.885,0.625-1.588,2.479-3.432
	c1.364-1.367,1.432-1.842,1.486-2.227c0.047-0.32,0.116-0.806,0.412-1.343c0.024-0.05,0.05-0.239,0.068-0.367
	c0.097-0.702,0.26-1.88,1.664-2.958c1.33-1.021,2.541-3.505,2.892-4.376C93.541,208.277,95.229,206.431,97.949,206.73"/>
<path fill="#FFFFFF" d="M154.479,120.502c-0.023-0.835-0.096-2.359-1.172-3.722c-0.043-0.054-0.063-0.11-0.107-0.163
	c-1.663-1.93-3.311-2.207-4.441-2.4c-0.726-0.141-1.479-0.115-2.143-0.098c-0.221,0.011-0.443,0.029-0.613,0.017
	c-0.516-0.343-1.131-0.447-1.693-0.543c-0.164-0.025-0.338-0.047-0.481-0.085c-0.597-0.518-1.632-0.901-3.284-1.158
	c-2.328,0.027-5.142,0.009-5.523-0.036c-0.213-0.055-0.444-0.084-0.836-0.118c-0.612-0.697-1.674-0.999-2.971-1.37
	c-0.428-0.121-1.076-0.306-1.139-0.32c-0.725-0.586-1.661-0.763-2.533-0.913l-0.094-0.047c-0.736-0.39-0.985-0.596-1.012-0.597
	c-0.471-1.194-0.924-1.811-2.53-2.886c-1.045-0.703-1.845-0.855-2.486-0.956c-0.812-0.581-1.868-0.668-2.663-0.673
	c-0.137-0.045-0.582-0.311-1.004-0.78c-0.824-0.937-2.298-1.31-3.053-1.444c-1.327-0.647-2.639-0.553-3.201-0.458
	c-0.637-0.023-1.953-0.033-2.736,0.247c0.063,0.058-0.338-0.073-0.738-0.238c-0.162-0.099-0.481-0.343-0.84-0.615
	c-0.41-0.306-0.858-0.638-1.231-0.896c-1.347-0.928-2.8-0.691-2.753-0.674c-2.663,0.027-5.904-0.122-6.947-0.337
	c-0.445-0.44-1.13-0.872-2.212-1.54c-0.806-0.493-2.157-1.321-2.478-1.726c-0.877-1.091-2.361-1.461-3.553-1.757
	c-0.224-0.056-0.435-0.102-0.615-0.154c-0.632-0.83-1.958-1.145-3.659-1.547c-0.592-0.144-1.487-0.354-1.624-0.405
	c-0.864-0.645-1.709-0.609-2.369-0.569c-0.817-0.407-1.803-0.279-2.772-0.155c-0.185,0.025-0.362,0.053-0.52,0.069
	c-0.386-0.219-0.944-0.368-1.678-0.299c-0.956,0.081-2.119,0.515-2.681,1.467c-0.571,0.44-2.523,1.365-3.381,1.775l-1.474,0.649
	c-0.995,0.378-2.605,1.474-2.881,4.422c-0.022,0.229-0.053,0.444-0.058,0.697c-0.018,1.182-0.246,2.218-0.425,2.881
	c-28.393-4.092-48.941,4.106-60.668,11.171L2.19,215.41c13.469,8.207,32.553,16.482,59.477,9.352
	c4.437-1.175,8.799-2.38,13.137-3.579c0.4,0.742,0.734,1.474,0.988,2.166c0.247,0.675,0.457,1.308,0.605,1.797
	c0.237,0.782,0.37,1.209,0.578,1.489c0.085,0.195,0.132,0.474,0.206,0.816c0.157,0.719,0.375,1.701,0.826,2.828
	c0.666,1.682,1.71,2.121,2.47,2.192c0.074,0.004,0.144,0.008,0.214,0.009c1.571,0.016,2.607-1.425,2.896-1.881l0.212-0.42
	c0.157-0.222,0.411-0.505,0.658-0.8c0.725-0.854,1.278-1.509,1.449-2.233c0.089-0.117,0.207-0.232,0.319-0.354
	c0.474-0.519,1.009-1.103,1.121-1.896l0.008-0.15c0.203-0.232,0.623-0.678,1.469-1.52c2.01-2.01,2.309-3.122,2.472-4.327
	c0.082-0.146,0.111-0.278,0.165-0.418c0.168-0.433,0.259-0.84,0.303-1.147c0.061-0.458,0.065-0.485,0.355-0.706
	c0.021-0.017,0.039-0.038,0.06-0.054c14.464-3.604,28.994-6.314,44.73-6.156c16.381,0.164,30.512,2.596,43.251,9.055l1.067-106.603
	c-7.492,3.867-16.346,7.143-26.659,8.7C154.564,121.179,154.544,120.806,154.479,120.502 M88.364,216.865
	c-0.018,0.127-0.043,0.316-0.067,0.366c-0.297,0.537-0.365,1.022-0.412,1.343c-0.054,0.386-0.123,0.86-1.486,2.227
	c-1.854,1.844-2.558,2.547-2.48,3.432c-0.068,0.08-0.145,0.159-0.223,0.242c-0.461,0.505-0.976,1.066-1.124,1.794
	c-0.166,0.25-0.458,0.572-0.729,0.894c-0.366,0.429-0.674,0.791-0.909,1.131c-0.191-0.599-0.307-1.135-0.403-1.579
	c-0.173-0.778-0.32-1.45-0.611-1.814c-0.066-0.155-0.14-0.417-0.241-0.753c-0.522-1.71-1.589-5.208-4.089-7.722
	c-0.18-0.435-0.353-0.931-0.437-0.885l0.336-0.794l-0.434-0.741c-0.633-1.082-1.813-2.989-2.678-3.568
	c1.158-1.251,1.121-3.196,0.537-4.071c-0.222-0.967-0.753-2.061-3.03-2.856c-1.175-0.41-3.976,0.057-4.202,0.169
	c-0.687,0.087-2.943-0.1-3.416-0.406c-1.098-1.025-5.03-2.415-7.608-1.57c-0.925-0.95-2.658-1.172-3.854-1.063
	c-0.989,0.087-1.733,0.392-2.214,0.912c-0.494,0.243-1.952,0.631-2.724,0.167l-0.571-0.216c-0.793-0.14-3.492-0.501-4.833,0.919
	c-0.365,0.308-1.855,0.601-2.565,0.654c-1.464-0.313-3.575-0.646-5.409-0.074c-0.059-0.164-0.104-0.362-0.129-0.527
	c0.644-1.439,1.731-4.24,2.327-6.924c0.107-0.268,1.015-2.693-0.101-5.996c-0.683-2.018-0.572-2.682-0.066-3.414
	c0.272-0.396,0.605-0.845,0.941-1.301c1.311-1.769,2.058-2.816,2.158-3.771c0.036-0.227,0.157-0.581,0.281-0.968
	c0.439-1.406,0.711-2.391,0.516-3.013c0.04-0.308,0.452-1.027,0.514-1.124c0.037-0.014,3.341-1.146,3.559-3.217
	c0.27-0.256,0.78-0.633,1.05-0.83l0.375-0.277c0.992-0.761,1.24-1.777,1.401-2.452c0.045-0.19,0.119-0.48,0.156-0.541
	c1.427-1.376,2.234-5.353,2.26-7.581c0.081-0.391,0.764-1.744,1.263-2.729c1.213-2.403,2.591-5.126,2.671-7.108
	c0.018-0.476,0.11-1.362,0.218-2.427c0.391-3.885,0.663-6.97,0.292-8.414c-0.244-0.981,1.221-4.141,2.013-4.669
	c1.766-1.081,6.213-6.956,6.99-8.231c0.606-0.984,0.729-1.543,0.871-2.398l0.433-0.703c0.888-1.421,1.725-2.763,1.655-4.107
	c-0.063-0.998,0.1-3.579,0.491-4.497c0.494-1.157,0.683-2.696,0.836-3.934c0.062-0.508,0.104-0.94,0.169-1.164
	c0.231-0.657,0.264-1.199,0.296-1.725c0.048-0.783,0.108-1.757,0.948-3.997c0.031-0.086,0.812-2.212,0.851-4.741
	c0.017-1.065,0.293-1.802,0.696-1.956l1.763-0.769c2.958-1.408,4.188-2.092,4.729-2.897c0.716,0.419,1.648,0.301,2.496,0.192
	c0.272-0.037,0.698-0.09,0.936-0.097c0.693,0.355,1.35,0.281,1.71,0.164c0.578,0.436,1.43,0.651,2.887,0.994
	c0.522,0.126,1.334,0.318,1.768,0.466c0.535,0.746,1.551,1.001,2.469,1.229c0.482,0.121,1.484,0.369,1.706,0.576
	c0.692,0.868,2.047,1.699,3.355,2.502c0.557,0.341,1.398,0.858,1.455,0.862c0.464,0.799,0.855,1.509,9.796,1.498
	c0.091-0.005,0.354-0.019,0.515,0.093c0.336,0.231,0.745,0.54,1.117,0.818c0.928,0.693,1.184,0.88,1.559,1.014
	c0.539,0.243,1.816,0.802,3.08,0.362c0.246-0.077,1.08-0.116,1.756-0.079l0.259,0.013l0.245-0.062c0.01,0,0.695-0.127,1.267,0.204
	l0.628,0.214c0.495,0.069,1.126,0.266,1.266,0.371c0.778,0.872,2.111,1.894,3.308,1.906c0.673,0.01,0.924,0.076,0.866,0.008
	c0.576,0.508,1.184,0.602,1.586,0.663c0.32,0.046,0.572,0.086,1.051,0.405c1.005,0.674,1.037,0.754,1.256,1.313
	c0.51,1.254,1.924,1.999,2.674,2.388c0.375,0.252,0.75,0.316,1.182,0.387c0.209,0.035,0.701,0.117,0.818,0.179
	c0.512,0.407,1.223,0.625,2.348,0.945c0.414,0.121,1.07,0.308,1.393,0.441c0.714,0.942,1.816,1.021,2.475,1.063
	c0.234,0.065,0.772,0.206,6.135,0.129c0.516,0.089,1.168,0.266,1.152,0.182c0.611,0.753,1.557,0.91,2.316,1.038
	c0.134,0.022,0.266,0.04,0.378,0.065c0.715,0.565,1.681,0.536,2.604,0.505c0.482-0.016,1.031-0.03,1.362,0.033l0.345,0.061
	c0.646,0.11,1.314,0.224,2.168,1.211c0.414,0.483,0.435,1.186,0.453,1.753c0.01,0.331,0.02,0.644,0.084,0.871
	c0.037,0.272-0.045,1.145-0.091,1.319c-0.419,0.746-0.804,1.744-0.474,3.513c0.128,0.651,0.264,1.081,0.404,1.397
	c-0.032,0.32-0.006,0.586,0.043,0.82c0,0-0.017-0.01-0.027,0c-0.395,0.646-1.209,1.987-0.094,4.311
	c0.07,0.145,0.182,0.34,0.32,0.572c0.236,0.398,0.566,0.944,0.695,1.461c0.145,0.571,0.094,1.25,0.066,1.659l-0.021,0.351
	c-0.007,0.449-0.034,1.809,0.919,3.594c0.276,0.522,0.491,0.825,0.7,1.065c0.006,0.034,0.028,0.188,0.019,0.717
	c-0.004,0.107-0.031,0.241-0.057,0.391c-0.097,0.592-0.238,1.452-0.061,2.341c-0.01,0.593,0.117,1.656,0.844,3.1
	c0.223,0.445-0.417,1.169-0.596,1.273c-0.653,0.292-4.351,2.191-5.451,2.756l-1.565,0.121l-2.375,1.661
	c-0.624,0.443-1.284,1.466-1.097,2.884c0.043,0.375-0.111,1.979-0.326,3.427l-0.066,0.23l0.074,0.315
	c0.004,0.054,0.01,0.339-0.339,0.7c-1.134,1.175-1.839,2.359-1.839,2.359c-0.462,0.643-1.079,1.373-1.23,1.498l-0.441,0.268
	l-0.223,0.46c-0.326,0.674-0.976,1.783-1.354,2.119c-0.25,0.223-0.501,0.509-0.772,0.82c-0.468,0.541-0.908,1.053-1.513,1.271
	c-1.17,0.427-5.178,2.986-5.118,5.412c-0.246,0.339-0.851,0.926-1.807,1.75c-0.236,0.201-0.423,0.365-0.719,0.559
	c-0.795,0.458-2.453,1.406-3.006,3.795l-0.221,0.973c-0.33,1.471-0.568,2.53-1.047,3.152c-0.447,0.575-1.3,1.021-1.583,1.139
	l-0.37,0.211c-0.988,0.734-2.685,2.181-2.906,3.612c-0.068,0.414-0.682,1.47-0.717,1.577l-0.521,0.3l-0.221,0.561
	c0,0-0.353,0.76-1.123,1.061c-0.631,0.248-1.35,0.73-2.187,1.291c-0.651,0.437-1.871,1.251-2.241,1.331
	c-1.226,0.055-4.113,1.657-5.183,3.22h-0.004c0,0-1.218,1.445-2.218,2.716c-0.094,0.041-0.209,0.091-0.336,0.144
	c-1.061,0.458-2.658,1.146-3.637,2.492c-0.729,1.004-0.98,1.303-2.099,1.185c-2.72-0.299-4.406,1.547-5.029,2.801
	c-0.35,0.87-1.561,3.354-2.891,4.375C88.624,214.984,88.462,216.162,88.364,216.865 M74.986,94.486
	c-0.01,0.021-0.017,0.037-0.017,0.05l-0.014-0.003C74.966,94.516,74.976,94.503,74.986,94.486"/>
<g opacity="0.31" enable-background="new    ">
	<g>
		<defs>
			<rect id="SVGID_9_" x="119.535" y="30.078" width="56" height="270"/>
		</defs>
		<clipPath id="SVGID_10_">
			<use xlink:href="#SVGID_9_"  overflow="visible"/>
		</clipPath>
		<g clip-path="url(#SVGID_10_)">
			<defs>
				<rect id="SVGID_11_" x="120.326" y="30.217" width="55.048" height="269.24"/>
			</defs>
			<clipPath id="SVGID_12_">
				<use xlink:href="#SVGID_11_"  overflow="visible"/>
			</clipPath>
			<path clip-path="url(#SVGID_12_)" fill="#FFFFFF" d="M166.644,37.371c6.321,5.262,7.453,14.394,7.903,22.606
				c0.836,15.191,0.91,30.424,0.227,45.623c-0.969,21.527-3.462,42.993-3.479,64.542c-0.026,37.394,7.395,74.941,2.279,111.984
				c-0.766,5.549-2.234,11.713-7.003,14.653c-3.077,1.899-6.893,2.015-10.509,2.076c-11.912,0.199-23.824,0.397-35.736,0.597
				c5.219-2.412,11.324-1.387,16.992-2.359c9.686-1.661,17.576-9.241,21.906-18.063c4.33-8.823,5.605-18.807,6.299-28.61
				c3.594-50.752-6.752-101.833-1.938-152.484c1.191-12.547,3.3-25.325,0.567-37.629c-2.528-11.393-11.09-25.941-22.735-29.108
				C148.31,28.347,160.281,32.076,166.644,37.371"/>
		</g>
	</g>
</g>
<path fill="#FFFFFF" d="M117.305,157.147l2.428-9.415c0.057-0.29-0.209-0.396-0.447-0.396l-0.609-0.002l0.307-1.175l5.916-0.007
	l-0.317,1.174l-0.67,0.007c-0.261-0.001-0.394,0.137-0.5,0.356l-2.948,10.976c0,0-0.261,1.521,1.887,1.531
	c2.148,0.008,2.791-0.691,2.992-1.387l3.09-11.062c0.057-0.22-0.201-0.421-0.439-0.422l-0.471,0.006l0.31-1.18l2.849,0.002
	l-0.314,1.172l-0.333,0.001c-0.259-0.001-0.503,0.124-0.565,0.358l-3.094,11.089c-0.355,1.058-1.549,2.32-4.158,2.33
	C120.148,161.109,116.367,160.729,117.305,157.147"/>
<path fill="#FFFFFF" d="M133.602,160.822l-5.898,0.008l0.316-1.189l0.61-0.004c0.261,0.001,0.485-0.176,0.594-0.395l3.204-11.506
	c0.051-0.194-0.197-0.404-0.438-0.404l-0.467-0.002l0.313-1.175l5.882-0.005l-0.317,1.172l-0.594-0.004
	c-0.261-0.004-0.486,0.15-0.594,0.366l-3.196,11.42c-0.003,0.029-0.008,0.06-0.008,0.09c-0.001,0.237,0.19,0.437,0.431,0.439
	l0.471,0.002l-0.309,1.188V160.822z"/>
<path fill="#FFFFFF" d="M57.979,146.175l10.749-0.003v0.011l-1.477,5.147l-0.998-0.004v-0.001l0.561-2.077
	c0.138-0.536,0.358-2.021-1.091-1.898l-0.76-0.005l-3.315,11.782c-0.007,0.028-0.011,0.056-0.011,0.089
	c0.001,0.238,0.196,0.436,0.432,0.439l0.472,0.002l-0.309,1.172v0.017l-5.898,0.004l0.333-1.22l0.594,0.003
	c0.261,0,0.486-0.15,0.592-0.37l3.322-11.917l-1.028,0.005c-1.012-0.056-1.618,0.934-1.795,1.464
	c-0.077,0.229-0.803,2.349-0.803,2.349l-0.938-0.007L57.979,146.175z"/>
<path fill="#FFFFFF" d="M111.283,153.664l-0.24,0.917l1.494,0.01c0,0,0.125-0.01,0.139,0.14c0.017,0.148-0.989,3.583-0.989,3.583
	c-0.369,0.955-1.067,1.681-2.124,1.69c0,0-1.777,0.083-1.96-1.876c-0.187-2.035,1.428-8.14,2.724-10.015
	c0,0,0.701-1.354,1.926-1.347c1.222,0.006,2.47,1.167,2.66,3.118c0.079,0.807,0.541,0.875,0.592,0.876
	c0.146,0.011,0.32-0.053,0.345-0.237c0.057-0.382,0.007-4.286,0.007-4.286s-0.081-0.462-0.514-0.136
	c-0.455,0.347-1.18,0.489-2.121,0c-0.526-0.276-2.194-0.357-3.19-0.08c-4.144,1.152-5.501,6.134-5.809,7.913
	c-0.61,3.498,0.286,6.26,3.403,7.05c0.264,0.069,1.551,0.307,3.272-0.444c0,0,1.758-1.017,3.204,0.442
	c0.197,0.201,0.256,0.069,0.322-0.032l1.99-7.258l-5.119-0.027"/>
<polygon fill="#FFFFFF" points="124.02,145.563 124.361,144.274 120.752,144.27 120.338,145.559 "/>
<polygon fill="#FFFFFF" points="130.826,145.56 131.17,144.271 128.354,144.272 127.942,145.559 "/>
<polygon fill="#FFFFFF" points="136.708,145.559 137.051,144.27 133.444,144.271 133.032,145.558 "/>
<path fill="#FFFFFF" d="M87.815,160.83c-0.521-0.011-1.105-0.387-1.498-1.017l-2.503-3.952c-0.106-0.131-0.32-0.125-0.391,0.058
	l-0.889,3.202c-0.005,0.028-0.008,0.056-0.011,0.089c0,0.237,0.193,0.437,0.432,0.439l0.635,0.002l-0.29,1.188l-6.046,0.005
	l-6.147-0.003l0.314-1.182l0.711-0.005c0.261,0.003,0.478-0.157,0.529-0.375l0.056-2.568c0-0.224-0.165-0.212-0.165-0.212
	l-4.181-0.021c0,0-0.163,0.039-0.231,0.164l-1.157,2.143c-0.317,0.614,0.019,0.877,0.259,0.883l0.511,0.005v0.006l-0.303,1.172
	l-3.633-0.005l-0.003-0.002l0.317-1.188l0.508,0.002c0,0,0.596,0.061,0.995-0.632l6.996-12.853l3.972-0.007v0.006l-0.319,12.92
	c0.063,0.241,0.35,0.526,0.573,0.553l0.681,0.011l0.61,0.002c0.261-0.031,0.484-0.182,0.592-0.4l3.187-11.465
	c0.051-0.235-0.174-0.445-0.413-0.445l-0.478-0.002l0.307-1.175c0,0,6.543-0.027,7.247,0.001c0.697,0.028,3.068,0.268,3.189,4.199
	c0.115,3.703-3.773,4.677-4.269,4.806c0,0-0.445,0.163-0.168,0.643l2.429,3.649c0.231,0.298,0.844,0.311,1.232-0.333l6.908-12.973
	l3.927,0.005l-0.037,13.121c0.009,0.264,0.19,0.356,0.567,0.349l0.922,0.011v-0.003l-0.297,1.172v0.022l-6.482-0.006l0.298-1.188
	l0.724,0.001c0.326-0.001,0.451-0.09,0.498-0.309l0.056-2.52c0.004-0.223-0.162-0.217-0.162-0.217l-4.181-0.017
	c0,0-0.164,0.039-0.231,0.164l-1.158,2.146c-0.317,0.61-0.054,0.752,0.31,0.75l0.494,0.002v0.003l-0.317,1.186l-5.008,0.002
	 M69.103,155.457l3.321,0.015c0.149,0,0.315-0.121,0.326-0.28l0.152-6.877c-0.008-0.16-0.171-0.178-0.255-0.023l-3.69,6.832
	C68.748,155.43,69.103,155.457,69.103,155.457 M85.102,154.191c1.308-0.059,2.187-1.181,2.775-3.292
	c0.642-2.311,0.099-3.583-0.959-3.729l-0.888-0.003c-0.143-0.004-0.168,0.038-0.206,0.203l-1.91,6.816L85.102,154.191z
	 M94.433,155.448l3.321,0.016c0.148,0,0.316-0.12,0.324-0.279l0.156-6.879c-0.011-0.159-0.176-0.177-0.261-0.024l-3.688,6.833
	C94.08,155.422,94.433,155.448,94.433,155.448"/>
</svg>
