<?xml version="1.0" encoding="utf-8"?>
<!-- Generator: Adobe Illustrator 16.0.0, SVG Export Plug-In . SVG Version: 6.00 Build 0)  -->
<!DOCTYPE svg PUBLIC "-//W3C//DTD SVG 1.1//EN" "http://www.w3.org/Graphics/SVG/1.1/DTD/svg11.dtd">
<svg version="1.1" id="Layer_1" xmlns="http://www.w3.org/2000/svg" xmlns:xlink="http://www.w3.org/1999/xlink" x="0px" y="0px"
	 width="284.558px" height="108.95px" viewBox="0 0 284.558 108.95" enable-background="new 0 0 284.558 108.95"
	 xml:space="preserve">
<g>
	<path fill="#FBEC06" d="M25.756,29.724v-1.392l-0.139-1.205c-0.046-0.232-0.046-0.417-0.046-0.51c0-0.278,0.093-0.789,0.186-1.438
		c0.139-0.742,0.232-1.345,0.232-1.901c0-0.278-0.046-0.742-0.093-1.299c-0.046-0.417-0.046-0.742-0.046-0.974
		c0-0.139,0.046-0.557,0.093-1.159v-0.371c0-0.324-0.186-0.557-0.371-0.557c-0.231,0-0.231,0.047-0.695,0.742l-0.371,0.464
		l-0.186,0.186c-0.834,0.834-1.02,1.02-1.159,1.298c-0.186,0.325-0.464,0.696-0.881,1.159C22,23,21.954,23.093,21.629,23.881
		c-0.695,1.484-1.53,2.087-2.921,2.087c-1.623,0-1.762-0.047-2.829-1.809c-0.186-0.371-0.51-0.742-1.53-1.809
		c-0.139-0.186-0.278-0.371-0.417-0.51c-0.417-0.557-0.742-1.113-1.113-1.67c-0.51-0.788-1.02-1.298-1.345-1.298
		c-0.232,0-0.417,0.278-0.417,0.695c0,0.139,0,0.139,0.139,1.206l-0.046,0.741c0.093,0.835,0.093,0.835,0.093,1.021
		c0,0.231,0,0.51-0.093,1.901c-0.046,0.51-0.046,0.928-0.046,1.391c0,0.232,0.046,0.511,0.093,0.789
		c0.093,0.463,0.139,0.788,0.139,0.834c0,0.093-0.046,0.371-0.139,0.789c-0.093,0.37-0.093,0.463-0.093,0.881v1.205
		c0,0.418,0,0.557,0.093,0.975c0,0.185,0.046,0.37,0.046,0.37c0,0.047-0.139,0.696-0.278,1.577
		c-0.046,0.139-0.046,0.278-0.046,0.417c0,0,0.093,0.695,0.325,2.041c0.093,0.695,0.139,1.205,0.139,1.438
		c0,1.159-0.557,1.622-1.855,1.622c-0.232,0-0.463-0.046-0.788-0.092c-0.417-0.047-0.789-0.093-0.881-0.093
		c-0.046,0-0.417,0.046-0.927,0.093H6.465c-1.206,0-1.854-0.742-1.854-2.134c0-0.417,0.093-0.881,0.231-1.298
		c0.186-0.371,0.278-0.649,0.278-0.696l-0.046-0.834l0.093-1.299c0-0.046-0.046-0.278-0.093-0.557l-0.046-1.02
		c0-0.464,0-0.789,0.046-1.159c0.093-0.604,0.139-1.067,0.139-1.206c0-0.047,0-0.231-0.046-0.51
		c-0.046-0.742-0.093-0.742-0.093-2.644l-0.093-1.716C4.935,23.278,4.935,23,4.935,22.86c0-0.093,0.046-0.464,0.093-0.974
		c0.093-1.298,0.093-1.854,0.093-5.101l0.046-0.557c0.046-0.788,0.093-1.345,0.093-1.391c0,0,0-0.14-0.046-0.278v-0.232l0.046-2.133
		c0-0.093-0.046-0.417-0.139-0.835C4.75,9.877,4.704,9.552,4.704,8.949c0-1.066,0.556-1.716,1.484-1.669l0.788,0.046l2.18-0.046
		c1.669,0,2.411,0.556,3.246,2.364c0.649,1.392,0.742,1.53,1.484,2.319l0.417,0.417l0.417,0.695
		c0.417,0.695,0.556,0.881,0.927,1.438c0.325,0.371,0.603,0.835,0.881,1.299c0.231,0.464,0.278,0.557,0.556,0.881
		c0.325,0.464,0.603,0.835,0.649,0.974l0.417,0.928c0.093,0.186,0.278,0.324,0.417,0.324c0.278,0,0.696-0.51,1.113-1.298
		c0.371-0.696,0.51-0.835,0.835-1.299c0.232-0.371,0.464-0.742,0.649-1.066c0.046-0.186,0.186-0.371,0.417-0.557l0.51-0.557
		c0.325-0.324,0.417-0.464,0.742-1.02c0.139-0.186,0.232-0.371,0.371-0.604c0.649-0.788,1.066-1.345,1.252-1.669
		c0.232-0.51,0.417-1.021,0.603-1.484c0.51-1.252,1.438-1.808,2.968-1.808c0.278,0,0.278,0,1.669,0.139
		c1.252-0.139,1.252-0.139,1.438-0.139c1.206,0,1.577,0.463,1.577,1.762c0,0.649-0.046,0.788-0.417,2.504
		c-0.139,0.557-0.232,1.484-0.232,2.133v0.557c0.046,0.695,0.093,1.206,0.093,1.299s0,0.278-0.046,0.51
		c-0.093,1.021-0.139,1.947-0.139,2.504c0,0.14,0,0.325,0.046,0.557v0.278c0,0.093-0.093,0.928-0.232,2.04
		c-0.046,0.232-0.046,0.464-0.046,0.649c0,0.231,0,0.464,0.046,0.695c0.139,0.835,0.232,1.392,0.232,1.484
		c0,0.046,0,0.278-0.046,0.557c-0.046,0.231-0.046,0.51-0.046,0.788c0,0.464,0,0.464,0.139,1.762v0.511c0,0.695,0,0.695-0.232,2.597
		c-0.046,0.278-0.046,0.464-0.046,0.648c0,0.186,0,0.418,0.046,0.604c0.093,0.464,0.139,0.834,0.139,0.881
		c0,0.046-0.046,0.278-0.093,0.603c-0.046,0.186-0.046,0.418-0.046,0.649c0,0.278,0,0.324,0.232,1.577
		c0.093,0.556,0.139,1.205,0.139,1.622c0,0.975-0.557,1.623-1.345,1.623c-0.186,0-0.186,0-1.298-0.139
		c-0.139-0.047-0.232-0.047-0.371-0.047c-0.186,0-0.186,0-0.834,0.186c-0.139,0.047-0.325,0.047-0.557,0.047
		c-1.345,0-2.458-0.881-2.365-1.901c0.139-1.901,0.231-2.875,0.231-2.921c0.232-0.975,0.278-1.299,0.278-2.227
		c0-0.603-0.046-1.112-0.093-1.623L25.756,29.724z"/>
	<path fill="#FBEC06" d="M52.885,33.248c-0.417,0.046-0.742,0.093-0.742,0.093c-0.046,0-0.231,0-0.51-0.047h-0.464
		c-0.417,0-0.417,0-1.901,0.186c-0.417,0.047-0.742,0.047-1.02,0.047c-0.371,0-0.834-0.047-1.345-0.14
		c-0.371-0.046-0.696-0.093-0.881-0.093c-1.484,0-2.551,1.252-2.597,2.922c0,1.438,0,1.438-0.325,1.947
		c-0.371,0.511-0.742,0.742-1.345,0.742c-0.324,0-0.742-0.047-1.206-0.093l-0.927-0.047c-0.232,0-0.649,0-1.345,0.047h-0.464
		c-0.974,0-1.53-0.464-1.53-1.206c0-0.463,0.232-1.112,0.696-1.993c0.324-0.557,0.51-0.975,0.556-1.113l0.232-0.974
		c0.093-0.278,0.232-0.604,0.417-0.974c0.371-0.742,0.649-1.484,0.881-2.272c0.186-0.881,0.371-1.716,0.557-2.551
		c0.093-0.278,0.232-0.649,0.649-1.716c0.325-0.834,0.649-1.809,0.974-2.968c0.186-0.603,0.371-1.112,0.556-1.483l0.603-1.392
		c0.278-0.834,0.464-1.345,0.927-2.921c0.093-0.325,0.186-0.649,0.278-1.021c0.093-0.324,0.046-0.139,0.186-0.464l0.232-0.649
		l0.232-0.788c0.232-0.974,0.324-1.205,0.927-2.735c0.325-0.928,0.557-1.577,0.557-1.67c0.603-1.994,0.881-2.272,2.504-2.272
		c0.186,0,0.417,0,0.649,0.047l0.695,0.046l1.716-0.046c0.186,0,0.788,0.417,1.113,0.742c0.232,0.231,0.417,0.695,0.649,1.53
		c0.093,0.231,0.232,0.603,0.417,1.205l0.557,1.345l0.974,2.134c0.371,0.788,0.557,1.438,0.742,2.411
		c0.139,0.742,0.139,0.835,0.557,1.809c0.185,0.231,0.278,0.557,0.371,0.927l0.278,1.159l0.371,0.975
		c0.139,0.51,0.278,0.974,0.371,1.391l0.186,0.788c0.092,0.325,0.278,0.649,0.463,1.113c0.232,0.464,0.139,0.231,0.325,0.695
		l0.51,1.392l0.185,0.974l0.232,0.557c0.093,0.231,0.186,0.464,0.232,0.695l0.325,1.392l0.232,0.603l0.464,1.066
		c0.139,0.371,0.278,0.742,0.371,1.066c0.139,0.464,0.278,0.835,0.464,1.113l0.603,1.02c0.371,0.696,0.603,1.484,0.603,2.087
		c0,0.696-0.325,1.066-1.02,1.066l-0.928-0.046c-0.603-0.093-1.066-0.14-1.345-0.14c-0.186,0-0.649,0.047-1.206,0.093
		c-0.417,0.047-0.788,0.093-1.113,0.093c-1.206,0-1.623-0.695-1.716-2.782c0-1.02-0.139-1.391-0.881-2.364
		c-0.278-0.418-0.649-0.557-1.345-0.557H52.885z M48.573,20.125c-0.417,1.159-0.51,1.345-0.742,2.18
		c-0.371,1.298-0.463,1.622-0.788,2.318c-0.325,0.742-0.325,0.742-0.881,2.643c0,0.371,0.696,0.835,1.252,0.835l1.484-0.046
		c0.046,0,0.231,0,0.51,0.046h0.557c0.325,0,0.556,0,0.742-0.046l0.325-0.047h0.928c0.278,0,0.695-0.51,0.695-0.835
		c0-0.231,0-0.231-0.464-1.205l-0.278-0.974l-0.186-0.882l-0.464-1.53l-0.232-0.927l-0.139-0.511
		c-0.139-0.788-0.325-1.345-0.417-1.669c-0.417-0.974-0.51-1.113-0.463-1.252c-0.046-0.232-0.186-0.788-0.371-1.577
		c-0.046-0.046-0.093-0.139-0.139-0.139L48.573,20.125z"/>
</g>
<g>
	<path fill="#FBEC06" d="M73.755,31.161c-0.325-0.464-0.557-0.649-0.696-0.649s-0.232,0.14-0.232,0.325c0,0.139,0,0.278,0.046,0.464
		c0.093,0.603,0.139,1.066,0.139,1.483v0.417c-0.046,0.371-0.046,0.649-0.046,0.742c0,0.649,0.139,1.901,0.325,2.829
		c0.046,0.093,0.046,0.231,0.046,0.417c0,0.464-0.139,1.021-0.417,1.345c-0.232,0.371-0.788,0.51-2.04,0.51
		c-0.093,0-0.093,0-1.298-0.139c-0.835,0.139-0.835,0.139-1.113,0.139c-1.159,0-1.947-0.788-1.947-1.993
		c0-0.418,0.046-0.742,0.231-1.623c0-0.14,0.093-1.16,0.186-2.922c-0.093-0.974-0.093-1.483-0.093-3.432l0.139-2.18
		c0,0-0.046-0.277-0.046-0.603c-0.046-0.417-0.093-0.881-0.093-1.252c0-0.603,0.046-1.113,0.186-1.623
		c0-0.139,0.046-0.278,0.046-0.278l-0.139-2.133c0-0.047,0.046-0.371,0.093-0.835c0.046-0.231,0.046-0.464,0.046-0.741
		c0-0.557,0-0.557-0.278-2.736c-0.046-0.603-0.093-1.066-0.093-1.438c0-0.324,0.046-0.835,0.093-1.53
		c0.046-0.51,0.093-0.835,0.093-1.113c0-0.371-0.046-0.927-0.186-1.576c-0.046-0.511-0.092-0.881-0.092-1.159
		c0-1.206,0.742-2.18,1.669-2.18c0.186,0,0.371,0,0.603,0.046c0.371,0.047,0.603,0.093,0.696,0.093c0.092,0,0.463-0.046,1.02-0.093
		c0.186-0.046,0.325-0.046,0.417-0.046c1.345,0,2.179,1.021,2.179,2.551c0,0.186-0.046,0.51-0.139,0.881
		c-0.046,0.139-0.046,0.186-0.046,0.231l0.046,1.716c0,0.047-0.046,0.14-0.093,0.325c-0.046,0.277-0.093,0.51-0.093,0.556
		c0.186,1.392,0.186,1.392,0.186,1.67c0,0.186,0,0.371-0.046,0.557c-0.046,0.324-0.093,0.556-0.093,0.603l0.093,1.159l-0.093,0.603
		c0.093,1.113,0.093,1.113,0.093,1.299c0,0.464-0.093,1.716-0.186,1.947c-0.046,0.14-0.046,0.278-0.046,0.418
		c0,0.185,0.093,0.324,0.186,0.324c0.139,0,0.139,0,0.603-1.159c0.093-0.186,0.186-0.325,0.325-0.464l0.463-0.695
		c0.464-0.742,0.789-1.159,1.16-1.716c0.417-0.557,0.417-0.603,0.788-1.159c0.557-1.021,0.742-1.299,1.206-1.901
		c0.417-0.464,0.742-0.928,1.021-1.438c0.742-1.159,0.881-1.392,1.669-2.504c0.417-0.604,0.464-0.696,0.974-2.041
		c0.417-1.02,1.298-1.716,2.179-1.716c0.186,0,0.417,0,0.603,0.047c0.417,0.093,0.742,0.139,0.834,0.139s0.371-0.046,0.742-0.093
		c0.232-0.046,0.463-0.093,0.649-0.093c1.252,0,1.948,0.464,1.948,1.206c0,0.835-0.417,1.716-1.206,2.551
		c-0.557,0.556-0.696,0.695-0.835,0.974c-0.185,0.324-0.417,0.881-0.556,1.298c-0.186,0.278-0.417,0.604-1.391,1.809l-0.186,0.278
		l-1.252,1.299c-0.232,0.278-0.278,0.371-1.252,1.716l-0.557,0.834c-0.186,0.278-0.417,0.557-0.603,0.882
		c-0.324,0.324-0.603,0.695-0.881,1.02c-1.066,1.206-2.968,3.941-2.968,4.267c0,0.417,0.695,1.112,2.689,2.735l0.417,0.464
		c0.742,0.881,0.927,1.066,1.252,1.299l0.696,0.649c0.649,0.603,1.298,1.205,1.994,1.9l1.206,1.113
		c0.186,0.231,0.417,0.51,0.649,0.742c0.093,0.231,0.325,0.417,0.649,0.557l0.649,0.463c0.834,0.557,1.762,1.763,1.762,2.272
		c0,0.557-0.371,0.974-0.835,0.974c-0.324,0-0.927,0.047-1.808,0.093c0,0-0.232-0.046-0.557-0.093
		c-0.417-0.093-0.881-0.139-1.716-0.139c-0.371,0-0.695,0-0.927,0.046c-0.417,0.047-0.742,0.047-0.881,0.047
		c-0.742,0-1.438-0.371-1.808-1.021c-0.464-0.834-0.51-0.927-0.928-1.345c-0.232-0.278-0.742-0.788-0.834-0.881
		c-0.417-0.324-0.835-0.788-1.345-1.392c-0.464-0.51-0.603-0.648-1.206-1.205c-0.51-0.464-0.881-0.835-1.021-1.021L73.755,31.161z"
		/>
</g>
<g>
	<path fill="#FBEC06" d="M102.599,38.813c-0.789,0-1.484,0-1.809-0.047c-1.577-0.092-2.689-0.185-2.736-0.185
		s-0.51,0.093-1.159,0.185c-0.51,0.093-1.021,0.14-1.484,0.14c-1.855,0-2.829-0.974-2.829-2.829c0-0.231,0.046-0.463,0.093-0.741
		c0.139-0.835,0.231-1.484,0.231-1.67c0-0.046-0.046-0.278-0.093-0.603c-0.093-0.557-0.139-1.345-0.139-2.04
		c0-1.067,0-1.206,0.231-2.782C92.954,27.915,93,27.498,93,26.987c0-0.51,0-0.51-0.093-2.597c-0.046-0.648-0.046-1.205-0.046-1.669
		c0-0.325,0-0.649,0.046-0.974l0.046-1.53c0-0.371-0.093-1.901-0.186-3.061v-0.464c0-0.324,0-0.324,0.139-2.782v-0.557
		c0-0.371,0-0.464-0.093-0.974c-0.046-0.603-0.046-0.603-0.093-1.252c0-0.232-0.046-0.788-0.139-1.763
		c0-0.927,1.02-1.716,2.133-1.716c0.278,0,0.696,0,1.206,0.047c0.278,0.046,0.557,0.046,0.789,0.046c0.278,0,0.278,0,1.669-0.093
		h0.742c0.51,0,0.974,0.047,1.438,0.093c0.51,0.047,0.835,0.093,0.881,0.093l1.484-0.046c1.484,0.139,1.484,0.139,2.04,0.139
		l1.855-0.046c0.603-0.047,1.066-0.093,1.345-0.093c1.02,0,1.716,0.649,1.716,1.576c0,0.232-0.046,0.464-0.093,0.742
		c-0.046,0.325-0.093,0.557-0.093,0.603c0,0.047,0.046,0.511,0.139,1.113c0.046,0.186,0.046,0.324,0.046,0.464
		c0,0.928-0.232,1.345-0.696,1.345c-0.278,0-0.695-0.047-1.252-0.186l-0.927-0.139c-0.974,0-1.113,0-1.252-0.047l-0.789-0.093
		h-0.927l-0.417-0.046l-2.875-0.047c-0.557,0-1.206,0.186-1.438,0.464c-0.325,0.324-0.649,1.345-0.649,1.947
		c0,0.557,0.278,1.716,0.464,1.948c0.232,0.278,1.021,0.556,1.577,0.556l1.345-0.046c0.835,0.139,0.835,0.139,1.345,0.186
		l0.742,0.046c0.232,0.047,0.417,0.047,0.51,0.047c0.186,0,0.186,0,1.16-0.093c0.556,0.046,1.298,0.139,2.226,0.231
		c0.649,0.047,1.252,0.604,1.252,1.113c0,0.046-0.046,0.278-0.139,0.603c-0.046,0.232-0.046,0.418-0.046,0.696
		c0,0.37,0.046,0.788,0.139,1.252c0.046,0.278,0.046,0.51,0.046,0.741c0,0.696-0.695,1.252-1.53,1.252
		c-0.093,0-0.788-0.139-1.994-0.417c-0.325-0.093-0.603-0.139-0.696-0.139c-0.046,0-0.371,0.046-0.834,0.093
		c-0.139,0.046-0.232,0.046-0.325,0.046c-0.186,0-0.186,0-0.834-0.093l-1.021,0.047c-0.046,0-0.232,0-0.463-0.047
		c-0.232-0.046-0.464-0.046-0.742-0.046c-0.695,0-1.252,0.231-1.669,0.648c-0.417,0.418-0.417,0.418-0.417,2.412l-0.046,1.066
		c-0.046,0.278-0.046,0.51-0.046,0.741c0,0.928,0.186,2.458,0.371,3.2c0.232,0.881,1.021,1.53,2.041,1.623
		c0.695,0.093,2.968,0.139,4.637,0.139c0.603,0,0.649,0,2.04-0.371c0.232-0.046,0.51-0.093,0.742-0.093
		c0.742,0,1.345,0.511,1.345,1.16c0,0.231-0.046,0.51-0.093,0.834c-0.093,0.325-0.139,0.604-0.139,0.789
		c0,0.185,0,0.185,0.232,1.298c0.046,0.232,0.093,0.464,0.093,0.695c0,0.928-0.603,1.345-1.901,1.345c-0.51,0-0.51,0-2.782-0.139
		c-0.278-0.047-0.51-0.047-0.927-0.047c-0.232,0-0.232,0-1.16,0.047H102.599z"/>
</g>
<g>
	<path fill="#FBEC06" d="M149.344,29.724v-1.392l-0.14-1.205c-0.046-0.232-0.046-0.417-0.046-0.51c0-0.278,0.092-0.789,0.186-1.438
		c0.139-0.742,0.231-1.345,0.231-1.901c0-0.278-0.046-0.742-0.093-1.299c-0.047-0.417-0.047-0.742-0.047-0.974
		c0-0.139,0.047-0.557,0.094-1.159v-0.371c0-0.324-0.186-0.557-0.371-0.557c-0.232,0-0.232,0.047-0.695,0.742l-0.371,0.464
		l-0.186,0.186c-0.835,0.834-1.021,1.02-1.16,1.298c-0.186,0.325-0.463,0.696-0.881,1.159c-0.277,0.232-0.324,0.325-0.648,1.113
		c-0.695,1.484-1.531,2.087-2.922,2.087c-1.623,0-1.762-0.047-2.829-1.809c-0.186-0.371-0.51-0.742-1.53-1.809
		c-0.139-0.186-0.278-0.371-0.417-0.51c-0.417-0.557-0.742-1.113-1.113-1.67c-0.51-0.788-1.02-1.298-1.345-1.298
		c-0.232,0-0.417,0.278-0.417,0.695c0,0.139,0,0.139,0.139,1.206l-0.046,0.741c0.093,0.835,0.093,0.835,0.093,1.021
		c0,0.231,0,0.51-0.093,1.901c-0.046,0.51-0.046,0.928-0.046,1.391c0,0.232,0.046,0.511,0.093,0.789
		c0.093,0.463,0.139,0.788,0.139,0.834c0,0.093-0.046,0.371-0.139,0.789c-0.093,0.37-0.093,0.463-0.093,0.881v1.205
		c0,0.418,0,0.557,0.093,0.975c0,0.185,0.046,0.37,0.046,0.37c0,0.047-0.139,0.696-0.278,1.577
		c-0.046,0.139-0.046,0.278-0.046,0.417c0,0,0.093,0.695,0.325,2.041c0.093,0.695,0.139,1.205,0.139,1.438
		c0,1.159-0.557,1.622-1.855,1.622c-0.232,0-0.463-0.046-0.788-0.092c-0.417-0.047-0.789-0.093-0.881-0.093
		c-0.046,0-0.417,0.046-0.927,0.093h-0.464c-1.206,0-1.854-0.742-1.854-2.134c0-0.417,0.093-0.881,0.231-1.298
		c0.186-0.371,0.278-0.649,0.278-0.696l-0.046-0.834l0.093-1.299c0-0.046-0.046-0.278-0.093-0.557l-0.046-1.02
		c0-0.464,0-0.789,0.046-1.159c0.093-0.604,0.139-1.067,0.139-1.206c0-0.047,0-0.231-0.046-0.51
		c-0.046-0.742-0.093-0.742-0.093-2.644l-0.093-1.716c-0.046-0.324-0.046-0.603-0.046-0.742c0-0.093,0.046-0.464,0.093-0.974
		c0.093-1.298,0.093-1.854,0.093-5.101l0.046-0.557c0.046-0.788,0.093-1.345,0.093-1.391c0,0,0-0.14-0.046-0.278v-0.232l0.046-2.133
		c0-0.093-0.046-0.417-0.139-0.835c-0.371-1.483-0.417-1.809-0.417-2.411c0-1.066,0.556-1.716,1.484-1.669l0.788,0.046l2.18-0.046
		c1.669,0,2.411,0.556,3.246,2.364c0.649,1.392,0.742,1.53,1.484,2.319l0.417,0.417l0.417,0.695
		c0.417,0.695,0.556,0.881,0.927,1.438c0.325,0.371,0.603,0.835,0.881,1.299c0.231,0.464,0.278,0.557,0.556,0.881
		c0.325,0.464,0.603,0.835,0.649,0.974l0.417,0.928c0.093,0.186,0.278,0.324,0.417,0.324c0.278,0,0.696-0.51,1.113-1.298
		c0.371-0.696,0.511-0.835,0.835-1.299c0.232-0.371,0.464-0.742,0.648-1.066c0.047-0.186,0.186-0.371,0.418-0.557l0.51-0.557
		c0.325-0.324,0.418-0.464,0.742-1.02c0.139-0.186,0.232-0.371,0.371-0.604c0.649-0.788,1.066-1.345,1.252-1.669
		c0.232-0.51,0.418-1.021,0.604-1.484c0.51-1.252,1.438-1.808,2.967-1.808c0.279,0,0.279,0,1.67,0.139
		c1.252-0.139,1.252-0.139,1.438-0.139c1.205,0,1.576,0.463,1.576,1.762c0,0.649-0.046,0.788-0.417,2.504
		c-0.14,0.557-0.231,1.484-0.231,2.133v0.557c0.046,0.695,0.092,1.206,0.092,1.299s0,0.278-0.046,0.51
		c-0.093,1.021-0.14,1.947-0.14,2.504c0,0.14,0,0.325,0.047,0.557v0.278c0,0.093-0.093,0.928-0.232,2.04
		c-0.046,0.232-0.046,0.464-0.046,0.649c0,0.231,0,0.464,0.046,0.695c0.14,0.835,0.232,1.392,0.232,1.484
		c0,0.046,0,0.278-0.047,0.557c-0.046,0.231-0.046,0.51-0.046,0.788c0,0.464,0,0.464,0.14,1.762v0.511c0,0.695,0,0.695-0.232,2.597
		c-0.047,0.278-0.047,0.464-0.047,0.648c0,0.186,0,0.418,0.047,0.604c0.093,0.464,0.139,0.834,0.139,0.881
		c0,0.046-0.046,0.278-0.092,0.603c-0.047,0.186-0.047,0.418-0.047,0.649c0,0.278,0,0.324,0.232,1.577
		c0.092,0.556,0.139,1.205,0.139,1.622c0,0.975-0.557,1.623-1.345,1.623c-0.186,0-0.186,0-1.298-0.139
		c-0.14-0.047-0.232-0.047-0.371-0.047c-0.186,0-0.186,0-0.835,0.186c-0.14,0.047-0.325,0.047-0.557,0.047
		c-1.345,0-2.458-0.881-2.364-1.901c0.139-1.901,0.23-2.875,0.23-2.921c0.232-0.975,0.279-1.299,0.279-2.227
		c0-0.603-0.047-1.112-0.094-1.623L149.344,29.724z"/>
</g>
<g>
	<path fill="#FBEC06" d="M176.473,33.248c-0.417,0.046-0.742,0.093-0.742,0.093c-0.046,0-0.23,0-0.51-0.047h-0.463
		c-0.418,0-0.418,0-1.902,0.186c-0.416,0.047-0.741,0.047-1.02,0.047c-0.371,0-0.834-0.047-1.345-0.14
		c-0.371-0.046-0.696-0.093-0.881-0.093c-1.484,0-2.551,1.252-2.597,2.922c0,1.438,0,1.438-0.325,1.947
		c-0.37,0.511-0.741,0.742-1.345,0.742c-0.324,0-0.742-0.047-1.205-0.093l-0.928-0.047c-0.232,0-0.649,0-1.345,0.047h-0.464
		c-0.974,0-1.53-0.464-1.53-1.206c0-0.463,0.231-1.112,0.696-1.993c0.324-0.557,0.51-0.975,0.556-1.113l0.231-0.974
		c0.094-0.278,0.232-0.604,0.418-0.974c0.371-0.742,0.648-1.484,0.881-2.272c0.186-0.881,0.371-1.716,0.557-2.551
		c0.093-0.278,0.232-0.649,0.648-1.716c0.325-0.834,0.65-1.809,0.975-2.968c0.186-0.603,0.371-1.112,0.557-1.483l0.603-1.392
		c0.278-0.834,0.464-1.345,0.927-2.921c0.094-0.325,0.186-0.649,0.279-1.021c0.092-0.324,0.046-0.139,0.186-0.464l0.231-0.649
		l0.231-0.788c0.232-0.974,0.324-1.205,0.928-2.735c0.324-0.928,0.557-1.577,0.557-1.67c0.603-1.994,0.881-2.272,2.504-2.272
		c0.186,0,0.418,0,0.649,0.047l0.695,0.046l1.716-0.046c0.186,0,0.788,0.417,1.113,0.742c0.231,0.231,0.417,0.695,0.648,1.53
		c0.094,0.231,0.232,0.603,0.418,1.205l0.557,1.345l0.973,2.134c0.371,0.788,0.557,1.438,0.742,2.411
		c0.14,0.742,0.14,0.835,0.557,1.809c0.186,0.231,0.278,0.557,0.371,0.927l0.278,1.159l0.371,0.975
		c0.14,0.51,0.278,0.974,0.371,1.391l0.186,0.788c0.093,0.325,0.278,0.649,0.464,1.113c0.231,0.464,0.139,0.231,0.324,0.695
		l0.51,1.392l0.186,0.974l0.232,0.557c0.092,0.231,0.186,0.464,0.231,0.695l0.325,1.392l0.231,0.603l0.464,1.066
		c0.139,0.371,0.277,0.742,0.371,1.066c0.139,0.464,0.277,0.835,0.463,1.113l0.604,1.02c0.371,0.696,0.603,1.484,0.603,2.087
		c0,0.696-0.325,1.066-1.021,1.066l-0.928-0.046c-0.602-0.093-1.066-0.14-1.344-0.14c-0.186,0-0.649,0.047-1.206,0.093
		c-0.417,0.047-0.788,0.093-1.112,0.093c-1.206,0-1.623-0.695-1.717-2.782c0-1.02-0.139-1.391-0.881-2.364
		c-0.277-0.418-0.648-0.557-1.344-0.557H176.473z M172.16,20.125c-0.417,1.159-0.51,1.345-0.742,2.18
		c-0.37,1.298-0.463,1.622-0.787,2.318c-0.325,0.742-0.325,0.742-0.882,2.643c0,0.371,0.696,0.835,1.253,0.835l1.483-0.046
		c0.046,0,0.231,0,0.51,0.046h0.557c0.325,0,0.556,0,0.741-0.046l0.325-0.047h0.928c0.278,0,0.695-0.51,0.695-0.835
		c0-0.231,0-0.231-0.464-1.205l-0.277-0.974l-0.186-0.882l-0.465-1.53l-0.231-0.927l-0.14-0.511
		c-0.139-0.788-0.324-1.345-0.417-1.669c-0.417-0.974-0.51-1.113-0.464-1.252c-0.046-0.232-0.186-0.788-0.371-1.577
		c-0.046-0.046-0.092-0.139-0.139-0.139L172.16,20.125z"/>
</g>
<g>
	<path fill="#FBEC06" d="M198.779,21.608c0,0.186,0,0.464-0.047,0.742l-0.046,1.066c0,0.371,0.046,0.788,0.093,1.252
		c0.139,0.788,0.232,1.438,0.232,1.763l-0.047,0.648c-0.139,0.835-0.186,1.345-0.186,1.67c0,1.809,0.093,4.637,0.186,5.193
		c0.186,1.252,0.278,2.133,0.278,2.736c0,1.483-0.464,2.226-1.483,2.226c-0.186,0-0.371,0-0.604-0.047
		c-0.417-0.046-0.742-0.046-0.788-0.046c-1.53,0.093-1.53,0.093-1.809,0.093c-1.669,0-2.134-0.649-2.134-3.015
		c0-0.417,0.047-0.927,0.14-1.483c0.14-1.113,0.186-1.345,0.186-1.854l0.14-1.948c0-0.186,0-0.186-0.14-3.014l-0.046-2.087
		c0-1.021,0.046-2.18,0.186-3.432c0.046-0.278,0.046-0.417,0.046-0.464c-0.093-1.483-0.231-3.106-0.325-4.776l0.047-1.576
		c0-1.252-0.742-2.04-1.994-2.04c-0.417,0-0.417,0-1.529,0.278c-0.371,0.092-0.742,0.139-1.16,0.139
		c-1.205,0-1.947-0.742-1.947-1.994c0-0.186,0-0.371,0.047-0.603l0.046-0.464V8.903c0-0.789,0.927-1.253,2.504-1.253
		c0.417,0,0.835,0.047,1.577,0.14c0.51,0.046,0.881,0.093,1.112,0.093c0.186,0,0.464,0,0.742-0.047
		c0.788-0.093,1.392-0.139,1.623-0.139s0.695,0.046,1.345,0.093c0.603,0.046,1.113,0.093,1.484,0.093
		c0.463,0,1.066-0.047,1.762-0.14c0.648-0.046,1.159-0.093,1.391-0.093c0.278,0,0.742,0.047,1.346,0.093
		c0.463,0.047,0.787,0.093,1.066,0.093c0.277,0,0.695-0.046,1.205-0.093c0.371-0.046,0.649-0.093,0.928-0.093
		c0.324,0,0.648,0.186,0.974,0.557c0.464,0.511,0.51,0.604,0.51,1.623l0.14,0.835c0.092,0.603,0.139,1.066,0.139,1.391
		c0,0.789-0.974,1.855-1.67,1.763c-1.344-0.186-2.133-0.278-2.318-0.324c-0.463-0.093-0.927-0.14-1.391-0.14
		c-1.299,0-1.947,0.557-1.947,1.669c0,0.278,0,0.557,0.046,0.882c0.093,0.51,0.14,0.881,0.14,0.974c0,0.603-0.047,2.551-0.094,3.432
		L198.779,21.608z"/>
	<path fill="#FBEC06" d="M220.065,38.813c-0.788,0-1.483,0-1.809-0.047c-1.577-0.092-2.689-0.185-2.735-0.185
		c-0.047,0-0.511,0.093-1.16,0.185c-0.51,0.093-1.02,0.14-1.483,0.14c-1.854,0-2.829-0.974-2.829-2.829
		c0-0.231,0.047-0.463,0.094-0.741c0.139-0.835,0.23-1.484,0.23-1.67c0-0.046-0.046-0.278-0.092-0.603
		c-0.093-0.557-0.139-1.345-0.139-2.04c0-1.067,0-1.206,0.23-2.782c0.047-0.325,0.094-0.742,0.094-1.253c0-0.51,0-0.51-0.094-2.597
		c-0.046-0.648-0.046-1.205-0.046-1.669c0-0.325,0-0.649,0.046-0.974l0.047-1.53c0-0.371-0.093-1.901-0.186-3.061v-0.464
		c0-0.324,0-0.324,0.139-2.782v-0.557c0-0.371,0-0.464-0.092-0.974c-0.047-0.603-0.047-0.603-0.093-1.252
		c0-0.232-0.046-0.788-0.14-1.763c0-0.927,1.021-1.716,2.133-1.716c0.279,0,0.696,0,1.206,0.047
		c0.278,0.046,0.557,0.046,0.788,0.046c0.279,0,0.279,0,1.67-0.093h0.742c0.51,0,0.974,0.047,1.438,0.093
		c0.51,0.047,0.834,0.093,0.881,0.093l1.484-0.046c1.483,0.139,1.483,0.139,2.039,0.139l1.855-0.046
		c0.604-0.047,1.066-0.093,1.345-0.093c1.021,0,1.716,0.649,1.716,1.576c0,0.232-0.047,0.464-0.093,0.742
		c-0.046,0.325-0.093,0.557-0.093,0.603c0,0.047,0.047,0.511,0.139,1.113c0.047,0.186,0.047,0.324,0.047,0.464
		c0,0.928-0.232,1.345-0.695,1.345c-0.278,0-0.695-0.047-1.252-0.186l-0.928-0.139c-0.974,0-1.113,0-1.252-0.047l-0.789-0.093
		h-0.927l-0.417-0.046l-2.875-0.047c-0.557,0-1.206,0.186-1.438,0.464c-0.325,0.324-0.649,1.345-0.649,1.947
		c0,0.557,0.278,1.716,0.464,1.948c0.231,0.278,1.02,0.556,1.576,0.556l1.345-0.046c0.835,0.139,0.835,0.139,1.345,0.186
		l0.742,0.046c0.232,0.047,0.418,0.047,0.51,0.047c0.186,0,0.186,0,1.16-0.093c0.556,0.046,1.298,0.139,2.225,0.231
		c0.65,0.047,1.252,0.604,1.252,1.113c0,0.046-0.046,0.278-0.139,0.603c-0.047,0.232-0.047,0.418-0.047,0.696
		c0,0.37,0.047,0.788,0.14,1.252c0.046,0.278,0.046,0.51,0.046,0.741c0,0.696-0.695,1.252-1.529,1.252
		c-0.094,0-0.789-0.139-1.994-0.417c-0.324-0.093-0.604-0.139-0.695-0.139c-0.047,0-0.371,0.046-0.835,0.093
		c-0.14,0.046-0.231,0.046-0.325,0.046c-0.186,0-0.186,0-0.834-0.093l-1.021,0.047c-0.046,0-0.231,0-0.464-0.047
		c-0.231-0.046-0.463-0.046-0.742-0.046c-0.695,0-1.252,0.231-1.669,0.648c-0.417,0.418-0.417,0.418-0.417,2.412l-0.047,1.066
		c-0.046,0.278-0.046,0.51-0.046,0.741c0,0.928,0.185,2.458,0.37,3.2c0.232,0.881,1.021,1.53,2.041,1.623
		c0.695,0.093,2.968,0.139,4.637,0.139c0.604,0,0.649,0,2.041-0.371c0.231-0.046,0.51-0.093,0.742-0.093
		c0.741,0,1.344,0.511,1.344,1.16c0,0.231-0.046,0.51-0.092,0.834c-0.094,0.325-0.14,0.604-0.14,0.789c0,0.185,0,0.185,0.231,1.298
		c0.047,0.232,0.094,0.464,0.094,0.695c0,0.928-0.604,1.345-1.902,1.345c-0.51,0-0.51,0-2.781-0.139
		c-0.279-0.047-0.511-0.047-0.928-0.047c-0.232,0-0.232,0-1.16,0.047H220.065z M214.965,5.193c-0.835,0-1.299-0.325-1.299-0.974
		c0-0.418,0.047-0.557,0.649-1.484c0.324-0.51,0.51-0.974,0.649-1.483C215.242,0.231,215.475,0,216.217,0h0.463
		c0.465,0.046,0.882,0.093,1.021,0.093c0.046,0,0.231,0,0.511-0.047L219.602,0c0.835,0,1.391,0.37,1.391,0.927
		c0,0.696-0.139,0.835-2.039,2.411c-0.325,0.325-0.65,0.649-0.928,1.021c-0.742,0.788-0.835,0.881-1.206,0.881
		c-0.14,0-0.14,0-0.881-0.093c-0.046,0-0.325,0-0.742,0.047H214.965z"/>
</g>
<g>
	<path fill="#FBEC06" d="M247.844,38.813c-1.205,0-1.809-0.695-1.809-2.133c0-0.649,0-0.649,0.278-2.272
		c0.046-0.14,0.046-0.278,0.046-0.464v-0.417c-0.139-1.066-0.186-1.855-0.186-1.994v-0.324l0.094-1.53c0-0.649,0-0.649,0.139-2.227
		l-0.232-4.358l0.186-3.988c-0.092-1.762-0.092-1.762-0.186-3.663c0-0.093,0.047-0.418,0.094-0.835
		c0.046-0.417,0.092-0.742,0.092-1.066c0-0.186,0-0.186-0.046-0.557c-0.046-0.186-0.186-1.205-0.371-3.061
		c0-1.438,0.696-2.272,1.948-2.272c0.277,0,0.51,0,0.695,0.047c0.371,0.046,0.603,0.093,0.603,0.093l1.716-0.14
		c0.093,0,0.742,0.371,0.974,0.511c0.371,0.324,0.603,0.788,0.603,1.298c0,0.325-0.046,0.696-0.092,1.066
		c-0.047,0.418-0.047,0.418-0.094,0.882c0,0.139-0.046,0.464-0.092,1.02l0.092,1.159l-0.092,0.928l0.046,0.835l-0.046,0.881
		l0.139,1.67c0,0.046,0,0.231-0.047,0.51c-0.046,0.231-0.046,0.417-0.046,0.649c0,0.695,0,1.809,0.046,2.04
		c0.047,0.371,0.047,0.649,0.047,0.649c0,0.186-0.047,0.557-0.139,1.02c-0.047,0.186-0.047,0.278-0.047,0.325l0.093,1.205
		c-0.14,1.206-0.14,1.206-0.14,1.345c0,0.232,0,0.232,0.279,1.623l-0.047,0.278l-0.047,0.696c0,0.603,0,0.603-0.046,1.112
		c0.14,1.113,0.278,2.318,0.278,2.689c0,0.047-0.047,0.278-0.093,0.604c-0.046,0.324-0.046,0.603-0.046,0.834
		c0,0.511,0.186,2.318,0.324,3.107c0.047,0.324,0.093,0.603,0.093,0.834c0,0.928-0.649,1.484-1.763,1.484
		c-0.231,0-0.231,0-1.205-0.093c-0.139-0.047-0.371-0.047-0.604-0.047c-0.092,0-0.324,0-0.648,0.047H247.844z"/>
</g>
<g>
	<path fill="#FBEC06" d="M279.748,38.905c-0.463,0.046-1.02,0.046-1.529,0.046c-0.975,0-1.438-0.186-2.041-0.927
		c-0.418-0.557-0.418-0.557-1.53-3.2c-0.742-1.576-0.881-1.854-2.134-3.57c-0.463-0.649-1.298-2.087-1.854-3.153l-0.279-0.603
		c-0.324-0.511-0.648-0.974-1.02-1.484c-0.186-0.231-0.093-0.093-0.278-0.417c-0.231-0.371-0.696-1.252-1.298-2.597l-0.65-0.974
		l-0.371-0.418c-0.231-0.371-0.463-0.649-0.695-0.881c-0.092-0.186-0.231-0.278-0.277-0.278c-0.14,0-0.279,0.232-0.232,0.51
		c0.093,0.928,0.139,1.901,0.139,2.598c0,0.093,0,0.231-0.046,0.37c-0.046,0.464-0.093,0.742-0.093,0.789
		c0,0.046,0.093,0.51,0.186,1.112c0.047,0.14,0.047,0.278,0.047,0.325l-0.186,2.087l0.231,2.133c0,0,0,0.139-0.046,0.371
		c-0.047,0.371-0.047,0.417-0.14,2.271c0,1.067,0.046,1.763,0.371,4.221v0.324c0,0.742-0.511,1.298-1.252,1.298
		c-0.14,0-0.417,0-0.696-0.046c-0.186-0.047-0.371-0.047-0.51-0.047s-0.139,0-1.205,0.093c-0.186,0.047-0.279,0.047-0.371,0.047
		c-1.021,0-1.299-0.093-1.716-0.417c-0.603-0.511-0.835-1.113-0.835-1.994c0-0.557,0.093-1.206,0.232-1.901
		c0.139-0.51,0.186-0.928,0.186-1.113c0-0.046-0.047-0.371-0.094-0.834c-0.046-0.464-0.139-2.319-0.139-3.015
		c0-0.278,0-0.278,0.139-1.066c-0.046-1.438-0.139-3.385-0.139-3.663c0-0.325,0-0.325,0.093-1.438l-0.14-4.776
		c0.047-0.557,0.14-1.53,0.279-2.922l-0.14-1.345c0.093-1.066,0.093-1.066,0.093-1.159c0-0.464-0.232-1.483-0.557-2.504
		c-0.231-0.603-0.324-1.113-0.324-1.438c0-0.835,0.742-1.67,1.53-1.67c0.139,0,0.324,0,0.51,0.047
		c0.882,0.093,1.53,0.139,1.623,0.139s0.417-0.046,0.835-0.093c0.231-0.046,0.463-0.046,0.648-0.046c0.65,0,1.717,0.51,2.134,1.066
		c0.556,0.695,0.927,1.438,1.577,2.968l0.324,0.603l0.463,0.696l0.279,0.603l0.092,0.278c0.279,0.835,0.279,0.835,0.975,1.669
		c0.417,0.511,0.742,1.021,1.02,1.484l1.252,2.504l0.278,0.649l0.742,0.788c0.14,0.231,0.278,0.417,0.371,0.603
		c0.417,0.835,0.51,0.974,0.974,1.67c0.139,0.186,0.139,0.186,0.557,0.974c0.463,0.835,0.881,1.438,1.02,1.438
		c0.14,0,0.232-0.232,0.232-0.649l-0.232-3.617v-0.788c0.047-0.835,0.047-1.947,0.047-2.551c0-0.834,0-1.066-0.047-2.597v-1.159
		v-0.834c0.047-0.511,0.047-0.835,0.047-0.975c0-0.417,0-0.417-0.278-1.809c-0.046-0.324-0.093-0.648-0.093-0.927
		c0-1.299,0.604-1.901,2.041-1.948l1.391-0.139c0.324-0.047,0.648-0.047,0.974-0.047c1.206,0,1.948,0.975,1.948,2.644
		c0,0.464,0,0.464-0.279,4.22c-0.046,0.418-0.046,0.742-0.046,0.835c0,0.186,0.046,0.649,0.14,1.298
		c0.139,0.928,0.186,1.809,0.186,2.644c0,0.649-0.094,2.365-0.14,2.922c-0.046,0.695-0.093,1.159-0.093,1.205
		c0,0.047,0.047,0.835,0.139,1.994c0.047,0.278,0.047,0.557,0.047,0.881c0,0.278,0,0.649-0.047,0.974
		c-0.092,1.252-0.139,2.134-0.139,2.365c0,0.14,0,0.417,0.047,0.742c0.092,0.742,0.139,1.252,0.139,1.483
		c0,0.093,0,0.371-0.047,0.696v1.159c0,0.834,0,0.927,0.232,2.226c0.093,0.464,0.139,0.881,0.139,1.299
		c0,1.252-0.463,1.669-1.669,1.669h-0.186H279.748z"/>
</g>
<g>
	<path fill="#FFFFFF" d="M4.764,70.777L4.68,67.769c-0.083-0.585-0.083-1.003-0.083-1.086l0.083-2.508L4.513,61.25
		c0-0.585,0.083-2.256,0.251-4.931l-0.334-4.68c0.167-1.755,2.423-3.26,4.931-3.26c0.752,0,1.421,0.084,2.173,0.167
		c1.922,0.251,2.006,0.251,2.507,0.251s0.501,0,3.008-0.251c0.251-0.083,0.501-0.083,0.752-0.083c0.585,0,1.337,0.083,2.173,0.251
		c2.006,0.334,2.256,0.334,3.259,0.334s1.003,0,4.346-0.502c0.585-0.083,1.17-0.083,1.755-0.083c1.17,0,2.173,0.251,3.009,0.668
		c1.086,0.585,1.337,1.003,1.588,2.675l0.334,1.504c0.334,1.003,0.501,1.755,0.501,2.09c0,0.668-0.752,2.089-1.337,2.507
		c-0.501,0.334-1.504,0.585-2.423,0.585c-0.585,0-0.585,0-3.26-0.585c-0.334-0.083-0.835-0.167-1.337-0.167
		c-1.086,0-2.256,0.084-3.594,0.167c-0.334,0.084-0.585,0.084-0.835,0.084c-0.251,0-0.251,0-1.086-0.251l-1.254,0.084
		c-0.417-0.084-1.671-0.168-3.844-0.251c-0.668,0-1.17,0.501-1.17,1.253c0,0.251,0,0.502,0.083,0.753
		c0.167,0.835,0.251,1.42,0.251,1.504l-0.084,1.588l0.251,1.922c0,0.084,0,0.167-0.083,0.418c-0.083,0.335-0.083,0.585-0.083,0.92
		c0,0.752,0.585,1.42,1.337,1.42c0.418,0,1.003-0.083,1.671-0.25c1.003-0.251,2.925-0.502,3.677-0.502
		c1.755,0,6.017,1.17,8.106,2.34c2.173,1.087,3.594,2.591,4.597,4.764c0.501,0.92,0.835,1.672,1.086,2.09
		c0.334,0.585,0.334,0.585,1.755,4.262c0.167,0.585,0.668,4.764,0.668,6.018c0,1.504-0.668,5.349-1.17,7.188
		c-1.17,3.761-1.671,4.513-4.931,7.688c-1.421,1.337-2.173,2.089-2.256,2.173c-0.334,0.251-2.173,0.919-5.432,2.089
		c-0.836,0.335-4.513,0.753-6.018,0.753c-2.089,0-7.605-1.003-8.775-1.505c-2.089-1.003-3.844-2.256-6.268-4.346l-0.752-0.669
		C0.752,98.189,0,96.852,0,95.432c0-0.92,0.25-1.338,1.253-2.257c0.835-0.752,0.835-0.752,1.922-2.089
		c0.835-1.087,1.086-1.254,2.089-1.254c1.17,0,1.254,0,5.767,4.012c1.254,1.086,5.098,2.256,7.438,2.256
		c5.098,0,8.859-4.596,8.859-10.864c0-3.427-1.003-5.767-3.427-7.772c-0.919-0.752-3.677-1.922-4.346-1.838
		c-1.086,0.083-2.256,0.167-3.51,0.167c-0.836,0-0.836,0-4.179,1.337c-0.836,0.251-1.755,0.418-2.925,0.418
		c-2.674,0-4.764-1.588-4.764-3.594c0-0.501,0-0.501,0.585-2.507V70.777z"/>
</g>
<g>
	<path fill="#FBEC06" d="M64.934,71.947c-1.755-1.504-1.755-1.504-2.842-4.012c-1.17-2.758-1.671-4.262-1.671-5.098l0.084-1.588
		l-0.084-1.922c0-0.585,0.334-1.755,1.254-4.513c0.501-1.588,1.253-2.424,3.844-4.263c1.838-1.337,1.838-1.337,4.179-1.922
		c2.256-0.502,3.593-0.669,7.02-0.669c1.086,0,1.337,0,3.176,0.251l2.841,0.084c1.003,0.083,3.51,0.835,5.432,1.671
		c1.504,0.752,2.591,2.006,2.591,3.093c0,0.585,0,0.585-1.086,2.423c-0.167,0.335-0.334,0.836-0.668,2.926
		c-0.251,1.922-1.003,2.758-2.424,2.758c-1.003,0-1.003,0-3.259-1.588c-1.588-1.17-4.513-2.257-6.017-2.257
		c-2.591,0-2.925,0.084-3.928,0.418c-1.504,0.669-2.257,1.672-2.257,3.427s0.919,2.925,3.594,4.847
		c5.265,3.594,9.861,7.271,12.118,9.611c3.008,3.092,4.179,4.847,5.181,7.521c0.919,2.256,1.254,3.594,1.254,4.847
		c0,5.182-0.083,5.684-1.504,9.026c-1.086,2.758-1.086,2.758-3.343,4.931c-2.34,2.256-3.51,2.841-6.853,3.677
		c-1.253,0.335-1.588,0.335-2.925,0.335c-3.677,0.083-4.346,0.083-4.346,0.083c-1.253-0.167-2.256-0.334-3.176-0.334
		c-1.755-0.167-4.68-0.585-5.516-0.92c-0.334-0.167-1.086-0.334-2.089-0.501c-1.086-0.251-3.51-1.003-3.928-1.254
		c-0.752-0.501-1.086-1.588-1.086-3.761c0-0.501,0.25-1.421,0.668-2.34l0.418-1.003l0.25-2.006c0.251-1.838,1.086-3.092,2.173-3.092
		c0.669,0,1.504,0.418,3.092,1.588c2.591,1.922,2.841,2.006,5.6,2.842c0.585,0.167,0.585,0.167,1.086,0.334
		c1.504,0.501,1.838,0.585,3.844,0.585c2.089,0,3.092-0.418,4.513-1.755c1.504-1.505,2.173-3.176,2.173-5.433
		c0-2.925-1.42-5.432-4.011-7.188c-1.254-0.835-1.254-0.835-1.839-1.337L64.934,71.947z"/>
</g>
<g>
	<path fill="#FBEC06" d="M121.01,74.037c0,0.334,0,0.835-0.083,1.337l-0.083,1.922c0,0.669,0.083,1.421,0.167,2.257
		c0.251,1.421,0.418,2.591,0.418,3.176l-0.083,1.17c-0.251,1.504-0.334,2.424-0.334,3.009c0,3.259,0.167,8.357,0.334,9.359
		c0.334,2.257,0.501,3.845,0.501,4.932c0,2.674-0.836,4.011-2.674,4.011c-0.334,0-0.668,0-1.086-0.083
		c-0.752-0.084-1.337-0.084-1.421-0.084c-2.758,0.167-2.758,0.167-3.259,0.167c-3.009,0-3.844-1.17-3.844-5.432
		c0-0.752,0.083-1.672,0.25-2.675c0.251-2.006,0.334-2.424,0.334-3.343l0.25-3.51c0-0.334,0-0.334-0.25-5.433l-0.083-3.761
		c0-1.838,0.083-3.928,0.334-6.185c0.084-0.501,0.084-0.752,0.084-0.835c-0.167-2.675-0.418-5.6-0.585-8.608l0.084-2.842
		c0-2.256-1.337-3.677-3.594-3.677c-0.752,0-0.752,0-2.758,0.502c-0.669,0.167-1.337,0.25-2.089,0.25
		c-2.173,0-3.51-1.337-3.51-3.594c0-0.334,0-0.668,0.083-1.086l0.084-0.836v-3.009c0-1.421,1.671-2.256,4.513-2.256
		c0.752,0,1.504,0.083,2.841,0.25c0.919,0.084,1.588,0.168,2.006,0.168c0.334,0,0.836,0,1.337-0.084
		c1.42-0.167,2.507-0.251,2.925-0.251s1.253,0.084,2.424,0.167c1.086,0.084,2.005,0.168,2.674,0.168
		c0.835,0,1.922-0.084,3.176-0.251c1.17-0.084,2.089-0.167,2.507-0.167c0.501,0,1.337,0.083,2.424,0.167
		c0.835,0.083,1.42,0.167,1.922,0.167s1.254-0.084,2.173-0.167c0.669-0.084,1.17-0.167,1.672-0.167c0.585,0,1.17,0.334,1.755,1.003
		c0.835,0.919,0.919,1.086,0.919,2.925l0.251,1.504c0.167,1.087,0.25,1.923,0.25,2.508c0,1.42-1.755,3.343-3.008,3.176
		c-2.424-0.335-3.844-0.502-4.179-0.585c-0.836-0.168-1.671-0.251-2.507-0.251c-2.34,0-3.51,1.003-3.51,3.009
		c0,0.501,0,1.003,0.083,1.588c0.167,0.919,0.25,1.588,0.25,1.755c0,1.086-0.083,4.597-0.167,6.184L121.01,74.037z"/>
</g>
<g>
	<path fill="#FBEC06" d="M159.285,105.042c-1.421,0-2.674,0-3.26-0.083c-2.842-0.168-4.847-0.335-4.931-0.335
		c-0.083,0-0.919,0.167-2.089,0.335c-0.92,0.167-1.839,0.25-2.674,0.25c-3.344,0-5.099-1.755-5.099-5.098
		c0-0.418,0.083-0.836,0.167-1.337c0.251-1.505,0.418-2.675,0.418-3.009c0-0.084-0.083-0.501-0.167-1.087
		c-0.167-1.002-0.251-2.423-0.251-3.677c0-1.922,0-2.173,0.418-5.015c0.083-0.585,0.167-1.337,0.167-2.256
		c0-0.92,0-0.92-0.167-4.681c-0.083-1.17-0.083-2.173-0.083-3.008c0-0.586,0-1.171,0.083-1.756l0.083-2.758
		c0-0.668-0.167-3.426-0.334-5.516v-0.836c0-0.585,0-0.585,0.25-5.014v-1.003c0-0.669,0-0.836-0.167-1.755
		c-0.083-1.087-0.083-1.087-0.167-2.257c0-0.418-0.084-1.421-0.251-3.176c0-1.672,1.839-3.092,3.845-3.092
		c0.501,0,1.254,0,2.172,0.083c0.502,0.084,1.004,0.084,1.422,0.084c0.501,0,0.501,0,3.008-0.167h1.338
		c0.919,0,1.754,0.083,2.59,0.167c0.92,0.083,1.505,0.167,1.588,0.167l2.675-0.084c2.675,0.251,2.675,0.251,3.677,0.251l3.344-0.083
		c1.086-0.084,1.922-0.168,2.424-0.168c1.838,0,3.092,1.17,3.092,2.842c0,0.418-0.084,0.836-0.168,1.337
		c-0.083,0.585-0.166,1.003-0.166,1.087c0,0.083,0.083,0.919,0.25,2.006c0.084,0.334,0.084,0.585,0.084,0.835
		c0,1.672-0.418,2.424-1.254,2.424c-0.502,0-1.254-0.083-2.256-0.334l-1.672-0.251c-1.756,0-2.006,0-2.257-0.083l-1.421-0.168
		h-1.671l-0.753-0.083l-5.181-0.084c-1.003,0-2.173,0.335-2.591,0.836c-0.585,0.585-1.17,2.424-1.17,3.51
		c0,1.003,0.501,3.093,0.836,3.511c0.418,0.501,1.838,1.003,2.841,1.003l2.424-0.084c1.505,0.251,1.505,0.251,2.423,0.334
		l1.338,0.084c0.418,0.083,0.752,0.083,0.92,0.083c0.334,0,0.334,0,2.089-0.167c1.003,0.084,2.34,0.251,4.011,0.418
		c1.17,0.084,2.257,1.087,2.257,2.006c0,0.084-0.083,0.502-0.251,1.087c-0.083,0.417-0.083,0.752-0.083,1.253
		c0,0.669,0.083,1.421,0.251,2.257c0.083,0.501,0.083,0.919,0.083,1.337c0,1.254-1.253,2.257-2.758,2.257
		c-0.167,0-1.421-0.251-3.594-0.752c-0.585-0.168-1.087-0.251-1.253-0.251c-0.084,0-0.669,0.083-1.505,0.167
		c-0.251,0.084-0.418,0.084-0.585,0.084c-0.334,0-0.334,0-1.504-0.168l-1.839,0.084c-0.083,0-0.418,0-0.836-0.084
		c-0.417-0.083-0.835-0.083-1.337-0.083c-1.254,0-2.256,0.418-3.009,1.17c-0.752,0.752-0.752,0.752-0.752,4.346l-0.083,1.922
		c-0.084,0.502-0.084,0.92-0.084,1.337c0,1.672,0.334,4.43,0.668,5.767c0.418,1.588,1.839,2.758,3.678,2.926
		c1.254,0.167,5.349,0.25,8.357,0.25c1.086,0,1.17,0,3.677-0.668c0.418-0.084,0.919-0.167,1.337-0.167
		c1.338,0,2.424,0.919,2.424,2.089c0,0.418-0.084,0.919-0.167,1.504c-0.167,0.585-0.251,1.087-0.251,1.421
		c0,0.335,0,0.335,0.418,2.34c0.084,0.418,0.167,0.836,0.167,1.254c0,1.672-1.087,2.424-3.427,2.424c-0.919,0-0.919,0-5.014-0.251
		c-0.502-0.083-0.92-0.083-1.672-0.083c-0.418,0-0.418,0-2.089,0.083H159.285z"/>
	<path fill="#FBEC06" d="M182.349,90.668c0-0.167,0-0.418-0.083-0.669c-0.084-1.17-0.168-2.089-0.168-2.507
		c0-0.084,0-0.418,0.084-0.836c0.084-1.003,0.167-3.092,0.167-3.928c0-0.92-0.083-2.006-0.251-3.176
		c-0.083-0.585-0.167-1.003-0.167-1.087c0.501-5.934,0.501-5.934,0.501-7.02c0-0.92,0-1.672-0.083-2.424
		c-0.083-0.585-0.083-1.003-0.083-1.087l0.083-2.59c-0.167-1.839-0.167-1.839-0.167-2.173c0-0.335,0-0.669,0.084-1.087l0.083-1.337
		c0-0.167-0.167-1.755-0.501-3.928c-0.084-0.836-0.168-1.756-0.168-2.926c0-4.095,1.004-5.098,5.182-5.098
		c0.752,0,1.421,0.084,2.758,0.251c0.586,0.083,1.004,0.083,1.087,0.083l3.343-0.167l2.09,0.167l3.76-0.25
		c6.436,0.334,6.436,0.334,9.361,2.173c2.423,1.421,4.512,2.841,5.599,3.677c0.585,0.502,0.585,0.502,2.257,3.093l0.836,1.002
		c1.42,1.588,2.006,3.093,2.172,5.934c0.084,0.335,0.084,0.669,0.251,1.171c0.084,0.334,0.084,0.334,0.084,1.17
		c0,1.086,0.083,2.173,0.167,3.343c0,1.671-1.421,7.104-2.256,8.775c-1.756,3.343-4.764,6.519-7.521,7.855
		c-0.502,0.251-0.92,0.501-1.338,0.752l-0.752,0.669c-1.588,1.253-6.436,2.674-9.36,2.674h-1.17
		c-1.253-0.083-2.006-0.083-2.424-0.083c-2.34,0-3.009,0.668-3.009,3.008c0,2.006,0.084,2.591,0.669,4.514
		c0.251,1.003,0.501,2.674,0.501,3.844c0,1.839-0.752,2.758-2.256,2.758c-0.585,0-1.086,0-1.588-0.083
		c-0.92-0.084-1.504-0.167-1.839-0.167c-0.083,0-0.417,0-0.835,0.083c-0.836,0.084-1.588,0.167-2.174,0.167
		c-2.172,0-3.259-1.337-3.259-3.928c0-0.836,0.083-1.755,0.167-2.591c0.084-1.086,0.167-1.839,0.167-2.173
		c0-0.167-0.083-1.003-0.167-2.089c-0.084-0.418-0.084-0.836-0.084-1.17c0-0.335,0-0.335,0.251-2.173V90.668z M192.963,64.259
		c-0.168,1.839-0.168,1.839-0.168,2.257c0,0.585,0,1.003,0.168,2.841c0.083,0.753,0.083,1.421,0.083,1.923
		c0,0.585,0,1.253-0.083,2.089c-0.335,3.009-0.335,3.092-0.335,3.761c0,2.34,0.501,3.761,1.337,4.095
		c0.502,0.251,2.675,0.418,4.346,0.418c1.338,0,1.338,0,2.926-0.668l1.337-0.251c1.337-0.251,3.343-1.504,4.346-2.675
		c0.501-0.585,1.671-2.507,2.089-3.343c0.335-0.752,1.087-3.426,1.087-3.844c-0.083-2.09-0.251-3.26-0.334-3.594
		c-1.337-4.179-2.424-5.851-4.848-6.854c-2.423-1.086-5.349-1.755-7.271-1.755c-2.508,0-4.764,1.672-4.764,3.594L192.963,64.259z"/>
	<path fill="#FBEC06" d="M233.578,71.947c-1.756-1.504-1.756-1.504-2.842-4.012c-1.17-2.758-1.672-4.262-1.672-5.098l0.084-1.588
		l-0.084-1.922c0-0.585,0.334-1.755,1.254-4.513c0.502-1.588,1.254-2.424,3.844-4.263c1.839-1.337,1.839-1.337,4.18-1.922
		c2.256-0.502,3.593-0.669,7.02-0.669c1.086,0,1.337,0,3.176,0.251l2.842,0.084c1.002,0.083,3.51,0.835,5.432,1.671
		c1.504,0.752,2.591,2.006,2.591,3.093c0,0.585,0,0.585-1.087,2.423c-0.166,0.335-0.334,0.836-0.668,2.926
		c-0.251,1.922-1.003,2.758-2.424,2.758c-1.003,0-1.003,0-3.26-1.588c-1.588-1.17-4.512-2.257-6.017-2.257
		c-2.591,0-2.925,0.084-3.928,0.418c-1.505,0.669-2.257,1.672-2.257,3.427s0.92,2.925,3.594,4.847
		c5.266,3.594,9.861,7.271,12.118,9.611c3.009,3.092,4.179,4.847,5.181,7.521c0.92,2.256,1.254,3.594,1.254,4.847
		c0,5.182-0.083,5.684-1.504,9.026c-1.086,2.758-1.086,2.758-3.343,4.931c-2.341,2.256-3.511,2.841-6.853,3.677
		c-1.254,0.335-1.588,0.335-2.926,0.335c-3.677,0.083-4.346,0.083-4.346,0.083c-1.254-0.167-2.256-0.334-3.176-0.334
		c-1.755-0.167-4.68-0.585-5.516-0.92c-0.334-0.167-1.086-0.334-2.09-0.501c-1.086-0.251-3.51-1.003-3.928-1.254
		c-0.752-0.501-1.086-1.588-1.086-3.761c0-0.501,0.25-1.421,0.668-2.34l0.418-1.003l0.251-2.006
		c0.251-1.838,1.087-3.092,2.173-3.092c0.669,0,1.504,0.418,3.092,1.588c2.592,1.922,2.842,2.006,5.6,2.842
		c0.586,0.167,0.586,0.167,1.087,0.334c1.504,0.501,1.839,0.585,3.845,0.585c2.089,0,3.092-0.418,4.512-1.755
		c1.505-1.505,2.174-3.176,2.174-5.433c0-2.925-1.421-5.432-4.012-7.188c-1.254-0.835-1.254-0.835-1.839-1.337L233.578,71.947z"/>
</g>
<g>
	<path fill="#FBEC06" d="M284.057,57.907c-0.084,0.752-0.252,1.588-0.418,2.34c-0.418,1.839-0.418,1.839-0.418,2.675v1.421
		c0.083,1.003,0.083,1.922,0.083,2.674c0,1.254,0,1.254-0.418,3.427c-0.334,1.588-0.334,2.591-0.334,5.349
		c0,0.836,0,0.919-0.251,2.507l-0.084,2.34l-0.166,1.505c-0.168,0.919-0.252,1.588-0.252,2.006c0,0.501,0.084,1.253,0.335,2.841
		l0.083,1.421c0,1.839-1.002,2.591-3.426,2.591c-2.758,0-2.926,0-3.427-0.752c-0.417-0.502-0.669-1.254-0.669-1.922
		c0-0.418,0.084-1.338,0.168-2.591c0.084-0.502,0.084-0.92,0.084-1.338c0-1.504-0.084-3.092-0.335-4.847l-0.335-3.009l-0.083-1.672
		c0-0.835,0-0.835-0.167-1.838c-0.167-1.17-0.251-3.009-0.418-5.516c0-0.669-0.084-1.254-0.167-2.006
		c-0.167-1.421-0.418-3.678-0.669-6.687c0-0.083,0-0.668,0.084-1.671v-0.669c0-0.334,0-0.334-0.251-3.009
		c-0.083-0.417-0.083-0.752-0.083-1.086c0-2.006,1.17-3.343,2.924-3.343c0.252,0,0.586,0,1.004,0.083
		c0.919,0.084,1.588,0.168,1.838,0.168c0.334,0,1.004-0.084,1.756-0.168c0.584-0.083,1.086-0.167,1.42-0.167
		c2.09,0,3.093,1.672,3.093,5.266c0,0.752,0,1.086-0.251,2.256L284.057,57.907z M275.447,105.711c-0.918,0-1.587-0.335-2.172-0.92
		c-0.251-0.334-0.586-0.919-0.586-1.086l0.252-4.346c0,0-0.084-0.585-0.168-1.421c-0.084-0.418-0.084-0.752-0.084-1.087
		c0-1.922,0.586-2.507,2.341-2.507c0.501,0,0.919,0,1.421,0.084c0.919,0.167,1.588,0.25,1.838,0.25c0.334,0,0.752-0.083,1.421-0.25
		c0.585-0.084,1.087-0.167,1.505-0.167c1.17,0,2.172,0.919,2.424,2.173c0.083,0.417,0.083,0.752,0.083,1.755v1.253
		c0.083,1.923,0.083,3.26,0.083,3.344c0,0.752-0.418,2.089-0.835,2.34c-0.418,0.418-1.755,0.668-3.176,0.668
		c-0.335,0-0.335,0-2.173-0.167L275.447,105.711z"/>
</g>
</svg>
