<?xml version="1.0" encoding="utf-8"?>
<!-- Generator: Adobe Illustrator 16.0.0, SVG Export Plug-In . SVG Version: 6.00 Build 0)  -->
<!DOCTYPE svg PUBLIC "-//W3C//DTD SVG 1.1//EN" "http://www.w3.org/Graphics/SVG/1.1/DTD/svg11.dtd">
<svg version="1.1" id="Layer_1" xmlns="http://www.w3.org/2000/svg" xmlns:xlink="http://www.w3.org/1999/xlink" x="0px" y="0px"
	 width="141.649px" height="151.845px" viewBox="0 1.141 141.649 151.845" enable-background="new 0 1.141 141.649 151.845"
	 xml:space="preserve">
<path fill="#80AB8E" d="M140.46,123.257c-0.678-3.305-24.026-15.3-26.759-19.028c-6.592-8.996-29.362-6.789-38-5.729
	c-5.762,0.707-8.069,0.833-9.445-0.638c-6.45-6.914-18.389-11.866-25.24-12.243c0.051-3.926-0.166-9.139-1.494-12.364
	c-0.021-0.081-0.038-0.13-0.058-0.203c1.354-1.486,2.653-3.162,4.803-5.261c1.882-1.838,5.491-6.797,3.655-8.676
	c-1.836-1.881-4.846-1.917-6.726-0.081c-4.161,4.062-9.629,8.9-10.953,9.564c-0.142,0.048-0.261,0.134-0.396,0.195l0.142,0.156
	l-0.287-0.095c-0.904,1.229-0.871,2.738-0.726,4.274c0.838,8.828,1.476,16.308,6.239,21.529l-0.051,0.183l0.011,0.004
	c0.069,0.01,0.153,0.029,0.229,0.043c0.037,0.04,0.065,0.087,0.103,0.126l0.101-0.088c5.646,1.217,27.341,12.355,29.3,12.94"/>
<path fill="none" stroke="#FBEC06" stroke-width="2.378" stroke-linecap="round" stroke-linejoin="round" stroke-miterlimit="10" d="
	M140.46,123.257c-0.678-3.305-24.026-15.3-26.759-19.028c-6.592-8.996-29.362-6.789-38-5.729c-5.762,0.707-8.069,0.833-9.445-0.638
	c-6.45-6.914-18.389-11.866-25.24-12.243c0.051-3.926-0.166-9.139-1.494-12.364c-0.021-0.081-0.038-0.13-0.058-0.203
	c1.354-1.486,2.653-3.162,4.803-5.261c1.882-1.838,5.491-6.797,3.655-8.676c-1.836-1.881-4.846-1.917-6.726-0.081
	c-4.161,4.062-9.629,8.9-10.953,9.564c-0.142,0.048-0.261,0.134-0.396,0.195l0.142,0.156l-0.287-0.095
	c-0.904,1.229-0.871,2.738-0.726,4.274c0.838,8.828,1.476,16.308,6.239,21.529l-0.051,0.183l0.011,0.004
	c0.069,0.01,0.153,0.029,0.229,0.043c0.037,0.04,0.065,0.087,0.103,0.126l0.101-0.088c5.646,1.217,27.341,12.355,29.3,12.94"/>
<path fill="#80AB8E" d="M106.778,106.401c0,0,0.861-5.021,3.723-12.267c2.862-7.245-2.76-14.323-0.049-20.693
	c2.711-6.371-21.278,12.899-20.325,20.979"/>
<path fill="none" stroke="#FBEC06" stroke-width="2.378" stroke-linecap="round" stroke-linejoin="round" stroke-miterlimit="10" d="
	M106.778,106.401c0,0,0.861-5.021,3.723-12.267c2.862-7.245-2.76-14.323-0.049-20.693c2.711-6.371-21.278,12.899-20.325,20.979"/>
<path fill="#FBEC06" d="M98.919,123.925c0.818-1.931,1.228-2.89-0.012-3.414c0.76-1.792,1.955-4.705,2.361-5.873
	c0.54-1.272-0.199-1.934-1.437-2.459c0.956-2.254,12.195-29.275,13.812-33.084c5.316-12.528,4.67-23.133,5.286-31.798
	c0.261-3.65,1.415-7.737,4.269-8.96l0.066,0.027l0.333-0.782L76.423,17.562l-0.321,0.759c-0.042-0.018-0.099-0.04-0.111-0.046
	c1.127,2.906-0.944,6.493-3.336,9.173c-5.813,6.51-13.976,13.422-19.334,26.047c-1.616,3.81-13.242,30.666-14.199,32.921
	c-1.237-0.525-2.225-0.6-2.766,0.675c-0.559,1.104-1.823,3.988-2.583,5.779c-1.238-0.525-1.646,0.434-2.464,2.362
	C31.037,95.874,98.647,124.565,98.919,123.925"/>
<rect x="33.279" y="102.245" transform="matrix(0.9205 0.3906 -0.3906 0.9205 46.3766 -17.7799)" fill="#BA0A13" width="67.234" height="5.745"/>
<path fill="#BA0A13" d="M75.233,28.954c-1.092,1.285-2.251,2.568-3.478,3.929c-5.089,5.64-10.856,12.032-15.099,22.028
	c-0.914,2.153-5.022,11.674-8.594,19.954c-2.746,6.362-5.174,11.992-5.59,12.972l-0.249,0.587l54.006,22.92l0.249-0.588
	c0.416-0.979,2.776-6.637,5.446-13.032c3.475-8.322,7.468-17.892,8.382-20.045c4.239-9.994,4.831-18.582,5.352-26.159
	c0.12-1.744,0.236-3.42,0.391-5.03c0.22-2.281,0.707-4.261,1.412-5.875l-39.087-16.59C77.55,25.992,76.243,27.768,75.233,28.954"/>
<path fill="#80AB8E" d="M35.807,2.352c17.201-0.466,27.563,6.711,34.66,8.748c20.59,5.912,26.99,8.313,30.022,9.535
	c5.471,2.208,19.219,13.697,18.485,13.475c3.547,7.002,4.955,9.836,5.065,10.003c1.546,2.294,3.847,3.866,1.554,5.413
	c-2.296,1.547-5.41,0.938-6.953-1.354c-0.017-0.021-9.584-8.386-16.369-15.644c-5.631,1.908-14.7-2.629-31.84-4.313
	c-5.254,2.032-9.644,6.462-20.142,8.001c1.277,2.452,0.111,5.074,4.299,7.248c11.143,5.78,12.589,9.121,16.627,15.459
	c1.485,2.332,3.053,9.313,0.721,10.799c-1.316,0.838-2.877,0.984-4.252,0.533c-1.063-0.348-2.018-1.052-2.664-2.068
	c-3.035-4.768-8.101-10.263-18.113-14.012C31.676,48.472,24.83,37.082,24.72,36.599c0,0-12.233,0.091-23.531,4.253"/>
<path fill="none" stroke="#FBEC06" stroke-width="2.378" stroke-linecap="round" stroke-linejoin="round" stroke-miterlimit="10" d="
	M35.807,2.352c17.201-0.466,27.563,6.711,34.66,8.748c20.59,5.912,26.99,8.313,30.022,9.535
	c5.471,2.208,19.219,13.697,18.485,13.475c3.547,7.002,4.955,9.836,5.065,10.003c1.546,2.294,3.847,3.866,1.554,5.413
	c-2.296,1.547-5.41,0.938-6.953-1.354c-0.017-0.021-9.584-8.386-16.369-15.644c-5.631,1.908-14.7-2.629-31.84-4.313
	c-5.254,2.032-9.644,6.462-20.142,8.001c1.277,2.452,0.111,5.074,4.299,7.248c11.143,5.78,12.589,9.121,16.627,15.459
	c1.485,2.332,3.053,9.313,0.721,10.799c-1.316,0.838-2.877,0.984-4.252,0.533c-1.063-0.348-2.018-1.052-2.664-2.068
	c-3.035-4.768-8.101-10.263-18.113-14.012C31.676,48.472,24.83,37.082,24.72,36.599c0,0-12.233,0.091-23.531,4.253"/>
<path fill="#80AB8E" d="M109.149,118.794c-16.78-9.943-29.78-8.354-38.425-7.292c-5.763,0.707-8.068,0.833-9.445-0.638
	c-6.451-6.915-18.389-11.866-25.241-12.244c0.052-3.926-0.165-9.138-1.494-12.363c-0.021-0.081-0.037-0.13-0.057-0.203
	c1.354-1.486,2.653-3.162,4.802-5.261c1.883-1.838,5.492-6.797,3.656-8.677c-1.835-1.881-4.846-1.916-6.726-0.081
	c-4.161,4.063-9.629,8.901-10.953,9.565c-0.143,0.048-0.262,0.135-0.396,0.195l0.144,0.155l-0.288-0.094
	c-0.903,1.229-0.871,2.738-0.726,4.274c0.837,8.828,1.476,16.308,6.239,21.528l-0.051,0.184l0.012,0.004
	c0.068,0.01,0.153,0.029,0.229,0.043c0.037,0.04,0.064,0.087,0.103,0.126l0.1-0.088c5.648,1.217,29.269,22.845,31.228,23.43
	c26.698,11.958,54.946,12.479,63.141,20.438"/>
<path fill="none" stroke="#FBEC06" stroke-width="2.378" stroke-linecap="round" stroke-linejoin="round" stroke-miterlimit="10" d="
	M109.149,118.794c-16.78-9.943-29.78-8.354-38.425-7.292c-5.763,0.707-8.068,0.833-9.445-0.638
	c-6.451-6.915-18.389-11.866-25.241-12.244c0.052-3.926-0.165-9.138-1.494-12.363c-0.021-0.081-0.037-0.13-0.057-0.203
	c1.354-1.486,2.653-3.162,4.802-5.261c1.883-1.838,5.492-6.797,3.656-8.677c-1.835-1.881-4.846-1.916-6.726-0.081
	c-4.161,4.063-9.629,8.901-10.953,9.565c-0.143,0.048-0.262,0.135-0.396,0.195l0.144,0.155l-0.288-0.094
	c-0.903,1.229-0.871,2.738-0.726,4.274c0.837,8.828,1.476,16.308,6.239,21.528l-0.051,0.184l0.012,0.004
	c0.068,0.01,0.153,0.029,0.229,0.043c0.037,0.04,0.064,0.087,0.103,0.126l0.1-0.088c5.648,1.217,29.269,22.845,31.228,23.43
	c26.698,11.958,54.946,12.479,63.141,20.438"/>
<path fill="#D1DFAD" d="M110.85,49.945c0,0-0.245,0.361-1.024,0.036c-0.78-0.323-0.727,0.021-1.56-0.181
	c-0.834-0.202-1.412,0.556-2.153,0.276c-0.742-0.278-0.529,0.678-1.285,0.566c-0.756-0.11-1.028,0.547-1.766,0.694
	c-0.736,0.146-0.785,0.696-1.449,0.979c-0.664,0.281-0.422,0.431-1.039,0.675c-0.617,0.242-1.336,2.096-1.596,2.625
	c-0.261,0.529-0.533,0.72-0.492,1.232c0.039,0.515,0.668,3.978-0.785,5.466c0,0-0.16,0.837,0.611,0.31
	c0.771-0.526,1.242-1.038,2.439-1.103c1.196-0.063,3.187-0.397,4.032-0.834c0.849-0.435,0.859-0.562,1.662-0.959
	c0.801-0.396,1.469-0.721,2.078-1.348c0.608-0.627-0.166-0.526,0.691-1.089c0.858-0.563,0.692-1.088,0.948-1.575
	c0.258-0.488-0.27-0.79,0.078-1.355c0.35-0.563,0.211-0.918,0.34-1.418c0.13-0.499,0.214-0.491,0.294-0.909
	c0.079-0.419-0.078-0.562-0.005-0.896C110.944,50.806,111.211,50.19,110.85,49.945"/>
<path fill="#D1DFAD" d="M69.055,87.218c0,0-0.397-0.181-0.208-1.004c0.188-0.824-0.143-0.712-0.083-1.567
	c0.059-0.854-0.785-1.299-0.636-2.076c0.151-0.777-0.756-0.407-0.773-1.172c-0.02-0.765-0.712-0.922-0.981-1.623
	c-0.269-0.701-0.818-0.657-1.208-1.266c-0.389-0.606-0.496-0.343-0.839-0.911c-0.343-0.566-2.29-0.965-2.855-1.132
	c-0.567-0.168-0.799-0.403-1.3-0.278c-0.5,0.125-3.808,1.325-5.519,0.146c0,0-0.853-0.018-0.203,0.654
	c0.65,0.671,1.233,1.05,1.497,2.22s0.927,3.074,1.499,3.836c0.572,0.763,0.698,0.753,1.224,1.477
	c0.526,0.725,0.958,1.327,1.679,1.822s0.489-0.252,1.188,0.5c0.698,0.753,1.189,0.501,1.713,0.671
	c0.524,0.171,0.734-0.397,1.35-0.148c0.615,0.247,0.94,0.052,1.455,0.096c0.514,0.044,0.52,0.128,0.946,0.136
	c0.427,0.01,0.539-0.17,0.881-0.154C68.223,87.455,68.874,87.615,69.055,87.218"/>
<path fill="#D1DFAD" d="M96.063,81.191c0,0-0.323,0.294-1.006-0.206c-0.683-0.499-0.709-0.148-1.474-0.542
	c-0.762-0.393-1.503,0.208-2.158-0.237c-0.653-0.444-0.673,0.534-1.382,0.249c-0.71-0.284-1.128,0.29-1.879,0.261
	c-0.751-0.03-0.927,0.492-1.639,0.609s-0.511,0.319-1.169,0.41c-0.657,0.092-1.791,1.724-2.168,2.177
	c-0.377,0.455-0.688,0.573-0.771,1.083s-0.285,4.021-2.047,5.129c0,0-0.352,0.774,0.521,0.442c0.873-0.331,1.451-0.717,2.631-0.498
	c1.179,0.222,3.188,0.363,4.115,0.141c0.926-0.226,0.967-0.347,1.84-0.542c0.873-0.197,1.598-0.355,2.338-0.821
	c0.738-0.467-0.038-0.55,0.929-0.896c0.968-0.345,0.929-0.895,1.293-1.31c0.364-0.414-0.077-0.831,0.396-1.299
	c0.471-0.467,0.418-0.844,0.662-1.298c0.243-0.455,0.322-0.428,0.5-0.816c0.176-0.388,0.056-0.563,0.205-0.87
	C95.952,82.05,96.356,81.515,96.063,81.191"/>
<path fill="#D1DFAD" d="M70.908,49.359c0,0,0.372-0.452,1.374,0.077s0.972,0.063,2.06,0.435c1.09,0.372,1.954-0.569,2.911-0.104
	c0.956,0.463,0.789-0.84,1.786-0.601c0.998,0.24,1.44-0.604,2.443-0.711c1.002-0.106,1.135-0.834,2.057-1.128
	c0.92-0.295,0.615-0.524,1.471-0.773c0.855-0.248,2.043-2.634,2.453-3.311c0.414-0.677,0.802-0.896,0.812-1.587
	c0.012-0.692-0.402-5.395,1.719-7.204c0,0,0.316-1.1-0.777-0.489s-1.786,1.236-3.395,1.174c-1.607-0.062-4.305,0.141-5.49,0.617
	c-1.187,0.479-1.217,0.646-2.336,1.078c-1.12,0.433-2.051,0.781-2.941,1.545c-0.892,0.763,0.156,0.724-1.06,1.368
	c-1.217,0.646-1.059,1.367-1.462,1.988c-0.402,0.62,0.264,1.09-0.27,1.802c-0.535,0.712-0.394,1.199-0.627,1.851
	c-0.235,0.652-0.348,0.632-0.506,1.182c-0.157,0.55,0.036,0.759-0.102,1.194C70.888,48.199,70.455,48.987,70.908,49.359"/>
<path fill="#D1DFAD" d="M79.789,56.374c0,0,0.461,0.36-0.044,1.375s-0.038,0.973-0.384,2.07c-0.345,1.098,0.616,1.938,0.176,2.907
	c-0.439,0.967,0.858,0.769,0.643,1.771c-0.217,1.003,0.64,1.425,0.771,2.425c0.13,0.999,0.86,1.115,1.177,2.028
	c0.317,0.914,0.539,0.603,0.81,1.451c0.27,0.85,2.683,1.979,3.369,2.374c0.687,0.396,0.914,0.777,1.605,0.771
	c0.692-0.006,5.382-0.534,7.243,1.545c0,0,1.104,0.289,0.47-0.79c-0.636-1.078-1.277-1.756-1.255-3.364
	c0.023-1.608-0.244-4.301-0.75-5.475s-0.675-1.201-1.133-2.311c-0.459-1.107-0.832-2.03-1.616-2.902s-0.72,0.174-1.394-1.026
	s-1.395-1.024-2.023-1.412c-0.63-0.388-1.082,0.29-1.807-0.228c-0.727-0.519-1.211-0.364-1.866-0.582
	c-0.657-0.219-0.64-0.331-1.192-0.477s-0.757,0.054-1.196-0.073C80.948,56.326,80.149,55.913,79.789,56.374"/>
<path fill="#80AB8E" d="M78.453,77.752c0,1.313-1.064,2.378-2.378,2.378s-2.379-1.064-2.379-2.378c0-1.314,1.065-2.378,2.379-2.378
	S78.453,76.438,78.453,77.752"/>
<path fill="#D1DFAD" d="M98.075,44.453c0,1.313-1.063,2.378-2.378,2.378s-2.379-1.063-2.379-2.378c0-1.313,1.064-2.378,2.379-2.378
	S98.075,43.14,98.075,44.453"/>
<path fill="#80AB8E" d="M106.399,68.238c0,1.313-1.064,2.379-2.377,2.379c-1.314,0-2.379-1.064-2.379-2.379
	c0-1.313,1.063-2.378,2.379-2.378C105.335,65.86,106.399,66.924,106.399,68.238"/>
<path fill="#80AB8E" d="M93.913,52.184c0,1.313-1.063,2.378-2.378,2.378c-1.313,0-2.379-1.063-2.379-2.378
	c0-1.313,1.065-2.378,2.379-2.378C92.849,49.806,93.913,50.869,93.913,52.184"/>
<path fill="#80AB8E" d="M93.913,95.59c0,1.313-1.063,2.379-2.378,2.379c-1.313,0-2.379-1.064-2.379-2.379
	c0-1.313,1.065-2.378,2.379-2.378C92.849,93.212,93.913,94.276,93.913,95.59"/>
</svg>
