<?xml version="1.0" encoding="utf-8"?>
<!-- Generator: Adobe Illustrator 16.0.0, SVG Export Plug-In . SVG Version: 6.00 Build 0)  -->
<!DOCTYPE svg PUBLIC "-//W3C//DTD SVG 1.1//EN" "http://www.w3.org/Graphics/SVG/1.1/DTD/svg11.dtd">
<svg version="1.1" id="Layer_1" xmlns="http://www.w3.org/2000/svg" xmlns:xlink="http://www.w3.org/1999/xlink" x="0px" y="0px"
	 width="429.084px" height="355.488px" viewBox="0 139.425 429.084 355.488" enable-background="new 0 139.425 429.084 355.488"
	 xml:space="preserve">
<path fill="#81AA8D" d="M387.403,195.894c0,0,0.302-0.008,0.404-0.157c0.236-0.351,0.314-0.697,0.992-0.736
	c1.37-0.08,1.265-1.432,2.268-1.252c0.947,0.171,1.173-0.124,1.639-1.016c0.383-0.731,0.493-1.122,1.239-1.297
	c0.746-0.174,0.579-1.922,1.144-2.376c0.908-0.731,1.214-0.788,0.923-2.569c-0.208-1.274,0.231-0.599,0.488-1.257
	c0.255-0.657-0.746-1.805-0.499-2.902c0.246-1.096,0.149-1.105,0.44-2.149c0.291-1.043-0.447,0.105-0.208-1.965
	c0.24-2.07-0.429-0.623-0.751-2.405c-0.323-1.781-2.042-2.134-2.663-3.311c-0.622-1.176-2.647-1.898-3.038-5.048
	s-4.51-0.172-5.295,3.599c-0.786,3.772,0.184,0.65-0.239,1.535c-0.422,0.886,0.096,1.615-0.258,2.799
	c-0.352,1.184-0.229,1.438-0.345,2.693c-0.116,1.254-0.441,1.613-0.451,2.78s-0.582,2.087-0.145,3.685
	c0.437,1.597,0.382,3.246,1.003,4.423c0.896,1.697,0.533,2.141,1.269,3.133C386.055,193.094,386.756,193.937,387.403,195.894"/>
<path fill="#81AA8D" d="M394.643,211.192c0,0-6.459,1.95-7.808,3.348c-1.351,1.398-0.993,1.376-2.357,2.536
	c-1.364,1.16-1.483,1.167-2.096,2.879c-0.613,1.712-2.051,1.68-2.537,3.504s-2.108,0.727-1.537,2.247
	c0.572,1.52-1.79,2.023-1.016,2.933c0.772,0.909-0.592,2.069,0.285,2.733c0.878,0.664-0.619,1.593,0.386,2.369
	c1.004,0.775,0.019,2.271,0.936,1.617c0.916-0.654,1.278-0.811,1.989-0.72c2.531,0.324,0.917-0.654,2.354-0.622
	c1.438,0.031,1.831,0.605,2.86-0.175c1.028-0.781,0.967,0.18,2.31-1.338c1.343-1.517,2.177-1.568,2.826-2.684
	c0.649-1.116,1.247-3.066,2.18-3.482c0.931-0.416,0.931-0.416,1.438-1.882c0.509-1.467,3.279-7.018,4.568-13.316
	C399.424,211.139,398.174,210.258,394.643,211.192"/>
<path fill="#81AA8D" d="M417.358,165.245c-0.592-0.419-1.128-0.679-2.042-1.253c-0.913-0.575-1.131-0.945-2.311-1.517
	c-1.181-0.571-1.239-0.996-2.367-1.675c-1.128-0.678-1.396-0.675-2.737-1.457c-1.343-0.783-1.457-1.368-2.104-1.946
	c-0.647-0.578-0.658-1.377-1.845-2.481c-1.187-1.105-0.706-1.004-1.464-1.901c-0.758-0.896,0.623-1.287,0.343-2.35l0.616-1.82
	c-1.237-0.997,0.842-5.021,0.904-4.329s0.658,1.377,0.876,1.748c0.218,0.37,0.764,1.429,1.09,1.851
	c0.325,0.423,1.529,2.859,2.667,4.337s4.622,7.137,6.363,9.834c0.895,1.387,3.063,3.039,4.958,4.317l-2.701-1.017
	C417.564,165.454,417.482,165.333,417.358,165.245"/>
<path fill="#CFDDAC" d="M383.317,374.018c0,0-0.197-0.23-0.153-0.406c0.103-0.409,0.307-0.699-0.117-1.229
	c-0.857-1.07,0.218-1.898-0.589-2.523c-0.76-0.588-0.692-0.955-0.342-1.897c0.288-0.772,0.504-1.117,0.135-1.788s1.04-1.717,1-2.439
	c-0.065-1.166-0.227-1.43,1.291-2.405c1.086-0.699,0.29-0.574,0.607-1.204c0.318-0.629,1.841-0.654,2.49-1.571
	c0.648-0.918,0.721-0.852,1.301-1.766c0.581-0.915,0.222,0.401,1.6-1.161c1.378-1.564,0.751-0.1,2.29-1.052s2.952,0.089,4.242-0.237
	c1.29-0.325,3.183,0.696,5.784-1.121c2.603-1.818,3.146,3.235,0.87,6.344c-2.277,3.106-0.605,0.297-0.981,1.203
	c-0.375,0.907-1.263,1.012-1.905,2.065c-0.645,1.054-0.915,1.133-1.771,2.059c-0.854,0.925-0.904,1.407-1.764,2.196
	c-0.86,0.788-1.162,1.829-2.642,2.574c-1.479,0.744-2.668,1.889-3.958,2.214c-1.86,0.47-1.946,1.038-3.177,1.155
	C386.3,373.145,385.203,373.188,383.317,374.018"/>
<path fill="#81AA8D" d="M367.932,308.286c0,0,0.294-0.072,0.431,0.047c0.319,0.276,0.485,0.59,1.15,0.451
	c1.343-0.28,1.594,1.053,2.515,0.616c0.87-0.41,1.165-0.185,1.849,0.555c0.559,0.605,0.768,0.955,1.532,0.929
	c0.767-0.026,1.062,1.705,1.725,1.996c1.067,0.47,1.377,0.445,1.561,2.24c0.131,1.284,0.38,0.519,0.798,1.086
	c0.418,0.569-0.249,1.938,0.275,2.933c0.523,0.993,0.433,1.027,0.986,1.959c0.553,0.932-0.459,0.016,0.312,1.951
	c0.771,1.936-0.252,0.715-0.099,2.518c0.152,1.804-1.414,2.593-1.708,3.891c-0.293,1.298-2.062,2.523-1.617,5.666
	c0.444,3.145-4.309,1.342-6.05-2.096c-1.741-3.436,0.008-0.674-0.63-1.418c-0.64-0.746-0.33-1.584-0.979-2.635
	c-0.649-1.052-0.597-1.33-1.035-2.511c-0.438-1.18-0.847-1.442-1.161-2.565c-0.313-1.125-1.104-1.864-1.1-3.521
	c0.005-1.655-0.477-3.233-0.184-4.53c0.423-1.873-0.045-2.207,0.406-3.356C367.36,311.341,367.817,310.344,367.932,308.286"/>
<path fill="#81AA8D" d="M395.957,304.24c0,0-0.397,0.698-0.025,1.315c0.372,0.618-0.208,0.409,0.284,1.044
	c0.49,0.635,0.317,0.976,0.707,1.474c0.39,0.497,0.948,1.168,1.306,1.392c0.358,0.225-0.052,0.188,0.578,0.551
	c0.629,0.363,1.295,0.487,1.941,0.73c0.648,0.244,0.866,0.74,1.651,0.882s0.766,0.433,1.62,0.438
	c0.854,0.006,1.898-0.278,2.582-0.273c0.683,0.004,1.88-0.158,2.22,0.016c0.341,0.172,0.649,0.071,1.229,0.109
	c0.581,0.038,1.195,0.008,2.341,0.033c1.144,0.023,2.359-0.258,3.35-0.354c0.992-0.097,2.752-0.272,3.334-0.406
	c0.582-0.131,0.31-0.271,1.369-0.332s1.249-0.351,1.558-0.45c0.308-0.101-1.181-2.4-1.181-2.4s-1.138-0.878-2.601-1.879
	c-1.462-1-6.072-3.986-6.907-4.282c-0.835-0.296-7.938-3.435-10.129-2.664c0,0-1.696,0.723-1.15,0.829
	c0.546,0.107-2.273,0.173-2.381,0.89c-0.106,0.717-1.147,0.488-1.015,1.07c0.133,0.581-0.96,0.54-0.759,1.156
	C396.081,303.745,395.926,303.966,395.957,304.24"/>
<path fill="#81AA8D" d="M406.204,258.916c0,0,0.346-0.83,2.052-0.496c1.707,0.333,1.455-0.341,3.218-0.278
	c1.764,0.063,2.617-1.702,4.227-1.446c1.61,0.256,0.786-1.582,2.357-1.673c1.57-0.09,1.846-1.527,3.271-2.127
	c1.426-0.602,1.297-1.729,2.519-2.57c1.222-0.841,0.672-1.042,1.816-1.787c1.146-0.744,1.829-4.774,2.136-5.95
	c0.305-1.177,0.775-1.669,0.484-2.69c-0.292-1.021-2.986-7.74-0.673-11.34c0,0-0.022-1.754-1.36-0.373
	c-1.336,1.381-2.074,2.607-4.463,3.23c-2.388,0.622-6.258,2.115-7.788,3.343c-1.528,1.227-1.499,1.487-2.951,2.618
	s-2.664,2.059-3.634,3.574c-0.97,1.516,0.552,0.991-0.948,2.479c-1.499,1.488-0.948,2.479-1.264,3.569
	c-0.314,1.089,0.871,1.481,0.402,2.764c-0.469,1.283-0.044,1.938-0.099,2.997c-0.056,1.06-0.229,1.08-0.218,1.957
	c0.013,0.877,0.389,1.097,0.38,1.801C405.659,257.221,405.375,258.571,406.204,258.916"/>
<path fill="#81AA8D" d="M419.581,341.023c-0.263-0.676-0.384-1.26-0.72-2.285c-0.335-1.026-0.642-1.327-0.909-2.611
	c-0.268-1.283-0.667-1.443-1.051-2.702c-0.384-1.26-0.315-1.517-0.749-3.01c-0.433-1.492-0.972-1.745-1.376-2.513
	c-0.404-0.769-1.177-0.973-1.96-2.393c-0.783-1.419-0.802-0.928-1.488-1.881c-0.685-0.953-1.399,0.292-2.361-0.238l-1.916,0.156
	c-0.666-1.443-5.075-0.402-4.419-0.174c0.655,0.229,1.177,0.972,1.482,1.273c0.307,0.302,1.201,1.088,1.532,1.506
	c0.33,0.418,2.401,2.179,3.559,3.643c1.157,1.463,5.801,6.217,7.993,8.561c1.129,1.205,2.205,3.709,2.985,5.857l-0.331-2.865
	C419.734,341.273,419.637,341.165,419.581,341.023"/>
<path fill="#81AA8D" d="M384.904,414.38c1.033-0.741,0.628-0.789,0.95-1.778c0.322-0.99,0.658-0.004,1.46-1.226
	s0.685,0.122,1.413-0.819c0.727-0.942,0.784-0.031,2.044-0.951s3.344,0.229,4.408,0.272c0.671,0.028,2.008,0.493,2.906,0.834
	l14.686,8.058c1.299,1.552,5.933,3.832,7.655,4.47c0.003-0.019,0.001-0.037,0.002-0.056l0.818,2
	c-0.264-0.304-0.574-0.632-0.952-0.994c-1.811-1.734-14.267-5.219-16.119-5.891c-1.854-0.671-9.836-1.654-15.382-1.691
	c-5.546-0.039-6.112-1.504-6.112-1.504S383.87,415.121,384.904,414.38"/>
<path fill="#81AA8D" d="M335.575,172.981c0,0,6.747,0.02,8.44,0.973c1.694,0.953,1.345,1.034,2.984,1.755
	c1.639,0.721,1.755,0.694,2.832,2.159c1.077,1.465,2.445,1.023,3.434,2.631s2.228,0.093,2.116,1.713
	c-0.112,1.62,2.294,1.426,1.813,2.519c-0.48,1.093,1.158,1.813,0.507,2.701c-0.65,0.887,1.051,1.348,0.311,2.379
	s0.632,2.182-0.435,1.818c-1.065-0.365-1.457-0.411-2.111-0.121c-2.333,1.035-1.066-0.364-2.434,0.078
	c-1.368,0.442-1.582,1.104-2.791,0.651c-1.209-0.453-0.875,0.449-2.596-0.62c-1.721-1.07-2.534-0.88-3.476-1.763
	c-0.942-0.884-2.073-2.581-3.085-2.713c-1.012-0.132-1.012-0.132-1.918-1.391c-0.907-1.26-5.15-5.786-8.188-11.451
	C330.98,174.299,331.926,173.097,335.575,172.981"/>
<path fill="#81AA8D" d="M330.808,336.784c0,0,0.197-0.229,0.153-0.405c-0.103-0.41-0.307-0.699,0.117-1.23
	c0.857-1.07-0.218-1.898,0.589-2.522c0.76-0.589,0.692-0.954,0.342-1.896c-0.288-0.774-0.504-1.119-0.135-1.789
	c0.369-0.672-1.04-1.717-1-2.44c0.065-1.165,0.227-1.429-1.291-2.405c-1.087-0.699-0.29-0.574-0.607-1.203
	c-0.318-0.629-1.841-0.654-2.49-1.572c-0.648-0.918-0.721-0.852-1.301-1.766c-0.581-0.914-0.222,0.402-1.6-1.16
	c-1.378-1.564-0.751-0.1-2.29-1.053c-1.539-0.951-2.952,0.09-4.242-0.236s-3.183,0.695-5.784-1.121
	c-2.603-1.818-3.146,3.234-0.87,6.343c2.277,3.106,0.605,0.298,0.981,1.204c0.375,0.906,1.263,1.011,1.905,2.064
	c0.645,1.055,0.915,1.133,1.771,2.059c0.854,0.927,0.904,1.408,1.764,2.197c0.86,0.789,1.162,1.828,2.642,2.573
	c1.479,0.744,2.668,1.89,3.958,2.214c1.86,0.471,1.946,1.038,3.177,1.156C327.824,335.911,328.921,335.955,330.808,336.784"/>
<path fill="#CFDDAC" d="M331.334,361.168c0,0,6.725,0.543,8.491-0.266c1.768-0.81,1.427-0.92,3.12-1.502s1.808-0.545,3.002-1.914
	c1.196-1.37,2.522-0.816,3.642-2.336c1.118-1.521,2.228,0.093,2.251-1.531c0.022-1.623,2.404-1.23,2.017-2.359
	s1.306-1.711,0.731-2.648c-0.575-0.939,1.158-1.258,0.507-2.346c-0.652-1.089,0.811-2.121-0.281-1.848s-1.486,0.288-2.115-0.057
	c-2.237-1.225-1.092,0.274-2.418-0.279c-1.327-0.555-1.483-1.232-2.727-0.881c-1.242,0.351-0.835-0.521-2.64,0.4
	c-1.803,0.924-2.598,0.666-3.609,1.469c-1.012,0.802-2.281,2.398-3.3,2.445c-1.02,0.047-1.02,0.047-2.028,1.228
	c-1.008,1.179-5.614,5.336-9.113,10.729C326.864,359.473,327.705,360.748,331.334,361.168"/>
<path fill="#81AA8D" d="M369.633,257.356c0,0,0.397,0.698,0.025,1.315c-0.372,0.618,0.208,0.409-0.283,1.044
	c-0.491,0.636-0.318,0.976-0.707,1.474c-0.391,0.498-0.949,1.168-1.307,1.393s0.052,0.188-0.578,0.551
	c-0.629,0.363-1.295,0.487-1.941,0.73c-0.648,0.244-0.866,0.74-1.651,0.882c-0.785,0.142-0.766,0.432-1.62,0.438
	c-0.854,0.006-1.897-0.278-2.582-0.273c-0.683,0.004-1.88-0.158-2.22,0.015c-0.341,0.173-0.649,0.072-1.229,0.11
	s-1.195,0.008-2.341,0.033c-1.144,0.025-2.358-0.258-3.35-0.354c-0.992-0.096-2.752-0.272-3.334-0.405
	c-0.582-0.132-0.31-0.271-1.369-0.332c-1.059-0.062-1.249-0.351-1.557-0.451c-0.309-0.101,1.18-2.399,1.18-2.399
	s1.138-0.879,2.601-1.88c1.462-1,6.072-3.986,6.907-4.282s7.938-3.435,10.129-2.664c0,0,1.696,0.723,1.15,0.83
	c-0.546,0.106,2.273,0.172,2.381,0.889c0.107,0.717,1.148,0.488,1.015,1.07c-0.133,0.581,0.96,0.54,0.76,1.156
	C369.51,256.862,369.664,257.083,369.633,257.356"/>
<path fill="#81AA8D" d="M334.274,223.223c0,0,0.837-0.327,0.54-2.04c-0.296-1.713,0.372-1.447,0.347-3.211
	c-0.024-1.765,1.759-2.58,1.536-4.195c-0.221-1.615,1.6-0.752,1.724-2.32c0.124-1.569,1.566-1.814,2.197-3.225
	c0.631-1.412,1.755-1.259,2.623-2.463c0.867-1.203,1.057-0.649,1.825-1.778c0.77-1.129,4.813-1.726,5.995-2.006
	c1.183-0.281,1.686-0.741,2.7-0.427c1.014,0.313,7.674,3.152,11.323,0.916c0,0,1.753,0.061,0.343,1.367
	c-1.409,1.306-2.651,2.019-3.324,4.393c-0.674,2.374-2.25,6.212-3.51,7.714c-1.261,1.503-1.52,1.468-2.682,2.895
	c-1.162,1.428-2.115,2.62-3.65,3.557c-1.536,0.936-0.98-0.573-2.499,0.894c-1.52,1.467-2.499,0.895-3.596,1.187
	c-1.096,0.291-1.463-0.903-2.755-0.461c-1.293,0.441-1.938,0.001-2.999,0.034c-1.061,0.032-1.084,0.205-1.96,0.175
	c-0.877-0.031-1.089-0.412-1.793-0.419C335.957,223.803,334.602,224.06,334.274,223.223"/>
<path fill="#81AA8D" d="M331.732,303.957c0.263-0.676,0.384-1.259,0.72-2.285c0.335-1.026,0.643-1.327,0.909-2.611
	c0.269-1.283,0.667-1.443,1.051-2.702c0.385-1.26,0.316-1.517,0.749-3.01c0.434-1.492,0.973-1.745,1.376-2.513
	c0.404-0.768,1.178-0.972,1.96-2.392c0.783-1.419,0.803-0.928,1.488-1.881s1.4,0.292,2.362-0.238l1.916,0.156
	c0.666-1.444,5.075-0.403,4.419-0.174c-0.656,0.228-1.177,0.972-1.483,1.273c-0.306,0.302-1.201,1.089-1.532,1.507
	c-0.329,0.418-2.4,2.178-3.559,3.641c-1.157,1.463-5.8,6.217-7.993,8.56c-1.129,1.206-2.205,3.71-2.984,5.858l0.331-2.866
	C331.578,304.208,331.677,304.098,331.732,303.957"/>
<path fill="#81AA8D" d="M325.236,263.358c-0.599-1.122-0.7-0.726-1.638-1.176c-0.939-0.45,0.082-0.653-1.023-1.609
	c-1.104-0.955,0.211-0.662-0.627-1.508c-0.838-0.845,0.073-0.782-0.673-2.152s0.668-3.284,0.851-4.333
	c0.116-0.661,0.755-1.926,1.21-2.771l9.922-13.498c1.708-1.083,4.58-5.376,5.438-7c-0.018-0.004-0.036-0.005-0.054-0.009
	l2.091-0.548c-0.336,0.221-0.703,0.487-1.112,0.814c-1.958,1.564-7.053,13.455-7.962,15.203c-0.909,1.749-2.935,9.532-3.702,15.025
	c-0.768,5.492-2.295,5.861-2.295,5.861S325.835,264.48,325.236,263.358"/>
<path fill="#CFDDAC" d="M340.318,450.923c0,0,0.042-0.802-0.566-1.188c-0.61-0.386,0.002-0.458-0.723-0.806
	c-0.725-0.347-0.723-0.729-1.294-0.999c-0.572-0.271-1.373-0.617-1.793-0.657s-0.037-0.19-0.763-0.232
	c-0.726-0.041-1.375,0.146-2.063,0.22c-0.688,0.073-1.106-0.272-1.872-0.047c-0.765,0.226-0.878-0.043-1.644,0.336
	c-0.765,0.378-1.571,1.101-2.184,1.402c-0.612,0.304-1.608,0.986-1.99,0.984c-0.382-0.003-0.613,0.227-1.148,0.452
	c-0.536,0.228-1.072,0.529-2.105,1.021c-1.034,0.491-1.992,1.289-2.835,1.819c-0.844,0.53-2.337,1.479-2.798,1.858
	c-0.46,0.38-0.154,0.381-1.073,0.912c-0.919,0.529-0.959,0.874-1.189,1.102c-0.23,0.229,2.131,1.614,2.131,1.614
	s1.412,0.273,3.168,0.513c1.757,0.236,7.217,0.835,8.096,0.726c0.879-0.111,8.635-0.495,10.247-2.169c0,0,1.189-1.406,0.654-1.257
	c-0.536,0.149,1.953-1.175,1.728-1.863c-0.226-0.688,0.807-0.951,0.427-1.411s0.616-0.914,0.159-1.374
	C340.43,451.42,340.47,451.152,340.318,450.923"/>
<path fill="#81AA8D" d="M344.016,382.467c0,0-0.437,0.785-2.094,0.262c-1.658-0.523-1.484,0.174-3.229-0.088
	c-1.745-0.261-2.792,1.397-4.363,0.961c-1.569-0.437-0.96,1.483-2.529,1.396c-1.571-0.088-2.007,1.309-3.491,1.745
	c-1.483,0.437-1.483,1.569-2.792,2.268c-1.31,0.698-0.785,0.96-2.007,1.571s-2.356,4.537-2.792,5.672
	c-0.437,1.135-0.96,1.571-0.785,2.618c0.174,1.047,2.094,8.026-0.611,11.343c0,0-0.175,1.745,1.31,0.523
	c1.482-1.221,2.355-2.355,4.799-2.704c2.442-0.349,6.457-1.396,8.115-2.443c1.657-1.048,1.657-1.309,3.229-2.269
	c1.57-0.961,2.879-1.745,4.013-3.141c1.136-1.397-0.436-1.049,1.223-2.356c1.657-1.31,1.222-2.356,1.657-3.404
	c0.437-1.047-0.697-1.569-0.087-2.792c0.611-1.221,0.263-1.92,0.437-2.967c0.175-1.047,0.349-1.047,0.436-1.919
	c0.088-0.873-0.261-1.136-0.174-1.833C344.364,384.212,344.8,382.902,344.016,382.467"/>
<path fill="#81AA8D" d="M324.733,488.364c0.592-0.419,1.128-0.679,2.042-1.253c0.913-0.575,1.131-0.945,2.312-1.517
	c1.18-0.571,1.238-0.997,2.366-1.677c1.128-0.678,1.396-0.675,2.737-1.457c1.343-0.782,1.457-1.367,2.104-1.945
	c0.646-0.577,0.657-1.377,1.844-2.48c1.187-1.104,0.706-1.004,1.464-1.9c0.758-0.896-0.623-1.287-0.343-2.35l-0.616-1.82
	c1.238-0.997-0.842-5.021-0.904-4.329s-0.658,1.377-0.876,1.748c-0.218,0.369-0.764,1.429-1.09,1.852
	c-0.325,0.423-1.529,2.858-2.667,4.337s-4.622,7.137-6.363,9.834c-0.895,1.387-3.063,3.039-4.958,4.316l2.701-1.018
	C324.527,488.573,324.609,488.452,324.733,488.364"/>
<path fill="#81AA8D" d="M355.082,444.232c-0.01-1.272,0.269-0.973,0.878-1.815c0.609-0.845-0.385-0.534,0.13-1.902
	c0.514-1.366-0.502-0.48-0.17-1.624s-0.438-0.651-0.438-2.212s-2.156-2.565-2.818-3.399c-0.418-0.525-1.582-1.332-2.386-1.855
	l-15.165-7.117c-2.019-0.135-6.593-2.535-8.123-3.551c0.015-0.012,0.03-0.021,0.043-0.033l-2.098,0.518
	c0.401,0.034,0.85,0.092,1.366,0.184c2.468,0.44,12.624,8.449,14.258,9.551c1.634,1.103,7.133,6.972,10.432,11.43
	c3.3,4.458,4.816,4.053,4.816,4.053S355.093,445.504,355.082,444.232"/>
<path fill="#81AA8D" d="M275.855,195.894c0,0,0.303-0.008,0.404-0.157c0.236-0.351,0.315-0.697,0.992-0.736
	c1.37-0.08,1.265-1.432,2.268-1.252c0.947,0.171,1.173-0.124,1.64-1.016c0.382-0.731,0.492-1.122,1.238-1.297
	c0.746-0.174,0.579-1.922,1.144-2.376c0.909-0.731,1.214-0.788,0.923-2.569c-0.208-1.274,0.231-0.599,0.488-1.257
	c0.255-0.657-0.746-1.805-0.499-2.902c0.247-1.096,0.15-1.105,0.44-2.149c0.291-1.043-0.446,0.105-0.208-1.965
	c0.24-2.07-0.429-0.623-0.751-2.405c-0.323-1.781-2.042-2.134-2.663-3.311c-0.622-1.176-2.647-1.898-3.038-5.048
	s-4.51-0.172-5.295,3.599c-0.786,3.772,0.184,0.65-0.238,1.535c-0.423,0.886,0.095,1.615-0.259,2.799
	c-0.352,1.184-0.229,1.438-0.345,2.693c-0.116,1.254-0.441,1.613-0.451,2.78s-0.582,2.087-0.145,3.685
	c0.437,1.597,0.382,3.246,1.003,4.423c0.896,1.697,0.533,2.141,1.269,3.133C274.507,193.094,275.208,193.937,275.855,195.894"/>
<path fill="#81AA8D" d="M283.095,211.192c0,0-6.459,1.95-7.808,3.348c-1.351,1.398-0.993,1.376-2.357,2.536
	c-1.364,1.16-1.483,1.167-2.096,2.879c-0.613,1.712-2.05,1.68-2.537,3.504c-0.486,1.824-2.108,0.727-1.537,2.247
	c0.572,1.52-1.79,2.023-1.016,2.933c0.772,0.909-0.592,2.069,0.285,2.733c0.879,0.664-0.619,1.593,0.386,2.369
	c1.004,0.775,0.019,2.271,0.936,1.617c0.916-0.654,1.278-0.811,1.989-0.72c2.531,0.324,0.917-0.654,2.354-0.622
	c1.438,0.031,1.831,0.605,2.86-0.175c1.028-0.781,0.967,0.18,2.311-1.338c1.342-1.517,2.176-1.568,2.825-2.684
	c0.649-1.116,1.247-3.066,2.18-3.482c0.931-0.416,0.931-0.416,1.438-1.882c0.509-1.467,3.279-7.018,4.568-13.316
	C287.876,211.139,286.626,210.258,283.095,211.192"/>
<path fill="#81AA8D" d="M305.811,165.245c-0.592-0.419-1.128-0.679-2.042-1.253c-0.913-0.575-1.131-0.945-2.312-1.516
	c-1.18-0.572-1.238-0.997-2.366-1.676c-1.128-0.678-1.396-0.675-2.737-1.457c-1.343-0.783-1.457-1.368-2.104-1.946
	c-0.647-0.578-0.658-1.377-1.845-2.481c-1.187-1.105-0.705-1.004-1.464-1.901c-0.758-0.896,0.623-1.287,0.344-2.35l0.615-1.82
	c-1.237-0.997,0.843-5.021,0.904-4.329c0.063,0.692,0.658,1.377,0.876,1.748c0.218,0.37,0.764,1.429,1.09,1.851
	c0.325,0.423,1.529,2.859,2.667,4.337s4.622,7.137,6.363,9.834c0.895,1.387,3.063,3.039,4.958,4.317l-2.701-1.017
	C306.017,165.454,305.935,165.333,305.811,165.245"/>
<path fill="#81AA8D" d="M271.77,374.018c0,0-0.197-0.23-0.152-0.406c0.102-0.409,0.306-0.699-0.118-1.229
	c-0.857-1.07,0.218-1.898-0.588-2.523c-0.761-0.588-0.693-0.955-0.343-1.897c0.288-0.772,0.504-1.117,0.136-1.788
	c-0.37-0.671,1.04-1.717,1-2.439c-0.066-1.166-0.228-1.43,1.291-2.405c1.086-0.699,0.29-0.574,0.606-1.204
	c0.318-0.629,1.841-0.654,2.49-1.571c0.649-0.918,0.721-0.852,1.302-1.766c0.58-0.915,0.221,0.401,1.599-1.161
	c1.379-1.564,0.752-0.1,2.29-1.052c1.539-0.952,2.952,0.089,4.242-0.237c1.29-0.325,3.183,0.696,5.784-1.121
	c2.604-1.818,3.146,3.235,0.87,6.344c-2.277,3.106-0.605,0.297-0.981,1.203c-0.375,0.907-1.262,1.012-1.905,2.065
	c-0.645,1.054-0.915,1.133-1.771,2.059c-0.854,0.925-0.903,1.407-1.764,2.196c-0.86,0.788-1.162,1.829-2.642,2.574
	c-1.479,0.744-2.668,1.889-3.958,2.214c-1.86,0.47-1.946,1.038-3.177,1.155C274.752,373.145,273.656,373.188,271.77,374.018"/>
<path fill="#81AA8D" d="M298.794,412.799c0,0-5.841-3.376-6.835-5.046c-0.995-1.669-0.652-1.565-1.714-3.008
	c-1.063-1.44-1.178-1.476-1.383-3.282c-0.204-1.807-1.611-2.105-1.668-3.99c-0.056-1.888-1.886-1.19-0.981-2.539
	c0.904-1.35-1.28-2.379-0.319-3.088s-0.102-2.15,0.904-2.596c1.007-0.445-0.239-1.691,0.916-2.218
	c1.155-0.525,0.539-2.206,1.281-1.36c0.742,0.848,1.06,1.082,1.771,1.156c2.539,0.264,0.743,0.846,2.149,1.145
	c1.407,0.297,1.921-0.17,2.744,0.824c0.822,0.995,0.983,0.047,1.942,1.83c0.96,1.784,1.76,2.025,2.137,3.26
	c0.377,1.235,0.514,3.271,1.325,3.889s0.812,0.617,0.971,2.162c0.159,1.543,1.586,7.58,1.4,14.008
	C303.436,413.945,302.018,414.516,298.794,412.799"/>
<path fill="#81AA8D" d="M262.393,303.513c0,0-0.397,0.698-0.025,1.315c0.371,0.618-0.208,0.409,0.283,1.044
	c0.491,0.635,0.318,0.976,0.707,1.474c0.391,0.498,0.949,1.167,1.307,1.392s-0.053,0.188,0.578,0.551
	c0.629,0.363,1.295,0.486,1.941,0.73c0.648,0.244,0.867,0.739,1.651,0.881c0.785,0.143,0.766,0.433,1.62,0.438
	c0.854,0.006,1.897-0.278,2.582-0.272c0.683,0.004,1.88-0.159,2.22,0.015c0.341,0.173,0.648,0.071,1.229,0.11
	c0.581,0.037,1.196,0.008,2.342,0.033c1.144,0.023,2.358-0.259,3.35-0.354c0.992-0.097,2.752-0.272,3.334-0.405
	s0.309-0.271,1.369-0.332c1.059-0.063,1.249-0.352,1.557-0.451c0.309-0.101-1.18-2.399-1.18-2.399s-1.138-0.878-2.602-1.879
	c-1.462-1-6.071-3.986-6.906-4.282s-7.938-3.435-10.129-2.664c0,0-1.696,0.723-1.15,0.829c0.546,0.106-2.273,0.173-2.381,0.89
	c-0.107,0.717-1.148,0.488-1.016,1.07c0.134,0.581-0.96,0.54-0.759,1.156C262.516,303.018,262.361,303.239,262.393,303.513"/>
<path fill="#81AA8D" d="M294.657,258.916c0,0,0.345-0.83,2.051-0.496c1.706,0.333,1.454-0.341,3.218-0.278s2.617-1.702,4.227-1.446
	c1.61,0.256,0.786-1.582,2.357-1.673c1.569-0.09,1.846-1.527,3.271-2.127c1.425-0.602,1.297-1.729,2.519-2.57
	c1.222-0.841,0.672-1.042,1.816-1.787c1.146-0.744,1.829-4.774,2.135-5.95c0.306-1.177,0.776-1.669,0.485-2.69
	c-0.292-1.021-2.987-7.74-0.673-11.34c0,0-0.023-1.754-1.36-0.373c-1.336,1.381-2.074,2.607-4.463,3.23
	c-2.388,0.622-6.258,2.115-7.788,3.343c-1.528,1.227-1.499,1.487-2.952,2.618c-1.451,1.131-2.663,2.059-3.632,3.574
	c-0.971,1.516,0.551,0.991-0.949,2.479c-1.499,1.488-0.948,2.479-1.264,3.569c-0.314,1.089,0.871,1.481,0.402,2.764
	c-0.469,1.283-0.044,1.938-0.099,2.997c-0.056,1.06-0.229,1.08-0.218,1.957c0.013,0.877,0.389,1.097,0.381,1.801
	C294.113,257.221,293.827,258.571,294.657,258.916"/>
<path fill="#CFDDAC" d="M286.016,340.296c-0.263-0.676-0.384-1.259-0.72-2.285c-0.335-1.026-0.643-1.327-0.909-2.61
	c-0.268-1.283-0.667-1.443-1.051-2.702c-0.384-1.261-0.316-1.517-0.749-3.011c-0.434-1.492-0.972-1.744-1.376-2.513
	c-0.404-0.768-1.177-0.972-1.96-2.392s-0.802-0.928-1.488-1.881c-0.685-0.953-1.4,0.291-2.362-0.238l-1.916,0.156
	c-0.666-1.444-5.074-0.403-4.419-0.174c0.656,0.228,1.178,0.972,1.483,1.272c0.306,0.302,1.201,1.089,1.531,1.507
	c0.331,0.418,2.401,2.178,3.56,3.641c1.157,1.463,5.8,6.218,7.993,8.561c1.129,1.206,2.205,3.71,2.985,5.857l-0.331-2.865
	C286.169,340.547,286.071,340.438,286.016,340.296"/>
<path fill="#81AA8D" d="M21.806,364.855c0.599-1.121,0.7-0.726,1.638-1.176c0.939-0.449-0.082-0.652,1.023-1.609
	c1.104-0.954-0.211-0.661,0.627-1.508c0.838-0.845-0.073-0.781,0.673-2.151c0.747-1.37-0.668-3.284-0.851-4.333
	c-0.116-0.661-0.754-1.926-1.209-2.771l-9.922-13.498c-1.708-1.082-4.58-5.375-5.438-7c0.019-0.004,0.036-0.004,0.054-0.009
	l-2.091-0.548c0.336,0.223,0.703,0.486,1.112,0.814c1.958,1.565,7.053,13.455,7.962,15.203s2.935,9.531,3.702,15.024
	c0.768,5.492,2.295,5.86,2.295,5.86S21.207,365.979,21.806,364.855"/>
<path fill="#CFDDAC" d="M274.729,412.675c0,0-0.087,0.894,1.574,1.406c1.662,0.511,1.122,0.985,2.706,1.763
	c1.585,0.776,1.504,2.736,3.044,3.27c1.541,0.533-0.053,1.766,1.289,2.587s0.907,2.218,1.88,3.42
	c0.972,1.202,0.328,2.135,1.008,3.454c0.681,1.317,0.101,1.235,0.758,2.433c0.658,1.197-0.64,5.072-0.926,6.254
	c-0.286,1.183-0.103,1.838-0.842,2.602c-0.738,0.762-6.286,5.414-5.945,9.68c0,0-0.848,1.535-1.374-0.313
	c-0.525-1.85-0.599-3.278-2.411-4.954c-1.812-1.676-4.52-4.818-5.287-6.622c-0.77-1.805-0.621-2.021-1.367-3.702
	c-0.747-1.682-1.378-3.072-1.518-4.866c-0.14-1.793,0.954-0.612,0.333-2.633c-0.62-2.02,0.334-2.632,0.571-3.742
	c0.236-1.109,1.467-0.895,1.658-2.248c0.191-1.353,0.876-1.728,1.328-2.688c0.451-0.959,0.308-1.06,0.731-1.826
	c0.424-0.768,0.86-0.785,1.186-1.409C273.451,413.912,273.836,412.588,274.729,412.675"/>
<path fill="#81AA8D" d="M262.665,480.572c0.01-1.272-0.269-0.973-0.877-1.815c-0.61-0.845,0.384-0.534-0.13-1.901
	c-0.515-1.367,0.502-0.481,0.17-1.624c-0.332-1.145,0.438-0.652,0.437-2.213s2.156-2.565,2.818-3.399
	c0.418-0.525,1.582-1.332,2.386-1.855l15.165-7.117c2.019-0.135,6.593-2.534,8.123-3.551c-0.014-0.013-0.03-0.021-0.043-0.033
	l2.098,0.518c-0.4,0.034-0.85,0.092-1.366,0.185c-2.468,0.439-12.624,8.448-14.258,9.552c-1.634,1.102-7.133,6.971-10.432,11.429
	s-4.816,4.053-4.816,4.053S262.655,481.844,262.665,480.572"/>
<path fill="#CFDDAC" d="M100.154,463.953c0,0,0.208,0.22,0.388,0.195c0.419-0.061,0.728-0.232,1.211,0.243
	c0.976,0.966,1.911-0.019,2.448,0.849c0.507,0.816,0.877,0.788,1.852,0.538c0.799-0.206,1.163-0.387,1.792,0.052
	c0.629,0.438,1.817-0.855,2.531-0.741c1.151,0.188,1.397,0.374,2.526-1.033c0.808-1.008,0.601-0.229,1.261-0.479
	c0.658-0.25,0.842-1.762,1.821-2.313c0.98-0.552,0.922-0.629,1.893-1.11c0.97-0.482-0.377-0.263,1.32-1.471
	c1.699-1.208,0.177-0.735,1.284-2.169c1.108-1.432,0.22-2.943,0.678-4.192s-0.361-3.238,1.718-5.638
	c2.079-2.397-2.891-3.465-6.218-1.523c-3.328,1.94-0.36,0.57-1.301,0.85s-1.137,1.15-2.252,1.683
	c-1.116,0.529-1.223,0.792-2.231,1.546c-1.011,0.753-1.494,0.752-2.368,1.524c-0.874,0.773-1.94,0.967-2.835,2.358
	c-0.895,1.394-2.156,2.457-2.614,3.706c-0.661,1.803-1.235,1.829-1.479,3.04C101.333,461.078,101.175,462.162,100.154,463.953"/>
<path fill="#81AA8D" d="M75.848,461.938c0,0-1.24,6.633-0.619,8.476c0.621,1.841,0.767,1.514,1.168,3.258
	c0.403,1.745,0.354,1.854,1.592,3.187c1.238,1.332,0.55,2.594,1.945,3.863c1.396,1.271-0.324,2.207,1.288,2.397
	c1.612,0.191,0.973,2.521,2.136,2.252c1.164-0.269,1.566,1.478,2.56,1.004c0.994-0.476,1.129,1.282,2.279,0.748
	c1.151-0.535,2.026,1.027,1.867-0.088c-0.16-1.114-0.132-1.509,0.275-2.099c1.452-2.099-0.159-1.114,0.531-2.376
	c0.688-1.262,1.38-1.347,1.159-2.619c-0.22-1.271,0.605-0.775-0.125-2.666c-0.729-1.891-0.392-2.654-1.084-3.744
	c-0.691-1.09-2.148-2.52-2.09-3.537c0.061-1.019,0.061-1.019-1.009-2.145c-1.068-1.126-4.723-6.139-9.722-10.181
	C78,457.669,76.643,458.374,75.848,461.938"/>
<path fill="#81AA8D" d="M33.595,267.261c0,0,0.292-0.079,0.432,0.035c0.327,0.268,0.501,0.577,1.161,0.421
	c1.335-0.316,1.623,1.01,2.531,0.55c0.859-0.434,1.16-0.217,1.862,0.504c0.574,0.592,0.793,0.935,1.558,0.888
	c0.765-0.046,1.106,1.677,1.776,1.95c1.08,0.44,1.388,0.408,1.62,2.198c0.165,1.28,0.394,0.507,0.825,1.064
	c0.434,0.557-0.196,1.943,0.354,2.923c0.551,0.979,0.461,1.016,1.038,1.933c0.578,0.917-0.458,0.028,0.364,1.943
	c0.821,1.915-0.233,0.72-0.032,2.519c0.201,1.799-1.346,2.629-1.604,3.935c-0.259,1.305-1.993,2.576-1.466,5.706
	s-4.271,1.456-6.103-1.933s-0.011-0.674-0.668-1.402c-0.658-0.728-0.372-1.574-1.05-2.608c-0.676-1.033-0.632-1.312-1.101-2.48
	c-0.47-1.169-0.885-1.42-1.229-2.535c-0.344-1.115-1.154-1.834-1.193-3.489c-0.039-1.655-0.563-3.22-0.305-4.525
	c0.373-1.883-0.103-2.204,0.317-3.366C33.104,270.33,33.536,269.321,33.595,267.261"/>
<path fill="#81AA8D" d="M58.195,258.847c0,0-6.747-0.02-8.439-0.973c-1.694-0.953-1.345-1.034-2.984-1.755
	c-1.639-0.721-1.755-0.694-2.833-2.159c-1.077-1.465-2.444-1.023-3.433-2.631s-2.229-0.093-2.116-1.713
	c0.112-1.62-2.294-1.426-1.813-2.519c0.48-1.093-1.158-1.813-0.508-2.701c0.651-0.887-1.05-1.348-0.31-2.379
	c0.74-1.031-0.632-2.182,0.434-1.818c1.066,0.365,1.457,0.411,2.112,0.121c2.333-1.035,1.066,0.364,2.433-0.078
	c1.368-0.442,1.582-1.104,2.791-0.651c1.209,0.453,0.875-0.45,2.597,0.62c1.721,1.07,2.534,0.88,3.476,1.763
	c0.942,0.884,2.073,2.581,3.085,2.713c1.011,0.132,1.011,0.132,1.918,1.391c0.907,1.26,5.15,5.786,8.188,11.451
	C62.792,257.529,61.845,258.731,58.195,258.847"/>
<path fill="#CFDDAC" d="M63.463,337.527c0,0-0.042,0.803,0.566,1.188c0.61,0.385-0.002,0.458,0.723,0.805
	c0.725,0.348,0.723,0.729,1.294,1c0.572,0.271,1.373,0.617,1.793,0.657s0.037,0.191,0.763,0.233s1.375-0.146,2.063-0.221
	c0.688-0.072,1.106,0.273,1.872,0.047c0.765-0.225,0.878,0.043,1.644-0.336c0.765-0.377,1.571-1.1,2.185-1.402
	c0.611-0.303,1.607-0.984,1.989-0.984c0.382,0.002,0.613-0.226,1.148-0.453c0.536-0.226,1.072-0.528,2.105-1.021
	c1.034-0.492,1.992-1.289,2.835-1.82c0.844-0.53,2.337-1.479,2.798-1.858c0.46-0.381,0.154-0.381,1.073-0.912
	c0.919-0.53,0.959-0.874,1.189-1.102c0.23-0.229-2.131-1.615-2.131-1.615s-1.412-0.273-3.168-0.51
	c-1.756-0.238-7.217-0.837-8.096-0.727c-0.879,0.111-8.635,0.495-10.247,2.168c0,0-1.189,1.406-0.654,1.257
	c0.536-0.149-1.953,1.175-1.728,1.864c0.226,0.688-0.807,0.951-0.427,1.41c0.38,0.461-0.616,0.914-0.159,1.375
	C63.351,337.031,63.312,337.298,63.463,337.527"/>
<path fill="#81AA8D" d="M53.345,472.335c0,0-0.736-0.516-0.042-2.11c0.693-1.595-0.02-1.492,0.422-3.2
	c0.442-1.71-1.098-2.924-0.5-4.439c0.597-1.517-1.376-1.109-1.125-2.662c0.25-1.553-1.093-2.133-1.373-3.653
	s-1.408-1.639-1.966-3.014c-0.558-1.374-0.873-0.88-1.353-2.159c-0.48-1.277-4.269-2.813-5.352-3.365
	c-1.082-0.554-1.462-1.118-2.521-1.056c-1.061,0.065-8.203,1.248-11.22-1.788c0,0-1.717-0.354-0.656,1.247
	c1.061,1.604,2.098,2.589,2.19,5.056s0.717,6.567,1.586,8.324c0.869,1.76,1.129,1.785,1.92,3.447
	c0.791,1.663,1.437,3.046,2.707,4.32c1.271,1.271,1.086-0.325,2.216,1.46s2.217,1.46,3.213,2.003
	c0.995,0.543,1.635-0.531,2.785,0.204c1.151,0.732,1.883,0.46,2.905,0.742c1.024,0.281,1.005,0.455,1.864,0.634
	c0.858,0.178,1.156-0.144,1.841,0.017C51.573,472.501,52.83,473.071,53.345,472.335"/>
<path fill="#81AA8D" d="M79.049,300.087c-0.592,0.419-1.128,0.679-2.042,1.253c-0.913,0.575-1.131,0.945-2.312,1.516
	c-1.18,0.572-1.238,0.997-2.366,1.676c-1.128,0.678-1.396,0.675-2.737,1.457c-1.343,0.783-1.457,1.368-2.104,1.946
	c-0.646,0.579-0.657,1.377-1.844,2.481s-0.706,1.004-1.464,1.9s0.623,1.287,0.343,2.351l0.616,1.819
	c-1.238,0.998,0.842,5.021,0.904,4.33s0.658-1.377,0.876-1.748c0.218-0.37,0.764-1.43,1.09-1.852
	c0.325-0.423,1.529-2.859,2.667-4.337s4.622-7.137,6.363-9.834c0.895-1.387,3.063-3.039,4.958-4.317l-2.701,1.017
	C79.255,299.878,79.173,299.999,79.049,300.087"/>
<path fill="#81AA8D" d="M48.698,344.219c0.01,1.271-0.269,0.973-0.878,1.816s0.385,0.533-0.13,1.902
	c-0.514,1.367,0.502,0.48,0.17,1.623c-0.332,1.145,0.438,0.652,0.438,2.213c-0.001,1.56,2.156,2.565,2.818,3.399
	c0.418,0.526,1.582,1.332,2.386,1.856l15.165,7.117c2.019,0.135,6.593,2.533,8.123,3.549c-0.015,0.014-0.03,0.022-0.043,0.035
	l2.098-0.518c-0.401-0.033-0.85-0.092-1.366-0.184c-2.468-0.44-12.624-8.449-14.258-9.551c-1.634-1.103-7.133-6.972-10.432-11.43
	s-4.816-4.053-4.816-4.053S48.688,342.948,48.698,344.219"/>
<path fill="#CFDDAC" d="M48.427,155.401c0,0-0.398-0.698-0.026-1.314c0.372-0.618-0.208-0.409,0.284-1.044
	c0.491-0.635,0.318-0.977,0.707-1.474c0.391-0.498,0.949-1.168,1.306-1.392c0.358-0.225-0.052-0.188,0.578-0.551
	c0.629-0.363,1.295-0.487,1.942-0.73c0.648-0.244,0.867-0.74,1.651-0.882s0.766-0.432,1.619-0.438
	c0.854-0.006,1.898,0.278,2.582,0.273c0.684-0.004,1.881,0.158,2.221-0.015c0.341-0.173,0.648-0.072,1.229-0.11
	c0.581-0.038,1.196-0.008,2.341-0.033c1.145-0.024,2.359,0.258,3.351,0.354c0.992,0.096,2.752,0.271,3.334,0.405
	c0.582,0.132,0.309,0.271,1.369,0.332c1.059,0.062,1.249,0.351,1.557,0.451c0.308,0.101-1.18,2.399-1.18,2.399
	s-1.139,0.879-2.602,1.88c-1.462,1-6.071,3.986-6.906,4.282c-0.836,0.296-7.938,3.435-10.13,2.664c0,0-1.695-0.723-1.149-0.829
	c0.546-0.107-2.273-0.173-2.381-0.89c-0.107-0.717-1.148-0.488-1.016-1.07c0.134-0.581-0.96-0.54-0.759-1.156
	C48.55,155.897,48.395,155.676,48.427,155.401"/>
<path fill="#81AA8D" d="M47.847,208.633c0,0,0.568,0.696,2.108-0.112c1.539-0.807,1.489-0.089,3.162-0.655
	c1.672-0.565,2.994,0.882,4.464,0.176c1.469-0.707,1.206,1.291,2.736,0.928c1.531-0.363,2.206,0.934,3.743,1.103
	c1.538,0.168,1.738,1.285,3.149,1.741s0.941,0.806,2.252,1.192c1.311,0.386,3.12,4.051,3.749,5.091
	c0.63,1.039,1.222,1.377,1.234,2.438c0.014,1.062-0.646,8.271,2.602,11.058c0,0,0.479,1.687-1.196,0.746
	c-1.675-0.94-2.733-1.903-5.201-1.816c-2.466,0.087-6.602-0.236-8.419-0.974c-1.815-0.738-1.861-0.996-3.578-1.664
	c-1.715-0.668-3.142-1.21-4.505-2.384c-1.361-1.174,0.245-1.108-1.618-2.104c-1.861-0.996-1.616-2.104-2.231-3.057
	c-0.614-0.954,0.411-1.67-0.406-2.764c-0.816-1.095-0.596-1.844-0.953-2.844c-0.355-1-0.527-0.969-0.768-1.812
	c-0.239-0.844,0.058-1.163-0.151-1.835S47.151,209.201,47.847,208.633"/>
<path fill="#81AA8D" d="M78.545,159.217c0.599,1.122,0.7,0.726,1.638,1.176c0.939,0.45-0.082,0.653,1.023,1.609
	c1.104,0.955-0.211,0.662,0.627,1.508c0.838,0.845-0.073,0.782,0.673,2.152s-0.668,3.284-0.852,4.333
	c-0.115,0.661-0.754,1.926-1.209,2.771l-9.922,13.498c-1.708,1.083-4.58,5.376-5.438,7c0.018,0.004,0.036,0.005,0.054,0.009
	l-2.091,0.548c0.336-0.222,0.703-0.487,1.112-0.813c1.958-1.566,7.053-13.455,7.962-15.203c0.909-1.749,2.935-9.532,3.702-15.025
	c0.768-5.492,2.295-5.861,2.295-5.861S77.946,158.095,78.545,159.217"/>
<path fill="#81AA8D" d="M132.012,359.498c0,0,0.197-0.23,0.153-0.405c-0.103-0.409-0.307-0.7,0.118-1.229
	c0.856-1.071-0.219-1.899,0.588-2.523c0.76-0.589,0.692-0.954,0.342-1.896c-0.288-0.774-0.504-1.118-0.135-1.789
	c0.369-0.672-1.04-1.717-1-2.44c0.065-1.165,0.227-1.429-1.291-2.405c-1.086-0.699-0.29-0.574-0.607-1.203
	c-0.318-0.629-1.841-0.654-2.49-1.571c-0.648-0.918-0.721-0.853-1.301-1.767c-0.581-0.914-0.222,0.402-1.6-1.16
	c-1.378-1.564-0.751-0.1-2.29-1.053c-1.539-0.951-2.952,0.09-4.242-0.236c-1.29-0.325-3.182,0.695-5.784-1.121
	c-2.603-1.818-3.146,3.234-0.87,6.343c2.277,3.106,0.605,0.298,0.981,1.204c0.375,0.906,1.262,1.011,1.906,2.064
	c0.644,1.055,0.914,1.133,1.77,2.06c0.855,0.926,0.904,1.407,1.764,2.196c0.86,0.789,1.162,1.828,2.642,2.574
	c1.479,0.743,2.668,1.889,3.958,2.213c1.86,0.471,1.946,1.039,3.177,1.156C129.029,358.625,130.125,358.668,132.012,359.498"/>
<path fill="#CFDDAC" d="M50.389,426.558c0,0-2.75-6.161-4.307-7.323c-1.558-1.162-1.49-0.811-2.813-2.018s-1.345-1.324-3.121-1.716
	c-1.774-0.392-1.925-1.821-3.796-2.074c-1.871-0.252-0.986-2-2.423-1.241c-1.435,0.758-2.233-1.521-3.037-0.638
	c-0.805,0.882-2.128-0.325-2.676,0.629c-0.547,0.955-1.658-0.413-2.301,0.681c-0.644,1.094-2.25,0.306-1.486,1.133
	c0.765,0.826,0.966,1.166,0.965,1.882c-0.001,2.552,0.766,0.827,0.915,2.257c0.15,1.43-0.37,1.893,0.534,2.814
	s-0.056,0.982,1.619,2.123c1.674,1.141,1.83,1.962,3.019,2.465c1.189,0.503,3.2,0.85,3.73,1.722c0.53,0.871,0.53,0.871,2.048,1.191
	c1.519,0.318,7.376,2.365,13.786,2.85C51.045,431.293,51.761,429.942,50.389,426.558"/>
<path fill="#81AA8D" d="M140.365,399.372c0,0-0.653-0.468-1.306-0.163c-0.652,0.307-0.385-0.249-1.067,0.174
	c-0.684,0.422-1.005,0.215-1.54,0.551s-1.261,0.821-1.521,1.153c-0.261,0.332-0.181-0.071-0.607,0.517
	c-0.427,0.59-0.619,1.237-0.929,1.856s-0.827,0.785-1.05,1.55c-0.222,0.766-0.509,0.717-0.604,1.566
	c-0.095,0.849,0.078,1.917,0.004,2.596c-0.076,0.68-0.039,1.887-0.246,2.207c-0.208,0.321-0.141,0.637-0.238,1.211
	c-0.098,0.573-0.133,1.188-0.276,2.324c-0.144,1.135,0.012,2.373,0.003,3.369c-0.008,0.996-0.016,2.766,0.057,3.357
	c0.071,0.593,0.237,0.336,0.188,1.396c-0.049,1.06,0.219,1.279,0.286,1.596c0.068,0.317,2.509-0.924,2.509-0.924
	s0.993-1.041,2.141-2.391c1.146-1.352,4.597-5.625,4.978-6.424c0.381-0.801,4.243-7.539,3.704-9.799c0,0-0.543-1.762-0.706-1.229
	c-0.162,0.532,0.065-2.278-0.637-2.46c-0.701-0.182-0.365-1.192-0.958-1.12c-0.592,0.071-0.438-1.013-1.071-0.876
	C140.844,399.546,140.64,399.368,140.365,399.372"/>
<path fill="#81AA8D" d="M101.322,419.039c0.699-0.191,1.292-0.251,2.348-0.479c1.056-0.227,1.387-0.5,2.69-0.633
	c1.306-0.133,1.507-0.512,2.799-0.764c1.292-0.251,1.541-0.156,3.07-0.432s1.837-0.785,2.644-1.106
	c0.806-0.321,1.089-1.069,2.582-1.701c1.493-0.631,1.007-0.7,2.025-1.284c1.02-0.582-0.144-1.422,0.483-2.324l0.044-1.922
	c1.505-0.512,0.929-5.006,0.633-4.377c-0.295,0.629-1.089,1.069-1.421,1.342c-0.331,0.273-1.207,1.082-1.658,1.367
	c-0.45,0.285-2.415,2.162-3.991,3.162c-1.575,0.998-6.786,5.121-9.346,7.059c-1.315,0.996-3.919,1.806-6.137,2.357l2.886-0.029
	C101.058,419.165,101.176,419.079,101.322,419.039"/>
<path fill="#81AA8D" d="M136.395,231.483c0,0-0.292-0.079-0.432,0.035c-0.327,0.268-0.501,0.577-1.161,0.421
	c-1.335-0.316-1.623,1.01-2.531,0.55c-0.858-0.434-1.16-0.217-1.861,0.504c-0.575,0.592-0.793,0.935-1.559,0.888
	c-0.765-0.046-1.105,1.677-1.775,1.95c-1.08,0.44-1.389,0.408-1.62,2.198c-0.165,1.28-0.395,0.507-0.826,1.064
	c-0.434,0.557,0.197,1.943-0.354,2.923s-0.461,1.016-1.038,1.933s0.458,0.028-0.363,1.943c-0.822,1.915,0.232,0.72,0.031,2.519
	c-0.2,1.799,1.346,2.629,1.604,3.935c0.259,1.305,1.993,2.576,1.466,5.706c-0.526,3.13,4.271,1.456,6.104-1.933
	c1.832-3.389,0.01-0.674,0.668-1.402c0.657-0.728,0.372-1.574,1.049-2.608c0.676-1.033,0.632-1.312,1.101-2.481
	c0.471-1.169,0.885-1.42,1.229-2.535c0.344-1.115,1.154-1.834,1.193-3.489s0.563-3.22,0.306-4.525
	c-0.374-1.883,0.102-2.204-0.318-3.366C136.885,234.553,136.454,233.544,136.395,231.483"/>
<path fill="#81AA8D" d="M111.794,223.07c0,0,6.747-0.02,8.439-0.973c1.694-0.953,1.346-1.034,2.984-1.755
	c1.639-0.721,1.755-0.694,2.833-2.159c1.077-1.465,2.445-1.023,3.433-2.631c0.988-1.608,2.229-0.093,2.116-1.713
	s2.294-1.426,1.814-2.519c-0.481-1.093,1.157-1.813,0.507-2.701c-0.651-0.887,1.05-1.348,0.31-2.379
	c-0.739-1.031,0.632-2.182-0.434-1.818c-1.066,0.365-1.457,0.411-2.112,0.121c-2.333-1.035-1.065,0.364-2.433-0.078
	c-1.368-0.442-1.582-1.104-2.791-0.651s-0.875-0.449-2.597,0.62c-1.721,1.07-2.533,0.88-3.476,1.763
	c-0.942,0.884-2.073,2.581-3.085,2.713c-1.011,0.132-1.011,0.132-1.918,1.391c-0.907,1.26-5.15,5.786-8.188,11.451
	C107.198,221.752,108.144,222.954,111.794,223.07"/>
<path fill="#81AA8D" d="M126.352,301.188c0,0,0.042,0.802-0.566,1.187c-0.61,0.385,0.002,0.458-0.723,0.805
	c-0.725,0.347-0.723,0.729-1.294,0.999c-0.572,0.271-1.373,0.618-1.793,0.658s-0.037,0.191-0.763,0.233s-1.375-0.146-2.063-0.22
	c-0.688-0.073-1.106,0.273-1.872,0.047c-0.765-0.225-0.878,0.043-1.644-0.336c-0.765-0.378-1.571-1.1-2.184-1.403
	c-0.612-0.303-1.608-0.985-1.99-0.984c-0.382,0.002-0.613-0.226-1.148-0.453c-0.536-0.226-1.071-0.529-2.105-1.021
	c-1.034-0.492-1.992-1.289-2.835-1.82c-0.844-0.531-2.337-1.479-2.797-1.859c-0.461-0.38-0.155-0.381-1.074-0.912
	c-0.919-0.53-0.959-0.874-1.189-1.102s2.131-1.614,2.131-1.614s1.412-0.274,3.168-0.511c1.757-0.238,7.217-0.836,8.096-0.726
	c0.879,0.111,8.635,0.495,10.247,2.168c0,0,1.189,1.407,0.654,1.257c-0.536-0.15,1.953,1.175,1.728,1.864
	c-0.226,0.688,0.807,0.951,0.427,1.411s0.616,0.914,0.159,1.374C126.464,300.691,126.504,300.958,126.352,301.188"/>
<path fill="#81AA8D" d="M52.77,402.611c0,0,0.898,0.006,1.234,1.712s0.865,1.218,1.472,2.875c0.608,1.657,2.565,1.78,2.936,3.368
	c0.371,1.586,1.762,0.129,2.438,1.55c0.677,1.42,2.111,1.134,3.206,2.226c1.094,1.092,2.089,0.549,3.33,1.362
	c1.24,0.813,1.219,0.229,2.34,1.007c1.122,0.779,5.112-0.109,6.317-0.27c1.204-0.162,1.838,0.088,2.673-0.567
	s6.04-5.688,10.247-4.905c0,0,1.615-0.684-0.169-1.398c-1.783-0.717-3.197-0.938-4.675-2.914c-1.479-1.977-4.322-4.996-6.037-5.949
	c-1.714-0.952-1.943-0.827-3.539-1.744c-1.596-0.918-2.912-1.689-4.683-2.016c-1.769-0.325-0.709,0.885-2.652,0.059
	c-1.944-0.826-2.653,0.059-3.781,0.178s-1.043,1.365-2.408,1.416c-1.365,0.049-1.81,0.69-2.813,1.039
	c-1.002,0.35-1.086,0.196-1.895,0.539c-0.807,0.342-0.869,0.773-1.523,1.031C54.134,401.468,52.776,401.713,52.77,402.611"/>
<path fill="#81AA8D" d="M100.168,271.694c-0.726-0.021-1.315,0.059-2.395,0.087c-1.079,0.027-1.465-0.161-2.764,0.017
	c-1.299,0.177-1.584-0.145-2.899-0.086c-1.314,0.06-1.534,0.21-3.086,0.302c-1.552,0.092-1.971-0.332-2.829-0.455
	c-0.858-0.124-1.31-0.784-2.909-1.046c-1.601-0.263-1.145-0.446-2.271-0.773c-1.127-0.327-0.194-1.417-1.015-2.147l-0.494-1.855
	c-1.584-0.146-2.079-4.648-1.645-4.106c0.436,0.542,1.311,0.784,1.696,0.971c0.387,0.188,1.428,0.768,1.934,0.939
	c0.505,0.172,2.855,1.535,4.621,2.135c1.768,0.602,7.802,3.385,10.743,4.667c1.514,0.66,4.233,0.836,6.52,0.852l-2.813,0.647
	C100.456,271.754,100.32,271.699,100.168,271.694"/>
<path fill="#81AA8D" d="M141.117,307.879c-0.011,1.271,0.268,0.973,0.877,1.816s-0.385,0.533,0.13,1.902
	c0.514,1.366-0.502,0.48-0.17,1.623c0.332,1.145-0.438,0.652-0.438,2.213c0.001,1.56-2.156,2.565-2.817,3.399
	c-0.418,0.526-1.582,1.332-2.387,1.856l-15.165,7.117c-2.019,0.135-6.593,2.533-8.123,3.549c0.015,0.014,0.03,0.022,0.043,0.035
	l-2.098-0.518c0.401-0.034,0.85-0.092,1.366-0.184c2.468-0.44,12.624-8.449,14.258-9.551c1.634-1.103,7.133-6.972,10.432-11.43
	c3.3-4.458,4.816-4.053,4.816-4.053S141.127,306.608,141.117,307.879"/>
<path fill="#81AA8D" d="M136.42,165.717c0,0-0.568,0.696-2.108-0.112c-1.539-0.807-1.49-0.089-3.162-0.655
	c-1.672-0.565-2.995,0.882-4.464,0.176c-1.469-0.707-1.206,1.291-2.736,0.928c-1.531-0.363-2.206,0.934-3.743,1.103
	c-1.538,0.168-1.738,1.285-3.149,1.741s-0.942,0.806-2.252,1.192c-1.311,0.386-3.12,4.051-3.749,5.091
	c-0.63,1.039-1.222,1.377-1.235,2.438c-0.013,1.062,0.646,8.271-2.601,11.058c0,0-0.48,1.687,1.196,0.746
	c1.675-0.94,2.733-1.903,5.201-1.816c2.466,0.087,6.602-0.236,8.419-0.974c1.815-0.738,1.861-0.996,3.577-1.664
	s3.143-1.21,4.506-2.384c1.361-1.174-0.245-1.108,1.617-2.104s1.617-2.104,2.232-3.057c0.614-0.954-0.411-1.67,0.406-2.764
	c0.816-1.095,0.596-1.844,0.953-2.844c0.355-1,0.527-0.969,0.768-1.812c0.239-0.844-0.058-1.163,0.151-1.835
	C136.457,167.496,137.117,166.285,136.42,165.717"/>
<path fill="#81AA8D" d="M184.521,451.667c0,0-0.196,0.23-0.152,0.405c0.102,0.409,0.306,0.7-0.118,1.229
	c-0.857,1.071,0.218,1.899-0.588,2.523c-0.761,0.589-0.693,0.954-0.343,1.896c0.288,0.773,0.505,1.117,0.136,1.788
	c-0.37,0.671,1.04,1.717,1,2.44c-0.066,1.165-0.228,1.429,1.291,2.404c1.086,0.698,0.29,0.573,0.606,1.203
	c0.318,0.629,1.841,0.654,2.49,1.571c0.65,0.918,0.721,0.854,1.301,1.767c0.581,0.914,0.223-0.401,1.601,1.16
	c1.378,1.564,0.751,0.101,2.29,1.054c1.538,0.95,2.951-0.091,4.241,0.235c1.29,0.325,3.183-0.694,5.784,1.121
	c2.604,1.818,3.146-3.233,0.87-6.343c-2.277-3.107-0.604-0.298-0.98-1.204c-0.375-0.907-1.263-1.011-1.906-2.063
	c-0.645-1.056-0.915-1.135-1.771-2.061c-0.854-0.925-0.903-1.407-1.764-2.196c-0.86-0.787-1.162-1.828-2.641-2.572
	c-1.479-0.744-2.668-1.891-3.958-2.215c-1.861-0.471-1.947-1.038-3.178-1.155C187.504,452.54,186.408,452.496,184.521,451.667"/>
<path fill="#81AA8D" d="M183.996,427.283c0,0-6.726-0.543-8.492,0.266c-1.768,0.811-1.426,0.919-3.12,1.501
	c-1.693,0.582-1.807,0.545-3.002,1.915c-1.196,1.37-2.522,0.816-3.641,2.336c-1.119,1.521-2.229-0.093-2.252,1.531
	c-0.022,1.623-2.404,1.229-2.017,2.359c0.388,1.129-1.306,1.711-0.73,2.647c0.574,0.939-1.159,1.257-0.508,2.347
	c0.652,1.09-0.811,2.12,0.281,1.848c1.092-0.274,1.486-0.288,2.115,0.056c2.238,1.226,1.092-0.272,2.418,0.28
	c1.327,0.554,1.484,1.23,2.727,0.881c1.242-0.351,0.835,0.521,2.64-0.401c1.803-0.923,2.598-0.666,3.609-1.468
	c1.013-0.802,2.281-2.397,3.301-2.446c1.019-0.047,1.019-0.047,2.027-1.227c1.008-1.179,5.614-5.336,9.113-10.729
	C188.465,428.979,187.624,427.703,183.996,427.283"/>
<path fill="#81AA8D" d="M164.968,267.823c0,0,0.292-0.079,0.432,0.035c0.327,0.268,0.501,0.577,1.161,0.421
	c1.335-0.316,1.623,1.01,2.531,0.55c0.859-0.434,1.16-0.217,1.862,0.504c0.574,0.592,0.793,0.935,1.558,0.888
	c0.765-0.046,1.106,1.677,1.776,1.95c1.08,0.44,1.388,0.408,1.62,2.198c0.164,1.28,0.394,0.507,0.825,1.064
	c0.434,0.557-0.196,1.943,0.354,2.923c0.551,0.98,0.461,1.016,1.038,1.933c0.578,0.917-0.458,0.028,0.363,1.943
	c0.822,1.915-0.232,0.72-0.031,2.519s-1.346,2.629-1.604,3.935c-0.259,1.305-1.993,2.576-1.466,5.706
	c0.527,3.13-4.271,1.456-6.103-1.933s-0.011-0.674-0.668-1.402c-0.658-0.728-0.372-1.574-1.05-2.608
	c-0.676-1.033-0.632-1.313-1.101-2.481c-0.47-1.169-0.885-1.42-1.229-2.535c-0.344-1.115-1.154-1.834-1.193-3.489
	c-0.039-1.655-0.563-3.22-0.306-4.525c0.374-1.883-0.102-2.204,0.318-3.366C164.478,270.893,164.909,269.884,164.968,267.823"/>
<path fill="#81AA8D" d="M189.569,259.41c0,0-6.747-0.02-8.439-0.973c-1.694-0.953-1.345-1.034-2.984-1.755
	c-1.639-0.721-1.755-0.694-2.833-2.159c-1.077-1.465-2.444-1.023-3.433-2.631s-2.229-0.093-2.116-1.713
	c0.112-1.62-2.294-1.426-1.813-2.519c0.48-1.093-1.158-1.813-0.508-2.701c0.651-0.887-1.05-1.348-0.31-2.379
	c0.74-1.031-0.632-2.182,0.434-1.818c1.066,0.365,1.457,0.411,2.112,0.121c2.333-1.035,1.066,0.364,2.433-0.078
	c1.368-0.442,1.582-1.104,2.791-0.651c1.209,0.453,0.875-0.449,2.597,0.62c1.721,1.07,2.534,0.88,3.476,1.763
	c0.942,0.884,2.073,2.581,3.085,2.713c1.011,0.132,1.011,0.132,1.918,1.391c0.907,1.26,5.15,5.786,8.188,11.451
	C194.165,258.092,193.219,259.293,189.569,259.41"/>
<path fill="#81AA8D" d="M175.011,337.527c0,0-0.042,0.803,0.567,1.188s-0.002,0.458,0.722,0.805c0.725,0.348,0.723,0.729,1.294,1
	c0.572,0.271,1.373,0.617,1.793,0.657s0.037,0.191,0.763,0.233s1.375-0.146,2.063-0.221c0.688-0.072,1.106,0.273,1.872,0.047
	c0.765-0.225,0.878,0.043,1.644-0.336c0.766-0.377,1.571-1.1,2.185-1.402c0.611-0.303,1.607-0.984,1.989-0.984
	c0.383,0.002,0.613-0.226,1.148-0.453c0.536-0.226,1.072-0.528,2.106-1.021c1.033-0.492,1.991-1.289,2.835-1.82
	c0.843-0.53,2.337-1.479,2.797-1.858c0.46-0.381,0.154-0.381,1.073-0.912c0.92-0.53,0.959-0.874,1.189-1.102
	c0.231-0.229-2.131-1.615-2.131-1.615s-1.412-0.273-3.168-0.51c-1.756-0.238-7.216-0.837-8.095-0.727
	c-0.88,0.111-8.636,0.495-10.247,2.168c0,0-1.19,1.406-0.655,1.257c0.536-0.149-1.953,1.175-1.728,1.864
	c0.226,0.688-0.807,0.951-0.427,1.41c0.38,0.461-0.616,0.914-0.159,1.375C174.899,337.031,174.859,337.298,175.011,337.527"/>
<path fill="#81AA8D" d="M171.314,405.984c0,0,0.437-0.785,2.095-0.262c1.657,0.523,1.483-0.175,3.229,0.086
	c1.745,0.262,2.792-1.396,4.363-0.959c1.569,0.437,0.96-1.483,2.529-1.396c1.571,0.088,2.008-1.309,3.491-1.745
	s1.483-1.569,2.792-2.269c1.31-0.698,0.785-0.959,2.007-1.57s2.356-4.538,2.792-5.672c0.437-1.135,0.96-1.571,0.785-2.618
	c-0.174-1.047-2.094-8.027,0.611-11.343c0,0,0.175-1.746-1.309-0.524s-2.356,2.356-4.8,2.705c-2.442,0.349-6.457,1.396-8.114,2.442
	c-1.658,1.048-1.658,1.31-3.229,2.27c-1.57,0.96-2.879,1.745-4.013,3.141c-1.135,1.397,0.436,1.047-1.223,2.356
	c-1.657,1.31-1.222,2.356-1.657,3.403c-0.437,1.048,0.697,1.57,0.087,2.793c-0.611,1.221-0.262,1.919-0.437,2.967
	c-0.175,1.047-0.349,1.047-0.436,1.919c-0.088,0.873,0.261,1.135,0.174,1.833C170.965,404.238,170.529,405.549,171.314,405.984"/>
<path fill="#81AA8D" d="M190.596,300.087c-0.592,0.419-1.128,0.679-2.042,1.253c-0.913,0.575-1.131,0.945-2.311,1.516
	c-1.181,0.572-1.239,0.997-2.367,1.676c-1.128,0.678-1.396,0.675-2.737,1.457c-1.343,0.783-1.457,1.368-2.104,1.946
	c-0.647,0.579-0.658,1.377-1.845,2.481s-0.706,1.004-1.464,1.9s0.623,1.287,0.343,2.351l0.616,1.819
	c-1.238,0.998,0.842,5.021,0.904,4.33s0.658-1.377,0.876-1.748c0.218-0.37,0.764-1.43,1.09-1.852
	c0.325-0.423,1.529-2.859,2.667-4.337s4.622-7.137,6.363-9.834c0.895-1.387,3.063-3.039,4.958-4.317l-2.701,1.017
	C190.802,299.878,190.72,299.999,190.596,300.087"/>
<path fill="#81AA8D" d="M160.246,344.219c0.01,1.271-0.269,0.973-0.877,1.816c-0.61,0.844,0.384,0.533-0.131,1.902
	c-0.514,1.367,0.503,0.48,0.171,1.623c-0.332,1.145,0.438,0.652,0.437,2.213c-0.001,1.56,2.156,2.565,2.818,3.399
	c0.418,0.526,1.582,1.332,2.386,1.856l15.165,7.117c2.019,0.135,6.593,2.533,8.123,3.549c-0.015,0.014-0.03,0.022-0.043,0.035
	l2.098-0.518c-0.4-0.033-0.85-0.092-1.366-0.184c-2.468-0.44-12.624-8.449-14.258-9.551c-1.634-1.103-7.133-6.972-10.432-11.43
	s-4.816-4.053-4.816-4.053S160.236,342.948,160.246,344.219"/>
<path fill="#81AA8D" d="M159.974,155.401c0,0-0.397-0.698-0.026-1.314c0.372-0.618-0.207-0.409,0.284-1.044s0.318-0.977,0.707-1.474
	c0.391-0.498,0.949-1.168,1.307-1.392c0.357-0.225-0.053-0.188,0.577-0.551c0.63-0.363,1.296-0.487,1.942-0.73
	c0.648-0.244,0.867-0.74,1.651-0.882c0.785-0.142,0.766-0.432,1.62-0.438c0.854-0.006,1.897,0.278,2.582,0.273
	c0.683-0.004,1.88,0.158,2.22-0.015c0.341-0.173,0.648-0.072,1.229-0.11c0.581-0.038,1.196-0.008,2.342-0.033
	c1.144-0.024,2.358,0.258,3.35,0.354c0.992,0.096,2.752,0.271,3.334,0.405c0.582,0.132,0.309,0.271,1.369,0.332
	c1.059,0.062,1.249,0.351,1.557,0.451c0.309,0.101-1.18,2.399-1.18,2.399s-1.138,0.879-2.602,1.88c-1.462,1-6.071,3.986-6.906,4.282
	s-7.938,3.435-10.129,2.664c0,0-1.696-0.723-1.15-0.829c0.546-0.107-2.273-0.173-2.381-0.89c-0.107-0.717-1.148-0.488-1.015-1.07
	c0.133-0.581-0.961-0.54-0.76-1.156C160.097,155.896,159.942,155.676,159.974,155.401"/>
<path fill="#81AA8D" d="M174.645,216.283c0,0,0.761-0.477,0.152-2.104c-0.61-1.628,0.096-1.491-0.256-3.22
	c-0.354-1.729,1.248-2.861,0.729-4.407c-0.518-1.545,1.432-1.036,1.263-2.6c-0.171-1.564,1.201-2.073,1.56-3.577
	s1.491-1.563,2.119-2.907c0.629-1.344,0.918-0.835,1.464-2.086c0.546-1.252,4.408-2.591,5.518-3.086
	c1.11-0.495,1.519-1.04,2.573-0.921c1.055,0.12,8.126,1.671,11.296-1.203c0,0,1.734-0.266,0.591,1.279
	c-1.142,1.546-2.229,2.476-2.449,4.934c-0.221,2.459-1.057,6.521-2.016,8.231c-0.959,1.711-1.22,1.724-2.097,3.343
	c-0.876,1.619-1.592,2.967-2.927,4.173s-1.068-0.381-2.288,1.343c-1.221,1.724-2.289,1.343-3.313,1.834
	c-1.022,0.49-1.604-0.615-2.793,0.059c-1.188,0.674-1.903,0.362-2.939,0.591c-1.037,0.229-1.028,0.403-1.895,0.536
	c-0.867,0.133-1.146-0.202-1.839-0.078C176.405,216.541,175.122,217.044,174.645,216.283"/>
<path fill="#81AA8D" d="M178.643,171.365c-0.215,1.253,0.107,1.003,0.572,1.934c0.466,0.931-0.465,0.465-0.179,1.898
	c0.285,1.432-0.573,0.393-0.431,1.575c0.144,1.182-0.538,0.573-0.789,2.112c-0.251,1.54-2.543,2.184-3.331,2.9
	c-0.496,0.451-1.775,1.059-2.653,1.446l-16.116,4.573c-2.014-0.193-6.915,1.437-8.589,2.19c0.011,0.015,0.024,0.027,0.037,0.04
	l-1.988-0.849c0.402,0.031,0.854,0.046,1.378,0.039c2.506-0.035,13.824-6.298,15.614-7.121c1.791-0.823,8.166-5.727,12.142-9.593
	c3.977-3.867,5.408-3.222,5.408-3.222S178.858,170.112,178.643,171.365"/>
<path fill="#81AA8D" d="M243.56,414.436c0,0,0.197,0.229,0.153,0.404c-0.103,0.41-0.306,0.7,0.118,1.23
	c0.856,1.07-0.219,1.898,0.588,2.522c0.76,0.589,0.692,0.954,0.342,1.897c-0.288,0.773-0.504,1.118-0.135,1.789
	c0.37,0.671-1.04,1.717-1,2.439c0.065,1.165,0.227,1.43-1.291,2.405c-1.086,0.699-0.29,0.574-0.607,1.204
	c-0.317,0.629-1.841,0.653-2.49,1.57c-0.648,0.918-0.721,0.853-1.301,1.767c-0.581,0.915-0.222-0.402-1.6,1.161
	c-1.378,1.563-0.751,0.099-2.29,1.052c-1.539,0.952-2.952-0.089-4.242,0.236s-3.182-0.695-5.784,1.121
	c-2.603,1.817-3.146-3.234-0.87-6.344c2.277-3.105,0.605-0.298,0.981-1.203c0.375-0.906,1.262-1.012,1.906-2.064
	c0.644-1.054,0.915-1.133,1.77-2.06c0.855-0.927,0.904-1.407,1.764-2.196c0.86-0.789,1.162-1.829,2.642-2.574
	c1.479-0.744,2.668-1.889,3.958-2.214c1.861-0.471,1.947-1.038,3.177-1.156C240.577,415.309,241.673,415.264,243.56,414.436"/>
<path fill="#81AA8D" d="M216.535,375.652c0,0,5.841,3.375,6.835,5.046c0.995,1.67,0.651,1.565,1.714,3.008
	c1.063,1.44,1.177,1.476,1.382,3.282s1.612,2.104,1.668,3.99c0.056,1.888,1.886,1.19,0.982,2.539
	c-0.904,1.35,1.279,2.379,0.318,3.088s0.103,2.148-0.904,2.596c-1.007,0.445,0.239,1.691-0.915,2.218
	c-1.155,0.524-0.539,2.206-1.281,1.36c-0.743-0.848-1.061-1.082-1.772-1.156c-2.539-0.264-0.743-0.846-2.148-1.145
	c-1.407-0.297-1.921,0.17-2.744-0.824c-0.823-0.995-0.984-0.047-1.943-1.83c-0.96-1.784-1.76-2.025-2.137-3.26
	c-0.377-1.235-0.513-3.271-1.325-3.889c-0.811-0.617-0.811-0.617-0.971-2.162c-0.159-1.544-1.586-7.58-1.4-14.008
	C211.893,374.506,213.312,373.936,216.535,375.652"/>
<path fill="#81AA8D" d="M252.937,484.938c0,0,0.398-0.697,0.026-1.314c-0.372-0.618,0.208-0.409-0.284-1.044
	c-0.491-0.636-0.318-0.977-0.707-1.474c-0.39-0.498-0.949-1.169-1.306-1.393c-0.358-0.226,0.052-0.188-0.578-0.552
	c-0.629-0.362-1.295-0.486-1.942-0.729c-0.647-0.244-0.866-0.739-1.65-0.882c-0.785-0.143-0.767-0.433-1.62-0.438
	c-0.854-0.005-1.898,0.277-2.582,0.272c-0.684-0.004-1.88,0.158-2.221-0.016c-0.341-0.173-0.648-0.071-1.229-0.109
	c-0.581-0.038-1.196-0.008-2.341-0.033c-1.145-0.024-2.359,0.259-3.351,0.354c-0.99,0.097-2.752,0.272-3.334,0.405
	c-0.582,0.132-0.309,0.271-1.368,0.332s-1.249,0.351-1.558,0.45c-0.308,0.102,1.18,2.399,1.18,2.399s1.139,0.879,2.602,1.88
	c1.462,1,6.072,3.985,6.907,4.281s7.938,3.436,10.129,2.664c0,0,1.695-0.724,1.149-0.83c-0.546-0.105,2.274-0.172,2.381-0.889
	c0.107-0.718,1.148-0.488,1.016-1.07c-0.133-0.581,0.96-0.54,0.759-1.155C252.813,485.434,252.968,485.212,252.937,484.938"/>
<path fill="#81AA8D" d="M229.313,448.155c0.264,0.676,0.384,1.259,0.721,2.285c0.335,1.024,0.642,1.325,0.908,2.608
	c0.269,1.284,0.667,1.444,1.052,2.703c0.384,1.259,0.315,1.518,0.749,3.01c0.433,1.492,0.972,1.745,1.376,2.515
	c0.403,0.768,1.177,0.972,1.96,2.392c0.782,1.419,0.802,0.928,1.487,1.881s1.4-0.292,2.362,0.238l1.916-0.156
	c0.666,1.444,5.075,0.403,4.419,0.174c-0.656-0.228-1.177-0.972-1.483-1.271c-0.306-0.303-1.2-1.089-1.53-1.507
	c-0.331-0.419-2.402-2.18-3.561-3.643c-1.156-1.463-5.801-6.217-7.993-8.56c-1.129-1.206-2.204-3.71-2.984-5.858l0.331,2.866
	C229.16,447.904,229.258,448.013,229.313,448.155"/>
<path fill="#81AA8D" d="M247.942,231.483c0,0-0.292-0.079-0.432,0.035c-0.327,0.268-0.501,0.577-1.161,0.421
	c-1.335-0.316-1.623,1.01-2.531,0.55c-0.858-0.434-1.159-0.217-1.861,0.504c-0.575,0.592-0.793,0.935-1.559,0.888
	c-0.765-0.046-1.105,1.677-1.775,1.95c-1.08,0.44-1.389,0.408-1.62,2.198c-0.165,1.28-0.395,0.507-0.826,1.064
	c-0.433,0.557,0.197,1.943-0.354,2.923s-0.461,1.016-1.037,1.933c-0.578,0.917,0.458,0.028-0.364,1.943s0.232,0.72,0.032,2.519
	c-0.201,1.799,1.345,2.629,1.604,3.935c0.259,1.305,1.993,2.576,1.466,5.706c-0.526,3.13,4.271,1.456,6.104-1.933
	c1.832-3.389,0.01-0.674,0.668-1.402c0.658-0.728,0.372-1.574,1.049-2.608c0.676-1.033,0.632-1.312,1.101-2.481
	c0.471-1.169,0.886-1.42,1.229-2.535c0.344-1.115,1.155-1.834,1.194-3.489c0.038-1.655,0.563-3.22,0.305-4.525
	c-0.374-1.883,0.102-2.204-0.318-3.366C248.433,234.553,248.001,233.544,247.942,231.483"/>
<path fill="#81AA8D" d="M223.341,223.07c0,0,6.747-0.02,8.439-0.973c1.694-0.953,1.346-1.034,2.984-1.755
	c1.639-0.721,1.755-0.694,2.833-2.159c1.077-1.465,2.445-1.023,3.433-2.631c0.988-1.608,2.229-0.093,2.116-1.713
	c-0.111-1.62,2.294-1.426,1.814-2.519c-0.481-1.093,1.158-1.813,0.507-2.701c-0.651-0.887,1.05-1.348,0.31-2.379
	c-0.739-1.031,0.633-2.182-0.434-1.818c-1.066,0.365-1.457,0.411-2.112,0.121c-2.333-1.035-1.065,0.364-2.433-0.078
	c-1.368-0.442-1.582-1.104-2.791-0.651s-0.875-0.449-2.596,0.62c-1.722,1.07-2.534,0.88-3.477,1.763
	c-0.941,0.884-2.073,2.581-3.085,2.713c-1.011,0.132-1.011,0.132-1.918,1.391c-0.907,1.26-5.149,5.786-8.188,11.451
	C218.746,221.752,219.691,222.954,223.341,223.07"/>
<path fill="#81AA8D" d="M237.899,301.188c0,0,0.042,0.802-0.566,1.187c-0.61,0.385,0.002,0.458-0.723,0.805
	c-0.725,0.347-0.723,0.729-1.294,0.999c-0.571,0.271-1.373,0.618-1.793,0.658s-0.037,0.191-0.763,0.233
	c-0.725,0.042-1.375-0.146-2.063-0.22c-0.688-0.073-1.106,0.273-1.871,0.047c-0.766-0.225-0.879,0.043-1.645-0.336
	c-0.765-0.378-1.571-1.1-2.184-1.403c-0.612-0.303-1.608-0.985-1.99-0.984c-0.382,0.002-0.613-0.226-1.148-0.453
	c-0.536-0.226-1.071-0.529-2.105-1.021c-1.034-0.492-1.992-1.289-2.835-1.82c-0.843-0.531-2.337-1.479-2.797-1.859
	s-0.155-0.381-1.074-0.912c-0.919-0.53-0.959-0.874-1.189-1.102s2.131-1.614,2.131-1.614s1.412-0.274,3.168-0.511
	c1.757-0.238,7.217-0.836,8.096-0.726c0.879,0.111,8.635,0.495,10.247,2.168c0,0,1.189,1.407,0.654,1.257
	c-0.535-0.15,1.953,1.175,1.729,1.864c-0.227,0.688,0.806,0.951,0.426,1.411s0.616,0.914,0.159,1.374
	C238.012,300.691,238.052,300.958,237.899,301.188"/>
<path fill="#CFDDAC" d="M240.6,375.775c0,0,0.087-0.894-1.574-1.405c-1.662-0.511-1.122-0.986-2.706-1.763
	c-1.585-0.776-1.504-2.736-3.044-3.27c-1.541-0.533,0.054-1.766-1.289-2.587c-1.342-0.821-0.906-2.218-1.88-3.42
	c-0.972-1.202-0.328-2.136-1.008-3.454s-0.1-1.236-0.758-2.434c-0.658-1.196,0.64-5.071,0.926-6.252
	c0.286-1.183,0.104-1.838,0.842-2.602c0.738-0.762,6.286-5.414,5.945-9.68c0,0,0.848-1.535,1.374,0.313s0.599,3.278,2.411,4.953
	c1.812,1.676,4.52,4.819,5.288,6.623c0.769,1.805,0.621,2.02,1.367,3.702c0.747,1.683,1.378,3.071,1.517,4.866
	c0.14,1.793-0.954,0.613-0.333,2.633c0.62,2.02-0.334,2.632-0.571,3.742c-0.235,1.109-1.467,0.895-1.657,2.248
	c-0.192,1.352-0.877,1.728-1.328,2.688c-0.451,0.96-0.309,1.06-0.732,1.827s-0.86,0.785-1.185,1.409
	C241.878,374.538,241.494,375.863,240.6,375.775"/>
<path fill="#81AA8D" d="M231.542,272.257c-0.726-0.021-1.315,0.059-2.395,0.087c-1.079,0.027-1.465-0.161-2.764,0.017
	c-1.299,0.177-1.584-0.145-2.899-0.086c-1.314,0.06-1.534,0.21-3.086,0.302c-1.552,0.092-1.971-0.332-2.829-0.455
	c-0.858-0.124-1.31-0.784-2.909-1.046c-1.601-0.263-1.145-0.446-2.271-0.773c-1.127-0.327-0.194-1.417-1.015-2.146l-0.494-1.857
	c-1.584-0.144-2.079-4.648-1.645-4.106c0.436,0.542,1.311,0.784,1.696,0.971c0.387,0.188,1.428,0.768,1.934,0.938
	c0.505,0.172,2.855,1.535,4.621,2.135c1.768,0.601,7.802,3.385,10.743,4.667c1.514,0.66,4.233,0.836,6.52,0.851l-2.813,0.648
	C231.829,272.317,231.694,272.262,231.542,272.257"/>
<path fill="#81AA8D" d="M252.665,307.879c-0.011,1.271,0.268,0.973,0.877,1.816s-0.384,0.533,0.13,1.902
	c0.514,1.366-0.502,0.48-0.17,1.623c0.332,1.145-0.438,0.652-0.438,2.213c0.001,1.56-2.155,2.565-2.817,3.399
	c-0.418,0.526-1.582,1.332-2.387,1.856l-15.165,7.117c-2.019,0.135-6.593,2.533-8.122,3.549c0.014,0.014,0.029,0.022,0.043,0.035
	l-2.099-0.518c0.401-0.034,0.851-0.092,1.366-0.184c2.468-0.44,12.624-8.449,14.258-9.551c1.634-1.103,7.133-6.972,10.433-11.43
	c3.299-4.458,4.815-4.053,4.815-4.053S252.675,306.608,252.665,307.879"/>
<path fill="#81AA8D" d="M247.968,165.717c0,0-0.568,0.696-2.108-0.112c-1.539-0.807-1.489-0.089-3.162-0.655
	c-1.672-0.565-2.994,0.882-4.464,0.176c-1.469-0.707-1.206,1.291-2.736,0.928c-1.531-0.363-2.206,0.934-3.743,1.103
	c-1.538,0.168-1.738,1.285-3.149,1.741s-0.941,0.806-2.252,1.192c-1.311,0.386-3.12,4.051-3.749,5.091
	c-0.63,1.039-1.222,1.377-1.234,2.438c-0.014,1.062,0.646,8.271-2.602,11.058c0,0-0.479,1.687,1.196,0.746
	c1.675-0.94,2.733-1.903,5.201-1.816c2.466,0.087,6.602-0.236,8.419-0.974c1.815-0.738,1.861-0.996,3.578-1.664
	c1.715-0.668,3.142-1.21,4.505-2.384c1.361-1.174-0.245-1.108,1.617-2.104s1.617-2.104,2.232-3.057
	c0.614-0.954-0.411-1.67,0.406-2.764c0.817-1.095,0.596-1.844,0.953-2.844c0.355-1,0.527-0.969,0.768-1.812
	c0.239-0.844-0.058-1.163,0.151-1.835S248.664,166.285,247.968,165.717"/>
<path fill="#CFDDAC" d="M405.323,221.098c0,0,0.797-0.104,1.031-0.909c0.235-0.806,0.451-0.086,0.621-1.022
	c0.171-0.937,0.546-1.008,0.677-1.746c0.131-0.739,0.284-1.767,0.225-2.279c-0.06-0.513,0.179-0.082,0.049-0.961
	c-0.129-0.88-0.466-1.625-0.7-2.437c-0.233-0.812,0.008-1.382-0.395-2.257c-0.4-0.876-0.164-1.063-0.716-1.91
	c-0.551-0.848-1.449-1.677-1.89-2.354c-0.441-0.678-1.345-1.744-1.434-2.203c-0.088-0.459-0.365-0.692-0.714-1.292
	s-0.771-1.186-1.498-2.333c-0.725-1.147-1.732-2.146-2.451-3.056c-0.72-0.911-2-2.523-2.481-3.003
	c-0.48-0.48-0.411-0.113-1.146-1.115c-0.737-1.002-1.085-0.984-1.362-1.217s-1.083,2.87-1.083,2.87s0.063,1.749,0.243,3.904
	c0.179,2.155,0.875,8.827,1.189,9.862c0.314,1.035,2.515,10.277,4.534,11.893c0,0,1.662,1.16,1.388,0.545
	c-0.272-0.614,1.613,2.121,2.235,1.718c0.623-0.404,1.123,0.786,1.486,0.241c0.361-0.544,1.041,0.564,1.386-0.072
	C404.862,221.328,405.133,221.324,405.323,221.098"/>
<path fill="#81AA8D" d="M364.915,209.565c0.551,0.63,0.932,1.225,1.71,2.212c0.778,0.987,1.193,1.178,2.031,2.485
	c0.838,1.308,1.27,1.297,2.2,2.522c0.931,1.225,0.99,1.545,2.074,3.008c1.083,1.463,1.684,1.487,2.403,2.154
	c0.719,0.666,1.506,0.525,2.868,1.738c1.363,1.214,1.151,0.656,2.209,1.394c1.059,0.738,1.117-0.996,2.226-0.863l1.642-1.09
	c1.27,1.296,4.73-1.976,4.036-1.917c-0.694,0.058-1.506-0.525-1.921-0.716c-0.414-0.191-1.582-0.644-2.073-0.954
	c-0.491-0.309-3.165-1.288-4.883-2.371c-1.718-1.084-8.09-4.183-11.145-5.755c-1.572-0.81-3.703-3.097-5.402-5.127l1.632,3.048
	C364.66,209.358,364.8,209.433,364.915,209.565"/>
<path fill="#CFDDAC" d="M370.389,338.271c0,0-0.377,0.828,0.02,1.597s-0.194,0.485,0.322,1.282c0.518,0.797,0.355,1.203,0.766,1.828
	s0.997,1.467,1.366,1.758c0.368,0.291-0.047,0.226,0.602,0.699c0.647,0.474,1.322,0.657,1.984,0.986
	c0.661,0.329,0.899,0.944,1.696,1.156c0.796,0.213,0.787,0.564,1.649,0.615c0.86,0.05,1.903-0.241,2.594-0.201
	c0.688,0.04,1.89-0.098,2.24,0.131c0.349,0.229,0.655,0.121,1.242,0.197s1.206,0.07,2.361,0.158s2.371-0.192,3.367-0.26
	c0.997-0.066,2.766-0.189,3.348-0.322c0.582-0.131,0.303-0.313,1.369-0.334c1.067-0.021,1.248-0.362,1.555-0.469
	c0.308-0.107-1.273-2.977-1.273-2.977s-1.179-1.126-2.689-2.416c-1.51-1.29-6.263-5.154-7.116-5.557
	c-0.852-0.401-8.125-4.578-10.309-3.752c0,0-1.685,0.793-1.13,0.949c0.554,0.156-2.287,0.094-2.37,0.961
	c-0.083,0.864-1.141,0.533-0.986,1.247s-0.949,0.608-0.726,1.367C370.495,337.676,370.347,337.938,370.389,338.271"/>
<path fill="#81AA8D" d="M400.462,307.678c-0.72,0.096-1.32,0.055-2.4,0.125c-1.08,0.071-1.436,0.336-2.759,0.246
	c-1.323-0.09-1.557,0.328-2.876,0.382c-1.321,0.055-1.563-0.107-3.124-0.068c-1.562,0.038-1.912,0.592-2.749,0.825
	c-0.837,0.231-1.185,1.076-2.737,1.547c-1.554,0.474-1.071,0.65-2.143,1.156c-1.073,0.506,0.027,1.736-0.677,2.7l-0.201,2.3
	c-1.558,0.328-1.346,5.836-0.997,5.137c0.349-0.698,1.184-1.075,1.54-1.34c0.355-0.266,1.303-1.067,1.779-1.324
	c0.477-0.258,2.607-2.137,4.274-3.034c1.666-0.897,7.246-4.854,9.978-6.692c1.406-0.947,4.091-1.421,6.366-1.66l-2.904-0.515
	C400.739,307.577,400.613,307.658,400.462,307.678"/>
<path fill="#CFDDAC" d="M414.403,417.705c0,0,0.457-0.898-0.851-2.426c-1.309-1.525-0.612-1.711-1.738-3.473
	c-1.125-1.763-0.225-3.799-1.413-5.277c-1.187-1.477,0.794-1.846-0.09-3.512c-0.885-1.664,0.102-2.893-0.283-4.746
	c-0.384-1.853,0.601-2.463,0.532-4.268c-0.068-1.804,0.429-1.374,0.33-3.035c-0.098-1.66,2.726-5.014,3.486-6.101
	c0.76-1.087,0.868-1.894,1.867-2.267c0.998-0.375,8.045-2.041,9.531-6.777c0,0,1.425-1.131,1.128,1.146s-0.832,3.839,0.123,6.692
	c0.955,2.852,2.112,7.794,2.057,10.166c-0.056,2.373-0.282,2.514-0.307,4.744c-0.024,2.229-0.033,4.08-0.66,6.07
	c-0.628,1.988-1.134,0.088-1.416,2.601c-0.282,2.514-1.417,2.602-2.101,3.642c-0.685,1.04-1.722,0.085-2.468,1.409
	s-1.532,1.319-2.352,2.074c-0.818,0.755-0.729,0.944-1.44,1.51c-0.714,0.565-1.12,0.326-1.682,0.797
	C416.097,417.146,415.186,418.326,414.403,417.705"/>
<path fill="#CFDDAC" d="M400.992,477.835c0,0-0.377,0.828,0.021,1.598c0.396,0.77-0.195,0.486,0.322,1.283s0.354,1.201,0.766,1.826
	c0.41,0.627,0.997,1.469,1.366,1.76c0.368,0.291-0.047,0.226,0.601,0.699c0.648,0.473,1.323,0.656,1.985,0.985
	c0.661,0.329,0.898,0.943,1.695,1.155c0.797,0.214,0.787,0.563,1.649,0.615c0.861,0.05,1.904-0.241,2.594-0.201
	s1.891-0.097,2.24,0.131c0.349,0.229,0.656,0.121,1.243,0.197c0.587,0.075,1.206,0.069,2.361,0.159
	c1.154,0.088,2.37-0.194,3.366-0.261c0.997-0.065,2.767-0.189,3.349-0.321c0.582-0.133,0.303-0.314,1.369-0.336
	c1.066-0.02,1.247-0.361,1.555-0.468c0.307-0.106-1.274-2.978-1.274-2.978s-1.179-1.126-2.688-2.416s-6.264-5.153-7.116-5.556
	c-0.852-0.402-8.125-4.579-10.309-3.754c0,0-1.686,0.793-1.131,0.95c0.555,0.155-2.286,0.095-2.369,0.96
	c-0.083,0.864-1.142,0.534-0.986,1.248c0.154,0.714-0.95,0.607-0.727,1.366C401.1,477.24,400.95,477.501,400.992,477.835"/>
</svg>
