<?xml version="1.0" encoding="utf-8"?>
<!-- Generator: Adobe Illustrator 16.0.0, SVG Export Plug-In . SVG Version: 6.00 Build 0)  -->
<!DOCTYPE svg PUBLIC "-//W3C//DTD SVG 1.1//EN" "http://www.w3.org/Graphics/SVG/1.1/DTD/svg11.dtd">
<svg version="1.1" id="Layer_1" xmlns="http://www.w3.org/2000/svg" xmlns:xlink="http://www.w3.org/1999/xlink" x="0px" y="0px"
	 width="35.6px" height="35.5px" viewBox="0 0 35.6 35.5" style="enable-background:new 0 0 35.6 35.5;" xml:space="preserve">
<path style="fill:#FFFFFF;" d="M34.6,1C33.9,0.3,33,0,32,0H3.6C2.6,0,1.7,0.3,1,1C0.3,1.7,0,2.6,0,3.5V32c0,0.9,0.3,1.8,1,2.5
	c0.7,0.7,1.5,1,2.5,1H32c1,0,1.8-0.3,2.5-1s1-1.5,1-2.5V3.5C35.6,2.6,35.3,1.7,34.6,1 M26.3,24.1c-1.7,2.3-4.2,3.8-6.9,4.2
	c-0.5,0.1-1.1,0.1-1.6,0.1c-2.3,0-4.4-0.7-6.3-2.1c-2.3-1.7-3.8-4.2-4.2-6.9c-0.4-2.8,0.3-5.6,2-7.9c1.7-2.3,4.2-3.7,6.9-4.2
	c1-0.2,2.1-0.2,3.1,0c2.3,0.3,4.3,1.4,5.9,3c1.6,1.6,2.7,3.7,3,5.9C28.7,19,28,21.8,26.3,24.1 M29.7,9c-0.3,0.3-0.8,0.5-1.3,0.5
	S27.5,9.3,27.1,9s-0.5-0.8-0.5-1.3s0.2-0.9,0.5-1.3c0.3-0.3,0.8-0.5,1.3-0.5s0.9,0.2,1.3,0.5c0.3,0.3,0.5,0.8,0.5,1.3S30,8.7,29.7,9
	"/>
<path style="fill:#FFFFFF;" d="M18.6,12.5c-0.3,0-0.5-0.1-0.8-0.1s-0.5,0-0.8,0.1c-1.4,0.2-2.6,0.9-3.5,2.1c-0.8,1.1-1.2,2.5-1,3.9
	c0.2,1.4,0.9,2.6,2.1,3.5c1.1,0.8,2.5,1.2,3.9,1c2.9-0.4,4.9-3.1,4.5-6C22.7,14.7,20.9,12.9,18.6,12.5"/>
</svg>
