<?xml version="1.0" encoding="utf-8"?>
<!-- Generator: Adobe Illustrator 16.0.0, SVG Export Plug-In . SVG Version: 6.00 Build 0)  -->
<!DOCTYPE svg PUBLIC "-//W3C//DTD SVG 1.1//EN" "http://www.w3.org/Graphics/SVG/1.1/DTD/svg11.dtd">
<svg version="1.1" id="Layer_1" xmlns="http://www.w3.org/2000/svg" xmlns:xlink="http://www.w3.org/1999/xlink" x="0px" y="0px"
	 width="309.6px" height="215.5px" viewBox="0 0 309.6 215.5" style="enable-background:new 0 0 309.6 215.5;" xml:space="preserve"
	>
<g>
	<path style="fill:#FBEB00;" d="M6.4,205.9c0-0.1,0-0.3-0.1-0.4c-0.1-0.7-0.1-1.3-0.1-1.6c0-0.1,0-0.3,0.1-0.5
		c0.1-0.6,0.1-2,0.1-2.5c0-0.6-0.1-1.3-0.2-2c-0.1-0.4-0.1-0.6-0.1-0.7c0.3-3.7,0.3-3.7,0.3-4.4c0-0.6,0-1.1-0.1-1.5
		c-0.1-0.4-0.1-0.6-0.1-0.7l0.1-1.6c-0.1-1.2-0.1-1.2-0.1-1.4c0-0.2,0-0.4,0.1-0.7l0.1-0.8c0-0.1-0.1-1.1-0.3-2.5
		C6,184.1,6,183.5,6,182.7c0-2.6,0.6-3.2,3.3-3.2c0.5,0,0.9,0.1,1.7,0.2c0.4,0.1,0.6,0.1,0.7,0.1l2.1-0.1l1.3,0.1l2.4-0.2
		c4.1,0.2,4.1,0.2,5.9,1.4c1.5,0.9,2.8,1.8,3.5,2.3c0.4,0.3,0.4,0.3,1.4,2l0.5,0.6c0.9,1,1.3,2,1.4,3.7c0.1,0.2,0.1,0.4,0.2,0.7
		c0.1,0.2,0.1,0.2,0.1,0.7c0,0.7,0.1,1.4,0.1,2.1c0,1.1-0.9,4.5-1.4,5.5c-1.1,2.1-3,4.1-4.7,5c-0.3,0.2-0.6,0.3-0.8,0.5l-0.5,0.4
		c-1,0.8-4.1,1.7-5.9,1.7h-0.7c-0.8-0.1-1.3-0.1-1.5-0.1c-1.5,0-1.9,0.4-1.9,1.9c0,1.3,0.1,1.6,0.4,2.8c0.2,0.6,0.3,1.7,0.3,2.4
		c0,1.2-0.5,1.7-1.4,1.7c-0.4,0-0.7,0-1-0.1c-0.6-0.1-0.9-0.1-1.2-0.1c-0.1,0-0.3,0-0.5,0.1c-0.5,0.1-1,0.1-1.4,0.1
		c-1.4,0-2.1-0.8-2.1-2.5c0-0.5,0.1-1.1,0.1-1.6c0.1-0.7,0.1-1.2,0.1-1.4c0-0.1-0.1-0.6-0.1-1.3c-0.1-0.3-0.1-0.5-0.1-0.7
		s0-0.2,0.2-1.4V205.9z M13.1,189.3c-0.1,1.2-0.1,1.2-0.1,1.4c0,0.4,0,0.6,0.1,1.8c0.1,0.5,0.1,0.9,0.1,1.2c0,0.4,0,0.8-0.1,1.3
		c-0.2,1.9-0.2,2-0.2,2.4c0,1.5,0.3,2.4,0.8,2.6c0.3,0.2,1.7,0.3,2.7,0.3c0.8,0,0.8,0,1.8-0.4l0.8-0.2c0.8-0.2,2.1-0.9,2.7-1.7
		c0.3-0.4,1.1-1.6,1.3-2.1c0.2-0.5,0.7-2.2,0.7-2.4c-0.1-1.3-0.2-2.1-0.2-2.3c-0.8-2.6-1.5-3.7-3.1-4.3c-1.5-0.7-3.4-1.1-4.6-1.1
		c-1.6,0-3,1.1-3,2.3L13.1,189.3z"/>
	<path style="fill:#FBEB00;" d="M48.2,208.7c-0.5,0.1-0.8,0.1-0.8,0.1c-0.1,0-0.3,0-0.6-0.1h-0.5c-0.5,0-0.5,0-2.2,0.2
		c-0.5,0.1-0.8,0.1-1.2,0.1c-0.4,0-0.9-0.1-1.5-0.2c-0.4-0.1-0.8-0.1-1-0.1c-1.7,0-2.9,1.4-3,3.3c0,1.6,0,1.6-0.4,2.2
		c-0.4,0.6-0.8,0.8-1.5,0.8c-0.4,0-0.8-0.1-1.4-0.1l-1.1-0.1c-0.3,0-0.7,0-1.5,0.1h-0.5c-1.1,0-1.7-0.5-1.7-1.4
		c0-0.5,0.3-1.3,0.8-2.3c0.4-0.6,0.6-1.1,0.6-1.3L31,209c0.1-0.3,0.3-0.7,0.5-1.1c0.4-0.8,0.7-1.7,1-2.6c0.2-1,0.4-2,0.6-2.9
		c0.1-0.3,0.3-0.7,0.7-2c0.4-0.9,0.7-2.1,1.1-3.4c0.2-0.7,0.4-1.3,0.6-1.7l0.7-1.6c0.3-1,0.5-1.5,1.1-3.3c0.1-0.4,0.2-0.7,0.3-1.2
		c0.1-0.4,0.1-0.2,0.2-0.5l0.3-0.7l0.3-0.9c0.3-1.1,0.4-1.4,1.1-3.1c0.4-1.1,0.6-1.8,0.6-1.9c0.7-2.3,1-2.6,2.8-2.6
		c0.2,0,0.5,0,0.7,0.1l0.8,0.1l2-0.1c0.2,0,0.9,0.5,1.3,0.8c0.3,0.3,0.5,0.8,0.7,1.7c0.1,0.3,0.3,0.7,0.5,1.4l0.6,1.5l1.1,2.4
		c0.4,0.9,0.6,1.6,0.8,2.7c0.2,0.8,0.2,0.9,0.6,2.1c0.2,0.3,0.3,0.6,0.4,1.1l0.3,1.3l0.4,1.1c0.2,0.6,0.3,1.1,0.4,1.6l0.2,0.9
		c0.1,0.4,0.3,0.7,0.5,1.3c0.3,0.5,0.2,0.3,0.4,0.8l0.6,1.6l0.2,1.1l0.3,0.6c0.1,0.3,0.2,0.5,0.3,0.8l0.4,1.6l0.3,0.7l0.5,1.2
		c0.2,0.4,0.3,0.8,0.4,1.2c0.2,0.5,0.3,0.9,0.5,1.3l0.7,1.2c0.4,0.8,0.7,1.7,0.7,2.4c0,0.8-0.4,1.2-1.2,1.2l-1.1-0.1
		c-0.7-0.1-1.2-0.2-1.5-0.2c-0.2,0-0.7,0.1-1.4,0.1c-0.5,0.1-0.9,0.1-1.3,0.1c-1.4,0-1.8-0.8-2-3.2c0-1.2-0.2-1.6-1-2.7
		c-0.3-0.5-0.7-0.6-1.5-0.6H48.2z M43.3,193.8c-0.5,1.3-0.6,1.5-0.8,2.5c-0.4,1.5-0.5,1.8-0.9,2.6c-0.4,0.8-0.4,0.8-1,3
		c0,0.4,0.8,1,1.4,1l1.7-0.1c0.1,0,0.3,0,0.6,0.1h0.6c0.4,0,0.6,0,0.8-0.1l0.4-0.1h1.1c0.3,0,0.8-0.6,0.8-1c0-0.3,0-0.3-0.5-1.4
		l-0.3-1.1l-0.2-1l-0.5-1.7l-0.3-1.1l-0.2-0.6c-0.2-0.9-0.4-1.5-0.5-1.9c-0.5-1.1-0.6-1.3-0.5-1.4c-0.1-0.3-0.2-0.9-0.4-1.8
		c-0.1-0.1-0.1-0.2-0.2-0.2L43.3,193.8z"/>
	<path style="fill:#FBEB00;" d="M86.5,214.2c0,0.5-0.6,1.1-1.2,1.4c-0.5,0.2-0.5,0.2-1.9,0.2c-1.6,0-2-0.1-2.6-0.2
		c-2-0.6-2.3-0.8-5.7-3.7c-1.5-1.3-2.3-2.2-3.5-3.6c-0.4-0.6-1-0.8-1.6-0.8c-0.5,0-0.7,0.2-0.8,0.8c-0.1,0.5-0.2,1-0.2,1.3
		s0,0.4,0.3,1.9c0.1,0.8,0.2,1.6,0.2,2.2c0,1-0.4,1.5-1.3,1.5h-0.4c-0.4-0.1-0.6-0.1-0.6-0.1l-3.5,0.1c-0.9,0-1.6-0.7-1.6-1.8
		c0-0.6,0.1-1.3,0.2-2c0.3-1.2,0.3-1.4,0.3-2c0-0.3,0-0.6-0.1-0.9c-0.1-0.5-0.2-0.7-0.2-0.7l0.2-1.9c0,0,0-0.2-0.1-0.3
		c-0.1-0.3-0.1-0.9-0.1-2.2c0-0.4,0-0.4,0.1-2.4c-0.2-1.4-0.2-1.4-0.2-2.1c0-1.6,0-1.6,0.1-2.8c0.1-0.5,0.1-1.3,0.1-2.5
		c0-0.4,0-0.7-0.1-0.9l-0.1-0.9l0.1-1.1l-0.1-1.7c0.1-1.1,0.1-1.1,0.1-1.3c0-0.8-0.1-1.7-0.3-2.5c-0.2-1.2-0.3-1.4-0.3-1.7
		c0-2.6,0.9-3.7,3-3.7c0.6,0,0.6,0,2.2,0.2c0.1,0.1,0.3,0.1,0.7,0.1h0.5c0.5-0.1,0.8-0.1,0.8-0.1l1.8,0.1c2.5-0.2,2.5-0.2,3-0.2
		c3,0,4.2,0.4,7.2,2.5c1.9,1.3,1.9,1.3,4.2,4.5c0.9,1.4,1.1,2.1,1.1,4.4v0.6l0.2,2.1l-0.2,0.7c-0.2,0.3-0.3,0.7-0.3,1.2
		c-0.3,1.4-0.3,1.5-0.8,2.6l-0.7,1.4c-0.5,1.1-0.7,1.3-1.2,1.7c-2.2,1.9-3,2.5-4.3,3c-0.8,0.3-1.1,0.4-1.1,0.7c0,0.4,0,0.4,0.8,1.1
		l1.4,1.3c0.8,0.8,2.4,1.3,4.2,1.4c0.8,0,1.2,0.1,1.5,0.4c0.4,0.4,0.7,0.9,0.7,1.3c0,0.2-0.1,0.6-0.2,1.2l-0.1,0.6V214.2z
		 M72.3,185.9l-0.9-0.1c-0.9,0-2,1-2.2,1.9c-0.1,0.3-0.2,2.6-0.2,3.5c0,0.3,0,0.3,0.2,3.4l-0.1,0.4c-0.1,0.7-0.2,1.4-0.2,2
		c0,1.3,0.2,2.6,0.4,3c0.2,0.4,1.4,0.8,2.6,0.8c0.8,0,1.2-0.1,2.7-0.8l1-0.3c1.1-0.3,1.1-0.3,1.8-1.6c0.1-0.2,0.5-0.7,1.2-1.6
		c0.5-0.6,0.9-1.5,1-1.9c0.3-1.7,0.3-1.8,0.3-1.9c0-0.4-0.5-2.4-0.8-2.9c-0.8-1.7-2.9-3.3-4.7-3.6l-0.9-0.2
		c-0.3-0.1-0.5-0.2-0.6-0.2L72.3,185.9z"/>
	<path style="fill:#FBEB00;" d="M107.1,208.7c-0.5,0.1-0.8,0.1-0.8,0.1c-0.1,0-0.3,0-0.6-0.1h-0.5c-0.5,0-0.5,0-2.2,0.2
		c-0.5,0.1-0.8,0.1-1.2,0.1c-0.4,0-0.9-0.1-1.5-0.2c-0.4-0.1-0.8-0.1-1-0.1c-1.7,0-2.9,1.4-3,3.3c0,1.6,0,1.6-0.4,2.2
		c-0.4,0.6-0.8,0.8-1.5,0.8c-0.4,0-0.8-0.1-1.4-0.1l-1.1-0.1c-0.3,0-0.7,0-1.5,0.1H90c-1.1,0-1.7-0.5-1.7-1.4c0-0.5,0.3-1.3,0.8-2.3
		c0.4-0.6,0.6-1.1,0.6-1.3l0.3-1.1c0.1-0.3,0.3-0.7,0.5-1.1c0.4-0.8,0.7-1.7,1-2.6c0.2-1,0.4-2,0.6-2.9c0.1-0.3,0.3-0.7,0.7-2
		c0.4-0.9,0.7-2.1,1.1-3.4c0.2-0.7,0.4-1.3,0.6-1.7l0.7-1.6c0.3-1,0.5-1.5,1.1-3.3c0.1-0.4,0.2-0.7,0.3-1.2c0.1-0.4,0.1-0.2,0.2-0.5
		l0.3-0.7l0.3-0.9c0.3-1.1,0.4-1.4,1.1-3.1c0.4-1.1,0.6-1.8,0.6-1.9c0.7-2.3,1-2.6,2.8-2.6c0.2,0,0.5,0,0.7,0.1l0.8,0.1l2-0.1
		c0.2,0,0.9,0.5,1.3,0.8c0.3,0.3,0.5,0.8,0.7,1.7c0.1,0.3,0.3,0.7,0.5,1.4l0.6,1.5l1.1,2.4c0.4,0.9,0.6,1.6,0.8,2.7
		c0.2,0.8,0.2,0.9,0.6,2.1c0.2,0.3,0.3,0.6,0.4,1.1l0.3,1.3l0.4,1.1c0.2,0.6,0.3,1.1,0.4,1.6l0.2,0.9c0.1,0.4,0.3,0.7,0.5,1.3
		c0.3,0.5,0.2,0.3,0.4,0.8l0.6,1.6l0.2,1.1l0.3,0.6c0.1,0.3,0.2,0.5,0.3,0.8l0.4,1.6l0.3,0.7l0.5,1.2c0.2,0.4,0.3,0.8,0.4,1.2
		c0.2,0.5,0.3,0.9,0.5,1.3l0.7,1.2c0.4,0.8,0.7,1.7,0.7,2.4c0,0.8-0.4,1.2-1.2,1.2l-1.1-0.1c-0.7-0.1-1.2-0.2-1.5-0.2
		c-0.2,0-0.7,0.1-1.4,0.1c-0.5,0.1-0.9,0.1-1.3,0.1c-1.4,0-1.8-0.8-2-3.2c0-1.2-0.2-1.6-1-2.7c-0.3-0.5-0.7-0.6-1.5-0.6H107.1z
		 M102.2,193.8c-0.5,1.3-0.6,1.5-0.8,2.5c-0.4,1.5-0.5,1.8-0.9,2.6c-0.4,0.8-0.4,0.8-1,3c0,0.4,0.8,1,1.4,1l1.7-0.1
		c0.1,0,0.3,0,0.6,0.1h0.6c0.4,0,0.6,0,0.8-0.1l0.4-0.1h1.1c0.3,0,0.8-0.6,0.8-1c0-0.3,0-0.3-0.5-1.4l-0.3-1.1l-0.2-1l-0.5-1.7
		l-0.3-1.1l-0.2-0.6c-0.2-0.9-0.4-1.5-0.5-1.9c-0.5-1.1-0.6-1.3-0.5-1.4c-0.1-0.3-0.2-0.9-0.4-1.8c-0.1-0.1-0.1-0.2-0.2-0.2
		L102.2,193.8z"/>
	<path style="fill:#FBEB00;" d="M155.3,204c0-0.4,0-0.8-0.1-1.1l-0.2-1.3v-1.7c0-0.3-0.4-1.2-0.5-1.4c-0.2-0.1-0.5-0.2-0.9-0.2
		c-0.6,0-1.5,0.1-2.1,0.3c-0.6,0.2-1.1,0.3-1.3,0.3c-0.3,0-1.6-0.4-1.8-0.5c-0.3-0.2-0.7-0.9-0.7-1.3l0.1-1.7c0-0.1-0.1-0.3-0.1-0.7
		c-0.1-0.2-0.1-0.4-0.1-0.6c0-1.2,1.4-2.3,2.9-2.3c0.3,0,0.7,0,1.2,0.1c1.5,0.2,2.3,0.2,2.8,0.2c0.3,0,0.3,0,1.2-0.1l1.3,0.1
		c1.4-0.2,1.4-0.2,3.5-0.4c1.2,0.1,2.3,1.1,2.3,2.1c0,0.3-0.1,0.9-0.3,1.7c-0.1,0.4-0.1,0.6-0.1,0.8s0.1,0.7,0.1,1.4
		c0.1,0.3,0.1,0.5,0.1,0.7s-0.2,2.1-0.2,3c0.2,1.4,0.2,2.2,0.1,3.7l0.1,0.7l-0.2,1.3c0,0.1,0.1,0.3,0.1,0.5l0.1,0.7l0.1,0.9l0.3,1.1
		c0.1,0.3,0.2,0.7,0.2,1.2c0,2.6-1.1,3.8-3.6,3.8c-0.5,0-1.1-0.1-1.6-0.1c-0.7-0.1-1.3-0.2-1.6-0.2c-0.4,0-0.4,0-2.7,0.6
		c-0.4,0.1-0.9,0.1-1.6,0.1c-5.5,0-11-2.4-14.1-6.1c-1.7-2-2.8-3.9-3.4-5.5c-1-2.5-1.7-5.8-1.7-7.7c0-0.7,0.1-1.5,0.2-2.4l0.1-0.9
		c0.3-2.5,0.5-3,2-5.9c1.5-2.7,1.6-2.9,4.2-4.5c3.5-2.2,4.1-2.5,6.2-3c2-0.5,3.7-0.7,6.2-0.7c1.5,0,3.8,0.4,5.7,0.9
		c0.3,0.1,0.3,0.1,1.1,0.3c1.4,0.3,2.5,1.4,2.5,2.4c0,0.8-0.2,1.4-0.7,2.1c-0.4,0.5-0.4,0.5-0.6,0.8c-0.5,1.5-0.8,1.7-2,1.7
		c-0.6,0-1.1-0.2-2.2-0.7c-1.7-0.9-3.2-1.3-5.4-1.3c-1.4,0-3.9,0.4-4.6,0.8c-1.6,0.8-3.9,3-4.5,4.2c-0.9,1.7-1.3,3.6-1.3,5.8
		c0,1.6,0.4,4,0.8,5.4c0.6,1.8,0.8,2.2,2.7,4.1c1.9,1.8,2.2,2.1,3.5,2.6c2.3,0.9,3.9,1.4,4.9,1.4c0.8,0,2.4-0.2,2.7-0.3
		c0.7-0.3,1.2-1.1,1.2-2c0-0.2-0.1-0.5-0.1-0.8c-0.1-0.4-0.1-0.6-0.1-0.8V204z"/>
	<path style="fill:#FBEB00;" d="M183.9,208.7c-0.5,0.1-0.8,0.1-0.8,0.1c-0.1,0-0.3,0-0.6-0.1H182c-0.5,0-0.5,0-2.2,0.2
		c-0.5,0.1-0.8,0.1-1.2,0.1c-0.4,0-1-0.1-1.5-0.2c-0.4-0.1-0.8-0.1-1-0.1c-1.7,0-2.9,1.4-3,3.3c0,1.6,0,1.6-0.4,2.2
		c-0.4,0.6-0.8,0.8-1.5,0.8c-0.4,0-0.8-0.1-1.4-0.1l-1.1-0.1c-0.3,0-0.7,0-1.5,0.1h-0.5c-1.1,0-1.7-0.5-1.7-1.4
		c0-0.5,0.3-1.3,0.8-2.3c0.4-0.6,0.6-1.1,0.6-1.3l0.3-1.1c0.1-0.3,0.3-0.7,0.5-1.1c0.4-0.8,0.7-1.7,1-2.6c0.2-1,0.4-2,0.6-2.9
		c0.1-0.3,0.3-0.7,0.7-2c0.4-0.9,0.7-2.1,1.1-3.4c0.2-0.7,0.4-1.3,0.6-1.7l0.7-1.6c0.3-1,0.5-1.5,1.1-3.3c0.1-0.4,0.2-0.7,0.3-1.2
		c0.1-0.4,0.1-0.2,0.2-0.5l0.3-0.7l0.3-0.9c0.3-1.1,0.4-1.4,1.1-3.1c0.4-1.1,0.6-1.8,0.6-1.9c0.7-2.3,1-2.6,2.8-2.6
		c0.2,0,0.5,0,0.7,0.1l0.8,0.1l2-0.1c0.2,0,0.9,0.5,1.3,0.8c0.3,0.3,0.5,0.8,0.7,1.7c0.1,0.3,0.3,0.7,0.5,1.4l0.6,1.5l1.1,2.4
		c0.4,0.9,0.6,1.6,0.8,2.7c0.2,0.8,0.2,0.9,0.6,2.1c0.2,0.3,0.3,0.6,0.4,1.1l0.3,1.3l0.4,1.1c0.2,0.6,0.3,1.1,0.4,1.6l0.2,0.9
		c0.1,0.4,0.3,0.7,0.5,1.3c0.3,0.5,0.2,0.3,0.4,0.8l0.6,1.6l0.2,1.1l0.3,0.6c0.1,0.3,0.2,0.5,0.3,0.8l0.4,1.6l0.3,0.7l0.5,1.2
		c0.2,0.4,0.3,0.8,0.4,1.2c0.2,0.5,0.3,0.9,0.5,1.3l0.7,1.2c0.4,0.8,0.7,1.7,0.7,2.4c0,0.8-0.4,1.2-1.2,1.2l-1.1-0.1
		c-0.7-0.1-1.2-0.2-1.5-0.2c-0.2,0-0.7,0.1-1.4,0.1c-0.5,0.1-0.9,0.1-1.3,0.1c-1.4,0-1.8-0.8-2-3.2c0-1.2-0.2-1.6-1-2.7
		c-0.3-0.5-0.7-0.6-1.5-0.6H183.9z M179,193.8c-0.5,1.3-0.6,1.5-0.8,2.5c-0.4,1.5-0.5,1.8-0.9,2.6c-0.4,0.8-0.4,0.8-1,3
		c0,0.4,0.8,1,1.4,1l1.7-0.1c0.1,0,0.3,0,0.6,0.1h0.6c0.4,0,0.6,0,0.8-0.1l0.4-0.1h1.1c0.3,0,0.8-0.6,0.8-1c0-0.3,0-0.3-0.5-1.4
		l-0.3-1.1l-0.2-1l-0.5-1.7l-0.3-1.1l-0.2-0.6c-0.2-0.9-0.4-1.5-0.5-1.9c-0.5-1.1-0.6-1.3-0.5-1.4c-0.1-0.3-0.2-0.9-0.4-1.8
		c-0.1-0.1-0.1-0.2-0.2-0.2L179,193.8z"/>
	<path style="fill:#FBEB00;" d="M200.5,194.1c-1.1-1-1.1-1-1.8-2.5c-0.7-1.7-1.1-2.7-1.1-3.2l0.1-1l-0.1-1.2c0-0.4,0.2-1.1,0.8-2.8
		c0.3-1,0.8-1.5,2.4-2.7c1.2-0.8,1.2-0.8,2.6-1.2c1.4-0.3,2.3-0.4,4.4-0.4c0.7,0,0.8,0,2,0.2l1.8,0.1c0.6,0.1,2.2,0.5,3.4,1.1
		c0.9,0.5,1.6,1.3,1.6,2c0,0.4,0,0.4-0.7,1.5c-0.1,0.2-0.2,0.5-0.4,1.8c-0.2,1.2-0.6,1.7-1.5,1.7c-0.6,0-0.6,0-2.1-1
		c-1-0.7-2.8-1.4-3.8-1.4c-1.6,0-1.8,0.1-2.5,0.3c-0.9,0.4-1.4,1.1-1.4,2.2c0,1.1,0.6,1.8,2.3,3.1c3.3,2.3,6.2,4.6,7.6,6.1
		c1.9,2,2.6,3.1,3.3,4.7c0.6,1.4,0.8,2.3,0.8,3.1c0,3.3-0.1,3.6-0.9,5.7c-0.7,1.7-0.7,1.7-2.1,3.1c-1.5,1.4-2.2,1.8-4.3,2.3
		c-0.8,0.2-1,0.2-1.8,0.2c-2.3,0.1-2.7,0.1-2.7,0.1c-0.8-0.1-1.4-0.2-2-0.2c-1.1-0.1-3-0.4-3.5-0.6c-0.2-0.1-0.7-0.2-1.3-0.3
		c-0.7-0.2-2.2-0.6-2.5-0.8c-0.5-0.3-0.7-1-0.7-2.4c0-0.3,0.2-0.9,0.4-1.5l0.3-0.6l0.2-1.3c0.2-1.2,0.7-2,1.4-2c0.4,0,0.9,0.3,2,1
		c1.6,1.2,1.8,1.3,3.5,1.8c0.4,0.1,0.4,0.1,0.7,0.2c0.9,0.3,1.2,0.4,2.4,0.4c1.3,0,2-0.3,2.8-1.1c1-0.9,1.4-2,1.4-3.4
		c0-1.8-0.9-3.4-2.5-4.5c-0.8-0.5-0.8-0.5-1.2-0.8L200.5,194.1z"/>
	<path style="fill:#FBEB00;" d="M234.1,195.4c0,0.2,0,0.5-0.1,0.8l-0.1,1.2c0,0.4,0.1,0.9,0.1,1.4c0.2,0.9,0.3,1.6,0.3,2l-0.1,0.7
		c-0.2,1-0.2,1.5-0.2,1.9c0,2.1,0.1,5.3,0.2,5.9c0.2,1.4,0.3,2.4,0.3,3.1c0,1.7-0.5,2.5-1.7,2.5c-0.2,0-0.4,0-0.7-0.1
		c-0.5-0.1-0.8-0.1-0.9-0.1c-1.7,0.1-1.7,0.1-2.1,0.1c-1.9,0-2.4-0.7-2.4-3.4c0-0.5,0.1-1.1,0.2-1.7c0.2-1.3,0.2-1.5,0.2-2.1
		l0.2-2.2c0-0.2,0-0.2-0.2-3.4l-0.1-2.4c0-1.2,0.1-2.5,0.2-3.9c0.1-0.3,0.1-0.5,0.1-0.5c-0.1-1.7-0.3-3.5-0.4-5.4l0.1-1.8
		c0-1.4-0.8-2.3-2.3-2.3c-0.5,0-0.5,0-1.7,0.3c-0.4,0.1-0.8,0.2-1.3,0.2c-1.4,0-2.2-0.8-2.2-2.3c0-0.2,0-0.4,0.1-0.7l0.1-0.5V181
		c0-0.9,1.1-1.4,2.8-1.4c0.5,0,0.9,0.1,1.8,0.2c0.6,0.1,1,0.1,1.3,0.1c0.2,0,0.5,0,0.8-0.1c0.9-0.1,1.6-0.2,1.8-0.2s0.8,0.1,1.5,0.1
		c0.7,0.1,1.3,0.1,1.7,0.1c0.5,0,1.2-0.1,2-0.2c0.7-0.1,1.3-0.1,1.6-0.1c0.3,0,0.8,0.1,1.5,0.1c0.5,0.1,0.9,0.1,1.2,0.1
		c0.3,0,0.8-0.1,1.4-0.1c0.4-0.1,0.7-0.1,1.1-0.1c0.4,0,0.7,0.2,1.1,0.6c0.5,0.6,0.6,0.7,0.6,1.8l0.2,0.9c0.1,0.7,0.2,1.2,0.2,1.6
		c0,0.9-1.1,2.1-1.9,2c-1.5-0.2-2.4-0.3-2.6-0.4c-0.5-0.1-1.1-0.2-1.6-0.2c-1.5,0-2.2,0.6-2.2,1.9c0,0.3,0,0.6,0.1,1
		c0.1,0.6,0.2,1,0.2,1.1c0,0.7-0.1,2.9-0.1,3.9L234.1,195.4z"/>
	<path style="fill:#FBEB00;" d="M258.6,208.7c-0.5,0.1-0.8,0.1-0.8,0.1c-0.1,0-0.3,0-0.6-0.1h-0.5c-0.5,0-0.5,0-2.2,0.2
		c-0.5,0.1-0.8,0.1-1.2,0.1c-0.4,0-0.9-0.1-1.5-0.2c-0.4-0.1-0.8-0.1-1-0.1c-1.7,0-2.9,1.4-3,3.3c0,1.6,0,1.6-0.4,2.2
		c-0.4,0.6-0.8,0.8-1.5,0.8c-0.4,0-0.8-0.1-1.4-0.1l-1.1-0.1c-0.3,0-0.7,0-1.5,0.1h-0.5c-1.1,0-1.7-0.5-1.7-1.4
		c0-0.5,0.3-1.3,0.8-2.3c0.4-0.6,0.6-1.1,0.6-1.3l0.3-1.1c0.1-0.3,0.3-0.7,0.5-1.1c0.4-0.8,0.7-1.7,1-2.6c0.2-1,0.4-2,0.6-2.9
		c0.1-0.3,0.3-0.7,0.7-2c0.4-0.9,0.7-2.1,1.1-3.4c0.2-0.7,0.4-1.3,0.6-1.7l0.7-1.6c0.3-1,0.5-1.5,1.1-3.3c0.1-0.4,0.2-0.7,0.3-1.2
		c0.1-0.4,0.1-0.2,0.2-0.5l0.3-0.7l0.3-0.9c0.3-1.1,0.4-1.4,1.1-3.1c0.4-1.1,0.6-1.8,0.6-1.9c0.7-2.3,1-2.6,2.8-2.6
		c0.2,0,0.5,0,0.7,0.1l0.8,0.1l2-0.1c0.2,0,0.9,0.5,1.3,0.8c0.3,0.3,0.5,0.8,0.7,1.7c0.1,0.3,0.3,0.7,0.5,1.4l0.6,1.5l1.1,2.4
		c0.4,0.9,0.6,1.6,0.8,2.7c0.2,0.8,0.2,0.9,0.6,2.1c0.2,0.3,0.3,0.6,0.4,1.1l0.3,1.3l0.4,1.1c0.2,0.6,0.3,1.1,0.4,1.6l0.2,0.9
		c0.1,0.4,0.3,0.7,0.5,1.3c0.3,0.5,0.2,0.3,0.4,0.8l0.6,1.6l0.2,1.1l0.3,0.6c0.1,0.3,0.2,0.5,0.3,0.8l0.4,1.6l0.3,0.7l0.5,1.2
		c0.2,0.4,0.3,0.8,0.4,1.2c0.2,0.5,0.3,0.9,0.5,1.3l0.7,1.2c0.4,0.8,0.7,1.7,0.7,2.4c0,0.8-0.4,1.2-1.2,1.2l-1.1-0.1
		c-0.7-0.1-1.2-0.2-1.5-0.2c-0.2,0-0.7,0.1-1.4,0.1c-0.5,0.1-0.9,0.1-1.3,0.1c-1.4,0-1.8-0.8-2-3.2c0-1.2-0.2-1.6-1-2.7
		c-0.3-0.5-0.7-0.6-1.5-0.6H258.6z M253.7,193.8c-0.5,1.3-0.6,1.5-0.8,2.5c-0.4,1.5-0.5,1.8-0.9,2.6c-0.4,0.8-0.4,0.8-1,3
		c0,0.4,0.8,1,1.4,1l1.7-0.1c0.1,0,0.3,0,0.6,0.1h0.6c0.4,0,0.6,0,0.8-0.1l0.4-0.1h1.1c0.3,0,0.8-0.6,0.8-1c0-0.3,0-0.3-0.5-1.4
		l-0.3-1.1l-0.2-1l-0.5-1.7l-0.3-1.1l-0.2-0.6c-0.2-0.9-0.4-1.5-0.5-1.9c-0.5-1.1-0.6-1.3-0.5-1.4c-0.1-0.3-0.2-0.9-0.4-1.8
		c-0.1-0.1-0.1-0.2-0.2-0.2L253.7,193.8z"/>
	<path style="fill:#FBEB00;" d="M296.9,214.2c0,0.5-0.6,1.1-1.2,1.4c-0.5,0.2-0.5,0.2-1.9,0.2c-1.6,0-2-0.1-2.6-0.2
		c-2-0.6-2.3-0.8-5.7-3.7c-1.5-1.3-2.3-2.2-3.5-3.6c-0.4-0.6-1-0.8-1.6-0.8c-0.5,0-0.7,0.2-0.8,0.8c-0.1,0.5-0.2,1-0.2,1.3
		s0,0.4,0.3,1.9c0.1,0.8,0.2,1.6,0.2,2.2c0,1-0.4,1.5-1.3,1.5h-0.4c-0.4-0.1-0.6-0.1-0.6-0.1l-3.5,0.1c-0.9,0-1.6-0.7-1.6-1.8
		c0-0.6,0.1-1.3,0.2-2c0.3-1.2,0.3-1.4,0.3-2c0-0.3,0-0.6-0.1-0.9c-0.1-0.5-0.2-0.7-0.2-0.7l0.2-1.9c0,0,0-0.2-0.1-0.3
		c-0.1-0.3-0.1-0.9-0.1-2.2c0-0.4,0-0.4,0.1-2.4c-0.2-1.4-0.2-1.4-0.2-2.1c0-1.6,0-1.6,0.1-2.8c0.1-0.5,0.1-1.3,0.1-2.5
		c0-0.4,0-0.7-0.1-0.9l-0.1-0.9l0.1-1.1l-0.1-1.7c0.1-1.1,0.1-1.1,0.1-1.3c0-0.8-0.1-1.7-0.3-2.5c-0.2-1.2-0.3-1.4-0.3-1.7
		c0-2.6,0.9-3.7,3-3.7c0.6,0,0.6,0,2.2,0.2c0.1,0.1,0.3,0.1,0.7,0.1h0.5c0.5-0.1,0.8-0.1,0.8-0.1l1.8,0.1c2.5-0.2,2.5-0.2,3-0.2
		c3,0,4.2,0.4,7.2,2.5c1.9,1.3,1.9,1.3,4.2,4.5c0.9,1.4,1.1,2.1,1.1,4.4v0.6l0.2,2.1l-0.2,0.7c-0.2,0.3-0.3,0.7-0.3,1.2
		c-0.3,1.4-0.3,1.5-0.8,2.6l-0.7,1.4c-0.5,1.1-0.7,1.3-1.2,1.7c-2.2,1.9-3,2.5-4.3,3c-0.8,0.3-1.1,0.4-1.1,0.7c0,0.4,0,0.4,0.8,1.1
		l1.4,1.3c0.8,0.8,2.4,1.3,4.2,1.4c0.8,0,1.2,0.1,1.5,0.4c0.4,0.4,0.7,0.9,0.7,1.3c0,0.2-0.1,0.6-0.2,1.2l-0.1,0.6V214.2z
		 M282.7,185.9l-0.9-0.1c-0.9,0-2,1-2.2,1.9c-0.1,0.3-0.2,2.6-0.2,3.5c0,0.3,0,0.3,0.2,3.4l-0.1,0.4c-0.1,0.7-0.2,1.4-0.2,2
		c0,1.3,0.2,2.6,0.4,3c0.2,0.4,1.4,0.8,2.6,0.8c0.8,0,1.2-0.1,2.7-0.8l1-0.3c1.1-0.3,1.1-0.3,1.8-1.6c0.1-0.2,0.5-0.7,1.2-1.6
		c0.5-0.6,0.9-1.5,1-1.9c0.3-1.7,0.3-1.8,0.3-1.9c0-0.4-0.5-2.4-0.8-2.9c-0.8-1.7-2.9-3.3-4.7-3.6L284,186c-0.3-0.1-0.5-0.2-0.6-0.2
		L282.7,185.9z"/>
	<path style="fill:#FBEB00;" d="M309.4,185.3c-0.1,0.5-0.2,1-0.3,1.5c-0.3,1.2-0.3,1.2-0.3,1.7v0.9c0.1,0.6,0.1,1.2,0.1,1.7
		c0,0.8,0,0.8-0.3,2.2c-0.2,1-0.2,1.6-0.2,3.4c0,0.5,0,0.6-0.2,1.6l-0.1,1.5l-0.1,1c-0.1,0.6-0.2,1-0.2,1.3c0,0.3,0.1,0.8,0.2,1.8
		l0.1,0.9c0,1.2-0.6,1.6-2.2,1.6c-1.7,0-1.8,0-2.2-0.5c-0.3-0.3-0.4-0.8-0.4-1.2c0-0.3,0.1-0.8,0.1-1.6c0.1-0.3,0.1-0.6,0.1-0.8
		c0-0.9-0.1-2-0.2-3.1l-0.2-1.9l-0.1-1.1c0-0.5,0-0.5-0.1-1.2c-0.1-0.7-0.2-1.9-0.3-3.5c0-0.4-0.1-0.8-0.1-1.3
		c-0.1-0.9-0.3-2.3-0.4-4.2c0-0.1,0-0.4,0.1-1.1v-0.4c0-0.2,0-0.2-0.2-1.9c-0.1-0.3-0.1-0.5-0.1-0.7c0-1.3,0.7-2.1,1.8-2.1
		c0.2,0,0.4,0,0.6,0.1c0.6,0.1,1,0.1,1.2,0.1c0.2,0,0.6-0.1,1.1-0.1c0.4-0.1,0.7-0.1,0.9-0.1c1.3,0,2,1.1,2,3.3c0,0.5,0,0.7-0.2,1.4
		L309.4,185.3z M304,215.4c-0.6,0-1-0.2-1.4-0.6c-0.2-0.2-0.4-0.6-0.4-0.7l0.2-2.7c0,0-0.1-0.4-0.1-0.9c-0.1-0.3-0.1-0.5-0.1-0.7
		c0-1.2,0.4-1.6,1.5-1.6c0.3,0,0.6,0,0.9,0.1c0.6,0.1,1,0.2,1.2,0.2c0.2,0,0.5-0.1,0.9-0.2c0.4-0.1,0.7-0.1,1-0.1
		c0.7,0,1.4,0.6,1.5,1.4c0.1,0.3,0.1,0.5,0.1,1.1v0.8c0.1,1.2,0.1,2.1,0.1,2.1c0,0.5-0.3,1.3-0.5,1.5c-0.3,0.3-1.1,0.4-2,0.4
		c-0.2,0-0.2,0-1.4-0.1L304,215.4z"/>
</g>
<g>
	<path style="fill:#FBEB00;" d="M26.1,160.6v-1.4l-0.1-1.2c0-0.2,0-0.4,0-0.5c0-0.3,0.1-0.8,0.2-1.4c0.1-0.7,0.2-1.3,0.2-1.8
		c0-0.3,0-0.7-0.1-1.3c0-0.4,0-0.7,0-0.9c0-0.1,0-0.5,0.1-1.1v-0.4c0-0.3-0.2-0.5-0.4-0.5c-0.2,0-0.2,0-0.7,0.7l-0.4,0.5l-0.2,0.2
		c-0.8,0.8-1,1-1.1,1.3c-0.2,0.3-0.5,0.7-0.9,1.1c-0.3,0.2-0.3,0.3-0.6,1.1c-0.7,1.4-1.5,2-2.8,2c-1.6,0-1.7,0-2.8-1.8
		c-0.2-0.4-0.5-0.7-1.5-1.8c-0.1-0.2-0.3-0.4-0.4-0.5c-0.4-0.5-0.7-1.1-1.1-1.6c-0.5-0.8-1-1.3-1.3-1.3c-0.2,0-0.4,0.3-0.4,0.7
		c0,0.1,0,0.1,0.1,1.2l0,0.7c0.1,0.8,0.1,0.8,0.1,1c0,0.2,0,0.5-0.1,1.9c0,0.5,0,0.9,0,1.4c0,0.2,0,0.5,0.1,0.8
		c0.1,0.5,0.1,0.8,0.1,0.8c0,0.1,0,0.4-0.1,0.8c-0.1,0.4-0.1,0.5-0.1,0.9v1.2c0,0.4,0,0.5,0.1,0.9c0,0.2,0,0.4,0,0.4
		c0,0-0.1,0.7-0.3,1.5c0,0.1,0,0.3,0,0.4c0,0,0.1,0.7,0.3,2c0.1,0.7,0.1,1.2,0.1,1.4c0,1.1-0.5,1.6-1.8,1.6c-0.2,0-0.5,0-0.8-0.1
		c-0.4,0-0.8-0.1-0.9-0.1c0,0-0.4,0-0.9,0.1H7.4c-1.2,0-1.8-0.7-1.8-2.1c0-0.4,0.1-0.9,0.2-1.3c0.2-0.4,0.3-0.6,0.3-0.7l0-0.8
		l0.1-1.3c0,0,0-0.3-0.1-0.5l0-1c0-0.5,0-0.8,0-1.1c0.1-0.6,0.1-1,0.1-1.2c0,0,0-0.2,0-0.5c0-0.7-0.1-0.7-0.1-2.6l-0.1-1.7
		c0-0.3,0-0.6,0-0.7c0-0.1,0-0.5,0.1-0.9c0.1-1.3,0.1-1.8,0.1-5l0-0.5c0-0.8,0.1-1.3,0.1-1.4c0,0,0-0.1,0-0.3v-0.2l0-2.1
		c0-0.1,0-0.4-0.1-0.8c-0.4-1.4-0.4-1.8-0.4-2.3c0-1,0.5-1.7,1.4-1.6l0.8,0l2.1,0c1.6,0,2.3,0.5,3.2,2.3c0.6,1.4,0.7,1.5,1.4,2.3
		l0.4,0.4l0.4,0.7c0.4,0.7,0.5,0.9,0.9,1.4c0.3,0.4,0.6,0.8,0.9,1.3c0.2,0.5,0.3,0.5,0.5,0.9c0.3,0.5,0.6,0.8,0.6,0.9l0.4,0.9
		c0.1,0.2,0.3,0.3,0.4,0.3c0.3,0,0.7-0.5,1.1-1.3c0.4-0.7,0.5-0.8,0.8-1.3c0.2-0.4,0.5-0.7,0.6-1c0-0.2,0.2-0.4,0.4-0.5l0.5-0.5
		c0.3-0.3,0.4-0.5,0.7-1c0.1-0.2,0.2-0.4,0.4-0.6c0.6-0.8,1-1.3,1.2-1.6c0.2-0.5,0.4-1,0.6-1.4c0.5-1.2,1.4-1.8,2.9-1.8
		c0.3,0,0.3,0,1.6,0.1c1.2-0.1,1.2-0.1,1.4-0.1c1.2,0,1.5,0.5,1.5,1.7c0,0.6,0,0.8-0.4,2.4c-0.1,0.5-0.2,1.4-0.2,2.1v0.5
		c0,0.7,0.1,1.2,0.1,1.3c0,0.1,0,0.3,0,0.5c-0.1,1-0.1,1.9-0.1,2.4c0,0.1,0,0.3,0,0.5v0.3c0,0.1-0.1,0.9-0.2,2c0,0.2,0,0.5,0,0.6
		c0,0.2,0,0.5,0,0.7c0.1,0.8,0.2,1.4,0.2,1.4c0,0,0,0.3,0,0.5c0,0.2,0,0.5,0,0.8c0,0.5,0,0.5,0.1,1.7v0.5c0,0.7,0,0.7-0.2,2.5
		c0,0.3,0,0.5,0,0.6c0,0.2,0,0.4,0,0.6c0.1,0.5,0.1,0.8,0.1,0.9s0,0.3-0.1,0.6c0,0.2,0,0.4,0,0.6c0,0.3,0,0.3,0.2,1.5
		c0.1,0.5,0.1,1.2,0.1,1.6c0,0.9-0.5,1.6-1.3,1.6c-0.2,0-0.2,0-1.3-0.1c-0.1,0-0.2,0-0.4,0c-0.2,0-0.2,0-0.8,0.2c-0.1,0-0.3,0-0.5,0
		c-1.3,0-2.4-0.9-2.3-1.8C26,166,26,165,26,165c0.2-0.9,0.3-1.3,0.3-2.2c0-0.6,0-1.1-0.1-1.6L26.1,160.6z"/>
	<path style="fill:#FBEB00;" d="M51,164.1c-0.4,0-0.7,0.1-0.7,0.1c0,0-0.2,0-0.5,0h-0.5c-0.4,0-0.4,0-1.9,0.2c-0.4,0-0.7,0-1,0
		c-0.4,0-0.8,0-1.3-0.1c-0.4,0-0.7-0.1-0.9-0.1c-1.4,0-2.5,1.2-2.5,2.8c0,1.4,0,1.4-0.3,1.9c-0.4,0.5-0.7,0.7-1.3,0.7
		c-0.3,0-0.7,0-1.2-0.1l-0.9,0c-0.2,0-0.6,0-1.3,0h-0.5c-0.9,0-1.5-0.5-1.5-1.2c0-0.5,0.2-1.1,0.7-1.9c0.3-0.5,0.5-0.9,0.5-1.1
		l0.2-0.9c0.1-0.3,0.2-0.6,0.4-0.9c0.4-0.7,0.6-1.4,0.9-2.2c0.2-0.9,0.4-1.7,0.5-2.5c0.1-0.3,0.2-0.6,0.6-1.7
		c0.3-0.8,0.6-1.8,0.9-2.9c0.2-0.6,0.4-1.1,0.5-1.4l0.6-1.4c0.3-0.8,0.5-1.3,0.9-2.8c0.1-0.3,0.2-0.6,0.3-1c0.1-0.3,0-0.1,0.2-0.5
		l0.2-0.6l0.2-0.8c0.2-0.9,0.3-1.2,0.9-2.7c0.3-0.9,0.5-1.5,0.5-1.6c0.6-1.9,0.9-2.2,2.4-2.2c0.2,0,0.4,0,0.6,0l0.7,0l1.7,0
		c0.2,0,0.8,0.4,1.1,0.7c0.2,0.2,0.4,0.7,0.6,1.5c0.1,0.2,0.2,0.6,0.4,1.2l0.5,1.3L53,146c0.4,0.8,0.5,1.4,0.7,2.3
		c0.1,0.7,0.1,0.8,0.5,1.8c0.2,0.2,0.3,0.5,0.4,0.9l0.3,1.1l0.4,0.9c0.1,0.5,0.3,0.9,0.4,1.4l0.2,0.8c0.1,0.3,0.3,0.6,0.5,1.1
		c0.2,0.5,0.1,0.2,0.3,0.7l0.5,1.4l0.2,0.9l0.2,0.5c0.1,0.2,0.2,0.5,0.2,0.7l0.3,1.4l0.2,0.6l0.5,1c0.1,0.4,0.3,0.7,0.4,1
		c0.1,0.5,0.3,0.8,0.5,1.1l0.6,1c0.4,0.7,0.6,1.4,0.6,2c0,0.7-0.3,1-1,1l-0.9,0c-0.6-0.1-1-0.1-1.3-0.1c-0.2,0-0.6,0-1.2,0.1
		c-0.4,0-0.8,0.1-1.1,0.1c-1.2,0-1.6-0.7-1.7-2.7c0-1-0.1-1.4-0.9-2.3c-0.3-0.4-0.6-0.5-1.3-0.5H51z M46.8,151.3
		c-0.4,1.1-0.5,1.3-0.7,2.1c-0.4,1.3-0.5,1.6-0.8,2.3c-0.3,0.7-0.3,0.7-0.9,2.6c0,0.4,0.7,0.8,1.2,0.8l1.4,0c0,0,0.2,0,0.5,0h0.5
		c0.3,0,0.5,0,0.7,0l0.3,0H50c0.3,0,0.7-0.5,0.7-0.8c0-0.2,0-0.2-0.5-1.2L50,156l-0.2-0.9l-0.5-1.5l-0.2-0.9l-0.1-0.5
		c-0.1-0.8-0.3-1.3-0.4-1.6c-0.4-0.9-0.5-1.1-0.5-1.2c0-0.2-0.2-0.8-0.4-1.5c0,0-0.1-0.1-0.1-0.1L46.8,151.3z M47.4,136.8
		c-0.8,0-1.3-0.3-1.3-0.9c0-0.4,0-0.5,0.6-1.4c0.3-0.5,0.5-0.9,0.6-1.4c0.3-1,0.5-1.2,1.2-1.2h0.5c0.5,0,0.9,0.1,1,0.1
		c0,0,0.2,0,0.5,0l1.4,0c0.8,0,1.4,0.4,1.4,0.9c0,0.7-0.1,0.8-2,2.3c-0.3,0.3-0.6,0.6-0.9,1c-0.7,0.8-0.8,0.9-1.2,0.9
		c-0.1,0-0.1,0-0.9-0.1c0,0-0.3,0-0.7,0H47.4z"/>
	<path style="fill:#FBEB00;" d="M65.2,151.6c-0.9-0.8-0.9-0.8-1.5-2.2c-0.6-1.5-0.9-2.3-0.9-2.8l0-0.9l0-1c0-0.3,0.2-0.9,0.7-2.4
		c0.3-0.9,0.7-1.3,2.1-2.3c1-0.7,1-0.7,2.3-1c1.2-0.3,1.9-0.4,3.8-0.4c0.6,0,0.7,0,1.7,0.1l1.5,0c0.5,0,1.9,0.5,2.9,0.9
		c0.8,0.4,1.4,1.1,1.4,1.7c0,0.3,0,0.3-0.6,1.3c-0.1,0.2-0.2,0.5-0.4,1.6c-0.1,1-0.5,1.5-1.3,1.5c-0.5,0-0.5,0-1.8-0.9
		c-0.9-0.6-2.4-1.2-3.2-1.2c-1.4,0-1.6,0-2.1,0.2c-0.8,0.4-1.2,0.9-1.2,1.9c0,0.9,0.5,1.6,1.9,2.6c2.8,1.9,5.3,3.9,6.5,5.2
		c1.6,1.7,2.3,2.6,2.8,4.1c0.5,1.2,0.7,1.9,0.7,2.6c0,2.8,0,3.1-0.8,4.9c-0.6,1.5-0.6,1.5-1.8,2.7c-1.3,1.2-1.9,1.5-3.7,2
		c-0.7,0.2-0.9,0.2-1.6,0.2c-2,0-2.3,0-2.3,0c-0.7-0.1-1.2-0.2-1.7-0.2c-0.9-0.1-2.5-0.3-3-0.5c-0.2-0.1-0.6-0.2-1.1-0.3
		c-0.6-0.1-1.9-0.5-2.1-0.7c-0.4-0.3-0.6-0.9-0.6-2c0-0.3,0.1-0.8,0.4-1.3l0.2-0.5l0.1-1.1c0.1-1,0.6-1.7,1.2-1.7
		c0.4,0,0.8,0.2,1.7,0.9c1.4,1,1.5,1.1,3,1.5c0.3,0.1,0.3,0.1,0.6,0.2c0.8,0.3,1,0.3,2.1,0.3c1.1,0,1.7-0.2,2.4-0.9
		c0.8-0.8,1.2-1.7,1.2-2.9c0-1.6-0.8-2.9-2.2-3.9c-0.7-0.5-0.7-0.5-1-0.7L65.2,151.6z"/>
	<path style="fill:#FBEB00;" d="M100.1,162.3c0-0.4,0-0.8,0-1.1v-0.6c0-0.4,0-0.6,0-0.6c0-0.1,0-0.5-0.1-0.9c0-0.5,0-0.9,0-1.5
		c0-0.3,0-0.7,0-1.1v-0.8c0-0.3,0-0.3-0.2-2.2v-0.5c0-0.1,0-0.3,0-0.5c0.1-1,0.1-1.7,0.1-1.8c0-0.5,0-0.6,0-0.8v-0.5
		c0-0.5,0-0.8,0-1c0-0.5-0.2-0.8-0.5-0.8c-0.3,0-1.2,0.6-2.6,1.8c-0.1,0.1-0.4,0.1-0.6,0.1c-0.5,0-0.8-0.1-1.2-0.7
		c-0.1-0.2-0.8-1.1-0.9-1.2c-0.8-0.9-0.9-1.1-0.9-1.5c0-0.6,0.3-1,1.1-1.6c1.1-0.7,1.4-0.9,1.9-1.4c0.3-0.3,0.6-0.5,0.9-0.7
		c0.2-0.2,0.8-0.7,1.1-0.9c0.2-0.2,0.5-0.4,0.6-0.6c1.5-1.6,2.1-1.9,3.4-1.9c2.2,0,3.7,0.9,3.7,2.3c0,0.3,0,0.6-0.2,1.1
		c-0.3,1.3-0.5,2.4-0.5,2.9c0,0.1,0,0.8,0.1,1.8l0,1.1c0,1.7,0,1.8,0.1,2.8l-0.1,2.2c0,0.1,0,0.6,0.1,1.4v0.3v2.3l0,0.5
		c0.1,0.8,0.1,1.4,0.1,1.5c0,0,0,0.1,0,0.3c0,0.4,0,0.7,0,0.8l0,2v0.7c0,0.4,0,0.7,0,0.8c0,0.2,0,1,0.2,2c0,0.8,0.1,1.9,0.1,2.4
		c0,0.8-0.6,1.2-1.6,1.2c-0.2,0-0.2,0-1.3-0.1c0,0-0.3,0-0.6,0c-0.2,0-0.5,0-0.9,0c-1.4,0-1.8-0.5-1.8-2.2c0-0.6,0-0.6,0.3-4.1
		c0-0.4,0-0.7,0-0.8V162.3z"/>
	<path style="fill:#FBEB00;" d="M128.8,159.4c-0.3,2.7-1.3,5.1-3,7.4c-0.5,0.7-1.8,1.9-2.3,2.3c-0.8,0.5-2.5,0.9-4.1,0.9
		c-2.7,0-4.3-0.8-6.2-3.2c-1.1-1.4-1.3-1.7-1.5-2.3c-0.9-2.1-1-2.5-1.4-4.8l-0.1-0.8c-0.1-0.6-0.2-1-0.2-1.1l0.1-2c0,0,0-0.2,0-0.4
		c0-0.4-0.1-0.7-0.1-0.8c0.1-2.3,0.1-2.3,0.1-2.9c0-1.4,0.1-1.8,0.4-2.9c0.2-0.6,0.2-0.6,0.7-2.3c0.4-1.5,0.4-1.5,0.9-2.4l0.2-0.4
		l0.3-0.7c0.4-0.9,2.3-2.8,3.2-3.2c1.8-0.9,2.2-0.9,3.9-0.9c3.7,0,5.3,0.9,7.7,4.3c0.9,1.3,1.5,2.8,2,5.3c0.1,0.9,0.5,4,0.5,4.9
		c0,1.3-0.4,3.4-0.8,4.8L128.8,159.4z M122.1,162.8c0.1-0.1,0.3-0.4,0.5-0.7c0.3-0.5,0.3-0.5,0.5-1.4c0.6-3.1,0.9-4.5,0.9-5
		c0-0.1,0-0.9-0.1-2l0-0.8c0-1.3-0.3-4-0.5-4.7c-0.2-1-0.9-2.6-1.4-3c-0.4-0.4-0.6-0.5-0.9-0.6c-0.2-0.1-1.5-0.4-1.7-0.4
		c-1.4,0-3.2,2.1-3.5,4.1c-0.6,4.2-0.6,4.2-0.6,5.3c0,3.9,0.2,5.6,0.9,7.9c0.4,1.4,0.7,1.8,1.8,2.7c0.4,0.3,1.1,0.6,1.5,0.6
		c0.8,0,1.8-0.5,2.2-1.2L122.1,162.8z"/>
	<path style="fill:#FBEB00;" d="M150.8,159.4c-0.3,2.7-1.3,5.1-3,7.4c-0.5,0.7-1.8,1.9-2.3,2.3c-0.8,0.5-2.5,0.9-4.1,0.9
		c-2.7,0-4.3-0.8-6.2-3.2c-1.1-1.4-1.3-1.7-1.5-2.3c-0.9-2.1-1-2.5-1.4-4.8l-0.1-0.8c-0.1-0.6-0.2-1-0.2-1.1l0.1-2c0,0,0-0.2,0-0.4
		c0-0.4-0.1-0.7-0.1-0.8c0.1-2.3,0.1-2.3,0.1-2.9c0-1.4,0.1-1.8,0.4-2.9c0.2-0.6,0.2-0.6,0.7-2.3c0.4-1.5,0.4-1.5,0.9-2.4l0.2-0.4
		l0.3-0.7c0.4-0.9,2.3-2.8,3.2-3.2c1.8-0.9,2.2-0.9,3.9-0.9c3.7,0,5.3,0.9,7.7,4.3c0.9,1.3,1.5,2.8,2,5.3c0.1,0.9,0.5,4,0.5,4.9
		c0,1.3-0.4,3.4-0.8,4.8L150.8,159.4z M144.1,162.8c0.1-0.1,0.3-0.4,0.5-0.7c0.3-0.5,0.3-0.5,0.5-1.4c0.6-3.1,0.9-4.5,0.9-5
		c0-0.1,0-0.9-0.1-2l0-0.8c0-1.3-0.3-4-0.5-4.7c-0.2-1-0.9-2.6-1.4-3c-0.4-0.4-0.6-0.5-0.9-0.6c-0.2-0.1-1.5-0.4-1.7-0.4
		c-1.4,0-3.2,2.1-3.5,4.1c-0.6,4.2-0.6,4.2-0.6,5.3c0,3.9,0.2,5.6,0.9,7.9c0.4,1.4,0.7,1.8,1.8,2.7c0.4,0.3,1.1,0.6,1.5,0.6
		c0.8,0,1.8-0.5,2.2-1.2L144.1,162.8z"/>
	<path style="fill:#FBEB00;" d="M172.8,159.4c-0.3,2.7-1.3,5.1-3,7.4c-0.5,0.7-1.8,1.9-2.3,2.3c-0.8,0.5-2.5,0.9-4.1,0.9
		c-2.7,0-4.3-0.8-6.2-3.2c-1.1-1.4-1.3-1.7-1.5-2.3c-0.9-2.1-1-2.5-1.4-4.8l-0.1-0.8c-0.1-0.6-0.2-1-0.2-1.1l0.1-2c0,0,0-0.2,0-0.4
		c0-0.4-0.1-0.7-0.1-0.8c0.1-2.3,0.1-2.3,0.1-2.9c0-1.4,0.1-1.8,0.4-2.9c0.2-0.6,0.2-0.6,0.7-2.3c0.4-1.5,0.4-1.5,0.9-2.4l0.2-0.4
		l0.3-0.7c0.4-0.9,2.3-2.8,3.2-3.2c1.8-0.9,2.2-0.9,3.9-0.9c3.7,0,5.3,0.9,7.7,4.3c0.9,1.3,1.5,2.8,2,5.3c0.1,0.9,0.5,4,0.5,4.9
		c0,1.3-0.4,3.4-0.8,4.8L172.8,159.4z M166.1,162.8c0.1-0.1,0.3-0.4,0.5-0.7c0.3-0.5,0.3-0.5,0.5-1.4c0.6-3.1,0.9-4.5,0.9-5
		c0-0.1,0-0.9-0.1-2l0-0.8c0-1.3-0.3-4-0.5-4.7c-0.2-1-0.9-2.6-1.4-3c-0.4-0.4-0.6-0.5-0.9-0.6c-0.2-0.1-1.5-0.4-1.7-0.4
		c-1.4,0-3.2,2.1-3.5,4.1c-0.6,4.2-0.6,4.2-0.6,5.3c0,3.9,0.2,5.6,0.9,7.9c0.4,1.4,0.7,1.8,1.8,2.7c0.4,0.3,1.1,0.6,1.5,0.6
		c0.8,0,1.8-0.5,2.2-1.2L166.1,162.8z"/>
	<path style="fill:#FBEB00;" d="M197.9,169.5c-0.8,0-1.4,0-1.8,0c-1.5-0.1-2.6-0.2-2.7-0.2s-0.5,0.1-1.1,0.2c-0.5,0.1-1,0.1-1.4,0.1
		c-1.8,0-2.8-0.9-2.8-2.8c0-0.2,0-0.5,0.1-0.7c0.1-0.8,0.2-1.4,0.2-1.6c0,0,0-0.3-0.1-0.6c-0.1-0.5-0.1-1.3-0.1-2c0-1,0-1.2,0.2-2.7
		c0-0.3,0.1-0.7,0.1-1.2s0-0.5-0.1-2.5c0-0.6,0-1.2,0-1.6c0-0.3,0-0.6,0-0.9l0-1.5c0-0.4-0.1-1.8-0.2-3V148c0-0.3,0-0.3,0.1-2.7
		v-0.5c0-0.4,0-0.5-0.1-0.9c0-0.6,0-0.6-0.1-1.2c0-0.2,0-0.8-0.1-1.7c0-0.9,1-1.7,2.1-1.7c0.3,0,0.7,0,1.2,0c0.3,0,0.5,0,0.8,0
		c0.3,0,0.3,0,1.6-0.1h0.7c0.5,0,0.9,0,1.4,0.1c0.5,0,0.8,0.1,0.9,0.1l1.4,0c1.4,0.1,1.4,0.1,2,0.1l1.8,0c0.6,0,1-0.1,1.3-0.1
		c1,0,1.7,0.6,1.7,1.5c0,0.2,0,0.5-0.1,0.7c0,0.3-0.1,0.5-0.1,0.6c0,0,0,0.5,0.1,1.1c0,0.2,0,0.3,0,0.5c0,0.9-0.2,1.3-0.7,1.3
		c-0.3,0-0.7,0-1.2-0.2l-0.9-0.1c-0.9,0-1.1,0-1.2,0l-0.8-0.1h-0.9l-0.4,0l-2.8,0c-0.5,0-1.2,0.2-1.4,0.5c-0.3,0.3-0.6,1.3-0.6,1.9
		c0,0.5,0.3,1.7,0.5,1.9c0.2,0.3,1,0.5,1.5,0.5l1.3,0c0.8,0.1,0.8,0.1,1.3,0.2l0.7,0c0.2,0,0.4,0,0.5,0c0.2,0,0.2,0,1.1-0.1
		c0.5,0,1.3,0.1,2.2,0.2c0.6,0,1.2,0.6,1.2,1.1c0,0,0,0.3-0.1,0.6c0,0.2,0,0.4,0,0.7c0,0.4,0,0.8,0.1,1.2c0,0.3,0,0.5,0,0.7
		c0,0.7-0.7,1.2-1.5,1.2c-0.1,0-0.8-0.1-1.9-0.4c-0.3-0.1-0.6-0.1-0.7-0.1c0,0-0.4,0-0.8,0.1c-0.1,0-0.2,0-0.3,0
		c-0.2,0-0.2,0-0.8-0.1l-1,0c0,0-0.2,0-0.5,0c-0.2,0-0.5,0-0.7,0c-0.7,0-1.2,0.2-1.6,0.6s-0.4,0.4-0.4,2.3l0,1c0,0.3,0,0.5,0,0.7
		c0,0.9,0.2,2.4,0.4,3.1c0.2,0.9,1,1.5,2,1.6c0.7,0.1,2.9,0.1,4.5,0.1c0.6,0,0.6,0,2-0.4c0.2,0,0.5-0.1,0.7-0.1
		c0.7,0,1.3,0.5,1.3,1.1c0,0.2,0,0.5-0.1,0.8c-0.1,0.3-0.1,0.6-0.1,0.8c0,0.2,0,0.2,0.2,1.3c0,0.2,0.1,0.5,0.1,0.7
		c0,0.9-0.6,1.3-1.8,1.3c-0.5,0-0.5,0-2.7-0.1c-0.3,0-0.5,0-0.9,0c-0.2,0-0.2,0-1.1,0H197.9z"/>
	<path style="fill:#FBEB00;" d="M217.1,169.9c-1.3,0-2.6-0.3-4-0.9c-2-0.9-2.5-1.4-3.6-3.6c-0.6-1.1-0.7-1.9-0.7-4.6l0-0.7
		c-0.1-0.8-0.1-1.4-0.1-1.7c0-0.1,0-0.5,0-0.8c0.1-1,0.1-1,0.1-2.1c0-0.4,0-0.4,0.1-2c-0.2-1.6-0.2-1.6-0.2-1.8l0-1.4l0-1.9
		c0.1-1.8,0.1-1.8,0.1-3.2c0-0.9,0-0.9-0.2-2.1c0-0.5,0-0.5-0.2-1.4c0-0.4-0.1-0.6-0.1-0.8c0-1,0.6-1.9,1.4-1.9c0.5,0,0.5,0,1.5,0.2
		c0.1,0,0.3,0,0.4,0c0.2,0,0.4,0,0.6-0.1c0.4,0,0.8-0.1,1-0.1c0.8,0,1.1,0.3,1.4,1c0.2,0.5,0.3,0.9,0.3,1.2c0,0.4,0,0.4-0.4,1.9
		c-0.1,0.3-0.1,0.6-0.1,0.8c0,0,0,0.4,0.1,0.9c0,0.2,0,0.5,0,0.9c0,0.5,0,0.5-0.1,1.3l0.2,1.9c-0.1,1-0.1,1-0.1,1.7l0.2,4.7
		c-0.1,1.1-0.1,1.1-0.1,2c0,0.4,0,0.4,0,0.8l-0.2,2.3c0.2,2.5,0.2,2.5,0.5,3c0.6,0.8,2.1,1.4,3.4,1.4c1.4,0,2.7-0.7,3.3-1.8
		c0.2-0.5,0.2-0.5,0.4-1.5c0.1-0.9,0.1-1.3,0.1-1.4c0,0,0-0.2,0-0.4c-0.1-0.9-0.2-1.6-0.2-2.3c0-0.3,0-0.6,0.1-1c0-0.2,0-0.3,0-0.3
		c-0.2-2.4-0.2-2.4-0.2-2.6v-0.7c0-0.7,0.1-1.3,0.1-1.3c0-0.2,0-1.1-0.1-1.7c0-0.6-0.1-1.1-0.1-1.4c0-0.5,0-1,0.1-1.6
		c0.1-0.8,0.1-0.9,0.1-1.3c0-0.5,0-0.8-0.2-1.7c-0.1-0.9-0.2-1.7-0.2-1.9c0-1.8,0.6-2.8,1.8-2.8c0.5,0,0.5,0,1.2,0.2
		c0.2,0,0.4,0,0.5,0c0.2,0,0.4,0,0.6,0c1.8-0.4,2.3,0.1,2.3,1.7c0,0.3-0.1,1.5-0.2,2c0,0.3-0.1,0.5-0.1,0.5c0.1,2.2,0.1,2.2-0.1,3.8
		v0.2c0,0.1,0,0.3,0,0.4c0.1,0.5,0.1,0.8,0.1,0.8c0,0,0,0.4-0.1,0.9v0.9l0.1,0.7c0,0.5-0.1,1.1-0.1,2c0,0.4,0,1.1,0,2
		c0,0.3,0,0.5,0,0.7c0,0.1,0,0.3,0,0.6v0.5l0,2.3c-0.3,4.8-0.5,5.7-1.8,7.4c-1.3,1.8-4.4,3.2-6.8,3.2L217.1,169.9z"/>
	<path style="fill:#FBEB00;" d="M253.1,168.8c0,0.4-0.5,0.9-1,1.2c-0.4,0.2-0.4,0.2-1.6,0.2c-1.4,0-1.7,0-2.3-0.2
		c-1.7-0.5-1.9-0.7-4.9-3.2c-1.3-1.1-2-1.9-3-3.1c-0.4-0.5-0.9-0.7-1.4-0.7c-0.5,0-0.6,0.1-0.7,0.7c-0.1,0.4-0.1,0.8-0.1,1.1
		c0,0.3,0,0.3,0.3,1.6c0.1,0.7,0.2,1.4,0.2,1.8c0,0.9-0.4,1.3-1.1,1.3H237c-0.3,0-0.5,0-0.5,0l-3,0.1c-0.8,0-1.4-0.6-1.4-1.6
		c0-0.5,0-1.1,0.2-1.7c0.2-1,0.2-1.2,0.2-1.7c0-0.3,0-0.5,0-0.8c-0.1-0.4-0.1-0.6-0.1-0.6l0.1-1.6c0,0,0-0.1,0-0.3
		c0-0.3,0-0.8,0-1.9c0-0.3,0-0.3,0.1-2.1c-0.1-1.2-0.1-1.2-0.1-1.8c0-1.4,0-1.4,0.1-2.4c0-0.5,0.1-1.1,0.1-2.2c0-0.3,0-0.6,0-0.8
		l0-0.8l0.1-0.9l-0.1-1.5c0-0.9,0-0.9,0-1.1c0-0.7-0.1-1.4-0.2-2.2c-0.2-1-0.2-1.2-0.2-1.5c0-2.2,0.8-3.2,2.6-3.2
		c0.5,0,0.5,0,1.9,0.2c0.1,0,0.3,0,0.6,0h0.5c0.5,0,0.7,0,0.7,0l1.6,0.1c2.2-0.2,2.2-0.2,2.6-0.2c2.6,0,3.6,0.4,6.2,2.1
		c1.6,1.1,1.6,1.1,3.6,3.9c0.8,1.2,0.9,1.8,0.9,3.8v0.5l0.2,1.8l-0.2,0.6c-0.1,0.2-0.2,0.6-0.3,1c-0.2,1.2-0.3,1.3-0.7,2.3l-0.6,1.2
		c-0.5,0.9-0.6,1.1-1,1.4c-1.8,1.6-2.6,2.1-3.7,2.6c-0.7,0.2-0.9,0.4-0.9,0.6c0,0.3,0,0.3,0.7,0.9l1.2,1.1c0.7,0.7,2,1.1,3.6,1.2
		c0.7,0,1,0.1,1.3,0.4c0.4,0.3,0.6,0.8,0.6,1.1c0,0.1,0,0.5-0.2,1l0,0.5V168.8z M241,144.6l-0.8,0c-0.8,0-1.7,0.9-1.9,1.6
		c0,0.2-0.1,2.3-0.1,3c0,0.2,0,0.2,0.1,2.9l0,0.3c-0.1,0.6-0.1,1.2-0.1,1.7c0,1.1,0.1,2.3,0.3,2.5c0.2,0.4,1.2,0.7,2.3,0.7
		c0.7,0,1-0.1,2.3-0.7l0.9-0.3c0.9-0.3,0.9-0.3,1.6-1.4c0.1-0.1,0.4-0.6,1-1.4c0.4-0.5,0.8-1.3,0.9-1.6c0.2-1.5,0.2-1.6,0.2-1.6
		c0-0.3-0.5-2-0.7-2.5c-0.7-1.4-2.5-2.8-4.1-3.1l-0.8-0.1c-0.2-0.1-0.4-0.1-0.5-0.1L241,144.6z"/>
	<path style="fill:#FBEB00;" d="M285.9,155.2v0.9l-0.3,1.7c-0.1,0.7-0.3,1.3-0.5,1.8c0,1.2-1.1,3.2-2.4,5c-0.4,0.5-0.8,1-1.1,1.5
		c-0.5,0.7-0.5,0.7-2.2,1.8c-1.7,1.1-1.7,1.1-2.9,1.4c-1.3,0.3-3.6,0.6-4.7,0.6c-4.1,0-5.5-0.3-8.6-1.6c-1.8-0.7-4.6-3.1-5.1-4.3
		c-0.2-0.5-0.5-1-0.8-1.6c-0.4-0.6-1.1-3-1.4-4.2c-0.1-0.9-0.4-3.7-0.4-4.8c0-1.9,0.6-4.6,1.4-6.2c1.5-3.2,3.2-5.2,5.3-6.5
		c1.5-0.9,2-1.1,3.1-1.4c0.2,0,0.5-0.2,1-0.3c2-0.6,2-0.6,3.3-0.6c2,0,3.7,0.1,4.6,0.4c3.1,0.8,4.9,1.6,6.4,2.9c0,0,0.6,0.7,1.5,1.9
		c0.7,0.9,2.2,3.3,2.6,4.4c0.5,1.2,0.8,1.9,0.8,2.1c0.3,1.4,0.5,2.7,0.5,3.4c0,0.3,0,0.6-0.1,1L285.9,155.2z M279.4,151.8l-0.1-1.1
		l-0.2-0.5c-0.1-0.4-0.3-0.7-0.4-1c-0.2-0.5-0.7-1.4-1.4-2.4c-0.9-1.1-2-1.9-3.3-2.3c-0.2,0-0.5-0.1-0.8-0.3
		c-0.7-0.3-1.6-0.5-2.5-0.5c-1.8,0-4.2,0.9-5.8,2c-0.6,0.5-0.8,0.6-2.1,2.9c-0.1,0.2-0.9,2.4-1,2.8c0,0.1-0.1,1.3-0.3,3.4
		c0.4,3.3,0.4,3.3,0.9,5.1c0.3,0.9,1.8,2.8,3,3.7c1.3,1,2.8,1.4,5.1,1.4c2.2,0,2.7-0.1,4.1-0.9c2.2-1.3,2.2-1.3,3.2-2.6
		c0.5-0.8,0.6-0.8,0.9-1.7c0-0.3,0-0.3,0.3-0.8c0.4-1.1,0.9-3.4,0.9-4.3c0-0.5,0-1-0.1-1.6L279.4,151.8z"/>
	<path style="fill:#FBEB00;" d="M291.6,151.6c-0.9-0.8-0.9-0.8-1.5-2.2c-0.6-1.5-0.9-2.3-0.9-2.8l0-0.9l0-1c0-0.3,0.2-0.9,0.7-2.4
		c0.3-0.9,0.7-1.3,2.1-2.3c1-0.7,1-0.7,2.3-1c1.2-0.3,1.9-0.4,3.8-0.4c0.6,0,0.7,0,1.7,0.1l1.5,0c0.5,0,1.9,0.5,2.9,0.9
		c0.8,0.4,1.4,1.1,1.4,1.7c0,0.3,0,0.3-0.6,1.3c-0.1,0.2-0.2,0.5-0.4,1.6c-0.1,1-0.5,1.5-1.3,1.5c-0.5,0-0.5,0-1.8-0.9
		c-0.9-0.6-2.4-1.2-3.2-1.2c-1.4,0-1.6,0-2.1,0.2c-0.8,0.4-1.2,0.9-1.2,1.9c0,0.9,0.5,1.6,1.9,2.6c2.8,1.9,5.3,3.9,6.5,5.2
		c1.6,1.7,2.3,2.6,2.8,4.1c0.5,1.2,0.7,1.9,0.7,2.6c0,2.8,0,3.1-0.8,4.9c-0.6,1.5-0.6,1.5-1.8,2.7c-1.3,1.2-1.9,1.5-3.7,2
		c-0.7,0.2-0.9,0.2-1.6,0.2c-2,0-2.3,0-2.3,0c-0.7-0.1-1.2-0.2-1.7-0.2c-0.9-0.1-2.5-0.3-3-0.5c-0.2-0.1-0.6-0.2-1.1-0.3
		c-0.6-0.1-1.9-0.5-2.1-0.7c-0.4-0.3-0.6-0.9-0.6-2c0-0.3,0.1-0.8,0.4-1.3l0.2-0.5l0.1-1.1c0.1-1,0.6-1.7,1.2-1.7
		c0.4,0,0.8,0.2,1.7,0.9c1.4,1,1.5,1.1,3,1.5c0.3,0.1,0.3,0.1,0.6,0.2c0.8,0.3,1,0.3,2.1,0.3c1.1,0,1.7-0.2,2.4-0.9
		c0.8-0.8,1.2-1.7,1.2-2.9c0-1.6-0.8-2.9-2.2-3.9c-0.7-0.5-0.7-0.5-1-0.7L291.6,151.6z"/>
</g>
<g>
	<path style="fill:#FFFFFF;" d="M42,46.6c0-0.8,0-1.5-0.1-2.1l-0.3-2.3v-3.2c0-0.6-0.7-2.3-1-2.6c-0.3-0.2-1-0.4-1.8-0.4
		c-1.2,0-2.7,0.2-3.9,0.6c-1.2,0.3-2,0.5-2.3,0.5c-0.5,0-3-0.7-3.3-0.9c-0.5-0.3-1.3-1.8-1.3-2.4l0.1-3.1c0-0.1-0.1-0.6-0.2-1.4
		c-0.1-0.4-0.1-0.7-0.1-1.1c0-2.3,2.5-4.3,5.4-4.3c0.6,0,1.4,0,2.3,0.1c2.8,0.3,4.2,0.4,5.2,0.4c0.5,0,0.5,0,2.3-0.2l2.3,0.2
		c2.5-0.4,2.5-0.4,6.6-0.7c2.2,0.1,4.2,2,4.2,3.9c0,0.5-0.2,1.7-0.6,3.2c-0.1,0.7-0.2,1.2-0.2,1.6s0.1,1.4,0.2,2.6
		c0.1,0.5,0.1,0.9,0.1,1.3s-0.3,3.9-0.4,5.5c0.3,2.6,0.3,4,0.1,6.9l0.2,1.3l-0.3,2.3c0,0.1,0.1,0.5,0.2,1l0.1,1.3l0.2,1.7l0.6,2
		c0.2,0.5,0.3,1.3,0.3,2.2c0,4.9-2.1,7-6.8,7c-0.9,0-2-0.1-3-0.2c-1.3-0.2-2.3-0.3-2.9-0.3c-0.7,0-0.7,0-5,1.1
		c-0.7,0.1-1.7,0.2-3,0.2c-10.3,0-20.4-4.4-26.2-11.3C6.4,53,4.3,49.6,3.1,46.6C1.3,41.9,0,35.8,0,32.3c0-1.3,0.1-2.8,0.4-4.5
		l0.2-1.7c0.6-4.7,0.9-5.6,3.7-10.9c2.7-5,3-5.4,7.8-8.4c6.5-4.1,7.5-4.6,11.5-5.6C27.4,0.4,30.6,0,35.2,0c2.7,0,7,0.7,10.7,1.8
		c0.6,0.1,0.6,0.1,2,0.5c2.6,0.6,4.7,2.5,4.7,4.4c0,1.5-0.4,2.5-1.4,3.8c-0.8,0.9-0.8,0.9-1.1,1.6c-1,2.7-1.6,3.2-3.6,3.2
		c-1.2,0-2.1-0.3-4-1.4c-3.2-1.8-6-2.4-10.1-2.4c-2.6,0-7.1,0.8-8.6,1.6c-3,1.5-7.2,5.5-8.4,7.8c-1.7,3.2-2.4,6.8-2.4,10.7
		c0,2.9,0.7,7.3,1.6,10c1.1,3.4,1.6,4.1,5,7.5c3.5,3.4,4.1,3.9,6.6,4.8c4.3,1.8,7.2,2.5,9,2.5c1.5,0,4.4-0.3,5-0.5
		c1.3-0.5,2.3-2.1,2.3-3.6c0-0.3-0.1-0.9-0.2-1.5C42,50.1,42,49.6,42,49.2V46.6z"/>
	<path style="fill:#FFFFFF;" d="M94.9,55.2c-0.9,0.1-1.6,0.2-1.6,0.2c-0.1,0-0.5,0-1.1-0.1h-1c-0.9,0-0.9,0-4,0.4
		c-0.9,0.1-1.6,0.1-2.2,0.1c-0.8,0-1.8-0.1-2.8-0.3c-0.8-0.1-1.5-0.2-1.9-0.2c-3.1,0-5.4,2.6-5.5,6.2c0,3,0,3-0.7,4.1
		c-0.8,1.1-1.6,1.6-2.8,1.6c-0.7,0-1.6-0.1-2.5-0.2l-2-0.1c-0.5,0-1.4,0-2.8,0.1h-1c-2.1,0-3.2-1-3.2-2.5c0-1,0.5-2.3,1.5-4.2
		c0.7-1.2,1.1-2.1,1.2-2.3l0.5-2.1c0.2-0.6,0.5-1.3,0.9-2.1c0.8-1.6,1.4-3.1,1.9-4.8c0.4-1.9,0.8-3.6,1.2-5.4
		c0.2-0.6,0.5-1.4,1.4-3.6c0.7-1.8,1.4-3.8,2.1-6.3c0.4-1.3,0.8-2.3,1.2-3.1l1.3-2.9c0.6-1.8,1-2.8,2-6.2c0.2-0.7,0.4-1.4,0.6-2.2
		c0.2-0.7,0.1-0.3,0.4-1l0.5-1.4l0.5-1.7c0.5-2.1,0.7-2.5,2-5.8c0.7-2,1.2-3.3,1.2-3.5c1.3-4.2,1.9-4.8,5.3-4.8c0.4,0,0.9,0,1.4,0.1
		L88,1.4l3.6-0.1c0.4,0,1.7,0.9,2.3,1.6c0.5,0.5,0.9,1.5,1.4,3.2c0.2,0.5,0.5,1.3,0.9,2.5l1.2,2.8l2.1,4.5c0.8,1.7,1.2,3,1.6,5.1
		c0.3,1.6,0.3,1.8,1.2,3.8c0.4,0.5,0.6,1.2,0.8,2l0.6,2.4l0.8,2.1c0.3,1.1,0.6,2.1,0.8,2.9l0.4,1.7c0.2,0.7,0.6,1.4,1,2.3
		c0.5,1,0.3,0.5,0.7,1.5l1.1,2.9l0.4,2.1l0.5,1.2c0.2,0.5,0.4,1,0.5,1.5l0.7,2.9l0.5,1.3l1,2.3c0.3,0.8,0.6,1.6,0.8,2.3
		c0.3,1,0.6,1.8,1,2.3l1.3,2.2c0.8,1.5,1.3,3.1,1.3,4.4c0,1.5-0.7,2.3-2.2,2.3l-2-0.1c-1.3-0.2-2.3-0.3-2.8-0.3
		c-0.4,0-1.4,0.1-2.5,0.2c-0.9,0.1-1.7,0.2-2.3,0.2c-2.5,0-3.4-1.5-3.6-5.9c0-2.2-0.3-2.9-1.9-5c-0.6-0.9-1.4-1.2-2.8-1.2H94.9z
		 M85.8,27.5c-0.9,2.4-1.1,2.8-1.6,4.6c-0.8,2.7-1,3.4-1.7,4.9c-0.7,1.6-0.7,1.6-1.9,5.6c0,0.8,1.5,1.8,2.6,1.8l3.1-0.1
		c0.1,0,0.5,0,1.1,0.1h1.2c0.7,0,1.2,0,1.6-0.1l0.7-0.1h2c0.6,0,1.5-1.1,1.5-1.8c0-0.5,0-0.5-1-2.5l-0.6-2.1l-0.4-1.9l-1-3.2l-0.5-2
		l-0.3-1.1c-0.3-1.7-0.7-2.8-0.9-3.5c-0.9-2.1-1.1-2.3-1-2.6c-0.1-0.5-0.4-1.7-0.8-3.3c-0.1-0.1-0.2-0.3-0.3-0.3L85.8,27.5z"/>
	<path style="fill:#FFFFFF;" d="M164.2,67.1c-1,0.1-2.2,0.1-3.2,0.1c-2.1,0-3-0.4-4.3-2c-0.9-1.2-0.9-1.2-3.2-6.8
		c-1.6-3.3-1.9-3.9-4.5-7.5c-1-1.4-2.7-4.4-3.9-6.7l-0.6-1.3c-0.7-1.1-1.4-2.1-2.2-3.1c-0.4-0.5-0.2-0.2-0.6-0.9
		c-0.5-0.8-1.5-2.6-2.7-5.5l-1.4-2.1l-0.8-0.9c-0.5-0.8-1-1.4-1.5-1.9c-0.2-0.4-0.5-0.6-0.6-0.6c-0.3,0-0.6,0.5-0.5,1.1
		c0.2,2,0.3,4,0.3,5.5c0,0.2,0,0.5-0.1,0.8c-0.1,1-0.2,1.6-0.2,1.7c0,0.1,0.2,1.1,0.4,2.3c0.1,0.3,0.1,0.6,0.1,0.7l-0.4,4.4l0.5,4.5
		c0,0,0,0.3-0.1,0.8c-0.1,0.8-0.1,0.9-0.3,4.8c0,2.3,0.1,3.7,0.8,8.9v0.7c0,1.6-1.1,2.7-2.6,2.7c-0.3,0-0.9,0-1.5-0.1
		c-0.4-0.1-0.8-0.1-1.1-0.1c-0.3,0-0.3,0-2.5,0.2c-0.4,0.1-0.6,0.1-0.8,0.1c-2.2,0-2.7-0.2-3.6-0.9c-1.3-1.1-1.8-2.3-1.8-4.2
		c0-1.2,0.2-2.5,0.5-4c0.3-1.1,0.4-2,0.4-2.3c0-0.1-0.1-0.8-0.2-1.8c-0.1-1-0.3-4.9-0.3-6.4c0-0.6,0-0.6,0.3-2.3
		c-0.1-3-0.3-7.1-0.3-7.7c0-0.7,0-0.7,0.2-3l-0.3-10.1c0.1-1.2,0.3-3.2,0.6-6.2l-0.3-2.8c0.2-2.3,0.2-2.3,0.2-2.4
		c0-1-0.5-3.1-1.2-5.3c-0.5-1.3-0.7-2.3-0.7-3c0-1.8,1.6-3.5,3.2-3.5c0.3,0,0.7,0,1.1,0.1c1.9,0.2,3.2,0.3,3.4,0.3
		c0.2,0,0.9-0.1,1.8-0.2c0.5-0.1,1-0.1,1.4-0.1c1.4,0,3.6,1.1,4.5,2.3c1.2,1.5,2,3,3.3,6.3l0.7,1.3l1,1.5l0.6,1.3l0.2,0.6
		c0.6,1.8,0.6,1.8,2.1,3.5c0.9,1.1,1.6,2.2,2.2,3.1l2.6,5.3l0.6,1.4l1.6,1.7c0.3,0.5,0.6,0.9,0.8,1.3c0.9,1.8,1.1,2.1,2.1,3.5
		c0.3,0.4,0.3,0.4,1.2,2.1c1,1.8,1.9,3,2.2,3s0.5-0.5,0.5-1.4l-0.5-7.6v-1.7c0.1-1.8,0.1-4.1,0.1-5.4c0-1.8,0-2.3-0.1-5.5v-2.4v-1.8
		c0.1-1.1,0.1-1.8,0.1-2.1c0-0.9,0-0.9-0.6-3.8c-0.1-0.7-0.2-1.4-0.2-2c0-2.7,1.3-4,4.3-4.1l2.9-0.3c0.7-0.1,1.4-0.1,2.1-0.1
		c2.5,0,4.1,2.1,4.1,5.6c0,1,0,1-0.6,8.9c-0.1,0.9-0.1,1.6-0.1,1.8c0,0.4,0.1,1.4,0.3,2.7c0.3,2,0.4,3.8,0.4,5.6
		c0,1.4-0.2,5-0.3,6.2c-0.1,1.5-0.2,2.4-0.2,2.5c0,0.1,0.1,1.8,0.3,4.2c0.1,0.6,0.1,1.2,0.1,1.9c0,0.6,0,1.4-0.1,2.1
		c-0.2,2.6-0.3,4.5-0.3,5c0,0.3,0,0.9,0.1,1.6c0.2,1.6,0.3,2.6,0.3,3.1c0,0.2,0,0.8-0.1,1.5v2.4c0,1.8,0,2,0.5,4.7
		c0.2,1,0.3,1.9,0.3,2.7c0,2.6-1,3.5-3.5,3.5h-0.4H164.2z"/>
	<path style="fill:#FFFFFF;" d="M209,55.2c-0.9,0.1-1.6,0.2-1.6,0.2c-0.1,0-0.5,0-1.1-0.1h-1c-0.9,0-0.9,0-4,0.4
		c-0.9,0.1-1.6,0.1-2.2,0.1c-0.8,0-1.8-0.1-2.8-0.3c-0.8-0.1-1.5-0.2-1.9-0.2c-3.1,0-5.4,2.6-5.5,6.2c0,3,0,3-0.7,4.1
		c-0.8,1.1-1.6,1.6-2.8,1.6c-0.7,0-1.6-0.1-2.5-0.2l-2-0.1c-0.5,0-1.4,0-2.8,0.1h-1c-2.1,0-3.2-1-3.2-2.5c0-1,0.5-2.3,1.5-4.2
		c0.7-1.2,1.1-2.1,1.2-2.3l0.5-2.1c0.2-0.6,0.5-1.3,0.9-2.1c0.8-1.6,1.4-3.1,1.9-4.8c0.4-1.9,0.8-3.6,1.2-5.4
		c0.2-0.6,0.5-1.4,1.4-3.6c0.7-1.8,1.4-3.8,2.1-6.3c0.4-1.3,0.8-2.3,1.2-3.1l1.3-2.9c0.6-1.8,1-2.8,2-6.2c0.2-0.7,0.4-1.4,0.6-2.2
		c0.2-0.7,0.1-0.3,0.4-1l0.5-1.4l0.5-1.7c0.5-2.1,0.7-2.5,2-5.8c0.7-2,1.2-3.3,1.2-3.5c1.3-4.2,1.9-4.8,5.3-4.8c0.4,0,0.9,0,1.4,0.1
		l1.5,0.1l3.6-0.1c0.4,0,1.7,0.9,2.3,1.6c0.5,0.5,0.9,1.5,1.4,3.2c0.2,0.5,0.5,1.3,0.9,2.5l1.2,2.8l2.1,4.5c0.8,1.7,1.2,3,1.6,5.1
		c0.3,1.6,0.3,1.8,1.2,3.8c0.4,0.5,0.6,1.2,0.8,2l0.6,2.4l0.8,2.1c0.3,1.1,0.6,2.1,0.8,2.9l0.4,1.7c0.2,0.7,0.6,1.4,1,2.3
		c0.5,1,0.3,0.5,0.7,1.5l1.1,2.9l0.4,2.1l0.5,1.2c0.2,0.5,0.4,1,0.5,1.5l0.7,2.9l0.5,1.3l1,2.3c0.3,0.8,0.6,1.6,0.8,2.3
		c0.3,1,0.6,1.8,1,2.3l1.3,2.2c0.8,1.5,1.3,3.1,1.3,4.4c0,1.5-0.7,2.3-2.2,2.3l-2-0.1c-1.3-0.2-2.3-0.3-2.8-0.3
		c-0.4,0-1.4,0.1-2.5,0.2c-0.9,0.1-1.7,0.2-2.3,0.2c-2.5,0-3.4-1.5-3.6-5.9c0-2.2-0.3-2.9-1.9-5c-0.6-0.9-1.4-1.2-2.8-1.2H209z
		 M199.9,27.5c-0.9,2.4-1.1,2.8-1.6,4.6c-0.8,2.7-1,3.4-1.7,4.9c-0.7,1.6-0.7,1.6-1.9,5.6c0,0.8,1.5,1.8,2.6,1.8l3.1-0.1
		c0.1,0,0.5,0,1.1,0.1h1.2c0.7,0,1.2,0,1.6-0.1l0.7-0.1h2c0.6,0,1.5-1.1,1.5-1.8c0-0.5,0-0.5-1-2.5l-0.6-2.1l-0.4-1.9l-1-3.2l-0.5-2
		l-0.3-1.1c-0.3-1.7-0.7-2.8-0.9-3.5c-0.9-2.1-1.1-2.3-1-2.6c-0.1-0.5-0.4-1.7-0.8-3.3c-0.1-0.1-0.2-0.3-0.3-0.3L199.9,27.5z"/>
	<path style="fill:#FFFFFF;" d="M252.6,30.6c0,0.4,0,1-0.1,1.6l-0.1,2.3c0,0.8,0.1,1.7,0.2,2.6c0.3,1.7,0.5,3,0.5,3.7l-0.1,1.4
		c-0.3,1.8-0.4,2.8-0.4,3.5c0,3.8,0.2,9.8,0.4,11c0.4,2.6,0.6,4.5,0.6,5.8c0,3.1-1,4.7-3.1,4.7c-0.4,0-0.8,0-1.3-0.1
		c-0.9-0.1-1.6-0.1-1.7-0.1c-3.2,0.2-3.2,0.2-3.8,0.2c-3.5,0-4.5-1.4-4.5-6.4c0-0.9,0.1-2,0.3-3.1c0.3-2.3,0.4-2.8,0.4-3.9l0.3-4.1
		c0-0.4,0-0.4-0.3-6.4l-0.1-4.4c0-2.2,0.1-4.6,0.4-7.2c0.1-0.6,0.1-0.9,0.1-1c-0.2-3.1-0.5-6.6-0.7-10.1l0.1-3.3
		c0-2.6-1.6-4.3-4.2-4.3c-0.9,0-0.9,0-3.2,0.6c-0.8,0.2-1.6,0.3-2.4,0.3c-2.5,0-4.1-1.6-4.1-4.2c0-0.4,0-0.8,0.1-1.3l0.1-1V3.8
		c0-1.7,2-2.6,5.3-2.6c0.9,0,1.8,0.1,3.3,0.3c1.1,0.1,1.9,0.2,2.3,0.2c0.4,0,1,0,1.6-0.1c1.7-0.2,2.9-0.3,3.4-0.3
		c0.5,0,1.5,0.1,2.8,0.2c1.3,0.1,2.3,0.2,3.1,0.2c1,0,2.3-0.1,3.7-0.3c1.4-0.1,2.4-0.2,2.9-0.2c0.6,0,1.6,0.1,2.8,0.2
		c1,0.1,1.7,0.2,2.3,0.2c0.6,0,1.5-0.1,2.5-0.2c0.8-0.1,1.4-0.2,2-0.2c0.7,0,1.4,0.4,2.1,1.2c1,1.1,1.1,1.3,1.1,3.4l0.3,1.8
		c0.2,1.3,0.3,2.3,0.3,2.9c0,1.7-2.1,3.9-3.5,3.7c-2.8-0.4-4.5-0.6-4.9-0.7c-1-0.2-2-0.3-2.9-0.3c-2.7,0-4.1,1.2-4.1,3.5
		c0,0.6,0,1.2,0.1,1.9c0.2,1.1,0.3,1.9,0.3,2.1c0,1.3-0.1,5.4-0.2,7.2L252.6,30.6z"/>
	<path style="fill:#FFFFFF;" d="M294.1,66.9c-1.7,0-3.1,0-3.8-0.1c-3.3-0.2-5.7-0.4-5.8-0.4c-0.1,0-1.1,0.2-2.4,0.4
		c-1.1,0.2-2.2,0.3-3.1,0.3c-3.9,0-6-2.1-6-6c0-0.5,0.1-1,0.2-1.6c0.3-1.8,0.5-3.1,0.5-3.5c0-0.1-0.1-0.6-0.2-1.3
		c-0.2-1.2-0.3-2.8-0.3-4.3c0-2.3,0-2.5,0.5-5.9c0.1-0.7,0.2-1.6,0.2-2.6s0-1.1-0.2-5.5c-0.1-1.4-0.1-2.5-0.1-3.5
		c0-0.7,0-1.4,0.1-2.1l0.1-3.2c0-0.8-0.2-4-0.4-6.5v-1c0-0.7,0-0.7,0.3-5.9v-1.2c0-0.8,0-1-0.2-2.1c-0.1-1.3-0.1-1.3-0.2-2.6
		c0-0.5-0.1-1.7-0.3-3.7c0-2,2.2-3.6,4.5-3.6c0.6,0,1.5,0,2.5,0.1c0.6,0.1,1.2,0.1,1.7,0.1c0.6,0,0.6,0,3.5-0.2h1.6
		c1.1,0,2.1,0.1,3,0.2c1.1,0.1,1.8,0.2,1.9,0.2l3.1-0.1c3.1,0.3,3.1,0.3,4.3,0.3l3.9-0.1c1.3-0.1,2.3-0.2,2.8-0.2
		c2.2,0,3.6,1.4,3.6,3.3c0,0.5-0.1,1-0.2,1.6c-0.1,0.7-0.2,1.2-0.2,1.3c0,0.1,0.1,1.1,0.3,2.3c0.1,0.4,0.1,0.7,0.1,1
		c0,2-0.5,2.8-1.5,2.8c-0.6,0-1.5-0.1-2.6-0.4l-2-0.3c-2.1,0-2.3,0-2.6-0.1l-1.7-0.2h-2l-0.9-0.1l-6.1-0.1c-1.2,0-2.5,0.4-3,1
		c-0.7,0.7-1.4,2.8-1.4,4.1c0,1.2,0.6,3.6,1,4.1c0.5,0.6,2.2,1.2,3.3,1.2l2.8-0.1c1.8,0.3,1.8,0.3,2.8,0.4l1.6,0.1
		c0.5,0.1,0.9,0.1,1.1,0.1c0.4,0,0.4,0,2.4-0.2c1.2,0.1,2.7,0.3,4.7,0.5c1.4,0.1,2.6,1.3,2.6,2.3c0,0.1-0.1,0.6-0.3,1.3
		c-0.1,0.5-0.1,0.9-0.1,1.5c0,0.8,0.1,1.7,0.3,2.6c0.1,0.6,0.1,1.1,0.1,1.6c0,1.5-1.5,2.6-3.2,2.6c-0.2,0-1.7-0.3-4.2-0.9
		c-0.7-0.2-1.3-0.3-1.5-0.3c-0.1,0-0.8,0.1-1.8,0.2c-0.3,0.1-0.5,0.1-0.7,0.1c-0.4,0-0.4,0-1.8-0.2l-2.2,0.1c-0.1,0-0.5,0-1-0.1
		s-1-0.1-1.6-0.1c-1.5,0-2.6,0.5-3.5,1.4c-0.9,0.9-0.9,0.9-0.9,5.1l-0.1,2.3c-0.1,0.6-0.1,1.1-0.1,1.6c0,2,0.4,5.2,0.8,6.8
		c0.5,1.9,2.2,3.2,4.3,3.4c1.5,0.2,6.3,0.3,9.8,0.3c1.3,0,1.4,0,4.3-0.8c0.5-0.1,1.1-0.2,1.6-0.2c1.6,0,2.8,1.1,2.8,2.4
		c0,0.5-0.1,1.1-0.2,1.8c-0.2,0.7-0.3,1.3-0.3,1.7c0,0.4,0,0.4,0.5,2.7c0.1,0.5,0.2,1,0.2,1.5c0,2-1.3,2.8-4,2.8
		c-1.1,0-1.1,0-5.9-0.3c-0.6-0.1-1.1-0.1-2-0.1c-0.5,0-0.5,0-2.4,0.1H294.1z"/>
</g>
<g>
	<path style="fill:#FFFFFF;" d="M22.5,131.2c-2.5,0-5-0.6-7.8-1.8c-3.9-1.8-4.9-2.8-7-7c-1.1-2.2-1.3-3.7-1.3-9L6.2,112
		c-0.2-1.5-0.3-2.6-0.3-3.3c0-0.3,0-0.9,0.1-1.6c0.2-1.9,0.2-2,0.2-4.1c0-0.7,0-0.7,0.3-3.9c-0.4-3.1-0.4-3.1-0.4-3.5l0.1-2.8
		l-0.1-3.6c0.3-3.4,0.3-3.4,0.3-6.3c0-1.8,0-1.8-0.4-4.1c-0.1-1-0.1-1-0.4-2.7c-0.1-0.7-0.2-1.2-0.2-1.6c0-2,1.1-3.6,2.6-3.6
		c0.9,0,0.9,0,3,0.4c0.3,0.1,0.5,0.1,0.7,0.1c0.4,0,0.8-0.1,1.2-0.2c0.8-0.1,1.5-0.2,2-0.2c1.5,0,2.2,0.5,2.7,2
		c0.4,1,0.5,1.8,0.5,2.3c0,0.7,0,0.7-0.8,3.7c-0.2,0.6-0.3,1.1-0.3,1.5c0,0.1,0.1,0.8,0.2,1.7c0.1,0.4,0.1,1.1,0.1,1.8
		c0,1,0,1.1-0.2,2.6l0.4,3.8c-0.3,2-0.3,2-0.3,3.3l0.4,9.2c-0.3,2.2-0.3,2.2-0.3,3.9c0,0.8,0,0.8,0.1,1.5l-0.4,4.4
		c0.4,4.9,0.4,4.9,1.1,5.8c1.1,1.6,4.1,2.8,6.7,2.8c2.8,0,5.2-1.3,6.4-3.6c0.4-0.9,0.4-0.9,0.7-3c0.2-1.7,0.3-2.6,0.3-2.7
		c0-0.1,0-0.4-0.1-0.7c-0.3-1.7-0.4-3.2-0.4-4.4c0-0.6,0.1-1.2,0.2-1.9c0.1-0.4,0.1-0.6,0.1-0.6c-0.4-4.7-0.4-4.7-0.4-5.1v-1.3
		c0.1-1.4,0.2-2.6,0.2-2.6c0-0.4-0.1-2.1-0.2-3.3c-0.1-1.2-0.2-2.2-0.2-2.7c0-0.9,0.1-1.9,0.3-3.2c0.3-1.5,0.3-1.8,0.3-2.5
		c0-1.1-0.1-1.6-0.4-3.3c-0.3-1.8-0.4-3.3-0.4-3.8c0-3.6,1.1-5.4,3.4-5.4c0.9,0,0.9,0,2.3,0.4c0.4,0.1,0.7,0.1,1.1,0.1
		s0.7,0,1.1-0.1c3.4-0.7,4.6,0.2,4.6,3.3c0,0.6-0.2,2.9-0.4,3.9c-0.1,0.5-0.2,1-0.2,1c0.3,4.3,0.3,4.3-0.3,7.4v0.4
		c0,0.2,0,0.5,0.1,0.8c0.2,0.9,0.3,1.5,0.3,1.6c0,0-0.1,0.8-0.2,1.8v1.7l0.2,1.4c-0.1,1-0.3,2.2-0.3,3.9c-0.1,0.7,0,2.1,0.1,3.9
		c0.1,0.6,0.1,1.1,0.1,1.4c0,0.2,0,0.6-0.1,1.2v1.1l0.1,4.4c-0.6,9.3-1.1,11.2-3.4,14.4c-2.6,3.4-8.6,6.3-13.3,6.3L22.5,131.2z"/>
	<path style="fill:#FFFFFF;" d="M91.2,130.5c-0.9,0.1-1.9,0.1-2.9,0.1c-1.8,0-2.7-0.4-3.9-1.8c-0.8-1.1-0.8-1.1-2.9-6.1
		c-1.4-3-1.7-3.5-4.1-6.8c-0.9-1.2-2.5-4-3.5-6l-0.5-1.1c-0.6-1-1.2-1.8-1.9-2.8c-0.4-0.4-0.2-0.2-0.5-0.8c-0.4-0.7-1.3-2.4-2.5-4.9
		l-1.2-1.8l-0.7-0.8c-0.4-0.7-0.9-1.2-1.3-1.7c-0.2-0.4-0.4-0.5-0.5-0.5c-0.3,0-0.5,0.4-0.4,1c0.2,1.8,0.3,3.6,0.3,4.9
		c0,0.2,0,0.4-0.1,0.7c-0.1,0.9-0.2,1.4-0.2,1.5c0,0.1,0.2,1,0.4,2.1c0.1,0.3,0.1,0.5,0.1,0.6l-0.4,4l0.4,4.1c0,0,0,0.3-0.1,0.7
		c-0.1,0.7-0.1,0.8-0.3,4.3c0,2,0.1,3.3,0.7,8v0.6c0,1.4-1,2.5-2.4,2.5c-0.3,0-0.8,0-1.3-0.1c-0.4-0.1-0.7-0.1-1-0.1s-0.3,0-2.3,0.2
		c-0.4,0.1-0.5,0.1-0.7,0.1c-1.9,0-2.5-0.2-3.3-0.8c-1.1-1-1.6-2.1-1.6-3.8c0-1.1,0.2-2.3,0.4-3.6c0.3-1,0.4-1.8,0.4-2.1
		c0-0.1-0.1-0.7-0.2-1.6c-0.1-0.9-0.3-4.4-0.3-5.7c0-0.5,0-0.5,0.3-2c-0.1-2.7-0.3-6.4-0.3-7c0-0.6,0-0.6,0.2-2.7l-0.3-9.1
		c0.1-1.1,0.3-2.9,0.5-5.5L53.2,84c0.2-2,0.2-2,0.2-2.2c0-0.9-0.4-2.8-1.1-4.8c-0.4-1.1-0.6-2.1-0.6-2.7c0-1.6,1.4-3.2,2.9-3.2
		c0.3,0,0.6,0,1,0.1c1.7,0.2,2.9,0.3,3.1,0.3c0.2,0,0.8-0.1,1.6-0.2c0.4-0.1,0.9-0.1,1.2-0.1c1.2,0,3.3,1,4.1,2
		c1.1,1.3,1.8,2.7,3,5.6l0.6,1.1l0.9,1.3l0.5,1.1l0.2,0.5c0.5,1.6,0.5,1.6,1.8,3.2c0.8,1,1.4,1.9,1.9,2.8l2.4,4.8l0.5,1.2l1.4,1.5
		c0.3,0.4,0.5,0.8,0.7,1.1c0.8,1.6,1,1.8,1.8,3.2c0.3,0.4,0.3,0.4,1.1,1.8c0.9,1.6,1.7,2.7,1.9,2.7s0.4-0.4,0.4-1.2l-0.4-6.9v-1.5
		c0.1-1.6,0.1-3.7,0.1-4.8c0-1.6,0-2-0.1-4.9v-2.2v-1.6c0.1-1,0.1-1.6,0.1-1.8c0-0.8,0-0.8-0.5-3.4c-0.1-0.6-0.2-1.2-0.2-1.8
		c0-2.5,1.1-3.6,3.9-3.7l2.6-0.3c0.6-0.1,1.2-0.1,1.8-0.1c2.3,0,3.7,1.8,3.7,5c0,0.9,0,0.9-0.5,8c-0.1,0.8-0.1,1.4-0.1,1.6
		c0,0.4,0.1,1.2,0.3,2.5c0.3,1.8,0.4,3.4,0.4,5c0,1.2-0.2,4.5-0.3,5.5c-0.1,1.3-0.2,2.2-0.2,2.3c0,0.1,0.1,1.6,0.3,3.8
		c0.1,0.5,0.1,1.1,0.1,1.7c0,0.5,0,1.2-0.1,1.8c-0.2,2.4-0.3,4.1-0.3,4.5c0,0.3,0,0.8,0.1,1.4c0.2,1.4,0.3,2.4,0.3,2.8
		c0,0.2,0,0.7-0.1,1.3v2.2c0,1.6,0,1.8,0.4,4.2c0.2,0.9,0.3,1.7,0.3,2.5c0,2.4-0.9,3.2-3.2,3.2h-0.4H91.2z"/>
	<path style="fill:#FFFFFF;" d="M140,98.6c0.4,1.4,0.4,1.6,0.4,1.9c0.1,0.6,0.3,1.5,0.5,2.7c0.2,0.7,0.4,1.8,0.5,3.1
		c0.3,1.1,0.5,2.3,0.7,3.3c0.2,0.5,0.3,1.3,0.5,2.4c0.3-2.3,1.4-8.1,1.7-8.9l0.2-0.6l0.2-1.6l0.6-4.1c0.8-3.8,1-4.7,1.1-7.7
		c0.4-2.5,0.9-5.1,1.4-7.9l0.4-4c0.4-4.1,1.5-6.1,3.4-6.1c0.4,0,0.9,0.1,1.4,0.2c0.5,0.1,0.9,0.1,1.2,0.1c0.4,0,0.4,0,2.5-0.2
		c0.4-0.1,0.9-0.1,1.3-0.1c2.3,0,3.7,1.1,3.7,2.8c0,1.5-0.5,3.8-1.5,6.6c-0.7,2.3-0.8,2.6-1.7,7c-0.4,1.8-0.4,2-0.8,3.1l-0.4,2.4
		c-0.4,2.4-0.4,2.4-1.7,8.4c-1,4.1-1.1,4.8-1.4,7.7c-0.6,3.3-1.1,6.3-1.9,10.1c-0.5,2.4-0.8,3.8-0.8,4.5l-0.1,2.6
		c-0.2,2.4-2,4.2-4.4,4.2c-1.7,0-2.3-0.1-4.7-0.5l-5.2,0.4c-0.4-0.1-2-1.3-2.5-2c-0.4-0.6-0.4-0.6-1.1-5.9c-0.6-4-1.1-6.4-1.8-8.6
		l-0.4-1.8l-0.3-1.7c-0.5-1.8-1.1-3.8-1.8-6.1c-0.4-1.4-0.5-2.1-0.8-4.1c-0.6-3.8-1.1-5.9-1.3-6.9c-0.2-0.7-0.4-1.4-0.7-2.2
		c-0.4-1.2-1-4-1.3-5.5c-0.4-2.3-0.5-2.5-1.1-4.1c-1.8-4.7-2.4-6.8-2.4-7.7c0-1.6,1.4-2.8,3.1-2.8c0.4,0,0.9,0,1.4,0.1
		c0.9,0.1,1.7,0.1,2,0.1c0.5,0,1.1,0,1.7-0.1c0.9-0.1,1.6-0.2,2.1-0.2c2.1,0,3.5,2.2,3.6,5.9l0.2,1.2c0.5,2.2,1,4.4,1.3,6.8
		c0.1,0.5,0.4,1.3,0.6,2.4c0.2,1.1,0.7,3.4,1.4,6.8l0.3,1.1l0.2,1.7L140,98.6z"/>
	<path style="fill:#FFFFFF;" d="M170,130.4c-2.3,0-3.4-1.3-3.4-4.1c0-1.2,0-1.2,0.5-4.3c0.1-0.3,0.1-0.5,0.1-0.9v-0.8
		c-0.3-2-0.4-3.5-0.4-3.8v-0.6l0.2-2.9c0-1.2,0-1.2,0.3-4.2l-0.4-8.3l0.4-7.6c-0.2-3.3-0.2-3.3-0.4-7c0-0.2,0.1-0.8,0.2-1.6
		s0.2-1.4,0.2-2c0-0.4,0-0.4-0.1-1.1c-0.1-0.4-0.4-2.3-0.7-5.8c0-2.7,1.3-4.3,3.7-4.3c0.5,0,1,0,1.3,0.1c0.7,0.1,1.1,0.2,1.1,0.2
		l3.3-0.3c0.2,0,1.4,0.7,1.8,1c0.7,0.6,1.1,1.5,1.1,2.5c0,0.6-0.1,1.3-0.2,2c-0.1,0.8-0.1,0.8-0.2,1.7c0,0.3-0.1,0.9-0.2,1.9
		l0.2,2.2l-0.2,1.8l0.1,1.6l-0.1,1.7l0.3,3.2c0,0.1,0,0.4-0.1,1c-0.1,0.4-0.1,0.8-0.1,1.2c0,1.3,0,3.4,0.1,3.9
		c0.1,0.7,0.1,1.2,0.1,1.2c0,0.4-0.1,1.1-0.3,1.9c-0.1,0.4-0.1,0.5-0.1,0.6l0.2,2.3c-0.3,2.3-0.3,2.3-0.3,2.6c0,0.4,0,0.4,0.5,3.1
		l-0.1,0.5l-0.1,1.3c0,1.1,0,1.1-0.1,2.1c0.3,2.1,0.5,4.4,0.5,5.1c0,0.1-0.1,0.5-0.2,1.1c-0.1,0.6-0.1,1.1-0.1,1.6
		c0,1,0.4,4.4,0.6,5.9c0.1,0.6,0.2,1.1,0.2,1.6c0,1.8-1.2,2.8-3.3,2.8c-0.4,0-0.4,0-2.3-0.2c-0.3-0.1-0.7-0.1-1.1-0.1
		c-0.2,0-0.6,0-1.2,0.1H170z"/>
	<path style="fill:#FFFFFF;" d="M215.4,119.8c-0.8,0.1-1.4,0.2-1.4,0.2c-0.1,0-0.4,0-1-0.1h-0.9c-0.8,0-0.8,0-3.6,0.4
		c-0.8,0.1-1.4,0.1-1.9,0.1c-0.7,0-1.6-0.1-2.6-0.3c-0.7-0.1-1.3-0.2-1.7-0.2c-2.8,0-4.8,2.4-4.9,5.5c0,2.7,0,2.7-0.6,3.7
		c-0.7,1-1.4,1.4-2.6,1.4c-0.6,0-1.4-0.1-2.3-0.2l-1.8-0.1c-0.4,0-1.2,0-2.6,0.1h-0.9c-1.8,0-2.9-0.9-2.9-2.3c0-0.9,0.4-2.1,1.3-3.8
		c0.6-1.1,1-1.8,1.1-2.1l0.4-1.8c0.2-0.5,0.4-1.1,0.8-1.8c0.7-1.4,1.2-2.8,1.7-4.3c0.4-1.7,0.7-3.3,1.1-4.8c0.2-0.5,0.4-1.2,1.2-3.3
		c0.6-1.6,1.2-3.4,1.8-5.6c0.4-1.1,0.7-2.1,1.1-2.8l1.1-2.6c0.5-1.6,0.9-2.6,1.8-5.5c0.2-0.6,0.4-1.2,0.5-1.9
		c0.2-0.6,0.1-0.3,0.4-0.9l0.4-1.2l0.4-1.5c0.4-1.8,0.6-2.3,1.8-5.2c0.6-1.8,1.1-3,1.1-3.2c1.1-3.8,1.7-4.3,4.8-4.3
		c0.4,0,0.8,0,1.2,0.1l1.3,0.1l3.3-0.1c0.4,0,1.5,0.8,2.1,1.4c0.4,0.4,0.8,1.3,1.2,2.9c0.2,0.4,0.4,1.1,0.8,2.3l1.1,2.6l1.8,4.1
		c0.7,1.5,1.1,2.7,1.4,4.6c0.3,1.4,0.3,1.6,1.1,3.4c0.4,0.4,0.5,1.1,0.7,1.8l0.5,2.2l0.7,1.8c0.3,1,0.5,1.8,0.7,2.6l0.4,1.5
		c0.2,0.6,0.5,1.2,0.9,2.1c0.4,0.9,0.3,0.4,0.6,1.3l1,2.6l0.4,1.8l0.4,1.1c0.2,0.4,0.4,0.9,0.4,1.3l0.6,2.6l0.4,1.1l0.9,2
		c0.3,0.7,0.5,1.4,0.7,2c0.3,0.9,0.5,1.6,0.9,2.1l1.1,1.9c0.7,1.3,1.1,2.8,1.1,4c0,1.3-0.6,2-1.9,2l-1.8-0.1c-1.1-0.2-2-0.3-2.6-0.3
		c-0.4,0-1.2,0.1-2.3,0.2c-0.8,0.1-1.5,0.2-2.1,0.2c-2.3,0-3.1-1.3-3.3-5.3c0-1.9-0.3-2.6-1.7-4.5c-0.5-0.8-1.2-1.1-2.6-1.1H215.4z
		 M207.2,94.9c-0.8,2.2-1,2.6-1.4,4.1c-0.7,2.5-0.9,3.1-1.5,4.4c-0.6,1.4-0.6,1.4-1.7,5c0,0.7,1.3,1.6,2.4,1.6l2.8-0.1
		c0.1,0,0.4,0,1,0.1h1.1c0.6,0,1.1,0,1.4-0.1l0.6-0.1h1.8c0.5,0,1.3-1,1.3-1.6c0-0.4,0-0.4-0.9-2.3l-0.5-1.8l-0.4-1.7l-0.9-2.9
		l-0.4-1.8l-0.3-1c-0.3-1.5-0.6-2.6-0.8-3.2c-0.8-1.8-1-2.1-0.9-2.4c-0.1-0.4-0.4-1.5-0.7-3c-0.1-0.1-0.2-0.3-0.3-0.3L207.2,94.9z"
		/>
	<path style="fill:#FFFFFF;" d="M254.1,109.3c0.1-0.6,0.2-1,0.2-1l-0.3-2.9c0,0,0-0.3,0.1-0.6c0.1-0.6,0.2-1.2,0.2-2
		c0-1-0.1-1.8-0.2-2.6c-0.1-0.5-0.1-0.9-0.1-1l0.1-2.3l-0.2-1.3l0.4-3.7l-0.1-0.9l-0.2-1.6v-3.6c0-2.8-0.9-4.3-2.6-4.3
		c-2.7,0-5.1,0.2-6.2,0.4c-1,0.2-1.3,0.3-1.9,0.3c-2.8,0-4.6-1.3-4.6-3.5c0-0.4,0-0.4,0.4-2.1c0.1-0.4,0.1-0.6,0.1-1.1V75
		c-0.1-0.9-0.2-1.4-0.2-1.7c0-1.2,1.6-2.1,3.9-2.1c0.8,0,2.1,0.2,2.8,0.4c0.4,0.1,0.8,0.2,0.8,0.2c2.9-0.4,2.9-0.4,3.2-0.4
		c0.3,0,0.5,0,0.8,0.1l1.5,0.1c0.2,0,0.9-0.1,1.8-0.2c0.4-0.1,1-0.1,1.4-0.1h1.1c1.1,0.1,2,0.2,2.1,0.2l1.9-0.1
		c0.5-0.1,1-0.1,1.4-0.1c2.6,0,4.4,1.8,4.4,4.5c0,0.8-0.3,2.6-0.4,3.3c-0.4,1.5-0.4,1.6-0.4,1.8c0,0.4,0,0.8,0.1,1.2
		c0.1,0.8,0.1,1.5,0.1,1.9c0,0.2,0,0.8-0.1,1.8v1.8c0,2.1,0,2.4,0.3,5.3c-0.2,2.6-0.2,2.6-0.2,3c0,0.4,0,0.9,0.1,1.4
		c0.1,1.1,0.2,1.8,0.2,2.1c0,0.4-0.1,1-0.2,1.8c-0.1,1.1-0.2,1.8-0.2,2.6c0,0.6,0,0.6,0.3,3.6c0.1,0.4,0.1,0.8,0.1,1.3
		c0,4.9-0.4,7.6-1.3,10.8c-0.4,1.3-0.4,1.3-1.6,2.8c-1.2,1.7-1.9,2.6-2,2.6c-0.5,0.4-1.1,1.1-2,1.9c-2.6,2.7-7.7,4.7-12,4.7
		c-2.4,0-6.7-0.7-8.6-1.5c-2.5-0.9-3.5-1.9-3.5-3.7c0-0.5,0-0.5,0.5-2.8l0.1-1.8c0-2.2,1.1-3.4,3-3.4c0.9,0,1,0,5,1.8
		c1,0.4,2.8,0.7,4.7,0.7c2.5,0,4.4-1.5,5.5-4.4c0.2-0.5,0.3-1.2,0.4-4.8L254.1,109.3z"/>
	<path style="fill:#FFFFFF;" d="M293.2,130.4c-1.5,0-2.8,0-3.4-0.1c-3-0.2-5.1-0.4-5.2-0.4s-1,0.2-2.2,0.4c-1,0.2-1.9,0.3-2.8,0.3
		c-3.5,0-5.4-1.8-5.4-5.4c0-0.4,0.1-0.9,0.2-1.4c0.3-1.6,0.4-2.8,0.4-3.2c0-0.1-0.1-0.5-0.2-1.1c-0.2-1.1-0.3-2.6-0.3-3.9
		c0-2,0-2.3,0.4-5.3c0.1-0.6,0.2-1.4,0.2-2.4c0-1,0-1-0.2-4.9c-0.1-1.2-0.1-2.3-0.1-3.2c0-0.6,0-1.2,0.1-1.8l0.1-2.9
		c0-0.7-0.2-3.6-0.4-5.8v-0.9c0-0.6,0-0.6,0.3-5.3V82c0-0.7,0-0.9-0.2-1.8c-0.1-1.1-0.1-1.1-0.2-2.4c0-0.4-0.1-1.5-0.3-3.3
		c0-1.8,1.9-3.3,4.1-3.3c0.5,0,1.3,0,2.3,0.1c0.5,0.1,1.1,0.1,1.5,0.1c0.5,0,0.5,0,3.2-0.2h1.4c1,0,1.8,0.1,2.7,0.2
		c1,0.1,1.6,0.2,1.7,0.2l2.8-0.1c2.8,0.3,2.8,0.3,3.9,0.3l3.5-0.1c1.1-0.1,2-0.2,2.6-0.2c1.9,0,3.3,1.2,3.3,3c0,0.4-0.1,0.9-0.2,1.4
		c-0.1,0.6-0.2,1.1-0.2,1.1c0,0.1,0.1,1,0.3,2.1c0.1,0.4,0.1,0.6,0.1,0.9c0,1.8-0.4,2.6-1.3,2.6c-0.5,0-1.3-0.1-2.4-0.4l-1.8-0.3
		c-1.8,0-2.1,0-2.4-0.1l-1.5-0.2h-1.8l-0.8-0.1l-5.5-0.1c-1.1,0-2.3,0.4-2.7,0.9c-0.6,0.6-1.2,2.6-1.2,3.7c0,1.1,0.5,3.3,0.9,3.7
		c0.4,0.5,1.9,1.1,3,1.1l2.6-0.1c1.6,0.3,1.6,0.3,2.6,0.4l1.4,0.1c0.4,0.1,0.8,0.1,1,0.1c0.4,0,0.4,0,2.2-0.2
		c1.1,0.1,2.5,0.3,4.2,0.4c1.2,0.1,2.4,1.1,2.4,2.1c0,0.1-0.1,0.5-0.3,1.1c-0.1,0.4-0.1,0.8-0.1,1.3c0,0.7,0.1,1.5,0.3,2.4
		c0.1,0.5,0.1,1,0.1,1.4c0,1.3-1.3,2.4-2.9,2.4c-0.2,0-1.5-0.3-3.8-0.8c-0.6-0.2-1.1-0.3-1.3-0.3c-0.1,0-0.7,0.1-1.6,0.2
		c-0.3,0.1-0.4,0.1-0.6,0.1c-0.4,0-0.4,0-1.6-0.2l-1.9,0.1c-0.1,0-0.4,0-0.9-0.1c-0.4-0.1-0.9-0.1-1.4-0.1c-1.3,0-2.4,0.4-3.2,1.2
		c-0.8,0.8-0.8,0.8-0.8,4.6l-0.1,2c-0.1,0.5-0.1,1-0.1,1.4c0,1.8,0.4,4.7,0.7,6.1c0.4,1.7,1.9,2.9,3.9,3.1c1.3,0.2,5.6,0.3,8.8,0.3
		c1.1,0,1.2,0,3.9-0.7c0.4-0.1,1-0.2,1.4-0.2c1.4,0,2.6,1,2.6,2.2c0,0.4-0.1,1-0.2,1.6c-0.2,0.6-0.3,1.1-0.3,1.5
		c0,0.4,0,0.4,0.4,2.5c0.1,0.4,0.2,0.9,0.2,1.3c0,1.8-1.1,2.6-3.6,2.6c-1,0-1,0-5.3-0.3c-0.5-0.1-1-0.1-1.8-0.1
		c-0.4,0-0.4,0-2.2,0.1H293.2z"/>
</g>
</svg>
