<?xml version="1.0" encoding="utf-8"?>
<!-- Generator: Adobe Illustrator 16.0.0, SVG Export Plug-In . SVG Version: 6.00 Build 0)  -->
<!DOCTYPE svg PUBLIC "-//W3C//DTD SVG 1.1//EN" "http://www.w3.org/Graphics/SVG/1.1/DTD/svg11.dtd">
<svg version="1.1" id="Layer_1" xmlns="http://www.w3.org/2000/svg" xmlns:xlink="http://www.w3.org/1999/xlink" x="0px" y="0px"
	 width="313.4px" height="77px" viewBox="0 0 313.4 77" style="enable-background:new 0 0 313.4 77;" xml:space="preserve">
<path style="fill:#ba0a13;" d="M260.6,76.1c-6.6,0-11.8-1.3-15.5-3.9c0,0,0,0,0,0c-1.9,2.9-4.6,3.6-6,3.8c-0.2,0-0.5,0-0.8,0
	c-1.5,0-3.8-0.4-5.9-2.5c0,0,0,0-0.1,0l0,0c-0.2,0.1-0.4,0.2-0.5,0.3c-3.3,1.4-6.6,2.2-9.9,2.2c-2.1,0-3.6-0.3-4.4-0.5
	c-2.1-0.5-4.1-1.3-5.9-2.4c-1.4,1.4-3.3,2.2-5.3,2.2l-18.4,0c-2,0-3.8-0.7-5.2-2.1c-1.4,1.3-3.3,2.1-5.2,2.1h-14.3l-0.2,0
	c-2.4-0.1-4.8-0.9-6.9-2.5c-1.5,1.6-3.5,2.6-5.7,2.6l-17.2,0l-17.4,0c-1.9,0-3.8-0.7-5.2-2c-1.4,1.3-3.2,2.1-5.1,2.1l-10.3,0
	c-0.8,0-1.5-0.1-2.2-0.3c-0.7,0.2-1.5,0.3-2.2,0.3l-16.7,0c-2.4,0-4.7-1.1-6.1-3c-1-1.3-1.6-3-1.6-4.7c0-0.7,0.1-1.4,0.3-2l0.9-3.5
	c0.6-2.3,2.3-4.2,4.5-5.1l2.6-9.2c-2.3-0.1-4.5-1.2-5.9-3.1c-1-1.3-1.6-3-1.6-4.7c0-0.7,0.1-1.4,0.3-2l3.3-11.9
	c0.6-2.4,2.2-7.9,7.8-7.9l30.7,0c2.1,0,4.1,0.9,5.5,2.4c1.4-1.5,3.4-2.3,5.5-2.4l11.3,0c2.1,0,4.1,0.8,5.5,2.3
	c0.5,0.5,0.9,1,1.2,1.7c1.3-2.4,3.9-4,6.7-4c1.9,0,8.5,0,13.8,0c4,0,6.4,0,7.1,0c7.3,0.3,12.8,4.7,15.1,11.8l4.1-7.8
	c1.3-2.5,4-4.1,6.8-4.1l11.1,0c2,0,4,0.8,5.5,2.3c1.4,1.4,2.2,3.4,2.2,5.4l0,1.2c3.7-4.5,8.2-7.6,13.4-9c1.8-0.5,4-0.8,6.3-0.8
	c1.8,0,5.2,0.2,7.8,1.4c1.3-0.6,2.6-0.9,3.9-0.9c1,0,1.9,0.2,2.9,0.5c0.8,0.3,1.5,0.7,2.2,1.3c0.6-0.4,1.2-0.7,1.9-0.9l0.1-0.4
	c1-3.2,4-5.4,7.3-5.4l10.3,0c2.1,0,4.2,0.9,5.7,2.5c1.5-1.6,3.5-2.5,5.7-2.5l8,0c1.1,0,2.2,0.2,3.2,0.7c1-0.5,2.1-0.7,3.2-0.7
	l10.2,0c2.4,0,4.7,1.1,6.1,3c1.1,1.4,1.6,3.2,1.6,5c0.1,0.1,0.2,0.2,0.3,0.4c1,1.3,1.6,3,1.6,4.7c0,0.7-0.1,1.4-0.3,2l-0.9,3.3
	c-0.6,2.3-2.3,4.2-4.5,5.1c0,0-5.2,18.6-6.5,23.4c0.9,1.3,1.4,2.9,1.4,4.4c0,0.6-0.1,1.3-0.3,1.9l-0.4,1.7c-1.3,5-3.9,7.5-7.7,7.5
	l-16.9,0c-1.7,0-3.4-0.6-4.8-1.7c-3.1,1.6-6.7,2.4-10.8,2.4H260.6z"/>
<path style="fill:#FFFFFF;" d="M256.6,13.8L256.6,13.8l10.3,0c2.1,0,4.1,1,5.4,2.7c0.1,0.1,0.2,0.3,0.3,0.4c1.2-1.9,3.3-3.1,5.7-3.1
	l8,0c1.1,0,2.2,0.3,3.2,0.8c1-0.5,2.1-0.8,3.2-0.8l10.2,0c2.1,0,4.1,1,5.4,2.6c1,1.4,1.5,3.1,1.4,4.7c0.2,0.2,0.4,0.4,0.5,0.6
	c0.9,1.2,1.4,2.7,1.4,4.1c0,0.6-0.1,1.2-0.2,1.8l-0.9,3.3c-0.6,2.2-2.3,3.9-4.4,4.6c-1.3,4.8-5.1,18.4-6.8,24.2c0,0,0.1,0.1,0.1,0.1
	c0.9,1.2,1.4,2.7,1.4,4.1c0,0.6-0.1,1.1-0.2,1.7l-0.4,1.7c-0.5,1.7-1.8,6.8-6.8,6.8c-0.1,0-0.2,0-0.2,0c-0.1,0-16.7,0-16.7,0
	c-1.7,0-3.4-0.7-4.7-1.9c-2.8,1.6-6.4,2.6-10.9,2.6h-0.2c-6.9,0-12.2-1.5-15.8-4.3c-0.1,0.3-0.3,0.6-0.5,0.9
	c-1.7,2.6-4.1,3.2-5.3,3.4c-0.2,0-0.5,0-0.7,0c-1.4,0-3.4-0.4-5.3-2.3c-0.1-0.1-0.2-0.2-0.4-0.2c-0.1,0-0.3,0-0.6,0.2l0.2-0.1
	c-0.2,0.1-0.5,0.3-0.7,0.3c-3.8,1.6-7.1,2.1-9.5,2.1c-2,0-3.5-0.3-4.1-0.5c-2.3-0.6-4.4-1.5-6.3-2.7c-1.3,1.5-3.1,2.5-5.2,2.5
	l-18.4,0c-2,0-4-0.9-5.2-2.5c-1.3,1.5-3.1,2.5-5.2,2.5h-14.2c0,0-0.1,0-0.2,0c-2.6-0.1-5-1.2-7.1-2.9c-1.2,1.8-3.3,2.9-5.6,2.9
	c0,0-17.1,0-17.2,0l-17.4,0c-2,0-3.9-0.9-5.2-2.5c-1.3,1.5-3.1,2.5-5.1,2.5h0l-10.3,0c-0.8,0-1.5-0.1-2.2-0.4
	c-0.7,0.3-1.4,0.4-2.2,0.4l-16.7,0c-2.1,0-4.1-1-5.4-2.7c-0.9-1.2-1.4-2.6-1.4-4.1c0-0.6,0.1-1.2,0.2-1.8l0.9-3.5
	c0.6-2.2,2.3-3.9,4.4-4.6c0.6-2,1.5-5.5,3-10.8c-0.5,0-1,0-1,0c-2.1,0-4.1-1-5.4-2.7C68.5,43,68,41.6,68,40.1c0-0.6,0.1-1.2,0.2-1.8
	l3.3-11.9c0.7-2.4,2-7.2,6.9-7.2c0.1,0,0.2,0,0.2,0h30.4c2.1,0,4.1,1,5.4,2.7c0,0.1,0.1,0.1,0.1,0.2c1.3-1.8,3.3-2.9,5.5-2.9l11.3,0
	c1.8,0,3.6,0.7,4.9,2.1c1,1.1,1.6,2.5,1.8,3.9c0.1-0.4,0.2-0.9,0.2-0.9c0.8-3,3.5-5.1,6.5-5.1c1.9,0,8.5,0,13.8,0c3.4,0,6.3,0,7.1,0
	c6.2,0.3,12.9,4,14.9,13.4c2.1-3.8,5.2-9.8,5.2-9.8c1.2-2.2,3.5-3.6,6-3.6l11.1,0c1.8,0,3.5,0.7,4.8,2c1.3,1.3,2,3,2,4.8
	c0,0,0,1.5,0,4c3.5-5,8.3-9.1,14.6-10.9c1.7-0.5,3.9-0.7,6.1-0.7c2.9,0,5.9,0.5,7.9,1.5c1.2-0.7,2.6-1,3.9-1c0.9,0,1.7,0.2,2.5,0.5
	c0.9,0.4,1.8,0.9,2.5,1.6c0.8-0.6,1.7-1.1,2.6-1.4l0.3-0.9C251.1,15.7,253.7,13.8,256.6,13.8 M256.6,12c-3.8,0-7.1,2.4-8.2,6
	c-0.4,0.1-0.7,0.3-1.1,0.5c-0.6-0.4-1.2-0.8-1.9-1c-1-0.4-2.1-0.6-3.2-0.6c-1.3,0-2.6,0.3-3.9,0.8c-2.7-1.1-6-1.3-7.8-1.3
	c-2.4,0-4.7,0.3-6.6,0.8c-4.7,1.3-8.8,3.8-12.4,7.6c-0.3-1.9-1.1-3.6-2.4-4.9c-1.6-1.6-3.8-2.5-6.1-2.5l-11.1,0
	c-3.2,0-6.1,1.8-7.6,4.6l-3.2,6c-3.2-7.3-9.7-10.3-15.2-10.5c-0.7,0-3.1,0-7.2,0c-5.3,0-11.9,0-13.8,0c-2.7,0-5.1,1.2-6.7,3.2
	c-0.2-0.2-0.4-0.4-0.5-0.6c-1.7-1.7-3.9-2.6-6.2-2.6l-11.3,0c-2,0-4,0.7-5.5,2c-1.5-1.3-3.5-2-5.5-2H78.7c0,0-0.1,0-0.2,0
	c-6.4,0-8.1,6.2-8.7,8.6l-3.3,11.9c-0.2,0.7-0.3,1.5-0.3,2.3c0,1.9,0.6,3.7,1.8,5.2c1.3,1.8,3.3,2.9,5.5,3.3l-1.6,5.8l-0.5,1.9
	c-2.3,1.1-3.9,3.1-4.6,5.5l-0.9,3.5c-0.2,0.7-0.3,1.5-0.3,2.3c0,1.9,0.6,3.7,1.8,5.2c1.6,2.1,4.2,3.4,6.9,3.4l16.7,0
	c0.8,0,1.5-0.1,2.2-0.3c0.7,0.2,1.5,0.3,2.2,0.3l10.3,0c1.9,0,3.7-0.6,5.2-1.8c1.5,1.1,3.3,1.8,5.2,1.8l17.4,0c0,0,17.2,0,17.2,0
	c2.2,0,4.2-0.8,5.8-2.3c2.1,1.4,4.4,2.2,6.7,2.3c0.1,0,0.2,0,0.3,0h14.2c1.9,0,3.7-0.6,5.2-1.8c1.5,1.2,3.3,1.8,5.2,1.8l18.4,0
	c2,0,3.9-0.7,5.5-2c1.7,0.9,3.6,1.7,5.5,2.2c0.8,0.2,2.4,0.5,4.6,0.5c3.4,0,6.9-0.8,10.3-2.2c0,0,0.1,0,0.1,0c2.2,1.9,4.5,2.3,6,2.3
	c0.3,0,0.7,0,0.9,0c1.2-0.1,4-0.7,6.2-3.4c3.8,2.3,9,3.5,15.3,3.5h0.2c4,0,7.6-0.8,10.7-2.3c1.4,1,3.1,1.5,4.9,1.5
	c0,0,16.6,0,16.7,0l0.2,0c4.3,0,7.2-2.7,8.6-8.2l0.4-1.7c0.2-0.7,0.3-1.5,0.3-2.2c0-1.6-0.5-3.2-1.3-4.6c1.4-4.9,3.8-13.6,5.4-19.4
	l0.9-3.1c2.3-1.1,4-3.1,4.6-5.5l0.9-3.3c0.2-0.8,0.3-1.5,0.3-2.3c0-1.9-0.6-3.8-1.8-5.3c0-0.1-0.1-0.1-0.1-0.2
	c0-1.9-0.6-3.7-1.8-5.2c-1.6-2.1-4.2-3.4-6.8-3.4l-10.2,0c-1.1,0-2.2,0.2-3.2,0.6c-1-0.4-2.1-0.6-3.2-0.6l-8,0
	c-2.1,0-4.1,0.8-5.7,2.1c-1.6-1.3-3.6-2.1-5.7-2.1L256.6,12L256.6,12L256.6,12z"/>
<g style="opacity:0.3;">
	<g>
		<defs>
			<rect id="SVGID_1_" x="75.2" y="22.3" width="230.8" height="47.7"/>
		</defs>
		<clipPath id="SVGID_2_">
			<use xlink:href="#SVGID_1_"  style="overflow:visible;"/>
		</clipPath>
		<path style="clip-path:url(#SVGID_2_);" d="M248.1,58.8l6.9-26.7c0.2-0.8-0.6-1.1-1.3-1.1l-1.7,0l0.9-3.3l16.8,0l-0.9,3.3l-1.9,0
			c-0.7,0-1.1,0.4-1.4,1l-8.4,31.1c0,0-0.7,4.3,5.3,4.3c6.1,0,7.9-2,8.5-3.9l8.8-31.4c0.2-0.6-0.6-1.2-1.2-1.2l-1.3,0l0.9-3.3l8.1,0
			l-0.9,3.3l-0.9,0c-0.7,0-1.4,0.4-1.6,1l-8.8,31.4c-1,3-4.4,6.6-11.8,6.6C256.2,70,245.5,69,248.1,58.8"/>
		<line style="clip-path:url(#SVGID_2_);" x1="260.4" y1="69.1" x2="260.4" y2="69.1"/>
		<path style="clip-path:url(#SVGID_2_);" d="M294.3,69.2l-16.7,0l0.9-3.4l1.7,0c0.7,0,1.4-0.5,1.7-1.1l9.1-32.6
			c0.1-0.6-0.6-1.1-1.2-1.2l-1.3,0l0.9-3.3l16.7,0l-0.9,3.3l-1.7,0c-0.7,0-1.4,0.4-1.7,1l-9.1,32.4c0,0.1,0,0.2,0,0.2
			c0,0.7,0.5,1.2,1.2,1.2l1.3,0L294.3,69.2z"/>
		<path style="clip-path:url(#SVGID_2_);" d="M79.9,27.6h30.5v0l-4.2,14.6l-2.8,0v0l1.6-5.9c0.4-1.5,1-5.7-3.1-5.4l-2.2,0l-9.4,33.4
			c0,0.1,0,0.2,0,0.2c0,0.7,0.5,1.2,1.2,1.2l1.3,0L92,69.2v0l-16.7,0l1-3.5l1.7,0c0.7,0,1.4-0.4,1.7-1L89,31l-2.9,0
			c-2.9-0.1-4.6,2.7-5.1,4.2c-0.2,0.7-2.3,6.7-2.3,6.7l-2.7,0L79.9,27.6z"/>
		<path style="clip-path:url(#SVGID_2_);" d="M231.1,48.9l-0.7,2.6l4.2,0c0,0,0.4,0,0.4,0.4c0,0.4-2.8,10.2-2.8,10.2
			c-1,2.7-3,4.8-6,4.8c0,0-5,0.2-5.5-5.3c-0.5-5.8,4-23.1,7.7-28.4c0,0,2-3.8,5.4-3.8c3.5,0,7,3.3,7.5,8.8c0.2,2.3,1.5,2.5,1.7,2.5
			c0.4,0,0.9-0.2,1-0.7c0.2-1.1,0-12.2,0-12.2s-0.2-1.3-1.4-0.4c-1.3,1-3.3,1.4-6,0c-1.5-0.8-6.2-1-9-0.2
			c-11.7,3.3-15.6,17.4-16.5,22.4c-1.7,9.9,0.8,17.7,9.6,20c0.7,0.2,4.4,0.9,9.3-1.3c0,0,5-2.9,9.1,1.3c0.6,0.6,0.7,0.2,0.9-0.1
			l5.7-20.6L231.1,48.9"/>
		<polygon style="clip-path:url(#SVGID_2_);" points="267.2,26 268.1,22.3 257.9,22.3 256.7,25.9 		"/>
		<polygon style="clip-path:url(#SVGID_2_);" points="286.5,26 287.4,22.3 279.5,22.3 278.3,26 		"/>
		<polygon style="clip-path:url(#SVGID_2_);" points="303.1,26 304.1,22.3 293.9,22.3 292.7,26 		"/>
		<path style="clip-path:url(#SVGID_2_);" d="M164.5,69.2c-1.5,0-3.1-1.1-4.2-2.9l-7.1-11.2c-0.3-0.4-0.9-0.4-1.1,0.2l-2.5,9.1
			c0,0.1,0,0.2,0,0.2c0,0.7,0.5,1.2,1.2,1.2l1.8,0l-0.8,3.4l-17.2,0l-17.4,0l0.9-3.3l2,0c0.7,0,1.4-0.4,1.5-1.1l0.2-7.3
			c0-0.6-0.5-0.6-0.5-0.6l-11.9-0.1c0,0-0.5,0.1-0.7,0.5l-3.3,6.1c-0.9,1.7,0.1,2.5,0.7,2.5l1.5,0v0l-0.9,3.3l-10.3,0h0l0.9-3.4
			l1.4,0c0,0,1.7,0.2,2.8-1.8l19.8-36.4l11.3,0v0l-0.9,36.6c0.2,0.7,1,1.5,1.6,1.6l1.9,0l1.7,0c0.7-0.1,1.4-0.5,1.7-1.1l9-32.5
			c0.1-0.7-0.5-1.3-1.2-1.3l-1.4,0l0.9-3.3c0,0,18.6-0.1,20.5,0c2,0.1,8.7,0.8,9,11.9c0.3,10.5-10.7,13.3-12.1,13.6
			c0,0-1.3,0.5-0.5,1.8l6.9,10.3c0.7,0.9,2.4,0.9,3.5-0.9l19.6-36.8l11.1,0l-0.1,37.2c0,0.8,0.5,1,1.6,1l2.6,0v0l-0.9,3.3v0.1
			l-18.4,0l0.8-3.4l2.1,0c0.9,0,1.3-0.3,1.4-0.9l0.2-7.1c0-0.6-0.5-0.6-0.5-0.6l-11.8-0.1c0,0-0.5,0.1-0.7,0.5l-3.3,6.1
			c-0.9,1.7-0.2,2.1,0.9,2.1l1.4,0v0l-0.9,3.4L164.5,69.2 M111.5,54l9.4,0c0.4,0,0.9-0.3,0.9-0.8l0.4-19.5c0-0.5-0.5-0.5-0.7-0.1
			L111,53C110.4,53.9,111.5,54,111.5,54 M156.8,50.4c3.7-0.2,6.2-3.3,7.9-9.3c1.8-6.5,0.3-10.2-2.7-10.6l-2.5,0
			c-0.4,0-0.5,0.1-0.6,0.6l-5.4,19.3L156.8,50.4z M183.3,54l9.4,0c0.4,0,0.9-0.3,0.9-0.8l0.4-19.5c0-0.5-0.5-0.5-0.7-0.1L182.9,53
			C182.3,53.9,183.3,54,183.3,54"/>
	</g>
</g>
<path style="fill:#FFFFFF;" d="M246.9,57.1l6.9-26.7c0.2-0.8-0.6-1.1-1.3-1.1l-1.7,0l0.9-3.3l16.8,0l-0.9,3.3l-1.9,0
	c-0.7,0-1.1,0.4-1.4,1l-8.4,31.1c0,0-0.7,4.3,5.3,4.3c6.1,0,7.9-2,8.5-3.9l8.8-31.4c0.2-0.6-0.6-1.2-1.2-1.2l-1.3,0l0.9-3.3l8.1,0
	l-0.9,3.3H283c-0.7,0-1.4,0.4-1.6,1l-8.8,31.4c-1,3-4.4,6.6-11.8,6.6C254.9,68.4,244.2,67.3,246.9,57.1"/>
<line style="fill:#FFFFFF;" x1="259.2" y1="67.4" x2="259.2" y2="67.4"/>
<path style="fill:#FFFFFF;" d="M293.1,67.6l-16.7,0l0.9-3.4l1.7,0c0.7,0,1.4-0.5,1.7-1.1l9.1-32.6c0.1-0.6-0.6-1.1-1.2-1.1l-1.3,0
	l0.9-3.3l16.7,0l-0.9,3.3l-1.7,0c-0.7,0-1.4,0.4-1.7,1l-9.1,32.4c0,0.1,0,0.2,0,0.3c0,0.7,0.5,1.2,1.2,1.2l1.3,0L293.1,67.6
	L293.1,67.6z"/>
<path style="fill:#FFFFFF;" d="M78.7,26h30.5v0L105,40.6l-2.8,0v0l1.6-5.9c0.4-1.5,1-5.7-3.1-5.4l-2.2,0l-9.4,33.4
	c0,0.1,0,0.2,0,0.3c0,0.7,0.6,1.2,1.2,1.2l1.3,0l-0.9,3.3v0l-16.7,0l0.9-3.5l1.7,0c0.7,0,1.4-0.4,1.7-1l9.4-33.8l-2.9,0
	c-2.9-0.2-4.6,2.6-5.1,4.1c-0.2,0.6-2.3,6.7-2.3,6.7l-2.7,0L78.7,26z"/>
<path style="fill:#FFFFFF;" d="M229.8,47.3l-0.7,2.6l4.2,0c0,0,0.4,0,0.4,0.4c0,0.4-2.8,10.2-2.8,10.2c-1,2.7-3,4.8-6,4.8
	c0,0-5,0.2-5.6-5.3c-0.5-5.8,4.1-23.1,7.7-28.4c0,0,2-3.8,5.5-3.8c3.5,0,7,3.3,7.5,8.8c0.2,2.3,1.5,2.5,1.7,2.5c0.4,0,0.9-0.1,1-0.7
	c0.2-1.1,0-12.2,0-12.2s-0.2-1.3-1.5-0.4c-1.3,1-3.3,1.4-6,0c-1.5-0.8-6.2-1-9-0.2C214.5,28.8,210.7,43,209.8,48
	c-1.7,9.9,0.8,17.8,9.6,20c0.7,0.2,4.4,0.9,9.3-1.3c0,0,5-2.9,9.1,1.3c0.6,0.6,0.7,0.2,0.9-0.1l5.6-20.6L229.8,47.3"/>
<polygon style="fill:#FFFFFF;" points="265.9,24.3 266.9,20.6 256.7,20.6 255.5,24.3 "/>
<polygon style="fill:#FFFFFF;" points="285.2,24.3 286.2,20.6 278.2,20.6 277,24.3 "/>
<polygon style="fill:#FFFFFF;" points="301.9,24.3 302.9,20.6 292.6,20.6 291.5,24.3 "/>
<path style="fill:#FFFFFF;" d="M163.3,67.6c-1.5,0-3.1-1.1-4.2-2.9l-7.1-11.2c-0.3-0.4-0.9-0.4-1.1,0.2l-2.5,9.1c0,0.1,0,0.2,0,0.3
	c0,0.7,0.5,1.2,1.2,1.2l1.8,0l-0.8,3.4l-17.1,0l-17.4,0l0.9-3.3l2,0c0.7,0,1.4-0.4,1.5-1.1l0.2-7.3c0-0.6-0.5-0.6-0.5-0.6l-11.9-0.1
	c0,0-0.5,0.1-0.7,0.5l-3.3,6.1c-0.9,1.7,0.1,2.5,0.7,2.5l1.5,0v0l-0.9,3.3l-10.3,0l0,0l0.9-3.4l1.4,0c0,0,1.7,0.2,2.8-1.8L120.2,26
	l11.3,0v0l-0.9,36.6c0.2,0.7,1,1.5,1.6,1.6l1.9,0l1.7,0c0.7-0.1,1.4-0.5,1.7-1.1l9-32.5c0.1-0.7-0.5-1.3-1.2-1.3l-1.4,0l0.9-3.3
	c0,0,18.6-0.1,20.5,0c2,0.1,8.7,0.8,9,11.9c0.3,10.5-10.7,13.3-12.1,13.6c0,0-1.3,0.5-0.5,1.8l6.9,10.3c0.7,0.8,2.4,0.9,3.5-0.9
	L191.9,26l11.1,0l-0.1,37.2c0,0.7,0.5,1,1.6,1l2.6,0v0l-0.8,3.3v0.1l-18.4,0l0.8-3.4l2.1,0c0.9,0,1.3-0.3,1.4-0.9l0.2-7.1
	c0-0.6-0.5-0.6-0.5-0.6l-11.9-0.1c0,0-0.5,0.1-0.7,0.5l-3.3,6.1c-0.9,1.7-0.2,2.1,0.9,2.1l1.4,0v0l-0.9,3.4L163.3,67.6 M110.2,52.3
	l9.4,0c0.4,0,0.9-0.3,0.9-0.8l0.4-19.5c0-0.5-0.5-0.5-0.7-0.1l-10.5,19.4C109.2,52.2,110.2,52.3,110.2,52.3 M155.6,48.7
	c3.7-0.2,6.2-3.3,7.9-9.3c1.8-6.6,0.3-10.2-2.7-10.6l-2.5,0c-0.4,0-0.5,0.1-0.6,0.6l-5.4,19.3L155.6,48.7z M182,52.3l9.4,0
	c0.4,0,0.9-0.3,0.9-0.8l0.4-19.5c0-0.5-0.5-0.5-0.7-0.1l-10.5,19.4C181,52.2,182,52.3,182,52.3"/>
<path style="fill:#FFFFFF;" d="M24,76.2l-0.2,0c-0.1,0-0.1,0-0.2,0c-8.9-0.1-11.1-2.4-11.7-3.4c-0.2-0.4-1.2-1.9-2.6-3.9l-2.2-3.3
	c-3.4-5-5.4-10-5.4-13.2c0-3.9,0.6-7.7,1.8-11.7c0.6-1.9,0.3-4-0.2-5.7c-1.3-0.6-3-1.7-3.3-3.5c0-0.1,0-0.3,0-0.4v-2
	c0-0.2,0-0.4,0.1-0.6c1.4-5.9,20-6.2,23.8-6.2c1.3,0,2.7,0,4,0.1c0.5-1.3,0.6-1.5,0.7-1.7c0-0.1,4.6-9.1,7.4-12.4
	c0.1-0.6,0.3-1.3,0.6-1.8c0.5-0.8,1.2-1.4,2.1-1.8c0.6-0.7,1.9-2.4,2.9-3.8C41.8,0.4,42.4,0,43,0c0,0,0.1,0,0.4,0
	c2.7,0,4.7,1,5.5,2.9C49.1,3.6,49,4.4,48.5,5c-2,2.2-3.2,3.5-3.8,4.1c-0.1,0.8-0.4,1.8-1.1,2.7c-0.5,0.5-1.1,0.9-1.8,1
	c-1.4,1.9-4.1,5.9-6.2,10.3c7.6,1,11.6,2.9,12.1,5.7c0,0.1,0.1,0.3,0.1,0.5v2c0,1.5-1.1,2.8-3.1,3.8c-0.5,1.7-0.8,3.8-0.2,5.8
	c1.2,3.9,1.7,7.7,1.8,11.7c0,3.2-2,8.2-5.4,13.2l-2.2,3.3c-1.4,2-2.4,3.5-2.6,3.9c-0.6,1-2.9,3.3-11.7,3.4c-0.1,0-0.1,0-0.2,0
	C24.1,76.2,24,76.2,24,76.2"/>
<path style="fill:#ba0a13;" d="M45.7,29.2c-0.2-2.7-9.9-4.9-21.8-4.9S2.2,26.5,2,29.2h0v2h0c0,2.7,9.8,4.9,21.8,4.9
	s21.8-2.2,21.8-4.9h0L45.7,29.2L45.7,29.2z"/>
<g style="opacity:0.3;">
	<g>
		<defs>
			<rect id="SVGID_3_" x="8.2" y="26.8" width="31.4" height="5.1"/>
		</defs>
		<clipPath id="SVGID_4_">
			<use xlink:href="#SVGID_3_"  style="overflow:visible;"/>
		</clipPath>
		<path style="clip-path:url(#SVGID_4_);" d="M39.5,29.4c0,1.4-7,2.5-15.7,2.5c-8.7,0-15.7-1.1-15.7-2.5c0-1.4,7-2.5,15.7-2.5
			C32.5,26.8,39.5,28,39.5,29.4"/>
	</g>
</g>
<path style="fill:#ba0a13;" d="M43.1,2c0,0,3.1-0.2,3.9,1.6c-3.1,3.4-4.3,4.7-4.3,4.7s0.2,2.8-2.1,2.6C38.5,13.6,32,23.4,31,30.2
	c-0.5,0-1.4-0.1-1.4-0.1L28.4,30l-1.1,0.2c0,0,2.5-7.6,3-8.5c0.4-0.9,5.4-10.5,7.6-12.5c-0.2-0.6,0.2-2.2,1.7-2.6
	C40.6,5.7,43.1,2,43.1,2"/>
<path style="fill:#ba0a13;" d="M42.5,41.3c-1.3-4.6,1.1-9.4,1.3-9.9c0.7-1.7-8.9,2.2-17.6,2.6c-0.7,0-1.4,0-2.1,0v0
	c-0.1,0-0.1,0-0.2,0c-0.1,0-0.1,0-0.2,0v0c-0.7,0-1.4,0-2.1,0c-8.8-0.4-18.4-4.3-17.6-2.6c0.2,0.5,2.7,5.4,1.3,9.9
	c-1.3,4.6-1.7,8.3-1.7,11.1c0,2.5,1.6,7,5,12.1c2.8,4.1,4.5,6.6,4.9,7.3c0.4,0.7,2.8,2.3,10.1,2.4v0c0.1,0,0.1,0,0.2,0s0.1,0,0.2,0
	v0c7.4,0,9.7-1.7,10.1-2.4c0.4-0.7,2.1-3.2,4.9-7.3c3.4-5.1,5.1-9.6,5-12.1C44.2,49.6,43.8,45.9,42.5,41.3"/>
</svg>
