<?xml version="1.0" encoding="utf-8"?>
<!-- Generator: Adobe Illustrator 16.0.0, SVG Export Plug-In . SVG Version: 6.00 Build 0)  -->
<!DOCTYPE svg PUBLIC "-//W3C//DTD SVG 1.1//EN" "http://www.w3.org/Graphics/SVG/1.1/DTD/svg11.dtd">
<svg version="1.1" id="Layer_1" xmlns="http://www.w3.org/2000/svg" xmlns:xlink="http://www.w3.org/1999/xlink" x="0px" y="0px"
	 width="248px" height="65px" viewBox="0 0 248 65" style="enable-background:new 0 0 248 65;" xml:space="preserve">
<path style="fill:#C52B20;" d="M195.3,64.1c-6.6,0-11.8-1.3-15.5-3.9c0,0,0,0,0,0c-1.9,2.9-4.6,3.6-6,3.8c-0.2,0-0.5,0-0.8,0
	c-1.5,0-3.8-0.4-5.9-2.5c0,0,0,0-0.1,0l0,0c-0.2,0.1-0.4,0.2-0.5,0.3c-3.3,1.4-6.6,2.2-9.9,2.2c-2.1,0-3.6-0.3-4.4-0.5
	c-2.1-0.5-4.1-1.3-5.9-2.4c-1.4,1.4-3.3,2.2-5.3,2.2l-18.4,0c-2,0-3.8-0.7-5.2-2.1c-1.4,1.3-3.3,2.1-5.2,2.1H97.9l-0.2,0
	c-2.4-0.1-4.8-0.9-6.9-2.5c-1.5,1.6-3.5,2.6-5.7,2.6l-17.2,0l-17.4,0c-1.9,0-3.8-0.7-5.2-2c-1.4,1.3-3.2,2.1-5.1,2.1l-10.3,0
	c-0.8,0-1.5-0.1-2.2-0.3c-0.7,0.2-1.5,0.3-2.2,0.3l-16.7,0c-2.4,0-4.7-1.1-6.1-3c-1-1.3-1.6-3-1.6-4.7c0-0.7,0.1-1.4,0.3-2l0.9-3.5
	c0.6-2.3,2.3-4.2,4.5-5.1l2.6-9.2c-2.3-0.1-4.5-1.2-5.9-3.1c-1-1.3-1.6-3-1.6-4.7c0-0.7,0.1-1.4,0.3-2l3.3-11.9
	c0.6-2.4,2.2-7.9,7.8-7.9l30.7,0c2.1,0,4.1,0.9,5.5,2.4c1.4-1.5,3.4-2.3,5.5-2.4l11.3,0c2.1,0,4.1,0.8,5.5,2.3
	c0.5,0.5,0.9,1,1.2,1.7c1.3-2.4,3.9-4,6.7-4c1.9,0,8.5,0,13.8,0c4,0,6.4,0,7.1,0c7.3,0.3,12.8,4.7,15.1,11.8l4.1-7.8
	c1.3-2.5,4-4.1,6.8-4.1l11.1,0c2,0,4,0.8,5.5,2.3c1.4,1.4,2.2,3.4,2.2,5.4l0,1.2c3.7-4.5,8.2-7.6,13.4-9c1.8-0.5,4-0.8,6.3-0.8
	c1.8,0,5.2,0.2,7.8,1.4c1.3-0.6,2.6-0.9,3.9-0.9c1,0,1.9,0.2,2.9,0.5c0.8,0.3,1.5,0.7,2.2,1.3c0.6-0.4,1.2-0.7,1.9-0.9l0.1-0.4
	c1-3.2,4-5.4,7.3-5.4l10.3,0c2.1,0,4.2,0.9,5.7,2.5c1.5-1.6,3.5-2.5,5.7-2.5l8,0c1.1,0,2.2,0.2,3.2,0.7c1-0.5,2.1-0.7,3.2-0.7
	l10.2,0c2.4,0,4.7,1.1,6.1,3c1.1,1.4,1.6,3.2,1.6,5c0.1,0.1,0.2,0.2,0.3,0.4c1,1.3,1.6,3,1.6,4.7c0,0.7-0.1,1.4-0.3,2l-0.9,3.3
	c-0.6,2.3-2.3,4.2-4.5,5.1c0,0-5.2,18.6-6.5,23.4c0.9,1.3,1.4,2.9,1.4,4.4c0,0.6-0.1,1.3-0.3,1.9l-0.4,1.7c-1.3,5-3.9,7.5-7.7,7.5
	l-16.9,0c-1.7,0-3.4-0.6-4.8-1.7c-3.1,1.6-6.7,2.4-10.8,2.4H195.3z"/>
<path style="fill:#FFFFFF;" d="M191.3,1.8L191.3,1.8l10.3,0c2.1,0,4.1,1,5.4,2.7c0.1,0.1,0.2,0.3,0.3,0.4c1.2-1.9,3.3-3.1,5.7-3.1
	l8,0c1.1,0,2.2,0.3,3.2,0.8c1-0.5,2.1-0.8,3.2-0.8l10.2,0c2.1,0,4.1,1,5.4,2.6c1,1.4,1.5,3.1,1.4,4.7c0.2,0.2,0.4,0.4,0.5,0.6
	c0.9,1.2,1.4,2.7,1.4,4.1c0,0.6-0.1,1.2-0.2,1.8l-0.9,3.3c-0.6,2.2-2.3,3.9-4.4,4.6c-1.3,4.8-5.1,18.4-6.8,24.2c0,0,0.1,0.1,0.1,0.1
	c0.9,1.2,1.4,2.7,1.4,4.1c0,0.6-0.1,1.1-0.2,1.7l-0.4,1.7c-0.5,1.7-1.8,6.8-6.8,6.8c-0.1,0-0.2,0-0.2,0c-0.1,0-16.7,0-16.7,0
	c-1.7,0-3.4-0.7-4.7-1.9c-2.8,1.6-6.4,2.6-10.9,2.6h-0.2c-6.9,0-12.2-1.5-15.8-4.3c-0.1,0.3-0.3,0.6-0.5,0.9
	c-1.7,2.6-4.1,3.2-5.3,3.4c-0.2,0-0.5,0-0.7,0c-1.4,0-3.4-0.4-5.3-2.3c-0.1-0.1-0.2-0.2-0.4-0.2c-0.1,0-0.3,0-0.6,0.2l0.2-0.1
	c-0.2,0.1-0.5,0.3-0.7,0.3c-3.8,1.6-7.1,2.1-9.5,2.1c-2,0-3.5-0.3-4.1-0.5c-2.3-0.6-4.4-1.5-6.3-2.7c-1.3,1.5-3.1,2.5-5.2,2.5
	l-18.4,0c-2,0-4-0.9-5.2-2.5c-1.3,1.5-3.1,2.5-5.2,2.5H97.9c0,0-0.1,0-0.2,0c-2.6-0.1-5-1.2-7.1-2.9c-1.2,1.8-3.3,2.9-5.6,2.9
	c0,0-17.1,0-17.2,0l-17.4,0c-2,0-3.9-0.9-5.2-2.5c-1.3,1.5-3.1,2.5-5.1,2.5h0l-10.3,0c-0.8,0-1.5-0.1-2.2-0.4
	c-0.7,0.3-1.4,0.4-2.2,0.4l-16.7,0c-2.1,0-4.1-1-5.4-2.7c-0.9-1.2-1.4-2.6-1.4-4.1c0-0.6,0.1-1.2,0.2-1.8L3,50.3
	c0.6-2.2,2.3-3.9,4.4-4.6c0.6-2,1.5-5.5,3-10.8c-0.5,0-1,0-1,0c-2.1,0-4.1-1-5.4-2.7c-0.9-1.2-1.4-2.6-1.4-4.1
	c0-0.6,0.1-1.2,0.2-1.8l3.3-11.9c0.7-2.4,2-7.2,6.9-7.2c0.1,0,0.2,0,0.2,0h30.4c2.1,0,4.1,1,5.4,2.7c0,0.1,0.1,0.1,0.1,0.2
	c1.3-1.8,3.3-2.9,5.5-2.9l11.3,0c1.8,0,3.6,0.7,4.9,2.1c1,1.1,1.6,2.5,1.8,3.9c0.1-0.4,0.2-0.9,0.2-0.9c0.8-3,3.5-5.1,6.5-5.1
	c1.9,0,8.5,0,13.8,0c3.4,0,6.3,0,7.1,0c6.2,0.3,12.9,4,14.9,13.4c2.1-3.8,5.2-9.8,5.2-9.8c1.2-2.2,3.5-3.6,6-3.6l11.1,0
	c1.8,0,3.5,0.7,4.8,2c1.3,1.3,2,3,2,4.8c0,0,0,1.5,0,4c3.5-5,8.3-9.1,14.6-10.9c1.7-0.5,3.9-0.7,6.1-0.7c2.9,0,5.9,0.5,7.9,1.5
	c1.2-0.7,2.6-1,3.9-1c0.9,0,1.7,0.2,2.5,0.5c0.9,0.4,1.8,0.9,2.5,1.6c0.8-0.6,1.7-1.1,2.6-1.4l0.3-0.9
	C185.7,3.8,188.3,1.8,191.3,1.8 M191.3,0c-3.8,0-7.1,2.4-8.2,6c-0.4,0.1-0.7,0.3-1.1,0.5c-0.6-0.4-1.2-0.8-1.9-1
	c-1-0.4-2.1-0.6-3.2-0.6c-1.3,0-2.6,0.3-3.9,0.8c-2.7-1.1-6-1.3-7.8-1.3c-2.4,0-4.7,0.3-6.6,0.8c-4.7,1.3-8.8,3.8-12.4,7.6
	c-0.3-1.9-1.1-3.6-2.4-4.9c-1.6-1.6-3.8-2.5-6.1-2.5l-11.1,0c-3.2,0-6.1,1.8-7.6,4.6l-3.2,6c-3.2-7.3-9.7-10.3-15.2-10.5
	c-0.7,0-3.1,0-7.2,0c-5.3,0-11.9,0-13.8,0c-2.7,0-5.1,1.2-6.7,3.2c-0.2-0.2-0.4-0.4-0.5-0.6c-1.7-1.7-3.9-2.6-6.2-2.6l-11.3,0
	c-2,0-4,0.7-5.5,2c-1.5-1.3-3.5-2-5.5-2H13.4c0,0-0.1,0-0.2,0c-6.4,0-8.1,6.2-8.7,8.6L1.1,25.8c-0.2,0.7-0.3,1.5-0.3,2.3
	c0,1.9,0.6,3.7,1.8,5.2c1.3,1.8,3.3,2.9,5.5,3.3l-1.6,5.8l-0.5,1.9c-2.3,1.1-3.9,3.1-4.6,5.5l-0.9,3.5C0.1,54,0,54.8,0,55.6
	c0,1.9,0.6,3.7,1.8,5.2C3.4,63,6,64.2,8.6,64.2l16.7,0c0.8,0,1.5-0.1,2.2-0.3c0.7,0.2,1.5,0.3,2.2,0.3l10.3,0c1.9,0,3.7-0.6,5.2-1.8
	c1.5,1.1,3.3,1.8,5.2,1.8l17.4,0c0,0,17.2,0,17.2,0c2.2,0,4.2-0.8,5.8-2.3c2.1,1.4,4.4,2.2,6.7,2.3c0.1,0,0.2,0,0.3,0h14.2
	c1.9,0,3.7-0.6,5.2-1.8c1.5,1.2,3.3,1.8,5.2,1.8l18.4,0c2,0,3.9-0.7,5.5-2c1.7,0.9,3.6,1.7,5.5,2.2c0.8,0.2,2.4,0.5,4.6,0.5
	c3.4,0,6.9-0.8,10.3-2.2c0,0,0.1,0,0.1,0c2.2,1.9,4.5,2.3,6,2.3c0.3,0,0.7,0,0.9,0c1.2-0.1,4-0.7,6.2-3.4c3.8,2.3,9,3.5,15.3,3.5
	h0.2c4,0,7.6-0.8,10.7-2.3c1.4,1,3.1,1.5,4.9,1.5c0,0,16.6,0,16.7,0l0.2,0c4.3,0,7.2-2.7,8.6-8.2l0.4-1.7c0.2-0.7,0.3-1.5,0.3-2.2
	c0-1.6-0.5-3.2-1.3-4.6c1.4-4.9,3.8-13.6,5.4-19.4l0.9-3.1c2.3-1.1,4-3.1,4.6-5.5l0.9-3.3c0.2-0.8,0.3-1.5,0.3-2.3
	c0-1.9-0.6-3.8-1.8-5.3c0-0.1-0.1-0.1-0.1-0.2c0-1.9-0.6-3.7-1.8-5.2c-1.6-2.1-4.2-3.4-6.8-3.4l-10.2,0c-1.1,0-2.2,0.2-3.2,0.6
	C223,0.2,222,0,220.8,0l-8,0c-2.1,0-4.1,0.8-5.7,2.1c-1.6-1.3-3.6-2.1-5.7-2.1L191.3,0L191.3,0L191.3,0z"/>
<g style="opacity:0.3;">
	<g>
		<defs>
			<rect id="SVGID_1_" x="9.9" y="10.3" width="230.8" height="47.7"/>
		</defs>
		<clipPath id="SVGID_2_">
			<use xlink:href="#SVGID_1_"  style="overflow:visible;"/>
		</clipPath>
		<path style="clip-path:url(#SVGID_2_);" d="M182.8,46.8l6.9-26.7c0.2-0.8-0.6-1.1-1.3-1.1l-1.7,0l0.9-3.3l16.8,0l-0.9,3.3l-1.9,0
			c-0.7,0-1.1,0.4-1.4,1l-8.4,31.1c0,0-0.7,4.3,5.3,4.3c6.1,0,7.9-2,8.5-3.9l8.8-31.4c0.2-0.6-0.6-1.2-1.2-1.2l-1.3,0l0.9-3.3l8.1,0
			l-0.9,3.3l-0.9,0c-0.7,0-1.4,0.4-1.6,1l-8.8,31.4c-1,3-4.4,6.6-11.8,6.6C190.8,58,180.1,57,182.8,46.8"/>
		<line style="clip-path:url(#SVGID_2_);" x1="195.1" y1="57.1" x2="195.1" y2="57.1"/>
		<path style="clip-path:url(#SVGID_2_);" d="M229,57.2l-16.7,0l0.9-3.4l1.7,0c0.7,0,1.4-0.5,1.7-1.1l9.1-32.6
			c0.1-0.6-0.6-1.1-1.2-1.2l-1.3,0l0.9-3.3l16.7,0l-0.9,3.3l-1.7,0c-0.7,0-1.4,0.4-1.7,1l-9.1,32.4c0,0.1,0,0.2,0,0.2
			c0,0.7,0.5,1.2,1.2,1.2l1.3,0L229,57.2z"/>
		<path style="clip-path:url(#SVGID_2_);" d="M14.6,15.6H45v0l-4.2,14.6l-2.8,0v0l1.6-5.9c0.4-1.5,1-5.7-3.1-5.4l-2.2,0L25,52.4
			c0,0.1,0,0.2,0,0.2c0,0.7,0.5,1.2,1.2,1.2l1.3,0l-0.9,3.3v0l-16.7,0l1-3.5l1.7,0c0.7,0,1.4-0.4,1.7-1L23.6,19l-2.9,0
			c-2.9-0.1-4.6,2.7-5.1,4.2c-0.2,0.7-2.3,6.7-2.3,6.7l-2.7,0L14.6,15.6z"/>
		<path style="clip-path:url(#SVGID_2_);" d="M165.7,36.9l-0.7,2.6l4.2,0c0,0,0.4,0,0.4,0.4c0,0.4-2.8,10.2-2.8,10.2
			c-1,2.7-3,4.8-6,4.8c0,0-5,0.2-5.5-5.3c-0.5-5.8,4-23.1,7.7-28.4c0,0,2-3.8,5.4-3.8c3.5,0,7,3.3,7.5,8.8c0.2,2.3,1.5,2.5,1.7,2.5
			c0.4,0,0.9-0.2,1-0.7c0.2-1.1,0-12.2,0-12.2s-0.2-1.3-1.4-0.4c-1.3,1-3.3,1.4-6,0c-1.5-0.8-6.2-1-9-0.2
			c-11.7,3.3-15.6,17.4-16.5,22.4c-1.7,9.9,0.8,17.7,9.6,20c0.7,0.2,4.4,0.9,9.3-1.3c0,0,5-2.9,9.1,1.3c0.6,0.6,0.7,0.2,0.9-0.1
			l5.7-20.6L165.7,36.9"/>
		<polygon style="clip-path:url(#SVGID_2_);" points="201.8,14 202.8,10.3 192.5,10.3 191.4,13.9 		"/>
		<polygon style="clip-path:url(#SVGID_2_);" points="221.1,14 222.1,10.3 214.1,10.3 212.9,14 		"/>
		<polygon style="clip-path:url(#SVGID_2_);" points="237.8,14 238.8,10.3 228.5,10.3 227.4,14 		"/>
		<path style="clip-path:url(#SVGID_2_);" d="M99.1,57.2c-1.5,0-3.1-1.1-4.2-2.9l-7.1-11.2c-0.3-0.4-0.9-0.4-1.1,0.2l-2.5,9.1
			c0,0.1,0,0.2,0,0.2c0,0.7,0.5,1.2,1.2,1.2l1.8,0l-0.8,3.4l-17.2,0l-17.4,0l0.9-3.3l2,0c0.7,0,1.4-0.4,1.5-1.1l0.2-7.3
			c0-0.6-0.5-0.6-0.5-0.6L44,44.9c0,0-0.5,0.1-0.7,0.5l-3.3,6.1c-0.9,1.7,0.1,2.5,0.7,2.5l1.5,0v0l-0.9,3.3l-10.3,0h0l0.9-3.4l1.4,0
			c0,0,1.7,0.2,2.8-1.8l19.8-36.4l11.3,0v0l-0.9,36.6c0.2,0.7,1,1.5,1.6,1.6l1.9,0l1.7,0c0.7-0.1,1.4-0.5,1.7-1.1l9-32.5
			c0.1-0.7-0.5-1.3-1.2-1.3l-1.4,0l0.9-3.3c0,0,18.6-0.1,20.5,0c2,0.1,8.7,0.8,9,11.9c0.3,10.5-10.7,13.3-12.1,13.6
			c0,0-1.3,0.5-0.5,1.8l6.9,10.3c0.7,0.9,2.4,0.9,3.5-0.9l19.6-36.8l11.1,0l-0.1,37.2c0,0.8,0.5,1,1.6,1l2.6,0v0l-0.9,3.3v0.1
			l-18.4,0l0.8-3.4l2.1,0c0.9,0,1.3-0.3,1.4-0.9l0.2-7.1c0-0.6-0.5-0.6-0.5-0.6L116,45.2c0,0-0.5,0.1-0.7,0.5l-3.3,6.1
			c-0.9,1.7-0.2,2.1,0.9,2.1l1.4,0v0l-0.9,3.4L99.1,57.2 M46.1,42l9.4,0c0.4,0,0.9-0.3,0.9-0.8l0.4-19.5c0-0.5-0.5-0.5-0.7-0.1
			L45.7,41C45.1,41.9,46.1,42,46.1,42 M91.5,38.4c3.7-0.2,6.2-3.3,7.9-9.3c1.8-6.5,0.3-10.2-2.7-10.6l-2.5,0c-0.4,0-0.5,0.1-0.6,0.6
			l-5.4,19.3L91.5,38.4z M117.9,42l9.4,0c0.4,0,0.9-0.3,0.9-0.8l0.4-19.5c0-0.5-0.5-0.5-0.7-0.1L117.5,41
			C116.9,41.9,117.9,42,117.9,42"/>
	</g>
</g>
<path style="fill:#FFFFFF;" d="M181.5,45.1l6.9-26.7c0.2-0.8-0.6-1.1-1.3-1.1l-1.7,0l0.9-3.3l16.8,0l-0.9,3.3l-1.9,0
	c-0.7,0-1.1,0.4-1.4,1l-8.4,31.1c0,0-0.7,4.3,5.3,4.3c6.1,0,7.9-2,8.5-3.9l8.8-31.4c0.2-0.6-0.6-1.2-1.2-1.2l-1.3,0l0.9-3.3l8.1,0
	l-0.9,3.3h-0.9c-0.7,0-1.4,0.4-1.6,1l-8.8,31.4c-1,3-4.4,6.6-11.8,6.6C189.6,56.4,178.9,55.3,181.5,45.1"/>
<line style="fill:#FFFFFF;" x1="193.8" y1="55.5" x2="193.8" y2="55.4"/>
<path style="fill:#FFFFFF;" d="M227.7,55.6l-16.7,0l0.9-3.4l1.7,0c0.7,0,1.4-0.5,1.7-1.1l9.1-32.6c0.1-0.6-0.6-1.1-1.2-1.1l-1.3,0
	l0.9-3.3l16.7,0l-0.9,3.3l-1.7,0c-0.7,0-1.4,0.4-1.7,1l-9.1,32.4c0,0.1,0,0.2,0,0.3c0,0.7,0.5,1.2,1.2,1.2l1.3,0L227.7,55.6
	L227.7,55.6z"/>
<path style="fill:#FFFFFF;" d="M13.3,14h30.5v0l-4.2,14.6l-2.8,0v0l1.6-5.9c0.4-1.5,1-5.7-3.1-5.4l-2.2,0l-9.4,33.4
	c0,0.1,0,0.2,0,0.3c0,0.7,0.6,1.2,1.2,1.2l1.3,0l-0.9,3.3v0l-16.7,0l0.9-3.5l1.7,0c0.7,0,1.4-0.4,1.7-1l9.4-33.8l-2.9,0
	c-2.9-0.2-4.6,2.6-5.1,4.1c-0.2,0.6-2.3,6.7-2.3,6.7l-2.7,0L13.3,14z"/>
<path style="fill:#FFFFFF;" d="M164.4,35.3l-0.7,2.6l4.2,0c0,0,0.4,0,0.4,0.4c0,0.4-2.8,10.2-2.8,10.2c-1,2.7-3,4.8-6,4.8
	c0,0-5,0.2-5.6-5.3c-0.5-5.8,4.1-23.1,7.7-28.4c0,0,2-3.8,5.5-3.8c3.5,0,7,3.3,7.5,8.8c0.2,2.3,1.5,2.5,1.7,2.5c0.4,0,0.9-0.1,1-0.7
	c0.2-1.1,0-12.2,0-12.2s-0.2-1.3-1.5-0.4c-1.3,1-3.3,1.4-6,0c-1.5-0.8-6.2-1-9-0.2C149.2,16.9,145.3,31,144.4,36
	c-1.7,9.9,0.8,17.8,9.6,20c0.7,0.2,4.4,0.9,9.3-1.3c0,0,5-2.9,9.1,1.3c0.6,0.6,0.7,0.2,0.9-0.1l5.6-20.6L164.4,35.3"/>
<polygon style="fill:#FFFFFF;" points="200.6,12.3 201.5,8.7 191.3,8.6 190.1,12.3 "/>
<polygon style="fill:#FFFFFF;" points="219.9,12.3 220.8,8.7 212.9,8.7 211.7,12.3 "/>
<polygon style="fill:#FFFFFF;" points="236.5,12.3 237.5,8.7 227.3,8.7 226.1,12.3 "/>
<path style="fill:#FFFFFF;" d="M97.9,55.6c-1.5,0-3.1-1.1-4.2-2.9l-7.1-11.2c-0.3-0.4-0.9-0.4-1.1,0.2l-2.5,9.1c0,0.1,0,0.2,0,0.3
	c0,0.7,0.5,1.2,1.2,1.2l1.8,0l-0.8,3.4l-17.1,0l-17.4,0l0.9-3.3l2,0c0.7,0,1.4-0.4,1.5-1.1l0.2-7.3c0-0.6-0.5-0.6-0.5-0.6l-11.9-0.1
	c0,0-0.5,0.1-0.7,0.5l-3.3,6.1c-0.9,1.7,0.1,2.5,0.7,2.5l1.5,0v0l-0.9,3.3l-10.3,0l0,0l0.9-3.4l1.4,0c0,0,1.7,0.2,2.8-1.8L54.9,14
	l11.3,0v0l-0.9,36.6c0.2,0.7,1,1.5,1.6,1.6l1.9,0l1.7,0c0.7-0.1,1.4-0.5,1.7-1.1l9-32.5c0.1-0.7-0.5-1.3-1.2-1.3l-1.4,0l0.9-3.3
	c0,0,18.6-0.1,20.5,0c2,0.1,8.7,0.8,9,11.9c0.3,10.5-10.7,13.3-12.1,13.6c0,0-1.3,0.5-0.5,1.8l6.9,10.3c0.7,0.8,2.4,0.9,3.5-0.9
	L126.5,14l11.1,0l-0.1,37.2c0,0.7,0.5,1,1.6,1l2.6,0v0l-0.8,3.3v0.1l-18.4,0l0.8-3.4l2.1,0c0.9,0,1.3-0.3,1.4-0.9l0.2-7.1
	c0-0.6-0.5-0.6-0.5-0.6l-11.9-0.1c0,0-0.5,0.1-0.7,0.5l-3.3,6.1c-0.9,1.7-0.2,2.1,0.9,2.1l1.4,0v0l-0.9,3.4L97.9,55.6 M44.8,40.3
	l9.4,0c0.4,0,0.9-0.3,0.9-0.8l0.4-19.5c0-0.5-0.5-0.5-0.7-0.1L44.4,39.4C43.8,40.2,44.8,40.3,44.8,40.3 M90.2,36.7
	c3.7-0.2,6.2-3.3,7.9-9.3c1.8-6.6,0.3-10.2-2.7-10.6l-2.5,0c-0.4,0-0.5,0.1-0.6,0.6l-5.4,19.3L90.2,36.7z M116.7,40.3l9.4,0
	c0.4,0,0.9-0.3,0.9-0.8l0.4-19.5c0-0.5-0.5-0.5-0.7-0.1l-10.5,19.4C115.7,40.2,116.7,40.3,116.7,40.3"/>
</svg>
