<?xml version="1.0" encoding="utf-8"?>
<!-- Generator: Adobe Illustrator 16.0.0, SVG Export Plug-In . SVG Version: 6.00 Build 0)  -->
<!DOCTYPE svg PUBLIC "-//W3C//DTD SVG 1.1//EN" "http://www.w3.org/Graphics/SVG/1.1/DTD/svg11.dtd">
<svg version="1.1" id="Layer_1" xmlns="http://www.w3.org/2000/svg" xmlns:xlink="http://www.w3.org/1999/xlink" x="0px" y="0px"
	 width="344.308px" height="226.724px" viewBox="0 0 344.308 226.724" enable-background="new 0 0 344.308 226.724"
	 xml:space="preserve">
<path fill-rule="evenodd" clip-rule="evenodd" fill="#FBEC06" d="M343.526,174.179c-1.123-7.566-7.064-9.248-8.188-16.814
	s4.818-5.885,3.695-13.452s-7.065-9.25-8.188-16.817c-1.123-7.563,4.819-5.881,3.696-13.444c-1.123-7.567-7.065-9.249-8.188-16.815
	s4.819-5.884,3.696-13.45c-1.123-7.567-7.065-9.249-8.188-16.816c-1.125-7.568,4.817-5.886,3.694-13.454
	c-1.123-7.565-7.064-9.247-8.188-16.811c-1.124-7.571,4.817-5.89,3.693-13.46c-1.124-7.576-7.065-9.258-8.19-16.834
	c-0.192-1.299,0.306-2.202,1.015-3.03c1.101-1.285-0.049-3.209-1.74-2.958l-49.073,7.284L51.137,38.766L2.062,46.05
	c-1.69,0.251-2.23,2.426-0.806,3.336c0.92,0.587,1.659,1.306,1.852,2.605c1.124,7.576-4.072,10.911-2.947,18.487
	c1.124,7.57,6.32,4.236,7.443,11.807c1.123,7.564-4.073,10.9-2.95,18.464c1.122,7.568,6.32,4.233,7.443,11.801
	c1.123,7.566-4.074,10.902-2.951,18.469c1.123,7.565,6.32,4.229,7.444,11.796c1.123,7.566-4.074,10.902-2.951,18.469
	c1.122,7.563,6.319,4.227,7.442,11.79c1.124,7.568-4.074,10.904-2.95,18.472c1.123,7.567,6.32,4.231,7.443,11.799
	c1.123,7.565-4.074,10.901-2.951,18.468c0.165,1.11,0.217,2.141,0.208,3.099c-0.009,1.117,1.019,1.959,2.149,1.791l48.532-7.204
	l220.646-32.752l48.531-7.204c1.133-0.168,1.871-1.271,1.537-2.338C343.941,176.29,343.691,175.288,343.526,174.179"/>
<g>
	<path fill="#ba0a13" d="M48.926,78.972c-0.056-0.375-0.104-0.702-0.192-0.976l-0.307-1.103l-0.229-1.544
		c-0.042-0.28-0.487-1.027-0.655-1.193c-0.154-0.073-0.496-0.118-0.871-0.063c-0.561,0.083-1.295,0.288-1.829,0.559
		c-0.54,0.223-0.9,0.373-1.088,0.4c-0.234,0.035-1.499-0.112-1.652-0.185c-0.257-0.106-0.734-0.752-0.783-1.08l-0.176-1.504
		c-0.007-0.047-0.088-0.273-0.19-0.641c-0.075-0.18-0.096-0.321-0.123-0.508c-0.16-1.076,0.911-2.239,2.269-2.44
		c0.28-0.042,0.654-0.097,1.083-0.113c1.377-0.062,2.039-0.112,2.507-0.181c0.234-0.035,0.234-0.035,1.063-0.253l1.137-0.074
		c1.188-0.367,1.188-0.367,3.086-0.793c1.036-0.106,2.151,0.638,2.29,1.573c0.034,0.233,0.024,0.81-0.052,1.586
		c0.002,0.334-0.011,0.575,0.017,0.763c0.028,0.187,0.146,0.647,0.281,1.25c0.083,0.227,0.11,0.414,0.139,0.601
		c0.027,0.188,0.136,1.893,0.201,2.647c0.327,1.243,0.425,1.898,0.539,3.315l0.184,0.594l0.027,1.144
		c0.007,0.047,0.081,0.227,0.163,0.454l0.137,0.602l0.212,0.781l0.42,0.894c0.129,0.219,0.23,0.587,0.293,1.008
		c0.348,2.34-0.482,3.515-2.729,3.848c-0.42,0.063-0.943,0.092-1.465,0.122c-0.621-0.003-1.143,0.026-1.424,0.068
		c-0.327,0.048-0.327,0.048-2.31,0.869c-0.321,0.095-0.781,0.211-1.438,0.309c-4.912,0.729-10.045-0.661-13.345-3.566
		c-1.762-1.556-2.987-3.047-3.763-4.414c-1.224-2.114-2.262-4.925-2.512-6.609c-0.09-0.608-0.155-1.364-0.133-2.18l-0.025-0.809
		c-0.052-2.288,0.026-2.729,1.008-5.458c0.956-2.581,1.069-2.789,3.146-4.58c2.797-2.424,3.277-2.734,5.127-3.486
		c1.715-0.686,3.23-1.102,5.43-1.428c1.311-0.194,3.418-0.173,5.225,0.085c0.289,0.005,0.289,0.005,0.972,0.094
		c1.306,0.094,2.427,0.883,2.559,1.772c0.104,0.702-0.007,1.244-0.385,1.922c-0.313,0.477-0.313,0.477-0.403,0.825
		c-0.274,1.379-0.52,1.656-1.502,1.801c-0.563,0.083-1.004,0.005-2.016-0.371c-1.67-0.612-3.027-0.745-4.992-0.453
		c-1.264,0.188-3.361,0.881-4.008,1.359c-1.347,0.917-3.072,3.134-3.469,4.341c-0.565,1.662-0.689,3.401-0.412,5.273
		c0.209,1.404,0.85,3.461,1.457,4.662c0.758,1.561,1.041,1.854,2.922,3.249c1.927,1.388,2.242,1.58,3.475,1.828
		c2.184,0.536,3.643,0.703,4.485,0.578c0.702-0.104,2.085-0.453,2.352-0.588c0.573-0.324,0.931-1.142,0.819-1.891
		c-0.021-0.141-0.11-0.415-0.197-0.689c-0.097-0.32-0.132-0.554-0.159-0.741L48.926,78.972z"/>
	<path fill="#ba0a13" d="M70.228,86.235c-1.311,0.195-2.716,0.068-4.31-0.365c-2.206-0.677-2.844-1.108-4.299-3.188
		c-0.782-1.08-0.994-1.861-1.411-4.668l-0.15-0.695c-0.212-0.782-0.35-1.383-0.398-1.711c-0.021-0.14-0.068-0.467-0.077-0.849
		c-0.06-1.043-0.066-1.09-0.233-2.213c-0.056-0.375-0.056-0.375-0.165-2.08c-0.478-1.603-0.478-1.603-0.512-1.837l-0.176-1.504
		l-0.331-1.912c-0.131-1.846-0.131-1.846-0.353-3.343c-0.146-0.982-0.146-0.982-0.507-2.125c-0.123-0.508-0.123-0.508-0.402-1.422
		c-0.103-0.368-0.191-0.641-0.219-0.828c-0.16-1.076,0.322-2.009,1.119-2.127c0.467-0.069,0.467-0.069,1.626-0.002
		c0.146,0.026,0.286,0.005,0.38-0.008c0.188-0.028,0.415-0.11,0.642-0.191c0.414-0.109,0.782-0.212,1.063-0.253
		c0.796-0.118,1.211,0.107,1.61,0.86c0.264,0.486,0.42,0.894,0.461,1.175c0.056,0.375,0.056,0.375-0.129,2.027
		c-0.045,0.342-0.051,0.63-0.022,0.816c0.007,0.047,0.109,0.414,0.226,0.875c0.082,0.227,0.13,0.554,0.192,0.975
		c0.077,0.515,0.084,0.562,0.108,1.371L64.446,65c0.02,1.097,0.02,1.097,0.116,1.752l0.91,4.838c0.033,1.19,0.033,1.19,0.165,2.08
		c0.063,0.421,0.063,0.421,0.165,0.789l0.16,2.367c0.623,2.585,0.623,2.585,1.02,3.005c0.733,0.751,2.422,1.17,3.779,0.969
		c1.497-0.222,2.656-1.112,3.13-2.426c0.165-0.502,0.165-0.502,0.138-1.646c-0.038-0.903-0.061-1.378-0.074-1.471
		c-0.007-0.047-0.028-0.188-0.103-0.367c-0.271-0.869-0.438-1.657-0.535-2.312c-0.048-0.328-0.049-0.663-0.059-1.043
		c0.013-0.242-0.001-0.334-0.001-0.334c-0.603-2.445-0.603-2.445-0.637-2.68l-0.104-0.701c-0.064-0.756-0.108-1.371-0.108-1.371
		c-0.035-0.234-0.213-1.116-0.357-1.765c-0.144-0.647-0.268-1.156-0.309-1.436c-0.069-0.468-0.106-1.036-0.109-1.706
		c0.021-0.816,0-0.957-0.055-1.331c-0.084-0.562-0.171-0.835-0.451-1.75c-0.279-0.915-0.491-1.696-0.533-1.977
		c-0.284-1.918,0.186-2.944,1.401-3.125c0.469-0.069,0.469-0.069,1.245,0.006c0.194,0.019,0.38-0.009,0.567-0.036
		c0.188-0.028,0.374-0.056,0.603-0.138c1.769-0.645,2.445-0.267,2.695,1.417c0.049,0.327,0.137,1.557,0.119,2.086
		c-0.005,0.287-0.017,0.528-0.017,0.528c0.48,2.272,0.48,2.272,0.443,3.951l0.035,0.234c0.014,0.093,0.041,0.28,0.108,0.414
		c0.163,0.454,0.258,0.774,0.266,0.821c0,0,0.016,0.428,0.052,0.997l0.132,0.889l0.205,0.734c0.029,0.522,0.033,1.191,0.165,2.08
		c0.01,0.381,0.167,1.123,0.353,2.052c0.096,0.32,0.13,0.554,0.158,0.741c0.014,0.094,0.048,0.328,0.05,0.663l0.083,0.562
		l0.395,2.332c0.409,5.008,0.321,6.026-0.692,7.897c-1.086,2.026-4.086,4.05-6.565,4.418L70.228,86.235z"/>
	<path fill="#ba0a13" d="M87.84,83.142c-1.216,0.181-1.93-0.431-2.145-1.881c-0.098-0.655-0.098-0.655-0.06-2.334
		c0.026-0.147,0.006-0.288-0.022-0.475l-0.063-0.421c-0.3-1.055-0.465-1.844-0.486-1.984l-0.048-0.328l-0.136-1.558
		c-0.098-0.655-0.098-0.655-0.192-2.267l-0.888-4.363l-0.41-4.051c-0.357-1.764-0.357-1.764-0.735-3.669
		c-0.015-0.093-0.016-0.428-0.031-0.856s-0.018-0.763-0.066-1.09c-0.027-0.188-0.027-0.188-0.13-0.555
		c-0.075-0.18-0.368-1.188-0.834-3.032c-0.215-1.451,0.363-2.396,1.626-2.584c0.28-0.041,0.516-0.076,0.708-0.057
		c0.382-0.01,0.623,0.003,0.623,0.003l1.71-0.397c0.094-0.014,0.805,0.263,1.059,0.368c0.424,0.272,0.727,0.705,0.803,1.221
		c0.049,0.327,0.059,0.708,0.066,1.09c0.017,0.428,0.017,0.428,0.038,0.903c0.021,0.14,0.023,0.474,0.06,1.043l0.267,1.155
		l0.046,0.95l0.172,0.835l0.086,0.896l0.391,1.663c0.007,0.047,0.034,0.234,0.028,0.521c-0.012,0.241,0.017,0.429,0.051,0.662
		c0.104,0.702,0.271,1.825,0.352,2.052c0.104,0.368,0.146,0.648,0.146,0.648c0.027,0.187,0.035,0.568,0.012,1.05
		c-0.019,0.194-0.005,0.287,0.002,0.334l0.274,1.203c0.04,1.238,0.04,1.238,0.061,1.378c0.035,0.234,0.035,0.234,0.523,1.596
		l-0.004,0.287l0.056,0.709c0.091,0.608,0.091,0.608,0.121,1.129c0.307,1.103,0.628,2.299,0.684,2.673
		c0.007,0.047-0.006,0.287-0.003,0.622c0.001,0.334,0.043,0.615,0.077,0.849c0.076,0.515,0.535,2.312,0.794,3.086
		c0.095,0.32,0.184,0.594,0.219,0.828c0.139,0.936-0.434,1.594-1.557,1.761c-0.234,0.035-0.234,0.035-1.23,0.087
		c-0.146-0.026-0.381,0.009-0.615,0.043c-0.094,0.014-0.327,0.049-0.648,0.145L87.84,83.142z M83.975,49.046
		c-0.843,0.125-1.359-0.133-1.457-0.788c-0.063-0.421-0.036-0.568,0.434-1.595c0.251-0.563,0.368-1.059,0.433-1.594
		c0.129-1.071,0.327-1.34,1.076-1.451l0.467-0.069c0.476-0.022,0.904-0.038,1.045-0.059c0.045-0.007,0.232-0.035,0.507-0.123
		l1.396-0.255c0.843-0.125,1.459,0.166,1.542,0.728c0.104,0.702-0.014,0.863-1.696,2.739c-0.279,0.376-0.558,0.752-0.783,1.168
		c-0.631,0.907-0.71,1.015-1.084,1.07c-0.142,0.021-0.142,0.021-0.903,0.039c-0.047,0.007-0.328,0.048-0.742,0.157L83.975,49.046z"
		/>
	<path fill="#ba0a13" d="M111.102,73.951c-0.414,0.109-0.734,0.205-0.734,0.205c-0.048,0.007-0.234,0.035-0.521,0.03l-0.468,0.069
		c-0.421,0.063-0.421,0.063-1.892,0.472c-0.414,0.11-0.741,0.158-1.022,0.2c-0.375,0.056-0.85,0.078-1.378,0.061
		c-0.381,0.009-0.715,0.011-0.902,0.039c-1.497,0.222-2.386,1.646-2.183,3.337c0.215,1.45,0.215,1.45-0.037,2.014
		c-0.297,0.57-0.637,0.859-1.245,0.95c-0.327,0.048-0.755,0.064-1.23,0.087l-0.941,0.092c-0.235,0.035-0.656,0.098-1.351,0.248
		l-0.468,0.07c-0.983,0.146-1.614-0.239-1.726-0.987c-0.069-0.468,0.067-1.158,0.404-2.116c0.244-0.61,0.368-1.059,0.395-1.207
		l0.088-1.017c0.053-0.294,0.144-0.643,0.275-1.045c0.264-0.804,0.433-1.594,0.548-2.425c0.056-0.917,0.118-1.787,0.181-2.657
		c0.053-0.295,0.137-0.69,0.397-1.829c0.203-0.891,0.385-1.922,0.538-3.141c0.098-0.636,0.207-1.178,0.339-1.581l0.4-1.494
		c0.156-0.884,0.267-1.426,0.499-3.086c0.044-0.341,0.089-0.683,0.127-1.071c0.045-0.342,0.026-0.148,0.117-0.496l0.138-0.689
		l0.115-0.83c0.089-1.018,0.146-1.266,0.526-2.9c0.188-0.984,0.324-1.674,0.311-1.768c0.311-2.103,0.55-2.425,2.188-2.668
		c0.188-0.027,0.421-0.063,0.662-0.05l0.709-0.058l1.724-0.303c0.188-0.028,0.857,0.303,1.234,0.582
		c0.269,0.199,0.524,0.639,0.884,1.446c0.128,0.221,0.325,0.574,0.602,1.154l0.764,1.274l1.302,2.006
		c0.492,0.74,0.776,1.367,1.11,2.322c0.25,0.728,0.264,0.821,0.832,1.741c0.222,0.207,0.363,0.52,0.513,0.881l0.454,1.128
		l0.521,0.927c0.216,0.494,0.427,0.941,0.583,1.348l0.305,0.768c0.143,0.314,0.379,0.613,0.635,1.054
		c0.304,0.433,0.176,0.213,0.432,0.653l0.723,1.328l0.334,0.954l0.316,0.527c0.129,0.22,0.257,0.439,0.339,0.667l0.535,1.355
		l0.324,0.573l0.628,1.008c0.196,0.353,0.393,0.707,0.534,1.021c0.21,0.446,0.406,0.8,0.635,1.053l0.762,0.938
		c0.478,0.647,0.829,1.408,0.92,2.016c0.104,0.702-0.168,1.125-0.869,1.229l-0.943,0.092c-0.622-0.003-1.097,0.02-1.378,0.062
		c-0.188,0.027-0.647,0.144-1.202,0.274c-0.414,0.109-0.782,0.211-1.109,0.26c-1.217,0.181-1.741-0.459-2.147-2.55
		c-0.153-1.029-0.349-1.382-1.243-2.254c-0.344-0.379-0.738-0.464-1.44-0.36L111.102,73.951z M104.785,61.355
		c-0.247,1.232-0.313,1.434-0.422,2.31c-0.18,1.366-0.225,1.707-0.447,2.458c-0.217,0.797-0.217,0.797-0.494,2.799
		c0.056,0.374,0.827,0.738,1.388,0.655l1.491-0.27c0.047-0.007,0.233-0.035,0.521-0.029l0.562-0.083
		c0.327-0.048,0.561-0.083,0.741-0.158l0.32-0.096l0.937-0.139c0.281-0.042,0.626-0.62,0.577-0.947
		c-0.035-0.234-0.035-0.234-0.649-1.147l-0.426-0.941l-0.319-0.861l-0.697-1.474l-0.373-0.901l-0.217-0.494
		c-0.258-0.775-0.528-1.308-0.671-1.622c-0.567-0.92-0.681-1.047-0.655-1.194c-0.081-0.227-0.306-0.768-0.611-1.535
		c-0.053-0.04-0.114-0.126-0.16-0.12L104.785,61.355z"/>
</g>
<g>
	<path fill="#ba0a13" d="M36.307,121.534c-0.014-0.094-0.034-0.234-0.102-0.367c-0.145-0.648-0.267-1.156-0.302-1.391
		c-0.007-0.047-0.034-0.233-0.023-0.475c-0.035-0.568-0.163-1.744-0.232-2.213c-0.077-0.515-0.213-1.116-0.403-1.758
		c-0.096-0.32-0.178-0.547-0.185-0.594c-0.212-3.364-0.212-3.364-0.302-3.972c-0.077-0.515-0.14-0.936-0.25-1.35
		c-0.094-0.321-0.129-0.555-0.136-0.602l-0.17-1.457c-0.246-1.016-0.246-1.016-0.274-1.203c-0.027-0.187-0.055-0.375-0.042-0.615
		l-0.065-0.756c-0.014-0.094-0.239-0.969-0.605-2.157c-0.117-0.461-0.239-0.969-0.337-1.625c-0.341-2.292,0.137-2.937,2.477-3.284
		c0.421-0.063,0.802-0.072,1.565-0.089c0.334-0.002,0.567-0.037,0.615-0.044l1.857-0.371l1.184-0.081l2.084-0.453
		c3.632-0.348,3.632-0.348,5.421,0.438c1.476,0.594,2.764,1.215,3.44,1.594c0.37,0.232,0.37,0.232,1.521,1.543l0.553,0.492
		c0.927,0.771,1.379,1.565,1.709,3.142c0.074,0.181,0.103,0.368,0.237,0.634c0.075,0.18,0.075,0.18,0.145,0.648
		c0.09,0.608,0.227,1.209,0.371,1.858c0.139,0.936-0.205,4.095-0.534,5.1c-0.704,2.018-2.125,4.046-3.559,5.023
		c-0.259,0.182-0.473,0.357-0.686,0.533l-0.366,0.436c-0.785,0.834-3.38,2.032-5.019,2.275l-0.654,0.098
		c-0.708,0.057-1.13,0.119-1.363,0.154c-1.311,0.195-1.629,0.625-1.435,1.935c0.167,1.123,0.261,1.443,0.749,2.472
		c0.224,0.54,0.503,1.455,0.6,2.11c0.153,1.029-0.191,1.606-1.033,1.731c-0.328,0.049-0.609,0.091-0.896,0.086
		c-0.522,0.029-0.857,0.031-1.045,0.059c-0.045,0.007-0.232,0.035-0.46,0.116c-0.46,0.116-0.875,0.226-1.203,0.274
		c-1.216,0.181-1.936-0.479-2.15-1.929c-0.069-0.468-0.1-0.989-0.123-1.464c-0.042-0.615-0.059-1.043-0.087-1.23
		c-0.014-0.094-0.129-0.555-0.268-1.156c-0.08-0.228-0.115-0.461-0.143-0.648c-0.028-0.188-0.028-0.188-0.041-1.236L36.307,121.534z
		 M40.056,105.866c0.059,1.043,0.059,1.043,0.094,1.277c0.049,0.327,0.083,0.562,0.33,1.577c0.108,0.415,0.164,0.789,0.205,1.069
		c0.049,0.328,0.104,0.702,0.128,1.177c0.063,1.712,0.069,1.759,0.125,2.134c0.194,1.309,0.594,2.063,1.089,2.181
		c0.302,0.099,1.532,0.012,2.468-0.127c0.749-0.111,0.749-0.111,1.582-0.618l0.728-0.251c0.729-0.251,1.747-1.121,2.211-1.858
		c0.232-0.369,0.729-1.543,0.893-2.045c0.124-0.449,0.322-2.009,0.288-2.243c-0.22-1.162-0.41-1.804-0.485-1.984
		c-1.096-2.229-1.844-3.073-3.283-3.434c-1.447-0.407-3.142-0.538-4.218-0.378c-1.403,0.208-2.527,1.332-2.368,2.407L40.056,105.866
		z"/>
	<path fill="#ba0a13" d="M73.723,118.467c-0.415,0.109-0.735,0.204-0.735,0.204c-0.047,0.008-0.233,0.035-0.521,0.03l-0.468,0.069
		c-0.421,0.063-0.421,0.063-1.89,0.473c-0.415,0.108-0.742,0.156-1.023,0.199c-0.375,0.055-0.849,0.078-1.378,0.061
		c-0.381,0.009-0.716,0.011-0.903,0.039c-1.497,0.222-2.386,1.645-2.183,3.336c0.216,1.451,0.216,1.451-0.036,2.014
		c-0.297,0.57-0.637,0.86-1.244,0.951c-0.328,0.048-0.756,0.063-1.231,0.086l-0.941,0.092c-0.236,0.035-0.656,0.098-1.351,0.249
		l-0.468,0.069c-0.983,0.146-1.613-0.239-1.725-0.987c-0.069-0.468,0.066-1.158,0.403-2.116c0.244-0.61,0.368-1.059,0.394-1.207
		l0.089-1.018c0.052-0.293,0.144-0.643,0.274-1.044c0.265-0.805,0.434-1.595,0.549-2.425c0.056-0.917,0.118-1.787,0.181-2.656
		c0.052-0.295,0.136-0.691,0.397-1.829c0.203-0.891,0.384-1.922,0.537-3.141c0.098-0.636,0.208-1.178,0.34-1.581l0.4-1.494
		c0.156-0.884,0.266-1.426,0.498-3.087c0.045-0.341,0.09-0.682,0.128-1.071c0.045-0.341,0.026-0.147,0.118-0.496l0.136-0.69
		l0.116-0.83c0.089-1.018,0.146-1.265,0.526-2.9c0.188-0.984,0.324-1.674,0.311-1.767c0.311-2.103,0.55-2.425,2.187-2.668
		c0.188-0.028,0.421-0.063,0.662-0.05l0.71-0.058l1.724-0.304c0.188-0.028,0.857,0.303,1.233,0.582
		c0.27,0.199,0.525,0.64,0.886,1.447c0.127,0.22,0.323,0.573,0.601,1.154l0.763,1.273l1.302,2.007
		c0.492,0.74,0.777,1.367,1.11,2.321c0.251,0.728,0.265,0.822,0.832,1.742c0.223,0.206,0.365,0.52,0.515,0.88l0.452,1.128
		l0.521,0.927c0.217,0.494,0.426,0.941,0.582,1.349l0.306,0.767c0.143,0.313,0.379,0.613,0.635,1.053
		c0.304,0.433,0.175,0.213,0.431,0.653l0.724,1.328l0.333,0.955l0.317,0.527c0.128,0.219,0.257,0.439,0.338,0.667l0.536,1.354
		l0.325,0.574l0.627,1.006c0.196,0.354,0.392,0.707,0.533,1.021c0.211,0.447,0.406,0.8,0.636,1.054l0.761,0.938
		c0.479,0.646,0.83,1.407,0.92,2.016c0.104,0.701-0.167,1.125-0.868,1.229l-0.943,0.093c-0.622-0.003-1.098,0.019-1.379,0.062
		c-0.186,0.027-0.646,0.144-1.201,0.273c-0.414,0.109-0.782,0.212-1.109,0.26c-1.217,0.182-1.742-0.459-2.148-2.55
		c-0.152-1.029-0.348-1.383-1.242-2.255c-0.344-0.379-0.739-0.464-1.441-0.359L73.723,118.467z M67.405,105.871
		c-0.247,1.232-0.313,1.434-0.421,2.311c-0.18,1.365-0.225,1.707-0.448,2.457c-0.217,0.797-0.217,0.797-0.493,2.8
		c0.056,0.374,0.827,0.737,1.389,0.654l1.49-0.27c0.047-0.007,0.233-0.034,0.521-0.029l0.562-0.083
		c0.327-0.049,0.561-0.083,0.741-0.158l0.321-0.096l0.936-0.139c0.281-0.042,0.625-0.619,0.576-0.947
		c-0.034-0.233-0.034-0.233-0.647-1.146l-0.427-0.941l-0.319-0.861l-0.698-1.475l-0.372-0.901l-0.217-0.494
		c-0.258-0.774-0.528-1.308-0.671-1.622c-0.566-0.92-0.682-1.047-0.655-1.194c-0.082-0.227-0.306-0.768-0.611-1.535
		c-0.053-0.04-0.114-0.126-0.16-0.12L67.405,105.871z"/>
	<path fill="#ba0a13" d="M108.364,118.298c0.063,0.422-0.369,1.06-0.896,1.376c-0.393,0.25-0.393,0.25-1.656,0.438
		c-1.403,0.208-1.785,0.218-2.367,0.16c-1.862-0.298-2.123-0.45-5.546-2.572c-1.531-0.968-2.345-1.612-3.615-2.763
		c-0.45-0.459-1-0.617-1.562-0.533c-0.468,0.069-0.587,0.23-0.598,0.806c-0.031,0.436-0.015,0.863,0.034,1.19
		c0.048,0.328,0.048,0.328,0.531,1.643c0.196,0.689,0.395,1.377,0.471,1.891c0.132,0.89-0.172,1.413-0.968,1.531l-0.374,0.056
		c-0.335,0.001-0.522,0.029-0.569,0.036l-3.073,0.553c-0.843,0.125-1.501-0.447-1.646-1.43c-0.083-0.562-0.128-1.177-0.077-1.807
		c0.074-1.109,0.047-1.297-0.023-1.766c-0.041-0.28-0.083-0.561-0.166-0.788c-0.156-0.407-0.236-0.634-0.236-0.634l-0.11-1.705
		c0,0-0.021-0.141-0.088-0.275c-0.089-0.273-0.173-0.834-0.332-1.91c-0.049-0.328-0.049-0.328-0.226-2.167
		c-0.328-1.242-0.328-1.242-0.418-1.851c-0.208-1.403-0.208-1.403-0.274-2.494c-0.023-0.475-0.08-1.184-0.239-2.26
		c-0.049-0.327-0.091-0.608-0.166-0.789l-0.164-0.789l-0.045-0.949l-0.323-1.53c-0.093-0.943-0.093-0.943-0.128-1.177
		c-0.104-0.702-0.316-1.483-0.566-2.211c-0.341-1.001-0.414-1.182-0.463-1.509c-0.34-2.293,0.309-3.393,2.181-3.671
		c0.561-0.083,0.561-0.083,1.993-0.105c0.101,0.033,0.288,0.005,0.615-0.043l0.468-0.069c0.46-0.116,0.741-0.158,0.741-0.158
		l1.651-0.149c2.218-0.521,2.218-0.521,2.64-0.583c2.666-0.396,3.751-0.174,6.736,1.248c1.857,0.92,1.857,0.92,4.294,3.475
		c1.029,1.139,1.253,1.679,1.52,3.792l0.076,0.515l0.464,1.844l-0.089,0.683c-0.105,0.255-0.144,0.644-0.121,1.118
		c-0.046,1.298-0.08,1.399-0.401,2.451l-0.422,1.354c-0.328,1.005-0.434,1.26-0.806,1.65c-1.669,1.969-2.341,2.595-3.396,3.229
		c-0.713,0.345-0.927,0.52-0.885,0.801c0.049,0.328,0.049,0.328,0.895,0.871l1.39,0.989c0.86,0.638,2.28,0.857,3.878,0.668
		c0.749-0.111,1.043-0.06,1.413,0.173c0.423,0.271,0.772,0.698,0.828,1.072c0.021,0.141,0.029,0.521-0.028,1.104l0.03,0.521
		L108.364,118.298z M92.054,95.087l-0.803,0.071c-0.795,0.118-1.646,1.153-1.667,1.969c-0.014,0.241,0.205,2.36,0.316,3.109
		c0.035,0.234,0.035,0.234,0.593,3.021l0.001,0.335c0.004,0.668,0.041,1.237,0.117,1.751c0.174,1.17,0.487,2.319,0.717,2.572
		c0.242,0.347,1.367,0.515,2.443,0.354c0.748-0.111,1.063-0.253,2.329-1.063l0.848-0.413c0.893-0.419,0.893-0.419,1.429-1.646
		c0.072-0.155,0.33-0.67,0.821-1.557c0.338-0.624,0.601-1.428,0.639-1.816c0.004-1.579-0.01-1.672-0.017-1.719
		c-0.049-0.328-0.78-2.037-1.083-2.469c-0.925-1.394-3.004-2.52-4.685-2.557l-0.815-0.022c-0.247-0.059-0.441-0.078-0.535-0.064
		L92.054,95.087z"/>
	<path fill="#ba0a13" d="M125.978,110.71c-0.414,0.109-0.734,0.205-0.734,0.205c-0.048,0.007-0.234,0.035-0.522,0.03l-0.467,0.069
		c-0.422,0.063-0.422,0.063-1.891,0.472c-0.414,0.109-0.741,0.158-1.022,0.199c-0.375,0.056-0.85,0.079-1.378,0.061
		c-0.382,0.009-0.716,0.011-0.903,0.039c-1.497,0.222-2.386,1.645-2.184,3.337c0.216,1.449,0.216,1.449-0.035,2.014
		c-0.298,0.569-0.638,0.859-1.245,0.949c-0.327,0.049-0.755,0.064-1.23,0.088l-0.943,0.092c-0.234,0.035-0.654,0.098-1.349,0.248
		l-0.468,0.069c-0.983,0.146-1.615-0.239-1.726-0.987c-0.069-0.468,0.067-1.158,0.403-2.117c0.245-0.609,0.369-1.059,0.395-1.206
		l0.088-1.017c0.052-0.294,0.145-0.643,0.275-1.045c0.264-0.805,0.433-1.595,0.549-2.425c0.056-0.917,0.117-1.787,0.18-2.656
		c0.052-0.295,0.137-0.691,0.398-1.829c0.202-0.891,0.384-1.922,0.537-3.14c0.098-0.636,0.208-1.179,0.34-1.581l0.4-1.494
		c0.156-0.884,0.266-1.426,0.498-3.087c0.044-0.341,0.089-0.682,0.127-1.071c0.045-0.341,0.027-0.147,0.118-0.496l0.137-0.69
		l0.116-0.83c0.088-1.018,0.146-1.265,0.525-2.899c0.189-0.984,0.325-1.674,0.312-1.768c0.31-2.103,0.549-2.425,2.187-2.668
		c0.188-0.028,0.421-0.063,0.662-0.05l0.71-0.058l1.724-0.304c0.188-0.028,0.856,0.303,1.232,0.583
		c0.271,0.199,0.526,0.639,0.886,1.447c0.128,0.22,0.323,0.573,0.601,1.154l0.764,1.273l1.302,2.006
		c0.492,0.74,0.777,1.367,1.11,2.321c0.251,0.728,0.265,0.822,0.832,1.742c0.222,0.206,0.364,0.52,0.514,0.88l0.453,1.128
		l0.521,0.927c0.216,0.494,0.426,0.941,0.582,1.349l0.306,0.767c0.142,0.313,0.378,0.614,0.634,1.053
		c0.305,0.434,0.176,0.213,0.432,0.654l0.724,1.327l0.333,0.955l0.317,0.527c0.128,0.219,0.257,0.439,0.337,0.667l0.537,1.354
		l0.324,0.574l0.628,1.006c0.194,0.354,0.392,0.708,0.533,1.021c0.21,0.447,0.406,0.8,0.635,1.054l0.762,0.939
		c0.478,0.646,0.83,1.407,0.92,2.015c0.104,0.702-0.168,1.125-0.869,1.229l-0.942,0.092c-0.622-0.003-1.098,0.02-1.379,0.061
		c-0.188,0.028-0.647,0.145-1.201,0.275c-0.415,0.109-0.782,0.211-1.11,0.26c-1.216,0.18-1.741-0.459-2.147-2.551
		c-0.152-1.029-0.349-1.383-1.242-2.254c-0.344-0.379-0.739-0.464-1.441-0.36L125.978,110.71z M119.661,98.114
		c-0.247,1.232-0.313,1.434-0.422,2.311c-0.179,1.365-0.224,1.707-0.448,2.457c-0.216,0.797-0.216,0.797-0.493,2.799
		c0.056,0.375,0.827,0.738,1.389,0.655l1.49-0.269c0.048-0.007,0.234-0.035,0.522-0.03l0.561-0.083
		c0.328-0.049,0.562-0.083,0.742-0.158l0.319-0.096l0.938-0.139c0.281-0.042,0.625-0.619,0.576-0.946
		c-0.034-0.233-0.034-0.233-0.648-1.147l-0.427-0.941l-0.319-0.861l-0.697-1.475l-0.373-0.901l-0.216-0.494
		c-0.259-0.774-0.529-1.308-0.671-1.622c-0.568-0.92-0.683-1.047-0.655-1.194c-0.083-0.227-0.306-0.768-0.611-1.535
		c-0.053-0.04-0.114-0.126-0.16-0.12L119.661,98.114z"/>
</g>
<g>
	<path fill="#ba0a13" d="M51.348,148.753c0.027,0.188,0.069,0.468,0.063,0.756l0.114,1.083c0.056,0.374,0.164,0.788,0.281,1.249
		c0.258,0.775,0.449,1.416,0.497,1.744l0.052,0.661c-0.017,0.863,0.014,1.386,0.063,1.712c0.271,1.825,0.788,4.665,0.966,5.213
		c0.374,1.236,0.6,2.111,0.689,2.72c0.223,1.497-0.134,2.315-1.164,2.468c-0.188,0.027-0.373,0.056-0.615,0.043
		c-0.428,0.016-0.755,0.064-0.803,0.072c-1.529,0.322-1.529,0.322-1.81,0.364c-1.685,0.25-2.25-0.336-2.604-2.722
		c-0.063-0.422-0.093-0.943-0.082-1.519c-0.026-1.144-0.015-1.385-0.091-1.899l-0.151-1.986c-0.027-0.188-0.027-0.188-0.592-3.021
		l-0.359-2.098c-0.152-1.03-0.279-2.206-0.326-3.491c0.005-0.287-0.016-0.428-0.022-0.475c-0.316-1.482-0.7-3.101-1.043-4.771
		l-0.19-1.598c-0.188-1.263-1.053-1.948-2.316-1.761c-0.422,0.063-0.422,0.063-1.503,0.511c-0.361,0.149-0.728,0.251-1.149,0.313
		c-1.217,0.182-2.075-0.457-2.263-1.72c-0.028-0.188-0.056-0.375-0.044-0.615l-0.023-0.476l-0.25-1.684
		c-0.118-0.796,0.749-1.402,2.34-1.639c0.421-0.063,0.849-0.078,1.611-0.096c0.521-0.029,0.903-0.039,1.137-0.073
		c0.188-0.028,0.469-0.069,0.742-0.157c0.781-0.212,1.383-0.35,1.617-0.384c0.233-0.035,0.708-0.058,1.369-0.108
		c0.617-0.043,1.139-0.072,1.513-0.129c0.468-0.068,1.067-0.206,1.757-0.403c0.647-0.145,1.155-0.268,1.39-0.302
		c0.281-0.043,0.755-0.064,1.371-0.108c0.474-0.022,0.81-0.024,1.091-0.066c0.279-0.042,0.693-0.151,1.201-0.274
		c0.368-0.102,0.642-0.19,0.922-0.232c0.328-0.049,0.684,0.09,1.065,0.416c0.546,0.445,0.606,0.532,0.759,1.562l0.265,0.821
		c0.185,0.594,0.301,1.055,0.35,1.383c0.118,0.795-0.706,2.018-1.421,2.027c-1.385,0.016-2.193,0.039-2.388,0.021
		c-0.481-0.024-0.957-0.002-1.425,0.067c-1.31,0.194-1.883,0.854-1.716,1.977c0.042,0.281,0.083,0.561,0.18,0.882
		c0.17,0.501,0.271,0.868,0.285,0.962c0.091,0.607,0.337,2.58,0.421,3.477L51.348,148.753z"/>
	<path fill="#ba0a13" d="M90.75,145.534l0.146,0.982l-0.023,1.773c-0.036,0.723-0.086,1.352-0.184,1.987
		c0.135,1.224-0.629,3.489-1.762,5.522c-0.345,0.577-0.643,1.146-0.934,1.764c-0.451,0.832-0.451,0.832-1.968,2.205
		c-1.56,1.428-1.56,1.428-2.82,1.949s-3.646,1.211-4.815,1.385c-4.21,0.625-5.797,0.573-9.179-0.313
		c-1.937-0.478-5.205-2.526-5.948-3.66c-0.31-0.479-0.674-0.999-1.093-1.559c-0.463-0.553-1.627-2.914-2.056-4.189
		c-0.286-0.962-0.937-3.734-1.117-4.951c-0.299-2.013-0.101-4.863,0.491-6.672c1.104-3.512,2.517-5.921,4.481-7.504
		c1.405-1.165,1.893-1.429,2.974-1.876c0.227-0.081,0.534-0.271,0.98-0.48c2.017-0.921,2.017-0.921,3.372-1.122
		c2.059-0.306,3.905-0.436,4.881-0.295c3.309,0.37,5.306,0.935,7.097,2.056c0.054,0.04,0.712,0.611,1.883,1.729
		c0.881,0.777,2.76,3.129,3.396,4.182c0.701,1.188,1.093,1.895,1.168,2.074c0.542,1.402,0.93,2.731,1.041,3.48
		c0.049,0.326,0.052,0.662,0.021,1.097L90.75,145.534z M83.477,142.932l-0.26-1.108l-0.318-0.527
		c-0.195-0.354-0.392-0.707-0.58-1.014c-0.271-0.533-0.91-1.3-1.865-2.258c-1.11-1.03-2.344-1.612-3.764-1.832
		c-0.194-0.02-0.488-0.071-0.883-0.156c-0.798-0.216-1.762-0.265-2.651-0.133c-1.824,0.271-4.219,1.535-5.723,3.002
		c-0.585,0.564-0.698,0.773-1.7,3.361c-0.113,0.207-0.568,2.618-0.606,3.006c0.015,0.094,0.054,1.331,0.201,3.605
		c0.881,3.359,0.881,3.359,1.76,5.094c0.474,0.935,2.349,2.617,3.658,3.379c1.51,0.828,3.17,1.06,5.51,0.712
		c2.245-0.333,2.786-0.558,4.118-1.567c2.099-1.65,2.099-1.65,2.88-3.153c0.443-0.878,0.483-0.933,0.624-1.91
		c0.006-0.288,0.006-0.288,0.164-0.837c0.254-1.186,0.414-3.648,0.275-4.584c-0.076-0.515-0.207-1.069-0.391-1.664L83.477,142.932z"
		/>
	<path fill="#ba0a13" d="M116.188,147.497l-0.208-1.404l-0.321-1.195c-0.082-0.227-0.109-0.414-0.123-0.508
		c-0.042-0.281-0.024-0.81-0.028-1.479c0.03-0.77,0.032-1.391-0.051-1.953c-0.042-0.281-0.157-0.741-0.287-1.296
		c-0.109-0.415-0.158-0.742-0.193-0.976c-0.021-0.141-0.036-0.568-0.079-1.184l-0.056-0.375c-0.049-0.326-0.271-0.533-0.459-0.506
		c-0.233,0.035-0.227,0.082-0.59,0.854l-0.306,0.523l-0.158,0.215c-0.717,0.967-0.877,1.182-0.976,1.483
		c-0.14,0.355-0.364,0.771-0.716,1.302c-0.246,0.275-0.279,0.376-0.488,1.221c-0.479,1.602-1.231,2.334-2.635,2.543
		c-1.639,0.242-1.785,0.217-3.125-1.401c-0.243-0.347-0.627-0.673-1.814-1.596c-0.169-0.166-0.337-0.333-0.498-0.452
		c-0.505-0.499-0.915-1.012-1.374-1.518c-0.633-0.719-1.224-1.157-1.551-1.108c-0.234,0.034-0.379,0.343-0.316,0.764
		c0.021,0.141,0.021,0.141,0.321,1.196l0.063,0.755c0.219,0.829,0.219,0.829,0.247,1.017c0.034,0.233,0.076,0.514,0.19,1.932
		c0.031,0.521,0.094,0.942,0.163,1.41c0.034,0.234,0.122,0.508,0.212,0.782c0.163,0.453,0.258,0.774,0.265,0.821
		c0.014,0.094,0.01,0.381-0.021,0.816c-0.038,0.388-0.024,0.481,0.038,0.902l0.181,1.217c0.063,0.421,0.083,0.562,0.239,0.969
		c0.028,0.188,0.102,0.367,0.102,0.367c0.007,0.047-0.035,0.723-0.044,1.633c-0.026,0.146-0.005,0.287,0.016,0.428
		c0,0,0.198,0.688,0.633,2.01c0.198,0.688,0.322,1.195,0.356,1.43c0.174,1.17-0.319,1.721-1.629,1.916
		c-0.234,0.034-0.475,0.021-0.809,0.023c-0.429,0.017-0.811,0.025-0.903,0.039c-0.047,0.007-0.415,0.109-0.922,0.232l-0.469,0.069
		c-1.216,0.181-1.982-0.471-2.19-1.874c-0.063-0.422-0.038-0.903,0.04-1.346c0.132-0.401,0.183-0.696,0.176-0.743l-0.172-0.835
		l-0.101-1.324c-0.007-0.047-0.089-0.273-0.178-0.547l-0.198-1.023c-0.069-0.468-0.118-0.795-0.128-1.176
		c0.004-0.623-0.02-1.098-0.041-1.238c-0.007-0.046-0.034-0.233-0.122-0.508c-0.158-0.741-0.205-0.734-0.489-2.652l-0.351-1.717
		c-0.095-0.321-0.137-0.603-0.157-0.742c-0.014-0.094-0.023-0.475-0.053-0.996c-0.102-1.324-0.185-1.887-0.671-5.162l-0.036-0.567
		c-0.072-0.802-0.107-1.371-0.115-1.418c0,0-0.021-0.14-0.089-0.273l-0.035-0.233l-0.271-2.16c-0.014-0.094-0.11-0.414-0.266-0.821
		c-0.597-1.441-0.691-1.763-0.782-2.37c-0.159-1.076,0.305-1.814,1.247-1.907l0.802-0.071l2.193-0.373
		c1.684-0.25,2.516,0.2,3.629,1.9c0.863,1.307,0.979,1.433,1.844,2.117l0.484,0.358l0.525,0.64c0.525,0.639,0.693,0.806,1.151,1.312
		c0.384,0.325,0.732,0.752,1.083,1.178c0.304,0.433,0.364,0.521,0.693,0.806c0.396,0.42,0.733,0.752,0.801,0.886l0.561,0.873
		c0.121,0.173,0.329,0.286,0.469,0.265c0.281-0.041,0.626-0.619,0.93-1.477c0.27-0.757,0.39-0.919,0.647-1.436
		c0.179-0.408,0.356-0.818,0.495-1.173c0.019-0.194,0.133-0.402,0.338-0.624l0.432-0.639c0.279-0.375,0.353-0.529,0.596-1.14
		c0.112-0.208,0.178-0.409,0.284-0.663c0.536-0.893,0.874-1.518,1.014-1.873c0.157-0.549,0.268-1.092,0.386-1.588
		c0.326-1.339,1.179-2.039,2.724-2.269c0.28-0.042,0.28-0.042,1.704-0.109c1.243-0.328,1.243-0.328,1.431-0.356
		c1.216-0.18,1.66,0.232,1.854,1.542c0.098,0.655,0.071,0.803-0.046,2.589c-0.058,0.583-0.012,1.532,0.085,2.188l0.084,0.562
		c0.15,0.694,0.273,1.202,0.288,1.296c0.014,0.094,0.041,0.281,0.029,0.521c0.06,1.044,0.151,1.986,0.234,2.548
		c0.021,0.141,0.049,0.328,0.13,0.555l0.042,0.28c0.014,0.094,0.045,0.95,0.072,2.094c-0.013,0.241,0.022,0.475,0.05,0.662
		c0.035,0.234,0.07,0.469,0.151,0.694c0.265,0.821,0.442,1.369,0.456,1.463c0.007,0.047,0.041,0.281,0.036,0.568
		c-0.012,0.241,0.029,0.522,0.071,0.803c0.069,0.468,0.069,0.468,0.404,1.757l0.076,0.515c0.104,0.702,0.104,0.702,0.156,2.655
		c-0.006,0.288,0.022,0.475,0.05,0.662c0.028,0.187,0.063,0.421,0.138,0.602c0.162,0.453,0.265,0.821,0.271,0.868
		s-0.005,0.287-0.003,0.622c-0.019,0.193,0.017,0.428,0.051,0.661c0.042,0.281,0.049,0.328,0.47,1.557
		c0.177,0.548,0.321,1.195,0.384,1.617c0.146,0.982-0.318,1.72-1.114,1.839c-0.187,0.027-0.187,0.027-1.331,0.054
		c-0.147-0.026-0.241-0.012-0.381,0.009c-0.188,0.027-0.188,0.027-0.814,0.313c-0.134,0.067-0.32,0.095-0.555,0.13
		c-1.356,0.201-2.611-0.521-2.671-1.564c-0.145-1.938-0.197-2.936-0.204-2.982c0.089-1.017,0.087-1.351-0.052-2.287
		c-0.091-0.608-0.214-1.116-0.337-1.624L116.188,147.497z"/>
	<path fill="#ba0a13" d="M142.446,147.233c-0.414,0.109-0.734,0.204-0.734,0.204c-0.048,0.007-0.234,0.035-0.522,0.03l-0.467,0.069
		c-0.422,0.063-0.422,0.063-1.892,0.472c-0.414,0.109-0.742,0.158-1.021,0.199c-0.375,0.057-0.851,0.079-1.379,0.062
		c-0.381,0.009-0.715,0.011-0.902,0.038c-1.497,0.223-2.386,1.646-2.184,3.338c0.215,1.45,0.215,1.45-0.035,2.014
		c-0.298,0.569-0.638,0.859-1.245,0.949c-0.327,0.049-0.755,0.064-1.231,0.088l-0.942,0.092c-0.234,0.034-0.655,0.097-1.35,0.248
		l-0.468,0.069c-0.983,0.146-1.614-0.239-1.726-0.987c-0.069-0.469,0.067-1.158,0.404-2.116c0.244-0.61,0.367-1.059,0.395-1.206
		l0.087-1.018c0.053-0.295,0.145-0.643,0.276-1.045c0.263-0.805,0.433-1.594,0.549-2.424c0.055-0.918,0.116-1.788,0.18-2.658
		c0.052-0.294,0.137-0.689,0.397-1.828c0.202-0.891,0.385-1.922,0.538-3.141c0.098-0.636,0.208-1.178,0.34-1.58l0.399-1.494
		c0.156-0.885,0.267-1.426,0.498-3.086c0.045-0.342,0.09-0.684,0.128-1.071c0.045-0.342,0.026-0.147,0.118-0.496l0.136-0.689
		l0.116-0.83c0.089-1.019,0.146-1.266,0.525-2.899c0.189-0.984,0.326-1.675,0.313-1.768c0.31-2.103,0.549-2.426,2.187-2.668
		c0.188-0.028,0.421-0.063,0.661-0.051l0.709-0.057l1.725-0.305c0.188-0.027,0.857,0.303,1.233,0.582
		c0.271,0.199,0.526,0.639,0.886,1.447c0.127,0.22,0.323,0.573,0.6,1.153l0.765,1.274l1.302,2.006
		c0.492,0.74,0.776,1.367,1.11,2.322c0.251,0.728,0.265,0.821,0.831,1.741c0.223,0.206,0.365,0.52,0.514,0.88l0.454,1.129
		l0.521,0.926c0.217,0.494,0.427,0.941,0.583,1.35l0.305,0.767c0.142,0.313,0.378,0.614,0.634,1.054
		c0.306,0.434,0.177,0.213,0.432,0.652l0.725,1.328l0.333,0.955l0.316,0.526c0.129,0.22,0.257,0.44,0.338,0.667l0.536,1.355
		l0.325,0.573l0.627,1.007c0.195,0.354,0.393,0.707,0.534,1.021c0.21,0.445,0.405,0.799,0.635,1.053l0.762,0.939
		c0.478,0.646,0.83,1.406,0.92,2.015c0.104,0.702-0.168,1.124-0.869,1.229l-0.942,0.093c-0.623-0.004-1.098,0.02-1.379,0.061
		c-0.188,0.028-0.648,0.145-1.202,0.274c-0.414,0.109-0.781,0.212-1.109,0.261c-1.216,0.18-1.741-0.459-2.147-2.551
		c-0.153-1.029-0.349-1.383-1.243-2.254c-0.344-0.38-0.738-0.465-1.44-0.36L142.446,147.233z M136.128,134.638
		c-0.247,1.232-0.313,1.434-0.423,2.311c-0.178,1.365-0.224,1.707-0.447,2.457c-0.216,0.798-0.216,0.798-0.494,2.8
		c0.056,0.374,0.828,0.737,1.389,0.654l1.49-0.269c0.048-0.008,0.234-0.035,0.521-0.029l0.563-0.084
		c0.328-0.049,0.561-0.083,0.741-0.158l0.32-0.096l0.937-0.139c0.28-0.041,0.626-0.619,0.577-0.946
		c-0.034-0.233-0.034-0.233-0.649-1.147l-0.426-0.94l-0.319-0.861l-0.698-1.474l-0.372-0.902l-0.216-0.494
		c-0.259-0.773-0.53-1.308-0.672-1.621c-0.567-0.921-0.682-1.047-0.654-1.193c-0.083-0.228-0.306-0.769-0.611-1.535
		c-0.054-0.041-0.115-0.127-0.162-0.121L136.128,134.638z"/>
	<path fill="#ba0a13" d="M177.086,147.064c0.063,0.422-0.369,1.06-0.896,1.376c-0.393,0.25-0.393,0.25-1.656,0.438
		c-1.403,0.209-1.785,0.218-2.367,0.16c-1.861-0.297-2.123-0.449-5.547-2.572c-1.529-0.968-2.343-1.613-3.613-2.763
		c-0.451-0.46-1-0.616-1.562-0.533c-0.469,0.069-0.588,0.23-0.598,0.806c-0.031,0.436-0.016,0.863,0.032,1.191
		c0.049,0.326,0.049,0.326,0.531,1.643c0.197,0.688,0.396,1.375,0.472,1.891c0.132,0.889-0.173,1.412-0.969,1.53l-0.374,0.056
		c-0.334,0.002-0.521,0.029-0.567,0.036l-3.075,0.552c-0.842,0.125-1.5-0.446-1.646-1.429c-0.083-0.562-0.126-1.177-0.077-1.806
		c0.075-1.111,0.047-1.299-0.022-1.767c-0.042-0.28-0.083-0.562-0.165-0.788c-0.156-0.407-0.237-0.635-0.237-0.635l-0.109-1.705
		c0,0-0.021-0.141-0.089-0.273c-0.089-0.273-0.172-0.835-0.332-1.911c-0.048-0.328-0.048-0.328-0.226-2.167
		c-0.328-1.242-0.328-1.242-0.418-1.851c-0.209-1.403-0.209-1.403-0.274-2.493c-0.022-0.475-0.08-1.184-0.24-2.26
		c-0.048-0.328-0.09-0.608-0.165-0.789l-0.164-0.788l-0.046-0.949l-0.322-1.53c-0.093-0.943-0.093-0.943-0.127-1.178
		c-0.104-0.701-0.316-1.482-0.567-2.211c-0.34-1.001-0.414-1.182-0.463-1.509c-0.341-2.293,0.309-3.394,2.181-3.671
		c0.562-0.084,0.562-0.084,1.992-0.105c0.101,0.033,0.288,0.006,0.616-0.043l0.467-0.069c0.461-0.116,0.742-0.158,0.742-0.158
		l1.651-0.149c2.218-0.52,2.218-0.52,2.639-0.582c2.667-0.396,3.753-0.175,6.736,1.247c1.859,0.919,1.859,0.919,4.295,3.475
		c1.03,1.139,1.253,1.679,1.519,3.791l0.077,0.516l0.464,1.844l-0.089,0.683c-0.106,0.255-0.145,0.643-0.121,1.118
		c-0.047,1.298-0.079,1.398-0.401,2.45l-0.421,1.354c-0.329,1.006-0.434,1.26-0.808,1.65c-1.668,1.969-2.34,2.595-3.394,3.229
		c-0.714,0.345-0.927,0.521-0.886,0.801c0.049,0.327,0.049,0.327,0.896,0.872l1.39,0.988c0.859,0.638,2.278,0.857,3.877,0.668
		c0.748-0.111,1.044-0.059,1.412,0.173c0.423,0.272,0.773,0.698,0.829,1.072c0.021,0.141,0.028,0.522-0.027,1.104l0.029,0.521
		L177.086,147.064z M160.778,123.854l-0.804,0.07c-0.795,0.118-1.646,1.152-1.668,1.969c-0.012,0.242,0.207,2.361,0.318,3.109
		c0.034,0.234,0.034,0.234,0.592,3.021l0.002,0.334c0.003,0.669,0.04,1.237,0.116,1.752c0.174,1.17,0.488,2.318,0.717,2.572
		c0.243,0.346,1.367,0.514,2.443,0.354c0.749-0.11,1.063-0.253,2.328-1.063l0.849-0.413c0.894-0.419,0.894-0.419,1.429-1.647
		c0.073-0.153,0.331-0.67,0.821-1.556c0.337-0.624,0.601-1.429,0.639-1.816c0.005-1.579-0.009-1.672-0.016-1.719
		c-0.049-0.327-0.78-2.036-1.084-2.47c-0.925-1.393-3.004-2.52-4.684-2.557l-0.815-0.022c-0.248-0.059-0.443-0.077-0.537-0.063
		L160.778,123.854z"/>
</g>
<g>
	<path fill="#ba0a13" d="M68.422,193.555l-0.208-1.403l-0.321-1.195c-0.082-0.228-0.109-0.415-0.123-0.508
		c-0.042-0.281-0.024-0.81-0.028-1.479c0.029-0.771,0.032-1.392-0.052-1.953c-0.041-0.281-0.157-0.742-0.287-1.297
		c-0.109-0.414-0.158-0.741-0.192-0.975c-0.021-0.141-0.036-0.569-0.081-1.185l-0.056-0.374c-0.048-0.327-0.27-0.534-0.457-0.506
		c-0.234,0.034-0.228,0.081-0.59,0.853l-0.306,0.523l-0.159,0.216c-0.718,0.967-0.877,1.182-0.976,1.482
		c-0.139,0.355-0.364,0.771-0.716,1.303c-0.245,0.275-0.278,0.376-0.488,1.22c-0.479,1.602-1.23,2.335-2.635,2.543
		c-1.638,0.243-1.785,0.218-3.125-1.401c-0.243-0.346-0.626-0.672-1.814-1.595c-0.169-0.167-0.337-0.333-0.498-0.452
		c-0.504-0.499-0.915-1.013-1.373-1.518c-0.633-0.72-1.224-1.158-1.552-1.109c-0.233,0.035-0.379,0.344-0.316,0.765
		c0.021,0.14,0.021,0.14,0.32,1.195l0.064,0.756c0.219,0.829,0.219,0.829,0.247,1.016c0.034,0.233,0.076,0.515,0.19,1.932
		c0.029,0.522,0.092,0.942,0.162,1.411c0.034,0.234,0.123,0.508,0.212,0.781c0.163,0.454,0.258,0.774,0.265,0.821
		c0.015,0.094,0.009,0.382-0.021,0.816c-0.039,0.388-0.024,0.481,0.038,0.903l0.181,1.217c0.063,0.421,0.083,0.561,0.239,0.969
		c0.027,0.188,0.103,0.367,0.103,0.367c0.007,0.047-0.037,0.723-0.044,1.633c-0.026,0.146-0.006,0.287,0.016,0.428
		c0,0,0.197,0.688,0.632,2.01c0.198,0.688,0.321,1.195,0.356,1.43c0.174,1.17-0.318,1.721-1.629,1.916
		c-0.233,0.034-0.474,0.021-0.809,0.023c-0.429,0.016-0.811,0.024-0.904,0.039c-0.046,0.006-0.413,0.109-0.92,0.232l-0.469,0.069
		c-1.216,0.181-1.982-0.471-2.19-1.875c-0.063-0.421-0.039-0.903,0.038-1.345c0.132-0.402,0.185-0.697,0.178-0.744l-0.172-0.834
		l-0.101-1.324c-0.008-0.047-0.089-0.273-0.178-0.548l-0.199-1.022c-0.069-0.468-0.118-0.796-0.127-1.177
		c0.004-0.622-0.021-1.097-0.041-1.237c-0.007-0.047-0.035-0.234-0.122-0.508c-0.158-0.742-0.205-0.734-0.49-2.653l-0.351-1.717
		c-0.096-0.32-0.137-0.602-0.158-0.741c-0.014-0.094-0.022-0.475-0.052-0.997c-0.101-1.323-0.184-1.886-0.67-5.161l-0.036-0.568
		c-0.072-0.802-0.108-1.37-0.115-1.417c0,0-0.021-0.141-0.09-0.274l-0.034-0.233l-0.271-2.159c-0.015-0.094-0.11-0.414-0.266-0.821
		c-0.598-1.442-0.692-1.763-0.782-2.371c-0.16-1.076,0.305-1.814,1.247-1.906l0.802-0.071l2.193-0.373
		c1.684-0.25,2.515,0.199,3.629,1.899c0.862,1.308,0.977,1.434,1.844,2.118l0.483,0.357l0.526,0.641
		c0.525,0.639,0.692,0.805,1.15,1.311c0.383,0.326,0.732,0.752,1.084,1.179c0.303,0.433,0.364,0.52,0.693,0.806
		c0.396,0.419,0.732,0.752,0.8,0.885l0.561,0.873c0.122,0.174,0.33,0.286,0.47,0.266c0.281-0.042,0.626-0.619,0.929-1.477
		c0.27-0.758,0.391-0.919,0.648-1.436c0.178-0.409,0.356-0.818,0.495-1.174c0.019-0.193,0.131-0.401,0.338-0.623l0.431-0.639
		c0.279-0.376,0.352-0.529,0.597-1.14c0.111-0.208,0.178-0.409,0.283-0.664c0.537-0.893,0.874-1.517,1.013-1.872
		c0.158-0.55,0.27-1.092,0.387-1.588c0.327-1.34,1.179-2.039,2.724-2.27c0.281-0.041,0.281-0.041,1.705-0.109
		c1.242-0.328,1.242-0.328,1.43-0.355c1.217-0.18,1.661,0.232,1.855,1.542c0.097,0.655,0.07,0.802-0.046,2.589
		c-0.058,0.582-0.013,1.531,0.085,2.188l0.083,0.561c0.151,0.695,0.274,1.203,0.288,1.297c0.015,0.094,0.042,0.28,0.03,0.521
		c0.059,1.043,0.15,1.986,0.234,2.547c0.021,0.141,0.048,0.328,0.13,0.555l0.042,0.281c0.014,0.094,0.045,0.95,0.071,2.094
		c-0.012,0.24,0.023,0.475,0.051,0.662c0.035,0.233,0.069,0.467,0.15,0.694c0.266,0.821,0.442,1.368,0.457,1.462
		c0.007,0.047,0.041,0.281,0.036,0.569c-0.013,0.241,0.029,0.521,0.071,0.803c0.069,0.468,0.069,0.468,0.404,1.757l0.076,0.514
		c0.104,0.703,0.104,0.703,0.156,2.656c-0.007,0.287,0.021,0.475,0.049,0.662c0.027,0.187,0.063,0.42,0.139,0.601
		c0.162,0.454,0.265,0.821,0.271,0.868s-0.006,0.288-0.004,0.623c-0.018,0.193,0.017,0.428,0.052,0.661
		c0.041,0.281,0.048,0.328,0.47,1.556c0.177,0.549,0.32,1.196,0.383,1.617c0.146,0.982-0.318,1.721-1.114,1.84
		c-0.187,0.027-0.187,0.027-1.33,0.054c-0.147-0.026-0.241-0.013-0.381,0.009c-0.188,0.027-0.188,0.027-0.815,0.313
		c-0.133,0.067-0.32,0.095-0.555,0.13c-1.355,0.201-2.612-0.521-2.671-1.564c-0.145-1.938-0.196-2.936-0.203-2.982
		c0.089-1.018,0.086-1.352-0.054-2.288c-0.09-0.607-0.212-1.116-0.336-1.623L68.422,193.555z"/>
	<path fill="#ba0a13" d="M94.68,193.292c-0.414,0.109-0.735,0.204-0.735,0.204c-0.047,0.007-0.233,0.034-0.521,0.03l-0.468,0.069
		c-0.421,0.063-0.421,0.063-1.891,0.472c-0.414,0.109-0.742,0.158-1.023,0.199c-0.374,0.057-0.849,0.078-1.377,0.062
		c-0.381,0.009-0.716,0.011-0.902,0.038c-1.498,0.223-2.387,1.645-2.184,3.337c0.215,1.45,0.215,1.45-0.035,2.015
		c-0.298,0.569-0.639,0.859-1.246,0.949c-0.327,0.049-0.756,0.064-1.231,0.087l-0.941,0.092c-0.234,0.035-0.656,0.098-1.351,0.249
		l-0.468,0.068c-0.982,0.146-1.613-0.238-1.725-0.986c-0.069-0.469,0.066-1.158,0.403-2.117c0.244-0.609,0.368-1.059,0.395-1.205
		l0.088-1.018c0.053-0.295,0.144-0.643,0.275-1.045c0.264-0.805,0.433-1.595,0.548-2.425c0.056-0.917,0.118-1.787,0.181-2.657
		c0.053-0.295,0.137-0.689,0.398-1.828c0.202-0.891,0.384-1.922,0.538-3.141c0.097-0.636,0.206-1.179,0.338-1.58l0.4-1.494
		c0.156-0.885,0.267-1.427,0.499-3.087c0.044-0.341,0.089-0.683,0.127-1.071c0.046-0.341,0.026-0.147,0.118-0.495l0.137-0.69
		l0.115-0.83c0.089-1.018,0.147-1.265,0.526-2.899c0.188-0.984,0.325-1.675,0.312-1.768c0.31-2.103,0.55-2.425,2.187-2.667
		c0.188-0.028,0.422-0.063,0.662-0.051l0.709-0.058l1.725-0.304c0.188-0.028,0.857,0.303,1.233,0.582
		c0.269,0.198,0.524,0.639,0.885,1.446c0.128,0.22,0.324,0.573,0.601,1.154l0.764,1.273l1.303,2.007
		c0.49,0.739,0.775,1.367,1.108,2.321c0.252,0.728,0.267,0.821,0.833,1.741c0.222,0.207,0.364,0.521,0.514,0.881l0.454,1.128
		l0.52,0.927c0.218,0.494,0.427,0.941,0.583,1.349l0.305,0.768c0.143,0.313,0.379,0.613,0.635,1.054
		c0.304,0.433,0.176,0.213,0.432,0.652l0.723,1.328l0.334,0.954l0.317,0.527c0.128,0.22,0.257,0.439,0.338,0.667l0.535,1.354
		l0.325,0.573l0.628,1.008c0.195,0.354,0.392,0.706,0.533,1.021c0.211,0.446,0.405,0.8,0.635,1.054l0.762,0.938
		c0.478,0.646,0.829,1.407,0.92,2.015c0.104,0.702-0.168,1.125-0.869,1.229l-0.943,0.093c-0.622-0.004-1.096,0.02-1.377,0.061
		c-0.188,0.027-0.648,0.145-1.203,0.274c-0.414,0.109-0.782,0.212-1.109,0.26c-1.216,0.181-1.741-0.459-2.147-2.55
		c-0.153-1.029-0.349-1.383-1.243-2.255c-0.343-0.38-0.737-0.464-1.439-0.359L94.68,193.292z M88.363,180.696
		c-0.248,1.232-0.314,1.434-0.423,2.311c-0.18,1.365-0.225,1.707-0.447,2.457c-0.217,0.797-0.217,0.797-0.494,2.799
		c0.056,0.375,0.827,0.738,1.389,0.654l1.49-0.269c0.047-0.007,0.233-0.034,0.521-0.029l0.562-0.083
		c0.327-0.049,0.562-0.084,0.742-0.158l0.32-0.096l0.936-0.139c0.281-0.041,0.626-0.619,0.577-0.947
		c-0.035-0.233-0.035-0.233-0.648-1.146l-0.426-0.941l-0.32-0.861l-0.697-1.474l-0.373-0.901l-0.217-0.494
		c-0.258-0.773-0.528-1.309-0.671-1.621c-0.566-0.921-0.681-1.047-0.655-1.194c-0.081-0.228-0.306-0.769-0.609-1.535
		c-0.055-0.04-0.115-0.126-0.162-0.12L88.363,180.696z"/>
	<path fill="#ba0a13" d="M113.8,178.45c0.028,0.188,0.069,0.469,0.063,0.756l0.114,1.083c0.056,0.374,0.164,0.788,0.281,1.249
		c0.258,0.775,0.448,1.416,0.497,1.744l0.052,0.662c-0.017,0.863,0.014,1.385,0.063,1.712c0.271,1.825,0.788,4.665,0.965,5.212
		c0.373,1.236,0.599,2.111,0.689,2.72c0.222,1.497-0.134,2.315-1.164,2.468c-0.188,0.028-0.374,0.056-0.614,0.044
		c-0.428,0.016-0.757,0.064-0.803,0.071c-1.53,0.322-1.53,0.322-1.812,0.364c-1.685,0.25-2.248-0.336-2.603-2.722
		c-0.063-0.422-0.093-0.943-0.083-1.518c-0.025-1.145-0.014-1.386-0.09-1.9l-0.152-1.986c-0.027-0.188-0.027-0.188-0.591-3.02
		l-0.359-2.1c-0.153-1.029-0.279-2.205-0.328-3.49c0.007-0.287-0.014-0.428-0.021-0.475c-0.315-1.483-0.699-3.1-1.042-4.771
		l-0.19-1.598c-0.188-1.263-1.055-1.947-2.317-1.76c-0.422,0.063-0.422,0.063-1.502,0.51c-0.361,0.149-0.729,0.251-1.149,0.313
		c-1.216,0.182-2.077-0.456-2.265-1.72c-0.027-0.188-0.056-0.374-0.042-0.615l-0.023-0.476l-0.25-1.684
		c-0.118-0.796,0.749-1.402,2.34-1.639c0.421-0.063,0.849-0.078,1.611-0.096c0.521-0.029,0.902-0.039,1.136-0.073
		c0.188-0.028,0.469-0.069,0.742-0.158c0.782-0.211,1.383-0.349,1.617-0.383c0.234-0.035,0.709-0.058,1.37-0.108
		c0.615-0.043,1.138-0.073,1.511-0.129c0.469-0.069,1.069-0.206,1.758-0.404c0.648-0.144,1.156-0.266,1.391-0.301
		c0.281-0.042,0.755-0.064,1.37-0.108c0.475-0.022,0.81-0.024,1.09-0.066s0.695-0.151,1.203-0.274
		c0.368-0.102,0.641-0.189,0.922-0.231c0.328-0.049,0.683,0.089,1.065,0.415c0.545,0.445,0.604,0.532,0.758,1.562l0.266,0.821
		c0.185,0.594,0.301,1.055,0.349,1.383c0.118,0.795-0.705,2.018-1.42,2.027c-1.386,0.016-2.194,0.039-2.389,0.02
		c-0.48-0.023-0.957-0.001-1.424,0.068c-1.311,0.194-1.882,0.854-1.715,1.977c0.041,0.28,0.083,0.561,0.179,0.883
		c0.17,0.5,0.271,0.867,0.285,0.961c0.091,0.608,0.336,2.58,0.42,3.477L113.8,178.45z"/>
	<path fill="#ba0a13" d="M136.212,192.865c-0.795,0.118-1.497,0.222-1.831,0.224c-1.605,0.143-2.742,0.215-2.789,0.223
		c-0.047,0.007-0.5,0.17-1.142,0.361c-0.501,0.17-1.009,0.293-1.478,0.362c-1.871,0.278-2.998-0.56-3.276-2.431
		c-0.034-0.234-0.023-0.475-0.018-0.763c0.015-0.862,0.012-1.532-0.016-1.719c-0.007-0.047-0.09-0.274-0.185-0.595
		c-0.177-0.547-0.342-1.336-0.446-2.038c-0.159-1.076-0.181-1.216-0.183-2.842c-0.002-0.335-0.017-0.763-0.094-1.276
		c-0.076-0.516-0.076-0.516-0.482-2.607c-0.145-0.648-0.229-1.209-0.298-1.678c-0.049-0.326-0.097-0.654-0.098-0.989l-0.184-1.551
		c-0.056-0.374-0.378-1.904-0.646-3.061l-0.07-0.468c-0.048-0.328-0.048-0.328-0.274-2.828l-0.083-0.562
		c-0.057-0.374-0.07-0.468-0.24-0.969c-0.138-0.601-0.138-0.601-0.281-1.249c-0.035-0.234-0.165-0.789-0.403-1.758
		c-0.139-0.936,0.771-1.883,1.895-2.05c0.28-0.042,0.701-0.104,1.224-0.134c0.288,0.005,0.567-0.037,0.803-0.072
		c0.28-0.041,0.28-0.041,1.67-0.343l0.748-0.111c0.516-0.076,0.99-0.099,1.465-0.122c0.521-0.029,0.856-0.031,0.902-0.039
		l1.49-0.269c1.519-0.081,1.519-0.081,2.08-0.165l1.864-0.324c0.602-0.138,1.063-0.254,1.344-0.295
		c1.029-0.153,1.829,0.398,1.968,1.334c0.034,0.233,0.021,0.475,0.018,0.762c0.001,0.335-0.011,0.576-0.004,0.623
		c0.007,0.046,0.123,0.508,0.307,1.102c0.075,0.181,0.097,0.321,0.117,0.461c0.139,0.937-0.033,1.392-0.501,1.461
		c-0.28,0.042-0.709,0.058-1.29,0l-0.958-0.002c-0.982,0.146-1.123,0.168-1.271,0.142l-0.809,0.024l-0.936,0.14l-0.428,0.016
		l-2.908,0.384c-0.563,0.083-1.189,0.367-1.382,0.684c-0.278,0.375-0.453,1.453-0.362,2.063c0.083,0.561,0.538,1.688,0.758,1.895
		c0.277,0.246,1.114,0.409,1.676,0.326l1.35-0.249c0.863,0.016,0.863,0.016,1.385-0.014l0.756-0.065
		c0.24,0.013,0.428-0.016,0.521-0.029c0.188-0.027,0.188-0.027,1.156-0.267c0.569-0.037,1.331-0.054,2.281-0.1
		c0.661-0.05,1.353,0.421,1.429,0.936c0.007,0.047-0.004,0.287-0.049,0.629c-0.013,0.241,0.016,0.429,0.057,0.709
		c0.056,0.374,0.165,0.788,0.328,1.242c0.088,0.274,0.123,0.508,0.157,0.742c0.104,0.701-0.514,1.368-1.355,1.493
		c-0.094,0.014-0.816-0.023-2.075-0.123c-0.341-0.045-0.629-0.051-0.723-0.037c-0.046,0.008-0.367,0.103-0.828,0.219
		c-0.134,0.068-0.228,0.082-0.321,0.096c-0.187,0.027-0.187,0.027-0.854,0.031l-1.023,0.199c-0.046,0.008-0.233,0.035-0.474,0.023
		c-0.242-0.012-0.476,0.022-0.756,0.064c-0.702,0.104-1.229,0.421-1.587,0.904c-0.359,0.484-0.359,0.484-0.061,2.496l0.112,1.084
		c-0.005,0.287,0.03,0.521,0.065,0.755c0.139,0.937,0.556,2.452,0.854,3.173c0.365,0.854,1.258,1.391,2.301,1.332
		c0.717-0.01,3.017-0.304,4.7-0.554c0.608-0.091,0.656-0.098,2.004-0.681c0.227-0.081,0.501-0.17,0.734-0.205
		c0.749-0.11,1.433,0.314,1.529,0.969c0.035,0.234,0.03,0.521,0.032,0.855c-0.045,0.343-0.05,0.631-0.022,0.816
		c0.028,0.188,0.028,0.188,0.428,1.276c0.083,0.227,0.164,0.454,0.198,0.688c0.139,0.936-0.406,1.447-1.717,1.642
		c-0.515,0.076-0.515,0.076-2.828,0.277c-0.287-0.006-0.521,0.029-0.942,0.092c-0.234,0.034-0.234,0.034-1.163,0.221
		L136.212,192.865z"/>
</g>
<path fill="#ba0a13" d="M211.98,85.617c-7.479,13.194-10.988,29.799-9.089,43.192c3.588,25.293,27.001,42.889,52.294,39.302
	c25.294-3.589,42.889-27.001,39.302-52.294c-1.9-13.394-9.89-28.367-20.742-38.961L211.98,85.617z"/>
<g opacity="0.2">
	<g>
		<defs>
			<rect id="SVGID_1_" x="255.187" y="76.854" width="39.76" height="91.26"/>
		</defs>
		<clipPath id="SVGID_2_">
			<use xlink:href="#SVGID_1_"  overflow="visible"/>
		</clipPath>
		<path clip-path="url(#SVGID_2_)" fill="#010101" d="M283.95,117.312c-1.9-13.393-8.567-28.555-17.311-39.448l7.106-1.008
			c10.852,10.594,18.841,25.568,20.741,38.961c3.588,25.294-14.008,48.706-39.303,52.294
			C274.659,165.349,287.538,142.604,283.95,117.312"/>
	</g>
</g>
<path fill="#CDCCCC" d="M214.582,85.248l56.563-8.023c2.605-0.37,4.418-2.781,4.048-5.387c-0.874-6.163-6.579-10.45-12.742-9.576
	l-43.679,6.196c-6.163,0.874-10.451,6.579-9.577,12.742C209.564,83.805,211.976,85.617,214.582,85.248"/>
<path fill="#989898" d="M262.451,62.262l-15.231,2.16c6.163-0.875,11.868,3.413,12.742,9.577c0.37,2.605-1.443,5.017-4.048,5.386
	l15.23-2.16c2.605-0.37,4.417-2.781,4.048-5.387C274.318,65.675,268.614,61.389,262.451,62.262"/>
<g opacity="0.2">
	<g>
		<defs>
			<rect id="SVGID_3_" x="224.787" y="100.534" width="48.511" height="48.51"/>
		</defs>
		<clipPath id="SVGID_4_">
			<use xlink:href="#SVGID_3_"  overflow="visible"/>
		</clipPath>
		<path clip-path="url(#SVGID_4_)" fill="#ba0a13" d="M245.636,100.782c13.259-1.881,25.532,7.343,27.413,20.602
			c1.88,13.259-7.344,25.532-20.602,27.413c-13.26,1.88-25.532-7.344-27.413-20.603
			C223.153,114.936,232.377,102.663,245.636,100.782"/>
	</g>
</g>
<path fill="#010101" d="M206.151,98.622c0.388,0.143,0.787,0.18,1.168,0.126c0.847-0.121,1.603-0.689,1.92-1.548
	c1.219-3.301,2.656-6.467,4.275-9.429c0.439,0.02,0.887,0.002,1.338-0.063l56.563-8.022c3.913-0.555,6.646-4.19,6.091-8.104
	c-0.943-6.647-6.548-11.505-13.036-11.741l1.635-15.535l16.85-9.198c1.165-0.636,1.594-2.096,0.958-3.261l-4.679-8.574
	c-0.306-0.56-0.82-0.976-1.433-1.155c-0.611-0.18-1.269-0.109-1.829,0.196l-20.207,11.031c-2.103,1.152-3.505,3.259-3.751,5.631
	l-1.789,17.003c-0.139,1.319,0.818,2.503,2.139,2.642c1.321,0.138,2.504-0.819,2.643-2.139l1.789-17.007
	c0.083-0.807,0.562-1.521,1.275-1.913l18.095-9.877l2.376,4.354l-15.848,8.65c-0.692,0.378-1.155,1.073-1.237,1.857l-1.87,17.766
	l-41.219,5.846c-7.465,1.059-12.678,7.994-11.618,15.459c0.245,1.728,1.09,3.224,2.294,4.31c-1.628,3.033-3.077,6.257-4.314,9.606
	C204.269,96.779,204.905,98.162,206.151,98.622 M219.042,70.919l43.68-6.195c4.841-0.687,9.337,2.692,10.024,7.533
	c0.183,1.29-0.717,2.486-2.006,2.669l-56.563,8.024c-1.289,0.182-2.486-0.718-2.669-2.007c-0.061-0.424-0.087-0.845-0.086-1.261
	l40.683-5.771c1.314-0.186,2.229-1.403,2.042-2.717c-0.186-1.315-1.402-2.229-2.717-2.043l-38.387,5.445
	C214.403,72.666,216.524,71.276,219.042,70.919"/>
<path fill="#010101" d="M279.747,79.903c-0.865-1.007-2.382-1.123-3.39-0.259c-1.007,0.865-1.122,2.383-0.258,3.39
	c8.425,9.815,14.385,22.228,15.94,33.201c3.396,23.941-13.317,46.181-37.259,49.576c-23.94,3.396-46.18-13.317-49.576-37.259
	c-0.967-6.817-0.487-14.623,1.387-22.57c0.305-1.292-0.495-2.587-1.787-2.892c-1.292-0.304-2.587,0.496-2.892,1.788
	c-2.011,8.524-2.518,16.943-1.467,24.349c3.768,26.565,28.446,45.112,55.011,41.345c26.565-3.769,45.112-28.446,41.344-55.011
	C295.12,103.717,288.745,90.386,279.747,79.903"/>
<path fill="#010101" d="M271.776,133.472c1.281,0.345,2.6-0.416,2.945-1.697c0.933-3.476,1.147-7.058,0.639-10.646
	c-2.064-14.55-15.579-24.707-30.129-22.644c-14.549,2.063-24.707,15.579-22.643,30.129c2.063,14.55,15.578,24.707,30.129,22.643
	c7.482-1.061,14.189-5.272,18.399-11.556c0.739-1.104,0.444-2.596-0.659-3.334c-1.103-0.74-2.596-0.445-3.334,0.658
	c-3.451,5.149-8.948,8.603-15.083,9.473c-11.924,1.691-23.002-6.634-24.693-18.559c-1.691-11.926,6.634-23.003,18.559-24.694
	c11.925-1.692,23.003,6.634,24.694,18.559c0.418,2.944,0.242,5.88-0.522,8.725C269.734,131.81,270.494,133.128,271.776,133.472"/>
<path fill="#010101" d="M258.616,72.988l7.569-1.074c1.314-0.186,2.229-1.403,2.042-2.717c-0.186-1.314-1.403-2.229-2.717-2.042
	l-7.569,1.073c-1.313,0.187-2.229,1.403-2.042,2.718C256.085,72.26,257.302,73.174,258.616,72.988"/>
<path fill="#010101" d="M247.124,111.821c-0.632,0.09-1.201,0.426-1.584,0.936l-9.156,12.183c-0.797,1.062-0.583,2.567,0.478,3.366
	l12.183,9.154c0.53,0.4,1.173,0.545,1.781,0.459c0.609-0.086,1.186-0.404,1.584-0.936l9.156-12.183
	c0.383-0.509,0.547-1.15,0.458-1.781c-0.09-0.631-0.426-1.201-0.936-1.584l-12.183-9.156
	C248.395,111.896,247.754,111.731,247.124,111.821 M250.01,132.175l-8.34-6.269l6.268-8.34l8.34,6.269L250.01,132.175z"/>
</svg>
