<?xml version="1.0" encoding="utf-8"?>
<!-- Generator: Adobe Illustrator 16.0.0, SVG Export Plug-In . SVG Version: 6.00 Build 0)  -->
<!DOCTYPE svg PUBLIC "-//W3C//DTD SVG 1.1//EN" "http://www.w3.org/Graphics/SVG/1.1/DTD/svg11.dtd">
<svg version="1.1" id="Layer_1" xmlns="http://www.w3.org/2000/svg" xmlns:xlink="http://www.w3.org/1999/xlink" x="0px" y="0px"
	 width="538.121px" height="479.496px" viewBox="0 0 538.121 479.496" enable-background="new 0 0 538.121 479.496"
	 xml:space="preserve">
<path fill="#BA0A13" d="M500.005,126.371c11.134,18.586,19.813,37.958,26.136,57.74c6.736,20.476,0.699,23.976,11.98,60.199
	c-0.493,16.564,0.27,39.044-1.605,60.396c-6.42,13.768-1.563,49.635-14.627,58.334c-4.019,23.799-16.763,35.774-27.08,54.01
	c-5.52,8.518-11.533,16.758-18.031,24.678c-6.26,8.941-16.698,27.367-27.56,33.707c-5.085,11.184-336.666-5.271-381.956,3.697
	c-20.371,4.035-27.707-52.695-38.389-70.526c-16.414-27.399-23.89-42.233-26.136-57.739c-2.92-20.16,3.247-37.472,0.324-59.742
	c-5.214-26.094-2.097-35.342-2.5-60.5c9.102-9.289,3.793-32.582,6.428-58.688c6.982-18.851,16.04-36.979,27.08-54.01
	c22.078-34.063,52.081-63.735,89.252-86.003c18.586-11.134,37.958-19.813,57.74-26.135c19.181-7.325,36.924-6.786,60.199-3.391
	c23.524,3.811,40.313-1.413,60.396,1.605c24.191,9.875,42.271,3.703,58.334,6.036c17.912,5.417,31.787,7.374,54.011,27.08
	c19.977,15.956,32.965,24.059,47.425,38.966C475.885,90.992,488.87,107.785,500.005,126.371"/>
<g>
	<path fill="#FFFFFF" d="M99.723,203.121c-0.45,0.05-0.801,0.1-0.801,0.1c-0.05,0-0.25,0-0.55-0.05h-0.5c-0.45,0-0.45,0-2.05,0.2
		c-0.45,0.05-0.8,0.05-1.1,0.05c-0.4,0-0.9-0.05-1.45-0.15c-0.4-0.05-0.75-0.1-0.95-0.1c-1.6,0-2.75,1.35-2.8,3.15
		c0,1.55,0,1.55-0.351,2.1c-0.399,0.55-0.8,0.8-1.449,0.8c-0.351,0-0.801-0.05-1.301-0.1l-1-0.05c-0.25,0-0.699,0-1.449,0.05h-0.5
		c-1.051,0-1.65-0.5-1.65-1.3c0-0.5,0.25-1.2,0.75-2.15c0.35-0.6,0.55-1.05,0.6-1.2l0.25-1.05c0.101-0.3,0.25-0.65,0.45-1.05
		c0.4-0.8,0.7-1.6,0.95-2.45c0.2-0.95,0.4-1.85,0.6-2.75c0.101-0.3,0.25-0.7,0.7-1.85c0.351-0.9,0.7-1.95,1.05-3.2
		c0.2-0.65,0.4-1.2,0.601-1.6l0.649-1.5c0.301-0.9,0.5-1.45,1-3.15c0.101-0.35,0.2-0.7,0.301-1.1c0.1-0.35,0.05-0.15,0.199-0.5
		l0.25-0.7l0.25-0.85c0.25-1.05,0.351-1.3,1-2.95c0.351-1,0.601-1.7,0.601-1.8c0.649-2.15,0.95-2.45,2.7-2.45
		c0.199,0,0.449,0,0.699,0.05l0.75,0.05l1.851-0.05c0.2,0,0.85,0.45,1.2,0.8c0.25,0.25,0.449,0.75,0.699,1.65
		c0.101,0.25,0.25,0.65,0.45,1.3l0.601,1.45l1.05,2.3c0.399,0.85,0.6,1.55,0.8,2.6c0.15,0.8,0.15,0.9,0.6,1.95
		c0.2,0.25,0.301,0.6,0.4,1l0.3,1.25l0.4,1.05c0.149,0.55,0.3,1.05,0.399,1.5l0.2,0.85c0.101,0.35,0.3,0.7,0.5,1.2
		c0.25,0.5,0.15,0.25,0.351,0.75l0.55,1.5l0.2,1.05l0.25,0.6c0.1,0.25,0.199,0.5,0.25,0.75l0.35,1.5l0.25,0.65l0.5,1.15
		c0.15,0.4,0.3,0.8,0.4,1.15c0.149,0.5,0.3,0.9,0.5,1.2l0.649,1.1c0.4,0.75,0.65,1.6,0.65,2.25c0,0.75-0.351,1.15-1.101,1.15
		l-1-0.05c-0.649-0.1-1.149-0.15-1.449-0.15c-0.2,0-0.7,0.05-1.301,0.1c-0.449,0.05-0.85,0.1-1.199,0.1c-1.301,0-1.75-0.75-1.851-3
		c0-1.1-0.149-1.5-0.95-2.55c-0.3-0.45-0.699-0.6-1.449-0.6H99.723z M95.073,188.97c-0.45,1.25-0.55,1.45-0.8,2.35
		c-0.4,1.4-0.5,1.75-0.851,2.5c-0.35,0.8-0.35,0.8-0.949,2.851c0,0.4,0.75,0.9,1.35,0.9l1.6-0.05c0.051,0,0.25,0,0.551,0.05h0.6
		c0.35,0,0.6,0,0.8-0.05l0.351-0.05h1c0.3,0,0.75-0.55,0.75-0.9c0-0.25,0-0.25-0.5-1.3l-0.301-1.05l-0.199-0.95l-0.5-1.65l-0.25-1
		l-0.15-0.55c-0.15-0.85-0.35-1.45-0.45-1.8c-0.45-1.05-0.55-1.2-0.5-1.35c-0.05-0.25-0.2-0.85-0.399-1.7
		c-0.051-0.05-0.101-0.15-0.15-0.15L95.073,188.97z"/>
	<path fill="#FFFFFF" d="M119.422,198.671c0,0.7,0,0.7,0.2,1.7l0.101,1.25c0,0.85,0.1,1.15,0.55,1.45c0.399,0.3,0.95,0.45,1.5,0.45
		c0.35,0,0.7-0.05,1.05-0.15c0.3-0.1,0.55-0.15,0.55-0.15c0.101,0,0.8,0.1,1.851,0.25h0.25c0.1,0,0.199,0,0.3-0.05
		c0.45-0.05,0.8-0.1,0.899-0.1c0.75,0,1.45,0.75,1.551,1.65v0.7l0.1,2.15c0,1.05-0.75,1.6-2.2,1.6c-0.6,0-1.25-0.05-2.2-0.25
		c-0.399-0.05-0.75-0.1-0.949-0.1c-0.15,0-0.45,0.05-0.9,0.1c-0.65,0.1-1.25,0.15-1.8,0.15c-0.7,0-0.7,0-3-0.25
		c-0.3-0.05-0.601-0.05-0.851-0.05c-0.3,0-0.3,0-1.35,0.25c-0.15,0.05-0.3,0.05-0.5,0.05c-1.1,0-1.8-0.75-1.8-2
		c0-0.65,0.05-1.4,0.149-2.2c0.101-0.95,0.15-1.25,0.15-1.75c0-0.65,0-0.65-0.25-2.3v-0.35c0-0.2,0-0.45,0.05-0.75
		c0.15-1.65,0.2-2.3,0.2-3.6c0-0.75-0.05-1.4-0.1-2.05c-0.101-0.75-0.15-1.3-0.15-1.5c0-0.15,0.05-0.6,0.1-1.2
		c0.051-0.45,0.2-2.9,0.2-3.2c0-0.5-0.05-1.45-0.2-2.75c-0.05-0.55-0.05-0.95-0.05-1.3c0-0.4,0-0.4,0.15-1.75
		c-0.15-2.4-0.2-3.65-0.25-3.75c-0.05-0.5-0.101-0.85-0.101-1.1c0-1.2,0.9-2.35,1.801-2.35c0.1,0,0.55,0.05,1.199,0.1
		c0.15,0.05,0.301,0.05,0.45,0.05h0.351c0.5-0.05,0.85-0.05,1.199-0.05c1.25,0,2,0.75,2,1.95c0,0.45,0,0.5-0.149,1.6
		c-0.05,0.3-0.05,0.65-0.05,1.15c0,0.4,0,0.85,0.05,1.4v0.8c0,0.4,0,0.4-0.101,1.65l0.051,1.65l-0.051,2.9l0.051,2.2l-0.051,3.1
		c-0.05,0.6-0.1,1.05-0.1,1.05c0.1,0.9,0.1,0.9,0.1,2.4V198.671L119.422,198.671z"/>
	<path fill="#FFFFFF" d="M154.773,208.321c0,0.45-0.55,1.05-1.15,1.3c-0.45,0.2-0.45,0.2-1.8,0.2c-1.5,0-1.9-0.05-2.5-0.2
		c-1.9-0.6-2.15-0.8-5.4-3.55c-1.449-1.25-2.199-2.05-3.35-3.45c-0.4-0.55-0.95-0.8-1.55-0.8c-0.5,0-0.65,0.15-0.75,0.75
		c-0.101,0.45-0.15,0.9-0.15,1.25c0,0.35,0,0.35,0.3,1.8c0.101,0.75,0.2,1.5,0.2,2.05c0,0.95-0.399,1.45-1.25,1.45h-0.399
		c-0.351-0.05-0.551-0.05-0.601-0.05l-3.3,0.1c-0.9,0-1.5-0.7-1.5-1.75c0-0.6,0.05-1.25,0.2-1.9c0.25-1.15,0.25-1.35,0.25-1.85
		c0-0.3,0-0.6-0.05-0.85c-0.101-0.45-0.15-0.7-0.15-0.7l0.15-1.8c0,0,0-0.15-0.051-0.3c-0.05-0.3-0.05-0.9-0.05-2.05
		c0-0.35,0-0.35,0.101-2.3c-0.15-1.35-0.15-1.35-0.15-2c0-1.5,0-1.5,0.1-2.65c0.051-0.5,0.101-1.25,0.101-2.4
		c0-0.35,0-0.65-0.05-0.85l-0.051-0.85l0.101-1l-0.101-1.65c0.051-1,0.051-1,0.051-1.25c0-0.75-0.101-1.6-0.25-2.4
		c-0.2-1.1-0.25-1.3-0.25-1.65c0-2.45,0.85-3.5,2.85-3.5c0.6,0,0.6,0,2.101,0.2c0.101,0.05,0.301,0.05,0.65,0.05h0.5
		c0.5-0.05,0.8-0.05,0.8-0.05l1.75,0.1c2.4-0.2,2.4-0.2,2.851-0.2c2.85,0,3.949,0.4,6.85,2.35c1.8,1.25,1.8,1.25,3.95,4.3
		c0.899,1.35,1.05,1.95,1,4.2v0.55l0.2,2l-0.2,0.7c-0.15,0.25-0.25,0.65-0.3,1.15c-0.25,1.35-0.301,1.45-0.801,2.5l-0.649,1.35
		c-0.5,1-0.65,1.25-1.101,1.6c-2.05,1.8-2.85,2.351-4.05,2.851c-0.8,0.25-1.05,0.4-1.05,0.7c0,0.35,0,0.35,0.8,1.05l1.3,1.25
		c0.801,0.8,2.25,1.25,3.95,1.3c0.8,0,1.101,0.1,1.45,0.4c0.4,0.35,0.7,0.85,0.7,1.25c0,0.15-0.05,0.55-0.2,1.15l-0.05,0.55
		L154.773,208.321L154.773,208.321z M141.322,181.52l-0.85-0.05c-0.851,0-1.9,0.95-2.051,1.8c-0.05,0.25-0.149,2.5-0.149,3.3
		c0,0.25,0,0.25,0.149,3.25l-0.05,0.35c-0.1,0.7-0.149,1.3-0.149,1.85c0,1.25,0.149,2.5,0.35,2.8c0.2,0.4,1.35,0.75,2.5,0.75
		c0.8,0,1.15-0.1,2.6-0.75l0.95-0.3c1-0.3,1-0.3,1.75-1.5c0.101-0.15,0.45-0.65,1.101-1.5c0.449-0.6,0.85-1.4,0.949-1.8
		c0.25-1.65,0.25-1.75,0.25-1.8c0-0.35-0.5-2.25-0.75-2.75c-0.75-1.6-2.75-3.1-4.5-3.4l-0.85-0.15c-0.25-0.1-0.45-0.15-0.55-0.15
		L141.322,181.52z"/>
	<path fill="#FFFFFF" d="M169.622,209.122c-0.85,0-1.6,0-1.95-0.05c-1.699-0.1-2.899-0.2-2.949-0.2c-0.051,0-0.551,0.1-1.25,0.2
		c-0.551,0.1-1.101,0.15-1.601,0.15c-2,0-3.05-1.05-3.05-3.05c0-0.25,0.05-0.5,0.1-0.8c0.15-0.9,0.25-1.6,0.25-1.8
		c0-0.05-0.05-0.3-0.1-0.65c-0.1-0.6-0.15-1.45-0.15-2.2c0-1.15,0-1.3,0.25-3c0.051-0.35,0.101-0.8,0.101-1.35
		c0-0.55,0-0.55-0.101-2.8c-0.05-0.7-0.05-1.3-0.05-1.8c0-0.35,0-0.7,0.05-1.05l0.051-1.65c0-0.4-0.101-2.05-0.2-3.3v-0.5
		c0-0.35,0-0.35,0.149-3v-0.6c0-0.4,0-0.5-0.1-1.05c-0.05-0.65-0.05-0.65-0.1-1.35c0-0.25-0.051-0.85-0.15-1.9
		c0-1,1.1-1.85,2.3-1.85c0.3,0,0.75,0,1.3,0.05c0.301,0.05,0.601,0.05,0.851,0.05c0.3,0,0.3,0,1.8-0.1h0.8
		c0.55,0,1.05,0.05,1.55,0.1c0.551,0.05,0.9,0.1,0.95,0.1l1.601-0.05c1.6,0.15,1.6,0.15,2.199,0.15l2-0.05
		c0.65-0.05,1.15-0.1,1.45-0.1c1.101,0,1.851,0.7,1.851,1.7c0,0.25-0.051,0.5-0.101,0.8c-0.05,0.35-0.1,0.6-0.1,0.65
		c0,0.05,0.05,0.55,0.149,1.2c0.051,0.2,0.051,0.35,0.051,0.5c0,1-0.25,1.45-0.75,1.45c-0.301,0-0.75-0.05-1.351-0.2l-1-0.15
		c-1.05,0-1.2,0-1.35-0.05l-0.851-0.1h-1l-0.449-0.05l-3.101-0.05c-0.6,0-1.3,0.2-1.55,0.5c-0.35,0.35-0.7,1.45-0.7,2.1
		c0,0.6,0.3,1.851,0.5,2.101c0.25,0.3,1.101,0.6,1.7,0.6l1.45-0.05c0.899,0.15,0.899,0.15,1.45,0.2l0.8,0.05
		c0.25,0.05,0.45,0.05,0.55,0.05c0.2,0,0.2,0,1.25-0.1c0.6,0.05,1.4,0.15,2.4,0.25c0.699,0.05,1.35,0.65,1.35,1.2
		c0,0.05-0.05,0.3-0.15,0.65c-0.05,0.25-0.05,0.45-0.05,0.75c0,0.4,0.05,0.85,0.15,1.35c0.05,0.3,0.05,0.55,0.05,0.8
		c0,0.75-0.75,1.35-1.65,1.35c-0.1,0-0.85-0.15-2.149-0.45c-0.351-0.1-0.65-0.15-0.75-0.15c-0.05,0-0.4,0.05-0.9,0.1
		c-0.149,0.05-0.25,0.05-0.35,0.05c-0.2,0-0.2,0-0.9-0.1l-1.1,0.05c-0.05,0-0.25,0-0.5-0.05c-0.25-0.05-0.5-0.05-0.8-0.05
		c-0.75,0-1.351,0.25-1.801,0.7c-0.449,0.45-0.449,0.45-0.449,2.6l-0.051,1.15c-0.05,0.3-0.05,0.55-0.05,0.8c0,1,0.2,2.65,0.4,3.45
		c0.25,0.95,1.1,1.65,2.2,1.75c0.75,0.1,3.199,0.15,5,0.15c0.649,0,0.699,0,2.199-0.4c0.25-0.05,0.551-0.1,0.801-0.1
		c0.8,0,1.449,0.55,1.449,1.25c0,0.25-0.05,0.55-0.1,0.9c-0.1,0.35-0.15,0.65-0.15,0.85s0,0.2,0.25,1.4
		c0.051,0.25,0.101,0.5,0.101,0.75c0,1-0.65,1.45-2.05,1.45c-0.551,0-0.551,0-3-0.15c-0.301-0.05-0.551-0.05-1-0.05
		c-0.25,0-0.25,0-1.25,0.05L169.622,209.122L169.622,209.122z"/>
	<path fill="#FFFFFF" d="M196.822,203.121c-0.45,0.05-0.8,0.1-0.8,0.1c-0.05,0-0.25,0-0.55-0.05h-0.5c-0.45,0-0.45,0-2.051,0.2
		c-0.449,0.05-0.8,0.05-1.1,0.05c-0.4,0-0.9-0.05-1.45-0.15c-0.399-0.05-0.75-0.1-0.95-0.1c-1.601,0-2.75,1.35-2.8,3.15
		c0,1.55,0,1.55-0.35,2.1c-0.4,0.55-0.8,0.8-1.45,0.8c-0.35,0-0.8-0.05-1.3-0.1l-1-0.05c-0.25,0-0.7,0-1.45,0.05h-0.5
		c-1.05,0-1.65-0.5-1.65-1.3c0-0.5,0.25-1.2,0.75-2.15c0.351-0.6,0.551-1.05,0.601-1.2l0.25-1.05c0.1-0.3,0.25-0.65,0.45-1.05
		c0.399-0.8,0.699-1.6,0.949-2.45c0.2-0.95,0.4-1.85,0.601-2.75c0.1-0.3,0.25-0.7,0.7-1.85c0.35-0.9,0.699-1.95,1.05-3.2
		c0.2-0.65,0.399-1.2,0.6-1.6l0.65-1.5c0.3-0.9,0.5-1.45,1-3.15c0.1-0.35,0.2-0.7,0.3-1.1c0.1-0.35,0.05-0.15,0.2-0.5l0.25-0.7
		l0.25-0.85c0.25-1.05,0.35-1.3,1-2.95c0.35-1,0.6-1.7,0.6-1.8c0.65-2.15,0.95-2.45,2.7-2.45c0.2,0,0.45,0,0.7,0.05l0.75,0.05
		l1.85-0.05c0.2,0,0.851,0.45,1.2,0.8c0.25,0.25,0.45,0.75,0.7,1.65c0.1,0.25,0.25,0.65,0.45,1.3l0.6,1.45l1.05,2.3
		c0.4,0.85,0.601,1.55,0.8,2.6c0.15,0.8,0.15,0.9,0.601,1.95c0.2,0.25,0.3,0.6,0.399,1l0.301,1.25l0.399,1.05
		c0.15,0.55,0.3,1.05,0.4,1.5l0.2,0.85c0.1,0.35,0.3,0.7,0.5,1.2c0.25,0.5,0.149,0.25,0.35,0.75l0.55,1.5l0.2,1.05l0.25,0.6
		c0.1,0.25,0.2,0.5,0.25,0.75l0.35,1.5l0.25,0.65l0.5,1.15c0.15,0.4,0.301,0.8,0.4,1.15c0.15,0.5,0.3,0.9,0.5,1.2l0.65,1.1
		c0.399,0.75,0.649,1.6,0.649,2.25c0,0.75-0.35,1.15-1.1,1.15l-1-0.05c-0.65-0.1-1.15-0.15-1.45-0.15c-0.2,0-0.7,0.05-1.3,0.1
		c-0.45,0.05-0.851,0.1-1.2,0.1c-1.3,0-1.75-0.75-1.85-3c0-1.1-0.15-1.5-0.95-2.55c-0.3-0.45-0.7-0.6-1.45-0.6H196.822z
		 M192.172,188.97c-0.449,1.25-0.55,1.45-0.8,2.35c-0.399,1.4-0.5,1.75-0.85,2.5c-0.351,0.8-0.351,0.8-0.95,2.851
		c0,0.4,0.75,0.9,1.35,0.9l1.601-0.05c0.05,0,0.25,0,0.55,0.05h0.6c0.351,0,0.601,0,0.801-0.05l0.35-0.05h1
		c0.3,0,0.75-0.55,0.75-0.9c0-0.25,0-0.25-0.5-1.3l-0.3-1.05l-0.2-0.95l-0.5-1.65l-0.25-1l-0.15-0.55
		c-0.149-0.85-0.35-1.45-0.449-1.8c-0.45-1.05-0.551-1.2-0.5-1.35c-0.051-0.25-0.2-0.85-0.4-1.7c-0.05-0.05-0.1-0.15-0.15-0.15
		L192.172,188.97z"/>
	<path fill="#FFFFFF" d="M212.321,209.171c-0.95,0-1.7-0.4-2.05-1.05c-0.15-0.4-0.25-1.4-0.25-3.05c0-0.35,0.05-0.65,0.1-1.15
		c0.05-0.25,0.101-0.45,0.101-0.5l-0.2-2.75c0-0.6,0.1-2.7,0.149-3.15c0.051-0.45,0.101-0.75,0.101-0.75l-0.101-1.85l0.051-1
		l-0.051-1.4l0.101-1l-0.15-2l0.05-1.8c0-0.05,0-0.25-0.05-0.55c-0.05-0.7-0.05-1.5-0.05-2.3v-1.25c0.05-0.85,0.05-1.5,0.05-1.7
		c0-1.35-0.05-1.65-0.35-3.4v-0.35c0-2,0.5-2.65,2-2.65c0.75,0,1.399,0,2.05,0.05c0.25,0.05,0.45,0.05,0.5,0.05l2.25-0.1l1.35,0.1
		l1.351-0.05c0.1,0,0.7,0.1,1.6,0.2l1.05,0.15c2.25,0.35,4.75,1.2,6.602,2.3c0.35,0.25,0.75,0.5,1.2,0.75l0.85,0.45
		c0.65,0.35,2.4,2.3,3.2,3.6c0.6,0.95,1.6,2.95,2.1,4.25c0.75,1.9,1.05,3.601,1.05,6.3c0,3.5-0.949,6.4-3.25,9.901
		c-1,1.5-2.35,2.65-4.55,3.75c-3.05,1.6-4.801,2.1-7.5,2.1l-7.4-0.2L212.321,209.171z M219.171,181.37l-1.3-0.1
		c-0.7,0-1.45,0.6-1.45,1.15l0.2,2c0.05,1.45,0.05,1.45,0.101,3.25l-0.101,1.1c-0.05,0.3-0.05,0.65-0.05,0.9c0,0.45,0,0.45,0.2,1.8
		l-0.101,2.55v0.45c0.051,0.4,0.051,0.7,0.051,0.7l-0.2,2.15l0.2,1.8l-0.051,0.5c-0.05,0.35-0.1,0.8-0.1,1.35
		c0,1.6,0.4,2.05,1.8,2.25l1,0.15c0.65,0.1,1.15,0.15,1.4,0.15c1.05,0,2.85-0.6,4.55-1.45c0.15-0.1,0.9-0.7,2.2-1.851
		c0.85-0.75,0.85-0.85,1.35-2.2c0.15-0.45,0.4-1.05,0.7-1.75c0.5-1.1,0.75-2,0.75-2.85c0-1.85-0.25-3.55-0.7-4.55
		c-1.2-2.5-1.6-3.35-1.75-3.55c-0.05-0.05-0.05-0.1-1.649-1.85c-0.45-0.45-2.601-1.35-4.051-1.65l-0.75-0.2
		c-0.55-0.2-0.949-0.3-1.05-0.3L219.171,181.37z"/>
	<path fill="#FFFFFF" d="M243.721,194.221l0.05-1.05c0-0.15-0.15-0.55-0.45-1.1l-0.25-0.55l-0.2-0.75
		c-0.55-1.6-1.149-2.85-1.899-3.9c-0.65-0.9-0.7-1-1.051-1.75c-0.1-0.35-0.3-0.7-0.5-1.05c-0.649-1.1-0.649-1.1-0.8-1.7
		c-0.1-0.25-0.1-0.25-0.55-1.3c-0.85-1.95-1.45-3.7-1.45-4.25c0-0.7,0.601-1.3,1.351-1.3c0.149,0,0.35,0,0.6,0.05
		c0.55,0.05,0.95,0.1,1.1,0.1c0.051,0,0.301,0,0.65-0.05h0.4c0.649,0,1.35,0.3,1.699,0.7c0.351,0.5,0.5,0.85,0.9,2.55
		c0.1,0.5,0.25,0.85,0.45,1.05c0.2,0.35,0.1,0.2,0.3,0.5c0.25,0.45,0.25,0.5,0.6,1.2c0.351,0.65,0.75,1.4,1.25,2.1
		c0.101,0.25,0.351,0.75,0.7,1.6c0.2,0.35,0.351,0.6,0.5,0.6c0.351,0,0.7-0.8,1.55-3.3c0.15-0.4,0.2-0.5,0.5-0.95
		c0.25-0.35,0.5-0.85,0.75-1.4c0.051-0.25,0.2-0.5,0.351-0.75l0.35-0.55c0.15-0.2,0.25-0.45,0.3-0.75l0.301-1.15
		c0.149-0.65,1-1.45,1.5-1.5c0.05,0,0.6,0.1,1.35,0.2c0.15,0.05,0.3,0.05,0.4,0.05c0.149,0,0.3,0,0.399-0.05
		c0.75-0.1,1.3-0.15,1.351-0.15c0.75,0,1.3,0.8,1.3,1.9c0,0.95-0.05,1.05-0.601,2.05c-0.1,0.2-0.1,0.2-0.35,0.65
		c-0.3,0.65-0.55,1.2-0.8,1.65c-0.15,0.25-0.3,0.5-0.4,0.85c-0.149,0.55-0.35,1.05-0.55,1.45c-0.2,0.45-0.4,0.9-0.65,1.25
		c-0.3,0.6-0.35,0.6-0.55,1.2l-0.45,1.05l-0.399,0.7l-0.4,1c-0.25,0.55-0.55,1.1-0.85,1.7c-1,2-1.351,3.05-1.351,3.75
		c0,0.25,0,0.25,0.15,1.6c0.05,0.25,0.05,0.5,0.05,0.7c0,0.35-0.05,0.5-0.2,1.4c-0.1,0.6-0.149,1.1-0.149,1.5
		c0,0.15,0.05,0.75,0.1,1.6v0.7v0.6c-0.05,0.85-0.1,1.45-0.1,1.5c0,0.3,0.05,0.7,0.2,1.15c0.25,0.9,0.25,1,0.25,1.45
		c0,1.65-0.4,2.25-1.65,2.25c-0.25,0-0.25,0-1.4-0.2c-0.1-0.05-0.25-0.05-0.449-0.05c-0.15,0-0.351,0-0.551,0.05
		c-1.199,0.15-1.25,0.15-1.5,0.15c-1.149,0-1.8-0.5-1.8-1.4c0-0.75,0-0.75,0.55-3.2c0.15-0.6,0.2-1.1,0.2-1.65
		c0-0.8-0.05-1.55-0.149-2.35c-0.2-1.15-0.2-1.3-0.2-1.9c0-0.45,0-0.8,0.1-1.4c0.05-0.6,0.2-2.3,0.2-2.35L243.721,194.221z"/>
	<path fill="#FFFFFF" d="M279.22,198.671c0,0.7,0,0.7,0.199,1.7l0.102,1.25c0,0.85,0.1,1.15,0.549,1.45c0.4,0.3,0.951,0.45,1.5,0.45
		c0.351,0,0.701-0.05,1.051-0.15c0.3-0.1,0.55-0.15,0.55-0.15c0.102,0,0.801,0.1,1.852,0.25h0.25c0.1,0,0.199,0,0.3-0.05
		c0.45-0.05,0.8-0.1,0.899-0.1c0.75,0,1.45,0.75,1.551,1.65v0.7l0.1,2.15c0,1.05-0.75,1.6-2.199,1.6c-0.601,0-1.251-0.05-2.2-0.25
		c-0.4-0.05-0.75-0.1-0.949-0.1c-0.15,0-0.451,0.05-0.9,0.1c-0.649,0.1-1.25,0.15-1.801,0.15c-0.699,0-0.699,0-3-0.25
		c-0.3-0.05-0.6-0.05-0.85-0.05c-0.302,0-0.302,0-1.351,0.25c-0.149,0.05-0.301,0.05-0.5,0.05c-1.101,0-1.801-0.75-1.801-2
		c0-0.65,0.05-1.4,0.15-2.2c0.1-0.95,0.149-1.25,0.149-1.75c0-0.65,0-0.65-0.251-2.3v-0.35c0-0.2,0-0.45,0.05-0.75
		c0.15-1.65,0.201-2.3,0.201-3.6c0-0.75-0.051-1.4-0.101-2.05c-0.102-0.75-0.15-1.3-0.15-1.5c0-0.15,0.05-0.6,0.102-1.2
		c0.05-0.45,0.198-2.9,0.198-3.2c0-0.5-0.049-1.45-0.198-2.75c-0.052-0.55-0.052-0.95-0.052-1.3c0-0.4,0-0.4,0.15-1.75
		c-0.15-2.4-0.2-3.65-0.25-3.75c-0.05-0.5-0.1-0.85-0.1-1.1c0-1.2,0.899-2.35,1.8-2.35c0.101,0,0.55,0.05,1.2,0.1
		c0.149,0.05,0.3,0.05,0.448,0.05h0.352c0.5-0.05,0.851-0.05,1.2-0.05c1.25,0,2,0.75,2,1.95c0,0.45,0,0.5-0.15,1.6
		c-0.049,0.3-0.049,0.65-0.049,1.15c0,0.4,0,0.85,0.049,1.4v0.8c0,0.4,0,0.4-0.1,1.65l0.051,1.65l-0.051,2.9l0.051,2.2l-0.051,3.1
		c-0.051,0.6-0.101,1.05-0.101,1.05c0.101,0.9,0.101,0.9,0.101,2.4V198.671z"/>
	<path fill="#FFFFFF" d="M293.619,209.122c-1.3,0-1.949-0.75-1.949-2.3c0-0.7,0-0.7,0.301-2.45c0.049-0.15,0.049-0.3,0.049-0.5
		v-0.45c-0.149-1.15-0.199-2-0.199-2.15v-0.35l0.101-1.65c0-0.7,0-0.7,0.149-2.4l-0.25-4.7l0.199-4.3c-0.1-1.9-0.1-1.9-0.199-3.95
		c0-0.1,0.05-0.45,0.101-0.9c0.051-0.45,0.1-0.8,0.1-1.15c0-0.2,0-0.2-0.049-0.6c-0.051-0.2-0.201-1.3-0.4-3.3
		c0-1.55,0.75-2.45,2.101-2.45c0.301,0,0.551,0,0.75,0.05c0.399,0.05,0.649,0.1,0.649,0.1l1.851-0.15c0.101,0,0.801,0.4,1.051,0.55
		c0.399,0.35,0.649,0.85,0.649,1.4c0,0.35-0.051,0.75-0.101,1.15c-0.05,0.45-0.05,0.45-0.101,0.95c0,0.15-0.05,0.5-0.101,1.1
		l0.101,1.25l-0.101,1l0.051,0.9l-0.051,0.95l0.15,1.8c0,0.05,0,0.25-0.052,0.55c-0.049,0.25-0.049,0.45-0.049,0.7
		c0,0.75,0,1.95,0.049,2.2c0.052,0.4,0.052,0.7,0.052,0.7c0,0.2-0.052,0.6-0.15,1.1c-0.05,0.2-0.05,0.3-0.05,0.35l0.101,1.3
		c-0.149,1.3-0.149,1.3-0.149,1.45c0,0.25,0,0.25,0.3,1.75l-0.05,0.3l-0.051,0.75c0,0.65,0,0.65-0.05,1.2c0.149,1.2,0.3,2.5,0.3,2.9
		c0,0.05-0.05,0.3-0.101,0.65c-0.05,0.35-0.05,0.65-0.05,0.9c0,0.55,0.2,2.5,0.351,3.35c0.05,0.35,0.101,0.65,0.101,0.9
		c0,1-0.7,1.6-1.9,1.6c-0.25,0-0.25,0-1.3-0.1c-0.149-0.05-0.399-0.05-0.649-0.05c-0.101,0-0.351,0-0.7,0.05H293.619z"/>
	<path fill="#FFFFFF" d="M311.67,191.07c0.2,0.8,0.25,0.9,0.25,1.1c0.051,0.35,0.149,0.85,0.301,1.55c0.1,0.4,0.199,1,0.3,1.75
		c0.149,0.65,0.3,1.3,0.399,1.9c0.101,0.3,0.149,0.75,0.301,1.35c0.149-1.3,0.8-4.6,0.949-5.05l0.101-0.35l0.101-0.9l0.351-2.3
		c0.45-2.15,0.55-2.65,0.649-4.35c0.25-1.4,0.5-2.9,0.801-4.5l0.199-2.25c0.199-2.3,0.851-3.45,1.949-3.45
		c0.25,0,0.5,0.05,0.801,0.1c0.301,0.05,0.5,0.05,0.699,0.05c0.201,0,0.201,0,1.4-0.1c0.25-0.05,0.5-0.05,0.75-0.05
		c1.301,0,2.101,0.6,2.101,1.6c0,0.85-0.3,2.15-0.851,3.75c-0.399,1.3-0.449,1.45-0.949,4c-0.25,1.05-0.25,1.15-0.45,1.75l-0.2,1.35
		c-0.199,1.35-0.199,1.35-0.949,4.75c-0.551,2.35-0.602,2.75-0.801,4.4c-0.35,1.85-0.649,3.55-1.1,5.75
		c-0.301,1.35-0.451,2.15-0.451,2.55l-0.049,1.45c-0.101,1.35-1.15,2.4-2.501,2.4c-0.95,0-1.3-0.05-2.649-0.3l-2.95,0.25
		c-0.25-0.05-1.149-0.75-1.399-1.15c-0.251-0.35-0.251-0.35-0.65-3.351c-0.351-2.25-0.648-3.65-1.05-4.9l-0.25-1.05l-0.149-0.95
		c-0.301-1-0.65-2.15-1-3.45c-0.199-0.8-0.301-1.2-0.449-2.3c-0.352-2.15-0.602-3.351-0.75-3.9c-0.102-0.4-0.25-0.8-0.4-1.25
		c-0.2-0.7-0.551-2.25-0.75-3.15c-0.25-1.3-0.301-1.4-0.649-2.35c-1-2.65-1.351-3.85-1.351-4.35c0-0.9,0.799-1.6,1.75-1.6
		c0.199,0,0.5,0,0.8,0.05c0.5,0.05,0.95,0.05,1.149,0.05c0.301,0,0.601,0,0.951-0.05c0.5-0.05,0.898-0.1,1.199-0.1
		c1.199,0,2,1.25,2.051,3.351l0.1,0.7c0.3,1.25,0.55,2.5,0.75,3.851c0.05,0.3,0.2,0.75,0.351,1.35c0.101,0.65,0.399,1.95,0.801,3.85
		l0.149,0.6l0.101,0.95L311.67,191.07z"/>
	<path fill="#FFFFFF" d="M337.17,209.122c-0.851,0-1.601,0-1.95-0.05c-1.7-0.1-2.899-0.2-2.95-0.2c-0.05,0-0.55,0.1-1.25,0.2
		c-0.55,0.1-1.1,0.15-1.6,0.15c-2,0-3.052-1.05-3.052-3.05c0-0.25,0.052-0.5,0.101-0.8c0.149-0.9,0.25-1.6,0.25-1.8
		c0-0.05-0.049-0.3-0.101-0.65c-0.1-0.6-0.149-1.45-0.149-2.2c0-1.15,0-1.3,0.25-3c0.051-0.35,0.101-0.8,0.101-1.35
		c0-0.55,0-0.55-0.101-2.8c-0.049-0.7-0.049-1.3-0.049-1.8c0-0.35,0-0.7,0.049-1.05l0.051-1.65c0-0.4-0.1-2.05-0.2-3.3v-0.5
		c0-0.35,0-0.35,0.149-3v-0.6c0-0.4,0-0.5-0.101-1.05c-0.05-0.65-0.05-0.65-0.1-1.35c0-0.25-0.051-0.85-0.15-1.9
		c0-1,1.101-1.85,2.301-1.85c0.3,0,0.75,0,1.301,0.05c0.3,0.05,0.6,0.05,0.85,0.05c0.3,0,0.3,0,1.8-0.1h0.802
		c0.55,0,1.05,0.05,1.55,0.1c0.55,0.05,0.898,0.1,0.95,0.1l1.6-0.05c1.601,0.15,1.601,0.15,2.201,0.15l2-0.05
		c0.648-0.05,1.148-0.1,1.449-0.1c1.101,0,1.851,0.7,1.851,1.7c0,0.25-0.05,0.5-0.101,0.8c-0.05,0.35-0.101,0.6-0.101,0.65
		c0,0.05,0.051,0.55,0.15,1.2c0.05,0.2,0.05,0.35,0.05,0.5c0,1-0.25,1.45-0.75,1.45c-0.3,0-0.75-0.05-1.352-0.2l-1-0.15
		c-1.05,0-1.198,0-1.35-0.05l-0.85-0.1h-1l-0.451-0.05l-3.101-0.05c-0.6,0-1.301,0.2-1.551,0.5c-0.35,0.35-0.699,1.45-0.699,2.1
		c0,0.6,0.301,1.851,0.5,2.101c0.25,0.3,1.101,0.6,1.699,0.6l1.451-0.05c0.899,0.15,0.899,0.15,1.449,0.2l0.801,0.05
		c0.25,0.05,0.449,0.05,0.55,0.05c0.2,0,0.2,0,1.25-0.1c0.602,0.05,1.399,0.15,2.4,0.25c0.7,0.05,1.351,0.65,1.351,1.2
		c0,0.05-0.051,0.3-0.149,0.65c-0.052,0.25-0.052,0.45-0.052,0.75c0,0.4,0.052,0.85,0.15,1.35c0.051,0.3,0.051,0.55,0.051,0.8
		c0,0.75-0.751,1.35-1.649,1.35c-0.102,0-0.852-0.15-2.15-0.45c-0.35-0.1-0.65-0.15-0.75-0.15c-0.051,0-0.4,0.05-0.9,0.1
		c-0.149,0.05-0.25,0.05-0.35,0.05c-0.2,0-0.2,0-0.9-0.1l-1.1,0.05c-0.051,0-0.25,0-0.5-0.05c-0.25-0.05-0.5-0.05-0.801-0.05
		c-0.75,0-1.351,0.25-1.8,0.7c-0.45,0.45-0.45,0.45-0.45,2.6l-0.05,1.15c-0.051,0.3-0.051,0.55-0.051,0.8c0,1,0.199,2.65,0.4,3.45
		c0.25,0.95,1.1,1.65,2.199,1.75c0.75,0.1,3.201,0.15,5,0.15c0.649,0,0.701,0,2.201-0.4c0.25-0.05,0.55-0.1,0.8-0.1
		c0.8,0,1.45,0.55,1.45,1.25c0,0.25-0.052,0.55-0.101,0.9c-0.101,0.35-0.149,0.65-0.149,0.85s0,0.2,0.25,1.4
		c0.05,0.25,0.1,0.5,0.1,0.75c0,1-0.65,1.45-2.05,1.45c-0.55,0-0.55,0-3.001-0.15c-0.299-0.05-0.549-0.05-1-0.05
		c-0.25,0-0.25,0-1.25,0.05L337.17,209.122L337.17,209.122z"/>
	<path fill="#FFFFFF" d="M351.368,209.171c-0.949,0-1.699-0.4-2.051-1.05c-0.148-0.4-0.25-1.4-0.25-3.05
		c0-0.35,0.051-0.65,0.102-1.15c0.05-0.25,0.101-0.45,0.101-0.5l-0.201-2.75c0-0.6,0.102-2.7,0.15-3.15
		c0.051-0.45,0.1-0.75,0.1-0.75l-0.1-1.85l0.051-1l-0.051-1.4l0.1-1l-0.148-2l0.05-1.8c0-0.05,0-0.25-0.05-0.55
		c-0.051-0.7-0.051-1.5-0.051-2.3v-1.25c0.051-0.85,0.051-1.5,0.051-1.7c0-1.35-0.051-1.65-0.352-3.4v-0.35c0-2,0.5-2.65,2.001-2.65
		c0.75,0,1.399,0,2.05,0.05c0.25,0.05,0.45,0.05,0.5,0.05l2.25-0.1l1.352,0.1l1.35-0.05c0.102,0,0.7,0.1,1.602,0.2l1.05,0.15
		c2.25,0.35,4.751,1.2,6.601,2.3c0.351,0.25,0.75,0.5,1.199,0.75l0.852,0.45c0.649,0.35,2.399,2.3,3.199,3.6
		c0.601,0.95,1.601,2.95,2.101,4.25c0.75,1.9,1.051,3.601,1.051,6.3c0,3.5-0.95,6.4-3.25,9.901c-1,1.5-2.351,2.65-4.551,3.75
		c-3.05,1.6-4.8,2.1-7.5,2.1l-7.4-0.2L351.368,209.171z M358.219,181.37l-1.3-0.1c-0.701,0-1.451,0.6-1.451,1.15l0.201,2
		c0.049,1.45,0.049,1.45,0.1,3.25l-0.1,1.1c-0.052,0.3-0.052,0.65-0.052,0.9c0,0.45,0,0.45,0.2,1.8l-0.101,2.55v0.45
		c0.051,0.4,0.051,0.7,0.051,0.7l-0.2,2.15l0.2,1.8l-0.051,0.5c-0.049,0.35-0.101,0.8-0.101,1.35c0,1.6,0.4,2.05,1.802,2.25l1,0.15
		c0.649,0.1,1.149,0.15,1.399,0.15c1.049,0,2.851-0.6,4.55-1.45c0.149-0.1,0.899-0.7,2.2-1.851c0.851-0.75,0.851-0.85,1.351-2.2
		c0.149-0.45,0.399-1.05,0.699-1.75c0.5-1.1,0.75-2,0.75-2.85c0-1.85-0.25-3.55-0.699-4.55c-1.199-2.5-1.601-3.35-1.75-3.55
		c-0.051-0.05-0.051-0.1-1.65-1.85c-0.449-0.45-2.6-1.35-4.05-1.65l-0.75-0.2c-0.55-0.2-0.95-0.3-1.05-0.3L358.219,181.37z"/>
</g>
<g>
	<path fill="#FFFFFF" d="M96.073,242.721c0,0.198,0,0.5-0.05,0.8l-0.05,1.148c0,0.4,0.05,0.852,0.1,1.352
		c0.15,0.852,0.25,1.55,0.25,1.898l-0.05,0.701c-0.15,0.899-0.2,1.449-0.2,1.801c0,1.949,0.1,5,0.2,5.601
		c0.2,1.351,0.3,2.3,0.3,2.948c0,1.602-0.5,2.4-1.6,2.4c-0.2,0-0.4,0-0.65-0.05c-0.45-0.05-0.8-0.05-0.85-0.05
		c-1.65,0.1-1.65,0.1-1.95,0.1c-1.8,0-2.3-0.699-2.3-3.25c0-0.449,0.05-1,0.149-1.6c0.15-1.201,0.2-1.451,0.2-2l0.15-2.102
		c0-0.199,0-0.199-0.15-3.25l-0.05-2.25c0-1.101,0.05-2.351,0.2-3.699c0.05-0.301,0.05-0.45,0.05-0.5
		c-0.101-1.602-0.25-3.352-0.351-5.15l0.051-1.701c0-1.35-0.801-2.199-2.15-2.199c-0.45,0-0.45,0-1.65,0.301
		c-0.399,0.101-0.8,0.148-1.25,0.148c-1.3,0-2.1-0.799-2.1-2.148c0-0.2,0-0.4,0.05-0.65l0.05-0.5v-1.8c0-0.851,1-1.351,2.7-1.351
		c0.45,0,0.9,0.049,1.7,0.149c0.55,0.05,0.95,0.101,1.2,0.101c0.2,0,0.5,0,0.8-0.051c0.85-0.1,1.5-0.15,1.75-0.15
		s0.75,0.052,1.45,0.102c0.649,0.051,1.2,0.102,1.6,0.102c0.5,0,1.15-0.051,1.9-0.15c0.7-0.051,1.25-0.1,1.5-0.1
		c0.3,0,0.8,0.049,1.45,0.1c0.5,0.05,0.85,0.1,1.149,0.1s0.75-0.05,1.3-0.1c0.4-0.051,0.7-0.1,1-0.1c0.351,0,0.7,0.199,1.051,0.6
		c0.5,0.55,0.55,0.65,0.55,1.75l0.149,0.9c0.101,0.648,0.15,1.149,0.15,1.5c0,0.85-1.05,2-1.8,1.899c-1.45-0.2-2.3-0.301-2.5-0.351
		c-0.5-0.102-1-0.149-1.5-0.149c-1.4,0-2.101,0.601-2.101,1.8c0,0.301,0,0.6,0.051,0.95c0.1,0.55,0.149,0.949,0.149,1.05
		c0,0.649-0.05,2.75-0.1,3.7L96.073,242.721z"/>
	<path fill="#FFFFFF" d="M130.823,256.271c0,0.25,0.1,0.699,0.25,1.25c0.2,0.6,0.3,1.15,0.3,1.6c0,1.15-0.85,2.301-1.8,2.301
		c-0.3,0-0.3,0-1.6-0.2c-0.15-0.05-0.351-0.05-0.551-0.05c-0.149,0-0.3,0-0.449,0.05c-0.65,0.101-1.15,0.149-1.2,0.149
		c-0.95,0-1.7-0.949-1.7-2.199c0-0.601,0-0.601,0.35-2.351c0.051-0.2,0.051-0.45,0.051-0.7s0-0.25-0.101-1.35l0.101-1.102
		c-0.051-0.699-0.2-4.799-0.2-5.199l0.05-2.551c0-0.75-0.45-2.051-0.8-2.199c-0.2-0.15-0.2-0.15-2.3-0.301
		c-0.051,0-0.25,0.051-0.551,0.149c-0.449,0.149-0.949,0.2-1.35,0.2c-0.45,0-1.35-0.051-2.5-0.102c-0.35-0.049-0.65-0.049-0.9-0.049
		c-1.05,0-2,0.25-2.199,0.649c-0.15,0.2-0.15,0.2-0.4,3.55c0.1,1.25,0.1,1.25,0.1,1.352c0,0.299,0,0.75-0.05,1.398
		c-0.05,0.2-0.05,0.4-0.05,0.551c0,0.4,0.05,0.9,0.2,1.449c0.1,0.352,0.149,0.602,0.149,0.65l-0.1,1.301l0.1,0.949l-0.05,1.101
		c0,0.101,0.101,0.601,0.25,1.3c0.05,0.35,0.101,0.65,0.101,1c0,1.551-0.801,2.5-2.101,2.5c-0.3,0-0.8,0-1.45-0.05l-1.35-0.05
		c-1.85,0.05-2.55-0.75-2.55-2.75c0-0.65,0-0.65,0.35-2c0.05-0.051,0.05-0.25,0.05-0.45c0-0.25,0-0.25-0.149-2.649
		c-0.05-0.25-0.05-0.701-0.05-1.301c0-1.4,0-1.551,0.25-3.25c0.05-0.25,0.05-0.5,0.05-0.75c0-0.4-0.05-0.851-0.101-1.4
		c-0.149-1.649-0.149-1.899-0.149-2.25c0-0.551,0.05-1.399,0.1-2.051c0.05-0.25,0.05-0.35,0.05-0.399c-0.05-1.101-0.1-1.75-0.1-2
		l-0.2-3.05c0-0.35,0-0.35,0.3-2.899v-0.351c0-0.399-0.199-2.352-0.35-3.352c-0.05-0.148-0.05-0.35-0.05-0.5
		c0-1.25,0.8-2.25,1.85-2.25c0.2,0,0.4,0,0.55,0.051c0.4,0.101,0.65,0.149,0.65,0.149s0.45-0.05,1.05-0.149
		c0.15-0.051,0.3-0.051,0.45-0.051c1.7,0,2.35,0.75,2.35,2.65c0,0.199,0,0.199-0.149,1.1c-0.101,0.451-0.15,1.15-0.15,1.75
		c0,2.15,0.2,3.301,0.601,3.752c0.399,0.398,1.3,0.648,2.55,0.648c0.399,0,0.85-0.051,1.45-0.1c0.449-0.051,0.75-0.051,0.85-0.051
		c0.35,0,2.55,0.051,3.15,0.1c0.449,0,1.55-0.199,1.899-0.35c0.601-0.25,0.851-0.55,0.851-1.199v-0.351
		c-0.051-0.351-0.051-0.551-0.051-0.601l0.101-1.25l-0.101-3.65c0-1.55,0.45-2.3,1.45-2.3c0.3,0,0.55,0,0.9,0.05
		c0.2,0.051,0.35,0.051,0.399,0.051c0.2,0,0.65-0.051,1.351-0.15c0.25-0.049,0.45-0.049,0.7-0.049c1.199,0,1.949,0.699,1.949,1.85
		c0,0.449-0.05,0.85-0.199,1.65c-0.051,0.449-0.101,0.799-0.101,1c0,0.1,0.05,0.549,0.101,1.199c0.05,0.25,0.05,0.5,0.05,0.7
		c0,0.5-0.05,1.3-0.15,1.75c-0.05,0.449-0.1,0.75-0.1,0.75l0.1,2.25c0,0,0,0.25-0.05,0.55c-0.05,0.301-0.05,0.649-0.05,1
		c0,0.45,0.05,1,0.1,1.602c0.05,0.85,0.101,1.5,0.101,1.75c0,0.35-0.051,1-0.15,1.85c-0.05,0.6-0.1,1.051-0.1,1.4
		c0,0.3,0.05,0.8,0.1,1.4c0.05,0.448,0.05,0.75,0.05,1c0,0.049,0,0.448-0.05,1.049l-0.05,2.852c0,0.148,0,0.549,0.05,1v1.25V256.271
		z"/>
	<path fill="#FFFFFF" d="M146.622,261.271c-0.85,0-1.6,0-1.95-0.051c-1.699-0.1-2.899-0.199-2.949-0.199
		c-0.051,0-0.551,0.1-1.25,0.199c-0.551,0.102-1.101,0.15-1.601,0.15c-2,0-3.05-1.051-3.05-3.051c0-0.25,0.05-0.5,0.1-0.8
		c0.15-0.899,0.25-1.601,0.25-1.802c0-0.049-0.05-0.299-0.1-0.649c-0.1-0.601-0.15-1.448-0.15-2.198c0-1.15,0-1.302,0.25-3
		c0.051-0.352,0.101-0.802,0.101-1.352c0-0.551,0-0.551-0.101-2.801c-0.05-0.699-0.05-1.301-0.05-1.801c0-0.35,0-0.699,0.05-1.049
		l0.051-1.649c0-0.399-0.101-2.052-0.2-3.302v-0.5c0-0.35,0-0.35,0.149-3v-0.6c0-0.4,0-0.5-0.1-1.051c-0.05-0.65-0.05-0.65-0.1-1.35
		c0-0.25-0.051-0.852-0.15-1.9c0-1,1.1-1.85,2.3-1.85c0.3,0,0.75,0,1.3,0.049c0.301,0.051,0.601,0.051,0.851,0.051
		c0.3,0,0.3,0,1.8-0.1h0.8c0.55,0,1.05,0.049,1.55,0.1c0.551,0.05,0.9,0.1,0.95,0.1l1.601-0.05c1.6,0.149,1.6,0.149,2.199,0.149
		l2-0.049c0.65-0.051,1.15-0.102,1.45-0.102c1.101,0,1.851,0.7,1.851,1.7c0,0.25-0.051,0.5-0.101,0.8
		c-0.05,0.352-0.1,0.602-0.1,0.65s0.05,0.55,0.149,1.199c0.051,0.199,0.051,0.351,0.051,0.5c0,1-0.25,1.449-0.75,1.449
		c-0.301,0-0.75-0.049-1.351-0.199l-1-0.149c-1.05,0-1.2,0-1.35-0.05l-0.851-0.102h-1l-0.449-0.049l-3.101-0.051
		c-0.6,0-1.3,0.199-1.55,0.5c-0.35,0.35-0.7,1.449-0.7,2.1c0,0.602,0.3,1.852,0.5,2.102c0.25,0.3,1.101,0.601,1.7,0.601l1.45-0.051
		c0.899,0.149,0.899,0.149,1.45,0.201l0.8,0.049c0.25,0.051,0.45,0.051,0.55,0.051c0.2,0,0.2,0,1.25-0.101
		c0.6,0.05,1.4,0.15,2.4,0.25c0.699,0.05,1.35,0.65,1.35,1.199c0,0.051-0.05,0.301-0.15,0.65c-0.05,0.25-0.05,0.449-0.05,0.75
		c0,0.4,0.05,0.85,0.15,1.35c0.05,0.301,0.05,0.551,0.05,0.801c0,0.75-0.75,1.351-1.65,1.351c-0.1,0-0.85-0.149-2.149-0.448
		c-0.351-0.102-0.65-0.15-0.75-0.15c-0.05,0-0.4,0.05-0.9,0.1c-0.149,0.051-0.25,0.051-0.35,0.051c-0.2,0-0.2,0-0.9-0.101l-1.1,0.05
		c-0.05,0-0.25,0-0.5-0.05s-0.5-0.05-0.8-0.05c-0.75,0-1.351,0.25-1.801,0.699c-0.449,0.451-0.449,0.451-0.449,2.601l-0.051,1.149
		c-0.05,0.301-0.05,0.551-0.05,0.801c0,1,0.2,2.65,0.4,3.449c0.25,0.951,1.1,1.649,2.2,1.75c0.75,0.102,3.199,0.149,5,0.149
		c0.649,0,0.699,0,2.199-0.399c0.25-0.049,0.551-0.101,0.801-0.101c0.8,0,1.449,0.552,1.449,1.251c0,0.25-0.05,0.551-0.1,0.898
		c-0.1,0.352-0.15,0.65-0.15,0.852s0,0.2,0.25,1.398c0.051,0.25,0.101,0.5,0.101,0.75c0,1-0.65,1.451-2.05,1.451
		c-0.551,0-0.551,0-3-0.149c-0.301-0.052-0.551-0.052-1-0.052c-0.25,0-0.25,0-1.25,0.052h-0.601V261.271z"/>
	<path fill="#FFFFFF" d="M193.573,251.471v-1.5l-0.15-1.302c-0.05-0.25-0.05-0.448-0.05-0.549c0-0.301,0.101-0.851,0.2-1.551
		c0.15-0.8,0.25-1.449,0.25-2.05c0-0.3-0.05-0.8-0.1-1.399c-0.051-0.451-0.051-0.801-0.051-1.051c0-0.15,0.051-0.6,0.101-1.25v-0.4
		c0-0.35-0.2-0.6-0.4-0.6c-0.25,0-0.25,0.051-0.75,0.801l-0.399,0.5l-0.2,0.199c-0.9,0.9-1.101,1.1-1.25,1.4
		c-0.2,0.35-0.5,0.75-0.95,1.25c-0.3,0.25-0.35,0.35-0.7,1.199c-0.75,1.601-1.649,2.25-3.149,2.25c-1.75,0-1.9-0.049-3.051-1.949
		c-0.199-0.4-0.55-0.801-1.649-1.95c-0.15-0.2-0.3-0.399-0.45-0.55c-0.45-0.602-0.8-1.201-1.2-1.801c-0.55-0.851-1.1-1.4-1.45-1.4
		c-0.25,0-0.449,0.301-0.449,0.75c0,0.15,0,0.15,0.149,1.301l-0.05,0.801c0.1,0.899,0.1,0.899,0.1,1.101c0,0.25,0,0.55-0.1,2.05
		c-0.05,0.551-0.05,1-0.05,1.5c0,0.25,0.05,0.551,0.1,0.852c0.101,0.5,0.15,0.85,0.15,0.898c0,0.102-0.05,0.4-0.15,0.852
		c-0.1,0.398-0.1,0.5-0.1,0.949v1.301c0,0.449,0,0.6,0.1,1.049c0,0.201,0.05,0.4,0.05,0.4c0,0.051-0.149,0.75-0.3,1.7
		c-0.05,0.149-0.05,0.3-0.05,0.449c0,0,0.1,0.75,0.35,2.2c0.101,0.75,0.15,1.3,0.15,1.55c0,1.25-0.6,1.75-2,1.75
		c-0.25,0-0.5-0.05-0.85-0.101c-0.45-0.049-0.851-0.1-0.95-0.1c-0.05,0-0.45,0.05-1,0.1h-0.5c-1.3,0-2-0.799-2-2.299
		c0-0.451,0.1-0.951,0.25-1.4c0.2-0.399,0.3-0.7,0.3-0.75l-0.05-0.899l0.1-1.399c0-0.051-0.05-0.301-0.1-0.601l-0.05-1.101
		c0-0.5,0-0.852,0.05-1.25c0.1-0.65,0.149-1.15,0.149-1.301c0-0.051,0-0.25-0.05-0.551c-0.05-0.8-0.1-0.8-0.1-2.85l-0.101-1.85
		c-0.05-0.352-0.05-0.65-0.05-0.802c0-0.101,0.05-0.5,0.101-1.05c0.1-1.4,0.1-2.001,0.1-5.501l0.05-0.601
		c0.05-0.85,0.101-1.449,0.101-1.5c0,0,0-0.149-0.051-0.301v-0.25l0.051-2.299c0-0.102-0.051-0.451-0.15-0.9
		c-0.4-1.601-0.45-1.951-0.45-2.601c0-1.149,0.601-1.851,1.601-1.8l0.85,0.05l2.35-0.05c1.801,0,2.601,0.6,3.5,2.55
		c0.7,1.5,0.801,1.649,1.601,2.501l0.45,0.449l0.449,0.75c0.45,0.75,0.601,0.949,1,1.551c0.351,0.398,0.65,0.898,0.95,1.398
		c0.25,0.5,0.3,0.602,0.601,0.951c0.35,0.5,0.649,0.899,0.699,1.051l0.45,1c0.101,0.199,0.3,0.35,0.45,0.35
		c0.3,0,0.75-0.551,1.2-1.4c0.399-0.75,0.55-0.899,0.899-1.399c0.25-0.399,0.5-0.8,0.7-1.149c0.05-0.199,0.2-0.399,0.45-0.601
		l0.55-0.601c0.351-0.35,0.45-0.5,0.8-1.1c0.15-0.201,0.25-0.4,0.4-0.65c0.7-0.85,1.15-1.449,1.35-1.801
		c0.25-0.55,0.45-1.1,0.65-1.6c0.55-1.35,1.55-1.95,3.2-1.95c0.3,0,0.3,0,1.8,0.149c1.35-0.149,1.35-0.149,1.55-0.149
		c1.3,0,1.7,0.5,1.7,1.899c0,0.701-0.05,0.851-0.45,2.701c-0.149,0.6-0.25,1.6-0.25,2.299v0.602c0.05,0.75,0.101,1.301,0.101,1.398
		c0,0.102,0,0.301-0.051,0.551c-0.1,1.102-0.149,2.102-0.149,2.701c0,0.148,0,0.35,0.05,0.6v0.301c0,0.101-0.1,1-0.25,2.199
		c-0.05,0.25-0.05,0.5-0.05,0.7c0,0.25,0,0.5,0.05,0.75c0.15,0.899,0.25,1.5,0.25,1.601c0,0.049,0,0.299-0.05,0.601
		c-0.05,0.25-0.05,0.55-0.05,0.851c0,0.5,0,0.5,0.149,1.899v0.55c0,0.75,0,0.75-0.25,2.801c-0.05,0.301-0.05,0.5-0.05,0.7
		c0,0.199,0,0.449,0.05,0.649c0.101,0.5,0.15,0.898,0.15,0.949s-0.05,0.301-0.101,0.65c-0.05,0.199-0.05,0.449-0.05,0.699
		c0,0.301,0,0.352,0.25,1.701c0.101,0.6,0.15,1.299,0.15,1.75c0,1.049-0.601,1.75-1.45,1.75c-0.2,0-0.2,0-1.4-0.15
		c-0.149-0.051-0.25-0.051-0.399-0.051c-0.2,0-0.2,0-0.9,0.201c-0.149,0.049-0.35,0.049-0.6,0.049c-1.45,0-2.65-0.949-2.55-2.049
		c0.149-2.051,0.25-3.102,0.25-3.15c0.25-1.051,0.3-1.4,0.3-2.4c0-0.649-0.05-1.199-0.101-1.75L193.573,251.471z"/>
	<path fill="#FFFFFF" d="M237.923,245.471v1.05l-0.3,1.852c-0.149,0.75-0.3,1.398-0.5,2.049c-0.05,1.301-1.2,3.551-2.7,5.5
		c-0.449,0.551-0.85,1.102-1.25,1.701c-0.6,0.801-0.6,0.801-2.399,2c-1.851,1.25-1.851,1.25-3.25,1.6c-1.4,0.352-4,0.701-5.25,0.701
		c-4.5,0-6.15-0.301-9.55-1.75c-1.95-0.801-5.051-3.451-5.65-4.752c-0.25-0.549-0.55-1.148-0.9-1.799
		c-0.399-0.65-1.25-3.301-1.5-4.701c-0.149-1.049-0.399-4.049-0.399-5.35c0-2.15,0.649-5.101,1.55-6.9c1.7-3.5,3.55-5.801,5.85-7.15
		c1.65-1,2.2-1.199,3.4-1.5c0.25-0.051,0.6-0.199,1.1-0.35c2.25-0.65,2.25-0.65,3.7-0.65c2.2,0,4.15,0.15,5.15,0.449
		c3.399,0.9,5.399,1.801,7.1,3.251c0.05,0.05,0.65,0.75,1.7,2.101c0.8,0.949,2.4,3.699,2.9,4.899c0.55,1.351,0.85,2.149,0.899,2.351
		c0.351,1.551,0.55,3,0.55,3.801c0,0.351-0.05,0.699-0.149,1.149L237.923,245.471z M230.722,241.621l-0.101-1.201l-0.25-0.6
		c-0.149-0.4-0.3-0.801-0.45-1.15c-0.199-0.6-0.75-1.5-1.6-2.649c-1-1.25-2.2-2.05-3.65-2.5c-0.199-0.05-0.5-0.149-0.899-0.3
		c-0.8-0.352-1.8-0.551-2.75-0.551c-1.95,0-4.65,0.949-6.45,2.25c-0.7,0.5-0.85,0.699-2.3,3.25c-0.15,0.201-1,2.65-1.101,3.051
		c0,0.101-0.149,1.4-0.35,3.801c0.4,3.648,0.4,3.648,1.05,5.602c0.351,1.049,2.05,3.1,3.3,4.1c1.45,1.102,3.15,1.602,5.65,1.602
		c2.4,0,3-0.15,4.55-1.002c2.45-1.398,2.45-1.398,3.5-2.85c0.601-0.85,0.65-0.9,0.95-1.9c0.05-0.3,0.05-0.3,0.3-0.85
		c0.45-1.2,1-3.75,1-4.75c0-0.551-0.05-1.15-0.149-1.801L230.722,241.621z"/>
	<path fill="#FFFFFF" d="M244.22,241.471c-1.051-0.899-1.051-0.899-1.7-2.399c-0.7-1.65-1-2.552-1-3.052l0.05-0.948l-0.05-1.15
		c0-0.35,0.2-1.051,0.75-2.7c0.3-0.95,0.75-1.45,2.3-2.55c1.1-0.801,1.1-0.801,2.5-1.15c1.35-0.301,2.15-0.4,4.2-0.4
		c0.649,0,0.8,0,1.899,0.15l1.7,0.051c0.601,0.049,2.101,0.5,3.25,1c0.9,0.449,1.55,1.199,1.55,1.85c0,0.351,0,0.351-0.649,1.449
		c-0.101,0.201-0.2,0.5-0.4,1.75c-0.149,1.15-0.6,1.65-1.45,1.65c-0.6,0-0.6,0-1.949-0.949c-0.95-0.701-2.7-1.351-3.601-1.351
		c-1.55,0-1.75,0.05-2.35,0.25c-0.9,0.399-1.351,1-1.351,2.05c0,1.051,0.551,1.75,2.15,2.9c3.15,2.15,5.9,4.35,7.25,5.75
		c1.8,1.851,2.5,2.9,3.101,4.5c0.551,1.351,0.75,2.15,0.75,2.9c0,3.1-0.05,3.399-0.899,5.399c-0.65,1.649-0.65,1.649-2,2.95
		c-1.4,1.351-2.101,1.699-4.101,2.199c-0.75,0.201-0.949,0.201-1.75,0.201c-2.199,0.049-2.6,0.049-2.6,0.049
		c-0.75-0.1-1.35-0.199-1.9-0.199c-1.05-0.101-2.8-0.351-3.3-0.551c-0.2-0.1-0.649-0.199-1.25-0.299
		c-0.649-0.15-2.1-0.602-2.35-0.75c-0.45-0.301-0.65-0.951-0.65-2.25c0-0.301,0.15-0.852,0.4-1.4l0.25-0.6l0.149-1.201
		c0.15-1.1,0.65-1.85,1.301-1.85c0.399,0,0.899,0.25,1.85,0.949c1.55,1.15,1.7,1.199,3.35,1.699c0.351,0.102,0.351,0.102,0.65,0.201
		c0.9,0.299,1.1,0.35,2.3,0.35c1.25,0,1.851-0.25,2.7-1.051c0.9-0.898,1.3-1.898,1.3-3.25c0-1.75-0.85-3.25-2.399-4.299
		c-0.75-0.5-0.75-0.5-1.101-0.801L244.22,241.471z"/>
	<path fill="#FFFFFF" d="M276.07,242.721c0,0.198,0,0.5-0.05,0.8l-0.051,1.148c0,0.4,0.051,0.852,0.101,1.352
		c0.149,0.852,0.25,1.55,0.25,1.898l-0.05,0.701c-0.15,0.899-0.2,1.449-0.2,1.801c0,1.949,0.101,5,0.2,5.601
		c0.199,1.351,0.3,2.3,0.3,2.948c0,1.602-0.5,2.4-1.601,2.4c-0.199,0-0.399,0-0.649-0.05c-0.45-0.05-0.8-0.05-0.851-0.05
		c-1.65,0.1-1.65,0.1-1.949,0.1c-1.801,0-2.301-0.699-2.301-3.25c0-0.449,0.051-1,0.149-1.6c0.15-1.201,0.199-1.451,0.199-2
		l0.15-2.102c0-0.199,0-0.199-0.15-3.25l-0.049-2.25c0-1.101,0.049-2.351,0.199-3.699c0.051-0.301,0.051-0.45,0.051-0.5
		c-0.102-1.602-0.25-3.352-0.352-5.15l0.05-1.701c0-1.35-0.8-2.199-2.149-2.199c-0.449,0-0.449,0-1.65,0.301
		c-0.398,0.101-0.799,0.148-1.25,0.148c-1.299,0-2.1-0.799-2.1-2.148c0-0.2,0-0.4,0.051-0.65l0.049-0.5v-1.8
		c0-0.851,1-1.351,2.701-1.351c0.449,0,0.899,0.049,1.699,0.149c0.551,0.05,0.951,0.101,1.201,0.101c0.198,0,0.5,0,0.799-0.051
		c0.851-0.1,1.5-0.15,1.75-0.15s0.75,0.052,1.451,0.102c0.648,0.051,1.198,0.102,1.6,0.102c0.5,0,1.15-0.051,1.9-0.15
		c0.698-0.051,1.25-0.1,1.5-0.1c0.3,0,0.8,0.049,1.448,0.1c0.502,0.05,0.852,0.1,1.15,0.1c0.301,0,0.75-0.05,1.301-0.1
		c0.4-0.051,0.699-0.1,1-0.1c0.351,0,0.699,0.199,1.05,0.6c0.5,0.55,0.551,0.65,0.551,1.75l0.149,0.9
		c0.101,0.648,0.15,1.149,0.15,1.5c0,0.85-1.051,2-1.801,1.899c-1.449-0.2-2.301-0.301-2.5-0.351c-0.5-0.102-1-0.149-1.5-0.149
		c-1.4,0-2.101,0.601-2.101,1.8c0,0.301,0,0.6,0.049,0.95c0.102,0.55,0.15,0.949,0.15,1.05c0,0.649-0.05,2.75-0.1,3.7
		L276.07,242.721z"/>
	<path fill="#FFFFFF" d="M319.172,250.871c0-0.399,0-0.75-0.052-1.051l-0.148-1.199v-1.649c0-0.302-0.352-1.149-0.5-1.351
		c-0.15-0.101-0.5-0.201-0.9-0.201c-0.6,0-1.398,0.102-2,0.302c-0.601,0.149-1,0.25-1.2,0.25c-0.25,0-1.55-0.351-1.698-0.45
		c-0.25-0.148-0.65-0.898-0.65-1.25l0.05-1.602c0-0.049-0.05-0.299-0.101-0.699c-0.05-0.2-0.05-0.35-0.05-0.551
		c0-1.149,1.3-2.199,2.751-2.199c0.299,0,0.698,0,1.148,0.05c1.45,0.149,2.15,0.2,2.65,0.2c0.25,0,0.25,0,1.148-0.1l1.201,0.1
		c1.299-0.2,1.299-0.2,3.351-0.35c1.1,0.049,2.149,1,2.149,2c0,0.25-0.1,0.85-0.301,1.649c-0.049,0.351-0.1,0.601-0.1,0.8
		c0,0.2,0.051,0.7,0.1,1.35c0.051,0.25,0.051,0.451,0.051,0.65c0,0.2-0.149,2-0.2,2.801c0.149,1.35,0.149,2.051,0.051,3.551
		l0.1,0.648l-0.149,1.201c0,0.049,0.051,0.25,0.102,0.5l0.049,0.648l0.101,0.852l0.301,1c0.1,0.25,0.149,0.65,0.149,1.1
		c0,2.5-1.051,3.6-3.45,3.6c-0.449,0-1.001-0.049-1.55-0.1c-0.649-0.1-1.201-0.15-1.5-0.15c-0.351,0-0.351,0-2.551,0.552
		c-0.35,0.05-0.85,0.101-1.551,0.101c-5.25,0-10.4-2.25-13.4-5.801c-1.6-1.9-2.649-3.65-3.25-5.199c-0.95-2.4-1.6-5.5-1.6-7.302
		c0-0.649,0.05-1.45,0.199-2.301l0.101-0.851c0.3-2.399,0.45-2.85,1.899-5.551c1.399-2.549,1.551-2.75,4.001-4.3
		c3.3-2.101,3.851-2.351,5.898-2.851c1.9-0.449,3.551-0.649,5.9-0.649c1.399,0,3.602,0.351,5.451,0.899c0.3,0.051,0.3,0.051,1,0.25
		c1.35,0.301,2.399,1.301,2.399,2.25c0,0.75-0.2,1.301-0.7,1.951c-0.399,0.449-0.399,0.449-0.55,0.799
		c-0.5,1.4-0.801,1.65-1.851,1.65c-0.602,0-1.05-0.15-2.05-0.699c-1.65-0.9-3.052-1.25-5.15-1.25c-1.35,0-3.65,0.399-4.4,0.799
		c-1.551,0.75-3.699,2.801-4.301,4c-0.85,1.65-1.25,3.451-1.25,5.451c0,1.5,0.352,3.75,0.801,5.101
		c0.551,1.75,0.801,2.101,2.551,3.851c1.8,1.75,2.101,2,3.351,2.449c2.199,0.9,3.699,1.301,4.6,1.301c0.75,0,2.25-0.15,2.552-0.25
		c0.649-0.25,1.149-1.051,1.149-1.85c0-0.15-0.051-0.451-0.101-0.75c-0.05-0.352-0.05-0.602-0.05-0.801V250.871L319.172,250.871z"/>
	<path fill="#FFFFFF" d="M341.421,261.271c-0.852,0-1.602,0-1.95-0.051c-1.7-0.1-2.9-0.199-2.95-0.199s-0.55,0.1-1.25,0.199
		c-0.55,0.102-1.101,0.15-1.601,0.15c-2,0-3.051-1.051-3.051-3.051c0-0.25,0.051-0.5,0.102-0.8c0.148-0.899,0.25-1.601,0.25-1.802
		c0-0.049-0.051-0.299-0.102-0.649c-0.1-0.601-0.148-1.448-0.148-2.198c0-1.15,0-1.302,0.25-3c0.05-0.352,0.1-0.802,0.1-1.352
		c0-0.551,0-0.551-0.1-2.801c-0.051-0.699-0.051-1.301-0.051-1.801c0-0.35,0-0.699,0.051-1.049l0.05-1.649
		c0-0.399-0.101-2.052-0.2-3.302v-0.5c0-0.35,0-0.35,0.15-3v-0.6c0-0.4,0-0.5-0.102-1.051c-0.05-0.65-0.05-0.65-0.1-1.35
		c0-0.25-0.05-0.852-0.15-1.9c0-1,1.102-1.85,2.3-1.85c0.302,0,0.75,0,1.302,0.049c0.3,0.051,0.6,0.051,0.85,0.051
		c0.301,0,0.301,0,1.801-0.1h0.801c0.55,0,1.05,0.049,1.55,0.1c0.551,0.05,0.899,0.1,0.95,0.1l1.601-0.05
		c1.6,0.149,1.6,0.149,2.199,0.149l2-0.049c0.649-0.051,1.149-0.102,1.451-0.102c1.1,0,1.85,0.7,1.85,1.7c0,0.25-0.051,0.5-0.1,0.8
		c-0.052,0.352-0.102,0.602-0.102,0.65s0.05,0.55,0.149,1.199c0.051,0.199,0.051,0.351,0.051,0.5c0,1-0.25,1.449-0.75,1.449
		c-0.301,0-0.75-0.049-1.351-0.199l-1-0.149c-1.051,0-1.2,0-1.351-0.05l-0.851-0.102h-1l-0.449-0.049l-3.102-0.051
		c-0.601,0-1.3,0.199-1.55,0.5c-0.351,0.35-0.7,1.449-0.7,2.1c0,0.602,0.301,1.852,0.5,2.102c0.25,0.3,1.101,0.601,1.7,0.601
		l1.449-0.051c0.9,0.149,0.9,0.149,1.451,0.201l0.799,0.049c0.25,0.051,0.451,0.051,0.551,0.051c0.2,0,0.2,0,1.25-0.101
		c0.601,0.05,1.4,0.15,2.4,0.25c0.699,0.05,1.35,0.65,1.35,1.199c0,0.051-0.05,0.301-0.149,0.65c-0.05,0.25-0.05,0.449-0.05,0.75
		c0,0.4,0.05,0.85,0.149,1.35c0.05,0.301,0.05,0.551,0.05,0.801c0,0.75-0.75,1.351-1.649,1.351c-0.101,0-0.851-0.149-2.149-0.448
		c-0.351-0.102-0.65-0.15-0.75-0.15c-0.05,0-0.4,0.05-0.9,0.1c-0.148,0.051-0.25,0.051-0.351,0.051c-0.199,0-0.199,0-0.899-0.101
		l-1.101,0.05c-0.049,0-0.25,0-0.5-0.05s-0.5-0.05-0.799-0.05c-0.751,0-1.352,0.25-1.801,0.699c-0.45,0.451-0.45,0.451-0.45,2.601
		l-0.05,1.149c-0.051,0.301-0.051,0.551-0.051,0.801c0,1,0.2,2.65,0.399,3.449c0.25,0.951,1.101,1.649,2.201,1.75
		c0.75,0.102,3.199,0.149,5,0.149c0.649,0,0.699,0,2.199-0.399c0.25-0.049,0.551-0.101,0.801-0.101c0.8,0,1.449,0.552,1.449,1.251
		c0,0.25-0.05,0.551-0.101,0.898c-0.1,0.352-0.149,0.65-0.149,0.852s0,0.2,0.25,1.398c0.051,0.25,0.101,0.5,0.101,0.75
		c0,1-0.649,1.451-2.05,1.451c-0.551,0-0.551,0-3-0.149c-0.301-0.052-0.551-0.052-1-0.052c-0.25,0-0.25,0-1.25,0.052h-0.599V261.271
		z"/>
	<path fill="#FFFFFF" d="M375.521,261.371c-0.5,0.051-1.1,0.051-1.65,0.051c-1.05,0-1.55-0.2-2.199-1
		c-0.45-0.601-0.45-0.601-1.649-3.45c-0.801-1.699-0.951-2-2.301-3.851c-0.5-0.699-1.4-2.25-2-3.399l-0.3-0.649
		c-0.352-0.551-0.7-1.051-1.102-1.601c-0.199-0.25-0.1-0.101-0.3-0.45c-0.25-0.398-0.75-1.352-1.399-2.8l-0.7-1.052l-0.399-0.448
		c-0.25-0.399-0.5-0.701-0.75-0.951c-0.101-0.198-0.25-0.299-0.3-0.299c-0.15,0-0.301,0.25-0.25,0.549
		c0.1,1.001,0.149,2.052,0.149,2.802c0,0.1,0,0.25-0.051,0.399c-0.05,0.5-0.1,0.8-0.1,0.851s0.1,0.551,0.199,1.199
		c0.051,0.148,0.051,0.301,0.051,0.352l-0.2,2.25l0.25,2.299c0,0,0,0.15-0.05,0.4c-0.051,0.399-0.051,0.45-0.15,2.45
		c0,1.149,0.051,1.899,0.4,4.55v0.352c0,0.799-0.551,1.398-1.352,1.398c-0.148,0-0.449,0-0.75-0.05
		c-0.199-0.051-0.398-0.051-0.55-0.051c-0.15,0-0.149,0-1.301,0.101c-0.199,0.051-0.299,0.051-0.399,0.051
		c-1.101,0-1.398-0.101-1.851-0.449c-0.649-0.551-0.899-1.201-0.899-2.15c0-0.6,0.102-1.301,0.25-2.051c0.149-0.551,0.2-1,0.2-1.199
		c0-0.051-0.051-0.4-0.1-0.9c-0.051-0.5-0.15-2.5-0.15-3.25c0-0.301,0-0.301,0.15-1.149c-0.051-1.552-0.15-3.649-0.15-3.95
		c0-0.352,0-0.352,0.101-1.55l-0.15-5.149c0.051-0.601,0.15-1.65,0.301-3.15l-0.149-1.45c0.1-1.149,0.1-1.149,0.1-1.25
		c0-0.5-0.25-1.601-0.6-2.7c-0.25-0.65-0.351-1.199-0.351-1.551c0-0.898,0.8-1.799,1.65-1.799c0.148,0,0.35,0,0.549,0.049
		c0.951,0.102,1.65,0.15,1.75,0.15c0.101,0,0.451-0.051,0.9-0.101c0.25-0.051,0.5-0.051,0.699-0.051c0.7,0,1.852,0.551,2.301,1.149
		c0.601,0.75,1,1.551,1.7,3.201l0.351,0.649l0.5,0.75l0.3,0.649l0.102,0.301c0.299,0.9,0.299,0.9,1.05,1.8
		c0.45,0.55,0.8,1.101,1.1,1.601l1.352,2.699l0.3,0.701l0.8,0.85c0.149,0.25,0.301,0.449,0.399,0.65
		c0.449,0.898,0.551,1.05,1.051,1.8c0.148,0.2,0.148,0.2,0.601,1.05c0.5,0.9,0.949,1.551,1.101,1.551c0.15,0,0.25-0.25,0.25-0.701
		l-0.25-3.899v-0.851c0.05-0.899,0.05-2.1,0.05-2.75c0-0.899,0-1.149-0.05-2.801v-1.25v-0.898c0.05-0.551,0.05-0.898,0.05-1.051
		c0-0.449,0-0.449-0.3-1.949c-0.051-0.352-0.101-0.7-0.101-1c0-1.4,0.649-2.051,2.199-2.102l1.5-0.149
		c0.351-0.05,0.701-0.05,1.051-0.05c1.3,0,2.101,1.05,2.101,2.851c0,0.5,0,0.5-0.301,4.552c-0.05,0.448-0.05,0.799-0.05,0.898
		c0,0.199,0.05,0.699,0.15,1.4c0.148,1,0.199,1.949,0.199,2.851c0,0.698-0.101,2.55-0.149,3.149c-0.05,0.75-0.101,1.25-0.101,1.299
		c0,0.052,0.051,0.9,0.149,2.15c0.05,0.301,0.05,0.6,0.05,0.95c0,0.3,0,0.7-0.05,1.05c-0.1,1.352-0.149,2.301-0.149,2.551
		c0,0.15,0,0.449,0.051,0.801c0.1,0.8,0.148,1.351,0.148,1.601c0,0.101,0,0.399-0.05,0.75v1.25c0,0.899,0,1,0.25,2.399
		c0.101,0.5,0.15,0.949,0.15,1.4c0,1.35-0.5,1.799-1.801,1.799h-0.199h-0.901V261.371z"/>
	<path fill="#FFFFFF" d="M392.569,261.771c-1.399,0-2.85-0.35-4.45-1.051c-2.199-1.049-2.8-1.6-4.001-4
		c-0.648-1.25-0.75-2.1-0.75-5.1l-0.049-0.75c-0.101-0.852-0.149-1.5-0.149-1.852c0-0.148,0-0.5,0.05-0.898
		c0.101-1.102,0.101-1.15,0.101-2.352c0-0.398,0-0.398,0.149-2.2c-0.25-1.75-0.25-1.75-0.25-2l0.05-1.601l-0.05-2.051
		c0.148-1.949,0.148-1.949,0.148-3.551c0-1.049,0-1.049-0.199-2.299c-0.051-0.551-0.051-0.551-0.199-1.551
		c-0.051-0.4-0.102-0.7-0.102-0.9c0-1.15,0.65-2.05,1.5-2.05c0.501,0,0.501,0,1.701,0.25c0.149,0.05,0.3,0.05,0.4,0.05
		c0.198,0,0.448-0.05,0.698-0.1c0.45-0.051,0.851-0.1,1.15-0.1c0.85,0,1.25,0.299,1.55,1.148c0.2,0.551,0.3,1,0.3,1.301
		c0,0.399,0,0.399-0.448,2.1c-0.102,0.352-0.15,0.65-0.15,0.852c0,0.049,0.05,0.449,0.1,0.949c0.052,0.25,0.052,0.6,0.052,1.051
		c0,0.549,0,0.6-0.102,1.449l0.2,2.15c-0.15,1.149-0.15,1.149-0.15,1.85l0.2,5.201c-0.148,1.25-0.148,1.25-0.148,2.199
		c0,0.451,0,0.451,0.049,0.851l-0.199,2.501c0.25,2.799,0.25,2.799,0.601,3.299c0.649,0.9,2.351,1.602,3.801,1.602
		c1.6,0,2.949-0.75,3.649-2.051c0.25-0.5,0.25-0.5,0.399-1.699c0.101-0.951,0.149-1.451,0.149-1.551c0-0.051,0-0.199-0.05-0.4
		c-0.149-0.949-0.2-1.801-0.2-2.5c0-0.35,0.051-0.699,0.101-1.1c0.05-0.25,0.05-0.351,0.05-0.351c-0.25-2.649-0.25-2.649-0.25-2.899
		v-0.75c0.051-0.801,0.101-1.451,0.101-1.451c0-0.25-0.05-1.199-0.101-1.899c-0.05-0.699-0.1-1.25-0.1-1.55
		c0-0.5,0.05-1.1,0.149-1.801c0.149-0.85,0.149-1,0.149-1.399c0-0.601-0.05-0.899-0.2-1.899c-0.149-1-0.25-1.851-0.25-2.15
		c0-2.049,0.65-3.049,1.951-3.049c0.5,0,0.5,0,1.299,0.199c0.201,0.051,0.4,0.051,0.601,0.051c0.201,0,0.399,0,0.649-0.051
		c1.951-0.4,2.601,0.1,2.601,1.899c0,0.351-0.1,1.649-0.199,2.2c-0.051,0.3-0.101,0.55-0.101,0.55c0.15,2.45,0.15,2.45-0.149,4.2
		v0.25c0,0.101,0,0.3,0.051,0.449c0.1,0.5,0.148,0.851,0.148,0.9c0,0-0.05,0.449-0.1,1.051v0.949l0.1,0.801
		c-0.05,0.549-0.148,1.25-0.148,2.199c-0.051,0.4,0,1.2,0.05,2.2c0.05,0.351,0.05,0.601,0.05,0.8c0,0.1,0,0.35-0.05,0.7v0.601
		l0.05,2.5c-0.35,5.301-0.6,6.35-1.95,8.15c-1.449,1.949-4.899,3.6-7.55,3.6L392.569,261.771z"/>
	<path fill="#FFFFFF" d="M411.469,261.271c-1.299,0-1.949-0.75-1.949-2.301c0-0.699,0-0.699,0.3-2.449
		c0.05-0.15,0.05-0.301,0.05-0.5v-0.45c-0.149-1.149-0.198-2.001-0.198-2.149v-0.352l0.1-1.648c0-0.701,0-0.701,0.15-2.4l-0.25-4.7
		l0.198-4.301c-0.1-1.899-0.1-1.899-0.198-3.949c0-0.101,0.049-0.45,0.1-0.899c0.05-0.45,0.1-0.801,0.1-1.15
		c0-0.199,0-0.199-0.05-0.6c-0.05-0.2-0.2-1.301-0.398-3.301c0-1.551,0.75-2.449,2.1-2.449c0.3,0,0.55,0,0.75,0.049
		c0.4,0.051,0.65,0.101,0.65,0.101l1.85-0.149c0.1,0,0.801,0.399,1.051,0.549c0.399,0.352,0.649,0.852,0.649,1.4
		c0,0.352-0.05,0.75-0.102,1.15c-0.049,0.449-0.049,0.449-0.1,0.949c0,0.15-0.05,0.5-0.1,1.102l0.1,1.25l-0.1,1l0.05,0.898
		l-0.05,0.951l0.149,1.801c0,0.049,0,0.25-0.051,0.549c-0.05,0.25-0.05,0.451-0.05,0.701c0,0.75,0,1.949,0.05,2.199
		c0.051,0.399,0.051,0.699,0.051,0.699c0,0.2-0.051,0.602-0.149,1.102c-0.052,0.199-0.052,0.3-0.052,0.35l0.102,1.301
		c-0.149,1.299-0.149,1.299-0.149,1.449c0,0.25,0,0.25,0.299,1.75l-0.049,0.301l-0.051,0.75c0,0.649,0,0.649-0.05,1.199
		c0.148,1.201,0.3,2.5,0.3,2.9c0,0.051-0.05,0.301-0.1,0.65c-0.052,0.35-0.052,0.649-0.052,0.899c0,0.55,0.201,2.5,0.352,3.351
		c0.05,0.35,0.101,0.649,0.101,0.899c0,1-0.701,1.601-1.899,1.601c-0.25,0-0.25,0-1.302-0.101c-0.148-0.052-0.398-0.052-0.648-0.052
		c-0.102,0-0.352,0-0.7,0.052L411.469,261.271L411.469,261.271z"/>
	<path fill="#FFFFFF" d="M444.12,261.371c-0.5,0.051-1.101,0.051-1.649,0.051c-1.051,0-1.551-0.2-2.201-1
		c-0.449-0.601-0.449-0.601-1.649-3.45c-0.8-1.699-0.949-2-2.3-3.851c-0.5-0.699-1.399-2.25-2-3.399l-0.301-0.649
		c-0.35-0.551-0.699-1.051-1.1-1.601c-0.2-0.25-0.101-0.101-0.302-0.45c-0.25-0.398-0.75-1.352-1.398-2.8l-0.7-1.052l-0.4-0.448
		c-0.25-0.399-0.5-0.701-0.75-0.951c-0.1-0.198-0.25-0.299-0.3-0.299c-0.148,0-0.3,0.25-0.25,0.549
		c0.102,1.001,0.15,2.052,0.15,2.802c0,0.1,0,0.25-0.05,0.399c-0.052,0.5-0.102,0.8-0.102,0.851s0.102,0.551,0.2,1.199
		c0.05,0.148,0.05,0.301,0.05,0.352l-0.2,2.25l0.25,2.299c0,0,0,0.15-0.05,0.4c-0.05,0.399-0.05,0.45-0.148,2.45
		c0,1.149,0.05,1.899,0.398,4.55v0.352c0,0.799-0.55,1.398-1.351,1.398c-0.149,0-0.449,0-0.75-0.05
		c-0.199-0.051-0.399-0.051-0.549-0.051c-0.15,0-0.15,0-1.302,0.101c-0.198,0.051-0.3,0.051-0.399,0.051
		c-1.101,0-1.399-0.101-1.851-0.449c-0.649-0.551-0.899-1.201-0.899-2.15c0-0.6,0.101-1.301,0.25-2.051c0.149-0.551,0.2-1,0.2-1.199
		c0-0.051-0.051-0.4-0.101-0.9s-0.149-2.5-0.149-3.25c0-0.301,0-0.301,0.149-1.149c-0.05-1.552-0.149-3.649-0.149-3.95
		c0-0.352,0-0.352,0.101-1.55l-0.15-5.149c0.051-0.601,0.15-1.65,0.301-3.15l-0.149-1.45c0.1-1.149,0.1-1.149,0.1-1.25
		c0-0.5-0.25-1.601-0.6-2.7c-0.25-0.65-0.351-1.199-0.351-1.551c0-0.898,0.8-1.799,1.649-1.799c0.149,0,0.352,0,0.55,0.049
		c0.95,0.102,1.65,0.15,1.75,0.15c0.101,0,0.45-0.051,0.9-0.101c0.25-0.051,0.5-0.051,0.699-0.051c0.701,0,1.851,0.551,2.301,1.149
		c0.6,0.75,1,1.551,1.7,3.201l0.351,0.649l0.5,0.75l0.299,0.649l0.102,0.301c0.3,0.9,0.3,0.9,1.05,1.8
		c0.45,0.55,0.801,1.101,1.101,1.601l1.351,2.699l0.3,0.701l0.801,0.85c0.15,0.25,0.3,0.449,0.4,0.65
		c0.449,0.898,0.549,1.05,1.049,1.8c0.15,0.2,0.15,0.2,0.602,1.05c0.5,0.9,0.949,1.551,1.101,1.551c0.149,0,0.25-0.25,0.25-0.701
		l-0.25-3.899v-0.851c0.049-0.899,0.049-2.1,0.049-2.75c0-0.899,0-1.149-0.049-2.801v-1.25v-0.898
		c0.049-0.551,0.049-0.898,0.049-1.051c0-0.449,0-0.449-0.299-1.949c-0.051-0.352-0.101-0.7-0.101-1c0-1.4,0.648-2.051,2.199-2.102
		l1.5-0.149c0.351-0.05,0.7-0.05,1.052-0.05c1.299,0,2.1,1.05,2.1,2.851c0,0.5,0,0.5-0.301,4.552
		c-0.049,0.448-0.049,0.799-0.049,0.898c0,0.199,0.049,0.699,0.148,1.4c0.149,1,0.2,1.949,0.2,2.851c0,0.698-0.1,2.55-0.15,3.149
		c-0.05,0.75-0.1,1.25-0.1,1.299c0,0.052,0.05,0.9,0.15,2.15c0.049,0.301,0.049,0.6,0.049,0.95c0,0.3,0,0.7-0.049,1.05
		c-0.102,1.352-0.15,2.301-0.15,2.551c0,0.15,0,0.449,0.05,0.801c0.102,0.8,0.149,1.351,0.149,1.601c0,0.101,0,0.399-0.05,0.75v1.25
		c0,0.899,0,1,0.25,2.399c0.101,0.5,0.149,0.949,0.149,1.4c0,1.35-0.5,1.799-1.8,1.799h-0.2h-0.9V261.371z"/>
	<path fill="#FFFFFF" d="M462.269,261.271c-0.85,0-1.6,0-1.95-0.051c-1.7-0.1-2.898-0.199-2.95-0.199c-0.05,0-0.55,0.1-1.25,0.199
		c-0.55,0.102-1.1,0.15-1.6,0.15c-2,0-3.051-1.051-3.051-3.051c0-0.25,0.051-0.5,0.1-0.8c0.15-0.899,0.25-1.601,0.25-1.802
		c0-0.049-0.049-0.299-0.1-0.649c-0.101-0.601-0.15-1.448-0.15-2.198c0-1.15,0-1.302,0.25-3c0.051-0.352,0.102-0.802,0.102-1.352
		c0-0.551,0-0.551-0.102-2.801c-0.049-0.699-0.049-1.301-0.049-1.801c0-0.35,0-0.699,0.049-1.049l0.051-1.649
		c0-0.399-0.1-2.052-0.199-3.302v-0.5c0-0.35,0-0.35,0.148-3v-0.6c0-0.4,0-0.5-0.1-1.051c-0.05-0.65-0.05-0.65-0.101-1.35
		c0-0.25-0.051-0.852-0.149-1.9c0-1,1.1-1.85,2.301-1.85c0.299,0,0.75,0,1.3,0.049c0.3,0.051,0.6,0.051,0.85,0.051
		c0.301,0,0.301,0,1.801-0.1h0.801c0.55,0,1.05,0.049,1.55,0.1c0.55,0.05,0.899,0.1,0.95,0.1l1.6-0.05
		c1.602,0.149,1.602,0.149,2.201,0.149l2-0.049c0.649-0.051,1.149-0.102,1.449-0.102c1.101,0,1.851,0.7,1.851,1.7
		c0,0.25-0.05,0.5-0.101,0.8c-0.049,0.352-0.1,0.602-0.1,0.65s0.051,0.55,0.149,1.199c0.05,0.199,0.05,0.351,0.05,0.5
		c0,1-0.25,1.449-0.75,1.449c-0.3,0-0.75-0.049-1.351-0.199l-1-0.149c-1.05,0-1.199,0-1.351-0.05l-0.85-0.102h-1l-0.451-0.049
		l-3.1-0.051c-0.601,0-1.301,0.199-1.551,0.5c-0.351,0.35-0.699,1.449-0.699,2.1c0,0.602,0.3,1.852,0.5,2.102
		c0.25,0.3,1.1,0.601,1.699,0.601l1.45-0.051c0.899,0.149,0.899,0.149,1.449,0.201l0.801,0.049c0.25,0.051,0.449,0.051,0.551,0.051
		c0.199,0,0.199,0,1.25-0.101c0.601,0.05,1.398,0.15,2.399,0.25c0.7,0.05,1.352,0.65,1.352,1.199c0,0.051-0.052,0.301-0.15,0.65
		c-0.051,0.25-0.051,0.449-0.051,0.75c0,0.4,0.051,0.85,0.149,1.35c0.052,0.301,0.052,0.551,0.052,0.801
		c0,0.75-0.751,1.351-1.65,1.351c-0.101,0-0.851-0.149-2.15-0.448c-0.35-0.102-0.649-0.15-0.75-0.15c-0.051,0-0.399,0.05-0.899,0.1
		c-0.15,0.051-0.25,0.051-0.351,0.051c-0.199,0-0.199,0-0.899-0.101l-1.101,0.05c-0.051,0-0.25,0-0.5-0.05s-0.5-0.05-0.801-0.05
		c-0.75,0-1.35,0.25-1.8,0.699c-0.45,0.451-0.45,0.451-0.45,2.601l-0.05,1.149c-0.05,0.301-0.05,0.551-0.05,0.801
		c0,1,0.199,2.65,0.399,3.449c0.25,0.951,1.101,1.649,2.199,1.75c0.75,0.102,3.201,0.149,5,0.149c0.65,0,0.701,0,2.201-0.399
		c0.25-0.049,0.55-0.101,0.8-0.101c0.8,0,1.45,0.552,1.45,1.251c0,0.25-0.051,0.551-0.1,0.898c-0.102,0.352-0.15,0.65-0.15,0.852
		s0,0.2,0.25,1.398c0.05,0.25,0.1,0.5,0.1,0.75c0,1-0.649,1.451-2.05,1.451c-0.55,0-0.55,0-3.001-0.149
		c-0.299-0.052-0.549-0.052-1-0.052c-0.25,0-0.25,0-1.25,0.052h-0.598V261.271z"/>
</g>
<g>
	<path fill="#FBEC06" d="M86.972,291.621c-1.051-0.899-1.051-0.899-1.7-2.4c-0.7-1.648-1-2.551-1-3.051l0.05-0.949l-0.05-1.148
		c0-0.352,0.2-1.052,0.75-2.701c0.3-0.949,0.75-1.449,2.3-2.551c1.1-0.8,1.1-0.8,2.5-1.148c1.35-0.301,2.15-0.4,4.2-0.4
		c0.649,0,0.8,0,1.899,0.15l1.7,0.049c0.601,0.051,2.101,0.5,3.25,1c0.9,0.451,1.55,1.201,1.55,1.852c0,0.35,0,0.35-0.649,1.449
		c-0.101,0.2-0.2,0.5-0.4,1.75c-0.149,1.15-0.6,1.65-1.45,1.65c-0.6,0-0.6,0-1.949-0.95c-0.95-0.7-2.7-1.351-3.601-1.351
		c-1.55,0-1.75,0.051-2.35,0.25c-0.9,0.399-1.351,1-1.351,2.051c0,1.05,0.551,1.75,2.15,2.9c3.15,2.149,5.9,4.35,7.25,5.75
		c1.8,1.85,2.5,2.899,3.101,4.5c0.551,1.35,0.75,2.149,0.75,2.899c0,3.101-0.05,3.399-0.899,5.399c-0.65,1.65-0.65,1.65-2,2.951
		c-1.4,1.35-2.101,1.699-4.101,2.199c-0.75,0.199-0.949,0.199-1.75,0.199c-2.199,0.051-2.6,0.051-2.6,0.051
		c-0.75-0.1-1.35-0.199-1.9-0.199c-1.05-0.102-2.8-0.352-3.3-0.551c-0.2-0.1-0.649-0.199-1.25-0.301c-0.649-0.148-2.1-0.6-2.35-0.75
		c-0.45-0.299-0.65-0.949-0.65-2.25c0-0.301,0.15-0.85,0.4-1.4l0.25-0.6l0.149-1.199c0.15-1.102,0.65-1.852,1.301-1.852
		c0.399,0,0.899,0.25,1.85,0.951c1.55,1.149,1.7,1.198,3.35,1.698c0.351,0.101,0.351,0.101,0.65,0.201
		c0.9,0.299,1.1,0.351,2.3,0.351c1.25,0,1.851-0.25,2.7-1.052c0.9-0.899,1.3-1.899,1.3-3.25c0-1.75-0.85-3.25-2.399-4.3
		c-0.75-0.5-0.75-0.5-1.101-0.8L86.972,291.621z"/>
	<path fill="#FBEC06" d="M139.974,295.621v1.049l-0.301,1.852c-0.149,0.75-0.3,1.398-0.5,2.05c-0.05,1.302-1.199,3.552-2.699,5.5
		c-0.45,0.552-0.851,1.101-1.25,1.701c-0.601,0.8-0.601,0.8-2.4,2c-1.85,1.25-1.85,1.25-3.25,1.601c-1.4,0.35-4,0.699-5.25,0.699
		c-4.5,0-6.15-0.3-9.55-1.75c-1.95-0.8-5.05-3.449-5.65-4.751c-0.25-0.549-0.55-1.149-0.899-1.799c-0.4-0.649-1.25-3.301-1.5-4.701
		c-0.15-1.05-0.4-4.05-0.4-5.35c0-2.15,0.65-5.101,1.55-6.9c1.7-3.501,3.55-5.801,5.851-7.149c1.649-1,2.199-1.201,3.399-1.5
		c0.25-0.051,0.601-0.201,1.101-0.352c2.25-0.648,2.25-0.648,3.699-0.648c2.2,0,4.15,0.148,5.15,0.449c3.4,0.899,5.4,1.801,7.1,3.25
		c0.051,0.051,0.65,0.75,1.7,2.101c0.8,0.95,2.4,3.7,2.9,4.899c0.55,1.351,0.85,2.149,0.899,2.352c0.351,1.549,0.551,3,0.551,3.799
		c0,0.352-0.051,0.701-0.15,1.15L139.974,295.621z M132.773,291.77l-0.101-1.199l-0.25-0.6c-0.149-0.4-0.3-0.802-0.449-1.15
		c-0.2-0.601-0.75-1.5-1.601-2.649c-1-1.25-2.2-2.051-3.649-2.5c-0.2-0.051-0.5-0.15-0.9-0.301c-0.8-0.351-1.8-0.551-2.75-0.551
		c-1.95,0-4.65,0.95-6.45,2.252c-0.7,0.5-0.85,0.698-2.3,3.249c-0.15,0.199-1,2.65-1.1,3.05c0,0.102-0.15,1.399-0.351,3.801
		c0.4,3.649,0.4,3.649,1.05,5.601c0.351,1.05,2.051,3.101,3.301,4.101c1.449,1.101,3.149,1.601,5.649,1.601c2.4,0,3-0.149,4.55-1
		c2.45-1.399,2.45-1.399,3.5-2.851c0.601-0.851,0.65-0.899,0.95-1.899c0.05-0.302,0.05-0.302,0.3-0.851c0.45-1.201,1-3.75,1-4.75
		c0-0.551-0.05-1.149-0.149-1.801L132.773,291.77z"/>
	<path fill="#FBEC06" d="M153.171,311.921c-1.399,0-2.85-0.351-4.449-1.051c-2.2-1.05-2.801-1.6-4-4c-0.65-1.25-0.75-2.1-0.75-5.101
		l-0.051-0.75c-0.1-0.851-0.149-1.5-0.149-1.851c0-0.149,0-0.5,0.05-0.899c0.1-1.101,0.1-1.149,0.1-2.351
		c0-0.399,0-0.399,0.15-2.199c-0.25-1.75-0.25-1.75-0.25-2l0.05-1.602l-0.05-2.05c0.15-1.95,0.15-1.95,0.15-3.551
		c0-1.05,0-1.05-0.2-2.3c-0.05-0.551-0.05-0.551-0.2-1.551c-0.05-0.399-0.1-0.701-0.1-0.899c0-1.149,0.649-2.052,1.5-2.052
		c0.5,0,0.5,0,1.699,0.25c0.15,0.052,0.301,0.052,0.4,0.052c0.2,0,0.45-0.052,0.7-0.101c0.45-0.051,0.85-0.101,1.149-0.101
		c0.851,0,1.25,0.3,1.551,1.149c0.199,0.551,0.3,1,0.3,1.301c0,0.4,0,0.4-0.45,2.1c-0.1,0.352-0.15,0.65-0.15,0.852
		c0,0.05,0.051,0.449,0.101,0.949c0.05,0.25,0.05,0.601,0.05,1.051c0,0.55,0,0.601-0.1,1.449l0.199,2.15
		c-0.149,1.15-0.149,1.15-0.149,1.85l0.2,5.201c-0.15,1.25-0.15,1.25-0.15,2.199c0,0.45,0,0.45,0.05,0.85l-0.2,2.502
		c0.25,2.8,0.25,2.8,0.601,3.3c0.649,0.899,2.35,1.6,3.8,1.6c1.6,0,2.95-0.75,3.65-2.049c0.25-0.5,0.25-0.5,0.399-1.701
		c0.101-0.948,0.15-1.448,0.15-1.55c0-0.05,0-0.2-0.05-0.398c-0.15-0.951-0.2-1.802-0.2-2.5c0-0.352,0.05-0.701,0.1-1.102
		c0.05-0.25,0.05-0.352,0.05-0.352c-0.25-2.649-0.25-2.649-0.25-2.899v-0.75c0.051-0.799,0.101-1.449,0.101-1.449
		c0-0.25-0.05-1.2-0.101-1.899c-0.05-0.7-0.1-1.25-0.1-1.551c0-0.5,0.05-1.101,0.15-1.799c0.149-0.852,0.149-1,0.149-1.4
		c0-0.6-0.05-0.9-0.2-1.9c-0.149-1-0.25-1.85-0.25-2.15c0-2.049,0.65-3.049,1.95-3.049c0.5,0,0.5,0,1.3,0.199
		c0.2,0.051,0.4,0.051,0.601,0.051s0.399,0,0.649-0.051c1.95-0.4,2.601,0.1,2.601,1.9c0,0.35-0.101,1.648-0.2,2.199
		c-0.05,0.301-0.1,0.551-0.1,0.551c0.149,2.449,0.149,2.449-0.15,4.199v0.25c0,0.101,0,0.301,0.05,0.451
		c0.101,0.5,0.15,0.85,0.15,0.898c0,0-0.05,0.449-0.101,1.05v0.951l0.101,0.799c-0.05,0.551-0.15,1.25-0.15,2.201
		c-0.05,0.399,0,1.198,0.05,2.198c0.051,0.352,0.051,0.602,0.051,0.802c0,0.1,0,0.35-0.051,0.698v0.602l0.051,2.5
		c-0.351,5.3-0.601,6.352-1.95,8.15c-1.45,1.949-4.9,3.601-7.55,3.601L153.171,311.921z"/>
	<path fill="#FBEC06" d="M181.621,292.871c0,0.199,0,0.5-0.05,0.799l-0.05,1.15c0,0.4,0.05,0.85,0.1,1.35
		c0.15,0.852,0.25,1.552,0.25,1.9l-0.05,0.7c-0.15,0.899-0.2,1.45-0.2,1.8c0,1.95,0.101,5,0.2,5.602c0.2,1.351,0.3,2.3,0.3,2.949
		c0,1.601-0.5,2.4-1.6,2.4c-0.2,0-0.4,0-0.65-0.051c-0.45-0.049-0.8-0.049-0.85-0.049c-1.65,0.1-1.65,0.1-1.95,0.1
		c-1.8,0-2.3-0.7-2.3-3.25c0-0.45,0.05-1,0.149-1.602c0.15-1.199,0.2-1.449,0.2-2l0.15-2.101c0-0.198,0-0.198-0.15-3.25l-0.05-2.25
		c0-1.101,0.05-2.351,0.2-3.7c0.05-0.3,0.05-0.449,0.05-0.5c-0.1-1.601-0.25-3.351-0.35-5.15l0.05-1.699
		c0-1.35-0.8-2.199-2.15-2.199c-0.45,0-0.45,0-1.649,0.299c-0.4,0.102-0.801,0.15-1.25,0.15c-1.301,0-2.101-0.801-2.101-2.15
		c0-0.199,0-0.398,0.05-0.65l0.051-0.5v-1.799c0-0.851,1-1.351,2.699-1.351c0.45,0,0.9,0.05,1.7,0.149
		c0.55,0.051,0.95,0.101,1.2,0.101c0.2,0,0.5,0,0.8-0.05c0.851-0.1,1.5-0.15,1.75-0.15s0.75,0.051,1.45,0.1
		c0.65,0.052,1.2,0.102,1.6,0.102c0.5,0,1.15-0.05,1.9-0.148c0.7-0.051,1.25-0.102,1.5-0.102c0.3,0,0.8,0.051,1.45,0.102
		c0.5,0.049,0.85,0.1,1.149,0.1c0.301,0,0.75-0.051,1.301-0.1c0.399-0.051,0.699-0.102,1-0.102c0.35,0,0.699,0.2,1.05,0.602
		c0.5,0.549,0.55,0.648,0.55,1.75l0.15,0.898c0.1,0.65,0.149,1.15,0.149,1.5c0,0.852-1.05,2.001-1.8,1.9
		c-1.45-0.2-2.3-0.301-2.5-0.352c-0.5-0.1-1-0.148-1.5-0.148c-1.4,0-2.1,0.601-2.1,1.8c0,0.301,0,0.601,0.05,0.95
		c0.1,0.55,0.149,0.949,0.149,1.05c0,0.649-0.05,2.75-0.1,3.7L181.621,292.871z"/>
	<path fill="#FBEC06" d="M216.372,306.421c0,0.25,0.101,0.699,0.25,1.25c0.2,0.601,0.3,1.149,0.3,1.601c0,1.149-0.85,2.3-1.8,2.3
		c-0.3,0-0.3,0-1.6-0.199c-0.15-0.051-0.351-0.051-0.55-0.051c-0.15,0-0.301,0-0.45,0.051c-0.65,0.1-1.15,0.149-1.2,0.149
		c-0.95,0-1.7-0.95-1.7-2.2c0-0.602,0-0.602,0.351-2.352c0.05-0.198,0.05-0.448,0.05-0.698s0-0.25-0.101-1.351l0.101-1.102
		c-0.05-0.699-0.2-4.8-0.2-5.199l0.05-2.551c0-0.75-0.45-2.051-0.8-2.199c-0.2-0.15-0.2-0.15-2.3-0.301
		c-0.05,0-0.25,0.051-0.55,0.15c-0.45,0.148-0.95,0.199-1.351,0.199c-0.45,0-1.35-0.051-2.5-0.101
		c-0.35-0.051-0.649-0.051-0.899-0.051c-1.051,0-2,0.25-2.2,0.649c-0.15,0.201-0.15,0.201-0.4,3.551
		c0.101,1.25,0.101,1.25,0.101,1.351c0,0.302,0,0.75-0.051,1.399c-0.05,0.201-0.05,0.4-0.05,0.551c0,0.4,0.05,0.9,0.2,1.449
		c0.1,0.351,0.15,0.601,0.15,0.65l-0.101,1.301l0.101,0.949l-0.051,1.1c0,0.101,0.101,0.602,0.25,1.302
		c0.051,0.351,0.101,0.649,0.101,1c0,1.55-0.8,2.5-2.101,2.5c-0.3,0-0.8,0-1.449-0.052l-1.351-0.049
		c-1.85,0.049-2.55-0.75-2.55-2.75c0-0.649,0-0.649,0.35-2c0.051-0.051,0.051-0.25,0.051-0.451c0-0.25,0-0.25-0.15-2.649
		c-0.05-0.25-0.05-0.698-0.05-1.3c0-1.398,0-1.551,0.25-3.25c0.05-0.25,0.05-0.5,0.05-0.75c0-0.398-0.05-0.852-0.1-1.398
		c-0.15-1.65-0.15-1.9-0.15-2.252c0-0.55,0.05-1.398,0.1-2.05c0.051-0.25,0.051-0.351,0.051-0.399c-0.051-1.101-0.101-1.75-0.101-2
		l-0.2-3.051c0-0.351,0-0.351,0.301-2.9v-0.35c0-0.4-0.2-2.351-0.351-3.351c-0.05-0.149-0.05-0.351-0.05-0.5
		c0-1.25,0.8-2.25,1.85-2.25c0.2,0,0.4,0,0.551,0.05c0.399,0.102,0.649,0.148,0.649,0.148s0.45-0.049,1.05-0.148
		c0.15-0.05,0.301-0.05,0.45-0.05c1.7,0,2.351,0.75,2.351,2.649c0,0.199,0,0.199-0.15,1.101c-0.1,0.45-0.15,1.149-0.15,1.75
		c0,2.149,0.2,3.301,0.601,3.75c0.399,0.399,1.3,0.649,2.55,0.649c0.4,0,0.85-0.051,1.45-0.1c0.45-0.051,0.75-0.051,0.85-0.051
		c0.351,0,2.55,0.051,3.15,0.1c0.45,0,1.55-0.199,1.899-0.35c0.601-0.25,0.851-0.551,0.851-1.199v-0.352
		c-0.05-0.351-0.05-0.549-0.05-0.601l0.1-1.25l-0.1-3.649c0-1.549,0.449-2.299,1.449-2.299c0.301,0,0.551,0,0.9,0.049
		c0.2,0.051,0.35,0.051,0.4,0.051c0.199,0,0.649-0.051,1.35-0.15c0.25-0.05,0.45-0.05,0.7-0.05c1.2,0,1.95,0.7,1.95,1.851
		c0,0.449-0.051,0.851-0.2,1.649c-0.05,0.45-0.101,0.8-0.101,1c0,0.101,0.051,0.55,0.101,1.2c0.05,0.25,0.05,0.5,0.05,0.699
		c0,0.5-0.05,1.301-0.15,1.75c-0.05,0.451-0.1,0.75-0.1,0.75l0.1,2.25c0,0,0,0.25-0.05,0.551s-0.05,0.65-0.05,1
		c0,0.451,0.05,1,0.1,1.602c0.051,0.85,0.101,1.5,0.101,1.75c0,0.35-0.05,1-0.15,1.85c-0.05,0.601-0.1,1.051-0.1,1.4
		c0,0.299,0.05,0.799,0.1,1.399c0.05,0.45,0.05,0.75,0.05,1c0,0.05,0,0.45-0.05,1.05l-0.05,2.852c0,0.148,0,0.549,0.05,1v1.25
		V306.421L216.372,306.421z"/>
	<path fill="#FBEC06" d="M249.421,305.421c-0.449,0.05-0.8,0.101-0.8,0.101c-0.05,0-0.25,0-0.55-0.051h-0.5c-0.45,0-0.45,0-2.05,0.2
		c-0.45,0.05-0.8,0.05-1.101,0.05c-0.399,0-0.899-0.05-1.449-0.15c-0.4-0.049-0.75-0.1-0.95-0.1c-1.602,0-2.75,1.35-2.8,3.149
		c0,1.551,0,1.551-0.351,2.101c-0.399,0.551-0.8,0.801-1.45,0.801c-0.35,0-0.8-0.051-1.3-0.101l-1-0.051c-0.25,0-0.7,0-1.45,0.051
		h-0.5c-1.05,0-1.649-0.5-1.649-1.301c0-0.5,0.25-1.199,0.75-2.149c0.35-0.601,0.55-1.05,0.6-1.199l0.25-1.051
		c0.101-0.3,0.25-0.65,0.45-1.05c0.4-0.801,0.7-1.602,0.95-2.45c0.2-0.95,0.399-1.851,0.6-2.75c0.101-0.302,0.25-0.7,0.7-1.851
		c0.35-0.899,0.7-1.951,1.05-3.201c0.2-0.649,0.4-1.198,0.601-1.6l0.649-1.5c0.3-0.9,0.5-1.449,1-3.15c0.101-0.35,0.2-0.699,0.3-1.1
		c0.101-0.352,0.051-0.15,0.2-0.5l0.25-0.701l0.25-0.85c0.25-1.051,0.351-1.301,1-2.95c0.351-1,0.601-1.7,0.601-1.8
		c0.649-2.15,0.949-2.45,2.699-2.45c0.2,0,0.45,0,0.7,0.05l0.75,0.051l1.851-0.051c0.199,0,0.85,0.45,1.199,0.801
		c0.25,0.25,0.45,0.75,0.7,1.649c0.101,0.25,0.25,0.649,0.45,1.3l0.6,1.45l1.051,2.3c0.399,0.852,0.6,1.551,0.8,2.602
		c0.149,0.8,0.149,0.9,0.6,1.949c0.2,0.25,0.3,0.601,0.4,1l0.3,1.25l0.4,1.052c0.149,0.549,0.3,1.049,0.399,1.5l0.2,0.85
		c0.1,0.351,0.3,0.7,0.5,1.2c0.25,0.5,0.15,0.25,0.35,0.75l0.551,1.5l0.199,1.05l0.25,0.601c0.101,0.25,0.2,0.5,0.25,0.75l0.351,1.5
		l0.25,0.649l0.5,1.15c0.149,0.399,0.3,0.801,0.399,1.149c0.15,0.5,0.301,0.9,0.5,1.199l0.65,1.102c0.4,0.75,0.65,1.601,0.65,2.25
		c0,0.75-0.351,1.149-1.101,1.149l-1-0.05c-0.649-0.1-1.149-0.15-1.45-0.15c-0.199,0-0.699,0.051-1.3,0.101
		c-0.45,0.051-0.85,0.101-1.2,0.101c-1.3,0-1.75-0.75-1.85-3c0-1.101-0.15-1.501-0.95-2.55c-0.3-0.45-0.7-0.601-1.45-0.601H249.421
		L249.421,305.421z M244.771,291.27c-0.45,1.25-0.55,1.451-0.8,2.351c-0.4,1.4-0.5,1.75-0.851,2.5
		c-0.35,0.801-0.35,0.801-0.95,2.852c0,0.4,0.75,0.9,1.351,0.9l1.6-0.052c0.05,0,0.25,0,0.55,0.052h0.601c0.35,0,0.6,0,0.8-0.052
		l0.35-0.05h1c0.301,0,0.75-0.55,0.75-0.898c0-0.25,0-0.25-0.5-1.301l-0.3-1.051l-0.2-0.949l-0.5-1.65l-0.25-1l-0.149-0.551
		c-0.15-0.851-0.351-1.449-0.45-1.799c-0.45-1.052-0.55-1.201-0.5-1.352c-0.05-0.25-0.2-0.85-0.4-1.7
		c-0.05-0.05-0.1-0.149-0.149-0.149L244.771,291.27z"/>
	<path fill="#FBEC06" d="M285.171,301.621v-1.5l-0.149-1.301c-0.05-0.25-0.05-0.449-0.05-0.55c0-0.3,0.101-0.851,0.199-1.55
		c0.15-0.801,0.25-1.45,0.25-2.051c0-0.301-0.051-0.801-0.1-1.4c-0.051-0.449-0.051-0.799-0.051-1.049c0-0.15,0.051-0.602,0.1-1.25
		v-0.4c0-0.35-0.199-0.6-0.398-0.6c-0.25,0-0.25,0.049-0.75,0.799l-0.399,0.5l-0.201,0.201c-0.898,0.898-1.1,1.1-1.25,1.398
		c-0.199,0.352-0.5,0.75-0.949,1.25c-0.301,0.25-0.351,0.352-0.7,1.2c-0.75,1.601-1.649,2.25-3.149,2.25c-1.75,0-1.9-0.05-3.05-1.95
		c-0.201-0.398-0.551-0.8-1.65-1.949c-0.149-0.199-0.301-0.4-0.45-0.551c-0.449-0.601-0.8-1.199-1.199-1.8
		c-0.551-0.85-1.101-1.399-1.45-1.399c-0.25,0-0.45,0.301-0.45,0.75c0,0.149,0,0.149,0.15,1.301l-0.051,0.799
		c0.101,0.9,0.101,0.9,0.101,1.102c0,0.25,0,0.549-0.101,2.049c-0.05,0.552-0.05,1-0.05,1.5c0,0.25,0.05,0.552,0.101,0.852
		c0.1,0.5,0.149,0.852,0.149,0.898c0,0.102-0.051,0.4-0.149,0.852c-0.101,0.398-0.101,0.5-0.101,0.95v1.3
		c0,0.45,0,0.602,0.101,1.051c0,0.2,0.05,0.399,0.05,0.399c0,0.051-0.149,0.75-0.3,1.7c-0.051,0.148-0.051,0.3-0.051,0.449
		c0,0,0.101,0.75,0.351,2.201c0.101,0.75,0.149,1.299,0.149,1.549c0,1.25-0.601,1.75-2.001,1.75c-0.25,0-0.5-0.049-0.85-0.1
		c-0.449-0.051-0.85-0.1-0.949-0.1c-0.051,0-0.451,0.049-1,0.1h-0.5c-1.301,0-2.001-0.801-2.001-2.301
		c0-0.449,0.102-0.949,0.25-1.398c0.2-0.4,0.3-0.701,0.3-0.752l-0.05-0.898l0.102-1.399c0-0.051-0.052-0.301-0.102-0.601
		l-0.05-1.102c0-0.5,0-0.85,0.05-1.25c0.102-0.648,0.15-1.15,0.15-1.3c0-0.05,0-0.25-0.05-0.55c-0.052-0.801-0.102-0.801-0.102-2.85
		l-0.1-1.852c-0.05-0.352-0.05-0.65-0.05-0.8c0-0.101,0.05-0.5,0.1-1.052c0.1-1.399,0.1-2,0.1-5.5l0.052-0.6
		c0.05-0.852,0.1-1.451,0.1-1.5c0,0,0-0.15-0.05-0.301v-0.25l0.05-2.3c0-0.101-0.05-0.45-0.15-0.899
		c-0.398-1.602-0.448-1.951-0.448-2.602c0-1.148,0.6-1.85,1.6-1.799l0.85,0.049l2.352-0.049c1.8,0,2.601,0.6,3.501,2.549
		c0.699,1.5,0.799,1.65,1.6,2.501l0.449,0.45l0.451,0.75c0.449,0.75,0.6,0.949,1,1.55c0.35,0.399,0.649,0.899,0.949,1.399
		c0.25,0.5,0.301,0.601,0.601,0.95c0.351,0.5,0.649,0.899,0.7,1.05l0.449,1c0.101,0.2,0.301,0.352,0.451,0.352
		c0.299,0,0.75-0.551,1.198-1.4c0.4-0.75,0.552-0.9,0.9-1.4c0.25-0.399,0.5-0.801,0.699-1.149c0.051-0.198,0.201-0.399,0.451-0.601
		l0.549-0.6c0.351-0.352,0.451-0.5,0.801-1.102c0.15-0.199,0.25-0.399,0.4-0.649c0.698-0.851,1.149-1.45,1.35-1.8
		c0.25-0.551,0.45-1.1,0.65-1.6c0.55-1.352,1.55-1.951,3.198-1.951c0.302,0,0.302,0,1.802,0.15c1.35-0.15,1.35-0.15,1.551-0.15
		c1.299,0,1.699,0.5,1.699,1.9c0,0.699-0.05,0.85-0.449,2.699c-0.15,0.602-0.25,1.602-0.25,2.301v0.601
		c0.049,0.75,0.1,1.3,0.1,1.399c0,0.101,0,0.301-0.051,0.551c-0.1,1.1-0.148,2.1-0.148,2.699c0,0.149,0,0.352,0.05,0.602v0.299
		c0,0.102-0.101,1-0.25,2.201c-0.05,0.25-0.05,0.5-0.05,0.699c0,0.25,0,0.5,0.05,0.75c0.149,0.899,0.25,1.5,0.25,1.601
		c0,0.05,0,0.3-0.05,0.601c-0.051,0.25-0.051,0.549-0.051,0.851c0,0.5,0,0.5,0.15,1.899v0.549c0,0.75,0,0.75-0.25,2.802
		c-0.051,0.301-0.051,0.5-0.051,0.7c0,0.199,0,0.449,0.051,0.648c0.1,0.5,0.149,0.9,0.149,0.951c0,0.049-0.051,0.299-0.102,0.648
		c-0.049,0.201-0.049,0.451-0.049,0.701c0,0.299,0,0.35,0.25,1.699c0.1,0.6,0.149,1.301,0.149,1.75c0,1.051-0.602,1.75-1.45,1.75
		c-0.199,0-0.199,0-1.4-0.148c-0.149-0.051-0.25-0.051-0.399-0.051c-0.199,0-0.199,0-0.899,0.199
		c-0.149,0.051-0.352,0.051-0.602,0.051c-1.448,0-2.648-0.949-2.549-2.051c0.149-2.05,0.25-3.101,0.25-3.15
		c0.25-1.049,0.299-1.398,0.299-2.398c0-0.65-0.049-1.201-0.1-1.751L285.171,301.621z"/>
	<path fill="#FBEC06" d="M307.92,311.421c-0.851,0-1.601,0-1.949-0.051c-1.701-0.1-2.9-0.199-2.951-0.199
		c-0.049,0-0.549,0.101-1.25,0.199c-0.549,0.101-1.1,0.15-1.6,0.15c-2,0-3.052-1.051-3.052-3.051c0-0.25,0.052-0.5,0.102-0.801
		c0.148-0.898,0.25-1.601,0.25-1.799c0-0.052-0.05-0.302-0.102-0.65c-0.1-0.6-0.148-1.449-0.148-2.199c0-1.15,0-1.301,0.25-3.001
		c0.05-0.351,0.101-0.8,0.101-1.351c0-0.549,0-0.549-0.101-2.801c-0.05-0.699-0.05-1.3-0.05-1.8c0-0.35,0-0.7,0.05-1.051l0.05-1.649
		c0-0.398-0.1-2.05-0.199-3.3v-0.499c0-0.352,0-0.352,0.149-3v-0.602c0-0.398,0-0.5-0.102-1.051c-0.049-0.649-0.049-0.649-0.1-1.351
		c0-0.25-0.05-0.851-0.15-1.899c0-1,1.102-1.851,2.302-1.851c0.3,0,0.75,0,1.301,0.05c0.299,0.051,0.6,0.051,0.85,0.051
		c0.3,0,0.3,0,1.8-0.101h0.801c0.551,0,1.051,0.05,1.551,0.101c0.55,0.049,0.898,0.101,0.949,0.101l1.601-0.052
		c1.601,0.15,1.601,0.15,2.2,0.15l2-0.05c0.649-0.05,1.149-0.101,1.45-0.101c1.101,0,1.851,0.701,1.851,1.701
		c0,0.25-0.051,0.5-0.101,0.799c-0.051,0.351-0.102,0.601-0.102,0.65c0,0.051,0.051,0.551,0.15,1.199
		c0.051,0.2,0.051,0.352,0.051,0.5c0,1.001-0.25,1.45-0.75,1.45c-0.301,0-0.75-0.05-1.351-0.199l-1-0.149
		c-1.051,0-1.2,0-1.352-0.051l-0.85-0.101h-1l-0.45-0.05l-3.102-0.051c-0.6,0-1.3,0.199-1.55,0.5c-0.351,0.351-0.7,1.449-0.7,2.101
		c0,0.601,0.302,1.851,0.5,2.101c0.25,0.301,1.102,0.601,1.7,0.601l1.45-0.05c0.9,0.149,0.9,0.149,1.45,0.199l0.8,0.051
		c0.25,0.05,0.45,0.05,0.551,0.05c0.199,0,0.199,0,1.25-0.101c0.601,0.051,1.399,0.149,2.4,0.25c0.699,0.051,1.35,0.649,1.35,1.2
		c0,0.05-0.051,0.3-0.149,0.65c-0.051,0.25-0.051,0.448-0.051,0.75c0,0.399,0.051,0.85,0.149,1.35c0.051,0.3,0.051,0.55,0.051,0.8
		c0,0.75-0.75,1.352-1.649,1.352c-0.101,0-0.851-0.15-2.15-0.45c-0.35-0.101-0.65-0.149-0.75-0.149c-0.05,0-0.4,0.049-0.9,0.101
		c-0.148,0.05-0.25,0.05-0.35,0.05c-0.199,0-0.199,0-0.9-0.102l-1.1,0.052c-0.05,0-0.25,0-0.5-0.052
		c-0.25-0.049-0.5-0.049-0.8-0.049c-0.75,0-1.352,0.25-1.8,0.699c-0.451,0.45-0.451,0.45-0.451,2.6l-0.049,1.15
		c-0.051,0.301-0.051,0.551-0.051,0.801c0,1,0.199,2.65,0.399,3.449c0.25,0.951,1.101,1.65,2.2,1.75c0.75,0.102,3.2,0.15,5,0.15
		c0.65,0,0.7,0,2.2-0.4c0.25-0.049,0.551-0.1,0.801-0.1c0.799,0,1.449,0.551,1.449,1.25c0,0.25-0.05,0.551-0.101,0.9
		c-0.1,0.35-0.149,0.649-0.149,0.85c0,0.199,0,0.199,0.25,1.4c0.051,0.25,0.1,0.5,0.1,0.75c0,1-0.648,1.449-2.049,1.449
		c-0.551,0-0.551,0-3.001-0.148c-0.3-0.051-0.55-0.051-1-0.051c-0.25,0-0.25,0-1.25,0.051h-0.599V311.421z"/>
	<path fill="#FBEC06" d="M342.87,310.621c0,0.45-0.551,1.051-1.149,1.301c-0.449,0.199-0.449,0.199-1.8,0.199
		c-1.501,0-1.9-0.05-2.501-0.199c-1.899-0.601-2.149-0.801-5.4-3.551c-1.449-1.25-2.199-2.051-3.35-3.449
		c-0.4-0.551-0.95-0.801-1.551-0.801c-0.5,0-0.649,0.15-0.75,0.75c-0.101,0.449-0.149,0.9-0.149,1.25c0,0.351,0,0.351,0.3,1.801
		c0.101,0.75,0.2,1.5,0.2,2.05c0,0.95-0.399,1.45-1.25,1.45h-0.399c-0.351-0.051-0.551-0.051-0.601-0.051l-3.3,0.101
		c-0.9,0-1.5-0.699-1.5-1.75c0-0.601,0.05-1.25,0.198-1.899c0.25-1.15,0.25-1.351,0.25-1.851c0-0.3,0-0.601-0.05-0.851
		c-0.1-0.449-0.148-0.699-0.148-0.699l0.148-1.801c0,0,0-0.149-0.05-0.301c-0.05-0.3-0.05-0.898-0.05-2.05c0-0.351,0-0.351,0.1-2.3
		c-0.148-1.35-0.148-1.35-0.148-2c0-1.5,0-1.5,0.1-2.65c0.05-0.5,0.1-1.25,0.1-2.4c0-0.35,0-0.649-0.05-0.85l-0.05-0.852l0.101-1
		l-0.101-1.648c0.05-1,0.05-1,0.05-1.25c0-0.75-0.1-1.602-0.25-2.4c-0.2-1.101-0.25-1.301-0.25-1.649c0-2.45,0.852-3.5,2.852-3.5
		c0.6,0,0.6,0,2.1,0.198c0.101,0.052,0.301,0.052,0.65,0.052h0.5c0.5-0.052,0.8-0.052,0.8-0.052l1.751,0.102
		c2.398-0.199,2.398-0.199,2.85-0.199c2.851,0,3.95,0.399,6.851,2.35c1.801,1.25,1.801,1.25,3.951,4.301c0.899,1.35,1.05,1.95,1,4.2
		v0.55l0.198,2l-0.198,0.701c-0.15,0.25-0.25,0.648-0.302,1.148c-0.25,1.352-0.299,1.45-0.799,2.5l-0.649,1.352
		c-0.5,1-0.65,1.25-1.102,1.6c-2.05,1.801-2.851,2.352-4.05,2.852c-0.801,0.25-1.051,0.398-1.051,0.699c0,0.351,0,0.351,0.801,1.051
		l1.3,1.25c0.8,0.8,2.25,1.25,3.95,1.3c0.801,0,1.1,0.101,1.45,0.399c0.398,0.351,0.7,0.851,0.7,1.25c0,0.15-0.052,0.551-0.2,1.15
		l-0.05,0.551v1.547H342.87z M329.42,283.82l-0.851-0.051c-0.851,0-1.899,0.949-2.051,1.801c-0.05,0.25-0.149,2.5-0.149,3.301
		c0,0.25,0,0.25,0.149,3.25l-0.05,0.351c-0.101,0.698-0.149,1.299-0.149,1.85c0,1.25,0.149,2.5,0.351,2.802
		c0.199,0.398,1.35,0.75,2.5,0.75c0.801,0,1.149-0.102,2.6-0.75l0.951-0.302c1-0.3,1-0.3,1.75-1.5c0.1-0.149,0.449-0.649,1.1-1.5
		c0.45-0.6,0.851-1.399,0.95-1.801c0.25-1.649,0.25-1.75,0.25-1.799c0-0.351-0.5-2.251-0.75-2.751
		c-0.75-1.602-2.75-3.102-4.501-3.398l-0.85-0.15c-0.25-0.1-0.449-0.15-0.551-0.15L329.42,283.82z"/>
	<path fill="#FBEC06" d="M349.269,311.421c-1.301,0-1.95-0.75-1.95-2.301c0-0.699,0-0.699,0.3-2.449
		c0.051-0.149,0.051-0.301,0.051-0.5v-0.45c-0.149-1.15-0.2-2-0.2-2.15v-0.35l0.101-1.65c0-0.698,0-0.698,0.149-2.399l-0.25-4.699
		l0.2-4.301c-0.101-1.9-0.101-1.9-0.2-3.951c0-0.1,0.051-0.449,0.101-0.898c0.05-0.451,0.101-0.801,0.101-1.15
		c0-0.199,0-0.199-0.051-0.6c-0.05-0.201-0.199-1.301-0.399-3.301c0-1.551,0.75-2.45,2.101-2.45c0.3,0,0.55,0,0.75,0.05
		c0.399,0.051,0.649,0.1,0.649,0.1l1.851-0.148c0.102,0,0.8,0.398,1.05,0.551c0.4,0.35,0.65,0.85,0.65,1.399
		c0,0.351-0.05,0.75-0.1,1.149c-0.052,0.449-0.052,0.449-0.102,0.949c0,0.15-0.05,0.5-0.1,1.102l0.1,1.25l-0.1,1l0.05,0.898
		l-0.05,0.951l0.148,1.801c0,0.049,0,0.25-0.05,0.549c-0.05,0.25-0.05,0.451-0.05,0.701c0,0.75,0,1.949,0.05,2.199
		c0.05,0.4,0.05,0.699,0.05,0.699c0,0.201-0.05,0.602-0.148,1.102c-0.05,0.199-0.05,0.299-0.05,0.351l0.1,1.3
		c-0.15,1.3-0.15,1.3-0.15,1.45c0,0.25,0,0.25,0.302,1.75l-0.052,0.3l-0.05,0.75c0,0.648,0,0.648-0.05,1.2
		c0.15,1.2,0.3,2.5,0.3,2.899c0,0.051-0.05,0.301-0.1,0.65s-0.05,0.648-0.05,0.898c0,0.551,0.198,2.5,0.35,3.352
		c0.05,0.35,0.1,0.65,0.1,0.9c0,1-0.698,1.6-1.899,1.6c-0.25,0-0.25,0-1.299-0.1c-0.15-0.051-0.4-0.051-0.65-0.051
		c-0.1,0-0.35,0-0.7,0.051h-0.802V311.421z"/>
	<path fill="#FBEC06" d="M376.92,308.271c0.1,0.398,0.149,0.75,0.149,1.05c0,1.649-1.551,2.8-3.801,2.8
		c-2.3,0-5.85-0.899-7.35-1.899c-3.252-2.101-5.65-5.25-6.853-8.95c-0.799-2.5-0.85-3.2-0.85-8.45c0-2.45,0.45-4.101,1.899-7.101
		c1.4-2.95,2.15-3.9,4.351-5.551c1.45-1.051,1.95-1.301,4.601-2.201c1.602-0.5,2.501-0.698,3.55-0.698
		c1.9,0,3.251,0.448,3.701,1.198c0.25,0.4,0.25,0.4,0.351,1.602c0.05,0.25,0.1,1,0.199,2.2c0,1.25-0.8,2.301-1.8,2.301
		c-0.351,0-0.851-0.051-1.399-0.2c-1-0.199-1.65-0.3-2.101-0.3c-0.701,0-2.051,0.5-2.801,1.05c-0.801,0.551-1.85,2.101-2.4,3.5
		c-0.55,1.399-1.35,4.75-1.35,5.602c0,1,0.5,3.85,0.85,4.9c0.45,1.25,1.7,3.75,2.2,4.299c0.852,0.951,2.05,1.5,3.3,1.5
		c0.4,0,0.4,0,1.451-0.25c0.199-0.049,0.75-0.101,1.101-0.101c1.899,0,2.6,0.701,2.85,2.802L376.92,308.271z"/>
	<path fill="#FBEC06" d="M396.269,305.421c-0.45,0.05-0.801,0.101-0.801,0.101c-0.049,0-0.25,0-0.549-0.051h-0.5
		c-0.451,0-0.451,0-2.052,0.2c-0.449,0.05-0.801,0.05-1.1,0.05c-0.4,0-0.9-0.05-1.451-0.15c-0.398-0.049-0.75-0.1-0.949-0.1
		c-1.601,0-2.75,1.35-2.801,3.149c0,1.551,0,1.551-0.35,2.101c-0.4,0.551-0.801,0.801-1.45,0.801c-0.352,0-0.8-0.051-1.3-0.101
		l-1-0.051c-0.25,0-0.7,0-1.45,0.051h-0.5c-1.05,0-1.65-0.5-1.65-1.301c0-0.5,0.25-1.199,0.75-2.149
		c0.352-0.601,0.55-1.05,0.602-1.199l0.25-1.051c0.1-0.3,0.25-0.65,0.449-1.05c0.399-0.801,0.7-1.602,0.95-2.45
		c0.199-0.95,0.399-1.851,0.601-2.75c0.1-0.302,0.25-0.7,0.699-1.851c0.351-0.899,0.7-1.951,1.051-3.201
		c0.199-0.649,0.399-1.198,0.6-1.6l0.65-1.5c0.3-0.9,0.5-1.449,1-3.15c0.1-0.35,0.2-0.699,0.3-1.1c0.101-0.352,0.05-0.15,0.2-0.5
		l0.25-0.701l0.25-0.85c0.25-1.051,0.35-1.301,1-2.95c0.35-1,0.6-1.7,0.6-1.8c0.65-2.15,0.951-2.45,2.701-2.45
		c0.199,0,0.449,0,0.699,0.05l0.75,0.051l1.851-0.051c0.2,0,0.852,0.45,1.2,0.801c0.25,0.25,0.449,0.75,0.699,1.649
		c0.101,0.25,0.25,0.649,0.451,1.3l0.6,1.45l1.05,2.3c0.4,0.852,0.602,1.551,0.8,2.602c0.15,0.8,0.15,0.9,0.602,1.949
		c0.2,0.25,0.3,0.601,0.398,1l0.302,1.25l0.399,1.052c0.149,0.549,0.299,1.049,0.399,1.5l0.2,0.85c0.1,0.351,0.3,0.7,0.5,1.2
		c0.25,0.5,0.149,0.25,0.35,0.75l0.551,1.5l0.199,1.05l0.25,0.601c0.1,0.25,0.2,0.5,0.25,0.75l0.35,1.5l0.25,0.649l0.501,1.15
		c0.149,0.399,0.301,0.801,0.399,1.149c0.15,0.5,0.301,0.9,0.5,1.199l0.65,1.102c0.399,0.75,0.649,1.601,0.649,2.25
		c0,0.75-0.35,1.149-1.101,1.149l-1-0.05c-0.649-0.1-1.149-0.15-1.45-0.15c-0.199,0-0.699,0.051-1.3,0.101
		c-0.45,0.051-0.852,0.101-1.2,0.101c-1.3,0-1.75-0.75-1.85-3c0-1.101-0.15-1.501-0.951-2.55c-0.299-0.45-0.699-0.601-1.449-0.601
		H396.269L396.269,305.421z M391.618,291.27c-0.449,1.25-0.551,1.451-0.801,2.351c-0.398,1.4-0.5,1.75-0.85,2.5
		c-0.351,0.801-0.351,0.801-0.949,2.852c0,0.4,0.75,0.9,1.35,0.9l1.601-0.052c0.051,0,0.25,0,0.551,0.052h0.6
		c0.351,0,0.601,0,0.802-0.052l0.35-0.05h1c0.3,0,0.75-0.55,0.75-0.898c0-0.25,0-0.25-0.5-1.301l-0.301-1.051l-0.199-0.949
		l-0.5-1.65l-0.25-1l-0.15-0.551c-0.149-0.851-0.35-1.449-0.449-1.799c-0.45-1.052-0.551-1.201-0.5-1.352
		c-0.051-0.25-0.2-0.85-0.399-1.7c-0.051-0.05-0.101-0.149-0.15-0.149L391.618,291.27z"/>
	<path fill="#FBEC06" d="M431.67,311.521c-0.5,0.05-1.102,0.05-1.65,0.05c-1.051,0-1.551-0.2-2.201-1
		c-0.449-0.601-0.449-0.601-1.648-3.45c-0.801-1.699-0.95-2-2.301-3.85c-0.5-0.701-1.399-2.251-2-3.4l-0.301-0.649
		c-0.35-0.552-0.699-1.052-1.1-1.601c-0.2-0.25-0.101-0.101-0.301-0.451c-0.25-0.398-0.75-1.35-1.399-2.799l-0.7-1.051l-0.399-0.449
		c-0.25-0.399-0.5-0.701-0.75-0.951c-0.101-0.198-0.25-0.299-0.301-0.299c-0.148,0-0.3,0.25-0.25,0.549
		c0.102,1,0.15,2.052,0.15,2.802c0,0.1,0,0.25-0.05,0.399c-0.051,0.5-0.102,0.799-0.102,0.851c0,0.05,0.102,0.55,0.2,1.198
		c0.05,0.15,0.05,0.302,0.05,0.352l-0.199,2.25l0.25,2.3c0,0,0,0.15-0.051,0.4c-0.05,0.399-0.05,0.45-0.148,2.45
		c0,1.148,0.05,1.898,0.398,4.55v0.351c0,0.801-0.55,1.399-1.351,1.399c-0.149,0-0.449,0-0.75-0.05
		c-0.199-0.051-0.399-0.051-0.549-0.051c-0.15,0-0.15,0-1.301,0.101c-0.199,0.051-0.301,0.051-0.4,0.051
		c-1.1,0-1.399-0.101-1.85-0.45c-0.65-0.55-0.9-1.199-0.9-2.15c0-0.6,0.101-1.299,0.25-2.049c0.15-0.552,0.2-1,0.2-1.201
		c0-0.049-0.05-0.398-0.101-0.898c-0.05-0.5-0.149-2.501-0.149-3.251c0-0.3,0-0.3,0.149-1.149c-0.05-1.551-0.149-3.649-0.149-3.951
		c0-0.35,0-0.35,0.101-1.549l-0.149-5.15c0.05-0.6,0.149-1.648,0.3-3.148l-0.149-1.451c0.101-1.149,0.101-1.149,0.101-1.25
		c0-0.5-0.25-1.601-0.601-2.699c-0.25-0.65-0.351-1.201-0.351-1.551c0-0.9,0.8-1.801,1.649-1.801c0.149,0,0.352,0,0.551,0.051
		c0.949,0.1,1.649,0.149,1.75,0.149c0.1,0,0.449-0.051,0.899-0.101c0.25-0.051,0.5-0.051,0.699-0.051
		c0.701,0,1.851,0.551,2.301,1.15c0.601,0.75,1,1.551,1.7,3.2l0.351,0.649l0.5,0.75l0.3,0.649l0.101,0.302
		c0.3,0.898,0.3,0.898,1.05,1.799c0.45,0.551,0.801,1.101,1.102,1.601l1.35,2.7l0.3,0.699l0.801,0.852
		c0.15,0.25,0.301,0.449,0.4,0.648c0.449,0.899,0.549,1.051,1.049,1.801c0.15,0.199,0.15,0.199,0.602,1.051
		c0.5,0.9,0.949,1.55,1.101,1.55c0.149,0,0.25-0.25,0.25-0.7l-0.25-3.9v-0.85c0.049-0.9,0.049-2.101,0.049-2.75
		c0-0.9,0-1.15-0.049-2.801v-1.25v-0.9c0.049-0.549,0.049-0.898,0.049-1.049c0-0.451,0-0.451-0.299-1.951
		c-0.051-0.35-0.101-0.699-0.101-1c0-1.399,0.648-2.049,2.199-2.1l1.5-0.15c0.351-0.049,0.7-0.049,1.052-0.049
		c1.299,0,2.1,1.049,2.1,2.85c0,0.5,0,0.5-0.301,4.551c-0.049,0.449-0.049,0.8-0.049,0.898c0,0.201,0.049,0.701,0.148,1.4
		c0.149,1,0.2,1.95,0.2,2.852c0,0.699-0.1,2.549-0.15,3.148c-0.05,0.75-0.1,1.251-0.1,1.301c0,0.051,0.05,0.9,0.15,2.15
		c0.049,0.3,0.049,0.6,0.049,0.949c0,0.301,0,0.701-0.049,1.051c-0.102,1.35-0.15,2.3-0.15,2.55c0,0.149,0,0.45,0.05,0.8
		c0.102,0.801,0.149,1.352,0.149,1.602c0,0.101,0,0.398-0.049,0.75v1.25c0,0.898,0,1,0.25,2.4c0.1,0.5,0.148,0.949,0.148,1.398
		c0,1.352-0.5,1.801-1.8,1.801h-0.2h-0.899V311.521z"/>
</g>
<g>
	<path fill="#FBEC06" d="M94.973,361.571c-0.851,0-1.601,0-1.95-0.05c-1.7-0.1-2.9-0.2-2.95-0.2s-0.55,0.101-1.25,0.2
		c-0.55,0.1-1.1,0.15-1.6,0.15c-2,0-3.051-1.051-3.051-3.051c0-0.25,0.051-0.5,0.101-0.802c0.149-0.899,0.25-1.6,0.25-1.799
		c0-0.051-0.05-0.301-0.101-0.649c-0.1-0.601-0.149-1.451-0.149-2.201c0-1.149,0-1.299,0.25-3c0.05-0.351,0.1-0.799,0.1-1.351
		c0-0.55,0-0.55-0.1-2.801c-0.05-0.699-0.05-1.3-0.05-1.8c0-0.35,0-0.7,0.05-1.051l0.05-1.649c0-0.399-0.1-2.05-0.2-3.3v-0.5
		c0-0.352,0-0.352,0.15-3v-0.602c0-0.398,0-0.5-0.101-1.05c-0.05-0.649-0.05-0.649-0.1-1.351c0-0.25-0.05-0.85-0.15-1.899
		c0-1,1.101-1.851,2.301-1.851c0.3,0,0.75,0,1.3,0.051c0.3,0.05,0.6,0.05,0.85,0.05c0.3,0,0.3,0,1.8-0.101h0.801
		c0.55,0,1.05,0.051,1.55,0.101c0.55,0.05,0.899,0.101,0.95,0.101l1.6-0.051c1.6,0.15,1.6,0.15,2.2,0.15l2-0.051
		c0.649-0.051,1.149-0.1,1.45-0.1c1.1,0,1.85,0.699,1.85,1.699c0,0.25-0.05,0.5-0.1,0.801c-0.051,0.35-0.101,0.6-0.101,0.649
		s0.05,0.55,0.15,1.198c0.05,0.201,0.05,0.352,0.05,0.5c0,1.002-0.25,1.451-0.75,1.451c-0.3,0-0.75-0.051-1.35-0.199l-1-0.15
		c-1.051,0-1.2,0-1.351-0.05l-0.85-0.101h-1l-0.45-0.051l-3.1-0.05c-0.601,0-1.301,0.2-1.551,0.5
		c-0.35,0.351-0.699,1.45-0.699,2.101c0,0.601,0.3,1.851,0.5,2.101c0.25,0.301,1.1,0.601,1.699,0.601l1.45-0.05
		c0.9,0.149,0.9,0.149,1.45,0.199l0.8,0.051c0.25,0.05,0.45,0.05,0.55,0.05c0.2,0,0.2,0,1.25-0.101c0.601,0.051,1.4,0.149,2.4,0.25
		c0.7,0.051,1.35,0.649,1.35,1.2c0,0.05-0.05,0.3-0.149,0.65c-0.05,0.25-0.05,0.449-0.05,0.75c0,0.398,0.05,0.85,0.149,1.35
		c0.05,0.3,0.05,0.55,0.05,0.8c0,0.75-0.75,1.351-1.649,1.351c-0.101,0-0.851-0.148-2.15-0.449c-0.35-0.101-0.649-0.15-0.75-0.15
		c-0.05,0-0.399,0.051-0.899,0.102c-0.15,0.049-0.25,0.049-0.351,0.049c-0.2,0-0.2,0-0.899-0.1l-1.101,0.051
		c-0.05,0-0.25,0-0.5-0.051s-0.5-0.051-0.8-0.051c-0.75,0-1.35,0.25-1.8,0.701c-0.45,0.449-0.45,0.449-0.45,2.6l-0.05,1.15
		c-0.05,0.3-0.05,0.55-0.05,0.8c0,1,0.199,2.649,0.399,3.45c0.25,0.949,1.101,1.65,2.2,1.75c0.75,0.1,3.2,0.15,5,0.15
		c0.65,0,0.7,0,2.2-0.4c0.25-0.051,0.55-0.1,0.8-0.1c0.8,0,1.45,0.549,1.45,1.25c0,0.25-0.05,0.549-0.101,0.899
		c-0.1,0.351-0.149,0.649-0.149,0.851c0,0.198,0,0.198,0.25,1.399c0.05,0.25,0.1,0.5,0.1,0.75c0,1-0.649,1.448-2.05,1.448
		c-0.55,0-0.55,0-3-0.148c-0.3-0.05-0.55-0.05-1-0.05c-0.25,0-0.25,0-1.25,0.05h-0.6V361.571z"/>
	<path fill="#FBEC06" d="M121.323,354.671l-0.6-0.852l-0.801-1.8l-0.3-0.55c-0.45-0.85-0.7-1.45-1.149-2.6
		c-0.2-0.451-0.4-0.75-0.5-0.75c-0.15,0-0.45,0.448-0.75,1.25c-0.2,0.6-0.301,0.75-0.4,0.948c-0.15,0.302-0.25,0.552-0.35,0.802
		c0.05,0.1-0.101,0.448-0.4,1l-0.3,0.549c-0.4,0.601-0.601,1-1.101,2.399c-0.1,0.201-0.199,0.451-0.35,0.802l-0.65,0.948l-0.6,1.25
		l-0.25,0.649c-0.5,1.602-0.6,1.852-0.9,2.25c-0.399,0.5-0.949,0.75-1.449,0.75c-1-0.049-2.301-0.1-2.5-0.1
		c-1.101,0.051-1.101,0.051-1.2,0.051c-1.15,0-1.9-0.5-1.9-1.301c0-0.6,0.2-1.1,0.9-2.35c0.45-0.852,0.5-1,0.8-1.701
		c0.35-0.799,0.6-1.35,0.75-1.699c0.15-0.1,0.3-0.551,1.05-2.451l0.3-0.6l1-1.949c0.15-0.25,0.25-0.551,0.351-0.801l0.399-1
		c0.25-0.6,0.5-1.1,0.75-1.6c0.9-1.602,1.45-3.051,1.45-3.65s-0.05-0.65-2-4.15c-0.2-0.25-0.35-0.6-0.5-0.949l-1.05-2.45
		c-0.2-0.5-0.3-0.7-0.55-1.149c-0.15-0.301-0.4-0.75-0.65-1.301c-0.2-0.602-0.35-0.8-0.8-1.25c-0.4-0.602-0.6-1.148-0.6-1.602
		c0-0.648,0.649-1.799,1.05-1.75l2.8,0.201c0,0,0.25-0.051,0.65-0.101c0.25-0.05,0.55-0.101,0.85-0.101c1.3,0,1.85,0.551,2.25,2.051
		c0.3,1.15,0.45,1.5,0.65,1.85c0.149,0.301,0.3,0.6,0.449,0.95c0.301,0.649,0.601,1.149,0.851,1.5c0.149,0.101,1.1,2.251,1.25,2.8
		c0.25,0.801,0.45,1.201,0.649,1.201c0.25,0,0.4-0.25,1.051-1.951c0.199-0.449,0.35-0.898,0.6-1.398c0.2-0.45,0.1-0.2,0.35-0.65
		c1.25-2.25,1.351-2.398,1.4-2.75l0.1-1.148c0.2-1.451,1.15-2.451,2.351-2.451c0.399,0,0.7,0.051,1,0.101
		c0.399,0.101,0.7,0.149,0.7,0.149l2.351-0.1c0.3,0,0.75,0.949,0.75,1.699c0,0.7-0.25,1.5-0.7,2.301l-0.6,1.051l-0.55,1.5
		c-0.15,0.398-0.301,0.699-0.5,1c-0.15,0.299-0.101,0.149-0.25,0.449l-0.301,0.5c-0.25,0.551-0.449,1.051-0.649,1.551l-0.3,0.549
		l-0.95,1.5c-0.25,0.352-1,2.4-1,2.65c0,0.45,0.05,0.551,0.95,1.852c0.449,0.75,0.5,0.85,1,2.648c0.05,0.25,0.199,0.5,0.399,0.752
		l0.601,0.648c0.35,0.398,0.6,0.898,0.8,1.5c0.5,1.199,0.6,1.449,0.899,2l0.9,1.449c0.3,0.601,0.45,1.052,0.6,1.451
		c0.25,0.949,0.301,1.049,0.601,1.449c0.2,0.449,0.399,0.75,0.55,1c0.1,0.199,0.25,0.449,0.45,0.699l0.35,0.4
		c0.55,0.601,0.851,1.351,0.851,2.051c0,0.699-0.301,1-1,1c-0.4,0-0.851-0.051-1.4-0.15c-0.5-0.05-0.85-0.1-1.05-0.1
		c-0.15,0-0.5,0.05-1.05,0.15c-0.5,0.049-0.95,0.1-1.45,0.1c-2.15,0-2.55-0.5-3-3.5c-0.25-0.701-0.351-1-0.65-1.801
		c-0.25-0.551-0.25-0.6-0.45-0.9L121.323,354.671z"/>
	<path fill="#FBEC06" d="M134.822,352.971c0-0.101,0-0.25-0.05-0.4c-0.05-0.698-0.101-1.25-0.101-1.5c0-0.05,0-0.25,0.051-0.5
		c0.05-0.6,0.1-1.85,0.1-2.35c0-0.552-0.05-1.2-0.15-1.9c-0.05-0.35-0.1-0.6-0.1-0.649c0.3-3.551,0.3-3.551,0.3-4.2
		c0-0.55,0-1-0.05-1.45c-0.05-0.35-0.05-0.6-0.05-0.65l0.05-1.549c-0.1-1.101-0.1-1.101-0.1-1.301c0-0.199,0-0.4,0.05-0.65l0.05-0.8
		c0-0.1-0.1-1.05-0.3-2.351c-0.05-0.5-0.101-1.049-0.101-1.75c0-2.449,0.601-3.051,3.101-3.051c0.45,0,0.85,0.051,1.649,0.15
		c0.351,0.051,0.601,0.051,0.65,0.051l2-0.101l1.25,0.101l2.25-0.15c3.85,0.199,3.85,0.199,5.6,1.301
		c1.45,0.85,2.7,1.699,3.352,2.199c0.35,0.301,0.35,0.301,1.35,1.851l0.5,0.601c0.851,0.949,1.2,1.851,1.3,3.551
		c0.051,0.199,0.051,0.398,0.15,0.699c0.05,0.199,0.05,0.199,0.05,0.699c0,0.65,0.05,1.301,0.101,2.002c0,1-0.851,4.25-1.351,5.25
		c-1.05,2-2.851,3.899-4.5,4.699c-0.3,0.15-0.55,0.301-0.8,0.45l-0.45,0.399c-0.95,0.75-3.85,1.601-5.601,1.601h-0.7
		c-0.75-0.05-1.2-0.05-1.45-0.05c-1.399,0-1.8,0.4-1.8,1.801c0,1.199,0.05,1.549,0.4,2.699c0.149,0.6,0.3,1.602,0.3,2.301
		c0,1.1-0.45,1.65-1.351,1.65c-0.35,0-0.649,0-0.949-0.051c-0.551-0.051-0.9-0.101-1.101-0.101c-0.05,0-0.25,0-0.5,0.05
		c-0.5,0.051-0.95,0.102-1.3,0.102c-1.3,0-1.95-0.801-1.95-2.352c0-0.5,0.05-1.05,0.101-1.55c0.05-0.649,0.1-1.101,0.1-1.301
		c0-0.101-0.05-0.601-0.1-1.25c-0.051-0.25-0.051-0.5-0.051-0.699c0-0.2,0-0.2,0.15-1.301V352.971L134.822,352.971z
		 M141.172,337.169c-0.1,1.101-0.1,1.101-0.1,1.351c0,0.351,0,0.601,0.1,1.7c0.051,0.449,0.051,0.852,0.051,1.15
		c0,0.351,0,0.75-0.051,1.25c-0.199,1.799-0.199,1.851-0.199,2.25c0,1.399,0.3,2.25,0.8,2.449c0.3,0.15,1.6,0.25,2.6,0.25
		c0.8,0,0.8,0,1.75-0.4l0.8-0.148c0.801-0.15,2-0.9,2.601-1.602c0.3-0.35,1-1.5,1.25-2c0.2-0.448,0.649-2.049,0.649-2.299
		c-0.05-1.25-0.149-1.951-0.199-2.15c-0.801-2.5-1.45-3.5-2.9-4.102c-1.45-0.648-3.2-1.05-4.35-1.05c-1.5,0-2.851,1-2.851,2.15
		L141.172,337.169z"/>
	<path fill="#FBEC06" d="M171.722,361.571c-0.851,0-1.601,0-1.95-0.05c-1.7-0.1-2.9-0.2-2.95-0.2s-0.55,0.101-1.25,0.2
		c-0.55,0.1-1.1,0.15-1.6,0.15c-2,0-3.051-1.051-3.051-3.051c0-0.25,0.051-0.5,0.101-0.802c0.149-0.899,0.25-1.6,0.25-1.799
		c0-0.051-0.05-0.301-0.101-0.649c-0.1-0.601-0.149-1.451-0.149-2.201c0-1.149,0-1.299,0.25-3c0.05-0.351,0.1-0.799,0.1-1.351
		c0-0.55,0-0.55-0.1-2.801c-0.05-0.699-0.05-1.3-0.05-1.8c0-0.35,0-0.7,0.05-1.051l0.05-1.649c0-0.399-0.1-2.05-0.2-3.3v-0.5
		c0-0.352,0-0.352,0.15-3v-0.602c0-0.398,0-0.5-0.101-1.05c-0.05-0.649-0.05-0.649-0.1-1.351c0-0.25-0.05-0.85-0.15-1.899
		c0-1,1.101-1.851,2.301-1.851c0.3,0,0.75,0,1.3,0.051c0.3,0.05,0.6,0.05,0.85,0.05c0.3,0,0.3,0,1.8-0.101h0.801
		c0.55,0,1.05,0.051,1.55,0.101c0.55,0.05,0.899,0.101,0.95,0.101l1.6-0.051c1.6,0.15,1.6,0.15,2.2,0.15l2-0.051
		c0.649-0.051,1.149-0.1,1.45-0.1c1.1,0,1.85,0.699,1.85,1.699c0,0.25-0.05,0.5-0.1,0.801c-0.051,0.35-0.101,0.6-0.101,0.649
		s0.05,0.55,0.15,1.198c0.05,0.201,0.05,0.352,0.05,0.5c0,1.002-0.25,1.451-0.75,1.451c-0.3,0-0.75-0.051-1.35-0.199l-1-0.15
		c-1.051,0-1.2,0-1.351-0.05l-0.85-0.101h-1l-0.45-0.051l-3.1-0.05c-0.601,0-1.301,0.2-1.551,0.5
		c-0.35,0.351-0.699,1.45-0.699,2.101c0,0.601,0.3,1.851,0.5,2.101c0.25,0.301,1.1,0.601,1.699,0.601l1.45-0.05
		c0.9,0.149,0.9,0.149,1.45,0.199l0.8,0.051c0.25,0.05,0.45,0.05,0.55,0.05c0.2,0,0.2,0,1.25-0.101c0.601,0.051,1.4,0.149,2.4,0.25
		c0.7,0.051,1.35,0.649,1.35,1.2c0,0.05-0.05,0.3-0.149,0.65c-0.05,0.25-0.05,0.449-0.05,0.75c0,0.398,0.05,0.85,0.149,1.35
		c0.05,0.3,0.05,0.55,0.05,0.8c0,0.75-0.75,1.351-1.649,1.351c-0.101,0-0.851-0.148-2.15-0.449c-0.35-0.101-0.649-0.15-0.75-0.15
		c-0.05,0-0.399,0.051-0.899,0.102c-0.15,0.049-0.25,0.049-0.351,0.049c-0.2,0-0.2,0-0.899-0.1l-1.101,0.051
		c-0.05,0-0.25,0-0.5-0.051s-0.5-0.051-0.8-0.051c-0.75,0-1.35,0.25-1.8,0.701c-0.45,0.449-0.45,0.449-0.45,2.6l-0.05,1.15
		c-0.05,0.3-0.05,0.55-0.05,0.8c0,1,0.199,2.649,0.399,3.45c0.25,0.949,1.101,1.65,2.2,1.75c0.75,0.1,3.2,0.15,5,0.15
		c0.65,0,0.7,0,2.2-0.4c0.25-0.051,0.55-0.1,0.8-0.1c0.8,0,1.45,0.549,1.45,1.25c0,0.25-0.05,0.549-0.101,0.899
		c-0.1,0.351-0.149,0.649-0.149,0.851c0,0.198,0,0.198,0.25,1.399c0.05,0.25,0.1,0.5,0.1,0.75c0,1-0.649,1.448-2.05,1.448
		c-0.55,0-0.55,0-3-0.148c-0.3-0.05-0.55-0.05-1-0.05c-0.25,0-0.25,0-1.25,0.05h-0.6V361.571z"/>
	<path fill="#FBEC06" d="M206.673,360.771c0,0.449-0.55,1.05-1.149,1.3c-0.45,0.2-0.45,0.2-1.8,0.2c-1.5,0-1.9-0.051-2.5-0.2
		c-1.9-0.601-2.15-0.8-5.4-3.55c-1.45-1.25-2.2-2.051-3.35-3.451c-0.4-0.549-0.95-0.8-1.551-0.8c-0.5,0-0.649,0.149-0.75,0.751
		c-0.1,0.449-0.149,0.898-0.149,1.25c0,0.35,0,0.35,0.3,1.799c0.1,0.75,0.2,1.502,0.2,2.051c0,0.951-0.4,1.451-1.25,1.451h-0.4
		c-0.35-0.051-0.55-0.051-0.6-0.051l-3.3,0.1c-0.9,0-1.5-0.699-1.5-1.75c0-0.6,0.05-1.25,0.199-1.899
		c0.25-1.149,0.25-1.351,0.25-1.851c0-0.301,0-0.6-0.05-0.85c-0.1-0.451-0.149-0.701-0.149-0.701l0.149-1.8c0,0,0-0.149-0.05-0.3
		c-0.05-0.301-0.05-0.9-0.05-2.051c0-0.35,0-0.35,0.1-2.299c-0.149-1.352-0.149-1.352-0.149-2.002c0-1.5,0-1.5,0.1-2.648
		c0.05-0.5,0.1-1.25,0.1-2.4c0-0.351,0-0.65-0.05-0.851l-0.05-0.851l0.1-1l-0.1-1.649c0.05-1,0.05-1,0.05-1.25
		c0-0.75-0.1-1.601-0.25-2.399c-0.2-1.102-0.25-1.301-0.25-1.65c0-2.45,0.851-3.5,2.851-3.5c0.6,0,0.6,0,2.1,0.199
		c0.1,0.051,0.3,0.051,0.65,0.051h0.5c0.5-0.051,0.8-0.051,0.8-0.051l1.75,0.101c2.399-0.199,2.399-0.199,2.85-0.199
		c2.851,0,3.95,0.399,6.851,2.351c1.8,1.25,1.8,1.25,3.949,4.301c0.9,1.35,1.051,1.949,1,4.199v0.551l0.2,2l-0.2,0.699
		c-0.149,0.25-0.25,0.649-0.3,1.149c-0.25,1.351-0.3,1.451-0.8,2.5l-0.65,1.351c-0.5,1.002-0.649,1.252-1.1,1.602
		c-2.05,1.8-2.85,2.35-4.05,2.85c-0.8,0.25-1.05,0.4-1.05,0.7c0,0.351,0,0.351,0.8,1.05l1.3,1.25c0.8,0.801,2.25,1.25,3.95,1.301
		c0.8,0,1.1,0.101,1.45,0.4c0.399,0.35,0.699,0.85,0.699,1.25c0,0.148-0.05,0.549-0.199,1.148l-0.051,0.551V360.771L206.673,360.771
		z M193.222,333.97l-0.851-0.051c-0.85,0-1.899,0.949-2.05,1.801c-0.05,0.25-0.15,2.5-0.15,3.3c0,0.25,0,0.25,0.15,3.25l-0.05,0.351
		c-0.101,0.7-0.15,1.301-0.15,1.852c0,1.25,0.15,2.5,0.351,2.8c0.199,0.399,1.35,0.75,2.5,0.75c0.8,0,1.149-0.101,2.6-0.75l0.95-0.3
		c1-0.301,1-0.301,1.75-1.5c0.1-0.15,0.45-0.65,1.1-1.5c0.45-0.602,0.851-1.4,0.95-1.801c0.25-1.65,0.25-1.75,0.25-1.801
		c0-0.351-0.5-2.25-0.75-2.75c-0.75-1.601-2.75-3.101-4.5-3.399l-0.85-0.149c-0.25-0.101-0.45-0.15-0.551-0.15L193.222,333.97z"/>
	<path fill="#FBEC06" d="M213.071,361.571c-1.3,0-1.95-0.75-1.95-2.3c0-0.701,0-0.701,0.3-2.451c0.051-0.148,0.051-0.299,0.051-0.5
		v-0.449c-0.15-1.149-0.2-2-0.2-2.149v-0.351l0.1-1.649c0-0.7,0-0.7,0.15-2.399l-0.25-4.701l0.2-4.299
		c-0.101-1.9-0.101-1.9-0.2-3.951c0-0.101,0.05-0.449,0.1-0.899s0.101-0.8,0.101-1.149c0-0.201,0-0.201-0.051-0.601
		c-0.05-0.2-0.199-1.3-0.399-3.3c0-1.551,0.75-2.451,2.1-2.451c0.3,0,0.55,0,0.75,0.051c0.4,0.051,0.65,0.1,0.65,0.1l1.85-0.149
		c0.101,0,0.8,0.399,1.05,0.551c0.4,0.351,0.65,0.851,0.65,1.399c0,0.351-0.05,0.75-0.1,1.15c-0.051,0.449-0.051,0.449-0.101,0.949
		c0,0.15-0.05,0.5-0.1,1.1l0.1,1.25l-0.1,1l0.05,0.9l-0.05,0.95l0.149,1.8c0,0.051,0,0.25-0.05,0.551
		c-0.05,0.25-0.05,0.449-0.05,0.699c0,0.75,0,1.951,0.05,2.201c0.05,0.398,0.05,0.699,0.05,0.699c0,0.199-0.05,0.6-0.149,1.1
		c-0.05,0.201-0.05,0.301-0.05,0.352l0.1,1.299c-0.15,1.302-0.15,1.302-0.15,1.451c0,0.25,0,0.25,0.301,1.75l-0.051,0.299
		l-0.05,0.75c0,0.65,0,0.65-0.05,1.201c0.15,1.199,0.3,2.5,0.3,2.899c0,0.05-0.05,0.3-0.1,0.649c-0.05,0.352-0.05,0.65-0.05,0.9
		c0,0.551,0.199,2.5,0.35,3.35c0.05,0.352,0.1,0.65,0.1,0.9c0,1-0.699,1.602-1.899,1.602c-0.25,0-0.25,0-1.3-0.102
		c-0.15-0.05-0.4-0.05-0.65-0.05c-0.1,0-0.35,0-0.7,0.05L213.071,361.571L213.071,361.571z"/>
	<path fill="#FBEC06" d="M234.071,361.571c-0.85,0-1.6,0-1.95-0.05c-1.7-0.1-2.899-0.2-2.95-0.2c-0.05,0-0.55,0.101-1.25,0.2
		c-0.55,0.1-1.1,0.15-1.6,0.15c-2,0-3.05-1.051-3.05-3.051c0-0.25,0.05-0.5,0.1-0.802c0.15-0.899,0.25-1.6,0.25-1.799
		c0-0.051-0.05-0.301-0.1-0.649c-0.101-0.601-0.15-1.451-0.15-2.201c0-1.149,0-1.299,0.25-3c0.05-0.351,0.101-0.799,0.101-1.351
		c0-0.55,0-0.55-0.101-2.801c-0.05-0.699-0.05-1.3-0.05-1.8c0-0.35,0-0.7,0.05-1.051l0.05-1.649c0-0.399-0.1-2.05-0.199-3.3v-0.5
		c0-0.352,0-0.352,0.149-3v-0.602c0-0.398,0-0.5-0.1-1.05c-0.05-0.649-0.05-0.649-0.101-1.351c0-0.25-0.05-0.85-0.149-1.899
		c0-1,1.1-1.851,2.3-1.851c0.3,0,0.75,0,1.3,0.051c0.3,0.05,0.601,0.05,0.851,0.05c0.3,0,0.3,0,1.8-0.101h0.8
		c0.55,0,1.05,0.051,1.55,0.101c0.55,0.05,0.9,0.101,0.95,0.101l1.6-0.051c1.601,0.15,1.601,0.15,2.2,0.15l2-0.051
		c0.65-0.051,1.15-0.1,1.45-0.1c1.1,0,1.85,0.699,1.85,1.699c0,0.25-0.05,0.5-0.1,0.801c-0.05,0.35-0.1,0.6-0.1,0.649
		s0.05,0.55,0.149,1.198c0.05,0.201,0.05,0.352,0.05,0.5c0,1.002-0.25,1.451-0.75,1.451c-0.3,0-0.75-0.051-1.35-0.199l-1-0.15
		c-1.05,0-1.2,0-1.35-0.05l-0.851-0.101h-1l-0.45-0.051l-3.1-0.05c-0.6,0-1.3,0.2-1.55,0.5c-0.351,0.351-0.7,1.45-0.7,2.101
		c0,0.601,0.3,1.851,0.5,2.101c0.25,0.301,1.1,0.601,1.7,0.601l1.45-0.05c0.899,0.149,0.899,0.149,1.449,0.199l0.801,0.051
		c0.25,0.05,0.449,0.05,0.55,0.05c0.2,0,0.2,0,1.25-0.101c0.6,0.051,1.399,0.149,2.399,0.25c0.7,0.051,1.351,0.649,1.351,1.2
		c0,0.05-0.05,0.3-0.15,0.65c-0.05,0.25-0.05,0.449-0.05,0.75c0,0.398,0.05,0.85,0.15,1.35c0.05,0.3,0.05,0.55,0.05,0.8
		c0,0.75-0.75,1.351-1.65,1.351c-0.1,0-0.85-0.148-2.149-0.449c-0.351-0.101-0.65-0.15-0.75-0.15c-0.051,0-0.4,0.051-0.9,0.102
		c-0.15,0.049-0.25,0.049-0.35,0.049c-0.2,0-0.2,0-0.9-0.1l-1.1,0.051c-0.051,0-0.25,0-0.5-0.051s-0.5-0.051-0.801-0.051
		c-0.75,0-1.35,0.25-1.8,0.701c-0.45,0.449-0.45,0.449-0.45,2.6l-0.05,1.15c-0.05,0.3-0.05,0.55-0.05,0.8c0,1,0.2,2.649,0.4,3.45
		c0.25,0.949,1.1,1.65,2.199,1.75c0.75,0.1,3.2,0.15,5,0.15c0.65,0,0.7,0,2.2-0.4c0.25-0.051,0.55-0.1,0.8-0.1
		c0.801,0,1.45,0.549,1.45,1.25c0,0.25-0.05,0.549-0.1,0.899c-0.101,0.351-0.15,0.649-0.15,0.851c0,0.198,0,0.198,0.25,1.399
		c0.05,0.25,0.101,0.5,0.101,0.75c0,1-0.65,1.448-2.051,1.448c-0.55,0-0.55,0-3-0.148c-0.3-0.05-0.55-0.05-1-0.05
		c-0.25,0-0.25,0-1.25,0.05h-0.6V361.571z"/>
	<path fill="#FBEC06" d="M268.172,361.671c-0.5,0.05-1.101,0.05-1.649,0.05c-1.05,0-1.55-0.199-2.2-1
		c-0.449-0.601-0.449-0.601-1.65-3.449c-0.8-1.701-0.949-2-2.3-3.851c-0.5-0.7-1.399-2.252-2-3.4l-0.3-0.648
		c-0.35-0.552-0.7-1.052-1.1-1.602c-0.2-0.25-0.101-0.102-0.301-0.45c-0.25-0.399-0.75-1.35-1.399-2.801l-0.7-1.049l-0.4-0.451
		c-0.25-0.399-0.5-0.699-0.75-0.949c-0.1-0.2-0.25-0.301-0.3-0.301c-0.149,0-0.3,0.25-0.25,0.551c0.101,1,0.15,2.05,0.15,2.8
		c0,0.102,0,0.25-0.05,0.399c-0.051,0.5-0.101,0.801-0.101,0.851c0,0.051,0.101,0.551,0.2,1.2c0.05,0.15,0.05,0.3,0.05,0.351
		l-0.2,2.25l0.25,2.301c0,0,0,0.15-0.05,0.4c-0.05,0.398-0.05,0.448-0.149,2.448c0,1.15,0.05,1.9,0.399,4.552v0.35
		c0,0.801-0.55,1.4-1.35,1.4c-0.15,0-0.45,0-0.75-0.051c-0.2-0.05-0.4-0.05-0.55-0.05c-0.15,0-0.15,0-1.301,0.101
		c-0.199,0.051-0.3,0.051-0.399,0.051c-1.101,0-1.4-0.102-1.851-0.451c-0.649-0.551-0.899-1.199-0.899-2.148
		c0-0.602,0.1-1.301,0.25-2.051c0.149-0.551,0.2-1,0.2-1.201c0-0.049-0.051-0.398-0.101-0.898s-0.149-2.502-0.149-3.252
		c0-0.299,0-0.299,0.149-1.148c-0.05-1.55-0.149-3.65-0.149-3.949c0-0.351,0-0.351,0.1-1.552l-0.15-5.149
		c0.051-0.601,0.15-1.649,0.301-3.149l-0.15-1.45c0.1-1.15,0.1-1.15,0.1-1.25c0-0.5-0.25-1.6-0.6-2.699
		c-0.25-0.65-0.35-1.201-0.35-1.551c0-0.9,0.8-1.801,1.649-1.801c0.15,0,0.351,0,0.55,0.051c0.95,0.1,1.65,0.148,1.75,0.148
		c0.101,0,0.45-0.049,0.9-0.1c0.25-0.05,0.5-0.05,0.7-0.05c0.7,0,1.85,0.55,2.3,1.149c0.6,0.75,1,1.55,1.7,3.199l0.35,0.65l0.5,0.75
		l0.3,0.65l0.101,0.3c0.3,0.899,0.3,0.899,1.05,1.8c0.45,0.551,0.8,1.1,1.1,1.6l1.351,2.701l0.3,0.699l0.8,0.852
		c0.15,0.25,0.3,0.449,0.4,0.648c0.45,0.9,0.55,1.051,1.05,1.801c0.15,0.199,0.15,0.199,0.6,1.051
		c0.5,0.899,0.951,1.549,1.102,1.549c0.149,0,0.25-0.25,0.25-0.698l-0.25-3.899v-0.851c0.05-0.899,0.05-2.101,0.05-2.751
		c0-0.898,0-1.148-0.05-2.801v-1.25v-0.899c0.05-0.55,0.05-0.899,0.05-1.051c0-0.449,0-0.449-0.3-1.949
		c-0.05-0.351-0.102-0.7-0.102-1c0-1.399,0.65-2.051,2.201-2.101l1.5-0.149c0.351-0.051,0.699-0.051,1.05-0.051
		c1.301,0,2.102,1.051,2.102,2.851c0,0.5,0,0.5-0.301,4.551c-0.051,0.451-0.051,0.801-0.051,0.899c0,0.2,0.051,0.7,0.149,1.399
		c0.15,1,0.201,1.949,0.201,2.851c0,0.7-0.102,2.552-0.15,3.149c-0.051,0.75-0.1,1.25-0.1,1.302c0,0.049,0.049,0.899,0.148,2.149
		c0.051,0.299,0.051,0.601,0.051,0.949c0,0.301,0,0.7-0.051,1.051c-0.101,1.351-0.148,2.299-0.148,2.549c0,0.15,0,0.451,0.049,0.802
		c0.101,0.8,0.15,1.351,0.15,1.601c0,0.1,0,0.399-0.051,0.75v1.25c0,0.899,0,1,0.25,2.399c0.102,0.5,0.149,0.95,0.149,1.399
		c0,1.351-0.5,1.801-1.799,1.801h-0.201h-0.899V361.671z"/>
	<path fill="#FBEC06" d="M293.071,358.421c0.101,0.398,0.15,0.75,0.15,1.05c0,1.649-1.551,2.801-3.802,2.801
		c-2.3,0-5.85-0.899-7.35-1.899c-3.251-2.101-5.65-5.25-6.852-8.951c-0.8-2.5-0.851-3.199-0.851-8.449c0-2.451,0.45-4.102,1.9-7.102
		c1.399-2.949,2.149-3.9,4.35-5.551c1.451-1.05,1.951-1.3,4.602-2.199c1.601-0.5,2.501-0.701,3.55-0.701
		c1.9,0,3.251,0.451,3.701,1.201c0.25,0.399,0.25,0.399,0.35,1.6c0.05,0.25,0.101,1,0.2,2.201c0,1.25-0.8,2.3-1.8,2.3
		c-0.352,0-0.852-0.05-1.4-0.2c-1-0.2-1.65-0.3-2.1-0.3c-0.701,0-2.052,0.5-2.802,1.05c-0.801,0.551-1.85,2.1-2.399,3.5
		s-1.351,4.75-1.351,5.602c0,1,0.5,3.851,0.851,4.899c0.45,1.25,1.7,3.75,2.2,4.3c0.851,0.951,2.05,1.5,3.3,1.5
		c0.399,0,0.399,0,1.451-0.25c0.198-0.049,0.75-0.1,1.1-0.1c1.9,0,2.601,0.699,2.851,2.801L293.071,358.421z"/>
	<path fill="#FBEC06" d="M307.172,361.571c-0.852,0-1.602,0-1.951-0.05c-1.699-0.1-2.899-0.2-2.949-0.2
		c-0.051,0-0.551,0.101-1.25,0.2c-0.551,0.1-1.101,0.15-1.601,0.15c-2,0-3.051-1.051-3.051-3.051c0-0.25,0.051-0.5,0.101-0.802
		c0.149-0.899,0.25-1.6,0.25-1.799c0-0.051-0.05-0.301-0.101-0.649c-0.101-0.601-0.149-1.451-0.149-2.201c0-1.149,0-1.299,0.25-3
		c0.051-0.351,0.1-0.799,0.1-1.351c0-0.55,0-0.55-0.1-2.801c-0.05-0.699-0.05-1.3-0.05-1.8c0-0.35,0-0.7,0.05-1.051l0.051-1.649
		c0-0.399-0.101-2.05-0.201-3.3v-0.5c0-0.352,0-0.352,0.15-3v-0.602c0-0.398,0-0.5-0.101-1.05c-0.051-0.649-0.051-0.649-0.101-1.351
		c0-0.25-0.05-0.85-0.149-1.899c0-1,1.101-1.851,2.301-1.851c0.3,0,0.75,0,1.3,0.051c0.301,0.05,0.6,0.05,0.85,0.05
		c0.301,0,0.301,0,1.801-0.101h0.802c0.549,0,1.049,0.051,1.549,0.101c0.551,0.05,0.899,0.101,0.951,0.101l1.6-0.051
		c1.6,0.15,1.6,0.15,2.2,0.15l2-0.051c0.648-0.051,1.148-0.1,1.45-0.1c1.1,0,1.85,0.699,1.85,1.699c0,0.25-0.05,0.5-0.1,0.801
		c-0.051,0.35-0.101,0.6-0.101,0.649s0.05,0.55,0.149,1.198c0.05,0.201,0.05,0.352,0.05,0.5c0,1.002-0.25,1.451-0.75,1.451
		c-0.3,0-0.75-0.051-1.35-0.199l-1-0.15c-1.052,0-1.2,0-1.351-0.05l-0.851-0.101h-1l-0.45-0.051l-3.1-0.05
		c-0.602,0-1.302,0.2-1.552,0.5c-0.35,0.351-0.7,1.45-0.7,2.101c0,0.601,0.301,1.851,0.502,2.101c0.25,0.301,1.1,0.601,1.698,0.601
		l1.45-0.05c0.899,0.149,0.899,0.149,1.45,0.199l0.8,0.051c0.25,0.05,0.45,0.05,0.55,0.05c0.201,0,0.201,0,1.25-0.101
		c0.602,0.051,1.4,0.149,2.4,0.25c0.7,0.051,1.351,0.649,1.351,1.2c0,0.05-0.05,0.3-0.149,0.65c-0.05,0.25-0.05,0.449-0.05,0.75
		c0,0.398,0.05,0.85,0.149,1.35c0.05,0.3,0.05,0.55,0.05,0.8c0,0.75-0.751,1.351-1.649,1.351c-0.102,0-0.852-0.148-2.149-0.449
		c-0.351-0.101-0.649-0.15-0.75-0.15c-0.051,0-0.399,0.051-0.899,0.102c-0.15,0.049-0.25,0.049-0.352,0.049c-0.2,0-0.2,0-0.898-0.1
		l-1.102,0.051c-0.05,0-0.25,0-0.5-0.051s-0.5-0.051-0.8-0.051c-0.75,0-1.35,0.25-1.801,0.701c-0.449,0.449-0.449,0.449-0.449,2.6
		l-0.051,1.15c-0.05,0.3-0.05,0.55-0.05,0.8c0,1,0.199,2.649,0.399,3.45c0.25,0.949,1.102,1.65,2.2,1.75c0.75,0.1,3.2,0.15,5,0.15
		c0.65,0,0.7,0,2.2-0.4c0.25-0.051,0.55-0.1,0.8-0.1c0.801,0,1.45,0.549,1.45,1.25c0,0.25-0.05,0.549-0.101,0.899
		c-0.101,0.351-0.149,0.649-0.149,0.851c0,0.198,0,0.198,0.25,1.399c0.05,0.25,0.101,0.5,0.101,0.75c0,1-0.649,1.448-2.051,1.448
		c-0.55,0-0.55,0-3-0.148c-0.3-0.05-0.55-0.05-1-0.05c-0.25,0-0.25,0-1.25,0.05h-0.598V361.571z"/>
	<path fill="#FBEC06" d="M321.02,348.169l-0.3-1.75c-0.051-0.148-0.051-0.35-0.051-0.649c0-0.851,0.101-1.199,0.95-3.299
		c0.399-0.9,0.399-0.9,1.949-2.853c1.602-1.898,2-2.75,2-4.1c0-1.7-0.75-2.65-2.05-2.65c-0.8,0-1.2,0.15-2.7,1
		c-0.399,0.2-0.85,0.301-1.3,0.301c-0.899,0-1.351-0.601-1.351-1.899l0.051-1.2l-0.101-1c0-0.8,1-1.5,2.3-1.602
		c0.649-0.049,0.851-0.1,1.95-0.35c1.25-0.3,2.101-0.449,2.75-0.449c2.051,0,4.2,0.799,5.25,1.899c1,1.101,1.552,2.95,1.552,5.3
		c0,1.551-0.352,2.75-1.25,4.301c-0.602,1.051-0.602,1.051-2.802,3.551c-1.649,1.9-2.301,3.851-2.301,7.051
		c0,0.449,0,0.8,0.051,1.05c0.051,0.649,0.101,1.25,0.101,1.351c0,0.649-0.449,1.149-1.05,1.149c-0.102,0-0.25,0-0.399-0.05
		c-0.15-0.051-0.25-0.051-0.301-0.051c-0.851,0.15-0.851,0.15-0.95,0.15c-0.75,0-1.351-0.4-1.5-1c0-0.051-0.149-1.201-0.399-3.351
		L321.02,348.169z M320.12,357.121c-0.051-0.149-0.051-0.35-0.051-0.5c0-0.801,0.551-1.399,1.2-1.399c0,0,0.5,0.051,1.25,0.1h0.3
		c0.352,0,0.852-0.049,1.352-0.149c0.398-0.049,0.8-0.101,1-0.101c0.699,0,1.3,0.451,1.5,1.15c0.101,0.301,0.101,0.301,0.101,1.2
		l0.049,0.648l0.102,1.15v0.65c0,1.449-0.45,1.899-1.899,1.899c-0.301,0-0.301,0-1.501-0.101c-0.05,0-0.45,0.049-1,0.199
		c-0.25,0.051-0.5,0.051-0.75,0.051c-1.149,0-1.851-0.701-1.851-1.899c0-0.302,0.051-0.601,0.101-0.899
		c0.101-0.552,0.149-1,0.149-1.15L320.12,357.121z"/>
</g>
</svg>
