<?xml version="1.0" encoding="utf-8"?>
<!-- Generator: Adobe Illustrator 16.0.0, SVG Export Plug-In . SVG Version: 6.00 Build 0)  -->
<!DOCTYPE svg PUBLIC "-//W3C//DTD SVG 1.1//EN" "http://www.w3.org/Graphics/SVG/1.1/DTD/svg11.dtd">
<svg version="1.1" id="Layer_1" xmlns="http://www.w3.org/2000/svg" xmlns:xlink="http://www.w3.org/1999/xlink" x="0px" y="0px"
	 width="47.045px" height="98.064px" viewBox="0 -0.001 47.045 98.064" enable-background="new 0 -0.001 47.045 98.064"
	 xml:space="preserve">
<path fill="#BC2026" d="M32.21,37.887c0.038,9.145,0.109,4.02,0.087,13.163c-0.005,2.114,0.699,3.519,2.578,4.645
	c8.028,4.811,11.746,13.309,10.345,22.684c-1.236,8.278-8.355,15.571-16.924,17.6C15.582,98.984,2.388,89.272,1.59,76.264
	C1.037,67.263,4.718,60.366,12.297,55.58c1.513-0.954,2.075-2.019,2.062-3.797c-0.131-17.943-0.195-21.616-0.242-39.558
	c-0.007-2.742,0.395-5.376,2.346-7.58c2.44-2.757,6.29-3.851,9.752-2.589c3.435,1.248,5.863,4.63,5.88,8.221
	C32.138,19.481,32.172,28.684,32.21,37.887"/>
<path fill="none" stroke="#FBEC06" stroke-width="3.071" stroke-miterlimit="10" d="M32.21,37.887
	c0.038,9.145,0.109,4.02,0.087,13.164c-0.005,2.113,0.699,3.518,2.578,4.644c8.028,4.812,11.746,13.31,10.345,22.685
	c-1.236,8.277-8.355,15.57-16.924,17.599C15.582,98.984,2.388,89.272,1.59,76.265C1.037,67.263,4.718,60.366,12.297,55.58
	c1.513-0.955,2.075-2.02,2.062-3.797c-0.131-17.943-0.195-21.616-0.242-39.559c-0.007-2.742,0.395-5.375,2.346-7.58
	c2.44-2.757,6.29-3.851,9.752-2.589c3.435,1.249,5.863,4.63,5.88,8.221C32.138,19.481,32.172,28.684,32.21,37.887z"/>
<path fill="#FFFFFF" d="M26.927,33.321c0.036,9.03,0.105,18.062,0.076,27.091c-0.005,1.436,0.48,2.156,1.754,2.777
	c5.547,2.705,8.192,8.583,6.636,14.473c-1.501,5.685-6.843,9.476-12.918,9.166c-5.801-0.294-10.701-5.005-11.443-10.871
	c-0.719-5.681,2.394-10.898,7.195-12.935c1.378-0.584,1.405-1.621,1.399-2.832c-0.087-17.829-0.186-29.154-0.252-46.983
	c-0.003-0.915-0.124-1.845,0.379-2.708c0.825-1.417,2.56-2.188,4.164-1.805c1.678,0.4,2.829,1.805,2.855,3.694
	c0.058,4.167,0.048,8.335,0.066,12.503C26.858,29.869,26.908,28.343,26.927,33.321"/>
</svg>
