<?xml version="1.0" encoding="utf-8"?>
<!-- Generator: Adobe Illustrator 16.0.0, SVG Export Plug-In . SVG Version: 6.00 Build 0)  -->
<!DOCTYPE svg PUBLIC "-//W3C//DTD SVG 1.1//EN" "http://www.w3.org/Graphics/SVG/1.1/DTD/svg11.dtd">
<svg version="1.1" id="Layer_1" xmlns="http://www.w3.org/2000/svg" xmlns:xlink="http://www.w3.org/1999/xlink" x="0px" y="0px"
	 width="87.296px" height="129.009px" viewBox="0 12.02 87.296 129.009" enable-background="new 0 12.02 87.296 129.009"
	 xml:space="preserve">
<path fill="#FBEC06" d="M77.479,51.906c0,2.097,0,3.138-1.345,3.138c0,1.947-0.037,5.097-0.12,6.329
	c0,1.384-0.938,1.702-2.283,1.702c0,2.448-0.21,31.713-0.21,35.853c0,13.608-4.74,23.117-7.557,31.336
	c-1.187,3.461-1.719,7.674,0.429,9.915h0.073v0.851H15.221v-0.824c-0.046,0-0.105-0.001-0.105-0.001
	c2.157-2.234,1.653-6.347,0.497-9.747c-2.808-8.263-7.621-17.813-7.621-31.528c0-4.14-0.212-33.403-0.212-35.853
	c-1.344,0-2.281-0.318-2.281-1.702c-0.083-1.232-0.12-4.382-0.12-6.329c-1.345,0-1.345-1.041-1.345-3.138
	C4.033,51.209,77.479,51.209,77.479,51.906"/>
<rect x="7.032" y="53.845" fill="#BA0A13" width="67.238" height="5.745"/>
<path fill="#BA0A13" d="M18.575,130.076c-0.504-1.609-1.068-3.244-1.667-4.975c-2.481-7.181-5.293-15.317-5.293-26.178
	c0-2.34-0.063-12.708-0.116-21.726c-0.042-6.931-0.078-13.063-0.078-14.124v-0.64h58.668v0.64c0,1.063-0.036,7.193-0.077,14.124
	c-0.053,9.018-0.116,19.386-0.116,21.726c0,10.858-2.812,18.993-5.291,26.173c-0.571,1.651-1.119,3.239-1.605,4.782
	c-0.69,2.187-1.014,4.199-0.995,5.961H19.541C19.551,133.708,19.04,131.563,18.575,130.076"/>
<path fill="#FFFFFF" d="M25.735,128.607c0.4,0.324,0.844,0.608,1.327,0.843c3.398,1.646,7.489,0.229,9.135-3.167l8.589-17.706
	c0.98-2.021,0.858-4.279-0.102-6.132L79.778,29.06l7.387-10.61c0.989-2.041-3.843-2.218-5.868-3.214
	c-2.037-0.986-5.635-4.646-6.623-2.607l-2.529,13.385L37.279,98.917c-2.015,0.411-3.829,1.695-4.797,3.688l-8.587,17.706
	C22.481,123.228,23.323,126.652,25.735,128.607 M35.793,110.393c-0.956-0.772-1.104-2.178-0.328-3.134s2.178-1.104,3.134-0.328
	c0.956,0.776,1.104,2.178,0.328,3.134S36.749,111.168,35.793,110.393 M33.05,116.047c-0.874-0.866-0.881-2.277-0.014-3.151
	c0.865-0.874,2.276-0.88,3.15-0.014c0.874,0.867,0.88,2.278,0.015,3.151C35.334,116.907,33.924,116.914,33.05,116.047
	 M30.134,118.535c0.867-0.873,2.277-0.88,3.151-0.015c0.874,0.867,0.881,2.278,0.014,3.152c-0.866,0.874-2.277,0.88-3.151,0.013
	C29.274,120.82,29.268,119.41,30.134,118.535"/>
<path fill="#C9E2F3" d="M45.4,56.291c0,7.006-3.567,9.515-7.135,8.722c-3.42-0.761-6.739-3.171-5.55-8.722
	c1.468-6.851,6.342-11.1,6.342-17.441C39.057,35.347,45.4,49.285,45.4,56.291"/>
<path fill="#C9E2F3" d="M30.371,29.555c0,4.43-2.255,6.015-4.512,5.514c-2.16-0.479-4.26-2.005-3.508-5.514
	c0.928-4.329,4.01-7.016,4.01-11.024C26.362,16.315,30.371,25.126,30.371,29.555"/>
<path fill="#D1DFAD" d="M20.965,79.159c0,0,0.41,0.418,1.362-0.199c0.95-0.615,0.962-0.146,2.013-0.613
	c1.052-0.468,1.997,0.394,2.909-0.153c0.911-0.547,0.859,0.766,1.832,0.438c0.972-0.327,1.487,0.475,2.496,0.491
	c1.008,0.018,1.205,0.729,2.148,0.941c0.943,0.211,0.66,0.468,1.533,0.64c0.874,0.172,2.268,2.442,2.738,3.08
	s0.876,0.82,0.947,1.509c0.072,0.688,0.076,5.409,2.352,7.022c0,0,0.412,1.067-0.732,0.557s-1.889-1.071-3.484-0.866
	c-1.597,0.203-4.302,0.241-5.524-0.13c-1.224-0.37-1.269-0.534-2.423-0.865c-1.153-0.331-2.112-0.599-3.067-1.278
	c-0.955-0.681,0.094-0.733-1.176-1.27c-1.269-0.534-1.176-1.27-1.632-1.852s0.166-1.107-0.429-1.771
	c-0.597-0.661-0.498-1.161-0.789-1.788c-0.291-0.628-0.401-0.599-0.607-1.132s-0.032-0.759-0.208-1.182
	C21.048,80.316,20.547,79.569,20.965,79.159"/>
<path fill="#D1DFAD" d="M43.338,133.656c0,0,0.4-0.428-0.253-1.353c-0.654-0.926-0.187-0.956-0.694-1.988
	c-0.509-1.031,0.313-2.011-0.269-2.898c-0.583-0.891,0.729-0.893,0.364-1.851s0.415-1.506,0.392-2.513
	c-0.023-1.008,0.682-1.233,0.855-2.186c0.175-0.95,0.44-0.679,0.577-1.558c0.138-0.88,2.352-2.364,2.969-2.858
	c0.618-0.495,0.785-0.907,1.471-1.008c0.685-0.1,5.4-0.292,6.924-2.629c0,0,1.049-0.455,0.584,0.709
	c-0.464,1.163-0.996,1.931-0.729,3.519c0.269,1.586,0.414,4.286,0.093,5.522c-0.321,1.237-0.484,1.289-0.769,2.455
	c-0.285,1.166-0.513,2.134-1.154,3.116c-0.643,0.98-0.737-0.063-1.222,1.226c-0.483,1.289-1.221,1.228-1.785,1.704
	c-0.563,0.479-1.113-0.122-1.751,0.5s-1.141,0.543-1.756,0.859c-0.616,0.315-0.581,0.425-1.105,0.651
	c-0.525,0.228-0.756,0.063-1.173,0.256C44.491,133.526,43.765,134.057,43.338,133.656"/>
<path fill="#D1DFAD" d="M16.311,102.283c0,0,0.163-0.271-0.283-0.685s-0.204-0.48-0.587-0.968c-0.382-0.485-0.059-1.092-0.464-1.494
	s0.285-0.549-0.014-1.012s0.05-0.838-0.074-1.365c-0.124-0.528,0.221-0.724,0.206-1.244c-0.014-0.519,0.156-0.405,0.131-0.883
	c-0.025-0.479,0.973-1.504,1.242-1.834c0.27-0.329,0.312-0.564,0.661-0.693c0.349-0.128,2.806-0.754,3.347-2.15
	c0,0,0.501-0.356,0.386,0.307c-0.114,0.664-0.309,1.126,0.01,1.93c0.316,0.806,0.693,2.208,0.663,2.896
	c-0.031,0.686-0.111,0.73-0.132,1.376c-0.019,0.645-0.031,1.179-0.26,1.767c-0.228,0.587-0.394,0.049-0.505,0.78
	s-0.506,0.78-0.749,1.095c-0.243,0.315-0.599,0.062-0.865,0.458c-0.266,0.397-0.539,0.412-0.827,0.647
	c-0.288,0.232-0.258,0.288-0.509,0.465c-0.25,0.178-0.391,0.117-0.588,0.265S16.58,102.445,16.311,102.283"/>
<path fill="#D1DFAD" d="M16.229,79.068c0,0,0.176-0.261-0.252-0.693c-0.427-0.436-0.182-0.491-0.541-0.994
	c-0.359-0.502-0.01-1.093-0.396-1.514c-0.387-0.422,0.31-0.536,0.033-1.014c-0.278-0.476,0.088-0.834-0.013-1.367
	c-0.1-0.53,0.254-0.713,0.264-1.23c0.01-0.521,0.175-0.398,0.171-0.877c-0.004-0.479,1.04-1.458,1.324-1.774
	c0.284-0.315,0.338-0.55,0.691-0.662c0.355-0.111,2.839-0.626,3.442-1.998c0,0,0.517-0.332,0.372,0.325
	c-0.146,0.657-0.36,1.11-0.079,1.93c0.279,0.816,0.593,2.235,0.529,2.922c-0.063,0.684-0.144,0.725-0.193,1.366
	c-0.049,0.645-0.085,1.179-0.34,1.755c-0.256,0.574-0.397,0.029-0.541,0.756c-0.145,0.726-0.54,0.757-0.799,1.06
	c-0.257,0.303-0.601,0.032-0.885,0.417c-0.284,0.386-0.557,0.388-0.855,0.609c-0.3,0.221-0.271,0.274-0.529,0.44
	c-0.259,0.166-0.396,0.101-0.6,0.238C16.829,78.899,16.489,79.245,16.229,79.068"/>
<path fill="#D1DFAD" d="M60.506,106.894c0,0-0.274-0.156-0.674,0.304c-0.401,0.459-0.477,0.219-0.951,0.613
	c-0.474,0.396-1.09,0.091-1.48,0.507c-0.391,0.417-0.558-0.269-1.012,0.043c-0.454,0.313-0.839-0.024-1.362,0.113
	c-0.523,0.141-0.729-0.2-1.249-0.17c-0.519,0.029-0.409-0.145-0.887-0.104c-0.477,0.04-1.531-0.93-1.868-1.188
	c-0.337-0.26-0.572-0.295-0.712-0.641c-0.138-0.346-0.835-2.783-2.248-3.283c0,0-0.37-0.49,0.296-0.396
	c0.666,0.097,1.135,0.276,1.93-0.063c0.795-0.342,2.187-0.759,2.874-0.747c0.686,0.012,0.733,0.09,1.379,0.091
	c0.645,0.002,1.179-0.002,1.772,0.21c0.595,0.211,0.061,0.393,0.795,0.481c0.734,0.091,0.794,0.482,1.116,0.718
	c0.321,0.233,0.077,0.597,0.482,0.851c0.404,0.255,0.428,0.527,0.671,0.811c0.243,0.28,0.295,0.25,0.479,0.494
	c0.186,0.245,0.128,0.388,0.281,0.58C60.293,106.308,60.662,106.619,60.506,106.894"/>
<line fill="none" stroke="#FFFFFF" stroke-width="2.378" stroke-linecap="round" stroke-linejoin="round" x1="1.189" y1="42.088" x2="2.03" y2="42.929"/>
<line fill="none" stroke="#FFFFFF" stroke-width="2.378" stroke-linecap="round" stroke-linejoin="round" stroke-dasharray="2.295,6.884" x1="6.897" y1="47.797" x2="82.35" y2="123.249"/>
<line fill="none" stroke="#FFFFFF" stroke-width="2.378" stroke-linecap="round" stroke-linejoin="round" x1="84.783" y1="125.682" x2="85.624" y2="126.523"/>
</svg>
