<?xml version="1.0" encoding="utf-8"?>
<!-- Generator: Adobe Illustrator 16.0.0, SVG Export Plug-In . SVG Version: 6.00 Build 0)  -->
<!DOCTYPE svg PUBLIC "-//W3C//DTD SVG 1.1//EN" "http://www.w3.org/Graphics/SVG/1.1/DTD/svg11.dtd">
<svg version="1.1" id="Layer_1" xmlns="http://www.w3.org/2000/svg" xmlns:xlink="http://www.w3.org/1999/xlink" x="0px" y="0px"
	 width="92.058px" height="107.467px" viewBox="0 0 92.058 107.467" enable-background="new 0 0 92.058 107.467"
	 xml:space="preserve">
<path fill="#FBEC06" d="M84.815,18.343c0,2.097,0,3.138-1.345,3.138c0,1.947-0.037,5.097-0.12,6.329
	c0,1.383-0.938,1.702-2.283,1.702c0,2.449-0.21,31.713-0.21,35.854c0,13.607-4.739,23.116-7.556,31.336
	c-1.188,3.461-1.72,7.674,0.428,9.914h0.073v0.852H22.557v-0.825c-0.046,0-0.105-0.001-0.105-0.001
	c2.157-2.234,1.653-6.346,0.498-9.747c-2.809-8.263-7.622-17.813-7.622-31.528c0-4.14-0.211-33.403-0.211-35.853
	c-1.345,0-2.282-0.319-2.282-1.702c-0.082-1.232-0.119-4.382-0.119-6.329c-1.346,0-1.346-1.041-1.346-3.138
	C11.369,17.647,84.815,17.647,84.815,18.343"/>
<rect x="14.369" y="20.282" fill="#BA0A13" width="67.238" height="5.745"/>
<path fill="#BA0A13" d="M25.912,96.514c-0.504-1.609-1.068-3.244-1.668-4.975c-2.48-7.181-5.293-15.317-5.293-26.177
	c0-2.341-0.063-12.709-0.115-21.727c-0.042-6.93-0.078-13.061-0.078-14.124v-0.639h58.668v0.639c0,1.063-0.036,7.194-0.077,14.124
	c-0.053,9.018-0.116,19.386-0.116,21.727c0,10.856-2.812,18.992-5.292,26.173c-0.57,1.65-1.119,3.238-1.604,4.781
	c-0.69,2.188-1.015,4.199-0.995,5.961H26.877C26.887,100.146,26.376,98,25.912,96.514"/>
<path fill="#D1DFAD" d="M20.374,37.669c0,0,0.41,0.418,1.36-0.199c0.951-0.616,0.962-0.146,2.015-0.614
	c1.052-0.467,1.997,0.394,2.909-0.152c0.909-0.547,0.858,0.765,1.832,0.438c0.972-0.327,1.486,0.476,2.494,0.492
	c1.01,0.018,1.205,0.73,2.149,0.942c0.943,0.211,0.66,0.467,1.533,0.639c0.874,0.172,2.268,2.443,2.737,3.08
	c0.471,0.637,0.875,0.821,0.947,1.509c0.072,0.689,0.076,5.408,2.353,7.023c0,0,0.412,1.066-0.732,0.556
	c-1.144-0.51-1.889-1.072-3.485-0.868c-1.596,0.205-4.301,0.243-5.522-0.128c-1.224-0.371-1.271-0.535-2.423-0.866
	c-1.153-0.331-2.112-0.598-3.067-1.277c-0.955-0.682,0.093-0.734-1.176-1.27c-1.271-0.535-1.176-1.269-1.632-1.852
	c-0.456-0.582,0.166-1.108-0.431-1.771c-0.596-0.661-0.498-1.161-0.789-1.788c-0.291-0.628-0.399-0.598-0.605-1.131
	c-0.206-0.534-0.032-0.759-0.208-1.182S19.956,38.08,20.374,37.669"/>
<path fill="#D1DFAD" d="M33.618,77.542c0,0-0.053,0.434,0.75,0.701c0.802,0.266,0.533,0.49,1.296,0.887
	c0.762,0.394,0.699,1.345,1.441,1.621c0.743,0.275-0.045,0.856,0.6,1.271c0.643,0.414,0.416,1.088,0.875,1.685
	c0.461,0.594,0.137,1.041,0.452,1.688c0.315,0.648,0.035,0.604,0.343,1.189c0.307,0.59-0.367,2.459-0.52,3.028
	c-0.15,0.571-0.069,0.894-0.438,1.255c-0.367,0.361-3.113,2.563-2.994,4.639c0,0-0.43,0.736-0.665-0.168
	c-0.235-0.903-0.255-1.6-1.117-2.434s-2.143-2.391-2.497-3.275c-0.354-0.883-0.278-0.986-0.624-1.813
	c-0.344-0.824-0.635-1.508-0.684-2.381s0.471-0.288,0.189-1.275c-0.277-0.986,0.192-1.275,0.318-1.813
	c0.127-0.536,0.723-0.42,0.831-1.074c0.107-0.654,0.443-0.83,0.674-1.292c0.231-0.462,0.162-0.511,0.376-0.88
	c0.214-0.368,0.427-0.371,0.591-0.671C32.983,78.127,33.184,77.491,33.618,77.542"/>
<path fill="#D1DFAD" d="M23.447,73.292c0,1.314,1.065,2.379,2.379,2.379s2.379-1.063,2.379-2.379c0-1.314-1.064-2.377-2.379-2.377
	C24.512,70.917,23.447,71.978,23.447,73.292"/>
<path fill="#80AB8E" d="M44.853,87.167c0,1.313,1.065,2.379,2.378,2.379c1.314,0,2.38-1.064,2.38-2.379
	c0-1.313-1.064-2.377-2.38-2.377C45.918,84.79,44.853,85.853,44.853,87.167"/>
<path fill="#D1DFAD" d="M30.151,65.567c0,0,0.579-0.089,0.635-1.221c0.055-1.133,0.441-0.868,0.677-1.994
	c0.234-1.126,1.485-1.391,1.574-2.45s1.125-0.251,1.427-1.229c0.303-0.98,1.254-0.932,1.856-1.739
	c0.603-0.81,1.297-0.552,2.02-1.192c0.724-0.645,0.765-0.265,1.414-0.873c0.649-0.609,3.309-0.414,4.101-0.425
	c0.792-0.01,1.177-0.23,1.777,0.113c0.602,0.343,4.435,3.097,7.074,2.194c0,0,1.105,0.287,0.023,0.918
	c-1.083,0.631-1.975,0.906-2.74,2.322c-0.767,1.414-2.314,3.631-3.329,4.407c-1.017,0.776-1.177,0.718-2.118,1.461
	s-1.72,1.365-2.829,1.743c-1.11,0.377-0.542-0.504-1.717,0.214c-1.177,0.718-1.718,0.214-2.456,0.243
	c-0.739,0.029-0.803-0.782-1.688-0.686c-0.887,0.098-1.232-0.274-1.913-0.404c-0.681-0.131-0.72-0.023-1.272-0.168
	c-0.554-0.145-0.634-0.416-1.08-0.521C31.138,66.174,30.24,66.146,30.151,65.567"/>
<path fill="#D1DFAD" d="M71.791,82.245c0,0-0.371-0.453-1.374,0.076c-1.002,0.53-0.973,0.063-2.061,0.436
	c-1.089,0.371-1.954-0.569-2.911-0.105c-0.955,0.465-0.788-0.839-1.785-0.6c-0.997,0.24-1.439-0.604-2.442-0.711
	c-1.002-0.106-1.136-0.834-2.057-1.129s-0.616-0.523-1.472-0.772c-0.854-0.248-2.042-2.634-2.454-3.312
	c-0.412-0.676-0.8-0.896-0.81-1.586c-0.012-0.692,0.403-5.395-1.72-7.205c0,0-0.315-1.098,0.777-0.487
	c1.094,0.61,1.787,1.235,3.395,1.173s4.306,0.141,5.491,0.618c1.187,0.478,1.216,0.646,2.336,1.077
	c1.12,0.431,2.052,0.781,2.941,1.545c0.891,0.763-0.156,0.723,1.06,1.367c1.218,0.646,1.06,1.369,1.463,1.99
	c0.4,0.619-0.266,1.088,0.27,1.801c0.535,0.711,0.394,1.199,0.627,1.851c0.235,0.651,0.348,0.631,0.505,1.183
	c0.158,0.549-0.035,0.758,0.104,1.193C71.811,81.084,72.244,81.874,71.791,82.245"/>
<path fill="#D1DFAD" d="M52.134,98.394c0,0,0.351-0.203,0.103-0.946c-0.249-0.744,0.068-0.672-0.063-1.455
	c-0.131-0.787,0.61-1.271,0.401-1.978c-0.208-0.706,0.662-0.444,0.611-1.153c-0.051-0.708,0.576-0.914,0.763-1.588
	c0.186-0.672,0.697-0.682,1.003-1.275c0.306-0.597,0.428-0.361,0.693-0.918c0.267-0.556,2.031-1.097,2.54-1.302
	c0.508-0.204,0.701-0.444,1.175-0.374c0.475,0.071,3.64,0.889,5.115-0.357c0,0,0.787-0.092,0.246,0.588
	c-0.54,0.678-1.047,1.08-1.187,2.185s-0.582,2.925-1.043,3.681c-0.46,0.756-0.578,0.758-1,1.475
	c-0.423,0.716-0.768,1.313-1.389,1.834c-0.622,0.523-0.477-0.188-1.056,0.568c-0.577,0.758-1.054,0.568-1.523,0.772
	c-0.469,0.205-0.713-0.303-1.26-0.019c-0.548,0.285-0.865,0.132-1.336,0.219c-0.472,0.086-0.471,0.165-0.863,0.211
	c-0.394,0.045-0.515-0.109-0.828-0.064C52.923,98.54,52.336,98.747,52.134,98.394"/>
<path fill="#D1DFAD" d="M23.452,64.008c0,0,0.163-0.27-0.283-0.684c-0.447-0.414-0.205-0.482-0.587-0.968s-0.061-1.093-0.464-1.493
	c-0.405-0.402,0.283-0.551-0.016-1.014s0.05-0.838-0.074-1.364c-0.123-0.528,0.223-0.726,0.206-1.243
	c-0.014-0.521,0.156-0.406,0.133-0.884c-0.026-0.479,0.972-1.505,1.24-1.834c0.271-0.329,0.313-0.564,0.661-0.693
	c0.351-0.128,2.808-0.754,3.349-2.152c0,0,0.501-0.355,0.386,0.308c-0.115,0.663-0.311,1.126,0.009,1.93
	c0.317,0.804,0.694,2.208,0.663,2.894s-0.111,0.731-0.131,1.376c-0.021,0.646-0.032,1.18-0.26,1.768
	c-0.229,0.588-0.396,0.049-0.507,0.78c-0.109,0.731-0.506,0.779-0.749,1.095c-0.241,0.313-0.599,0.061-0.863,0.457
	c-0.268,0.397-0.539,0.414-0.827,0.647c-0.289,0.233-0.258,0.288-0.509,0.465c-0.25,0.179-0.393,0.117-0.589,0.267
	C24.043,63.812,23.72,64.17,23.452,64.008"/>
<path fill="#D1DFAD" d="M39.846,74.776c0,0,0.315,0.006,0.447-0.589s0.313-0.419,0.54-0.994c0.227-0.573,0.914-0.603,1.057-1.153
	c0.146-0.554,0.618-0.031,0.868-0.522c0.249-0.491,0.749-0.378,1.141-0.751c0.395-0.374,0.737-0.174,1.18-0.449
	c0.44-0.273,0.429-0.068,0.827-0.332c0.399-0.264,1.789,0.082,2.21,0.148c0.422,0.068,0.646-0.016,0.933,0.222
	s2.064,2.044,3.546,1.808c0,0,0.56,0.254-0.071,0.487c-0.631,0.235-1.128,0.302-1.662,0.979c-0.534,0.68-1.557,1.713-2.165,2.031
	c-0.607,0.318-0.688,0.272-1.255,0.582c-0.565,0.307-1.035,0.565-1.656,0.664c-0.621,0.1-0.24-0.316-0.93-0.043
	c-0.688,0.271-0.928-0.044-1.321-0.095c-0.395-0.052-0.354-0.487-0.832-0.517s-0.629-0.258-0.977-0.389
	c-0.348-0.132-0.378-0.078-0.658-0.205c-0.278-0.127-0.298-0.279-0.523-0.375C40.314,75.188,39.84,75.09,39.846,74.776"/>
<line fill="none" stroke="#FFFFFF" stroke-width="2.378" stroke-linecap="round" stroke-linejoin="round" x1="1.189" y1="1.189" x2="2.03" y2="2.03"/>
<line fill="none" stroke="#FFFFFF" stroke-width="2.378" stroke-linecap="round" stroke-linejoin="round" stroke-dasharray="2.44,7.32" x1="7.206" y1="7.207" x2="87.439" y2="87.439"/>
<line fill="none" stroke="#FFFFFF" stroke-width="2.378" stroke-linecap="round" stroke-linejoin="round" x1="90.027" y1="90.027" x2="90.868" y2="90.87"/>
</svg>
