<?xml version="1.0" encoding="utf-8"?>
<!-- Generator: Adobe Illustrator 16.0.0, SVG Export Plug-In . SVG Version: 6.00 Build 0)  -->
<!DOCTYPE svg PUBLIC "-//W3C//DTD SVG 1.1//EN" "http://www.w3.org/Graphics/SVG/1.1/DTD/svg11.dtd">
<svg version="1.1" id="Layer_1" xmlns="http://www.w3.org/2000/svg" xmlns:xlink="http://www.w3.org/1999/xlink" x="0px" y="0px"
	 width="1325px" height="105.289px" viewBox="0 0 1325 105.289" enable-background="new 0 0 1325 105.289" xml:space="preserve">
<path fill="#81AA8D" d="M451.865,85.046c0,0,0.042-0.802-0.566-1.187c-0.61-0.385,0.002-0.458-0.723-0.805
	c-0.725-0.347-0.723-0.729-1.294-1c-0.571-0.27-1.373-0.617-1.793-0.657s-0.037-0.191-0.762-0.233
	c-0.726-0.042-1.376,0.146-2.064,0.22c-0.688,0.073-1.106-0.273-1.871-0.047c-0.766,0.226-0.879-0.043-1.645,0.336
	c-0.765,0.378-1.571,1.1-2.184,1.403c-0.612,0.302-1.608,0.985-1.99,0.984c-0.382-0.002-0.613,0.226-1.148,0.453
	c-0.536,0.226-1.071,0.529-2.105,1.021c-1.034,0.492-1.992,1.289-2.835,1.82s-2.337,1.479-2.797,1.859s-0.155,0.381-1.074,0.912
	c-0.919,0.53-0.959,0.874-1.189,1.102s2.131,1.614,2.131,1.614s1.412,0.274,3.169,0.511c1.756,0.238,7.216,0.836,8.095,0.726
	c0.879-0.111,8.635-0.495,10.247-2.168c0,0,1.189-1.407,0.654-1.257c-0.535,0.15,1.953-1.175,1.729-1.864
	c-0.226-0.688,0.806-0.951,0.426-1.411s0.616-0.914,0.159-1.374C451.978,85.543,452.018,85.276,451.865,85.046"/>
<path fill="#81AA8D" d="M459.51,21.208c0,0-0.664,0.605-2.068-0.42c-1.404-1.026-1.462-0.308-3.032-1.113
	c-1.57-0.805-3.092,0.432-4.44-0.483c-1.351-0.915-1.383,1.099-2.844,0.516c-1.462-0.584-2.32,0.599-3.865,0.54
	c-1.545-0.06-1.907,1.015-3.37,1.259c-1.463,0.243-1.051,0.659-2.403,0.848s-3.681,3.548-4.457,4.484
	c-0.774,0.936-1.411,1.182-1.579,2.23c-0.169,1.048-0.578,8.276-4.198,10.556c0,0-0.724,1.598,1.072,0.914
	c1.796-0.685,2.985-1.481,5.412-1.032c2.426,0.448,6.565,0.737,8.47,0.274c1.905-0.464,1.989-0.712,3.784-1.12
	c1.795-0.408,3.286-0.735,4.807-1.696s-0.079-1.132,1.909-1.843c1.989-0.711,1.91-1.843,2.657-2.696
	c0.748-0.853-0.16-1.711,0.81-2.674c0.968-0.963,0.859-1.736,1.359-2.673c0.499-0.936,0.665-0.881,1.026-1.68
	c0.361-0.799,0.114-1.158,0.419-1.792C459.283,22.974,460.115,21.873,459.51,21.208"/>
<path fill="#81AA8D" d="M466.631,78.356c-0.011-1.272,0.268-0.972,0.877-1.816c0.609-0.844-0.385-0.534,0.13-1.902
	c0.514-1.367-0.502-0.481-0.17-1.624s-0.438-0.652-0.438-2.212c0.001-1.56-2.155-2.566-2.817-3.4
	c-0.418-0.526-1.582-1.332-2.387-1.856l-15.165-7.117c-2.019-0.135-6.593-2.535-8.123-3.551c0.015-0.012,0.03-0.022,0.044-0.033
	l-2.099,0.517c0.401,0.034,0.851,0.092,1.366,0.184c2.468,0.44,12.624,8.449,14.258,9.551s7.133,6.971,10.432,11.429
	c3.3,4.458,4.816,4.053,4.816,4.053S466.641,79.627,466.631,78.356"/>
<path fill="#81AA8D" d="M383.622,88.368c0,0-0.042-0.802,0.567-1.187c0.61-0.385-0.002-0.458,0.722-0.805
	c0.726-0.347,0.724-0.729,1.294-0.999c0.572-0.27,1.373-0.618,1.793-0.658c0.421-0.04,0.037-0.191,0.764-0.233
	c0.725-0.042,1.375,0.146,2.063,0.22c0.688,0.073,1.107-0.273,1.872-0.047c0.766,0.225,0.878-0.043,1.645,0.336
	c0.765,0.378,1.57,1.1,2.184,1.403c0.612,0.303,1.608,0.985,1.99,0.984c0.382-0.002,0.613,0.226,1.147,0.453
	c0.536,0.226,1.072,0.529,2.106,1.021c1.034,0.492,1.992,1.289,2.835,1.82c0.843,0.531,2.337,1.479,2.797,1.859
	s0.155,0.381,1.074,0.912c0.919,0.53,0.959,0.874,1.188,1.102c0.231,0.228-2.131,1.614-2.131,1.614s-1.412,0.274-3.168,0.512
	c-1.756,0.237-7.216,0.835-8.095,0.725c-0.879-0.111-8.635-0.495-10.247-2.168c0,0-1.19-1.407-0.655-1.257
	c0.536,0.15-1.953-1.175-1.727-1.864c0.225-0.688-0.808-0.951-0.427-1.411c0.38-0.46-0.616-0.914-0.159-1.374
	C383.511,88.865,383.471,88.598,383.622,88.368"/>
<path fill="#81AA8D" d="M379.926,19.912c0,0,0.436,0.785,2.094,0.262c1.658-0.524,1.484,0.174,3.229-0.087
	c1.745-0.262,2.792,1.396,4.363,0.959c1.57-0.436,0.96,1.484,2.53,1.397c1.571-0.088,2.007,1.308,3.491,1.745
	c1.482,0.437,1.482,1.57,2.792,2.269c1.309,0.699,0.785,0.96,2.007,1.571c1.221,0.611,2.355,4.538,2.792,5.672
	c0.436,1.134,0.96,1.571,0.785,2.618c-0.175,1.047-2.095,8.027,0.61,11.343c0,0,0.176,1.746-1.309,0.524
	c-1.483-1.222-2.356-2.356-4.799-2.705c-2.443-0.349-6.457-1.396-8.115-2.443s-1.658-1.309-3.229-2.269s-2.88-1.745-4.014-3.141
	c-1.135-1.396,0.437-1.047-1.222-2.356s-1.222-2.355-1.658-3.404c-0.436-1.047,0.698-1.57,0.087-2.792
	c-0.61-1.221-0.262-1.919-0.436-2.967c-0.175-1.047-0.35-1.047-0.437-1.919c-0.088-0.873,0.261-1.135,0.174-1.833
	C379.576,21.657,379.141,20.348,379.926,19.912"/>
<path fill="#81AA8D" d="M368.858,81.678c0.01-1.271-0.268-0.972-0.877-1.816c-0.61-0.844,0.384-0.534-0.13-1.902
	c-0.514-1.367,0.502-0.481,0.17-1.624s0.438-0.652,0.437-2.212c0-1.56,2.156-2.566,2.818-3.4c0.418-0.526,1.582-1.332,2.386-1.856
	l15.165-7.117c2.02-0.135,6.594-2.534,8.123-3.55c-0.014-0.013-0.029-0.022-0.043-0.034l2.099,0.517
	c-0.401,0.034-0.851,0.092-1.366,0.184c-2.468,0.44-12.624,8.449-14.258,9.551c-1.635,1.102-7.134,6.971-10.433,11.429
	s-4.815,4.053-4.815,4.053S368.848,82.95,368.858,81.678"/>
<path fill="#81AA8D" d="M340.318,85.046c0,0,0.042-0.802-0.566-1.187c-0.61-0.385,0.002-0.458-0.723-0.805
	c-0.725-0.347-0.723-0.729-1.294-1c-0.572-0.27-1.373-0.617-1.793-0.657s-0.037-0.191-0.763-0.233s-1.375,0.146-2.063,0.22
	c-0.688,0.073-1.106-0.273-1.872-0.047c-0.765,0.226-0.878-0.043-1.644,0.336c-0.765,0.378-1.571,1.1-2.184,1.403
	c-0.612,0.302-1.608,0.985-1.99,0.984c-0.382-0.002-0.613,0.226-1.148,0.453c-0.536,0.226-1.072,0.529-2.105,1.021
	c-1.034,0.492-1.992,1.289-2.835,1.82c-0.844,0.531-2.337,1.479-2.798,1.859c-0.46,0.38-0.154,0.381-1.073,0.912
	c-0.919,0.53-0.959,0.874-1.189,1.102s2.131,1.614,2.131,1.614s1.412,0.274,3.168,0.511c1.757,0.238,7.217,0.836,8.096,0.726
	c0.879-0.111,8.635-0.495,10.247-2.168c0,0,1.189-1.407,0.654-1.257c-0.536,0.15,1.953-1.175,1.728-1.864
	c-0.226-0.688,0.807-0.951,0.427-1.411s0.616-0.914,0.159-1.374C340.43,85.543,340.47,85.276,340.318,85.046"/>
<path fill="#81AA8D" d="M348.29,40.113c0,0-0.854-0.279-0.654-2.006c0.199-1.728-0.453-1.423-0.528-3.188
	c-0.075-1.763-1.902-2.476-1.771-4.1c0.13-1.625-1.64-0.661-1.853-2.219c-0.213-1.559-1.666-1.722-2.377-3.095
	c-0.71-1.374-1.824-1.158-2.758-2.31c-0.935-1.153-1.091-0.589-1.923-1.672s-4.903-1.451-6.101-1.663
	c-1.195-0.213-1.724-0.644-2.719-0.274c-0.995,0.371-7.483,3.583-11.253,1.557c0,0-1.746,0.161-0.265,1.385
	c1.48,1.224,2.761,1.865,3.567,4.197c0.808,2.333,2.599,6.074,3.941,7.503c1.344,1.428,1.601,1.379,2.842,2.738
	c1.241,1.36,2.26,2.495,3.847,3.344c1.586,0.848,0.945-0.628,2.545,0.751c1.601,1.379,2.546,0.752,3.656,0.98
	c1.111,0.229,1.41-0.984,2.726-0.617c1.314,0.368,1.934-0.108,2.996-0.135c1.061-0.028,1.094,0.143,1.967,0.063
	c0.874-0.08,1.063-0.473,1.766-0.521C346.644,40.787,348.012,40.967,348.29,40.113"/>
<path fill="#81AA8D" d="M355.082,78.356c-0.01-1.272,0.269-0.972,0.878-1.816c0.609-0.844-0.385-0.534,0.13-1.902
	c0.514-1.367-0.502-0.481-0.17-1.624s-0.438-0.652-0.438-2.212c0.001-1.56-2.156-2.566-2.818-3.4
	c-0.418-0.526-1.582-1.332-2.386-1.856l-15.165-7.117c-2.019-0.135-6.593-2.535-8.123-3.551c0.015-0.012,0.03-0.022,0.043-0.033
	l-2.098,0.517c0.401,0.034,0.85,0.092,1.366,0.184c2.468,0.44,12.624,8.449,14.258,9.551s7.133,6.971,10.432,11.429
	c3.3,4.458,4.816,4.053,4.816,4.053S355.093,79.627,355.082,78.356"/>
<path fill="#81AA8D" d="M303.671,49.748c0,0-0.892,0.115-1.019,1.849c-0.127,1.734-0.711,1.313-1.114,3.031
	c-0.402,1.718-2.331,2.078-2.507,3.698c-0.176,1.621-1.732,0.343-2.232,1.834c-0.5,1.492-1.959,1.38-2.913,2.597
	c-0.954,1.216-2.008,12.385-3.141,13.342c-1.134,0.958-1.184,0.375-2.202,1.284c-1.021,0.908-5.087,0.509-6.304,0.495
	c-1.215-0.015-1.813,0.31-2.722-0.24c-0.908-0.549-6.683-4.916-10.764-3.631c0,0-1.687-0.483-0.002-1.409
	c1.684-0.926,3.06-1.317,4.289-3.458c1.228-2.14,3.687-5.482,5.272-6.634c1.586-1.153,1.83-1.056,3.304-2.16
	c1.473-1.104,2.687-2.029,4.402-2.566c1.717-0.537,0.813,0.793,2.642-0.263c1.83-1.056,2.641-0.263,3.774-0.281
	s1.201-10.358,2.563-10.474c1.36-0.115,1.88,0.468,2.918,0.693c1.036,0.225,1.101,0.063,1.943,0.305
	c0.843,0.242,0.957,0.663,1.638,0.841C302.18,48.777,303.557,48.856,303.671,49.748"/>
<path fill="#81AA8D" d="M54.233,76.867c0,0-0.196,0.23-0.152,0.405c0.102,0.41,0.306,0.7-0.118,1.23
	c-0.857,1.071,0.218,1.899-0.588,2.522c-0.761,0.59-0.693,0.955-0.342,1.898c0.287,0.774,0.504,1.118,0.135,1.789
	c-0.37,0.671,1.04,1.717,1,2.439c-0.066,1.165-0.228,1.429,1.291,2.405c1.086,0.699,0.29,0.574,0.606,1.203
	c0.318,0.63,1.841,0.655,2.49,1.572c0.65,0.918,0.721,0.852,1.301,1.766c0.581,0.915,0.223-0.402,1.601,1.161
	c1.378,1.564,0.751,0.099,2.29,1.051c1.539,0.953,2.951-0.088,4.241,0.238c1.29,0.325,3.183-0.697,5.784,1.121
	c2.604,1.818,3.146-3.235,0.87-6.343c-2.276-3.108-0.604-0.298-0.98-1.204c-0.375-0.907-1.263-1.011-1.906-2.065
	c-0.645-1.054-0.915-1.134-1.771-2.059c-0.854-0.926-0.903-1.407-1.764-2.196s-1.162-1.829-2.641-2.574
	c-1.479-0.744-2.668-1.889-3.958-2.214c-1.861-0.47-1.947-1.038-3.178-1.156C57.216,77.74,56.121,77.696,54.233,76.867"/>
<path fill="#81AA8D" d="M92.973,54.268c0,0-6.725-0.543-8.492,0.266c-1.767,0.809-1.426,0.919-3.12,1.501
	c-1.692,0.582-1.807,0.545-3.002,1.915c-1.195,1.37-2.521,0.816-3.641,2.336c-1.119,1.521-2.228-0.093-2.251,1.531
	s-2.405,1.23-2.017,2.359c0.388,1.129-1.307,1.711-0.731,2.649c0.575,0.939-1.159,1.257-0.507,2.346
	c0.651,1.089-0.812,2.121,0.281,1.847c1.092-0.274,1.485-0.288,2.114,0.056c2.238,1.225,1.093-0.274,2.418,0.28
	c1.327,0.554,1.484,1.232,2.728,0.881c1.242-0.351,0.835,0.521,2.639-0.401c1.803-0.923,2.598-0.666,3.61-1.468
	c1.012-0.802,2.281-2.399,3.3-2.446s1.019-0.047,2.028-1.227c1.008-1.179,5.613-5.336,9.112-10.729
	C97.442,55.963,96.601,54.688,92.973,54.268"/>
<path fill="#81AA8D" d="M132.012,48.558c0,0,0.197,0.23,0.153,0.405c-0.103,0.41-0.307,0.7,0.118,1.23
	c0.856,1.071-0.219,1.899,0.588,2.523c0.76,0.589,0.692,0.954,0.342,1.897c-0.288,0.774-0.504,1.118-0.135,1.789
	c0.369,0.671-1.04,1.717-1,2.44c0.065,1.165,0.227,1.429-1.291,2.405c-1.086,0.699-0.29,0.574-0.607,1.204
	c-0.318,0.629-1.841,0.654-2.49,1.571c-0.648,0.918-0.721,0.852-1.301,1.766c-0.581,0.915-0.222-0.402-1.6,1.161
	c-1.378,1.564-0.751,0.099-2.29,1.052c-1.539,0.952-2.952-0.089-4.242,0.237c-1.29,0.325-3.182-0.696-5.784,1.121
	c-2.603,1.818-3.146-3.235-0.87-6.343c2.277-3.107,0.605-0.298,0.981-1.204c0.375-0.907,1.262-1.011,1.906-2.065
	c0.644-1.054,0.914-1.133,1.77-2.059c0.855-0.925,0.904-1.407,1.764-2.196c0.86-0.788,1.162-1.829,2.642-2.574
	c1.479-0.744,2.668-1.889,3.958-2.214c1.86-0.47,1.946-1.038,3.177-1.156C129.029,49.431,130.125,49.387,132.012,48.558"/>
<path fill="#81AA8D" d="M101.255,19.128c0,0,6.725-0.543,8.492,0.266c1.767,0.809,1.426,0.919,3.12,1.501
	c1.692,0.582,1.807,0.545,3.002,1.915s2.521,0.816,3.641,2.336c1.119,1.521,2.228-0.093,2.251,1.531
	c0.023,1.623,2.405,1.229,2.017,2.359c-0.388,1.129,1.307,1.711,0.731,2.649c-0.575,0.939,1.159,1.257,0.507,2.346
	c-0.652,1.088,0.812,2.121-0.281,1.847c-1.092-0.274-1.485-0.288-2.114,0.056c-2.238,1.225-1.093-0.274-2.418,0.28
	c-1.327,0.554-1.484,1.232-2.728,0.881c-1.242-0.351-0.835,0.521-2.639-0.401c-1.803-0.923-2.599-0.666-3.61-1.468
	c-1.012-0.802-2.281-2.399-3.3-2.446c-1.019-0.047-1.019-0.047-2.028-1.228c-1.008-1.179-5.613-5.336-9.112-10.729
	C96.785,20.824,97.627,19.548,101.255,19.128"/>
<path fill="#81AA8D" d="M115.708,85.208c-0.619,0.377-1.172,0.6-2.123,1.111c-0.95,0.511-1.193,0.865-2.409,1.354
	c-1.217,0.49-1.304,0.91-2.476,1.51c-1.173,0.6-1.438,0.578-2.831,1.267c-1.394,0.689-1.546,1.265-2.232,1.797
	c-0.685,0.533-0.749,1.33-2.009,2.35c-1.26,1.021-0.773,0.953-1.59,1.796c-0.817,0.842,0.533,1.327,0.182,2.367l0.49,1.859
	c-1.305,0.91,0.497,5.067,0.605,4.381c0.109-0.687,0.75-1.33,0.993-1.684c0.242-0.355,0.86-1.374,1.214-1.773
	s1.722-2.748,2.957-4.145c1.237-1.396,5.101-6.804,7.021-9.375c0.987-1.323,3.264-2.823,5.242-3.968l-2.765,0.83
	C115.927,85.013,115.837,85.129,115.708,85.208"/>
<path fill="#81AA8D" d="M165.781,47.159c0,0-0.196-0.23-0.152-0.405c0.102-0.41,0.306-0.7-0.118-1.23
	c-0.857-1.071,0.218-1.899-0.588-2.523c-0.76-0.589-0.693-0.955-0.342-1.898c0.288-0.773,0.504-1.117,0.135-1.788
	c-0.37-0.671,1.04-1.717,1-2.44c-0.066-1.165-0.228-1.429,1.291-2.405c1.086-0.699,0.29-0.574,0.606-1.204
	c0.318-0.629,1.842-0.654,2.49-1.571c0.65-0.918,0.722-0.852,1.301-1.766c0.581-0.915,0.223,0.402,1.601-1.161
	c1.378-1.564,0.751-0.099,2.29-1.052c1.539-0.952,2.952,0.089,4.242-0.237c1.29-0.325,3.182,0.696,5.783-1.121
	c2.604-1.818,3.146,3.235,0.87,6.343c-2.276,3.107-0.604,0.298-0.98,1.204c-0.375,0.907-1.263,1.011-1.906,2.065
	c-0.644,1.054-0.915,1.133-1.77,2.059c-0.855,0.925-0.904,1.407-1.765,2.196c-0.859,0.788-1.162,1.829-2.641,2.574
	c-1.479,0.744-2.668,1.889-3.958,2.214c-1.861,0.47-1.947,1.038-3.177,1.156C168.764,46.286,167.668,46.33,165.781,47.159"/>
<path fill="#81AA8D" d="M204.52,69.758c0,0-6.725,0.543-8.492-0.266c-1.767-0.809-1.426-0.919-3.119-1.501s-1.808-0.545-3.003-1.915
	c-1.195-1.37-2.521-0.816-3.641-2.336c-1.119-1.52-2.228,0.093-2.251-1.531c-0.022-1.623-2.405-1.23-2.017-2.359
	c0.388-1.129-1.307-1.711-0.731-2.649c0.575-0.939-1.159-1.257-0.507-2.346c0.652-1.088-0.812-2.121,0.281-1.847
	c1.092,0.274,1.485,0.288,2.114-0.056c2.238-1.225,1.093,0.274,2.418-0.28c1.327-0.554,1.484-1.232,2.728-0.881
	c1.242,0.351,0.835-0.521,2.639,0.401c1.804,0.923,2.599,0.666,3.61,1.468c1.012,0.802,2.281,2.399,3.3,2.446
	c1.02,0.047,1.02,0.047,2.028,1.227c1.008,1.179,5.614,5.336,9.113,10.729C208.99,68.063,208.148,69.338,204.52,69.758"/>
<path fill="#81AA8D" d="M243.56,75.468c0,0,0.197-0.23,0.153-0.405c-0.103-0.41-0.306-0.7,0.118-1.229
	c0.856-1.071-0.219-1.899,0.588-2.523c0.76-0.589,0.692-0.954,0.342-1.897c-0.288-0.774-0.504-1.118-0.135-1.789
	c0.37-0.671-1.04-1.717-1-2.44c0.065-1.165,0.227-1.429-1.291-2.405c-1.086-0.699-0.29-0.574-0.607-1.203
	c-0.317-0.63-1.841-0.655-2.49-1.572c-0.648-0.918-0.721-0.852-1.301-1.766c-0.581-0.915-0.222,0.402-1.6-1.161
	c-1.378-1.564-0.751-0.099-2.29-1.052c-1.539-0.952-2.952,0.089-4.242-0.237c-1.29-0.325-3.182,0.696-5.784-1.121
	c-2.603-1.818-3.146,3.235-0.87,6.343c2.277,3.107,0.605,0.298,0.981,1.204c0.375,0.907,1.262,1.011,1.906,2.065
	c0.644,1.054,0.915,1.133,1.77,2.059c0.855,0.926,0.904,1.407,1.764,2.196c0.86,0.789,1.162,1.829,2.642,2.574
	c1.479,0.744,2.668,1.889,3.958,2.214c1.861,0.47,1.947,1.038,3.177,1.156C240.577,74.595,241.673,74.639,243.56,75.468"/>
<path fill="#81AA8D" d="M227.255,38.818c-0.619-0.377-1.172-0.6-2.123-1.111c-0.95-0.511-1.193-0.865-2.409-1.354
	c-1.217-0.49-1.304-0.91-2.476-1.51c-1.172-0.6-1.438-0.578-2.831-1.267c-1.394-0.689-1.546-1.265-2.232-1.797
	c-0.685-0.533-0.749-1.329-2.009-2.35c-1.26-1.02-0.773-0.953-1.59-1.796c-0.817-0.842,0.534-1.327,0.182-2.367l0.49-1.859
	c-1.304-0.91,0.497-5.067,0.605-4.381c0.109,0.687,0.75,1.33,0.993,1.684c0.242,0.355,0.86,1.374,1.214,1.773
	s1.722,2.748,2.957,4.145c1.237,1.396,5.101,6.804,7.021,9.375c0.988,1.323,3.264,2.823,5.242,3.968l-2.765-0.83
	C227.475,39.013,227.385,38.897,227.255,38.818"/>
<path fill="#81AA8D" d="M175.164,93.8c-0.415-1.202-0.057-1.007,0.252-2.001c0.309-0.994-0.535-0.384-0.484-1.844
	s-0.629-0.296-0.679-1.485c-0.05-1.188-0.623-0.478-1.12-1.957c-0.496-1.479-2.862-1.744-3.756-2.323
	c-0.563-0.365-1.924-0.758-2.854-0.998l-16.643-1.907c-1.956,0.516-7.057-0.299-8.831-0.773c0.009-0.016,0.021-0.031,0.03-0.046
	l-1.824,1.159c0.392-0.095,0.835-0.183,1.354-0.261c2.479-0.371,14.66,3.979,16.561,4.503c1.899,0.523,8.983,4.332,13.533,7.504
	c4.548,3.172,5.856,2.304,5.856,2.304S175.579,95.001,175.164,93.8"/>
<path fill="#81AA8D" d="M240.726,18.664c-0.599,1.122-0.7,0.726-1.638,1.176c-0.939,0.45,0.082,0.653-1.023,1.609
	c-1.104,0.955,0.211,0.662-0.627,1.508c-0.838,0.845,0.073,0.782-0.673,2.152c-0.747,1.37,0.668,3.284,0.852,4.333
	c0.115,0.661,0.754,1.926,1.209,2.771l9.922,13.498c1.708,1.083,4.58,5.376,5.438,7c-0.018,0.004-0.036,0.005-0.054,0.009
	l2.091,0.548c-0.336-0.221-0.703-0.487-1.112-0.814c-1.958-1.565-7.053-13.455-7.962-15.203c-0.909-1.749-2.935-9.532-3.702-15.025
	c-0.768-5.492-2.295-5.861-2.295-5.861S241.325,17.542,240.726,18.664"/>
<path fill="#81AA8D" d="M1261.888,85.046c0,0,0.042-0.802-0.567-1.187c-0.609-0.385,0.002-0.458-0.722-0.805
	c-0.727-0.347-0.725-0.729-1.294-1c-0.572-0.27-1.373-0.617-1.793-0.657s-0.037-0.191-0.765-0.233
	c-0.725-0.042-1.375,0.146-2.063,0.22c-0.688,0.073-1.107-0.273-1.872-0.047s-0.878-0.043-1.645,0.336
	c-0.766,0.378-1.57,1.1-2.184,1.403c-0.613,0.302-1.607,0.985-1.991,0.984c-0.382-0.002-0.611,0.226-1.146,0.453
	c-0.536,0.226-1.072,0.529-2.106,1.021c-1.033,0.492-1.99,1.289-2.835,1.82c-0.843,0.531-2.337,1.479-2.797,1.859
	s-0.155,0.381-1.073,0.912c-0.92,0.53-0.959,0.874-1.188,1.102c-0.231,0.228,2.131,1.614,2.131,1.614s1.412,0.274,3.168,0.511
	c1.756,0.238,7.216,0.836,8.095,0.726c0.879-0.111,8.636-0.495,10.247-2.168c0,0,1.19-1.407,0.655-1.257
	c-0.536,0.15,1.953-1.175,1.729-1.864c-0.227-0.688,0.807-0.951,0.427-1.411c-0.381-0.46,0.614-0.914,0.157-1.374
	C1262,85.543,1262.038,85.276,1261.888,85.046"/>
<path fill="#81AA8D" d="M1269.531,21.208c0,0-0.664,0.605-2.067-0.42c-1.403-1.026-1.461-0.308-3.031-1.113
	c-1.571-0.805-3.092,0.432-4.441-0.483c-1.349-0.915-1.383,1.099-2.844,0.516c-1.461-0.584-2.32,0.599-3.865,0.54
	c-1.545-0.06-1.906,1.015-3.37,1.259c-1.463,0.243-1.051,0.659-2.401,0.848c-1.354,0.189-3.683,3.548-4.457,4.484
	c-0.775,0.936-1.411,1.182-1.579,2.23c-0.169,1.048-0.578,8.276-4.199,10.556c0,0-0.723,1.598,1.073,0.914
	c1.796-0.685,2.984-1.481,5.412-1.032c2.426,0.448,6.563,0.737,8.47,0.274c1.905-0.464,1.989-0.712,3.784-1.12
	c1.795-0.408,3.286-0.735,4.806-1.696c1.521-0.961-0.079-1.132,1.91-1.843s1.91-1.843,2.657-2.696
	c0.748-0.853-0.16-1.711,0.809-2.674s0.86-1.736,1.36-2.673c0.499-0.936,0.665-0.881,1.024-1.68c0.361-0.799,0.114-1.158,0.42-1.792
	C1269.306,22.974,1270.137,21.873,1269.531,21.208"/>
<path fill="#81AA8D" d="M1276.652,78.356c-0.01-1.272,0.27-0.972,0.877-1.816c0.61-0.844-0.384-0.534,0.131-1.902
	c0.515-1.367-0.503-0.481-0.171-1.624s-0.438-0.652-0.437-2.212c0.001-1.56-2.156-2.566-2.818-3.4
	c-0.418-0.526-1.582-1.332-2.386-1.856l-15.165-7.117c-2.02-0.135-6.593-2.535-8.123-3.551c0.014-0.012,0.03-0.022,0.043-0.033
	l-2.099,0.517c0.4,0.034,0.851,0.092,1.366,0.184c2.468,0.44,12.624,8.449,14.258,9.551c1.635,1.102,7.134,6.971,10.433,11.429
	s4.815,4.053,4.815,4.053S1276.661,79.627,1276.652,78.356"/>
<path fill="#81AA8D" d="M1193.645,88.368c0,0-0.042-0.802,0.567-1.187c0.608-0.385-0.002-0.458,0.722-0.805
	c0.725-0.347,0.723-0.729,1.294-0.999c0.572-0.27,1.373-0.618,1.793-0.658c0.42-0.04,0.037-0.191,0.763-0.233
	c0.727-0.042,1.375,0.146,2.063,0.22c0.688,0.073,1.106-0.273,1.872-0.047c0.765,0.225,0.878-0.043,1.644,0.336
	c0.767,0.378,1.571,1.1,2.185,1.403c0.611,0.303,1.607,0.985,1.99,0.984c0.382-0.002,0.612,0.226,1.147,0.453
	c0.536,0.226,1.071,0.529,2.105,1.021c1.033,0.492,1.992,1.289,2.835,1.82c0.844,0.531,2.337,1.479,2.797,1.859
	s0.155,0.381,1.074,0.912c0.919,0.53,0.959,0.874,1.188,1.102c0.23,0.228-2.132,1.614-2.132,1.614s-1.411,0.274-3.168,0.512
	c-1.756,0.237-7.216,0.835-8.095,0.725c-0.879-0.111-8.636-0.495-10.247-2.168c0,0-1.189-1.407-0.654-1.257
	s-1.953-1.175-1.729-1.864c0.227-0.688-0.807-0.951-0.427-1.411s-0.615-0.914-0.159-1.374
	C1193.532,88.865,1193.491,88.598,1193.645,88.368"/>
<path fill="#81AA8D" d="M1189.947,19.912c0,0,0.438,0.785,2.095,0.262c1.657-0.524,1.483,0.174,3.229-0.087
	c1.745-0.262,2.792,1.396,4.363,0.959c1.568-0.436,0.96,1.484,2.53,1.397c1.569-0.088,2.007,1.308,3.489,1.745
	c1.483,0.437,1.483,1.57,2.792,2.269c1.311,0.699,0.785,0.96,2.007,1.571c1.223,0.611,2.356,4.538,2.793,5.672
	c0.437,1.134,0.959,1.571,0.784,2.618c-0.174,1.047-2.094,8.027,0.611,11.343c0,0,0.175,1.746-1.311,0.524
	c-1.481-1.222-2.354-2.356-4.799-2.705c-2.441-0.349-6.457-1.396-8.113-2.443c-1.658-1.047-1.658-1.309-3.229-2.269
	c-1.57-0.96-2.879-1.745-4.013-3.141c-1.135-1.396,0.436-1.047-1.223-2.356c-1.657-1.309-1.223-2.355-1.657-3.404
	c-0.438-1.047,0.696-1.57,0.087-2.792c-0.611-1.221-0.264-1.919-0.438-2.967c-0.175-1.047-0.349-1.047-0.436-1.919
	c-0.088-0.873,0.261-1.135,0.174-1.833C1189.599,21.657,1189.161,20.348,1189.947,19.912"/>
<path fill="#81AA8D" d="M1178.88,81.678c0.01-1.271-0.27-0.972-0.877-1.816c-0.61-0.844,0.384-0.534-0.13-1.902
	c-0.516-1.367,0.502-0.481,0.17-1.624s0.438-0.652,0.437-2.212s2.156-2.566,2.818-3.4c0.418-0.526,1.582-1.332,2.386-1.856
	l15.165-7.117c2.019-0.135,6.593-2.534,8.123-3.55c-0.014-0.013-0.03-0.022-0.044-0.034l2.099,0.517
	c-0.399,0.034-0.85,0.092-1.365,0.184c-2.469,0.44-12.623,8.449-14.259,9.551c-1.634,1.102-7.133,6.971-10.432,11.429
	s-4.816,4.053-4.816,4.053S1178.869,82.95,1178.88,81.678"/>
<path fill="#81AA8D" d="M1150.34,85.046c0,0,0.042-0.802-0.567-1.187c-0.609-0.385,0.002-0.458-0.722-0.805
	c-0.726-0.347-0.724-0.729-1.294-1c-0.572-0.27-1.373-0.617-1.793-0.657s-0.037-0.191-0.764-0.233
	c-0.726-0.042-1.375,0.146-2.063,0.22c-0.688,0.073-1.106-0.273-1.872-0.047c-0.765,0.226-0.878-0.043-1.645,0.336
	c-0.766,0.378-1.57,1.1-2.184,1.403c-0.612,0.302-1.607,0.985-1.991,0.984c-0.382-0.002-0.611,0.226-1.146,0.453
	c-0.536,0.226-1.072,0.529-2.106,1.021c-1.032,0.492-1.99,1.289-2.835,1.82c-0.843,0.531-2.337,1.479-2.797,1.859
	s-0.155,0.381-1.073,0.912c-0.92,0.53-0.959,0.874-1.188,1.102c-0.231,0.228,2.131,1.614,2.131,1.614s1.412,0.274,3.168,0.511
	c1.756,0.238,7.216,0.836,8.095,0.726c0.881-0.111,8.637-0.495,10.247-2.168c0,0,1.19-1.407,0.655-1.257
	c-0.536,0.15,1.953-1.175,1.729-1.864c-0.227-0.688,0.807-0.951,0.427-1.411s0.616-0.914,0.159-1.374
	C1150.451,85.543,1150.491,85.276,1150.34,85.046"/>
<path fill="#81AA8D" d="M1158.313,40.113c0,0-0.854-0.279-0.655-2.006c0.199-1.728-0.454-1.423-0.526-3.188
	c-0.075-1.763-1.902-2.476-1.772-4.1c0.13-1.625-1.639-0.661-1.852-2.219c-0.214-1.559-1.666-1.722-2.377-3.095
	c-0.71-1.374-1.824-1.158-2.759-2.31c-0.935-1.153-1.093-0.589-1.924-1.672c-0.832-1.083-4.901-1.451-6.1-1.663
	c-1.196-0.213-1.725-0.644-2.719-0.274c-0.995,0.371-7.483,3.583-11.254,1.557c0,0-1.745,0.161-0.266,1.385
	c1.481,1.224,2.761,1.865,3.568,4.197c0.807,2.333,2.598,6.074,3.939,7.503c1.346,1.428,1.603,1.379,2.844,2.738
	c1.239,1.36,2.26,2.495,3.847,3.344c1.586,0.848,0.944-0.628,2.545,0.751c1.6,1.379,2.545,0.752,3.656,0.98
	c1.11,0.229,1.409-0.984,2.725-0.617c1.315,0.368,1.936-0.108,2.996-0.135c1.062-0.028,1.094,0.143,1.967,0.063
	s1.064-0.473,1.768-0.521C1156.666,40.787,1158.032,40.967,1158.313,40.113"/>
<path fill="#81AA8D" d="M1165.105,78.356c-0.011-1.272,0.268-0.972,0.877-1.816c0.609-0.844-0.385-0.534,0.13-1.902
	c0.514-1.367-0.503-0.481-0.171-1.624s-0.438-0.652-0.437-2.212c0-1.56-2.156-2.566-2.818-3.4c-0.418-0.526-1.581-1.332-2.386-1.856
	l-15.165-7.117c-2.02-0.135-6.594-2.535-8.123-3.551c0.015-0.012,0.029-0.022,0.043-0.033l-2.099,0.517
	c0.401,0.034,0.851,0.092,1.366,0.184c2.468,0.44,12.624,8.449,14.258,9.551c1.635,1.102,7.133,6.971,10.433,11.429
	c3.299,4.458,4.815,4.053,4.815,4.053S1165.115,79.627,1165.105,78.356"/>
<path fill="#81AA8D" d="M1113.693,49.748c0,0-0.892,0.115-1.019,1.849c-0.129,1.734-0.711,1.313-1.114,3.031
	c-0.402,1.718-2.33,2.078-2.507,3.698c-0.176,1.621-1.732,0.343-2.232,1.834c-0.5,1.492-1.959,1.38-2.913,2.597
	c-0.954,1.216-2.008,12.385-3.141,13.342c-1.134,0.958-1.185,0.375-2.202,1.284c-1.021,0.908-5.087,0.509-6.304,0.495
	c-1.215-0.015-1.813,0.31-2.723-0.24c-0.907-0.549-6.683-4.916-10.764-3.631c0,0-1.687-0.483-0.002-1.409
	c1.684-0.926,3.06-1.317,4.289-3.458c1.228-2.14,3.687-5.482,5.271-6.634c1.587-1.153,1.83-1.056,3.304-2.16
	s2.688-2.029,4.402-2.566c1.717-0.537,0.813,0.793,2.643-0.263c1.828-1.056,2.641-0.263,3.773-0.281
	c1.135-0.018,1.201-10.358,2.563-10.474c1.36-0.115,1.881,0.468,2.919,0.693c1.036,0.225,1.101,0.063,1.942,0.305
	c0.844,0.242,0.957,0.663,1.639,0.841C1112.2,48.777,1113.577,48.856,1113.693,49.748"/>
<path fill="#81AA8D" d="M864.255,76.867c0,0-0.196,0.23-0.152,0.405c0.102,0.41,0.306,0.7-0.118,1.23
	c-0.856,1.071,0.218,1.899-0.588,2.522c-0.761,0.59-0.693,0.955-0.343,1.898c0.288,0.774,0.505,1.118,0.136,1.789
	c-0.37,0.671,1.04,1.717,1,2.439c-0.066,1.165-0.228,1.429,1.291,2.405c1.086,0.699,0.29,0.574,0.606,1.203
	c0.317,0.63,1.841,0.655,2.489,1.572c0.65,0.918,0.722,0.852,1.303,1.766c0.58,0.915,0.221-0.402,1.6,1.161
	c1.378,1.564,0.751,0.099,2.289,1.051c1.539,0.953,2.952-0.088,4.242,0.238c1.29,0.325,3.183-0.697,5.784,1.121
	c2.604,1.818,3.146-3.235,0.869-6.343c-2.275-3.108-0.604-0.298-0.979-1.204c-0.375-0.907-1.263-1.011-1.906-2.065
	c-0.645-1.054-0.915-1.134-1.771-2.059c-0.854-0.926-0.903-1.407-1.765-2.196c-0.86-0.789-1.162-1.829-2.641-2.574
	c-1.479-0.744-2.669-1.889-3.958-2.214c-1.861-0.47-1.947-1.038-3.178-1.156C867.238,77.74,866.143,77.696,864.255,76.867"/>
<path fill="#81AA8D" d="M902.993,54.268c0,0-6.725-0.543-8.491,0.266c-1.768,0.809-1.427,0.919-3.12,1.501
	c-1.692,0.582-1.808,0.545-3.002,1.915c-1.196,1.37-2.521,0.816-3.642,2.336c-1.119,1.521-2.229-0.093-2.251,1.531
	s-2.405,1.23-2.018,2.359c0.389,1.129-1.307,1.711-0.73,2.649c0.575,0.939-1.159,1.257-0.507,2.346
	c0.651,1.089-0.812,2.121,0.28,1.847c1.093-0.274,1.486-0.288,2.115,0.056c2.237,1.225,1.092-0.274,2.418,0.28
	c1.327,0.554,1.483,1.232,2.728,0.881c1.241-0.351,0.835,0.521,2.639-0.401c1.804-0.923,2.599-0.666,3.61-1.468
	c1.012-0.802,2.28-2.399,3.3-2.446s1.02-0.047,2.028-1.227c1.008-1.179,5.613-5.336,9.112-10.729
	C907.464,55.963,906.621,54.688,902.993,54.268"/>
<path fill="#81AA8D" d="M942.032,48.558c0,0,0.197,0.23,0.153,0.405c-0.101,0.41-0.306,0.7,0.118,1.23
	c0.856,1.071-0.218,1.899,0.588,2.523c0.76,0.589,0.693,0.954,0.342,1.897c-0.288,0.774-0.504,1.118-0.135,1.789
	c0.37,0.671-1.04,1.717-1,2.44c0.065,1.165,0.227,1.429-1.291,2.405c-1.086,0.699-0.29,0.574-0.607,1.204
	c-0.316,0.629-1.841,0.654-2.488,1.571c-0.649,0.918-0.723,0.852-1.303,1.766c-0.58,0.915-0.222-0.402-1.6,1.161
	c-1.378,1.564-0.751,0.099-2.29,1.052c-1.539,0.952-2.952-0.089-4.242,0.237c-1.29,0.325-3.182-0.696-5.784,1.121
	c-2.603,1.818-3.146-3.235-0.868-6.343c2.275-3.107,0.604-0.298,0.979-1.204c0.375-0.907,1.263-1.011,1.906-2.065
	c0.644-1.054,0.915-1.133,1.77-2.059c0.855-0.925,0.904-1.407,1.766-2.196c0.858-0.788,1.161-1.829,2.641-2.574
	c1.479-0.744,2.668-1.889,3.958-2.214c1.861-0.47,1.947-1.038,3.177-1.156C939.051,49.431,940.146,49.387,942.032,48.558"/>
<path fill="#81AA8D" d="M911.277,19.128c0,0,6.726-0.543,8.491,0.266c1.768,0.809,1.427,0.919,3.12,1.501
	c1.692,0.582,1.808,0.545,3.002,1.915c1.196,1.37,2.521,0.816,3.642,2.336c1.118,1.521,2.229-0.093,2.251,1.531
	c0.022,1.623,2.404,1.229,2.018,2.359c-0.389,1.129,1.306,1.711,0.73,2.649c-0.575,0.939,1.158,1.257,0.507,2.346
	c-0.651,1.088,0.812,2.121-0.28,1.847s-1.486-0.288-2.115,0.056c-2.237,1.225-1.092-0.274-2.418,0.28
	c-1.327,0.554-1.483,1.232-2.728,0.881c-1.241-0.351-0.835,0.521-2.64-0.401c-1.803-0.923-2.598-0.666-3.608-1.468
	c-1.013-0.802-2.281-2.399-3.301-2.446c-1.02-0.047-1.02-0.047-2.027-1.228c-1.009-1.179-5.614-5.336-9.113-10.729
	C906.807,20.824,907.648,19.548,911.277,19.128"/>
<path fill="#81AA8D" d="M925.729,85.208c-0.618,0.377-1.172,0.6-2.123,1.111c-0.949,0.511-1.192,0.865-2.408,1.354
	c-1.217,0.49-1.305,0.91-2.477,1.51s-1.438,0.578-2.831,1.267c-1.394,0.689-1.546,1.265-2.231,1.797
	c-0.686,0.533-0.749,1.33-2.009,2.35c-1.261,1.021-0.772,0.953-1.591,1.796c-0.816,0.842,0.534,1.327,0.182,2.367l0.49,1.859
	c-1.304,0.91,0.497,5.067,0.606,4.381c0.108-0.687,0.75-1.33,0.992-1.684c0.242-0.355,0.86-1.374,1.215-1.773
	c0.353-0.399,1.721-2.748,2.956-4.145c1.237-1.396,5.101-6.804,7.021-9.375c0.987-1.323,3.264-2.823,5.241-3.968l-2.765,0.83
	C925.948,85.013,925.859,85.129,925.729,85.208"/>
<path fill="#81AA8D" d="M975.803,47.159c0,0-0.197-0.23-0.153-0.405c0.104-0.41,0.307-0.7-0.118-1.23
	c-0.855-1.071,0.219-1.899-0.588-2.523c-0.76-0.589-0.691-0.955-0.342-1.898c0.288-0.773,0.504-1.117,0.135-1.788s1.04-1.717,1-2.44
	c-0.064-1.165-0.227-1.429,1.291-2.405c1.086-0.699,0.29-0.574,0.607-1.204c0.317-0.629,1.841-0.654,2.49-1.571
	c0.648-0.918,0.721-0.852,1.302-1.766c0.58-0.915,0.221,0.402,1.599-1.161c1.378-1.564,0.751-0.099,2.29-1.052
	c1.539-0.952,2.952,0.089,4.242-0.237c1.29-0.325,3.183,0.696,5.784-1.121c2.603-1.818,3.146,3.235,0.87,6.343
	c-2.276,3.107-0.605,0.298-0.981,1.204c-0.375,0.907-1.262,1.011-1.905,2.065c-0.645,1.054-0.915,1.133-1.771,2.059
	c-0.854,0.925-0.904,1.407-1.765,2.196c-0.859,0.788-1.161,1.829-2.642,2.574c-1.479,0.744-2.668,1.889-3.958,2.214
	c-1.86,0.47-1.946,1.038-3.177,1.156C978.785,46.286,977.689,46.33,975.803,47.159"/>
<path fill="#81AA8D" d="M1014.541,69.758c0,0-6.726,0.543-8.491-0.266c-1.768-0.809-1.427-0.919-3.12-1.501
	s-1.808-0.545-3.002-1.915c-1.196-1.37-2.522-0.816-3.642-2.336c-1.118-1.521-2.229,0.093-2.251-1.531
	c-0.022-1.623-2.404-1.23-2.018-2.359s-1.306-1.711-0.73-2.649c0.574-0.939-1.158-1.257-0.508-2.346
	c0.652-1.088-0.811-2.121,0.281-1.847c1.092,0.274,1.486,0.288,2.115-0.056c2.237-1.225,1.092,0.274,2.418-0.28
	c1.327-0.554,1.483-1.232,2.727-0.881s0.835-0.521,2.641,0.401c1.803,0.923,2.598,0.666,3.608,1.468
	c1.014,0.802,2.281,2.399,3.302,2.446c1.019,0.047,1.019,0.047,2.026,1.227c1.008,1.179,5.614,5.336,9.113,10.729
	C1019.012,68.063,1018.17,69.338,1014.541,69.758"/>
<path fill="#81AA8D" d="M1053.58,75.468c0,0,0.197-0.23,0.153-0.405c-0.102-0.41-0.306-0.7,0.118-1.229
	c0.855-1.071-0.218-1.899,0.588-2.523c0.76-0.589,0.692-0.954,0.342-1.897c-0.287-0.774-0.504-1.118-0.135-1.789
	c0.37-0.671-1.04-1.717-1-2.44c0.065-1.165,0.227-1.429-1.291-2.405c-1.086-0.699-0.29-0.574-0.607-1.203
	c-0.316-0.63-1.841-0.655-2.488-1.572c-0.65-0.918-0.723-0.852-1.303-1.766c-0.58-0.915-0.222,0.402-1.6-1.161
	c-1.378-1.564-0.751-0.099-2.29-1.052c-1.539-0.952-2.952,0.089-4.242-0.237c-1.29-0.325-3.182,0.696-5.784-1.121
	c-2.603-1.818-3.146,3.235-0.869,6.343c2.276,3.107,0.604,0.298,0.98,1.204c0.375,0.907,1.262,1.011,1.906,2.065
	c0.644,1.054,0.915,1.133,1.77,2.059c0.855,0.926,0.904,1.407,1.766,2.196c0.858,0.789,1.162,1.829,2.641,2.574
	c1.479,0.744,2.668,1.889,3.958,2.214c1.861,0.47,1.947,1.038,3.177,1.156C1050.599,74.595,1051.694,74.639,1053.58,75.468"/>
<path fill="#81AA8D" d="M1037.276,38.818c-0.618-0.377-1.172-0.6-2.123-1.111c-0.95-0.511-1.191-0.865-2.409-1.354
	c-1.217-0.49-1.304-0.91-2.476-1.51c-1.172-0.6-1.438-0.578-2.831-1.267c-1.394-0.689-1.546-1.265-2.231-1.797
	c-0.686-0.533-0.749-1.329-2.01-2.35c-1.26-1.02-0.771-0.953-1.59-1.796c-0.816-0.842,0.534-1.327,0.182-2.367l0.49-1.859
	c-1.304-0.91,0.497-5.067,0.606-4.381c0.108,0.687,0.75,1.33,0.993,1.684c0.242,0.355,0.858,1.374,1.214,1.773
	c0.353,0.399,1.721,2.748,2.957,4.145c1.235,1.396,5.1,6.804,7.02,9.375c0.988,1.323,3.265,2.823,5.242,3.968l-2.765-0.83
	C1037.496,39.013,1037.406,38.897,1037.276,38.818"/>
<path fill="#81AA8D" d="M985.186,93.8c-0.415-1.202-0.056-1.007,0.252-2.001c0.31-0.994-0.535-0.384-0.483-1.844
	s-0.629-0.296-0.68-1.485c-0.05-1.188-0.623-0.478-1.12-1.957c-0.495-1.479-2.86-1.744-3.756-2.323
	c-0.563-0.365-1.924-0.758-2.853-0.998l-16.645-1.907c-1.955,0.516-7.057-0.299-8.83-0.773c0.009-0.016,0.021-0.031,0.029-0.046
	l-1.824,1.159c0.394-0.095,0.835-0.183,1.354-0.261c2.479-0.371,14.66,3.979,16.56,4.503c1.9,0.523,8.984,4.332,13.533,7.504
	c4.548,3.172,5.856,2.304,5.856,2.304S985.601,95.001,985.186,93.8"/>
<path fill="#81AA8D" d="M1050.746,18.664c-0.599,1.122-0.699,0.726-1.638,1.176c-0.938,0.45,0.082,0.653-1.022,1.609
	c-1.104,0.955,0.211,0.662-0.627,1.508c-0.838,0.845,0.072,0.782-0.674,2.152c-0.746,1.37,0.668,3.284,0.853,4.333
	c0.116,0.661,0.754,1.926,1.209,2.771l9.922,13.498c1.708,1.083,4.58,5.376,5.438,7c-0.019,0.004-0.036,0.005-0.055,0.009
	l2.092,0.548c-0.337-0.221-0.703-0.487-1.112-0.814c-1.957-1.565-7.054-13.455-7.961-15.203c-0.909-1.749-2.937-9.532-3.702-15.025
	c-0.77-5.492-2.296-5.861-2.296-5.861S1051.347,17.542,1050.746,18.664"/>
<path fill="#81AA8D" d="M557.948,30.39c1.242,0.504,0.877,0.701,1.539,1.742s0.622-0.224,1.819,0.92
	c1.198,1.143,0.601-0.381,1.627,0.463c1.027,0.844,0.751-0.238,2.27,0.396c1.521,0.633,3.067-1.434,4.054-1.855
	c0.622-0.265,1.714-1.273,2.435-1.984l10.916-14.508c0.662-2.26,4.201-6.534,5.592-7.877c0.009,0.021,0.015,0.043,0.022,0.063
	l0.047-2.616c-0.139,0.446-0.313,0.937-0.538,1.492c-1.076,2.652-11.547,11.054-13.05,12.482c-1.502,1.427-8.665,5.355-13.875,7.331
	c-5.21,1.977-5.213,3.882-5.213,3.882S556.707,29.886,557.948,30.39"/>
<path fill="#81AA8D" d="M656.5,25.814c0,0,0.146,0.336,0.066,0.526c-0.186,0.444-0.449,0.712-0.14,1.475
	c0.623,1.544-0.61,2.143,0.055,3.146c0.628,0.948,0.485,1.352-0.058,2.333c-0.445,0.805-0.73,1.132-0.505,2.042
	c0.225,0.91-1.387,1.65-1.496,2.507c-0.179,1.383-0.075,1.747-1.777,2.368c-1.217,0.445-0.405,0.571-0.85,1.198
	c-0.445,0.626-1.954,0.135-2.786,0.985c-0.832,0.849-0.889,0.748-1.653,1.618c-0.764,0.869-0.135-0.546-1.821,0.809
	c-1.686,1.355-0.761-0.142-2.479,0.445c-1.718,0.587-2.896-1.111-4.238-1.171c-1.342-0.06-2.997-1.899-5.944-0.665
	c-2.948,1.234-2.433-4.851,0.463-7.703c2.895-2.851,0.66-0.141,1.219-1.071c0.56-0.931,1.458-0.749,2.313-1.76
	c0.855-1.011,1.141-1.011,2.177-1.8c1.037-0.789,1.186-1.334,2.2-1.962c1.013-0.627,1.527-1.739,3.143-2.103
	c1.616-0.364,3.028-1.295,4.37-1.235c1.936,0.087,2.139-0.546,3.377-0.263C653.372,25.815,654.464,26.139,656.5,25.814"/>
<path fill="#81AA8D" d="M670.536,53.75c0,0-1.564-8.108-1.026-10.325c0.536-2.217,0.697-1.814,1.021-3.921s0.27-2.242,1.453-3.817
	c1.186-1.575,0.43-3.134,1.776-4.629c1.346-1.496-0.434-2.695,1.184-2.871c1.616-0.176,0.86-3.029,2.046-2.662
	c1.186,0.368,1.507-1.739,2.531-1.128c1.023,0.612,1.077-1.52,2.262-0.829c1.188,0.691,1.993-1.177,1.887,0.172
	c-0.106,1.35-0.062,1.83,0.378,2.56c1.563,2.604-0.106,1.35,0.647,2.909c0.755,1.558,1.455,1.687,1.295,3.226
	c-0.161,1.54,0.647,0.966,0.001,3.238c-0.645,2.272-0.268,3.213-0.914,4.514c-0.646,1.301-2.045,2.986-1.937,4.226
	c0.106,1.24,0.106,1.24-0.915,2.571c-1.023,1.331-4.469,7.297-9.314,12.034C672.909,59.018,671.51,58.113,670.536,53.75"/>
<path fill="#CFDDAC" d="M594.557,75.182c0,0-0.797,0.104-1.031,0.909c-0.234,0.806-0.451,0.086-0.621,1.022
	c-0.171,0.937-0.546,1.008-0.677,1.746c-0.131,0.739-0.284,1.767-0.224,2.279c0.059,0.513-0.18,0.082-0.05,0.961
	c0.13,0.88,0.467,1.625,0.7,2.437s-0.008,1.382,0.395,2.257c0.4,0.876,0.164,1.063,0.716,1.91c0.551,0.848,1.449,1.677,1.89,2.354
	c0.441,0.678,1.346,1.744,1.434,2.203s0.365,0.692,0.714,1.292c0.349,0.6,0.771,1.187,1.498,2.333
	c0.725,1.147,1.732,2.146,2.452,3.056c0.719,0.911,2,2.523,2.48,3.003c0.481,0.48,0.411,0.113,1.147,1.115s1.083,0.984,1.361,1.217
	c0.277,0.233,1.083-2.87,1.083-2.87s-0.063-1.749-0.242-3.904c-0.18-2.155-0.875-8.827-1.19-9.862
	c-0.314-1.035-2.514-10.277-4.534-11.893c0,0-1.662-1.159-1.388-0.545c0.272,0.614-1.613-2.121-2.235-1.718
	c-0.623,0.404-1.123-0.786-1.486-0.241c-0.361,0.544-1.041-0.564-1.386,0.072C595.018,74.952,594.746,74.956,594.557,75.182"/>
<path fill="#81AA8D" d="M459.88,88.907c0,0,0.333-0.983,2.061-0.456c1.729,0.527,1.461-0.31,3.242-0.107
	c1.78,0.203,2.61-1.88,4.239-1.453c1.628,0.426,0.765-1.865,2.348-1.863s1.836-1.722,3.262-2.35c1.428-0.628,1.278-2.005,2.496-2.94
	c1.217-0.934,0.659-1.217,1.801-2.04c1.143-0.822,1.761-5.666,2.049-7.073c0.286-1.407,0.753-1.971,0.44-3.231
	c-0.312-1.261-3.15-9.613-0.881-13.819c0,0-0.055-2.131-1.379-0.55c-1.323,1.582-2.047,3.017-4.446,3.602
	c-2.397,0.585-6.275,2.122-7.797,3.503c-1.521,1.381-1.487,1.699-2.932,2.968c-1.445,1.27-2.652,2.31-3.604,4.081
	s0.574,1.243-0.912,2.942c-1.486,1.699-0.913,2.941-1.211,4.243c-0.299,1.3,0.905,1.861,0.454,3.386
	c-0.45,1.524-0.009,2.349-0.046,3.632c-0.037,1.283-0.211,1.295-0.184,2.36c0.026,1.066,0.411,1.361,0.416,2.215
	C459.301,86.81,459.036,88.429,459.88,88.907"/>
<path fill="#81AA8D" d="M634.964,86.715c-0.551-0.63-0.932-1.225-1.71-2.212c-0.778-0.987-1.193-1.178-2.031-2.485
	c-0.838-1.308-1.27-1.297-2.2-2.522s-0.99-1.545-2.074-3.008c-1.083-1.463-1.684-1.487-2.402-2.154
	c-0.721-0.666-1.507-0.525-2.869-1.738c-1.363-1.214-1.151-0.656-2.209-1.394c-1.059-0.738-1.117,0.996-2.226,0.863l-1.642,1.09
	c-1.27-1.296-4.73,1.976-4.036,1.917c0.694-0.058,1.506,0.525,1.921,0.716c0.414,0.191,1.582,0.644,2.073,0.954
	c0.491,0.309,3.165,1.288,4.883,2.371c1.718,1.084,8.09,4.183,11.146,5.755c1.571,0.81,3.702,3.097,5.401,5.127l-1.632-3.048
	C635.218,86.922,635.078,86.847,634.964,86.715"/>
<path fill="#81AA8D" d="M584.521,58.73c-1.246,0.256-1.017-0.135-1.988-0.705c-0.972-0.571-0.435,0.564-1.896,0.209
	c-1.463-0.354-0.355,0.696-1.554,0.516c-1.2-0.179-0.537,0.651-2.069,0.949c-1.531,0.299-2.011,3.083-2.674,4.039
	c-0.418,0.603-0.937,2.156-1.262,3.222l-3.421,19.582c0.342,2.45-0.938,8.405-1.576,10.438c-0.016-0.014-0.028-0.031-0.044-0.045
	l1.001,2.421c-0.061-0.488-0.108-1.038-0.141-1.676c-0.148-3.049,5.327-16.786,6.024-18.96c0.696-2.174,5.166-9.906,8.765-14.724
	c3.6-4.819,2.846-6.564,2.846-6.564S585.768,58.475,584.521,58.73"/>
<path fill="#81AA8D" d="M848.201,14.056c0,0-0.271-0.192-0.435-0.106c-0.378,0.201-0.614,0.502-1.233,0.095
	c-1.253-0.825-1.813,0.625-2.613-0.222c-0.758-0.801-1.101-0.649-1.943-0.047c-0.69,0.494-0.979,0.82-1.723,0.505
	c-0.746-0.315-1.441,1.58-2.16,1.67c-1.159,0.145-1.456,0.002-2.059,2.013c-0.43,1.438-0.493,0.457-1.037,0.96
	s-0.209,2.336-0.957,3.293c-0.748,0.955-0.667,1.028-1.429,1.902c-0.762,0.873,0.447,0.189-0.764,2.144
	c-1.211,1.955,0.08,0.92-0.493,2.952c-0.573,2.032,0.78,3.529,0.764,5.141s1.432,3.689,0.259,7.164
	c-1.172,3.474,3.915,3.158,6.43-0.173c2.516-3.332,0.15-0.785,0.952-1.41c0.801-0.625,0.695-1.71,1.578-2.686
	s0.896-1.317,1.604-2.521c0.707-1.204,1.169-1.356,1.74-2.541c0.571-1.184,1.522-1.746,1.905-3.666
	c0.383-1.919,1.228-3.567,1.244-5.179c0.022-2.326,0.56-2.538,0.387-4.038S847.83,16.482,848.201,14.056"/>
<path fill="#81AA8D" d="M879.483,56.25c0,0-1.049-8.182-2.258-10.149c-1.209-1.967-1.236-1.537-2.206-3.459
	c-0.968-1.923-0.959-2.066-2.584-3.24c-1.626-1.173-1.394-2.872-3.148-3.924c-1.754-1.052-0.433-2.695-2.03-2.41
	c-1.599,0.284-1.771-2.653-2.789-1.97c-1.018,0.682-1.986-1.24-2.771-0.37c-0.786,0.871-1.506-1.15-2.42-0.159
	c-0.916,0.992-2.272-0.567-1.747,0.693c0.525,1.259,0.631,1.73,0.44,2.551c-0.676,2.924,0.525,1.259,0.294,2.959
	c-0.231,1.699-0.86,2.018-0.225,3.443c0.637,1.426-0.314,1.104,1.015,3.093c1.329,1.99,1.265,2.994,2.289,4.056
	c1.024,1.061,2.891,2.279,3.176,3.494c0.285,1.215,0.285,1.215,1.681,2.2c1.395,0.985,6.557,5.719,12.671,8.887
	C878.868,61.946,879.923,60.688,879.483,56.25"/>
<path fill="#CFDDAC" d="M769.764,22.157c0,0,0.591-0.611,1.284-0.283c0.692,0.327,0.353-0.328,1.091,0.14
	c0.739,0.468,1.032,0.194,1.611,0.567c0.581,0.372,1.37,0.915,1.675,1.301c0.305,0.386,0.171-0.099,0.677,0.588
	c0.504,0.688,0.781,1.462,1.173,2.193c0.391,0.731,0.93,0.899,1.254,1.814c0.323,0.916,0.604,0.837,0.811,1.862
	c0.206,1.025,0.173,2.333,0.338,3.153c0.165,0.82,0.287,2.289,0.536,2.665c0.25,0.375,0.225,0.765,0.397,1.455
	s0.288,1.435,0.582,2.804c0.293,1.37,0.301,2.884,0.439,4.093c0.14,1.209,0.379,3.358,0.387,4.082
	c0.006,0.724-0.194,0.424-0.005,1.708c0.188,1.285-0.051,1.568-0.077,1.958c-0.026,0.389-2.633-0.957-2.633-0.957
	s-1.13-1.199-2.454-2.764c-1.326-1.563-5.34-6.528-5.826-7.474c-0.486-0.947-5.236-8.876-4.994-11.656c0,0,0.313-2.176,0.544-1.541
	c0.231,0.636-0.364-2.764,0.313-3.03s0.209-1.472,0.812-1.424c0.603,0.048,0.305-1.258,0.956-1.134
	C769.307,22.4,769.487,22.171,769.764,22.157"/>
<path fill="#81AA8D" d="M717.386,31.68c0,0-0.55,0.816,0.604,2.51c1.153,1.694,0.438,1.774,1.387,3.673
	c0.946,1.9-0.162,3.767,0.875,5.396c1.039,1.629-0.982,1.697-0.268,3.466s-0.398,2.829-0.202,4.708
	c0.196,1.878-0.853,2.333-0.969,4.116c-0.117,1.783-0.569,1.287-0.641,2.934c-0.071,1.648-3.243,4.525-4.115,5.481
	c-0.873,0.955-1.063,1.731-2.104,1.951c-1.039,0.219-8.27,0.812-10.241,5.247c0,0-1.543,0.9-1.014-1.293
	c0.529-2.194,1.227-3.65,0.562-6.596s-1.32-7.976-1.021-10.3c0.298-2.324,0.539-2.428,0.792-4.617
	c0.252-2.189,0.448-4.007,1.281-5.869c0.832-1.862,1.145,0.082,1.685-2.347c0.54-2.429,1.685-2.347,2.477-3.268
	s1.734,0.172,2.617-1.019s1.669-1.07,2.566-1.69c0.896-0.62,0.826-0.821,1.599-1.27c0.771-0.45,1.154-0.154,1.765-0.534
	C715.631,31.979,716.664,30.953,717.386,31.68"/>
<path fill="#81AA8D" d="M811.412,43.472c-0.726-0.186-1.325-0.22-2.41-0.426c-1.086-0.206-1.454-0.516-2.776-0.591
	s-1.573-0.524-2.899-0.743c-1.325-0.22-1.563-0.089-3.129-0.323c-1.565-0.233-1.94-0.833-2.79-1.17
	c-0.849-0.337-1.229-1.227-2.808-1.895s-1.1-0.785-2.195-1.426c-1.098-0.64-0.043-1.738-0.789-2.792l-0.297-2.331
	c-1.574-0.523-1.588-6.019-1.21-5.275c0.379,0.745,1.23,1.227,1.599,1.537c0.367,0.31,1.351,1.233,1.839,1.55
	c0.487,0.317,2.702,2.468,4.409,3.577c1.708,1.109,7.465,5.774,10.279,7.958c1.447,1.124,4.158,1.936,6.449,2.46l-2.891,0.153
	C811.695,43.608,811.565,43.511,811.412,43.472"/>
<path fill="#81AA8D" d="M773.096,59.068c-0.96,0.935-0.548,0.98-0.77,2.194c-0.222,1.214-0.66,0.026-1.339,1.537
	c-0.679,1.51-0.7-0.127-1.332,1.042c-0.634,1.169-0.784,0.063-1.954,1.222c-1.169,1.16-3.381-0.172-4.452-0.191
	c-0.677-0.012-2.067-0.535-3.003-0.92l-15.578-9.326c-1.465-1.844-6.354-4.469-8.148-5.189c0,0.022,0.003,0.045,0.004,0.067
	l-1.029-2.406c0.298,0.361,0.644,0.75,1.062,1.179c1.996,2.051,14.861,5.888,16.791,6.645c1.929,0.756,10.044,1.695,15.615,1.563
	c5.569-0.132,6.292,1.631,6.292,1.631S774.056,58.133,773.096,59.068"/>
<path fill="#CFDDAC" d="M504.112,76.567c0,0,5.4-4.485,6.175-6.579c0.775-2.094,0.446-1.946,1.319-3.767
	c0.874-1.82,0.984-1.87,0.951-4.078c-0.032-2.208,1.336-2.662,1.144-4.958c-0.191-2.295,1.73-1.569,0.648-3.148
	c-1.081-1.579,0.968-2.974-0.087-3.771c-1.055-0.798-0.182-2.618-1.246-3.093c-1.066-0.475,0.017-2.071-1.208-2.633
	c-1.226-0.563-0.829-2.645-1.461-1.568c-0.632,1.077-0.918,1.383-1.621,1.52c-2.505,0.489-0.632,1.078-1.999,1.532
	c-1.368,0.455-1.945-0.08-2.637,1.183c-0.693,1.263-0.979,0.12-1.703,2.351c-0.727,2.23-1.495,2.575-1.71,4.1
	c-0.214,1.525-0.083,4.006-0.813,4.81c-0.73,0.804-0.73,0.804-0.687,2.69c0.043,1.885-0.59,9.313,0.44,17.106
	C499.617,78.265,501.112,78.865,504.112,76.567"/>
<path fill="#81AA8D" d="M894.259,102.048c0,0-0.18,0.281-0.362,0.262c-0.426-0.044-0.759-0.234-1.179,0.377
	c-0.852,1.236-1.914,0.104-2.338,1.191c-0.399,1.026-0.774,1.015-1.782,0.775c-0.826-0.197-1.215-0.391-1.786,0.182
	c-0.572,0.572-1.931-0.921-2.63-0.733c-1.128,0.302-1.351,0.546-2.664-1.09c-0.94-1.17-0.631-0.237-1.324-0.498
	c-0.691-0.261-1.073-2.085-2.127-2.689c-1.053-0.604-1.005-0.702-2.039-1.224c-1.033-0.522,0.344-0.344-1.515-1.699
	c-1.859-1.355-0.273-0.882-1.57-2.548s-0.606-3.563-1.229-5.051c-0.622-1.486-0.064-3.956-2.459-6.732
	c-2.396-2.777,2.435-4.4,6.02-2.262s0.437,0.67,1.413,0.946c0.979,0.277,1.288,1.323,2.475,1.894s1.327,0.882,2.438,1.731
	c1.109,0.849,1.593,0.815,2.568,1.697c0.977,0.882,2.067,1.044,3.146,2.678c1.078,1.634,2.481,2.842,3.104,4.329
	c0.898,2.146,1.477,2.14,1.881,3.594C892.7,98.633,893.002,99.94,894.259,102.048"/>
<path fill="#81AA8D" d="M915.913,59.454c0,0,2.113,7.974,1.734,10.251c-0.379,2.278-0.567,1.89-0.74,4.036
	c-0.173,2.146-0.108,2.275-1.174,3.974c-1.063,1.699-0.208,3.186-1.437,4.822c-1.229,1.635,0.612,2.659-0.975,2.998
	c-1.588,0.339-0.643,3.125-1.842,2.876c-1.199-0.25-1.372,1.896-2.428,1.386c-1.058-0.51-0.961,1.633-2.185,1.059
	c-1.221-0.574-1.891,1.382-1.879,0.017c0.015-1.364-0.064-1.84-0.552-2.529c-1.729-2.454,0.013-1.365-0.843-2.852
	c-0.855-1.486-1.56-1.545-1.505-3.105c0.053-1.56-0.707-0.903-0.228-3.247c0.482-2.344,0.043-3.25,0.592-4.619
	c0.551-1.37,1.819-3.201,1.625-4.433c-0.191-1.233-0.191-1.233,0.729-2.671s3.918-7.768,8.388-13.007
	C913.198,54.41,914.649,55.177,915.913,59.454"/>
<path fill="#81AA8D" d="M854.46,89.499c-0.518-0.671-0.864-1.292-1.59-2.336c-0.725-1.044-1.131-1.268-1.896-2.635
	c-0.766-1.367-1.2-1.392-2.063-2.684c-0.863-1.293-0.904-1.616-1.907-3.157c-1.004-1.541-1.605-1.615-2.288-2.336
	c-0.686-0.72-1.481-0.645-2.779-1.962c-1.297-1.316-1.117-0.746-2.136-1.565c-1.019-0.819-1.176,0.896-2.281,0.673l-1.708,0.946
	c-1.199-1.392-4.854,1.569-4.157,1.569c0.699,0,1.481,0.646,1.888,0.869c0.403,0.224,1.55,0.77,2.023,1.118
	c0.477,0.348,3.103,1.54,4.763,2.757c1.66,1.217,7.876,4.819,10.852,6.632c1.53,0.933,3.537,3.379,5.126,5.535l-1.464-3.16
	C854.702,89.726,854.567,89.64,854.46,89.499"/>
<path fill="#81AA8D" d="M418.398,97.869c0,0-0.179,0.281-0.362,0.262c-0.426-0.044-0.759-0.234-1.179,0.377
	c-0.85,1.236-1.914,0.104-2.338,1.19c-0.399,1.027-0.774,1.016-1.782,0.776c-0.826-0.197-1.215-0.391-1.786,0.182
	c-0.571,0.572-1.931-0.921-2.63-0.733c-1.128,0.302-1.35,0.546-2.664-1.09c-0.94-1.17-0.631-0.237-1.324-0.498
	c-0.692-0.261-1.073-2.085-2.127-2.688c-1.053-0.604-1.005-0.702-2.039-1.224c-1.033-0.522,0.344-0.344-1.515-1.699
	c-1.859-1.355-0.272-0.882-1.57-2.548c-1.297-1.666-0.606-3.563-1.229-5.051c-0.622-1.486-0.064-3.956-2.46-6.732
	c-2.396-2.777,2.436-4.4,6.021-2.262c3.585,2.138,0.436,0.67,1.413,0.946c0.979,0.277,1.288,1.323,2.475,1.894
	c1.186,0.571,1.327,0.882,2.437,1.731c1.109,0.849,1.593,0.815,2.569,1.697c0.976,0.882,2.067,1.044,3.146,2.678
	c1.078,1.634,2.481,2.842,3.104,4.329c0.898,2.146,1.476,2.14,1.88,3.594S417.141,95.761,418.398,97.869"/>
</svg>
