<?xml version="1.0" encoding="utf-8"?>
<!-- Generator: Adobe Illustrator 16.0.0, SVG Export Plug-In . SVG Version: 6.00 Build 0)  -->
<!DOCTYPE svg PUBLIC "-//W3C//DTD SVG 1.1//EN" "http://www.w3.org/Graphics/SVG/1.1/DTD/svg11.dtd">
<svg version="1.1" id="Layer_1" xmlns="http://www.w3.org/2000/svg" xmlns:xlink="http://www.w3.org/1999/xlink" x="0px" y="0px"
	 width="1325px" height="96.78px" viewBox="0 519.22 1325 96.78" enable-background="new 0 519.22 1325 96.78" xml:space="preserve"
	>
<path fill="#CFDDAC" d="M150.784,551.254c0,0,0.042-0.802-0.567-1.187c-0.61-0.386,0.002-0.458-0.722-0.806
	c-0.726-0.348-0.724-0.729-1.294-0.999c-0.572-0.271-1.373-0.618-1.793-0.657c-0.421-0.04-0.037-0.191-0.764-0.233
	c-0.725-0.042-1.375,0.146-2.063,0.221c-0.688,0.072-1.107-0.272-1.872-0.048c-0.766,0.226-0.878-0.043-1.645,0.337
	c-0.765,0.377-1.57,1.101-2.184,1.402c-0.612,0.303-1.608,0.984-1.99,0.983c-0.382-0.002-0.613,0.227-1.147,0.453
	c-0.536,0.227-1.072,0.528-2.106,1.021c-1.034,0.492-1.992,1.289-2.835,1.82c-0.843,0.53-2.337,1.479-2.797,1.857
	c-0.46,0.381-0.155,0.382-1.074,0.912s-0.959,0.874-1.188,1.103c-0.231,0.229,2.131,1.614,2.131,1.614s1.412,0.273,3.168,0.512
	c1.756,0.236,7.216,0.836,8.095,0.726c0.879-0.111,8.635-0.495,10.247-2.168c0,0,1.189-1.407,0.655-1.257
	c-0.536,0.149,1.953-1.176,1.727-1.864c-0.225-0.688,0.807-0.951,0.427-1.411s0.616-0.913,0.159-1.374
	C150.896,551.751,150.936,551.484,150.784,551.254"/>
<path fill="#81AA8D" d="M135.199,588.696c0.592-0.419,1.128-0.679,2.042-1.253c0.912-0.575,1.131-0.945,2.311-1.518
	c1.18-0.57,1.239-0.997,2.367-1.676c1.128-0.678,1.395-0.675,2.737-1.457c1.343-0.783,1.456-1.368,2.104-1.945
	c0.647-0.578,0.658-1.378,1.844-2.48c1.188-1.105,0.706-1.004,1.464-1.901c0.759-0.896-0.623-1.287-0.343-2.349l-0.616-1.821
	c1.238-0.997-0.842-5.021-0.903-4.329c-0.063,0.692-0.658,1.377-0.876,1.748c-0.219,0.37-0.765,1.43-1.091,1.853
	c-0.324,0.423-1.528,2.857-2.667,4.337c-1.138,1.478-4.621,7.137-6.362,9.834c-0.896,1.387-3.063,3.039-4.958,4.315l2.701-1.017
	C134.993,588.905,135.075,588.784,135.199,588.696"/>
<path fill="#81AA8D" d="M63.402,585.271c0,0,0.398-0.698,0.026-1.315c-0.372-0.618,0.208-0.409-0.284-1.044
	c-0.491-0.636-0.317-0.978-0.707-1.475s-0.949-1.169-1.306-1.393c-0.358-0.225,0.052-0.188-0.578-0.551
	c-0.629-0.363-1.295-0.487-1.942-0.73c-0.647-0.242-0.865-0.738-1.65-0.882c-0.785-0.142-0.767-0.433-1.62-0.438
	c-0.854-0.007-1.898,0.276-2.582,0.271c-0.683-0.004-1.88,0.158-2.22-0.015c-0.342-0.173-0.649-0.072-1.229-0.11
	c-0.581-0.038-1.196-0.008-2.341-0.032c-1.144-0.024-2.359,0.259-3.35,0.354c-0.992,0.096-2.752,0.271-3.334,0.405
	c-0.582,0.132-0.31,0.271-1.369,0.332c-1.06,0.061-1.249,0.351-1.558,0.449c-0.308,0.103,1.181,2.399,1.181,2.399
	s1.138,0.879,2.601,1.88c1.462,1,6.072,3.986,6.907,4.282s7.938,3.435,10.129,2.664c0,0,1.696-0.725,1.15-0.83
	c-0.547-0.106,2.273-0.172,2.381-0.89c0.106-0.718,1.147-0.487,1.015-1.069c-0.133-0.581,0.96-0.54,0.759-1.156
	S63.434,585.543,63.402,585.271"/>
<path fill="#CFDDAC" d="M239.258,608.031c0,0,0.604,0.527,1.284,0.287c0.679-0.241,0.358,0.284,1.079-0.069
	c0.721-0.354,1.02-0.118,1.585-0.4s1.334-0.697,1.625-1.003s0.173,0.088,0.653-0.456c0.481-0.545,0.735-1.173,1.103-1.759
	c0.368-0.586,0.897-0.702,1.192-1.442c0.297-0.74,0.576-0.664,0.752-1.5c0.176-0.837,0.105-1.915,0.246-2.584
	s0.22-1.874,0.456-2.174c0.237-0.3,0.2-0.622,0.354-1.183c0.152-0.562,0.246-1.171,0.498-2.287c0.251-1.116,0.217-2.363,0.319-3.354
	c0.104-0.99,0.281-2.751,0.267-3.348s-0.204-0.356-0.053-1.407c0.149-1.051-0.096-1.294-0.133-1.616
	c-0.036-0.321-2.586,0.68-2.586,0.68s-1.088,0.94-2.359,2.175c-1.271,1.233-5.115,5.157-5.571,5.917
	c-0.456,0.759-4.946,7.096-4.626,9.396c0,0,0.372,1.807,0.584,1.292c0.213-0.515-0.283,2.263,0.398,2.511
	c0.681,0.246,0.25,1.222,0.846,1.207c0.597-0.015,0.339,1.049,0.982,0.974C238.798,607.813,238.983,608.009,239.258,608.031"/>
<path fill="#81AA8D" d="M219.444,572.646c-0.035,0.724-0.163,1.306-0.275,2.38c-0.112,1.071,0.044,1.473-0.236,2.754
	c-0.279,1.28,0.02,1.59-0.144,2.896c-0.164,1.309-0.331,1.516-0.545,3.053c-0.216,1.539,0.175,1.99,0.229,2.856
	c0.054,0.866,0.677,1.368,0.813,2.984c0.135,1.613,0.353,1.175,0.59,2.325c0.236,1.147,1.396,0.305,2.06,1.181l1.813,0.64
	c0.018,1.59,4.468,2.441,3.963,1.964c-0.506-0.476-0.678-1.367-0.834-1.768c-0.157-0.4-0.652-1.484-0.783-2.001
	c-0.131-0.518-1.303-2.969-1.762-4.777c-0.459-1.808-2.757-8.044-3.803-11.078c-0.536-1.561-0.496-4.284-0.332-6.564l-0.867,2.752
	C219.407,572.354,219.452,572.493,219.444,572.646"/>
<path fill="#CFDDAC" d="M309.854,580.085c0,0-0.649-0.621-2.078,0.37c-1.429,0.99-1.469,0.271-3.058,1.038
	c-1.59,0.766-3.08-0.507-4.452,0.374c-1.371,0.881-1.355-1.133-2.83-0.585s-2.304-0.657-3.85-0.635
	c-1.547,0.021-1.882-1.063-3.339-1.343c-1.457-0.277-1.034-0.684-2.382-0.904c-1.348-0.224-3.594-3.639-4.346-4.594
	c-0.752-0.953-1.382-1.216-1.524-2.268c-0.144-1.052-0.374-8.288-3.939-10.655c0,0-0.683-1.615,1.095-0.888
	c1.779,0.729,2.948,1.554,5.386,1.164c2.437-0.389,6.581-0.576,8.475-0.067c1.893,0.511,1.97,0.761,3.755,1.212
	c1.784,0.453,3.267,0.815,4.763,1.814c1.497,0.998-0.106,1.129,1.864,1.889s1.864,1.891,2.591,2.761s-0.202,1.707,0.743,2.692
	c0.944,0.986,0.818,1.756,1.294,2.705c0.478,0.949,0.644,0.896,0.985,1.705c0.341,0.807,0.085,1.161,0.375,1.802
	C309.67,578.315,310.475,579.438,309.854,580.085"/>
<path fill="#81AA8D" d="M327.726,554.487c0,0-0.302,0.014-0.413-0.129c-0.26-0.334-0.362-0.676-1.04-0.669
	c-1.372,0.015-1.359-1.344-2.347-1.096c-0.934,0.234-1.18-0.045-1.704-0.904c-0.43-0.702-0.567-1.086-1.323-1.21
	s-0.707-1.88-1.3-2.294c-0.957-0.668-1.265-0.705-1.094-2.502c0.121-1.285-0.272-0.582-0.571-1.221s0.622-1.852,0.302-2.929
	c-0.319-1.077-0.225-1.094-0.585-2.114c-0.359-1.022,0.454,0.075,0.075-1.975c-0.378-2.051,0.387-0.651,0.588-2.45
	c0.202-1.799,1.895-2.269,2.436-3.482c0.54-1.216,2.513-2.071,2.69-5.242c0.178-3.169,4.488-0.475,5.525,3.235
	c1.038,3.71-0.14,0.661,0.342,1.516c0.479,0.855,0.014,1.617,0.445,2.774c0.431,1.158,0.325,1.42,0.525,2.664
	s0.548,1.58,0.638,2.744c0.089,1.163,0.721,2.043,0.393,3.666c-0.329,1.623-0.163,3.265-0.704,4.479
	c-0.781,1.754-0.387,2.172-1.055,3.212C328.882,551.604,328.24,552.492,327.726,554.487"/>
<path fill="#CFDDAC" d="M355.965,604.789c0,0,0.604,0.528,1.283,0.287c0.68-0.241,0.359,0.285,1.079-0.07
	c0.722-0.354,1.021-0.118,1.585-0.398c0.566-0.283,1.334-0.698,1.625-1.005c0.291-0.306,0.174,0.09,0.654-0.454
	c0.481-0.546,0.735-1.175,1.103-1.761s0.897-0.701,1.192-1.44c0.296-0.741,0.576-0.665,0.752-1.501
	c0.175-0.836,0.105-1.915,0.246-2.584s0.219-1.874,0.456-2.173c0.237-0.301,0.2-0.621,0.354-1.185
	c0.152-0.561,0.245-1.17,0.497-2.287c0.252-1.114,0.217-2.362,0.32-3.354c0.104-0.99,0.281-2.751,0.267-3.349
	c-0.015-0.597-0.204-0.355-0.054-1.406c0.15-1.052-0.095-1.294-0.132-1.616s-2.586,0.679-2.586,0.679s-1.088,0.941-2.36,2.175
	c-1.271,1.234-5.114,5.158-5.57,5.917c-0.456,0.76-4.946,7.098-4.626,9.397c0,0,0.372,1.806,0.584,1.292
	c0.213-0.516-0.283,2.262,0.397,2.51c0.682,0.248,0.25,1.222,0.847,1.207c0.597-0.014,0.339,1.049,0.982,0.974
	C355.505,604.57,355.69,604.766,355.965,604.789"/>
<path fill="#81AA8D" d="M336.151,569.402c-0.036,0.725-0.163,1.306-0.275,2.38c-0.112,1.073,0.044,1.474-0.236,2.754
	c-0.279,1.281,0.019,1.591-0.145,2.896c-0.164,1.308-0.331,1.515-0.545,3.054c-0.215,1.539,0.175,1.989,0.23,2.855
	c0.054,0.866,0.677,1.368,0.812,2.983c0.136,1.615,0.354,1.176,0.59,2.324c0.237,1.149,1.397,0.307,2.061,1.182l1.812,0.641
	c0.019,1.59,4.469,2.44,3.964,1.964c-0.507-0.476-0.679-1.367-0.835-1.769c-0.156-0.399-0.651-1.483-0.782-2
	c-0.131-0.518-1.304-2.97-1.763-4.777c-0.459-1.809-2.757-8.044-3.802-11.078c-0.538-1.561-0.497-4.285-0.332-6.565l-0.868,2.752
	C336.114,569.111,336.159,569.251,336.151,569.402"/>
<path fill="#CFDDAC" d="M426.561,576.843c0,0-0.649-0.621-2.078,0.37c-1.429,0.989-1.469,0.271-3.058,1.038
	c-1.59,0.766-3.08-0.508-4.452,0.374c-1.371,0.881-1.356-1.134-2.83-0.585c-1.475,0.548-2.304-0.657-3.85-0.636
	c-1.548,0.022-1.883-1.062-3.34-1.341s-1.033-0.685-2.382-0.906c-1.347-0.222-3.593-3.638-4.345-4.592s-1.382-1.217-1.525-2.269
	c-0.143-1.053-0.374-8.288-3.938-10.655c0,0-0.684-1.615,1.095-0.888c1.779,0.729,2.948,1.554,5.385,1.164
	c2.438-0.39,6.581-0.576,8.475-0.067c1.894,0.511,1.971,0.761,3.756,1.212c1.784,0.453,3.267,0.815,4.763,1.814
	c1.497,0.998-0.106,1.129,1.864,1.889s1.864,1.89,2.591,2.761c0.727,0.87-0.202,1.707,0.743,2.692
	c0.944,0.986,0.818,1.756,1.294,2.705c0.478,0.949,0.644,0.896,0.985,1.705c0.341,0.807,0.085,1.161,0.375,1.802
	C426.378,575.072,427.182,576.193,426.561,576.843"/>
<path fill="#81AA8D" d="M444.434,551.245c0,0-0.302,0.013-0.413-0.13c-0.26-0.333-0.361-0.673-1.04-0.667
	c-1.372,0.013-1.359-1.345-2.347-1.097c-0.934,0.233-1.18-0.045-1.704-0.903c-0.43-0.703-0.567-1.086-1.323-1.21
	s-0.707-1.88-1.3-2.294c-0.957-0.668-1.264-0.705-1.094-2.502c0.121-1.285-0.272-0.582-0.571-1.222
	c-0.299-0.639,0.622-1.852,0.302-2.929c-0.32-1.078-0.225-1.093-0.585-2.114s0.454,0.074,0.075-1.976
	c-0.378-2.049,0.387-0.651,0.588-2.45c0.202-1.799,1.895-2.268,2.436-3.481c0.54-1.216,2.513-2.071,2.69-5.241
	s4.488-0.477,5.525,3.234c1.038,3.709-0.14,0.66,0.342,1.517c0.479,0.854,0.014,1.616,0.445,2.772
	c0.431,1.158,0.325,1.42,0.525,2.664s0.548,1.58,0.638,2.744c0.089,1.163,0.721,2.043,0.393,3.667
	c-0.329,1.623-0.163,3.265-0.704,4.479c-0.781,1.755-0.387,2.173-1.055,3.213S444.947,549.249,444.434,551.245"/>
<path fill="#CFDDAC" d="M960.806,551.254c0,0,0.042-0.802-0.567-1.187c-0.608-0.386,0.002-0.458-0.722-0.806
	c-0.726-0.348-0.724-0.729-1.294-0.999c-0.572-0.271-1.373-0.618-1.793-0.657c-0.42-0.041-0.037-0.191-0.764-0.233
	c-0.726-0.042-1.375,0.146-2.063,0.221c-0.688,0.072-1.107-0.272-1.872-0.048c-0.765,0.226-0.878-0.043-1.644,0.337
	c-0.767,0.377-1.571,1.101-2.186,1.402c-0.612,0.303-1.606,0.984-1.99,0.983c-0.382-0.002-0.611,0.227-1.146,0.453
	c-0.536,0.227-1.072,0.528-2.106,1.021c-1.033,0.493-1.99,1.289-2.835,1.82c-0.843,0.53-2.337,1.479-2.797,1.857
	c-0.46,0.381-0.155,0.382-1.074,0.912s-0.959,0.874-1.188,1.103c-0.231,0.229,2.131,1.614,2.131,1.614s1.412,0.273,3.168,0.512
	c1.756,0.236,7.216,0.836,8.095,0.726c0.879-0.111,8.636-0.495,10.247-2.168c0,0,1.19-1.407,0.655-1.257
	c-0.536,0.149,1.953-1.176,1.727-1.864c-0.225-0.688,0.809-0.951,0.429-1.411c-0.381-0.46,0.614-0.913,0.158-1.374
	S960.956,551.484,960.806,551.254"/>
<path fill="#81AA8D" d="M945.221,588.696c0.592-0.419,1.128-0.679,2.041-1.253c0.913-0.575,1.132-0.945,2.312-1.518
	c1.181-0.572,1.239-0.997,2.367-1.676c1.128-0.678,1.396-0.675,2.736-1.457c1.344-0.783,1.457-1.368,2.104-1.945
	c0.646-0.578,0.658-1.378,1.845-2.48c1.188-1.105,0.705-1.004,1.464-1.901c0.759-0.896-0.623-1.287-0.344-2.349l-0.615-1.821
	c1.237-0.997-0.843-5.021-0.903-4.329c-0.063,0.692-0.658,1.377-0.876,1.748c-0.219,0.37-0.765,1.43-1.091,1.853
	c-0.324,0.423-1.528,2.857-2.667,4.337c-1.139,1.478-4.622,7.137-6.362,9.834c-0.896,1.387-3.063,3.039-4.958,4.315l2.701-1.017
	C945.014,588.905,945.096,588.784,945.221,588.696"/>
<path fill="#81AA8D" d="M873.424,585.271c0,0,0.396-0.698,0.024-1.315c-0.372-0.618,0.208-0.409-0.284-1.044
	c-0.489-0.636-0.316-0.978-0.705-1.475c-0.392-0.497-0.949-1.169-1.308-1.393c-0.356-0.225,0.052-0.188-0.578-0.551
	c-0.629-0.363-1.295-0.487-1.94-0.73c-0.648-0.242-0.866-0.738-1.651-0.882c-0.785-0.142-0.766-0.433-1.62-0.438
	c-0.854-0.007-1.896,0.276-2.582,0.271c-0.683-0.004-1.88,0.158-2.22-0.015c-0.341-0.173-0.649-0.072-1.229-0.11
	c-0.58-0.038-1.195-0.008-2.342-0.032c-1.144-0.024-2.357,0.259-3.35,0.354s-2.752,0.271-3.334,0.405
	c-0.582,0.132-0.31,0.271-1.369,0.332c-1.059,0.061-1.249,0.351-1.557,0.449c-0.31,0.103,1.18,2.399,1.18,2.399
	s1.138,0.879,2.601,1.88c1.463,1,6.072,3.986,6.907,4.282s7.938,3.435,10.129,2.664c0,0,1.696-0.725,1.15-0.83
	c-0.546-0.106,2.272-0.172,2.381-0.89c0.106-0.718,1.147-0.487,1.015-1.069c-0.133-0.581,0.961-0.54,0.761-1.156
	C873.301,585.765,873.454,585.543,873.424,585.271"/>
<path fill="#CFDDAC" d="M1049.279,608.031c0,0,0.605,0.527,1.284,0.287c0.68-0.241,0.359,0.284,1.079-0.069
	c0.721-0.354,1.021-0.118,1.585-0.4s1.334-0.697,1.625-1.003s0.173,0.088,0.654-0.456c0.479-0.545,0.733-1.173,1.102-1.759
	s0.898-0.702,1.193-1.442c0.296-0.74,0.575-0.664,0.752-1.5c0.175-0.837,0.104-1.915,0.246-2.584
	c0.14-0.669,0.219-1.874,0.456-2.174c0.235-0.3,0.198-0.622,0.353-1.183c0.153-0.562,0.246-1.171,0.498-2.287
	c0.251-1.116,0.217-2.363,0.32-3.354c0.103-0.99,0.28-2.751,0.266-3.348c-0.014-0.597-0.204-0.356-0.053-1.407
	c0.149-1.051-0.095-1.294-0.132-1.616c-0.037-0.321-2.586,0.68-2.586,0.68s-1.088,0.94-2.36,2.175
	c-1.271,1.233-5.115,5.157-5.571,5.917c-0.456,0.759-4.943,7.096-4.626,9.396c0,0,0.372,1.807,0.584,1.292
	c0.213-0.515-0.281,2.263,0.398,2.511c0.681,0.246,0.25,1.222,0.846,1.207c0.598-0.015,0.339,1.049,0.983,0.974
	C1048.819,607.813,1049.005,608.009,1049.279,608.031"/>
<path fill="#81AA8D" d="M1029.466,572.646c-0.036,0.724-0.163,1.306-0.276,2.38c-0.111,1.071,0.044,1.473-0.235,2.754
	c-0.279,1.28,0.02,1.59-0.145,2.896c-0.164,1.309-0.331,1.516-0.545,3.053c-0.215,1.539,0.175,1.99,0.229,2.856
	s0.678,1.368,0.813,2.984c0.135,1.613,0.354,1.175,0.59,2.325c0.237,1.147,1.396,0.305,2.061,1.181l1.813,0.64
	c0.019,1.59,4.468,2.441,3.963,1.964c-0.506-0.476-0.677-1.367-0.834-1.768s-0.651-1.484-0.782-2.001
	c-0.132-0.518-1.304-2.969-1.763-4.777c-0.459-1.808-2.757-8.044-3.802-11.078c-0.538-1.561-0.497-4.284-0.332-6.564l-0.868,2.752
	C1029.429,572.354,1029.474,572.493,1029.466,572.646"/>
<path fill="#CFDDAC" d="M1119.875,580.085c0,0-0.648-0.621-2.078,0.37c-1.43,0.99-1.47,0.271-3.059,1.038
	c-1.59,0.766-3.081-0.507-4.452,0.374c-1.37,0.881-1.355-1.133-2.829-0.585c-1.476,0.548-2.305-0.657-3.852-0.635
	c-1.546,0.021-1.882-1.063-3.339-1.343c-1.457-0.277-1.033-0.684-2.382-0.904c-1.348-0.224-3.593-3.639-4.345-4.594
	c-0.752-0.953-1.382-1.216-1.525-2.268c-0.143-1.052-0.373-8.288-3.938-10.655c0,0-0.683-1.615,1.096-0.888
	c1.779,0.729,2.947,1.554,5.385,1.164c2.438-0.389,6.581-0.576,8.475-0.067c1.895,0.511,1.972,0.761,3.756,1.212
	c1.784,0.453,3.268,0.815,4.764,1.814c1.497,0.998-0.106,1.129,1.863,1.889c1.971,0.76,1.864,1.891,2.592,2.761
	c0.727,0.87-0.202,1.707,0.742,2.692c0.944,0.986,0.818,1.756,1.295,2.705c0.478,0.949,0.644,0.896,0.984,1.705
	c0.341,0.807,0.085,1.161,0.375,1.802C1119.692,578.315,1120.495,579.438,1119.875,580.085"/>
<path fill="#81AA8D" d="M1137.748,554.487c0,0-0.304,0.014-0.413-0.129c-0.262-0.334-0.361-0.676-1.04-0.669
	c-1.372,0.015-1.359-1.344-2.349-1.096c-0.933,0.234-1.179-0.045-1.703-0.904c-0.431-0.702-0.566-1.086-1.322-1.21
	c-0.757-0.124-0.707-1.88-1.301-2.294c-0.957-0.668-1.265-0.705-1.095-2.502c0.121-1.285-0.271-0.582-0.57-1.221
	s0.622-1.852,0.303-2.929c-0.32-1.077-0.226-1.094-0.585-2.114c-0.36-1.022,0.454,0.075,0.075-1.975
	c-0.379-2.051,0.387-0.651,0.589-2.45c0.2-1.799,1.893-2.269,2.434-3.482c0.54-1.216,2.513-2.071,2.691-5.242
	c0.178-3.169,4.486-0.475,5.523,3.235c1.038,3.71-0.139,0.661,0.343,1.516c0.479,0.855,0.015,1.617,0.444,2.774
	c0.433,1.158,0.326,1.42,0.526,2.664c0.199,1.244,0.548,1.58,0.637,2.744c0.089,1.163,0.722,2.043,0.395,3.666
	c-0.329,1.623-0.163,3.265-0.704,4.479c-0.78,1.754-0.389,2.172-1.057,3.212C1138.903,551.604,1138.262,552.492,1137.748,554.487"/>
<path fill="#CFDDAC" d="M1165.986,604.789c0,0,0.605,0.528,1.284,0.287s0.359,0.285,1.079-0.07c0.721-0.354,1.02-0.118,1.585-0.398
	c0.566-0.283,1.334-0.698,1.625-1.005c0.291-0.306,0.173,0.09,0.654-0.454c0.479-0.546,0.733-1.175,1.102-1.761
	s0.898-0.701,1.193-1.44c0.296-0.741,0.576-0.665,0.752-1.501c0.175-0.836,0.104-1.915,0.246-2.584
	c0.14-0.669,0.219-1.874,0.456-2.173c0.235-0.301,0.198-0.621,0.353-1.185c0.153-0.561,0.246-1.17,0.498-2.287
	c0.251-1.114,0.217-2.362,0.32-3.354c0.103-0.99,0.281-2.751,0.266-3.349c-0.014-0.597-0.204-0.355-0.053-1.406
	c0.148-1.052-0.095-1.294-0.132-1.616s-2.586,0.679-2.586,0.679s-1.089,0.941-2.36,2.175c-1.271,1.234-5.115,5.158-5.571,5.917
	c-0.456,0.76-4.943,7.098-4.626,9.397c0,0,0.372,1.806,0.584,1.292c0.214-0.516-0.281,2.262,0.398,2.51s0.25,1.222,0.846,1.207
	c0.597-0.014,0.339,1.049,0.983,0.974C1165.526,604.57,1165.713,604.766,1165.986,604.789"/>
<path fill="#81AA8D" d="M1146.173,569.402c-0.036,0.725-0.163,1.306-0.276,2.38c-0.111,1.073,0.045,1.474-0.235,2.754
	c-0.278,1.281,0.02,1.591-0.145,2.896c-0.164,1.308-0.331,1.515-0.545,3.054c-0.215,1.539,0.175,1.989,0.229,2.855
	s0.678,1.368,0.813,2.983s0.354,1.176,0.59,2.324c0.237,1.149,1.396,0.307,2.061,1.182l1.813,0.641
	c0.019,1.59,4.469,2.44,3.964,1.964c-0.507-0.476-0.678-1.367-0.835-1.769c-0.156-0.399-0.651-1.483-0.782-2
	c-0.131-0.518-1.304-2.97-1.763-4.777c-0.459-1.809-2.757-8.044-3.802-11.078c-0.538-1.561-0.497-4.285-0.332-6.565l-0.868,2.752
	C1146.136,569.111,1146.181,569.251,1146.173,569.402"/>
<path fill="#CFDDAC" d="M1236.582,576.843c0,0-0.648-0.621-2.078,0.37c-1.43,0.989-1.47,0.271-3.059,1.038
	c-1.59,0.766-3.081-0.508-4.452,0.374c-1.37,0.881-1.354-1.134-2.829-0.585c-1.476,0.548-2.305-0.657-3.851-0.636
	c-1.547,0.022-1.882-1.062-3.339-1.341s-1.034-0.685-2.382-0.906c-1.349-0.222-3.594-3.638-4.346-4.592s-1.382-1.217-1.524-2.269
	c-0.145-1.053-0.374-8.288-3.939-10.655c0,0-0.683-1.615,1.096-0.888c1.779,0.729,2.947,1.554,5.385,1.164s6.582-0.576,8.475-0.067
	c1.895,0.511,1.972,0.761,3.756,1.212c1.784,0.453,3.269,0.815,4.764,1.814c1.497,0.998-0.106,1.129,1.863,1.889
	c1.972,0.76,1.864,1.89,2.592,2.761c0.727,0.871-0.202,1.707,0.742,2.692c0.945,0.986,0.818,1.756,1.295,2.705
	c0.478,0.949,0.644,0.896,0.984,1.705c0.341,0.807,0.085,1.161,0.375,1.802C1236.4,575.072,1237.202,576.193,1236.582,576.843"/>
<path fill="#81AA8D" d="M1254.454,551.245c0,0-0.302,0.013-0.413-0.13c-0.26-0.333-0.36-0.673-1.039-0.667
	c-1.372,0.013-1.359-1.345-2.348-1.097c-0.934,0.233-1.18-0.045-1.704-0.903c-0.431-0.703-0.566-1.086-1.323-1.21
	c-0.756-0.124-0.707-1.88-1.3-2.294c-0.957-0.668-1.265-0.705-1.094-2.502c0.12-1.285-0.272-0.582-0.571-1.222
	c-0.299-0.639,0.622-1.852,0.303-2.929c-0.32-1.078-0.226-1.093-0.586-2.114c-0.359-1.021,0.454,0.074,0.075-1.976
	c-0.378-2.049,0.388-0.651,0.589-2.45s1.894-2.268,2.435-3.481c0.541-1.216,2.514-2.071,2.69-5.241
	c0.179-3.17,4.488-0.477,5.524,3.234c1.039,3.709-0.139,0.66,0.343,1.517c0.479,0.854,0.015,1.616,0.444,2.772
	c0.433,1.158,0.326,1.42,0.526,2.664c0.199,1.244,0.548,1.58,0.637,2.744c0.089,1.163,0.722,2.043,0.394,3.667
	c-0.329,1.623-0.163,3.265-0.704,4.479c-0.779,1.755-0.387,2.173-1.055,3.213C1255.611,548.36,1254.969,549.249,1254.454,551.245"/>
<path fill="#81AA8D" d="M722.646,580.194c0,0,0.271,0.19,0.434,0.104c0.378-0.2,0.615-0.502,1.234-0.095
	c1.253,0.825,1.813-0.625,2.613,0.222c0.757,0.802,1.101,0.649,1.942,0.048c0.69-0.494,0.979-0.819,1.724-0.505
	c0.746,0.314,1.441-1.58,2.16-1.67c1.158-0.146,1.456-0.003,2.058-2.014c0.431-1.438,0.494-0.457,1.038-0.96
	c0.543-0.503,0.209-2.336,0.957-3.293c0.748-0.955,0.667-1.028,1.429-1.902c0.761-0.872-0.448-0.188,0.763-2.144
	c1.212-1.956-0.079-0.92,0.494-2.952s-0.78-3.529-0.765-5.142c0.017-1.611-1.431-3.688-0.258-7.164
	c1.172-3.475-3.915-3.157-6.431,0.174c-2.515,3.332-0.149,0.784-0.951,1.409s-0.695,1.711-1.578,2.687
	c-0.884,0.977-0.896,1.316-1.604,2.521c-0.707,1.205-1.169,1.355-1.741,2.541c-0.57,1.185-1.521,1.746-1.904,3.666
	c-0.384,1.919-1.228,3.566-1.244,5.18c-0.022,2.325-0.561,2.538-0.388,4.038C722.801,576.444,723.016,577.769,722.646,580.194"/>
<path fill="#81AA8D" d="M660.504,535.471c0,0,1.048,8.183,2.257,10.149s1.237,1.536,2.206,3.459
	c0.968,1.923,0.959,2.064,2.583,3.239c1.627,1.173,1.395,2.872,3.148,3.925c1.754,1.052,0.433,2.692,2.031,2.409
	c1.598-0.284,1.771,2.652,2.789,1.971c1.017-0.683,1.985,1.239,2.771,0.37c0.786-0.871,1.506,1.148,2.421,0.158
	c0.916-0.992,2.272,0.566,1.747-0.692c-0.525-1.26-0.632-1.73-0.44-2.552c0.676-2.924-0.526-1.259-0.294-2.959
	c0.23-1.698,0.859-2.019,0.224-3.442c-0.636-1.427,0.315-1.104-1.014-3.093c-1.329-1.99-1.265-2.994-2.289-4.058
	c-1.025-1.061-2.891-2.278-3.177-3.493c-0.284-1.216-0.284-1.216-1.681-2.199c-1.394-0.985-6.556-5.72-12.671-8.888
	C661.117,529.775,660.064,531.031,660.504,535.471"/>
<path fill="#81AA8D" d="M805.258,584.996c0,0-0.592,0.609-1.285,0.284c-0.692-0.328-0.353,0.325-1.091-0.143
	s-1.031-0.193-1.611-0.566c-0.581-0.371-1.37-0.914-1.675-1.302c-0.305-0.386-0.172,0.101-0.676-0.588
	c-0.505-0.687-0.782-1.462-1.174-2.192c-0.391-0.73-0.93-0.898-1.254-1.813c-0.322-0.916-0.604-0.837-0.81-1.862
	c-0.206-1.023-0.174-2.333-0.339-3.151c-0.165-0.82-0.286-2.289-0.535-2.665c-0.25-0.375-0.225-0.767-0.398-1.455
	c-0.174-0.69-0.289-1.437-0.582-2.804c-0.293-1.37-0.301-2.886-0.439-4.095s-0.379-3.356-0.386-4.082
	c-0.007-0.724,0.193-0.424,0.005-1.708c-0.188-1.283,0.051-1.566,0.077-1.958c0.025-0.389,2.631,0.957,2.631,0.957
	s1.132,1.199,2.456,2.766c1.326,1.563,5.339,6.526,5.826,7.474c0.485,0.947,5.235,8.876,4.993,11.656c0,0-0.313,2.176-0.544,1.541
	c-0.231-0.637,0.365,2.764-0.313,3.029c-0.679,0.267-0.209,1.473-0.812,1.425s-0.304,1.258-0.956,1.134
	C805.715,584.754,805.533,584.981,805.258,584.996"/>
<path fill="#CFDDAC" d="M755.078,575.002c0.727,0.188,1.326,0.221,2.412,0.427c1.085,0.205,1.453,0.517,2.775,0.591
	c1.323,0.075,1.574,0.522,2.898,0.743c1.326,0.221,1.563,0.089,3.131,0.321c1.564,0.234,1.939,0.834,2.789,1.171
	c0.85,0.338,1.229,1.229,2.809,1.896c1.577,0.668,1.099,0.784,2.195,1.426c1.097,0.64,0.043,1.738,0.789,2.792l0.297,2.331
	c1.572,0.522,1.588,6.019,1.21,5.274c-0.379-0.744-1.231-1.228-1.601-1.536c-0.365-0.312-1.35-1.234-1.838-1.551
	s-2.702-2.469-4.41-3.577s-7.464-5.773-10.277-7.957c-1.448-1.125-4.159-1.938-6.45-2.461l2.891-0.152
	C754.798,574.866,754.928,574.963,755.078,575.002"/>
<path fill="#81AA8D" d="M566.62,568.477c0,0,0.589,0.725,1.283,0.528s0.352,0.395,1.091,0.066c0.741-0.327,1.033,0.002,1.615-0.261
	c0.581-0.262,1.372-0.654,1.678-0.982s0.172,0.132,0.679-0.458c0.506-0.591,0.788-1.313,1.182-1.97
	c0.393-0.656,0.933-0.722,1.26-1.574c0.328-0.854,0.608-0.722,0.818-1.707s0.183-2.3,0.351-3.088
	c0.169-0.788,0.296-2.233,0.547-2.562c0.252-0.327,0.228-0.724,0.404-1.379c0.176-0.657,0.294-1.38,0.593-2.692
	c0.298-1.314,0.313-2.825,0.457-4.008c0.145-1.184,0.394-3.284,0.402-4.008c0.01-0.723-0.191-0.461,0.003-1.708
	c0.194-1.248-0.044-1.577-0.069-1.972c-0.023-0.395-2.635,0.455-2.635,0.455s-1.134,0.984-2.466,2.296
	c-1.331,1.313-5.363,5.511-5.854,6.364c-0.489,0.854-5.271,7.875-5.04,10.701c0,0,0.303,2.233,0.537,1.643
	c0.235-0.591-0.376,2.693,0.302,3.089c0.677,0.396,0.202,1.512,0.805,1.578c0.602,0.067,0.299,1.315,0.951,1.316
	C566.166,568.146,566.344,568.41,566.62,568.477"/>
<path fill="#CFDDAC" d="M690.898,593.376c0,0-0.318-1.05,1.169-2.031c1.486-0.981,0.837-1.431,2.18-2.711
	c1.344-1.282,0.756-3.606,2.118-4.588s-0.512-2.101,0.583-3.382c1.096-1.28,0.309-2.854,0.943-4.508
	c0.636-1.653-0.235-2.627,0.084-4.354c0.321-1.729-0.223-1.5,0.106-3.078c0.33-1.578-1.943-5.923-2.529-7.271
	c-0.586-1.35-0.578-2.175-1.497-2.922c-0.918-0.747-7.537-5.075-8.313-10.252c0,0-1.228-1.647-1.259,0.68
	c-0.032,2.328,0.268,4.054-1.063,6.462c-1.331,2.407-3.154,6.769-3.435,9.098c-0.281,2.328-0.08,2.554-0.37,4.73
	c-0.291,2.179-0.544,3.98-0.214,6.157c0.331,2.176,1.09,0.521,1.011,3.073c-0.08,2.554,1.011,3.074,1.529,4.349
	c0.52,1.273,1.662,0.744,2.201,2.318s1.305,1.871,1.994,2.92s0.576,1.199,1.188,2.021c0.613,0.823,1.043,0.747,1.521,1.421
	C689.328,592.182,690.049,593.681,690.898,593.376"/>
<path fill="#81AA8D" d="M548.057,522.928c-0.065,0.87-0.217,1.557-0.373,2.836c-0.157,1.281-0.015,1.787-0.348,3.295
	c-0.334,1.51-0.045,1.926-0.263,3.479c-0.217,1.555-0.394,1.782-0.672,3.611c-0.276,1.828,0.097,2.43,0.118,3.482
	c0.021,1.053,0.628,1.748,0.7,3.719c0.07,1.973,0.309,1.472,0.501,2.894c0.192,1.423,1.396,0.564,2.029,1.719l1.803,1.028
	c-0.045,1.924,4.408,3.578,3.917,2.931c-0.491-0.646-0.628-1.748-0.771-2.253c-0.142-0.506-0.598-1.886-0.709-2.528
	s-1.195-3.771-1.586-6.02c-0.39-2.25-2.458-10.108-3.39-13.921c-0.48-1.962-0.33-5.249-0.072-7.98l-0.986,3.202
	C548.031,522.571,548.071,522.746,548.057,522.928"/>
<path fill="#81AA8D" d="M562.098,586.954c0.982,1.082,0.572,1.063,0.821,2.313c0.249,1.249,0.661,0.126,1.376,1.742
	c0.714,1.616,0.697-0.021,1.358,1.246s0.787,0.181,1.985,1.519c1.198,1.341,3.382,0.341,4.456,0.483
	c0.677,0.09,2.059-0.224,2.987-0.468l15.392-6.986c1.424-1.626,6.261-3.516,8.042-3.966c0.001,0.022-0.002,0.044-0.002,0.067
	l0.976-2.257c-0.289,0.317-0.627,0.655-1.035,1.021c-1.952,1.753-14.752,3.651-16.668,4.117c-1.915,0.466-10.022,0.179-15.605-0.796
	c-5.583-0.977-6.266,0.682-6.266,0.682S561.114,585.872,562.098,586.954"/>
<path fill="#81AA8D" d="M623.079,565.325c0,0,6.416-2.147,8.35-1.573c1.933,0.573,1.63,0.78,3.432,1.099
	c1.803,0.319,1.904,0.25,3.426,1.622c1.522,1.372,2.672,0.413,4.158,1.982c1.486,1.568,2.148-0.607,2.593,1.329
	s2.665,0.935,2.58,2.371c-0.084,1.437,1.719,1.756,1.402,3.006c-0.317,1.251,1.457,1.244,1.104,2.69
	c-0.353,1.447,1.343,2.356,0.206,2.272c-1.137-0.085-1.523-0.013-2.048,0.538c-1.863,1.964-1.136-0.085-2.284,0.873
	c-1.149,0.959-1.126,1.805-2.43,1.662c-1.303-0.146-0.679,0.809-2.678,0.105c-1.998-0.701-2.707-0.217-3.902-0.95
	c-1.194-0.732-2.848-2.359-3.854-2.189c-1.006,0.171-1.006,0.171-2.296-1.017c-1.29-1.186-6.862-5.131-11.677-10.8
	C619.161,568.349,619.652,566.635,623.079,565.325"/>
<path fill="#81AA8D" d="M474.326,573.823c0,0-0.084-0.361,0.03-0.521c0.267-0.375,0.577-0.563,0.411-1.377
	c-0.335-1.646,1-1.89,0.523-3.028c-0.448-1.076-0.232-1.425,0.486-2.222c0.59-0.65,0.935-0.889,0.878-1.819
	c-0.056-0.933,1.679-1.212,1.945-2.004c0.431-1.276,0.395-1.653,2.199-1.794c1.289-0.102,0.506-0.438,1.063-0.921
	c0.558-0.48,1.964,0.394,2.946-0.199c0.981-0.591,1.019-0.479,1.937-1.107s0.034,0.56,1.956-0.289
	c1.924-0.847,0.73,0.339,2.543,0.236c1.813-0.104,2.67,1.839,3.99,2.256c1.32,0.416,2.624,2.621,5.776,2.227
	c3.151-0.395,1.521,5.299-1.877,7.258c-3.396,1.958-0.682-0.041-1.407,0.701c-0.727,0.741-1.583,0.327-2.618,1.067
	s-1.317,0.664-2.491,1.144c-1.173,0.479-1.422,0.962-2.543,1.292c-1.121,0.329-1.836,1.259-3.506,1.175
	c-1.67-0.082-3.242,0.432-4.562,0.016c-1.905-0.602-2.224-0.048-3.4-0.649C477.43,574.658,476.406,574.058,474.326,573.823"/>
</svg>
