<?xml version="1.0" encoding="utf-8"?>
<!-- Generator: Adobe Illustrator 16.0.0, SVG Export Plug-In . SVG Version: 6.00 Build 0)  -->
<!DOCTYPE svg PUBLIC "-//W3C//DTD SVG 1.1//EN" "http://www.w3.org/Graphics/SVG/1.1/DTD/svg11.dtd">
<svg version="1.1" id="Layer_1" xmlns="http://www.w3.org/2000/svg" xmlns:xlink="http://www.w3.org/1999/xlink" x="0px" y="0px"
	 width="35.6px" height="35.5px" viewBox="0 0 35.6 35.5" style="enable-background:new 0 0 35.6 35.5;" xml:space="preserve">
<path style="fill:#FFFFFF;" d="M34.6,1C33.9,0.3,33,0,32,0H3.6C2.6,0,1.7,0.3,1,1S0,2.6,0,3.5V32c0,0.9,0.3,1.8,1,2.5
	c0.7,0.7,1.5,1,2.5,1H32c1,0,1.8-0.3,2.5-1c0.7-0.7,1-1.5,1-2.5V3.5C35.6,2.6,35.3,1.7,34.6,1 M24.9,8.8l-2.6,0.1
	c-0.9,0-1.6,0.2-1.9,0.6c-0.3,0.4-0.5,0.9-0.5,1.7v3.1h4.8L24,19h-4.2v12.2h-5V19h-4.2v-4.8h4.2v-3.5c0-2,0.6-3.6,1.7-4.7
	c1.1-1.1,2.6-1.6,4.5-1.6c1.5,0,2.7,0.1,3.7,0.2V8.8z"/>
</svg>
