<?xml version="1.0" encoding="utf-8"?>
<!-- Generator: Adobe Illustrator 16.0.0, SVG Export Plug-In . SVG Version: 6.00 Build 0)  -->
<!DOCTYPE svg PUBLIC "-//W3C//DTD SVG 1.1//EN" "http://www.w3.org/Graphics/SVG/1.1/DTD/svg11.dtd">
<svg version="1.1" id="Layer_1" xmlns="http://www.w3.org/2000/svg" xmlns:xlink="http://www.w3.org/1999/xlink" x="0px" y="0px"
	 width="35.6px" height="35.5px" viewBox="0 0 35.6 35.5" style="enable-background:new 0 0 35.6 35.5;" xml:space="preserve">
<path style="fill:#FFFFFF;" d="M34.6,1C33.9,0.3,33,0,32,0H3.6C2.6,0,1.7,0.3,1,1C0.3,1.7,0,2.6,0,3.5V32c0,0.9,0.3,1.8,1,2.5
	c0.7,0.7,1.5,1,2.5,1H32c1,0,1.8-0.3,2.5-1c0.7-0.7,1-1.5,1-2.5V3.5C35.6,2.6,35.3,1.7,34.6,1 M10.4,26.3V9.2l14.8,8.6L10.4,26.3z"
	/>
</svg>
