<?xml version="1.0" encoding="utf-8"?>
<!-- Generator: Adobe Illustrator 16.0.0, SVG Export Plug-In . SVG Version: 6.00 Build 0)  -->
<!DOCTYPE svg PUBLIC "-//W3C//DTD SVG 1.1//EN" "http://www.w3.org/Graphics/SVG/1.1/DTD/svg11.dtd">
<svg version="1.1" id="Layer_1" xmlns="http://www.w3.org/2000/svg" xmlns:xlink="http://www.w3.org/1999/xlink" x="0px" y="0px"
	 width="337.481px" height="248.623px" viewBox="0 0 337.481 248.623" enable-background="new 0 0 337.481 248.623"
	 xml:space="preserve">
<path fill-rule="evenodd" clip-rule="evenodd" fill="#7B1717" d="M340.108,194.349c-38.565-11.664-91.346-26.851-93.583-28.762
	c-6.683-5.708-14.121-11.728-21.729-16.297c-8.278-4.975-16.788-9.793-25.753-14.084c-10.861-5.2-21.829-9.114-31.991-14.688
	c-8.231-4.514-15.277-10.15-24.546-13.681c-3.458-1.318-8.644-3.176-12.877-1.409c-1.637-3.003-0.168-15.144,0-19.114l0.402-0.2
	c2.435,2.357,3.944,5.077,7.444,6.438c5.723,2.226,12.79-0.555,16.297-2.615c10.271-6.034,14.775-14.772,19.517-26.356
	c0.84-2.051,2.111-4.31,2.414-6.841c-11.268-0.733-23.859-0.663-32.393,3.018c-3.853,1.662-7.4,6.601-10.664,7.646
	c0.762-4.906,2.199-9.225,2.817-14.486c19.776-10.833,7.605-32.481-2.213-43.66c-2.455-2.794-6.068-8.104-9.859-9.255
	c-1.827,5.304-4.909,10.594-7.042,16.096c-6,15.48-1.237,34.137,13.078,37.423c-0.174,4.998-2.281,8.67-2.615,13.279
	c-1.534-0.555-6.915-9.13-9.658-11.066c-8.149-5.752-17.925-7.164-28.771-10.663c-0.715,0.155-0.579,0.142-1.006,0.402
	c0.335,3.621,0.67,7.243,1.006,10.865c2.557,13.249,5.96,22.619,15.09,29.173c5.293,3.801,13.932,5.773,19.516,0.604
	c0.201-0.067,0.402-0.135,0.604-0.201c-0.067,6.772-0.134,13.548-0.201,20.32c-0.134,0.067-0.268,0.135-0.402,0.201
	c-7.745-4.579-11.954,2.426-16.499,6.439c-8.99,7.938-21.855,22.459-21.527,39.435c-0.067,0.067-0.135,0.134-0.201,0.201
	c-5.982-1.339-13.564-7.389-18.913-10.261c-12.777-6.862-25.518-13.908-39.032-19.718c-6.057-2.604-20.975-4.799-25.754,0.604
	c-3.834,4.334,3.771,11.963,6.036,13.882c12.092,10.242,25.857,18.906,38.832,28.168c15.575,11.119,30.744,22.837,47.08,33.198
	c7.87,4.991,15.656,11.788,24.949,15.09c5.642,2.005,17.402,1.661,23.941,0.604c13.488-2.182,27.168-0.836,40.24-3.221
	c5.108-0.931,18.139-2.79,23.742-1.81c13.563,2.371,24.978,5.337,36.618,9.456c3.483,1.333,55.995,17.878,94.641,30.121
	c0.922-29.981,3.633-33.202,3.966-54.274 M156.59,168.001c-3.691,2.009-10.799,2.829-15.896,2.012
	c-14.151-2.269-25.38-3.937-28.168-17.303c-1.614-7.744,2.85-13.922,5.03-18.51c3.182-6.692,4.342-13.645,6.841-21.327
	c1.487,0.934,1.704,3.911,2.616,5.432c1.609,2.146,3.219,4.292,4.829,6.438c8.565,9.566,21.126,14.801,27.765,26.356
	C163.087,157.157,162.15,164.973,156.59,168.001"/>
</svg>
