<?xml version="1.0" encoding="utf-8"?>
<!-- Generator: Adobe Illustrator 16.0.0, SVG Export Plug-In . SVG Version: 6.00 Build 0)  -->
<!DOCTYPE svg PUBLIC "-//W3C//DTD SVG 1.1//EN" "http://www.w3.org/Graphics/SVG/1.1/DTD/svg11.dtd">
<svg version="1.1" id="Layer_1" xmlns="http://www.w3.org/2000/svg" xmlns:xlink="http://www.w3.org/1999/xlink" x="0px" y="0px"
	 width="193.17px" height="47.6px" viewBox="0 0 193.17 47.6" enable-background="new 0 0 193.17 47.6" xml:space="preserve">
<path fill="#C52B20" d="M160.472,46.86c-4.065,0-7.267-0.8-9.545-2.401l0,0c-1.17,1.786-2.833,2.217-3.694,2.34
	c-0.124,0-0.308,0-0.493,0c-0.924,0-2.34-0.246-3.633-1.539c0,0,0,0-0.062,0l0,0c-0.123,0.062-0.246,0.123-0.308,0.185
	c-2.032,0.862-4.063,1.354-6.096,1.354c-1.293,0-2.217-0.185-2.709-0.308c-1.293-0.308-2.524-0.8-3.633-1.478
	c-0.862,0.862-2.033,1.354-3.264,1.354h-11.33c-1.231,0-2.34-0.432-3.202-1.293c-0.862,0.801-2.032,1.293-3.202,1.293h-8.806h-0.123
	c-1.478-0.062-2.956-0.554-4.249-1.54c-0.924,0.986-2.155,1.602-3.51,1.602H82.022H71.307c-1.169,0-2.34-0.431-3.202-1.231
	c-0.862,0.801-1.971,1.293-3.141,1.293h-6.343c-0.492,0-0.923-0.062-1.354-0.185c-0.431,0.123-0.924,0.185-1.354,0.185H45.629
	c-1.478,0-2.894-0.677-3.756-1.848c-0.616-0.8-0.985-1.847-0.985-2.894c0-0.432,0.061-0.862,0.185-1.231l0.554-2.156
	c0.369-1.416,1.416-2.586,2.771-3.14l1.601-5.665c-1.417-0.062-2.771-0.739-3.633-1.909c-0.616-0.801-0.986-1.848-0.986-2.895
	c0-0.431,0.062-0.862,0.185-1.231l2.033-7.328c0.369-1.478,1.354-4.865,4.803-4.865h18.905c1.293,0,2.524,0.554,3.387,1.478
	c0.862-0.924,2.093-1.416,3.387-1.478h6.958c1.292,0,2.524,0.493,3.387,1.417c0.308,0.308,0.554,0.616,0.739,1.047
	c0.8-1.478,2.401-2.463,4.125-2.463c1.17,0,5.234,0,8.498,0c2.463,0,3.941,0,4.372,0c4.495,0.185,7.882,2.895,9.298,7.267
	l2.525-4.803c0.8-1.54,2.463-2.525,4.188-2.525h6.834c1.232,0,2.463,0.493,3.387,1.417c0.862,0.862,1.354,2.094,1.354,3.325v0.739
	c2.279-2.771,5.05-4.68,8.252-5.542c1.108-0.308,2.463-0.493,3.879-0.493c1.108,0,3.202,0.124,4.803,0.862
	c0.8-0.37,1.602-0.554,2.402-0.554c0.616,0,1.169,0.123,1.785,0.308c0.493,0.185,0.924,0.431,1.355,0.801
	c0.37-0.247,0.739-0.431,1.17-0.554l0.061-0.247c0.616-1.97,2.463-3.325,4.495-3.325h6.343c1.293,0,2.586,0.554,3.51,1.54
	c0.924-0.985,2.155-1.54,3.51-1.54h4.927c0.678,0,1.354,0.124,1.971,0.432c0.615-0.308,1.293-0.432,1.971-0.432h6.28
	c1.478,0,2.895,0.678,3.757,1.848c0.678,0.862,0.985,1.971,0.985,3.079c0.062,0.062,0.122,0.124,0.185,0.247
	c0.615,0.801,0.985,1.847,0.985,2.894c0,0.431-0.062,0.862-0.186,1.231l-0.554,2.032c-0.369,1.417-1.416,2.586-2.771,3.141
	c0,0-3.201,11.453-4.002,14.409c0.554,0.8,0.862,1.786,0.862,2.709c0,0.369-0.062,0.8-0.185,1.17l-0.247,1.047
	c-0.801,3.079-2.401,4.618-4.741,4.618H170.14c-1.047,0-2.095-0.369-2.957-1.047c-1.908,0.985-4.125,1.478-6.649,1.478H160.472z"/>
<path fill="#FFFFFF" d="M158.01,8.498L158.01,8.498h6.342c1.293,0,2.524,0.616,3.325,1.663c0.062,0.062,0.123,0.185,0.185,0.247
	c0.739-1.17,2.032-1.909,3.51-1.909h4.927c0.678,0,1.354,0.185,1.971,0.493c0.615-0.308,1.293-0.493,1.97-0.493h6.281
	c1.294,0,2.525,0.616,3.325,1.601c0.616,0.862,0.924,1.909,0.862,2.895c0.123,0.123,0.246,0.246,0.308,0.369
	c0.555,0.739,0.862,1.663,0.862,2.524c0,0.37-0.062,0.739-0.123,1.109l-0.554,2.032c-0.37,1.355-1.417,2.402-2.71,2.833
	c-0.8,2.956-3.14,11.331-4.188,14.902l0.062,0.061c0.555,0.739,0.862,1.663,0.862,2.525c0,0.369-0.062,0.677-0.123,1.046
	l-0.246,1.047c-0.309,1.047-1.108,4.188-4.188,4.188c-0.062,0-0.123,0-0.123,0c-0.062,0-10.284,0-10.284,0
	c-1.047,0-2.093-0.431-2.895-1.17c-1.724,0.985-3.94,1.602-6.711,1.602h-0.123c-4.25,0-7.513-0.924-9.729-2.648
	c-0.062,0.185-0.185,0.369-0.308,0.555c-1.047,1.601-2.525,1.97-3.263,2.094c-0.124,0-0.308,0-0.432,0
	c-0.862,0-2.094-0.246-3.263-1.417c-0.062-0.061-0.124-0.123-0.247-0.123c-0.062,0-0.185,0-0.369,0.123l0.123-0.061
	c-0.123,0.061-0.308,0.185-0.431,0.185c-2.34,0.984-4.373,1.293-5.85,1.293c-1.232,0-2.155-0.185-2.525-0.309
	c-1.416-0.369-2.709-0.924-3.879-1.662c-0.8,0.924-1.908,1.539-3.202,1.539h-11.33c-1.232,0-2.463-0.554-3.202-1.539
	c-0.801,0.924-1.91,1.539-3.203,1.539h-8.744c0,0-0.061,0-0.123,0c-1.601-0.062-3.079-0.738-4.372-1.785
	c-0.739,1.108-2.032,1.785-3.448,1.785c0,0-10.53,0-10.592,0H71.43c-1.231,0-2.401-0.554-3.202-1.539
	c-0.8,0.924-1.909,1.539-3.14,1.539l0,0h-6.342c-0.493,0-0.924-0.062-1.355-0.246c-0.431,0.185-0.862,0.246-1.354,0.246H45.752
	c-1.293,0-2.524-0.615-3.325-1.662c-0.554-0.739-0.862-1.602-0.862-2.525c0-0.369,0.062-0.738,0.124-1.107l0.554-2.156
	c0.369-1.355,1.417-2.402,2.709-2.833c0.37-1.231,0.924-3.387,1.848-6.65c-0.308,0-0.616,0-0.616,0
	c-1.293,0-2.524-0.616-3.325-1.663c-0.678-0.554-0.985-1.417-0.985-2.34c0-0.369,0.062-0.739,0.123-1.108l2.032-7.328
	c0.431-1.478,1.231-4.433,4.249-4.433c0.062,0,0.123,0,0.123,0h18.72c1.293,0,2.525,0.616,3.325,1.662
	c0,0.062,0.062,0.062,0.062,0.124c0.8-1.109,2.032-1.786,3.387-1.786h6.958c1.109,0,2.217,0.431,3.018,1.293
	c0.616,0.677,0.985,1.539,1.108,2.401c0.062-0.247,0.123-0.554,0.123-0.554c0.493-1.847,2.155-3.14,4.003-3.14
	c1.17,0,5.234,0,8.498,0c2.094,0,3.879,0,4.373,0c3.817,0.185,7.943,2.463,9.174,8.251c1.293-2.34,3.202-6.035,3.202-6.035
	c0.739-1.354,2.155-2.216,3.695-2.216h6.835c1.109,0,2.155,0.431,2.956,1.231c0.801,0.8,1.232,1.847,1.232,2.956
	c0,0,0,0.924,0,2.463c2.155-3.079,5.111-5.604,8.99-6.712c1.047-0.308,2.402-0.431,3.756-0.431c1.786,0,3.633,0.308,4.865,0.924
	c0.739-0.431,1.601-0.616,2.402-0.616c0.554,0,1.046,0.123,1.54,0.308c0.554,0.246,1.108,0.554,1.539,0.985
	c0.493-0.369,1.046-0.677,1.601-0.862l0.185-0.554C154.622,9.668,156.223,8.498,158.01,8.498 M158.01,7.389
	c-2.341,0-4.373,1.478-5.05,3.695c-0.247,0.062-0.431,0.185-0.678,0.308c-0.369-0.247-0.739-0.493-1.17-0.616
	c-0.616-0.247-1.293-0.37-1.971-0.37c-0.8,0-1.601,0.185-2.401,0.493c-1.662-0.677-3.695-0.801-4.803-0.801
	c-1.478,0-2.894,0.185-4.064,0.493c-2.894,0.801-5.418,2.34-7.636,4.68c-0.185-1.17-0.677-2.216-1.478-3.017
	c-0.985-0.985-2.34-1.54-3.757-1.54h-6.834c-1.971,0-3.757,1.109-4.681,2.833l-1.97,3.695c-1.971-4.495-5.973-6.342-9.36-6.465
	c-0.431,0-1.91,0-4.434,0c-3.263,0-7.328,0-8.498,0c-1.663,0-3.141,0.739-4.126,1.97c-0.123-0.123-0.246-0.247-0.308-0.37
	c-1.047-1.047-2.402-1.601-3.818-1.601h-6.958c-1.231,0-2.463,0.431-3.387,1.231c-0.923-0.801-2.155-1.231-3.387-1.231H48.462
	c0,0-0.062,0-0.123,0c-3.941,0-4.988,3.818-5.357,5.295l-2.032,7.328c-0.123,0.431-0.185,0.924-0.185,1.417
	c0,1.17,0.369,2.278,1.108,3.202c0.8,1.108,2.032,1.786,3.387,2.032l-0.985,3.571l-0.308,1.17c-1.416,0.677-2.402,1.909-2.833,3.387
	l-0.554,2.156c-0.123,0.431-0.185,0.923-0.185,1.416c0,1.17,0.369,2.278,1.108,3.202c0.985,1.293,2.586,2.094,4.249,2.094h10.284
	c0.492,0,0.923-0.063,1.354-0.186c0.431,0.123,0.924,0.186,1.355,0.186h6.342c1.17,0,2.279-0.37,3.202-1.109
	c0.924,0.678,2.032,1.109,3.202,1.109h10.714h10.591c1.355,0,2.586-0.493,3.572-1.417c1.293,0.862,2.709,1.354,4.125,1.417
	c0.062,0,0.124,0,0.185,0h8.744c1.17,0,2.279-0.37,3.203-1.109c0.923,0.739,2.032,1.109,3.202,1.109h11.33
	c1.232,0,2.402-0.432,3.387-1.231c1.047,0.554,2.217,1.046,3.387,1.354c0.492,0.124,1.478,0.309,2.833,0.309
	c2.093,0,4.249-0.493,6.342-1.354h0.061c1.355,1.17,2.771,1.416,3.695,1.416c0.185,0,0.431,0,0.555,0
	c0.739-0.062,2.463-0.431,3.818-2.094c2.34,1.416,5.542,2.155,9.421,2.155h0.123c2.463,0,4.68-0.492,6.588-1.416
	c0.863,0.615,1.91,0.924,3.018,0.924c0,0,10.223,0,10.284,0h0.123c2.647,0,4.434-1.663,5.296-5.05l0.246-1.047
	c0.123-0.431,0.185-0.924,0.185-1.354c0-0.985-0.308-1.971-0.8-2.833c0.862-3.017,2.34-8.374,3.325-11.945l0.554-1.91
	c1.416-0.677,2.463-1.909,2.833-3.387l0.554-2.032c0.123-0.493,0.185-0.924,0.185-1.417c0-1.17-0.369-2.34-1.108-3.264
	c0-0.062-0.062-0.062-0.062-0.123c0-1.17-0.369-2.278-1.107-3.202c-0.986-1.293-2.587-2.093-4.188-2.093h-6.281
	c-0.677,0-1.354,0.123-1.97,0.369c-0.616-0.247-1.293-0.369-1.971-0.369h-4.926c-1.294,0-2.525,0.492-3.511,1.293
	c-0.985-0.801-2.217-1.293-3.51-1.293L158.01,7.389L158.01,7.389L158.01,7.389z"/>
<g opacity="0.3">
	<g>
		<g>
			<defs>
				<rect id="SVGID_1_" x="46.306" y="13.732" width="142.122" height="29.373"/>
			</defs>
			<clipPath id="SVGID_2_">
				<use xlink:href="#SVGID_1_"  overflow="visible"/>
			</clipPath>
			<path clip-path="url(#SVGID_2_)" d="M152.775,36.208l4.248-16.441c0.124-0.493-0.369-0.677-0.8-0.677h-1.047l0.555-2.032h10.345
				l-0.555,2.032h-1.17c-0.431,0-0.678,0.246-0.862,0.616l-5.172,19.15c0,0-0.432,2.648,3.264,2.648
				c3.756,0,4.864-1.231,5.233-2.402l5.419-19.335c0.123-0.37-0.369-0.739-0.739-0.739h-0.8l0.555-2.032h4.987l-0.555,2.032h-0.554
				c-0.432,0-0.862,0.247-0.985,0.616l-5.419,19.335c-0.616,1.848-2.709,4.064-7.267,4.064
				C157.762,43.104,151.174,42.488,152.775,36.208"/>
		</g>
		<g>
			<defs>
				<rect id="SVGID_3_" x="46.306" y="13.732" width="142.122" height="29.373"/>
			</defs>
			<clipPath id="SVGID_4_">
				<use xlink:href="#SVGID_3_"  overflow="visible"/>
			</clipPath>
			<line clip-path="url(#SVGID_4_)" fill="none" x1="160.349" y1="42.55" x2="160.349" y2="42.55"/>
		</g>
		<g>
			<defs>
				<rect id="SVGID_5_" x="46.306" y="13.732" width="142.122" height="29.373"/>
			</defs>
			<clipPath id="SVGID_6_">
				<use xlink:href="#SVGID_5_"  overflow="visible"/>
			</clipPath>
			<path clip-path="url(#SVGID_6_)" d="M181.223,42.612H170.94l0.554-2.094h1.047c0.432,0,0.862-0.309,1.048-0.678l5.603-20.074
				c0.063-0.37-0.369-0.677-0.738-0.739h-0.801l0.555-2.032h10.283l-0.555,2.032h-1.046c-0.432,0-0.862,0.247-1.047,0.616
				l-5.604,19.952c0,0.062,0,0.123,0,0.123c0,0.431,0.309,0.739,0.739,0.739h0.801L181.223,42.612z"/>
		</g>
		<g>
			<defs>
				<rect id="SVGID_7_" x="46.306" y="13.732" width="142.122" height="29.373"/>
			</defs>
			<clipPath id="SVGID_8_">
				<use xlink:href="#SVGID_7_"  overflow="visible"/>
			</clipPath>
			<path clip-path="url(#SVGID_8_)" d="M49.201,16.996h18.781l0,0l-2.586,8.99h-1.724l0,0l0.985-3.633
				c0.247-0.923,0.616-3.51-1.909-3.325h-1.354l-5.789,20.567c0,0.062,0,0.123,0,0.123c0,0.431,0.308,0.739,0.739,0.739h0.8
				l-0.492,2.155l0,0H46.368l0.616-2.155h1.047c0.431,0,0.862-0.247,1.047-0.616l5.727-20.751h-1.785
				c-1.786-0.062-2.833,1.663-3.141,2.586c-0.123,0.431-1.416,4.125-1.416,4.125h-1.663L49.201,16.996z"/>
		</g>
		<g>
			<defs>
				<rect id="SVGID_9_" x="46.306" y="13.732" width="142.122" height="29.373"/>
			</defs>
			<clipPath id="SVGID_10_">
				<use xlink:href="#SVGID_9_"  overflow="visible"/>
			</clipPath>
			<path clip-path="url(#SVGID_10_)" d="M142.307,30.112l-0.431,1.601h2.586c0,0,0.246,0,0.246,0.247
				c0,0.246-1.724,6.281-1.724,6.281c-0.616,1.663-1.847,2.957-3.694,2.957c0,0-3.079,0.122-3.387-3.265
				c-0.308-3.571,2.463-14.224,4.742-17.488c0,0,1.232-2.34,3.325-2.34c2.155,0,4.31,2.032,4.618,5.419
				c0.123,1.416,0.924,1.54,1.047,1.54c0.247,0,0.555-0.124,0.616-0.431c0.124-0.678,0-7.513,0-7.513s-0.123-0.8-0.862-0.247
				c-0.801,0.616-2.032,0.862-3.694,0c-0.924-0.492-3.818-0.616-5.542-0.123c-7.205,2.032-9.606,10.714-10.161,13.793
				c-1.047,6.096,0.493,10.899,5.911,12.316c0.432,0.123,2.71,0.554,5.727-0.801c0,0,3.079-1.785,5.604,0.801
				c0.369,0.369,0.43,0.123,0.554-0.062l3.51-12.685H142.307"/>
		</g>
		<g>
			<defs>
				<rect id="SVGID_11_" x="46.306" y="13.732" width="142.122" height="29.373"/>
			</defs>
			<clipPath id="SVGID_12_">
				<use xlink:href="#SVGID_11_"  overflow="visible"/>
			</clipPath>
			<polygon clip-path="url(#SVGID_12_)" points="164.536,16.01 165.091,13.732 158.809,13.732 158.07,15.949 			"/>
		</g>
		<g>
			<defs>
				<rect id="SVGID_13_" x="46.306" y="13.732" width="142.122" height="29.373"/>
			</defs>
			<clipPath id="SVGID_14_">
				<use xlink:href="#SVGID_13_"  overflow="visible"/>
			</clipPath>
			<polygon clip-path="url(#SVGID_14_)" points="176.421,16.01 176.975,13.732 172.11,13.732 171.371,16.01 			"/>
		</g>
		<g>
			<defs>
				<rect id="SVGID_15_" x="46.306" y="13.732" width="142.122" height="29.373"/>
			</defs>
			<clipPath id="SVGID_16_">
				<use xlink:href="#SVGID_15_"  overflow="visible"/>
			</clipPath>
			<polygon clip-path="url(#SVGID_16_)" points="186.642,16.01 187.259,13.732 180.977,13.732 180.238,16.01 			"/>
		</g>
		<g>
			<defs>
				<rect id="SVGID_17_" x="46.306" y="13.732" width="142.122" height="29.373"/>
			</defs>
			<clipPath id="SVGID_18_">
				<use xlink:href="#SVGID_17_"  overflow="visible"/>
			</clipPath>
			<path clip-path="url(#SVGID_18_)" d="M101.296,42.612c-0.924,0-1.909-0.678-2.586-1.786l-4.372-6.897
				c-0.185-0.246-0.554-0.246-0.677,0.123l-1.539,5.604c0,0.062,0,0.123,0,0.123c0,0.431,0.308,0.739,0.738,0.739h1.109
				l-0.493,2.094H82.884H72.169l0.554-2.032h1.232c0.431,0,0.862-0.246,0.923-0.678l0.123-4.495c0-0.369-0.308-0.369-0.308-0.369
				l-7.327-0.062c0,0-0.308,0.062-0.431,0.308l-2.032,3.757c-0.554,1.046,0.062,1.539,0.431,1.539h0.924l0,0l-0.555,2.032h-6.342
				l0,0l0.554-2.094h0.862c0,0,1.047,0.123,1.724-1.108l12.192-22.415h6.959l0,0l-0.555,22.538c0.124,0.431,0.616,0.924,0.985,0.985
				h1.17H84.3c0.431-0.062,0.862-0.309,1.047-0.678l5.542-20.013c0.062-0.431-0.308-0.801-0.739-0.801h-0.862l0.554-2.032
				c0,0,11.454-0.062,12.624,0c1.231,0.062,5.357,0.493,5.542,7.328c0.185,6.466-6.589,8.19-7.451,8.375c0,0-0.8,0.308-0.308,1.109
				l4.25,6.342c0.431,0.555,1.478,0.555,2.155-0.554l12.069-22.661h6.835l-0.062,22.907c0,0.493,0.308,0.616,0.986,0.616h1.601l0,0
				l-0.554,2.031v0.062h-11.331l0.492-2.093h1.293c0.554,0,0.801-0.185,0.862-0.555l0.124-4.372c0-0.37-0.308-0.37-0.308-0.37
				l-7.266-0.061c0,0-0.308,0.061-0.431,0.308l-2.032,3.756c-0.555,1.047-0.124,1.294,0.554,1.294h0.862l0,0l-0.554,2.093
				L101.296,42.612 M68.659,33.252h5.789c0.246,0,0.554-0.185,0.554-0.492l0.247-12.008c0-0.308-0.308-0.308-0.431-0.062
				l-6.466,11.946C67.982,33.191,68.659,33.252,68.659,33.252 M96.554,31.036c2.278-0.124,3.818-2.033,4.865-5.728
				c1.108-4.002,0.185-6.281-1.663-6.527h-1.54c-0.246,0-0.308,0.062-0.369,0.37l-3.326,11.885H96.554z M112.872,33.252h5.789
				c0.247,0,0.555-0.185,0.555-0.492l0.246-12.008c0-0.308-0.308-0.308-0.431-0.062l-6.403,11.946
				C112.256,33.191,112.872,33.252,112.872,33.252"/>
		</g>
	</g>
</g>
<path fill="#FFFFFF" d="M152.036,35.161l4.249-16.441c0.123-0.493-0.369-0.678-0.8-0.678h-1.047l0.554-2.032h10.345l-0.554,2.032
	h-1.171c-0.431,0-0.677,0.247-0.862,0.616l-5.172,19.151c0,0-0.431,2.648,3.264,2.648c3.756,0,4.864-1.231,5.234-2.402l5.418-19.335
	c0.124-0.37-0.369-0.739-0.738-0.739h-0.801l0.555-2.032h4.987l-0.554,2.032h-0.678c-0.432,0-0.862,0.246-0.985,0.616l-5.419,19.335
	c-0.615,1.848-2.709,4.064-7.267,4.064C156.962,42.119,150.373,41.441,152.036,35.161"/>
<line fill="none" x1="159.61" y1="41.504" x2="159.61" y2="41.504"/>
<path fill="#FFFFFF" d="M180.485,41.626h-10.284l0.555-2.093h1.047c0.431,0,0.862-0.308,1.047-0.678l5.604-20.074
	c0.062-0.37-0.37-0.677-0.739-0.677h-0.801l0.555-2.032h10.283l-0.554,2.032h-1.047c-0.431,0-0.862,0.246-1.047,0.616L179.5,38.671
	c0,0.062,0,0.123,0,0.185c0,0.431,0.308,0.739,0.738,0.739h0.801L180.485,41.626L180.485,41.626z"/>
<path fill="#FFFFFF" d="M48.462,16.01h18.781l0,0L64.656,25h-1.724l0,0l0.985-3.633c0.246-0.924,0.616-3.51-1.909-3.326h-1.355
	l-5.788,20.567c0,0.062,0,0.124,0,0.185c0,0.432,0.369,0.739,0.738,0.739h0.801l-0.555,2.032l0,0H45.568l0.554-2.155h1.047
	c0.431,0,0.862-0.247,1.046-0.616l5.789-20.813h-1.786c-1.785-0.124-2.832,1.601-3.14,2.524c-0.123,0.37-1.416,4.126-1.416,4.126
	h-1.663L48.462,16.01z"/>
<path fill="#FFFFFF" d="M141.506,29.126l-0.431,1.602h2.586c0,0,0.247,0,0.247,0.246c0,0.247-1.724,6.281-1.724,6.281
	c-0.616,1.663-1.847,2.955-3.695,2.955c0,0-3.079,0.124-3.449-3.263c-0.308-3.571,2.525-14.225,4.742-17.488
	c0,0,1.232-2.34,3.387-2.34c2.155,0,4.311,2.032,4.619,5.419c0.123,1.416,0.923,1.539,1.047,1.539c0.247,0,0.554-0.061,0.616-0.431
	c0.124-0.678,0-7.513,0-7.513s-0.123-0.8-0.924-0.247c-0.8,0.616-2.032,0.863-3.694,0c-0.924-0.492-3.818-0.616-5.542-0.123
	c-7.205,1.97-9.545,10.714-10.099,13.793c-1.046,6.096,0.493,10.961,5.912,12.315c0.431,0.123,2.709,0.555,5.727-0.801
	c0,0,3.079-1.786,5.604,0.801c0.37,0.369,0.431,0.123,0.555-0.062l3.448-12.686H141.506"/>
<polygon fill="#FFFFFF" points="163.736,14.963 164.351,12.685 158.07,12.685 157.332,14.963 "/>
<polygon fill="#FFFFFF" points="175.62,14.963 176.236,12.685 171.309,12.685 170.571,14.963 "/>
<polygon fill="#FFFFFF" points="185.904,14.963 186.519,12.685 180.177,12.685 179.5,14.963 "/>
<path fill="#FFFFFF" d="M100.556,41.626c-0.924,0-1.909-0.677-2.586-1.785l-4.372-6.896c-0.185-0.247-0.554-0.247-0.677,0.123
	l-1.54,5.604c0,0.062,0,0.123,0,0.185c0,0.431,0.308,0.739,0.739,0.739h1.108l-0.492,2.094h-10.53H71.492l0.554-2.032h1.231
	c0.431,0,0.862-0.246,0.923-0.678l0.124-4.495c0-0.369-0.308-0.369-0.308-0.369l-7.328-0.062c0,0-0.308,0.062-0.431,0.308
	l-2.033,3.757c-0.554,1.046,0.062,1.539,0.431,1.539h0.924l0,0l-0.554,2.032h-6.343l0,0l0.555-2.094H60.1
	c0,0,1.046,0.123,1.724-1.108L74.016,16.01h6.958l0,0l-0.554,22.537c0.123,0.431,0.616,0.923,0.985,0.986h1.17h1.046
	c0.431-0.063,0.862-0.308,1.047-0.678l5.542-20.013c0.062-0.431-0.308-0.801-0.739-0.801h-0.862l0.554-2.032
	c0,0,11.454-0.062,12.624,0c1.231,0.062,5.357,0.493,5.542,7.328c0.186,6.466-6.588,8.19-7.451,8.375c0,0-0.8,0.308-0.308,1.108
	l4.249,6.342c0.431,0.493,1.478,0.555,2.155-0.554l12.192-22.599h6.834l-0.061,22.907c0,0.431,0.308,0.616,0.985,0.616h1.602l0,0
	l-0.493,2.032v0.061h-11.33l0.493-2.093h1.293c0.554,0,0.801-0.185,0.862-0.555l0.123-4.372c0-0.37-0.308-0.37-0.308-0.37
	l-7.328-0.062c0,0-0.308,0.062-0.431,0.308l-2.032,3.756c-0.554,1.046-0.123,1.293,0.555,1.293h0.862l0,0l-0.554,2.093H100.556
	 M67.859,32.205h5.789c0.246,0,0.554-0.185,0.554-0.493l0.247-12.007c0-0.308-0.308-0.308-0.431-0.062l-6.465,11.946
	C67.243,32.144,67.859,32.205,67.859,32.205 M95.815,29.989c2.278-0.124,3.817-2.032,4.864-5.727
	c1.108-4.064,0.185-6.281-1.663-6.527h-1.54c-0.246,0-0.308,0.062-0.369,0.37l-3.325,11.885H95.815z M112.072,32.205h5.789
	c0.246,0,0.554-0.185,0.554-0.493l0.247-12.007c0-0.308-0.308-0.308-0.431-0.062l-6.466,11.946
	C111.456,32.144,112.072,32.205,112.072,32.205"/>
<path fill="#FFFFFF" d="M14.779,46.923h-0.124c-0.061,0-0.061,0-0.123,0c-5.48-0.063-6.835-1.479-7.205-2.095
	c-0.124-0.245-0.739-1.169-1.602-2.4l-1.354-2.033c-2.094-3.079-3.326-6.157-3.326-8.127c0-2.402,0.369-4.742,1.108-7.205
	c0.37-1.17,0.185-2.463-0.124-3.51c-0.8-0.37-1.847-1.047-2.032-2.155c0-0.062,0-0.185,0-0.246v-1.231c0-0.124,0-0.247,0.062-0.37
	c0.862-3.633,12.315-3.818,14.655-3.818c0.8,0,1.663,0,2.463,0.062c0.308-0.8,0.369-0.924,0.431-1.047
	c0-0.062,2.832-5.604,4.556-7.636c0.062-0.369,0.185-0.8,0.37-1.108c0.308-0.492,0.738-0.862,1.292-1.108
	c0.37-0.431,1.17-1.478,1.786-2.34C25.739,0.246,26.109,0,26.478,0c0,0,0.062,0,0.247,0c1.663,0,2.894,0.616,3.387,1.786
	c0.124,0.431,0.062,0.924-0.247,1.293c-1.231,1.354-1.971,2.155-2.34,2.524c-0.062,0.493-0.247,1.108-0.677,1.663
	C26.54,7.574,26.17,7.82,25.739,7.882c-0.861,1.17-2.524,3.633-3.817,6.343c4.68,0.616,7.143,1.786,7.451,3.51
	c0,0.062,0.062,0.185,0.062,0.308v1.232c0,0.923-0.677,1.724-1.909,2.34c-0.308,1.047-0.493,2.34-0.123,3.572
	c0.739,2.401,1.047,4.741,1.108,7.204c0,1.971-1.231,5.05-3.325,8.129L23.83,42.55c-0.862,1.231-1.478,2.155-1.601,2.402
	c-0.37,0.615-1.786,2.031-7.205,2.094c-0.062,0-0.062,0-0.124,0C14.841,46.923,14.779,46.923,14.779,46.923"/>
<path fill="#C52B20" d="M28.141,17.981c-0.123-1.663-6.096-3.018-13.424-3.018c-7.328,0-13.362,1.355-13.486,3.018l0,0v1.231l0,0
	c0,1.663,6.035,3.017,13.424,3.017c7.39,0,13.425-1.354,13.425-3.017l0,0L28.141,17.981L28.141,17.981z"/>
<g opacity="0.3">
	<g>
		<g>
			<defs>
				<rect id="SVGID_19_" x="5.049" y="16.503" width="19.336" height="3.14"/>
			</defs>
			<clipPath id="SVGID_20_">
				<use xlink:href="#SVGID_19_"  overflow="visible"/>
			</clipPath>
			<path clip-path="url(#SVGID_20_)" d="M24.323,18.104c0,0.862-4.311,1.539-9.668,1.539c-5.356,0-9.667-0.677-9.667-1.539
				c0-0.862,4.311-1.54,9.667-1.54C20.012,16.503,24.323,17.242,24.323,18.104"/>
		</g>
	</g>
</g>
<path fill="#C52B20" d="M26.54,1.231c0,0,1.909-0.123,2.401,0.985c-1.909,2.094-2.647,2.894-2.647,2.894s0.123,1.724-1.293,1.601
	c-1.293,1.663-5.296,7.697-5.912,11.885c-0.308,0-0.862-0.062-0.862-0.062l-0.739-0.062l-0.678,0.124c0,0,1.54-4.68,1.848-5.234
	c0.246-0.554,3.325-6.465,4.68-7.697c-0.124-0.369,0.123-1.354,1.047-1.601C25.001,3.51,26.54,1.231,26.54,1.231"/>
<path fill="#C52B20" d="M26.17,25.432c-0.8-2.833,0.678-5.789,0.801-6.096c0.431-1.047-5.48,1.355-10.837,1.601
	c-0.432,0-0.863,0-1.293,0l0,0c-0.062,0-0.062,0-0.124,0c-0.062,0-0.062,0-0.123,0l0,0c-0.431,0-0.862,0-1.293,0
	C7.882,20.69,1.97,18.289,2.463,19.335c0.124,0.308,1.663,3.325,0.801,6.096c-0.801,2.833-1.046,5.111-1.046,6.835
	c0,1.54,0.985,4.311,3.079,7.451c1.724,2.524,2.771,4.063,3.017,4.495c0.247,0.431,1.724,1.416,6.22,1.479l0,0
	c0.062,0,0.062,0,0.123,0c0.062,0,0.062,0,0.124,0l0,0c4.557,0,5.973-1.048,6.22-1.479c0.246-0.432,1.293-1.971,3.017-4.495
	c2.094-3.14,3.141-5.911,3.079-7.451C27.218,30.542,26.971,28.265,26.17,25.432"/>
</svg>
